<svg width="327" height="316" viewBox="0 0 327 316" fill="none" xmlns="http://www.w3.org/2000/svg">
<path d="M107.747 165.051C113.602 161.134 120.157 164.323 130.621 140.078C141.085 115.832 120.244 62.0401 154.779 41.2577C189.313 20.4753 217.545 26.9767 247.866 54.795C278.187 82.6133 278.2 109.561 289.729 131.363C301.258 153.165 290.645 202.82 227.314 219.025C163.983 235.23 150.101 251.406 131.117 274.381C112.132 297.357 76.437 282.174 72.4498 233.595C68.4626 185.017 101.892 168.969 107.747 165.051Z" fill="#D4E8FF"/>
<path d="M75.4585 40.9466H174.284C179.066 40.9584 183.701 42.5987 187.427 45.5972C191.152 48.5957 193.745 52.7736 194.778 57.4427L244.712 280.392C245.257 282.823 245.267 285.343 244.741 287.778C244.215 290.213 243.166 292.504 241.667 294.493C240.174 296.475 238.265 298.104 236.073 299.267C233.882 300.429 231.462 301.096 228.985 301.221L127.392 306.26C121.935 306.518 116.572 304.778 112.305 301.366C108.039 297.955 105.162 293.106 104.212 287.726L75.8874 130.099L73.7796 130.705L68.3599 100.828L70.5328 100.283L62.6256 56.283C62.2864 54.3998 62.3645 52.4651 62.8544 50.6154C63.3442 48.7656 64.2339 47.0458 65.4607 45.5773C66.6819 44.1151 68.2117 42.9416 69.9404 42.1409C71.669 41.3403 73.5535 40.9324 75.4585 40.9466V40.9466Z" fill="white"/>
<path d="M161.274 45.7583H172.811C176.132 45.7669 179.351 46.9126 181.931 49.0047C184.511 51.0969 186.297 54.0094 186.992 57.2577L234.922 278.388C235.199 279.66 235.199 280.977 234.923 282.25C234.646 283.522 234.1 284.721 233.321 285.764C232.546 286.803 231.555 287.663 230.415 288.282C229.276 288.902 228.016 289.268 226.723 289.354L125.463 296.031C122.598 296.212 119.767 295.331 117.51 293.556C115.254 291.78 113.732 289.235 113.236 286.407L72.3363 57.8479C72.0712 56.3695 72.1321 54.8511 72.5145 53.3987C72.8969 51.9462 73.5917 50.5948 74.5504 49.4386C75.5046 48.2871 76.7009 47.36 78.0542 46.7233C79.4074 46.0867 80.8843 45.756 82.3798 45.7549H93.3234C94.3854 45.7573 95.4169 46.1103 96.2578 46.759C97.0986 47.4077 97.7017 48.3159 97.9735 49.3425C98.2136 50.2488 98.7462 51.0506 99.4886 51.6232C100.231 52.1958 101.142 52.5073 102.079 52.5093H154.032C155.869 52.5038 157.636 51.805 158.979 50.5526C160.323 49.3002 161.144 47.5867 161.278 45.7549L161.274 45.7583Z" fill="#666666"/>
<path d="M295.632 108.063C303.98 108.063 310.747 101.251 310.747 92.8488C310.747 84.4463 303.98 77.6348 295.632 77.6348C287.285 77.6348 280.518 84.4463 280.518 92.8488C280.518 101.251 287.285 108.063 295.632 108.063Z" fill="#666666"/>
<path d="M311.937 283.5L314.812 295.903H307.83L304.955 281.847L311.937 283.5Z" fill="#FFC9AE"/>
<path d="M278.259 283.501V295.077L271.277 295.904V283.501H278.259Z" fill="#FFC9AE"/>
<path d="M313.991 152.029C313.991 152.029 313.17 169.806 312.348 171.047C311.526 172.288 304.133 190.064 304.133 190.064L300.437 178.488C300.437 178.488 306.187 168.98 305.366 163.605C304.879 159.628 304.777 155.614 305.062 151.617L313.991 152.029Z" fill="#FFC9AE"/>
<path d="M290.581 109.034C296.932 109.034 302.081 103.851 302.081 97.4579C302.081 91.0646 296.932 85.8818 290.581 85.8818C284.229 85.8818 279.08 91.0646 279.08 97.4579C279.08 103.851 284.229 109.034 290.581 109.034Z" fill="#FFC9AE"/>
<path d="M300.026 98.6982C300.026 98.6982 299.616 115.235 302.491 117.716C305.366 120.197 286.062 118.129 286.062 118.129C286.062 118.129 290.169 106.553 286.883 104.072C283.598 101.592 300.026 98.6982 300.026 98.6982Z" fill="#FFC9AE"/>
<path d="M284.83 117.302C284.83 117.302 287.295 112.753 290.581 113.167C293.866 113.581 304.545 114.408 304.956 115.234C305.617 116.832 306.443 118.356 307.421 119.782C308.242 120.609 314.403 121.85 314.814 126.81C315.224 131.77 300.026 161.952 300.026 161.952C300.026 161.952 302.085 168.98 301.67 170.634C301.254 172.287 303.728 177.248 303.312 179.315C302.896 181.382 309.473 193.784 306.187 209.909V235.956C306.187 235.956 317.28 281.015 313.99 284.332C310.7 287.649 299.616 285.573 297.562 284.332C295.508 283.091 286.883 220.664 286.883 220.664L282.776 199.579L282.366 245.884C282.366 245.884 283.187 284.746 280.307 285.986C277.428 287.225 266.343 287.639 265.521 285.159C264.881 283.224 261.747 231.75 260.391 209.185C259.923 201.397 260.531 193.582 262.199 185.961C263.908 178.156 266.39 168.987 269.217 165.261C274.557 158.233 277.843 135.908 277.843 135.908L270.863 123.09C270.863 123.09 274.97 118.955 277.434 118.955C279.954 118.684 282.435 118.129 284.83 117.302V117.302Z" fill="#111111"/>
<path d="M312.349 123.917L314.515 125.404C314.515 125.404 316.045 152.033 314.814 153.686C313.582 155.34 305.015 154.533 304.37 153.076C303.725 151.619 312.349 123.917 312.349 123.917Z" fill="black"/>
<path d="M275.723 148.13C276.924 156.525 277.978 163.998 271.834 170.759C265.661 177.597 258.692 183.672 251.076 188.855C250.322 190.866 239.253 205.629 238.69 199.74C238.127 193.852 241.95 189.235 247.382 184.255C252.813 179.276 260.419 168.473 264.709 162.542C268.999 156.611 267.233 152.916 267.083 147.964C266.934 143.012 274.036 148.187 275.723 148.13Z" fill="#FFC9AE"/>
<path d="M271.277 288.378C271.277 288.378 270.866 293.009 269.633 294.249C268.4 295.49 265.116 297.144 265.526 301.691C265.937 306.238 268.608 306.445 268.608 306.445L268.402 305.416L269.633 305.829L269.839 306.449H281.34C281.454 304.312 281.385 302.169 281.134 300.044C280.723 297.978 280.723 288.055 279.491 288.468C278.258 288.881 274.973 289.295 274.151 290.949C273.328 292.603 270.865 292.016 271.277 288.378Z" fill="#1A374D"/>
<path d="M313.175 288.378C313.175 288.378 313.585 293.009 314.818 294.249C316.051 295.49 319.336 297.144 318.925 301.691C318.514 306.238 315.845 306.445 315.845 306.445L316.051 305.416L314.819 305.829L314.613 306.449H303.111C302.996 304.312 303.065 302.169 303.316 300.044C303.727 297.978 303.727 288.055 304.959 288.468C306.19 288.881 309.477 289.295 310.298 290.949C311.12 292.603 313.581 292.016 313.175 288.378Z" fill="#1A374D"/>
<path d="M276.616 121.849L270.865 123.088C270.865 123.088 270.865 132.184 269.222 135.904C267.578 139.624 264.704 148.307 265.936 148.72C267.168 149.133 278.668 154.922 279.49 151.614C280.311 148.307 282.366 121.849 276.616 121.849Z" fill="black"/>
<path d="M299.662 106.542C305.784 106.542 310.747 101.547 310.747 95.385C310.747 89.2229 305.784 84.2275 299.662 84.2275C293.541 84.2275 288.578 89.2229 288.578 95.385C288.578 101.547 293.541 106.542 299.662 106.542Z" fill="#666666"/>
<path d="M290.342 98.9326C295.767 98.9326 300.166 95.4702 300.166 91.1992C300.166 86.9282 295.767 83.4658 290.342 83.4658C284.916 83.4658 280.518 86.9282 280.518 91.1992C280.518 95.4702 284.916 98.9326 290.342 98.9326Z" fill="#666666"/>
<path d="M287.722 102.448C288.751 102.448 289.586 100.961 289.586 99.1268C289.586 97.2926 288.751 95.8057 287.722 95.8057C286.692 95.8057 285.857 97.2926 285.857 99.1268C285.857 100.961 286.692 102.448 287.722 102.448Z" fill="#FFC9AE"/>
<path d="M290.575 95.8052C290.575 95.8052 290.662 121.779 285.417 134.267C280.172 146.756 287.918 146.373 287.918 146.373C287.918 146.373 311.645 149.023 313.165 140.777C314.684 132.531 310.703 90.8887 310.703 90.8887L290.575 95.8052Z" fill="#666666"/>
</svg>
