<svg width="31" height="30" viewBox="0 0 31 30" fill="none" xmlns="http://www.w3.org/2000/svg">
<g filter="url(#filter0_d_3_8624)">
<path d="M15.7954 30C19.7737 30 23.589 28.4196 26.402 25.6066C29.2151 22.7936 30.7954 18.9782 30.7954 15C30.7954 11.0218 29.2151 7.20644 26.402 4.3934C23.589 1.58035 19.7737 -8.29566e-07 15.7954 -6.55671e-07C11.8172 -4.81776e-07 8.00185 1.58035 5.18881 4.3934C2.37576 7.20644 0.795411 11.0218 0.795411 15C0.795411 18.9782 2.37576 22.7936 5.18881 25.6066C8.00186 28.4196 11.8172 30 15.7954 30ZM9.23291 15.9375C8.98427 15.9375 8.74581 15.8387 8.57 15.6629C8.39418 15.4871 8.29541 15.2486 8.29541 15C8.29541 14.7514 8.39418 14.5129 8.57 14.3371C8.74581 14.1613 8.98427 14.0625 9.23291 14.0625L20.0948 14.0625L16.0692 10.0387C15.8931 9.86271 15.7942 9.62395 15.7942 9.375C15.7942 9.12604 15.8931 8.88729 16.0692 8.71125C16.2452 8.53521 16.484 8.43631 16.7329 8.43631C16.9819 8.43631 17.2206 8.53521 17.3967 8.71125L23.0217 14.3362C23.109 14.4233 23.1782 14.5268 23.2255 14.6407C23.2728 14.7546 23.2971 14.8767 23.2971 15C23.2971 15.1233 23.2728 15.2454 23.2255 15.3593C23.1782 15.4732 23.109 15.5767 23.0217 15.6637L17.3967 21.2887C17.2206 21.4648 16.9819 21.5637 16.7329 21.5637C16.484 21.5637 16.2452 21.4648 16.0692 21.2887C15.8931 21.1127 15.7942 20.874 15.7942 20.625C15.7942 20.376 15.8931 20.1373 16.0692 19.9612L20.0948 15.9375L9.23291 15.9375Z" fill="white"/>
</g>
<defs>
<filter id="filter0_d_3_8624" x="-3.20459" y="0" width="38" height="38" filterUnits="userSpaceOnUse" color-interpolation-filters="sRGB">
<feFlood flood-opacity="0" result="BackgroundImageFix"/>
<feColorMatrix in="SourceAlpha" type="matrix" values="0 0 0 0 0 0 0 0 0 0 0 0 0 0 0 0 0 0 127 0" result="hardAlpha"/>
<feOffset dy="4"/>
<feGaussianBlur stdDeviation="2"/>
<feComposite in2="hardAlpha" operator="out"/>
<feColorMatrix type="matrix" values="0 0 0 0 0 0 0 0 0 0 0 0 0 0 0 0 0 0 0.25 0"/>
<feBlend mode="normal" in2="BackgroundImageFix" result="effect1_dropShadow_3_8624"/>
<feBlend mode="normal" in="SourceGraphic" in2="effect1_dropShadow_3_8624" result="shape"/>
</filter>
</defs>
</svg>
