<svg width="31" height="31" viewBox="0 0 31 31" fill="none" xmlns="http://www.w3.org/2000/svg">
<g filter="url(#filter0_d_3_8627)">
<path d="M15.3777 0.398965C11.3994 0.404278 7.58623 1.98972 4.77695 4.80652C1.96766 7.62332 0.392406 11.4407 0.397719 15.419C0.403032 19.3972 1.98848 23.2104 4.80528 26.0197C7.62208 28.829 11.4395 30.4043 15.4177 30.3989C19.396 30.3936 23.2092 28.8082 26.0185 25.9914C28.8277 23.1746 30.403 19.3572 30.3977 15.3789C30.3924 11.4007 28.8069 7.58748 25.9901 4.77819C23.1733 1.96891 19.3559 0.393652 15.3777 0.398965ZM21.9589 14.4527C22.2076 14.4524 22.4462 14.5508 22.6222 14.7264C22.7983 14.902 22.8974 15.1403 22.8977 15.3889C22.898 15.6376 22.7996 15.8762 22.624 16.0522C22.4484 16.2283 22.2101 16.3274 21.9615 16.3277L11.0996 16.3422L15.1306 20.3606C15.3069 20.5364 15.4061 20.775 15.4064 21.0239C15.4067 21.2729 15.3082 21.5118 15.1324 21.6881C14.9566 21.8643 14.7179 21.9635 14.469 21.9639C14.22 21.9642 13.9811 21.8656 13.8049 21.6898L8.17235 16.0724C8.08493 15.9854 8.01552 15.882 7.96811 15.7682C7.92069 15.6544 7.8962 15.5323 7.89604 15.409C7.89587 15.2857 7.92004 15.1635 7.96715 15.0496C8.01426 14.9356 8.08339 14.8321 8.17058 14.7449L13.7881 9.11235C13.9639 8.93607 14.2025 8.83686 14.4514 8.83653C14.7004 8.83619 14.9393 8.93477 15.1156 9.11057C15.2918 9.28637 15.391 9.525 15.3914 9.77396C15.3917 10.0229 15.2931 10.2618 15.1173 10.4381L11.0971 14.4672L21.9589 14.4527Z" fill="white"/>
</g>
<defs>
<filter id="filter0_d_3_8627" x="-3.60229" y="0.398438" width="38" height="38" filterUnits="userSpaceOnUse" color-interpolation-filters="sRGB">
<feFlood flood-opacity="0" result="BackgroundImageFix"/>
<feColorMatrix in="SourceAlpha" type="matrix" values="0 0 0 0 0 0 0 0 0 0 0 0 0 0 0 0 0 0 127 0" result="hardAlpha"/>
<feOffset dy="4"/>
<feGaussianBlur stdDeviation="2"/>
<feComposite in2="hardAlpha" operator="out"/>
<feColorMatrix type="matrix" values="0 0 0 0 0 0 0 0 0 0 0 0 0 0 0 0 0 0 0.25 0"/>
<feBlend mode="normal" in2="BackgroundImageFix" result="effect1_dropShadow_3_8627"/>
<feBlend mode="normal" in="SourceGraphic" in2="effect1_dropShadow_3_8627" result="shape"/>
</filter>
</defs>
</svg>
