<svg width="60" height="60" viewBox="0 0 60 60" fill="none" xmlns="http://www.w3.org/2000/svg">
<g clip-path="url(#clip0_3_8440)">
<path d="M58.5926 20.625H51.5766L49.6266 15.75C47.6227 10.7379 42.8403 7.5 37.4415 7.5H22.5587C17.161 7.5 12.3774 10.7379 10.3723 15.75L8.42233 20.625H1.40748C0.49225 20.625 -0.179235 21.4852 0.0434215 22.3723L0.746546 25.1848C0.902406 25.8105 1.46491 26.25 2.11061 26.25H4.46256C2.88873 27.6246 1.87506 29.6227 1.87506 31.875V37.5C1.87506 39.3891 2.59694 41.0941 3.75006 42.4137V48.75C3.75006 50.8207 5.42936 52.5 7.50006 52.5H11.2501C13.3208 52.5 15.0001 50.8207 15.0001 48.75V45H45.0001V48.75C45.0001 50.8207 46.6794 52.5 48.7501 52.5H52.5001C54.5708 52.5 56.2501 50.8207 56.2501 48.75V42.4137C57.4032 41.0953 58.1251 39.3902 58.1251 37.5V31.875C58.1251 29.6227 57.1114 27.6246 55.5387 26.25H57.8907C58.5364 26.25 59.0989 25.8105 59.2548 25.1848L59.9579 22.3723C60.1794 21.4852 59.5079 20.625 58.5926 20.625ZM17.3356 18.5355C18.1899 16.4004 20.2583 15 22.5587 15H37.4415C39.7419 15 41.8102 16.4004 42.6645 18.5355L45.0001 24.375H15.0001L17.3356 18.5355ZM11.2501 37.4766C9.00006 37.4766 7.50006 35.9812 7.50006 33.7383C7.50006 31.4953 9.00006 30 11.2501 30C13.5001 30 16.8751 33.3645 16.8751 35.6074C16.8751 37.8504 13.5001 37.4766 11.2501 37.4766ZM48.7501 37.4766C46.5001 37.4766 43.1251 37.8504 43.1251 35.6074C43.1251 33.3645 46.5001 30 48.7501 30C51.0001 30 52.5001 31.4953 52.5001 33.7383C52.5001 35.9812 51.0001 37.4766 48.7501 37.4766Z" fill="#1A374D"/>
</g>
<defs>
<clipPath id="clip0_3_8440">
<rect width="60" height="60" fill="white"/>
</clipPath>
</defs>
</svg>
