<svg width="114" height="114" viewBox="0 0 114 114" fill="none" xmlns="http://www.w3.org/2000/svg">
<circle cx="57" cy="57" r="57" fill="#376CF6"/>
<path d="M41 79.5C39.8954 79.5 39 78.6046 39 77.5V45.5C39 44.3954 39.8954 43.5 41 43.5H48C48 41.025 48.8813 38.9062 50.6438 37.1437C52.4063 35.3812 54.525 34.5 57 34.5C59.475 34.5 61.5937 35.3812 63.3562 37.1437C65.1187 38.9062 66 41.025 66 43.5H73C74.1046 43.5 75 44.3954 75 45.5V77.5C75 78.6046 74.1046 79.5 73 79.5H41ZM57 39C55.7625 39 54.7035 39.441 53.823 40.323C52.941 41.2035 52.5 42.2625 52.5 43.5H61.5C61.5 42.2625 61.0598 41.2035 60.1793 40.323C59.2973 39.441 58.2375 39 57 39ZM48 53.75C48 54.3023 48.4477 54.75 49 54.75H51.5C52.0523 54.75 52.5 54.3023 52.5 53.75V49C52.5 48.4477 52.0523 48 51.5 48H49C48.4477 48 48 48.4477 48 49V53.75ZM61.5 53.75C61.5 54.3023 61.9477 54.75 62.5 54.75H65C65.5523 54.75 66 54.3023 66 53.75V49C66 48.4477 65.5523 48 65 48H62.5C61.9477 48 61.5 48.4477 61.5 49V53.75Z" fill="white"/>
</svg>
