<svg width="111" height="111" viewBox="0 0 111 111" fill="none" xmlns="http://www.w3.org/2000/svg">
<circle cx="55.5" cy="55.5" r="55.5" fill="#1A374D"/>
<path d="M84.1166 79.6833L75.9999 71.6166V40.5833L72.1666 33.5333C71.8838 32.9958 71.4596 32.5458 70.9397 32.2318C70.4198 31.9179 69.824 31.752 69.2166 31.752C68.6093 31.752 68.0135 31.9179 67.4936 32.2318C66.9736 32.5458 66.5494 32.9958 66.2666 33.5333L62.6666 40.6V58.35L32.1833 28.0166C31.9502 27.7816 31.6523 27.6213 31.3277 27.5562C31.0032 27.4911 30.6666 27.5241 30.3608 27.651C30.0551 27.778 29.7941 27.9931 29.6111 28.269C29.4281 28.5448 29.3314 28.8689 29.3333 29.2V42.6666H32.9499V45.3333H29.3333V56H32.9499V58.6666H29.3333V69.75H32.9499V72.4166H29.3333V80.8666C29.3333 81.3087 29.5089 81.7326 29.8214 82.0452C30.134 82.3577 30.5579 82.5333 30.9999 82.5333H82.9333C83.2643 82.5352 83.5884 82.4385 83.8643 82.2555C84.1402 82.0725 84.3553 81.8115 84.4822 81.5058C84.6092 81.2 84.6422 80.8634 84.5771 80.5388C84.512 80.2143 84.3517 79.9164 84.1166 79.6833ZM42.6666 69.3333V54.2333L57.7833 69.3333H42.6666ZM72.6666 72.85H65.9999V68.8H72.6666V72.85ZM72.6666 66.1833H65.9999V41.4166L69.2333 35.1333L72.6666 41.4333V66.1833Z" fill="white"/>
</svg>
