<svg width="114" height="114" viewBox="0 0 114 114" fill="none" xmlns="http://www.w3.org/2000/svg">
<circle cx="57" cy="57" r="57" fill="#F8D4B1"/>
<path d="M53.75 76.5C53.75 76.5 50.5 76.5 50.5 73.25C50.5 70 53.75 60.25 66.75 60.25C79.75 60.25 83 70 83 73.25C83 76.5 79.75 76.5 79.75 76.5H53.75ZM66.75 57C69.3359 57 71.8158 55.9728 73.6443 54.1443C75.4728 52.3158 76.5 49.8359 76.5 47.25C76.5 44.6641 75.4728 42.1842 73.6443 40.3557C71.8158 38.5272 69.3359 37.5 66.75 37.5C64.1641 37.5 61.6842 38.5272 59.8557 40.3557C58.0272 42.1842 57 44.6641 57 47.25C57 49.8359 58.0272 52.3158 59.8557 54.1443C61.6842 55.9728 64.1641 57 66.75 57Z" fill="white"/>
<path fill-rule="evenodd" clip-rule="evenodd" d="M47.952 76.5C47.4702 75.4854 47.2299 74.3731 47.25 73.25C47.25 68.8463 49.46 64.3125 53.542 61.16C51.5045 60.5323 49.3818 60.2253 47.25 60.25C34.25 60.25 31 70 31 73.25C31 76.5 34.25 76.5 34.25 76.5H47.952Z" fill="white"/>
<path d="M45.625 57C47.7799 57 49.8465 56.144 51.3702 54.6202C52.894 53.0965 53.75 51.0299 53.75 48.875C53.75 46.7201 52.894 44.6535 51.3702 43.1298C49.8465 41.606 47.7799 40.75 45.625 40.75C43.4701 40.75 41.4035 41.606 39.8798 43.1298C38.356 44.6535 37.5 46.7201 37.5 48.875C37.5 51.0299 38.356 53.0965 39.8798 54.6202C41.4035 56.144 43.4701 57 45.625 57Z" fill="white"/>
</svg>
