<svg width="361" height="189" viewBox="0 0 361 189" fill="none" xmlns="http://www.w3.org/2000/svg">
<path d="M349.88 48.5627C347.088 46.8248 280.353 0 180.608 0C80.8626 0 14.1269 46.8248 11.3351 48.5627L4.41406 52.9357L42.5175 90.0742C42.6205 90.0125 51.1935 99.5141 51.1935 99.5141C67.4285 91.1077 114.81 63.9784 180.608 63.9784C246.407 63.9784 293.787 91.1077 310.023 99.5141C310.023 99.5141 318.595 90.01 318.698 90.0742L356.803 52.9357L349.88 48.5627Z" fill="#FFEFDC"/>
<path d="M357.078 52.1881C356.816 52.4511 356.307 51.9412 356.044 52.2054C355.782 52.4697 356.261 52.9463 355.998 53.2111C355.734 53.476 355.597 53.3346 355.334 53.6001C355.071 53.8656 355.449 54.2416 355.186 54.5052C354.924 54.7688 354.94 54.7836 354.675 55.0466C354.41 55.3097 353.966 54.8614 353.704 55.1269C353.442 55.3924 353.373 55.3208 353.11 55.5844C352.846 55.848 352.377 55.3763 352.115 55.6393C351.852 55.9023 352.043 56.0919 351.781 56.3555C351.519 56.6191 351.64 56.7401 351.378 57.0032C351.116 57.2662 351.079 57.2297 350.817 57.4921C350.555 57.7545 351.016 58.2163 350.755 58.48C350.494 58.7436 349.789 58.0379 349.527 58.3009C349.265 58.5639 349.483 58.7831 349.219 59.0455C348.954 59.3079 348.94 59.2924 348.678 59.5548C348.416 59.8172 348.185 59.5863 347.923 59.8487C347.66 60.1111 347.651 60.1037 347.389 60.3661C347.127 60.6285 347.545 61.0452 347.282 61.3107C347.019 61.5762 346.571 61.1255 346.308 61.3866C346.046 61.6478 346.272 61.8768 346.009 62.1405C345.747 62.4041 346.124 62.7819 345.861 63.0456C345.599 63.3092 345.279 62.99 345.016 63.253C344.752 63.516 345.15 63.9148 344.887 64.1791C344.625 64.4433 344.326 64.1439 344.064 64.4069C343.801 64.6699 344.335 65.2052 344.072 65.4676C343.809 65.73 343.821 65.7392 343.56 66.0004C343.299 66.2615 342.594 65.5546 342.333 65.8152C342.072 66.0757 342.025 66.0276 341.763 66.2893C341.501 66.5511 341.508 66.5573 341.247 66.8191C340.986 67.0808 341.088 67.1833 340.826 67.4451C340.565 67.7069 341.324 68.4687 341.063 68.7305C340.802 68.9923 340.374 68.565 340.111 68.8274C339.849 69.0898 339.792 69.0336 339.53 69.2966C339.268 69.5597 338.914 69.2077 338.653 69.4714C338.392 69.735 339.005 70.3511 338.742 70.6154C338.48 70.8796 338.671 71.0704 338.408 71.3346C338.144 71.5989 337.256 70.708 336.994 70.9716C336.731 71.2352 337.6 72.1051 337.338 72.3682C337.075 72.6312 336.816 72.3682 336.554 72.6342C336.292 72.9003 336.023 72.6268 335.76 72.8892C335.498 73.1516 335.091 72.7441 334.83 73.0065C334.569 73.2689 334.821 73.5221 334.559 73.7845C334.297 74.0468 334.39 74.1395 334.127 74.4018C333.864 74.6642 333.572 74.3716 333.312 74.634C333.052 74.8964 333.848 75.6947 333.585 75.9564C333.323 76.2182 332.891 75.7854 332.629 76.0484C332.367 76.3114 332.224 76.1663 331.962 76.4287C331.7 76.6911 332.115 77.1079 331.853 77.3696C331.59 77.6314 331.289 77.3314 331.027 77.5944C330.764 77.8574 331.201 78.2945 330.938 78.5581C330.675 78.8217 329.946 78.092 329.683 78.355C329.42 78.618 329.717 78.9174 329.453 79.1817C329.189 79.4459 329.555 79.812 329.292 80.0763C329.028 80.3405 328.895 80.2072 328.632 80.4702C328.369 80.7332 328.385 80.7492 328.12 81.0122C327.855 81.2753 327.804 81.2215 327.542 81.4845C327.279 81.7476 326.987 81.4543 326.723 81.7179C326.459 81.9815 326.338 81.8587 326.075 82.1211C325.813 82.3835 325.941 82.5137 325.679 82.7767C325.417 83.0398 325.883 83.5071 325.618 83.7714C325.353 84.0356 324.599 83.2775 324.335 83.5405C324.071 83.8035 324.89 84.6234 324.625 84.8876C324.361 85.1518 323.583 84.3733 323.319 84.6406C323.055 84.908 323.936 85.7871 323.672 86.0508C323.409 86.3144 322.612 85.5167 322.348 85.7797C322.084 86.0427 322.114 86.073 321.851 86.3354C321.589 86.5978 321.608 86.6194 321.345 86.8836C321.083 87.1479 321.345 87.4109 321.081 87.6751C320.816 87.9394 321.133 88.2561 320.87 88.5203C320.607 88.7846 320.026 88.2036 319.761 88.4685C319.495 88.7333 319.244 88.4796 318.98 88.7438C318.715 89.0081 319.486 89.7786 319.222 90.0403C318.958 90.3021 318.316 89.6607 318.051 89.9243C317.786 90.1879 317.847 90.2447 317.586 90.5071C317.325 90.7695 317.21 90.6553 316.947 90.9177C316.685 91.18 316.947 91.4449 316.685 91.7079C316.423 91.9709 317.033 92.584 316.769 92.8489C316.504 93.1137 316.609 93.2193 316.344 93.4835C316.079 93.7478 315.221 92.8871 314.957 93.1514C314.694 93.4156 315.134 93.8552 314.871 94.1194C314.607 94.3837 314.193 93.97 313.931 94.2343C313.669 94.4985 314.408 95.2431 314.143 95.5086C313.878 95.7741 313.073 94.9653 312.807 95.2308C312.542 95.4962 312.573 95.5259 312.309 95.7901C312.044 96.0543 312.484 96.4976 312.219 96.7631C311.954 97.0286 312.262 97.3361 311.997 97.6015C311.732 97.867 311.511 97.6441 311.246 97.9102C310.981 98.1763 311.04 98.2337 310.776 98.4986C310.511 98.7635 310.579 98.832 310.312 99.0981C310.046 99.3642 309.388 98.7048 309.121 98.9746C308.855 99.2444 308.759 99.1462 308.493 99.413C308.226 99.6797 308.509 99.9637 308.242 100.231" stroke="#1A374D" stroke-width="9" stroke-miterlimit="10" stroke-linecap="round"/>
<path d="M3.92307 50.8655C4.18504 51.1279 3.6765 51.6372 3.93909 51.899C4.20168 52.1608 4.67879 51.6817 4.94076 51.9441C5.20274 52.2064 5.06405 52.3441 5.32664 52.6059C5.58923 52.8677 5.96647 52.4898 6.22844 52.7528C6.49042 53.0158 6.50583 52.9998 6.7678 53.2628C7.02978 53.5258 6.58288 53.9722 6.84732 54.2346C7.11176 54.497 7.04087 54.5661 7.30285 54.8297C7.56482 55.0934 7.09512 55.5632 7.35771 55.8262C7.6203 56.0892 7.80954 55.8978 8.07213 56.1608C8.33472 56.4238 8.45616 56.3016 8.71813 56.564C8.98011 56.8264 8.94435 56.8628 9.20633 57.1246C9.4683 57.3864 9.92938 56.9252 10.1926 57.1863C10.4558 57.4475 9.75185 58.1525 10.0132 58.4155C10.2746 58.6785 10.4946 58.4575 10.7529 58.7199C11.0112 58.9823 10.9995 58.9984 11.2608 59.2608C11.5222 59.5231 11.2916 59.7547 11.553 60.0158C11.8144 60.277 11.807 60.2869 12.0683 60.5486C12.3297 60.8104 12.7464 60.3924 13.0102 60.6548C13.274 60.9172 12.8253 61.3661 13.0848 61.6291C13.3443 61.8921 13.5736 61.6636 13.8356 61.926C14.0976 62.1884 14.4754 61.81 14.7374 62.073C14.9994 62.336 14.6794 62.6552 14.9414 62.9176C15.2034 63.1799 15.6016 62.7823 15.866 63.0447C16.1305 63.3071 15.8309 63.6059 16.0929 63.869C16.3548 64.132 16.8887 63.5973 17.1519 63.8597C17.4151 64.1221 17.4243 64.1134 17.6863 64.3758C17.9483 64.6382 17.2431 65.3451 17.5063 65.6106C17.7695 65.8761 17.7196 65.9193 17.9816 66.1848C18.2435 66.4503 18.2478 66.4392 18.508 66.6991C18.7681 66.959 18.8704 66.8571 19.1305 67.1183C19.3907 67.3794 20.1513 66.6182 20.4115 66.8781C20.6716 67.138 20.245 67.5671 20.5051 67.8283C20.7653 68.0894 20.7092 68.1462 20.9699 68.4074C21.2307 68.6686 20.8799 69.0211 21.1413 69.2829C21.4026 69.5446 22.0184 68.9279 22.2798 69.1896C22.5412 69.4514 22.7335 69.2606 22.9954 69.5218C23.2574 69.7829 22.3692 70.6751 22.6311 70.9375C22.8931 71.1998 23.7635 70.3299 24.0267 70.593C24.2899 70.856 24.0304 71.1159 24.2924 71.3783C24.5544 71.6407 24.2856 71.9111 24.5482 72.1741C24.8108 72.4371 24.4027 72.844 24.6647 73.1057C24.9267 73.3675 25.18 73.115 25.4414 73.3774C25.7027 73.6398 25.7964 73.5459 26.0578 73.8096C26.3191 74.0732 26.0276 74.3652 26.2889 74.6258C26.5503 74.8863 27.3473 74.0886 27.6081 74.3504C27.8688 74.6122 27.4367 75.0456 27.698 75.3061C27.9594 75.5667 27.8152 75.7124 28.0765 75.9735C28.3379 76.2347 28.7546 75.8192 29.0147 76.0809C29.2748 76.3427 28.9746 76.6446 29.236 76.9058C29.4974 77.1669 29.9344 76.7298 30.1957 76.9916C30.4571 77.2534 29.7285 77.9837 29.9899 78.2461C30.2512 78.5085 30.5496 78.2103 30.8115 78.4727C31.0735 78.7351 31.439 78.369 31.7016 78.6314C31.9642 78.8938 31.8317 79.0277 32.0943 79.2901C32.3569 79.5525 32.3723 79.5371 32.6355 79.8026C32.8987 80.0681 32.8445 80.1199 33.1077 80.3829C33.3709 80.6459 33.0775 80.9386 33.3407 81.2028C33.6039 81.4671 33.4806 81.5887 33.7426 81.8511C34.0046 82.1135 34.1346 81.985 34.3966 82.2474C34.6586 82.5098 35.1252 82.0431 35.3872 82.3055C35.6491 82.5679 34.894 83.3254 35.1554 83.5878C35.4168 83.8502 36.2353 83.0321 36.4973 83.2945C36.7593 83.5569 35.982 84.3361 36.244 84.5985C36.5059 84.8609 37.3874 83.9811 37.65 84.2428C37.9126 84.5046 37.1168 85.3048 37.3794 85.5684C37.642 85.832 37.6722 85.803 37.9342 86.0672C38.1961 86.3315 38.2171 86.3111 38.4809 86.5741C38.7448 86.8371 39.0067 86.5741 39.2693 86.8371C39.5319 87.1001 39.8481 86.784 40.1113 87.0464C40.3745 87.3088 39.7945 87.8904 40.0571 88.1534C40.3197 88.4164 40.067 88.6702 40.3295 88.9332C40.5921 89.1962 41.3627 88.4269 41.624 88.6905C41.8854 88.9542 41.2449 89.5981 41.5081 89.8636C41.7713 90.1291 41.8293 90.0679 42.0931 90.3322C42.3569 90.5964 42.2417 90.71 42.5055 90.9736C42.7693 91.2373 43.0325 90.9736 43.2957 91.236C43.5589 91.4984 44.1686 90.8854 44.4299 91.1471C44.6913 91.4089 44.7967 91.3046 45.0574 91.5663C45.3182 91.8281 44.4601 92.69 44.7227 92.9524C44.9853 93.2148 45.4254 92.7764 45.6886 93.0394C45.9518 93.3024 45.5401 93.7186 45.8045 93.9816C46.0689 94.2446 46.8099 93.5019 47.0731 93.7655C47.3363 94.0291 46.53 94.836 46.7932 95.099C47.0564 95.3621 47.0866 95.333 47.348 95.596C47.6094 95.859 48.0538 95.4195 48.3182 95.6843C48.5827 95.9492 48.8896 95.6405 49.1535 95.9054C49.4173 96.1702 49.196 96.3912 49.4617 96.6561C49.7273 96.921 49.7853 96.8623 50.0497 97.1278C50.3142 97.3933 50.3814 97.3247 50.6458 97.5896C50.9102 97.8545 50.2513 98.5157 50.5157 98.7781C50.7802 99.0405 50.684 99.1374 50.9472 99.4016C51.2104 99.6659 51.4952 99.3837 51.7603 99.6486C52.0253 99.9135 52.3588 99.5807 52.6233 99.8474C52.8877 100.114 52.8365 100.167 53.1028 100.433C53.3691 100.7 53.186 100.883 53.4529 101.149" stroke="#1A374D" stroke-width="9" stroke-miterlimit="10" stroke-linecap="round"/>
<path d="M73.5599 102.833L72.9263 101.653L82.9824 96.2339L83.6161 97.4137L73.5599 102.833ZM76.3196 106.969L75.6859 105.789L84.897 100.826L85.5306 102.006L76.3196 106.969ZM78.4037 112.163L77.7639 110.971L88.0579 105.424L88.6984 106.615L78.4037 112.163Z" fill="white"/>
<path d="M89.8747 94.8708L88.9951 95.2566L89.5924 96.6205L90.6945 96.1377L91.2105 97.315L90.1089 97.7984L93.0837 104.595L91.102 105.464L88.1272 98.6683L86.9881 99.1684L86.4727 97.9898L87.6119 97.4904L87.0146 96.1259L85.9987 96.5717L85.4834 95.3937L87.5009 94.5077L87.4775 94.0138L89.6312 93.0674L89.8747 94.8708ZM90.456 105.068L89.7003 105.399L87.3413 99.6049L88.121 99.2629L90.456 105.068ZM94.1477 104.127L93.9011 103.556L93.2946 103.822L90.5515 98.1967L91.319 97.8596L93.8197 103.001L96.0246 102.033L95.7849 101.488L93.8912 102.319L93.4135 101.229L95.3084 100.397L95.1013 99.9254L93.1207 100.795L91.3029 96.6408L93.2835 95.7715L93.0776 95.2999L90.8986 96.2574L90.4147 95.1535L92.5937 94.1966L92.3712 93.6878L90.464 94.525L89.9813 93.4218L93.882 91.7091L93.858 91.2152L96.1245 90.22L96.2595 91.9783L94.5348 92.7371L94.7573 93.2446L97.0725 92.2283L97.5564 93.3316L95.2412 94.3485L95.4471 94.8195L97.4535 93.9385L99.2713 98.0923L97.2655 98.9727L97.4714 99.4438L99.3779 98.6072L99.8556 99.6975L97.9491 100.535L98.1889 101.08L100.553 100.043L101.02 101.108L94.1477 104.127ZM93.7304 96.7995L93.0616 97.0934L93.3013 97.6385L93.9695 97.3453L93.7304 96.7995ZM94.3979 98.3251L93.7298 98.6189L93.9763 99.1888L94.6451 98.8955L94.3979 98.3251ZM96.5782 95.5468L95.9001 95.8462L96.1381 96.3914L96.8161 96.0926L96.5782 95.5468ZM97.2464 97.0724L96.5646 97.3718L96.8112 97.9417L97.4929 97.6422L97.2464 97.0724Z" fill="white"/>
<path d="M103.018 90.4606L103.585 92.0411L110.29 89.6253L112.884 96.8488L108.317 98.4935L107.135 97.481L110.022 96.4401L108.348 91.7769L104.057 93.3513L105.264 96.7154L104.82 99.7548L102.134 100.721L102.621 97.0346L100.574 91.3392L98.9714 91.9158L98.5005 90.6032L103.042 88.9672L102.295 87.9268L104.915 86.9829L105.663 88.0225L109.874 86.5056L110.345 87.8182L103.018 90.4606Z" fill="white"/>
<path d="M120.814 89.4974L119.039 89.4906L117.53 90.4494L113.194 91.7064L116.494 89.4962L114.206 89.511L113.89 88.4188L112.709 88.7609L112.36 87.552L113.541 87.21L113.428 86.8198L112.247 87.1618L111.74 85.4072L116.166 84.1243L115.774 83.5476L118.358 82.7987L118.802 83.3605L123.033 82.1338L123.545 83.9026L122.35 84.2477L122.46 84.6243L123.641 84.2823L123.99 85.4918L122.809 85.8338L123.117 86.9L121.356 88.0583L125.255 88.2108L120.814 89.4974ZM120.854 91.2878L121.703 94.2266L119.315 94.9187L118.465 91.9799L114.027 93.2666L113.681 92.0707L118.119 90.784L117.979 90.3037L120.368 89.611L120.506 90.0913L124.971 88.7948L125.317 89.9907L120.854 91.2878ZM120.968 84.0409L114.517 85.911L114.607 86.2197L115.788 85.8776L115.968 86.5018L120.057 85.3164L119.877 84.6923L121.058 84.3502L120.968 84.0409ZM117.315 95.4984L114.732 96.2467L115.78 93.1659L118.337 92.4251L117.315 95.4984ZM120.406 86.5278L116.318 87.7125L116.386 87.9471L118.719 87.9891L120.486 86.8006L120.406 86.5278ZM123.753 93.6308L121.287 91.57L123.781 90.8476L126.286 92.8974L123.753 93.6308Z" fill="white"/>
<path d="M127.153 87.7811L125.618 80.8929L136.067 78.5542L137.603 85.4393L127.153 87.7811ZM130.468 91.8954L127.498 92.5603L129.171 88.1342L132.113 87.4761L130.468 91.8954ZM133.831 80.4607L128.502 81.6535L129.447 85.8956L134.778 84.7028L133.831 80.4607ZM136.42 90.5655L133.092 87.2582L136.06 86.5939L139.376 89.9031L136.42 90.5655Z" fill="white"/>
<path d="M149.045 81.7776L148.669 79.4105L146.36 79.7809L146.785 82.4548L144.315 82.8487L143.89 80.1742L141.648 80.5323L142.024 82.8987L139.727 83.2661L139.157 79.6821L143.696 78.9586L143.62 78.477L139.348 79.1561L139.158 77.9664L150.16 76.2124L150.349 77.4033L146.091 78.0825L146.166 78.564L150.732 77.8361L151.302 81.417L149.045 81.7776ZM146.949 84.0002L146.745 84.6095L151.378 83.8687L152.013 87.8669L149.677 88.2373L148.976 87.1013L149.551 87.0093L149.295 85.4041L148.548 85.5227L148.974 88.2108L146.906 88.5411L146.478 85.853L145.704 85.9764L146.131 88.6645L144.049 88.9967L143.623 86.3086L142.874 86.4284L143.323 89.2498L141.08 89.6073L140.444 85.6097L144.315 84.9923L144.506 84.386L139.888 85.1232L139.696 83.9193L151.497 82.0375L151.689 83.2408L146.949 84.0002ZM142.154 81.7356L142.016 80.8669L143.671 80.6027L143.809 81.4713L142.154 81.7356ZM142.367 83.0728L142.224 82.177L143.88 81.9128L144.023 82.8086L142.367 83.0728ZM146.867 80.9836L146.729 80.1149L148.384 79.8507L148.522 80.72L146.867 80.9836ZM147.079 82.3209L146.937 81.425L148.593 81.1608L148.734 82.0572L147.079 82.3209Z" fill="white"/>
<path d="M164.084 86.6463L163.626 85.685L163.479 86.705L160.13 87.0266L159.668 85.8888L160.219 85.8363L160.078 84.3546L159.567 84.4033L159.674 85.522L159.229 87.1143L156.567 87.3705L156.207 83.6254L157.216 83.5285L157.502 86.5191L157.847 85.3029L157.6 82.7568L157.156 82.7994L157.182 83.0692L153.457 83.4279L153.333 82.1604L154.57 79.6352L153.104 79.776L152.977 78.4424L154.384 75.5746L156.644 75.3573L155.226 78.2405L156.706 78.0985L156.829 79.4049L156.197 80.7441L156.951 80.6718L157.034 81.5362L158.324 81.4127L158.134 80.8317L157.271 80.9145L156.817 76.1871L157.489 76.1254L157.613 75.2839L159.926 75.061L159.816 75.9012L160.679 75.8185L160.921 78.3375L161.381 74.9214L163.115 74.7554L162.894 76.4081L164.791 76.226L164.92 77.5731L164.704 77.5935L164.037 82.5246L165.936 86.4759L164.084 86.6463ZM153.877 87.6292L153.517 83.8835L154.539 83.7847L154.897 87.5304L153.877 87.6292ZM155.233 87.4977L154.874 83.7526L155.883 83.6557L156.241 87.4014L155.233 87.4977ZM156.107 80.9157L155.622 81.9412L156.2 81.8856L156.107 80.9157ZM159.182 77.1527L158.522 77.2144L158.576 77.7664L159.234 77.7047L159.182 77.1527ZM159.346 78.8641L158.686 78.9258L158.741 79.4914L159.4 79.4296L159.346 78.8641ZM161.545 81.4121L161.636 82.3678L159.39 82.5839L159.442 83.1235L161.458 82.9296L161.786 86.3376L162.302 82.9574L161.545 81.4121ZM161.108 80.5434L160.341 80.6169L160.547 81.1954L161.394 81.1133L161.108 80.5434ZM162.729 77.7769L162.483 79.4722L161.044 79.6105L161.072 79.9069L162.726 79.7476L162.996 77.751L162.729 77.7769Z" fill="white"/>
<path d="M166.658 77.0238L166.612 75.6841L171.356 75.5186L170.948 74.2838L173.772 74.1863L174.221 75.4174L178.653 75.263L178.699 76.6027L166.658 77.0238ZM175.482 86.1248L172.968 84.2201L170.604 86.2939L166.819 86.4248L171.011 82.7569L168.289 80.7096L166.681 80.7658L168.81 77.3578L171.81 77.2541L170.079 80.0379L171.322 79.9953L172.85 81.1486L174.295 79.8922L175.553 79.8484L173.567 77.1936L176.54 77.0905L178.952 80.3404L177.317 80.3966L174.795 82.5988L179.337 85.9908L175.482 86.1248Z" fill="white"/>
<path d="M183.03 86.05L180.289 85.9747L181.91 83.5144L184.625 83.5878L183.03 86.05ZM185.854 76.2285L186.162 77.2929L183.919 77.2312L183.65 76.1674L183.354 76.1594L182.923 77.204L180.504 77.138L181.764 74.085L184.195 74.151L183.892 74.874L186.662 74.9499L186.626 76.2464L185.854 76.2285ZM188.824 85.7882L188.237 84.5269L189.669 84.5658L189.702 83.3483L187.703 83.2933L187.624 86.1753L185.071 86.1062L185.149 83.2242L180.88 83.1069L180.97 79.7921L185.239 79.9088L185.264 78.9883L180.914 78.8691L180.949 77.6109L191.824 77.9078L191.733 81.2646L187.762 81.1553L187.735 82.116L192.207 82.2395L192.108 85.8821L188.824 85.7882ZM185.206 81.0856L183.233 81.0312L183.207 81.9919L185.179 82.0462L185.206 81.0856ZM191.594 76.3847L191.917 77.4504L189.675 77.3886L189.311 76.323H189.215L188.864 77.3695L186.46 77.304L187.504 74.2461L189.868 74.3078L189.644 75.029L192.508 75.1074L192.472 76.407L191.594 76.3847ZM189.371 79.1013L187.817 79.0587L187.792 79.9786L189.346 80.0212L189.371 79.1013Z" fill="white"/>
<path d="M194.159 80.9541L194.282 79.5649L206.179 80.6336L206.056 82.0222L194.159 80.9541Z" fill="white"/>
<path d="M209.312 87.9683L206.946 87.6071L208.175 85.2746L210.46 85.6228L209.312 87.9683ZM207.401 84.7875L207.59 83.5422L208.233 83.6398L209.003 78.5666L208.483 78.4876L208.675 77.2158L209.196 77.2954L209.401 75.9434L211.621 76.2817L211.415 77.6332L212.255 77.7616L212.461 76.4101L214.72 76.754L214.515 78.1055L215.008 78.1814L214.815 79.4526L214.322 79.3773L213.551 84.4504L214.126 84.5387L213.936 85.7833L207.401 84.7875ZM211.431 83.1958L210.588 83.068L210.451 83.9781L211.293 84.1059L211.431 83.1958ZM216.395 89.0481L216.036 87.7189L216.731 87.825L217.116 85.2937L216.54 85.2055L216.26 87.0533L215.339 88.8845L213.134 88.548L213.241 88.2906L211.145 87.9707L210.771 85.6679L213.041 86.0136L213.388 87.9701L214.046 86.6051L215.506 76.9942L220.465 77.7498L218.694 89.3951L216.395 89.0481ZM211.752 81.0807L210.91 80.9529L210.779 81.8234L211.621 81.9518L211.752 81.0807ZM212.064 79.0334L211.222 78.905L211.092 79.7619L211.934 79.8903L212.064 79.0334ZM217.616 82.003L217.042 81.9148L216.734 83.9225L217.308 84.0108L217.616 82.003ZM218.114 78.7229L217.54 78.6358L217.237 80.6306L217.811 80.7176L218.114 78.7229Z" fill="white"/>
<path d="M84.3992 126.95L82.741 126.709L80.5885 127.929L79.7064 129.611L76.8136 131.25L77.6716 129.583L76.8487 130.05L74.6124 126.092L73.9541 126.465L75.1974 124.049L73.6218 124.943L72.3631 122.716L74.915 121.27L74.6426 120.787L71.9026 122.34L71.3633 121.386L74.1032 119.832L73.8043 119.302L75.8742 118.129L76.1731 118.659L76.7507 118.332L76.4505 117.802L78.5463 116.616L78.8465 117.146L81.3035 115.753L82.6017 118.05L80.1441 119.443L80.4103 119.915L83.1386 118.371L84.3239 120.463L83.9356 120.684L86.225 124.736L85.6129 125.083L87.2951 125.311L84.3992 126.95ZM75.3995 122.129L74.8226 122.456L75.0889 122.927L75.6646 122.6L75.3995 122.129ZM77.2858 119.286L76.71 119.613L76.9831 120.095L77.5601 119.769L77.2858 119.286ZM81.9914 122.419L77.0404 125.225L77.2401 125.58L82.1918 122.772L81.9914 122.419ZM78.8182 121.995L78.0304 122.442L77.3523 123.803L79.2342 122.738L78.8182 121.995ZM78.0452 120.628L77.4695 120.955L77.7357 121.427L78.3115 121.1L78.0452 120.628ZM82.6313 123.55L77.6797 126.356L77.8794 126.71L82.8304 123.904L82.6313 123.55ZM83.2631 124.67L78.3127 127.476L78.5118 127.829L83.4634 125.022L83.2631 124.67ZM79.9567 117.773L79.3809 118.099L79.6534 118.582L80.2291 118.255L79.9567 117.773ZM81.7443 120.336L80.909 120.808L81.3282 121.549L81.8213 121.27L81.4558 120.979L81.9489 120.699L81.7443 120.336Z" fill="white"/>
<path d="M95.8348 121.332L94.7512 120.313L96.1504 119.662L95.1765 117.563L93.5331 118.328L95.036 121.57L92.6936 122.659L91.1914 119.416L89.5598 120.174L90.5398 122.287L90.7106 123.716L88.2573 124.856L88.0039 122.958L83.8037 113.895L94.0294 109.141L98.9989 119.862L95.8348 121.332ZM88.3559 113.299L86.7255 114.058L87.5675 115.875L89.1985 115.117L88.3559 113.299ZM89.7737 116.357L88.1432 117.116L88.9859 118.934L90.6169 118.175L89.7737 116.357ZM92.317 111.457L90.6989 112.21L91.5415 114.027L93.1596 113.275L92.317 111.457ZM93.7347 114.516L92.1172 115.268L92.9593 117.087L94.5773 116.335L93.7347 114.516Z" fill="white"/>
<path d="M103.509 114.034L100.92 107.284L103.344 106.353L105.932 113.103L103.509 114.034ZM104.619 116.929L103.707 114.552L106.13 113.621L107.042 115.997L104.619 116.929Z" fill="white"/>
<path d="M112.122 111.653L111.737 110.427L113.053 110.013L111.524 105.118L110.326 105.494L109.956 104.305L111.156 103.93L110.749 102.625L113.251 101.841L113.659 103.145L117.425 101.966L117.017 100.662L119.507 99.8821L119.915 101.186L121.153 100.799L121.523 101.987L120.285 102.374L121.813 107.271L123.142 106.855L123.524 108.081L112.122 111.653ZM115.816 113.602L112.785 114.551L114.426 111.371L117.418 110.434L115.816 113.602ZM117.794 103.155L114.027 104.334L114.298 105.198L118.063 104.019L117.794 103.155ZM118.419 105.158L114.652 106.337L114.923 107.201L118.689 106.022L118.419 105.158ZM119.048 107.172L115.281 108.351L115.556 109.229L119.322 108.05L119.048 107.172ZM121.569 111.802L118.515 110.092L121.52 109.152L124.612 110.848L121.569 111.802Z" fill="white"/>
<path d="M133.884 101.439L133.453 100.527L133.295 100.566L133.688 102.171L135.75 101.663L136.063 102.938L134.002 103.446L135.177 108.232L132.827 108.811L132.264 108.043L132.333 108.613L130.876 108.971L131.016 109.257L129.086 109.733L128.615 108.775L128.404 109.901L125.939 110.509L123.966 102.475L125.332 102.139L125.132 101.727L123.518 102.125L123.668 98.8813L127.384 97.9651L128.864 100.809L127.381 101.174L127.591 101.582L128.682 101.313L128.962 102.457L128.842 97.6058L133.726 96.4031L135.912 100.94L133.884 101.439ZM125.9 99.6543L125.611 99.7259L125.591 100.945L126.417 100.741L125.9 99.6543ZM127.071 103.005L126.376 103.176L126.531 103.807L127.226 103.636L127.071 103.005ZM127.503 104.755L126.807 104.926L126.969 105.584L127.665 105.412L127.503 104.755ZM131.863 103.973L129.723 104.5L129.41 103.224L131.55 102.697L131.155 101.092L130.984 101.135L131.024 102.142L129.002 102.641L129.865 106.165L127.265 106.805L127.734 108.711L128.483 108.526L127.78 107.138L129.735 106.655L130.559 108.307L130.083 104.84L131.777 104.424L132.204 107.634L132.73 107.504L131.863 103.973ZM132.243 98.0916L130.89 98.4256L130.952 99.8049L132.868 99.3326L132.243 98.0916ZM135.735 107.774L134.273 103.811L135.941 103.4L137.348 107.376L135.735 107.774Z" fill="white"/>
<path d="M138.355 106.993L136.415 96.8624L144.139 95.377L146.081 105.508L138.355 106.993ZM141.757 97.2415L139.302 97.7132L140.72 105.132L143.176 104.659L141.757 97.2415Z" fill="white"/>
<path d="M152.29 94.8688L150.497 95.1195L150.693 96.5265L152.901 96.2178L153.08 97.5057L150.871 97.8144L151.892 105.147L149.563 105.472L148.543 98.1385L146.362 98.4423L146.183 97.1562L148.364 96.8519L148.168 95.4448L146.281 95.7072L146.102 94.4095L149.943 93.8742L150.088 93.3476L152.685 92.9858L152.29 94.8688ZM148.731 104.985L147.19 105.2L146.873 98.9998L148.414 98.7855L148.731 104.985ZM152.545 104.454L151.186 98.399L152.738 98.1817L154.085 104.239L152.545 104.454ZM154.065 102.328L152.913 94.044L154.772 93.7847L155.925 102.069L154.065 102.328ZM155.211 104.683L154.464 103.434L156.526 103.146L155.066 92.6505L157.448 92.3184L159.092 104.141L155.211 104.683Z" fill="white"/>
<path d="M167.615 93.8175L166.157 95.151L168.353 94.9825L168.436 96.0623L167.525 96.9063L168.549 96.8272L169.355 98.8702L167.818 98.9875L167.472 98.1731L167.118 99.0418L163.505 99.3184L163.411 98.0904L165.187 96.4741L163.474 96.6056L163.37 95.2418L164.664 94.0428L160.014 94.399L159.917 93.1297L164.351 92.7907L164.014 91.7307L166.763 91.5195L167.155 92.5753L171.549 92.2382L171.646 93.5069L167.615 93.8175ZM161.071 96.7192L160.08 94.7312L162.357 94.5565L163.363 96.5439L161.071 96.7192ZM162.536 99.3906L160.205 99.5691L161.168 97.0921L163.419 96.9192L162.536 99.3906ZM167.735 101.259L167.898 103.392L165.216 103.598L165.053 101.465L160.403 101.821L160.303 100.512L164.954 100.156L164.902 99.4808L167.585 99.2746L167.636 99.95L172.299 99.5925L172.399 100.901L167.735 101.259ZM167.092 97.2761L166.407 97.899L167.324 97.828L167.092 97.2761ZM170.896 95.966L168.619 96.1407L169.378 94.0187L171.643 93.8452L170.896 95.966ZM169.91 98.8251L168.771 96.5093L171.035 96.3364L172.174 98.6522L169.91 98.8251Z" fill="white"/>
<path d="M184.705 96.0949L184.801 102.782L180.72 102.844L180.025 101.501L182.161 101.469L182.099 97.0698L179.585 97.1068L176.857 102.955L173.966 102.996L176.665 97.1488L175.031 97.1729L175.016 96.2381L173.61 96.2598L175.968 91.0391L178.82 90.9983L176.699 95.7523L182.848 95.6627L180.415 90.9706L183.266 90.9292L185.935 96.0764L184.705 96.0949Z" fill="white"/>
<path d="M189.586 102.939L187.196 102.827L188.177 100.378L190.486 100.486L189.586 102.939ZM187.356 99.9751L187.418 98.7168L188.066 98.7471L188.305 93.6228L187.778 93.5981L187.839 92.3133L188.366 92.3374L188.428 90.9717L190.671 91.0773L190.609 92.4429L191.46 92.4818L191.522 91.1168L193.803 91.2236L193.741 92.5892L194.24 92.6127L194.179 93.8975L193.679 93.8747L193.439 98.999L194.02 99.0262L193.958 100.284L187.356 99.9751ZM191.199 97.9723L190.348 97.9321L190.305 98.8521L191.156 98.8922L191.199 97.9723ZM191.298 95.8355L190.447 95.7954L190.407 96.6745L191.257 96.7146L191.298 95.8355ZM191.395 93.7654L190.544 93.7252L190.503 94.5896L191.354 94.6303L191.395 93.7654ZM196.745 103.273L196.252 101.989L196.954 102.021L197.073 99.4645L196.49 99.4398L196.403 101.306L195.678 103.224L193.449 103.12L193.529 102.852L191.408 102.753L190.796 100.501L193.092 100.609L193.639 102.518L194.153 101.092L194.605 91.3804L199.615 91.6144L199.067 103.382L196.745 103.273ZM197.225 96.1374L196.645 96.1102L196.55 98.1396L197.131 98.1668L197.225 96.1374ZM197.38 92.8245L196.799 92.7967L196.706 94.8125L197.286 94.8396L197.38 92.8245Z" fill="white"/>
<path d="M204 96.5548L204.498 96.6091L203.706 103.851L201.22 103.578L201.932 97.0629L201.069 96.9691L203.398 91.8447L206.031 92.1337L204 96.5548ZM212.487 96.6783L211.609 104.714L206.81 104.188L206.34 102.761L209.175 103.07L209.904 96.3937L204.932 95.8485L205.083 94.476L210.055 95.0212L210.32 92.5979L212.9 92.8813L212.636 95.304L213.522 95.4009L213.372 96.7746L212.487 96.6783ZM206.414 101.216L205.069 96.8462L207.582 97.1216L208.938 101.494L206.414 101.216Z" fill="white"/>
<path d="M218.835 102.102L218.202 105.786L215.776 105.369L215.586 104.25L215.277 105.076L213.651 104.796L214.652 102.002L216.279 102.281L215.643 104.067L216.122 104.15L216.541 101.708L214.395 101.337L214.606 100.11L220.842 101.182L220.632 102.41L218.835 102.102ZM223.439 106.688L223.016 104.678L221.747 106.397L219.201 105.959L219.559 105.471L218.786 105.337L218.902 102.744L220.407 103.004L220.371 104.412L221.985 102.286L222.404 99.8431L220.778 99.5635L220.621 100.485L215.29 99.5672L215.496 98.3651L220.826 99.2825L222.824 94.5144L225.116 94.9096L224.468 96.4469L227.187 96.9149L226.632 100.145L224.794 99.8277L224.357 102.378L224.797 102.453L225.811 107.094L223.439 106.688ZM219.811 96.2542L219.651 97.1884L221.143 97.4458L220.93 98.6868L215.412 97.7366L215.626 96.4956L217.345 96.7914L217.506 95.8579L215.387 95.4924L215.59 94.3045L217.71 94.6694L217.883 93.655L220.188 94.052L220.013 95.0658L221.813 95.3745L221.609 96.5623L219.811 96.2542ZM224.927 97.9453L223.955 97.7786L223.404 99.0714L224.698 99.293L224.927 97.9453Z" fill="white"/>
<path d="M231.577 107.736L232.164 105.259L234.688 105.86L234.103 108.337L231.577 107.736ZM232.292 104.719L233.956 97.6804L236.483 98.2811L234.815 105.319L232.292 104.719Z" fill="white"/>
<path d="M48.408 68.1483L47.2646 65.6121L49.1083 64.778L47.3059 60.7804L45.4616 61.6151L44.3298 59.106L46.1748 58.272L45.4166 56.5902L43.187 57.599L43.428 49.7581L48.7403 47.3552L48.731 48.9518L64.7762 41.6895L65.9702 44.3362L64.4008 45.0462L66.2661 49.1827L68.1375 48.3357L69.2692 50.8447L67.3978 51.6912L69.2002 55.6882L71.0716 54.8411L72.2163 57.3773L48.408 68.1483ZM49.8966 51.6085L48.686 52.1567L50.5507 56.2932L51.7613 55.745L49.8966 51.6085ZM56.0799 73.1078L51.2632 75.2879L50.0014 68.5231L54.7632 66.3684L56.0799 73.1078ZM52.893 58.2522L51.6818 58.8004L53.4848 62.7974L54.696 62.2498L52.893 58.2522ZM54.9611 49.3173L53.7498 49.8656L55.6151 54.0021L56.8257 53.4538L54.9611 49.3173ZM58.7495 71.8996L55.1744 66.1813L59.9355 64.0273L63.5643 69.7208L58.7495 71.8996ZM57.9575 55.9611L56.7462 56.5093L58.5492 60.5063L59.7605 59.9587L57.9575 55.9611ZM60.0255 47.0262L58.8143 47.5744L60.6795 51.7109L61.8902 51.1633L60.0255 47.0262ZM64.7226 69.1979L61.0938 63.5043L65.8827 61.3373L69.5941 66.9932L64.7226 69.1979ZM63.0219 53.6699L61.8106 54.2182L63.6136 58.2152L64.8243 57.6675L63.0219 53.6699ZM70.7498 66.4709L67.0397 60.815L71.966 58.5856L75.6774 64.2427L70.7498 66.4709Z" fill="#1A374D"/>
<path d="M74.4759 47.6892L71.5171 39.7792L73.754 39.0383L76.7128 46.9483L74.4759 47.6892ZM80.1542 39.4415L85.6249 56.045L85.3715 60.8755L80.0655 62.6295L80.4082 56.7186L74.36 38.3623L83.1944 35.4427L81.8617 33.9047L87.7121 31.9711L88.9584 33.5343L96.7024 30.9746L97.5925 33.6751L80.1542 39.4415ZM79.8799 57.531L77.643 58.2719L74.9591 48.8703L77.2244 48.122L79.8799 57.531ZM99.3098 56.2697L97.4353 54.0539L99.0121 53.5328L98.5301 52.0678L96.6075 52.7031L97.9328 56.7247L94.2343 57.9478L92.9096 53.9261L91.1023 54.5225L92.4276 58.5448L87.7817 60.0809L83.1346 45.976L87.6085 44.4942L83.2936 43.2755L88.829 41.4462L90.6696 42.2068L92.6933 39.4674L82.0818 42.9754L81.2582 40.4763L97.1191 35.234L98.008 37.9345L94.2898 42.2858L99.8554 40.4491L104.502 54.5534L99.3098 56.2697ZM90.4286 46.3995L88.6219 46.9965L89.0577 48.3177L90.8644 47.7207L90.4286 46.3995ZM91.6694 50.1656L89.8627 50.7626L90.317 52.1412L92.1237 51.5442L91.6694 50.1656ZM96.0502 44.5442L94.1283 45.1789L94.5641 46.5007L96.4861 45.8661L96.0502 44.5442ZM97.2899 48.3072L95.3691 48.9425L95.8234 50.3212L97.7441 49.6859L97.2899 48.3072Z" fill="#1A374D"/>
<path d="M113.238 31.0696L114.035 34.7338L129.584 31.3382L133.229 48.0942L122.635 50.4094L120.31 47.8207L127.008 46.3593L124.658 35.5432L114.697 37.7776L116.394 45.5795L114.523 52.1795L108.297 53.5377L110.447 45.5153L107.573 32.3032L103.855 33.1138L103.194 30.0707L113.726 27.7715L112.375 25.2495L118.453 23.9233L119.806 26.4454L129.572 24.3148L130.235 27.3585L113.238 31.0696Z" fill="#1A374D"/>
<path d="M154.326 34.6961L150.421 33.9991L146.729 35.5296L136.703 36.6298L144.816 33.0316L139.771 32.1852L139.498 29.6601L136.766 29.9601L136.458 27.164L139.19 26.8639L139.09 25.9619L136.359 26.262L135.915 22.2026L146.153 21.079L145.511 19.659L151.485 19.0039L152.246 20.4109L162.034 19.3379L162.481 23.4275L159.718 23.7307L159.814 24.6024L162.547 24.3024L162.855 27.0985L160.123 27.3986L160.392 29.8638L156.071 31.7376L164.596 33.5712L154.326 34.6961ZM153.726 38.6567L154.469 45.4523L148.945 46.0586L148.201 39.263L137.935 40.3897L137.632 37.6232L147.899 36.4964L147.776 35.3851L153.3 34.7789L153.423 35.8902L163.751 34.7572L164.053 37.5238L153.726 38.6567ZM144.322 46.5661L138.348 47.2211L141.843 40.8429L147.757 40.194L144.322 46.5661ZM156.757 22.7453L141.84 24.3826L141.919 25.1037L144.65 24.8043L144.809 26.2478L154.266 25.2099L154.107 23.7665L156.84 23.4664L156.757 22.7453ZM154.568 28.0067L145.111 29.0427L145.173 29.5841L150.295 30.572L154.64 28.6346L154.568 28.0067ZM159.214 44.9331L154.573 39.4476L160.337 38.816L165.068 44.291L159.214 44.9331Z" fill="#1A374D"/>
<path d="M181.91 37.4615L179.857 37.4818L182.77 32.8854L179.027 32.923L178.965 26.8139L184.945 26.7522L185.002 32.5557L181.91 37.4615Z" fill="#1A374D"/>
<path d="M199.475 44.2207L199.798 41.1226L208.537 42.0345L210.974 18.6021L217.011 19.2318L216.135 27.6549L227.097 28.7983L226.778 31.8667L215.816 30.7227L214.574 42.6655L226.497 43.9089L226.174 47.0076L199.475 44.2207Z" fill="#1A374D"/>
<path d="M230.266 47.5651L232.003 39.3698L234.749 39.9533L233.014 48.1485L230.266 47.5651ZM239.759 28.4025L243.983 29.3008L243.468 31.7265L240.096 34.535L242.725 35.0907L241.615 40.328L232.103 38.3073L232.805 34.9932L237.69 31.0227L233.85 30.2065L234.484 27.2184L240.075 22.5317L245.422 23.6684L239.759 28.4025ZM233.752 48.3059L235.488 40.1107L238.087 40.6627L236.352 48.8585L233.752 48.3059ZM253.357 39.5483L250.738 51.9164L244.504 50.5909L243.957 47.7849L242.952 49.6123L239.585 48.8962L239.453 49.5173L237.119 49.0234L238.856 40.8281L241.19 41.322L240.005 46.9137L242.813 41.8215L241.868 41.6208L242.45 38.8685L247.177 39.8736L246.499 43.0686L244.06 47.5904L246.068 48.017L248.098 38.4308L243.313 37.4139L245.802 25.6675L249.051 26.3577L250.302 24.6759L256.062 25.8996L254.988 27.619L260.659 28.8248L258.171 40.5713L253.357 39.5483ZM239.754 34.8339L237.506 36.7052L239.278 37.0818L239.754 34.8339ZM254.068 35.0308L249.252 34.0078L248.901 35.6643L253.716 36.6879L254.068 35.0308ZM255.001 30.6226L250.186 29.599L249.848 31.1968L254.664 32.2204L255.001 30.6226ZM252.54 51.7121L252.376 45.9259L256.393 46.7798L256.527 52.5598L252.54 51.7121ZM256.635 45.9339L252.676 45.093L254.772 40.7454L258.701 41.5801L256.635 45.9339Z" fill="#1A374D"/>
<path d="M260.375 53.6043L268.098 29.7236L275.653 32.1741L267.93 56.0553L260.375 53.6043ZM271.57 33.9021L270.623 33.5934L264.714 51.8639L265.663 52.1726L271.57 33.9021ZM268.291 56.9999L269.919 51.9651L272.189 52.7004L270.561 57.7353L268.291 56.9999ZM277.757 44.9065L279.968 45.6239L279.308 47.6668L275.445 50.3871L276.739 50.8063L277.232 49.282L278.928 49.832L277.625 53.8605L270.127 51.428L270.918 48.9819L274.222 46.6204L271.951 45.8838L272.788 43.2945L276.89 40.5243L281.686 42.0764L277.757 44.9065ZM271.25 57.96L272.878 52.9246L274.746 53.5308L273.118 58.5656L271.25 57.96ZM273.807 58.7898L275.435 53.7543L277.474 54.4162L275.846 59.451L273.807 58.7898ZM274.336 39.0919L276.69 31.8129L293.495 37.2607L291.141 44.5398L274.336 39.0919ZM288.07 49.8104L287.568 51.3638L288.716 51.7342L287.915 54.2087L286.766 53.8383L286.255 55.4207L287.403 55.7911L286.602 58.265L285.452 57.8945L284.942 59.4769L286.32 59.9245L285.464 62.5713L276.444 59.6448L279.872 49.0572L278.924 48.7485L282.919 42.4789L286.653 43.6915L285.249 45.9696L286.544 46.3895L286.884 43.7662L289.699 44.6793L289.301 47.2841L290.335 47.6205L289.479 50.2673L288.07 49.8104ZM281.148 36.1828L280.285 35.9031L279.615 37.9744L280.478 38.2541L281.148 36.1828ZM282.644 56.982L281.552 56.6277L281.04 58.21L282.132 58.5644L282.644 56.982ZM283.957 52.9252L282.863 52.572L282.351 54.1544L283.443 54.5088L283.957 52.9252ZM284.711 37.3385L283.82 37.0496L283.15 39.1209L284.041 39.4099L284.711 37.3385ZM285.258 48.8967L284.167 48.5429L283.664 50.0963L284.756 50.4507L285.258 48.8967ZM288.331 38.5128L287.468 38.2331L286.799 40.3051L287.662 40.5841L288.331 38.5128Z" fill="#1A374D"/>
<path d="M299.018 66.6339L301.327 61.4404L306.623 63.8031L304.314 68.9966L299.018 66.6339ZM301.831 60.3075L308.391 45.5562L313.686 47.9177L307.128 62.6696L301.831 60.3075Z" fill="#1A374D"/>
<path d="M293.65 113.279C292.128 115.001 289.245 115.467 287.619 116.758C289.289 112.254 285.059 103.077 285.382 104.238C286.955 109.878 287.102 116.871 285.3 117.916C285.287 117.921 277.257 118.41 277.244 118.413C272.272 120.907 268.931 119.324 263.436 118.578C261.239 118.513 259.112 117.792 257.326 116.508C262.017 109.926 262.112 104.057 262.04 104.622C261.239 110.684 256.442 115.971 255.395 116.384H255.388C250.506 115.625 247.448 114.136 247.899 113.679C251.175 110.351 252.682 104.565 253.745 98.662V98.6583C254.801 92.8357 255.427 86.9112 256.894 83.1266C256.886 83.1266 256.894 83.1229 256.894 83.1186C256.898 83.1072 256.904 83.0968 256.912 83.0877C256.954 82.9797 256.998 82.8753 257.042 82.7728C260.173 75.3178 268.302 73.307 273.742 73.0181C292.218 72.0339 295.607 111.059 293.65 113.279Z" fill="#434343"/>
<path d="M262.218 77.148C259.554 78.8133 257.509 81.3073 256.394 84.248C255.135 87.4312 254.771 90.6071 253.961 93.7632C252.233 100.411 249.375 106.711 245.514 112.389C245.423 112.525 245.65 112.565 245.76 112.441C250.743 106.961 253.197 100.986 254.821 95.2048C255.653 92.2506 256.054 89.347 256.774 86.4039C257.165 84.6946 257.82 83.0566 258.713 81.5487C259.766 79.9653 261.072 78.5663 262.578 77.4079C262.836 77.1906 262.519 76.9708 262.218 77.148Z" fill="#BADAF7"/>
<path d="M270.476 109.097C279.456 102.549 299.324 116.992 302.698 126.38C306.28 136.347 296.278 165.451 293.011 167.56C276.025 178.514 252.945 165.364 251.765 162.374C250.586 159.384 256.419 139.925 256.419 139.925C256.419 139.925 265.805 112.504 270.476 109.097Z" fill="#E2E2E2"/>
<path d="M287.281 120.628C287.301 133.601 290.382 152.322 289.958 153.917C289.534 155.512 273.327 167.809 271.321 170.957C269.314 174.106 270.328 176.251 270.328 176.251L287.755 188.345C287.755 188.345 290.283 190.341 295.184 186.378C300.085 182.416 316.375 168.31 315.61 160.933C314.846 153.556 311.267 133.159 294.535 116.472C290.347 112.296 287.271 112.563 287.281 120.628Z" fill="#E2E2E2"/>
<path d="M282.583 160.974C282.517 160.939 282.458 160.892 282.407 160.837C282.349 160.773 282.303 160.698 282.274 160.616C282.244 160.535 282.231 160.448 282.235 160.362C282.239 160.275 282.26 160.19 282.297 160.112C282.333 160.033 282.385 159.963 282.449 159.904L289.255 153.668L286.224 133.701C286.198 133.528 286.242 133.351 286.346 133.21C286.45 133.069 286.606 132.976 286.779 132.949C286.952 132.924 287.128 132.968 287.269 133.072C287.41 133.176 287.503 133.332 287.529 133.505L290.667 154.17L283.338 160.879C283.238 160.971 283.111 161.029 282.976 161.046C282.84 161.063 282.703 161.038 282.583 160.974Z" fill="#969696"/>
<path d="M213.084 127.2C213.084 127.2 212.689 117.254 208.06 116.721C203.43 116.188 192.912 116.277 192.912 116.277L184.322 116.418C183.923 116.424 183.542 116.588 183.262 116.873C182.982 117.158 182.825 117.541 182.826 117.941C182.826 118.277 182.936 118.603 183.141 118.87C183.345 119.136 183.632 119.327 183.956 119.413L196.218 122.678C196.218 122.678 205.73 129.769 206.381 129.392C207.031 129.015 213.084 127.2 213.084 127.2Z" fill="#FFC9AE"/>
<path d="M207.422 118.496L206.892 117.517L204.138 112.437C204.064 112.301 204.019 112.15 204.005 111.995C203.991 111.841 204.008 111.685 204.056 111.537C204.105 111.389 204.183 111.253 204.285 111.136C204.388 111.02 204.513 110.925 204.654 110.859L204.729 110.823C204.95 110.719 205.199 110.688 205.439 110.736C205.678 110.783 205.896 110.907 206.061 111.088L212.173 117.817C212.726 118.426 213.138 119.15 213.38 119.938C213.622 120.725 213.687 121.556 213.571 122.372L213.016 126.267L208.835 123.956C208.374 123.701 207.969 123.355 207.646 122.938C207.323 122.521 207.088 122.043 206.955 121.532C206.823 121.021 206.796 120.488 206.876 119.966C206.956 119.445 207.142 118.945 207.421 118.497L207.422 118.496Z" fill="#FFC9AE"/>
<path d="M243.284 155.74C242.905 155.914 242.511 156.055 242.107 156.16C234.669 158.056 204.383 140.238 203.549 138.065C202.713 135.884 204.757 134.303 204.757 134.303L219.838 124.946C220.567 124.508 221.404 124.279 222.254 124.287C223.105 124.294 223.938 124.536 224.659 124.988C227.257 126.549 237.478 133.79 240.516 133.9C243.565 134.006 257.728 113.905 267.95 110.152C269.357 109.634 270.218 110.035 270.671 111.038C271.988 113.971 269.76 122.048 267.006 127.595C263.491 134.666 250.916 152.347 243.284 155.74Z" fill="#E2E2E2"/>
<path d="M222.418 124.14L204.492 136.263C204.492 136.263 201.653 131.248 201.661 131.159C201.668 131.07 216.735 120.941 217.179 120.976C217.623 121.011 222.418 124.14 222.418 124.14Z" fill="#E2E2E2"/>
<path d="M184.272 118.269C184.561 117.992 184.909 117.786 185.289 117.664C185.67 117.543 186.073 117.51 186.468 117.568L196.384 119.923C196.879 119.664 197.408 119.476 197.956 119.367C199.813 118.987 206.501 118.03 209.571 122.306" stroke="#EDA682" stroke-linecap="round" stroke-linejoin="round"/>
<path d="M211.183 118.082C211.183 118.082 209.805 116.999 206.76 116.84" stroke="#EDA682" stroke-linecap="round" stroke-linejoin="round"/>
<path d="M190.559 116.84L199.425 117.668L201.207 116.605" stroke="#EDA682" stroke-linecap="round" stroke-linejoin="round"/>
<path d="M267.979 109.397C267.979 109.397 265.027 111.534 264.458 112.121C264.458 112.121 264.562 116.427 270.045 117.439C275.528 118.45 281.993 108.557 281.993 108.557C281.993 108.557 278.395 106.919 275.375 106.751C272.354 106.583 267.979 109.397 267.979 109.397Z" fill="#FFC9AE"/>
<path d="M269.622 115.738C267.773 115.527 267.883 111.049 267.98 109.395C268.011 109.016 268.031 108.787 268.031 108.787L267.988 108.645L267.875 108.212L265.931 101.168L274.098 95.3269L275.278 94.5447C275.278 94.5447 275.73 96.7253 276.244 99.3511C276.273 99.4863 276.306 99.6227 276.327 99.7555C276.405 100.123 276.479 100.497 276.549 100.878C276.606 101.157 276.659 101.442 276.704 101.742C276.75 102.042 276.802 102.343 276.855 102.645C277.211 104.787 277.419 106.95 277.477 109.119C277.323 109.983 273.503 116.184 269.622 115.738Z" fill="#FFC9AE"/>
<path d="M256.74 88.6814C253.588 101.242 261.405 104.333 263.448 105.227C265.767 106.243 274.342 107.625 278.772 95.4585C283.203 83.2922 278.367 77.8549 272.826 76.1502C267.286 74.4456 259.891 76.1218 256.74 88.6814Z" fill="#FFC9AE"/>
<path d="M261.438 96.5017C261.652 97.5898 262.143 98.6042 262.863 99.4473C263.269 99.894 263.804 100.203 264.393 100.33C265.688 100.597 266.233 99.5609 266.468 98.5582C266.588 98.0235 266.645 97.4764 266.637 96.9283C264.893 97.1223 263.127 96.9775 261.438 96.5017Z" fill="white"/>
<path d="M276.988 96.2061C275.867 95.5627 276.248 91.9646 276.248 91.9646C273.448 90.3606 271.105 88.065 269.442 85.2968C268.386 83.5555 267.742 81.5956 267.557 79.5668C263.399 85.7752 257.325 85.5487 257.325 85.5487C257.325 85.5487 258.199 79.839 261.69 77.5399C265.18 75.2407 271.335 73.3058 277.197 78.453C277.197 78.453 281.547 82.0252 281.568 86.5673C281.59 91.1095 278.51 97.0827 276.988 96.2061Z" fill="#434343"/>
<path d="M267.649 78.7147C267.664 78.6709 267.718 78.6962 267.715 78.74C267.607 80.6941 269.249 85.4362 271.708 88.1163C273.419 90.0602 275.559 91.5777 277.958 92.5486C277.971 92.5568 277.982 92.5696 277.987 92.5847C277.992 92.5998 277.991 92.6162 277.986 92.631C277.98 92.6458 277.969 92.6581 277.955 92.6656C277.941 92.6731 277.925 92.6754 277.909 92.6721C274.925 91.8472 272.125 89.7086 270.188 87.3353C268.252 84.9621 266.588 81.8159 267.649 78.7147Z" fill="#434343"/>
<path d="M276.373 96.4334C276.373 96.4334 278.876 91.9616 281.448 94.1786C283.689 96.1111 280.599 100.739 278.349 101.188C277.725 101.323 277.075 101.254 276.494 100.993C275.912 100.731 275.429 100.29 275.116 99.7333L276.373 96.4334Z" fill="#FFC9AE"/>
<path d="M277.23 100.398C277.502 100.447 277.743 100.6 277.903 100.826C278.062 101.051 278.126 101.331 278.081 101.603C278.036 101.876 277.885 102.12 277.662 102.282C277.438 102.444 277.16 102.511 276.888 102.469C276.616 102.421 276.374 102.267 276.215 102.041C276.056 101.816 275.992 101.536 276.037 101.264C276.082 100.991 276.233 100.748 276.456 100.586C276.679 100.423 276.958 100.356 277.23 100.398Z" fill="#F0F7FD"/>
<path d="M265.728 86.2723C265.613 86.2109 265.519 86.1162 265.459 86.0006C265.378 85.8478 265.36 85.6691 265.409 85.5031C265.459 85.3372 265.572 85.1976 265.724 85.1147C265.816 85.0659 267.984 83.9194 270.732 85.9914C270.801 86.0435 270.86 86.1088 270.904 86.1835C270.948 86.2583 270.977 86.3411 270.989 86.4271C271.002 86.5131 270.997 86.6007 270.975 86.6849C270.953 86.769 270.915 86.848 270.863 86.9174C270.812 86.9877 270.747 87.047 270.672 87.0918C270.597 87.1366 270.515 87.1659 270.428 87.1781C270.342 87.1903 270.255 87.1851 270.17 87.1628C270.086 87.1405 270.007 87.1016 269.939 87.0483C267.901 85.511 266.406 86.2457 266.343 86.2809C266.247 86.329 266.141 86.3534 266.034 86.3519C265.927 86.3504 265.822 86.3231 265.728 86.2723Z" fill="black"/>
<path d="M258.705 84.9973C258.602 84.9423 258.515 84.8604 258.453 84.7601C258.392 84.6599 258.359 84.545 258.357 84.4275C258.355 84.3411 258.37 84.2551 258.401 84.1746C258.433 84.094 258.479 84.0205 258.539 83.9581C258.599 83.8958 258.671 83.8459 258.75 83.8113C258.829 83.7766 258.914 83.758 259 83.7564C259.087 83.7564 261.122 83.7298 261.929 85.1443C261.972 85.2194 262 85.3022 262.011 85.3882C262.022 85.4741 262.016 85.5614 261.994 85.645C261.971 85.7286 261.932 85.807 261.879 85.8755C261.826 85.9441 261.76 86.0015 261.685 86.0444C261.61 86.0877 261.528 86.1157 261.442 86.1269C261.356 86.138 261.269 86.1321 261.185 86.1094C261.102 86.0868 261.024 86.0478 260.955 85.9948C260.887 85.9418 260.829 85.8758 260.787 85.8006C260.436 85.1906 259.396 85.0708 259.025 85.0757C258.913 85.0777 258.803 85.0507 258.705 84.9973Z" fill="black"/>
<path d="M268.375 89.5039C268.473 88.9782 268.202 88.4873 267.771 88.4073C267.341 88.3273 266.913 88.6887 266.815 89.2144C266.718 89.7401 266.988 90.2311 267.419 90.311C267.85 90.391 268.278 90.0296 268.375 89.5039Z" fill="black"/>
<path d="M260.253 88.7815C260.35 88.2558 260.08 87.7648 259.649 87.6849C259.218 87.6049 258.79 87.9663 258.693 88.492C258.595 89.0177 258.866 89.5087 259.297 89.5886C259.727 89.6686 260.156 89.3072 260.253 88.7815Z" fill="black"/>
<path d="M260.502 94.3532C260.237 94.2104 260.024 93.986 259.896 93.713C259.807 93.5258 259.761 93.3213 259.76 93.1142C259.76 92.9071 259.805 92.7024 259.892 92.5146L261.371 89.4098C261.399 89.3509 261.438 89.2981 261.486 89.2544C261.535 89.2107 261.591 89.1771 261.652 89.1553C261.714 89.1336 261.779 89.1242 261.844 89.1277C261.909 89.1312 261.972 89.1475 262.031 89.1758C262.09 89.2036 262.142 89.2427 262.186 89.291C262.23 89.3393 262.263 89.3958 262.285 89.4572C262.307 89.5186 262.316 89.5837 262.313 89.6488C262.31 89.7139 262.293 89.7776 262.265 89.8364L260.786 92.9357C260.76 92.9908 260.746 93.051 260.746 93.1119C260.746 93.1729 260.76 93.2331 260.786 93.2882C260.812 93.3444 260.85 93.394 260.898 93.4334C260.945 93.4729 261.001 93.5011 261.061 93.516L263.057 94.0254C263.12 94.0412 263.179 94.0694 263.231 94.1083C263.283 94.1472 263.327 94.196 263.36 94.2519C263.393 94.3078 263.415 94.3698 263.425 94.4342C263.434 94.4987 263.43 94.5643 263.414 94.6273C263.398 94.6905 263.37 94.75 263.331 94.8022C263.292 94.8545 263.244 94.8985 263.188 94.9318C263.132 94.9651 263.07 94.9869 263.005 94.9962C262.941 95.0054 262.875 95.0017 262.812 94.9854L260.817 94.4761C260.707 94.4477 260.602 94.4064 260.502 94.3532Z" fill="#EDA682"/>
<path d="M267.593 106.259C267.524 106.222 267.464 106.169 267.42 106.105C267.375 106.041 267.346 105.966 267.336 105.889C267.327 105.824 267.331 105.759 267.348 105.696C267.365 105.633 267.393 105.574 267.433 105.523C267.472 105.471 267.521 105.428 267.577 105.395C267.633 105.363 267.695 105.342 267.759 105.333C267.802 105.326 272.049 104.719 274.072 102.335C274.114 102.285 274.165 102.244 274.223 102.214C274.28 102.184 274.343 102.166 274.408 102.161C274.473 102.156 274.538 102.163 274.6 102.184C274.661 102.204 274.718 102.236 274.767 102.279C274.817 102.321 274.858 102.372 274.887 102.43C274.917 102.488 274.935 102.551 274.94 102.615C274.946 102.68 274.938 102.745 274.918 102.807C274.899 102.869 274.867 102.926 274.825 102.976C272.555 105.651 268.081 106.287 267.893 106.314C267.789 106.328 267.685 106.309 267.593 106.259Z" fill="#EDA682"/>
<path d="M277.504 98.2478C277.41 98.197 277.334 98.1169 277.289 98.0195C277.244 97.9221 277.231 97.8127 277.253 97.7076C277.363 97.0122 277.713 96.3775 278.243 95.9148C278.772 95.452 279.448 95.1906 280.15 95.1763C280.281 95.1792 280.406 95.2339 280.497 95.3283C280.588 95.4228 280.638 95.5495 280.636 95.6807C280.635 95.7455 280.621 95.8096 280.595 95.8691C280.569 95.9286 280.532 95.9825 280.485 96.0276C280.439 96.0727 280.384 96.1082 280.324 96.1321C280.264 96.1559 280.199 96.1676 280.134 96.1666C279.66 96.1804 279.206 96.3643 278.855 96.6848C278.505 97.0053 278.281 97.4411 278.224 97.9132C278.21 97.9769 278.185 98.0374 278.148 98.0911C278.111 98.1449 278.064 98.1908 278.01 98.2264C277.955 98.2619 277.894 98.2863 277.83 98.2981C277.767 98.3099 277.701 98.309 277.637 98.2953C277.591 98.2856 277.546 98.2696 277.504 98.2478Z" fill="#EDA682"/>
<path d="M278.222 99.2566C278.14 99.2124 278.072 99.1459 278.026 99.0646C277.993 99.0082 277.973 98.9459 277.964 98.8813C277.956 98.8167 277.961 98.7512 277.978 98.6884C277.995 98.6257 278.025 98.5669 278.065 98.5156C278.104 98.4642 278.154 98.4213 278.211 98.3892C278.451 98.2721 278.649 98.0841 278.779 97.8505C278.91 97.6169 278.965 97.349 278.939 97.0828C278.918 96.9537 278.95 96.8219 279.027 96.7161C279.103 96.6104 279.219 96.5393 279.347 96.5185C279.411 96.5074 279.476 96.509 279.538 96.5231C279.601 96.5372 279.66 96.5636 279.713 96.6007C279.765 96.6378 279.81 96.6849 279.844 96.7394C279.879 96.7938 279.902 96.8545 279.913 96.918C279.973 97.3845 279.889 97.8584 279.672 98.2756C279.455 98.6928 279.115 99.0333 278.699 99.2511C278.626 99.2923 278.545 99.3144 278.461 99.3153C278.378 99.3163 278.296 99.2961 278.222 99.2566Z" fill="#EDA682"/>
<path d="M255.312 143.638C255.21 143.572 255.132 143.474 255.091 143.359C255.05 143.245 255.047 143.12 255.084 143.004L259.822 122.772C259.852 122.611 259.937 122.465 260.063 122.359C260.188 122.254 260.346 122.195 260.51 122.194C260.584 122.207 260.654 122.237 260.715 122.28C260.776 122.323 260.827 122.379 260.865 122.444C260.902 122.51 260.924 122.582 260.931 122.657C260.937 122.732 260.927 122.807 260.901 122.877L256.163 143.109C256.132 143.27 256.047 143.416 255.922 143.522C255.797 143.627 255.638 143.686 255.475 143.688C255.418 143.682 255.362 143.665 255.312 143.638Z" fill="#969696"/>
</svg>
