<svg width="89" height="58" viewBox="0 0 89 58" fill="none" xmlns="http://www.w3.org/2000/svg">
<path d="M86.252 0H24.5009C24.1973 -2.84202e-08 23.8968 0.059809 23.6163 0.17601C23.3359 0.292211 23.0811 0.462513 22.8665 0.677216C22.6518 0.891918 22.4816 1.14681 22.3655 1.42731C22.2495 1.70781 22.1898 2.00843 22.1899 2.312V27.796H28.5289V6.33499H82.2289V38.755H37.567V45.094H51.5009V49.677H44.8839C44.3957 49.669 43.9108 49.7572 43.4567 49.9366C43.0026 50.1161 42.5883 50.3831 42.2374 50.7227C41.8866 51.0622 41.606 51.4675 41.4117 51.9155C41.2175 52.3635 41.1135 52.8453 41.1055 53.3335C41.0975 53.8217 41.1856 54.3067 41.3651 54.7608C41.5445 55.2149 41.8116 55.6292 42.1511 55.98C42.4907 56.3309 42.896 56.6114 43.3439 56.8057C43.7919 56.9999 44.2738 57.104 44.762 57.112H65.8619C66.8373 57.096 67.7674 56.6973 68.4515 56.0019C69.1356 55.3064 69.519 54.37 69.519 53.3945C69.519 52.419 69.1356 51.4825 68.4515 50.7871C67.7674 50.0917 66.8373 49.693 65.8619 49.677H59.2459V45.094H86.2459C86.8591 45.094 87.4472 44.8504 87.8808 44.4168C88.3144 43.9832 88.5579 43.3952 88.5579 42.782V2.312C88.5579 1.69985 88.3152 1.11269 87.8829 0.679276C87.4506 0.245863 86.8641 0.0015886 86.252 0Z" fill="#1A374D"/>
<path d="M3.92603 29.755H35.6V53.385H3.92603V29.755ZM0 29.631V53.507C0 54.5148 0.400338 55.4813 1.11298 56.194C1.82561 56.9066 2.79217 57.307 3.79999 57.307H35.728C36.7359 57.307 37.7023 56.9066 38.415 56.194C39.1276 55.4813 39.528 54.5148 39.528 53.507V29.635C39.528 28.6271 39.1276 27.6606 38.415 26.948C37.7023 26.2353 36.7359 25.835 35.728 25.835H3.79999C2.79217 25.835 1.82561 26.2353 1.11298 26.948C0.400338 27.6606 0 28.6271 0 29.635V29.631Z" fill="#1A374D"/>
<path d="M37.5119 46.8447C38.1669 46.8447 38.6979 46.3137 38.6979 45.6587C38.6979 45.0036 38.1669 44.4727 37.5119 44.4727C36.8569 44.4727 36.3259 45.0036 36.3259 45.6587C36.3259 46.3137 36.8569 46.8447 37.5119 46.8447Z" fill="white"/>
</svg>
