<svg width="29" height="23" viewBox="0 0 29 23" fill="none" xmlns="http://www.w3.org/2000/svg">
<path d="M24.6749 20.3869C25.3 20.385 25.899 20.1359 26.341 19.6939C26.783 19.2519 27.0321 18.6529 27.0339 18.0279V3.28185C27.0321 2.65677 26.783 2.05783 26.341 1.61583C25.899 1.17383 25.3 0.924698 24.6749 0.922852H4.62094C3.99569 0.924434 3.39649 1.17345 2.95427 1.61547C2.51206 2.0575 2.26279 2.6566 2.26094 3.28185V18.0279C2.26279 18.6529 2.51192 19.2519 2.95392 19.6939C3.39592 20.1359 3.99487 20.385 4.61994 20.3869H0.491943C0.491943 21.6869 4.03094 22.1559 5.79994 22.1559H23.4919C25.2609 22.1559 28.7999 21.6839 28.7999 20.3869H24.6749ZM4.62094 3.28185H24.6749V18.3229H4.62094V3.28185ZM14.6479 21.4229C14.4146 21.4229 14.1864 21.3536 13.9924 21.224C13.7983 21.0943 13.6471 20.91 13.5578 20.6944C13.4685 20.4788 13.4451 20.2415 13.4906 20.0126C13.5361 19.7837 13.6485 19.5735 13.8136 19.4085C13.9786 19.2434 14.1888 19.1311 14.4177 19.0855C14.6466 19.04 14.8839 19.0634 15.0995 19.1527C15.3151 19.242 15.4994 19.3932 15.6291 19.5873C15.7587 19.7813 15.8279 20.0095 15.8279 20.2429C15.8272 20.5556 15.7026 20.8552 15.4815 21.0764C15.2603 21.2975 14.9607 21.4221 14.6479 21.4229Z" fill="#203C62"/>
</svg>
