<svg width="60" height="60" viewBox="0 0 60 60" fill="none" xmlns="http://www.w3.org/2000/svg">
<path fill-rule="evenodd" clip-rule="evenodd" d="M51.0143 53.2207C51.0143 46.3059 47.0311 38.7583 47.0311 38.7583C45.474 35.6489 43.7449 32.196 39.9336 30.117C39.8431 30.0357 39.4991 29.8639 39.4176 29.7735L35.3529 27.9657L33.5423 26.411C35.0258 25.7437 36.3356 24.7443 37.3701 23.4904C38.4047 22.2364 39.1362 20.7615 39.5081 19.1798C39.7707 19.1798 40.0332 18.7459 40.0332 18.1403V18.05C40.2485 17.6062 40.4212 17.1431 40.5492 16.667C40.8027 15.8896 41.5903 13.7293 40.8932 13.2141C40.8274 13.1695 40.7521 13.1408 40.6733 13.1301C40.5945 13.1194 40.5142 13.127 40.4388 13.1524C40.3635 13.1777 40.295 13.2202 40.2388 13.2763C40.1825 13.3325 40.14 13.4009 40.1147 13.4762C40.1147 13.4762 41.0743 8.11607 40.2867 5.784C38.6481 -0.0913586 24.7157 -1.73647 24.7157 1.9876C18.7409 3.62367 19.8725 9.21886 20.651 13.5576C20.6144 13.472 20.5553 13.3979 20.4798 13.3431C20.4044 13.2884 20.3156 13.2551 20.2227 13.2468C20.1299 13.2384 20.0365 13.2554 19.9525 13.2958C19.8685 13.3362 19.7971 13.3985 19.7457 13.4762C19.0577 14.1632 19.7457 15.8896 20.0083 16.667C20.1357 17.1171 20.3086 17.5533 20.5243 17.9686V18.1403C20.5243 18.7459 20.7868 19.1798 21.1309 19.1798C22.0814 22.9762 24.1636 25.3083 26.5626 26.411L24.6614 27.9657L20.5967 29.7735C20.5062 29.8639 20.0716 30.0357 20.0716 30.117C16.2694 32.196 14.5404 35.6489 12.9742 38.7583C10.8521 43.3245 9.50884 48.2126 9 53.2207V53.5281C9.01519 54.0789 9.13941 54.6213 9.36551 55.124C9.5916 55.6267 9.91507 56.0797 10.3173 56.4569C10.7196 56.8342 11.1926 57.1282 11.7092 57.3221C12.2258 57.516 12.7758 57.6059 13.3273 57.5866H13.8433C14.9569 57.3993 16.0367 57.049 17.048 56.5471L29.5953 60H30.3738L42.921 56.5471C43.9297 57.0477 45.0064 57.3979 46.1167 57.5866H46.6418C47.1933 57.6059 47.7432 57.516 48.2598 57.3221C48.7764 57.1282 49.2495 56.8342 49.6517 56.4569C50.054 56.0797 50.3774 55.6267 50.6035 55.124C50.8296 54.6213 50.9538 54.0789 50.969 53.5281V53.266L51.0143 53.2207Z" fill="#1A374D"/>
<path fill-rule="evenodd" clip-rule="evenodd" d="M41.4906 48.7197C40.7667 48.9061 40.128 49.3334 39.68 49.931C39.2296 50.5506 38.9946 51.3004 39.011 52.0658C39.0273 52.8313 39.2941 53.5704 39.7705 54.1703L31.5505 56.412V41.9495L41.5087 39.1836L41.4906 48.7197Z" fill="white"/>
<path fill-rule="evenodd" clip-rule="evenodd" d="M28.5089 56.411L20.2889 54.1693C20.7653 53.5694 21.0321 52.8303 21.0484 52.0649C21.0648 51.2994 20.8298 50.5496 20.3794 49.93C19.9315 49.3324 19.2928 48.9051 18.5688 48.7188V39.2188L28.527 41.9847L28.5089 56.411Z" fill="white"/>
<path fill-rule="evenodd" clip-rule="evenodd" d="M33.0083 26.6094L30.2381 29.4567L31.5417 33.9762H28.5995L29.8126 29.4567L26.9519 26.6094C28.8973 27.3781 31.0629 27.3781 33.0083 26.6094Z" fill="white"/>
</svg>
