<svg width="167" height="45" viewBox="0 0 167 45" fill="none" xmlns="http://www.w3.org/2000/svg">
<path d="M45.295 4.3125H1.79504C1.36301 4.3125 0.948624 4.48412 0.643127 4.78961C0.337631 5.09511 0.166016 5.50946 0.166016 5.9415V34.4495C0.166016 34.6634 0.208162 34.8751 0.290039 35.0727C0.371916 35.2703 0.491909 35.4498 0.643188 35.601C0.794468 35.7522 0.974058 35.8721 1.17169 35.9539C1.36933 36.0356 1.58117 36.0776 1.79504 36.0775H20.815V39.3055H16.155C15.4604 39.3055 14.7943 39.5814 14.3031 40.0726C13.8119 40.5637 13.536 41.2299 13.536 41.9245C13.536 42.6191 13.8119 43.2852 14.3031 43.7764C14.7943 44.2676 15.4604 44.5435 16.155 44.5435H30.9351C31.6297 44.5435 32.2958 44.2676 32.7869 43.7764C33.2781 43.2852 33.554 42.6191 33.554 41.9245C33.554 41.2299 33.2781 40.5637 32.7869 40.0726C32.2958 39.5814 31.6297 39.3055 30.9351 39.3055H26.274V36.0775H45.295C45.7269 36.0775 46.1411 35.906 46.4465 35.6007C46.752 35.2955 46.9237 34.8814 46.924 34.4495V5.9395C46.9235 5.50781 46.7517 5.09397 46.4462 4.78891C46.1408 4.48385 45.7267 4.3125 45.295 4.3125V4.3125ZM42.4611 31.6125H4.62506V8.77249H42.4561L42.4611 31.6125Z" fill="#1A374D"/>
<path d="M92.4341 7.23244C93.9665 5.39558 94.7227 3.03377 94.542 0.648438C92.2246 0.879576 90.0861 1.99703 88.573 3.76744C87.8116 4.63731 87.2298 5.64918 86.8609 6.74481C86.4921 7.84044 86.3437 8.99819 86.4241 10.1514C87.5838 10.1654 88.7307 9.90887 89.774 9.40218C90.8172 8.89548 91.7281 8.15257 92.4341 7.23244V7.23244Z" fill="#1A374D"/>
<path d="M97.5372 22.5593C97.5143 21.117 97.8493 19.6915 98.5121 18.4103C99.306 16.9013 100.477 15.6237 101.912 14.7023C101.081 13.4902 99.9776 12.4895 98.6903 11.7801C97.4031 11.0708 95.9678 10.6726 94.4991 10.6173C91.3481 10.2933 88.3481 12.5093 86.7481 12.5093C85.1481 12.5093 82.6771 10.6643 80.0611 10.7093C78.3338 10.764 76.6509 11.2703 75.1801 12.1777C73.7093 13.0851 72.5019 14.3621 71.6781 15.8813C71.1312 16.8577 70.7185 17.9035 70.4512 18.9903C68.9512 24.9733 71.3021 32.3313 74.2511 36.6613C75.9511 39.1663 77.9811 41.9823 80.6511 41.8803C83.2191 41.7803 84.1871 40.1903 87.2901 40.1903C90.3931 40.1903 91.2661 41.8803 93.9811 41.8283C96.7381 41.7773 98.4911 39.2773 100.181 36.7613C101.39 34.9485 102.335 32.9736 102.989 30.8953C101.367 30.1876 99.9876 29.0218 99.0191 27.541C98.0506 26.0601 97.5355 24.3287 97.5372 22.5593V22.5593Z" fill="#1A374D"/>
<path d="M165.039 19.5473L157.039 14.9473L150.348 21.7043L158.358 29.0793L165.066 25.2243C165.565 24.9358 165.979 24.5206 166.265 24.0208C166.552 23.5209 166.702 22.9542 166.699 22.3779C166.696 21.8017 166.541 21.2364 166.25 20.7393C165.958 20.2422 165.541 19.831 165.039 19.5473V19.5473Z" fill="#1A374D"/>
<path d="M148.483 19.9845L154.767 13.6375L148.711 10.1535L135.242 2.40554C134.385 1.90599 133.403 1.66353 132.412 1.70715C131.422 1.75077 130.464 2.07861 129.655 2.65153L148.483 19.9845Z" fill="#1A374D"/>
<path d="M128 4.57422C127.65 5.28739 127.471 6.07269 127.479 6.86722L127.558 22.3112L127.637 37.7552C127.639 38.6612 127.881 39.5506 128.337 40.3332L146.7 21.7872L128 4.57422Z" fill="#1A374D"/>
<path d="M148.564 23.5068L130.112 42.1469C130.908 42.6482 131.826 42.9224 132.766 42.9401C133.707 42.9577 134.635 42.718 135.449 42.2469L148.839 34.5468L156.058 30.3979L148.564 23.5068Z" fill="#1A374D"/>
</svg>
