<svg width="26" height="26" viewBox="0 0 26 26" fill="none" xmlns="http://www.w3.org/2000/svg">
<path d="M13.0003 2.16699C7.01708 2.16699 2.16699 7.01708 2.16699 13.0003C2.16699 18.9836 7.01708 23.8337 13.0003 23.8337C18.9836 23.8337 23.8337 18.9836 23.8337 13.0003C23.8337 7.01708 18.9836 2.16699 13.0003 2.16699Z" fill="url(#paint0_linear_5409_51415)"/>
<path d="M14.4663 15.8718H17.27L17.7104 13.0237H14.4663V11.4669C14.4663 10.2839 14.8531 9.23473 15.9597 9.23473H17.738V6.74957C17.4255 6.70732 16.7646 6.61523 15.5161 6.61523C12.9085 6.61523 11.3799 7.99215 11.3799 11.1295V13.0242H8.69922V15.8723H11.3794V23.7005C11.9102 23.7796 12.4481 23.8337 13.0001 23.8337C13.4989 23.8337 13.9859 23.7882 14.4663 23.7232V15.8718Z" fill="white"/>
<defs>
<linearGradient id="paint0_linear_5409_51415" x1="5.4132" y1="5.4132" x2="22.0001" y2="22.0001" gradientUnits="userSpaceOnUse">
<stop stop-color="#2AA4F4"/>
<stop offset="1" stop-color="#007AD9"/>
</linearGradient>
</defs>
</svg>
