<svg width="60" height="60" viewBox="0 0 60 60" fill="none" xmlns="http://www.w3.org/2000/svg">
<path d="M55 30C55 43.8071 43.8071 55 30 55C16.1929 55 5 43.8071 5 30C5 16.1929 16.1929 5 30 5" stroke="#1A374D" stroke-width="4" stroke-linecap="round" stroke-linejoin="round"/>
<path d="M37.5 23.75C37.5 19.6079 34.1421 16.25 30 16.25C25.8579 16.25 22.5 19.6079 22.5 23.75V38.75C22.5 42.8921 25.8579 46.25 30 46.25C34.1421 46.25 37.5 42.8921 37.5 38.75V23.75Z" fill="white" stroke="#1A374D" stroke-width="4" stroke-linecap="round" stroke-linejoin="round"/>
<path d="M22.5 31.25C20 31.25 16.25 33.897 16.25 38.75C16.25 43.603 16.25 48.509 16.25 50.9802" stroke="#1A374D" stroke-width="4" stroke-linecap="round" stroke-linejoin="round"/>
<path d="M37.5 31.25C40 31.25 43.75 33.897 43.75 38.75C43.75 43.603 43.75 48.1536 43.75 50.625" stroke="#1A374D" stroke-width="4" stroke-linecap="round" stroke-linejoin="round"/>
</svg>
