<svg width="238" height="46" viewBox="0 0 238 46" fill="none" xmlns="http://www.w3.org/2000/svg">
<path d="M92.4966 11.9345L84.468 34.0046H78.9502L82.9656 22.9691L75.8118 31.2426L74.6868 22.967L70.6694 34.0026H65.1558L73.1843 11.9324H78.7021L79.8292 20.2081L86.9798 11.9324L92.4966 11.9345Z" fill="white"/>
<path d="M102.01 34.0046H96.4923L97.7497 22.9691L90.9724 34.0046H85.4546L99.0093 11.9345H104.527L102.01 34.0046Z" fill="white"/>
<path d="M121.293 27.1064C119.907 30.9163 115.695 34.0046 111.885 34.0046H102.23L106.996 28.4868H113.894C114.306 28.4577 114.7 28.3125 115.032 28.0682C115.365 27.8238 115.621 27.4903 115.771 27.1064C115.849 26.9597 115.887 26.7948 115.881 26.6286C115.875 26.4625 115.825 26.3009 115.735 26.1606C115.646 26.0202 115.521 25.9061 115.373 25.8299C115.226 25.7537 115.06 25.7182 114.894 25.7269H112.135C108.326 25.7269 106.363 22.6385 107.749 18.8307C109.135 15.0229 113.348 11.9345 117.157 11.9345H126.813L122.046 17.4523H115.15C114.738 17.4813 114.344 17.6262 114.012 17.8704C113.679 18.1146 113.423 18.4479 113.273 18.8317C113.194 18.9784 113.156 19.1433 113.163 19.3095C113.169 19.4756 113.219 19.6372 113.309 19.7775C113.398 19.9179 113.523 20.032 113.67 20.1082C113.818 20.1844 113.984 20.2199 114.15 20.2112H116.908C120.716 20.2102 122.68 23.2985 121.293 27.1064Z" fill="white"/>
<path d="M143.621 11.9345L138.855 17.4523H136.095L130.066 34.0046H124.548L130.573 17.4523H125.061L127.07 11.9345H143.621Z" fill="white"/>
<path d="M143.776 28.4868H154.813L150.045 34.0046H136.251L144.28 11.9345H160.832L156.066 17.4523H147.789L146.785 20.2102H155.066L150.3 25.7279H144.878L143.776 28.4868Z" fill="white"/>
<path d="M169.504 26.9771L170.461 34.0046H164.942L164.191 28.4868H161.433L159.424 34.0046H153.904L161.938 11.9345H170.214C174.786 11.9345 177.141 15.6391 175.478 20.2102C174.333 23.0913 172.221 25.4838 169.504 26.9771V26.9771ZM169.962 20.2102C170.119 19.9169 170.195 19.5873 170.182 19.255C170.169 18.9228 170.069 18.6 169.89 18.3194C169.712 18.0389 169.462 17.8108 169.167 17.6584C168.871 17.5061 168.541 17.4349 168.209 17.4523H165.449L163.468 22.8971H166.227C167.04 22.8488 167.822 22.5707 168.483 22.095C169.145 21.6193 169.657 20.9657 169.961 20.2102H169.962Z" fill="white"/>
<path d="M196.88 34.0046H191.362L192.62 22.9691L185.843 34.0046H180.325L193.879 11.9345H199.397L196.88 34.0046Z" fill="white"/>
<path d="M219.434 20.21C217.766 24.7811 212.716 28.4867 208.145 28.4867H205.39L203.382 34.0045H197.864L205.893 11.9344H214.169C218.736 11.9344 221.097 15.639 219.434 20.21ZM213.916 20.21C214.073 19.9166 214.149 19.5868 214.136 19.2544C214.123 18.922 214.022 18.5989 213.844 18.3184C213.665 18.0378 213.415 17.8097 213.119 17.6575C212.823 17.5053 212.492 17.4344 212.16 17.4522H209.402L207.421 22.897H210.181C210.994 22.8483 211.777 22.5701 212.438 22.0944C213.099 21.6188 213.612 20.9654 213.916 20.21Z" fill="white"/>
<path d="M237.216 20.21C235.548 24.7811 230.499 28.4867 225.927 28.4867H223.169L221.16 34.0045H215.642L223.676 11.9344H231.951C236.524 11.9344 238.88 15.639 237.216 20.21ZM231.698 20.21C231.855 19.9167 231.93 19.5871 231.918 19.2549C231.905 18.9227 231.804 18.5998 231.626 18.3193C231.448 18.0388 231.198 17.8107 230.902 17.6583C230.607 17.506 230.276 17.4348 229.944 17.4522H227.184L225.203 22.897H227.963C228.776 22.8487 229.559 22.5706 230.22 22.0949C230.881 21.6192 231.394 20.9656 231.698 20.21V20.21Z" fill="white"/>
<path d="M40.749 34.1327V35.531L41.9606 36.2306L43.1722 35.531V34.1327L41.9596 33.4331L40.749 34.1327Z" fill="white"/>
<path d="M36.1926 2.62896e-06C32.5083 -0.00176666 28.8784 0.889542 25.614 2.59759C22.3495 4.30563 19.5477 6.77951 17.4486 9.80733C12.7403 9.93158 8.27023 11.9043 5.00519 15.2988C1.74015 18.6932 -0.0573856 23.2366 0.00139765 27.9461C0.0601809 32.6556 1.97055 37.1527 5.31931 40.4646C8.66806 43.7765 13.186 45.6371 17.8959 45.6438C18.0126 45.6438 18.1263 45.6375 18.241 45.6365V45.6438H36.0174C36.0758 45.6438 36.1342 45.6438 36.1936 45.6438C36.253 45.6438 36.3104 45.6438 36.3698 45.6438H36.5565C42.5653 45.5301 48.2868 43.0508 52.4786 38.7441C56.6705 34.4375 58.9944 28.6511 58.9458 22.6414C58.8972 16.6317 56.48 10.8837 52.219 6.64542C47.9581 2.40713 42.1973 0.0206744 36.1874 0.00417299L36.1926 2.62896e-06ZM15.7083 33.4185L10.7828 31.8545L20.7298 14.8236L25.6554 16.3876L15.7083 33.4185ZM19.4745 31.8545L29.4205 14.8236L34.346 16.3876L24.399 33.4185L19.4745 31.8545ZM45.2106 36.7081L41.9596 38.5849L38.7085 36.7081V32.9545L40.5999 31.8629V20.5583L33.0927 33.4185L28.1672 31.8545L38.1142 14.8236L43.0377 16.3876H43.3223V31.8618L45.2106 32.9535V36.7081Z" fill="white"/>
<path d="M92.4966 11.9345L84.468 34.0046H78.9502L82.9656 22.9691L75.8118 31.2426L74.6868 22.967L70.6694 34.0026H65.1558L73.1843 11.9324H78.7021L79.8292 20.2081L86.9798 11.9324L92.4966 11.9345Z" fill="white"/>
<path d="M102.01 34.0046H96.4923L97.7497 22.9691L90.9724 34.0046H85.4546L99.0093 11.9345H104.527L102.01 34.0046Z" fill="white"/>
<path d="M121.293 27.1064C119.907 30.9163 115.695 34.0046 111.885 34.0046H102.23L106.996 28.4868H113.894C114.306 28.4577 114.7 28.3125 115.032 28.0682C115.365 27.8238 115.621 27.4903 115.771 27.1064C115.849 26.9597 115.887 26.7948 115.881 26.6286C115.875 26.4625 115.825 26.3009 115.735 26.1606C115.646 26.0202 115.521 25.9061 115.373 25.8299C115.226 25.7537 115.06 25.7182 114.894 25.7269H112.135C108.326 25.7269 106.363 22.6385 107.749 18.8307C109.135 15.0229 113.348 11.9345 117.157 11.9345H126.813L122.046 17.4523H115.15C114.738 17.4813 114.344 17.6262 114.012 17.8704C113.679 18.1146 113.423 18.4479 113.273 18.8317C113.194 18.9784 113.156 19.1433 113.163 19.3095C113.169 19.4756 113.219 19.6372 113.309 19.7775C113.398 19.9179 113.523 20.032 113.67 20.1082C113.818 20.1844 113.984 20.2199 114.15 20.2112H116.908C120.716 20.2102 122.68 23.2985 121.293 27.1064Z" fill="white"/>
<path d="M143.621 11.9345L138.855 17.4523H136.095L130.066 34.0046H124.548L130.573 17.4523H125.061L127.07 11.9345H143.621Z" fill="white"/>
<path d="M143.776 28.4868H154.813L150.045 34.0046H136.251L144.28 11.9345H160.832L156.066 17.4523H147.789L146.785 20.2102H155.066L150.3 25.7279H144.878L143.776 28.4868Z" fill="white"/>
<path d="M169.504 26.9771L170.461 34.0046H164.942L164.191 28.4868H161.433L159.424 34.0046H153.904L161.938 11.9345H170.214C174.786 11.9345 177.141 15.6391 175.478 20.2102C174.333 23.0913 172.221 25.4838 169.504 26.9771V26.9771ZM169.962 20.2102C170.119 19.9169 170.195 19.5873 170.182 19.255C170.169 18.9228 170.069 18.6 169.89 18.3194C169.712 18.0389 169.462 17.8108 169.167 17.6584C168.871 17.5061 168.541 17.4349 168.209 17.4523H165.449L163.468 22.8971H166.227C167.04 22.8488 167.822 22.5707 168.483 22.095C169.145 21.6193 169.657 20.9657 169.961 20.2102H169.962Z" fill="white"/>
<path d="M196.878 34.0046H191.352L192.61 22.9691L185.833 34.0046H180.32L193.875 11.9345H199.393L196.878 34.0046Z" fill="white"/>
<path d="M219.424 20.21C217.756 24.7811 212.707 28.4867 208.136 28.4867H205.376L203.367 34.0045H197.85L205.878 11.9344H214.155C218.734 11.9344 221.088 15.639 219.424 20.21ZM213.907 20.21C214.063 19.9167 214.139 19.5871 214.126 19.2549C214.114 18.9227 214.013 18.5998 213.835 18.3193C213.656 18.0388 213.406 17.8107 213.111 17.6583C212.816 17.506 212.485 17.4348 212.153 17.4522H209.394L207.413 22.897H210.171C210.984 22.8488 211.767 22.5707 212.428 22.095C213.09 21.6193 213.602 20.9657 213.907 20.21Z" fill="white"/>
<path d="M237.208 20.21C235.54 24.7811 230.49 28.4867 225.919 28.4867H223.159L221.151 34.0045H215.633L223.662 11.9344H231.939C236.515 11.9344 238.868 15.639 237.208 20.21ZM231.69 20.21C231.847 19.9166 231.923 19.5868 231.91 19.2544C231.897 18.922 231.796 18.5989 231.618 18.3184C231.439 18.0378 231.189 17.8097 230.893 17.6575C230.598 17.5053 230.267 17.4344 229.935 17.4522H227.177L225.196 22.897H227.953C228.767 22.8487 229.55 22.5706 230.211 22.095C230.873 21.6193 231.386 20.9657 231.69 20.21V20.21Z" fill="white"/>
</svg>
