<svg width="48" height="47" viewBox="0 0 48 47" fill="none" xmlns="http://www.w3.org/2000/svg">
<path d="M23.7911 0.5C36.4715 0.5 46.7511 10.7795 46.7511 23.46C46.7511 36.1405 36.4715 46.42 23.7911 46.42C11.1106 46.42 0.831055 36.1405 0.831055 23.46C0.831055 10.7795 11.1106 0.5 23.7911 0.5Z" stroke="white"/>
<path d="M33.6968 15.6406H13.8861C12.7344 15.6406 11.8008 16.5743 11.8008 17.726V30.238C11.8008 31.3897 12.7344 32.3233 13.8861 32.3233H33.6968C34.8485 32.3233 35.7821 31.3897 35.7821 30.238V17.726C35.7821 16.5743 34.8485 15.6406 33.6968 15.6406Z" stroke="white" stroke-width="2"/>
<path d="M35.0583 15.7727L23.6932 26.2589L12.25 15.7727" stroke="white" stroke-width="2" stroke-linejoin="round"/>
</svg>
