<svg xmlns="http://www.w3.org/2000/svg" xmlns:xlink="http://www.w3.org/1999/xlink" width="48.049" height="48.049" viewBox="0 0 48.049 48.049"><defs><style>.a{fill:#fff;}.b{fill:url(#a);}</style><linearGradient id="a" y1="0.5" x2="1" y2="0.5" gradientUnits="objectBoundingBox"><stop offset="0" stop-color="#303032"/><stop offset="1" stop-color="#000918"/></linearGradient></defs><g transform="translate(-328.964 147.78)"><g transform="translate(328.964 -147.78)"><path class="a" d="M24.025,0h0A24.025,24.025,0,0,1,48.049,24.025v0A24.025,24.025,0,0,1,24.025,48.049h0A24.025,24.025,0,0,1,0,24.025v0A24.025,24.025,0,0,1,24.025,0Z"/></g><g transform="translate(341.202 -135.542)"><path class="b" d="M367.879-125.94H357.3a6.5,6.5,0,0,0-6.5,6.5v10.577a6.5,6.5,0,0,0,6.5,6.5h10.577a6.5,6.5,0,0,0,6.5-6.5v-10.577A6.5,6.5,0,0,0,367.879-125.94Zm4.593,17.048a4.621,4.621,0,0,1-4.621,4.621H357.329a4.62,4.62,0,0,1-4.62-4.621v-10.523a4.62,4.62,0,0,1,4.62-4.62h10.523a4.62,4.62,0,0,1,4.621,4.62Z" transform="translate(-350.804 125.94)"/><path class="b" d="M370.346-112.61a6.212,6.212,0,0,0-6.212,6.212,6.212,6.212,0,0,0,6.212,6.212,6.212,6.212,0,0,0,6.212-6.212A6.212,6.212,0,0,0,370.346-112.61Zm0,10.264a4.052,4.052,0,0,1-4.052-4.052,4.052,4.052,0,0,1,4.052-4.052A4.052,4.052,0,0,1,374.4-106.4,4.052,4.052,0,0,1,370.346-102.346Z" transform="translate(-358.56 118.184)"/><path class="b" d="M393.8-115.043a1.394,1.394,0,0,1-1.393,1.393,1.394,1.394,0,0,1-1.394-1.393,1.394,1.394,0,0,1,1.394-1.394A1.394,1.394,0,0,1,393.8-115.043Z" transform="translate(-374.2 120.411)"/></g></g></svg>