<svg xmlns="http://www.w3.org/2000/svg" width="48" height="48" viewBox="0 0 48 48"><defs><style>.a,.b{fill:#fff;}.b{opacity:0;}.c{fill:#060f33;}</style></defs><rect class="a" width="48" height="48" rx="24"/><g transform="translate(10.658 10.658)"><rect class="b" width="26.684" height="26.684"/><g transform="translate(1.111 4.447)"><path class="c" d="M24.782,6.024A3.091,3.091,0,0,0,22.626,3.8c-1.913-.467-9.562-.467-9.562-.467s-7.649,0-9.562.512A3.089,3.089,0,0,0,1.345,6.068,32.213,32.213,0,0,0,.833,11.95a32.2,32.2,0,0,0,.512,5.925A3.09,3.09,0,0,0,3.5,20.01c1.913.512,9.562.512,9.562.512s7.649,0,9.562-.512a3.089,3.089,0,0,0,2.156-2.223,32.2,32.2,0,0,0,.512-5.837A32.211,32.211,0,0,0,24.782,6.024Z" transform="translate(-0.833 -3.333)"/><path class="a" d="M8.125,14.338,14.518,10.7,8.125,7.067Z" transform="translate(1.604 -2.085)"/></g></g></svg>