<svg xmlns="http://www.w3.org/2000/svg" width="48" height="48" viewBox="0 0 48 48"><defs><style>.a{fill:#fff;}.b{fill:#060f33;fill-rule:evenodd;}</style></defs><g transform="translate(-1113.506 -2778.038)"><path class="a" d="M1137.506,2826.038h0a24,24,0,0,1-24-24h0a24,24,0,0,1,24-24h0a24,24,0,0,1,24,24h0A24,24,0,0,1,1137.506,2826.038Z"/><path class="b" d="M1150.664,2801.372a12.928,12.928,0,0,0-25.832-.235c-.006.187-.012.375-.012.562a12.728,12.728,0,0,0,1.852,6.626l-2.33,6.88,7.158-2.275a12.942,12.942,0,0,0,19.17-11.231C1150.67,2801.59,1150.67,2801.481,1150.664,2801.372Zm-12.919,11.11a10.816,10.816,0,0,1-5.978-1.785l-4.176,1.331,1.356-4.006a10.674,10.674,0,0,1-2.07-6.323,10.1,10.1,0,0,1,.055-1.047,10.872,10.872,0,0,1,21.644.206c.024.279.036.557.036.841A10.837,10.837,0,0,1,1137.745,2812.482Z"/><path class="b" d="M1143.669,2804.289c-.321-.157-1.876-.92-2.166-1.023s-.5-.157-.715.158-.822,1.022-1,1.228-.369.236-.69.079a8.57,8.57,0,0,1-2.547-1.562,9.378,9.378,0,0,1-1.761-2.172c-.181-.314-.018-.484.139-.641s.315-.369.478-.551c.043-.054.079-.1.115-.151a3.557,3.557,0,0,0,.2-.375.57.57,0,0,0-.024-.551c-.079-.157-.714-1.706-.981-2.336s-.526-.52-.714-.52-.393-.03-.6-.03a1.175,1.175,0,0,0-.847.393,3.523,3.523,0,0,0-1.107,2.626,4.021,4.021,0,0,0,.163,1.071,7.146,7.146,0,0,0,1.132,2.179,13.007,13.007,0,0,0,5.409,4.75c3.225,1.252,3.225.835,3.806.78a3.159,3.159,0,0,0,2.136-1.494,2.6,2.6,0,0,0,.188-1.495C1144.195,2804.525,1143.983,2804.446,1143.669,2804.289Z"/></g></svg>