<svg width="47" height="47" viewBox="0 0 47 47" fill="none" xmlns="http://www.w3.org/2000/svg">
<path d="M23.46 0.5C36.1405 0.5 46.42 10.7795 46.42 23.46C46.42 36.1405 36.1405 46.42 23.46 46.42C10.7795 46.42 0.5 36.1405 0.5 23.46C0.5 10.7795 10.7795 0.5 23.46 0.5Z" stroke="white"/>
<path d="M30.308 11.7779C30.3072 11.2262 29.8597 10.7793 29.308 10.7793H25.8747C25.8746 10.7793 25.8745 10.7793 25.8745 10.7793C24.9918 10.7792 24.1177 10.9529 23.3021 11.2905C22.4865 11.6282 21.7453 12.1232 21.121 12.7473C20.4967 13.3714 20.0014 14.1124 19.6634 14.9279C19.3255 15.7434 19.1514 16.6175 19.1513 17.5002V17.5004V19.9339H16.7178C16.1655 19.9339 15.7178 20.3816 15.7178 20.9339V25.5133C15.7178 26.0656 16.1655 26.5133 16.7178 26.5133H19.1513V34.6679C19.1513 35.2202 19.599 35.6679 20.1513 35.6679H24.7307C25.283 35.6679 25.7307 35.2202 25.7307 34.6679V26.5133H28.1642C28.6229 26.5133 29.0228 26.2012 29.1342 25.7563L30.2811 21.1769C30.356 20.8781 30.2889 20.5615 30.0994 20.3187C29.9099 20.0759 29.6191 19.9339 29.3111 19.9339H25.7338V17.5004C25.7338 17.4614 25.7493 17.4241 25.7768 17.3965C25.8044 17.369 25.8418 17.3535 25.8807 17.3535H29.3142C29.5797 17.3535 29.8342 17.2479 30.0218 17.0601C30.2094 16.8723 30.3146 16.6176 30.3142 16.3521L30.308 11.7779Z" stroke="white" stroke-width="2" stroke-linejoin="round"/>
</svg>
