<?xml version="1.0" encoding="utf-8"?>
<!-- Generator: Adobe Illustrator 25.0.0, SVG Export Plug-In . SVG Version: 6.00 Build 0)  -->
<svg version="1.1" id="圖層_1" xmlns="http://www.w3.org/2000/svg" xmlns:xlink="http://www.w3.org/1999/xlink" x="0px" y="0px"
	 viewBox="0 0 49 47" style="enable-background:new 0 0 49 47;" xml:space="preserve">
<style type="text/css">
	.st0{fill:none;stroke:#FFFFFF;}
	.st1{fill:none;stroke:#FFFFFF;stroke-width:2;stroke-miterlimit:10;}
	.st2{fill:#FFFFFF;}
</style>
<path class="st0" d="M23.8,0.5h1c12.7,0,23,10.3,23,23s-10.3,23-23,23h-1c-12.7,0-23-10.3-23-23S11.1,0.5,23.8,0.5z"/>
<g>
	<g>
		<path class="st1" d="M11.4,22.4c0-12.4,19-15.1,25-5.5C42,25.6,31.1,33,24.2,36.4c-1.3,0.4-0.4-1.8-0.5-2.4
			c0.2-1.2-0.9-1.3-1.8-1.5C16.8,31.7,11.7,27.8,11.4,22.4z"/>
		<path class="st2" d="M24.5,21.3c0,0.3,0,0.5,0,0.8c0,0.9,0,1.7,0,2.6c0,0.6-0.5,0.9-1,0.8c-0.3-0.1-0.5-0.4-0.5-0.8
			c0-1.2,0-2.4,0-3.6c0-0.6,0-1.2,0-1.8c0-0.5,0.2-0.7,0.5-0.9c0.3-0.1,0.6,0,0.9,0.4c0.9,1.2,1.8,2.4,2.6,3.6
			c0,0.1,0.1,0.1,0.2,0.2c0-0.2,0-0.3,0-0.4c0-1.1,0-2.1,0-3.2c0-0.4,0.3-0.7,0.7-0.7c0.4,0,0.8,0.3,0.8,0.8c0,1,0,1.9,0,2.9
			c0,0.9,0,1.8,0,2.7c0,0.4-0.2,0.7-0.5,0.8c-0.3,0.1-0.6,0-0.9-0.3c-0.9-1.2-1.8-2.4-2.6-3.6C24.7,21.5,24.6,21.4,24.5,21.3
			C24.6,21.3,24.5,21.3,24.5,21.3z"/>
		<path class="st2" d="M31.3,19.8c0,0.5,0,0.9,0,1.4c0.7,0,1.4,0,2.1,0c0.3,0,0.5,0.1,0.7,0.4c0.1,0.3,0.1,0.5-0.1,0.8
			c-0.1,0.2-0.3,0.3-0.6,0.3c-0.6,0-1.2,0-1.7,0c-0.1,0-0.2,0-0.3,0c0,0.5,0,0.9,0,1.4c0.7,0,1.3,0,2,0c0.3,0,0.5,0.1,0.7,0.3
			c0.3,0.4,0.1,1-0.4,1.1c-0.1,0-0.2,0-0.3,0c-0.9,0-1.7,0-2.6,0c-0.6,0-0.9-0.3-0.9-0.8c0-1.8,0-3.7,0-5.5c0-0.5,0.3-0.8,0.8-0.8
			c0.9,0,1.8,0,2.7,0c0.4,0,0.7,0.3,0.7,0.7c0,0.3-0.2,0.7-0.5,0.8c-0.1,0-0.2,0-0.3,0C32.6,19.8,32,19.8,31.3,19.8
			C31.3,19.8,31.3,19.8,31.3,19.8z"/>
		<path class="st2" d="M17,24c0.7,0,1.4,0,2,0c0.5,0,0.8,0.3,0.8,0.8c0,0.4-0.3,0.7-0.7,0.7c-0.9,0-1.9,0-2.8,0
			c-0.4,0-0.7-0.3-0.7-0.8c0-1.9,0-3.7,0-5.6c0-0.5,0.3-0.8,0.8-0.8c0.4,0,0.7,0.3,0.7,0.8c0,1.5,0,3,0,4.5C17,23.8,17,23.9,17,24z"
			/>
		<path class="st2" d="M22,22c0,0.9,0,1.8,0,2.7c0,0.6-0.4,0.9-0.9,0.8c-0.3-0.1-0.5-0.4-0.5-0.7c0-1.9,0-3.8,0-5.7
			c0-0.4,0.3-0.7,0.7-0.7c0.4,0,0.7,0.3,0.7,0.8C22,20.1,22,21,22,22z"/>
	</g>
</g>
</svg>
