<svg xmlns="http://www.w3.org/2000/svg" width="48" height="48" viewBox="0 0 48 48"><defs>
<style>.a{fill:#fff;}.b{fill:#060f33;}</style></defs><rect class="a" width="48" height="48" rx="24"/>
<g transform="translate(-115.671 -135.163)">
<path class="b" d="M171.709,182.112a13.663,13.663,0,0,1,9.944,4.409,9.627,9.627,0,0,1,.443,12.739A28.022,28.022,0,0,1,176.2,204.7c-1.384,1-2.834,1.916-4.268,2.848a4.054,4.054,0,0,1-1.035.467c-.533.16-.819-.074-.778-.628.036-.491.123-.98.2-1.467.2-1.234-.127-1.666-1.353-1.871a12.656,12.656,0,0,1-9.042-5.57c-2.846-4.392-1.818-9.871,2.444-13.3A14.174,14.174,0,0,1,171.709,182.112Zm2.116,11.757-.158.037c-.1-.132-.207-.26-.3-.4q-1.039-1.466-2.075-2.935c-.325-.462-.794-.288-1.2-.221-.111.019-.221.426-.223.655-.019,1.674,0,3.349-.02,5.022-.007.455.144.6.586.6.742-.011.743.009.744-.76q0-1.41,0-2.819l.148-.049c.107.143.217.284.319.429.681.963,1.372,1.918,2.034,2.894.327.482.785.267,1.193.262.091,0,.255-.267.256-.413q.026-2.711,0-5.422a.536.536,0,0,0-.211-.409c-.611-.3-1.1.018-1.1.7Q173.823,192.455,173.825,193.87Zm3.657-1.11c-.019-.174-.026-.284-.044-.391-.091-.541.115-.755.677-.7.49.045.991-.023,1.482.018.526.044.541-.261.531-.636s.078-.779-.539-.76c-.969.03-1.94.02-2.909,0-.406-.008-.573.116-.568.552.02,1.749.017,3.5,0,5.248,0,.386.109.547.515.538.988-.02,1.978-.031,2.966,0,.57.019.535-.325.533-.7s.04-.724-.54-.685c-.694.046-1.393.011-2.111.011V194.17c.737,0,1.437-.025,2.134.008.592.028.511-.361.514-.718s.062-.739-.523-.709C178.907,192.786,178.207,192.759,177.482,192.759Zm-14.812.681c0,.892.012,1.785-.006,2.677-.007.368.13.511.5.507,1.025-.012,2.051-.018,3.076,0,.658.012.443-.458.482-.8.046-.392-.069-.608-.523-.582-.53.031-1.064-.019-1.594.015-.466.03-.634-.123-.622-.6.029-1.2-.007-2.392.017-3.588.01-.5-.026-.812-.679-.8-.606.015-.673.287-.656.775C162.69,191.844,162.67,192.642,162.671,193.44Zm4.9.026c0,.873.03,1.748-.011,2.62-.027.577.318.535.692.538s.659.018.65-.518q-.043-2.648,0-5.3c.008-.533-.3-.515-.657-.518-.389,0-.709-.006-.683.555C167.6,191.718,167.572,192.593,167.572,193.466Z" transform="translate(-31.642 -35.986)"/>
<path class="a" d="M263.16,256.795q0-1.414,0-2.828c0-.683.486-1,1.1-.7a.536.536,0,0,1,.211.409q.021,2.711,0,5.422c0,.145-.165.412-.256.413-.408,0-.866.22-1.193-.262-.662-.975-1.354-1.931-2.034-2.894-.1-.145-.213-.286-.319-.429l-.148.049q0,1.41,0,2.819c0,.77,0,.749-.744.76-.442.007-.592-.14-.586-.6.025-1.674,0-3.348.02-5.022,0-.23.112-.637.223-.655.4-.067.871-.242,1.2.221q1.033,1.471,2.075,2.935c.1.135.2.264.3.4Z" transform="translate(-120.978 -98.911)"/>
<path class="a" d="M315.364,256.15c.725,0,1.424.027,2.12-.008.584-.03.526.344.523.709s.078.746-.514.718c-.7-.033-1.4-.008-2.134-.008v1.085c.718,0,1.417.035,2.111-.011.579-.038.538.311.54.685s.037.72-.533.7c-.988-.033-1.978-.023-2.966,0-.406.008-.519-.152-.515-.538.015-1.749.018-3.5,0-5.248-.005-.436.162-.559.568-.552.97.018,1.94.028,2.909,0,.617-.019.529.381.539.76s-.005.68-.531.636c-.491-.041-.991.028-1.482-.018-.562-.052-.768.162-.677.7C315.339,255.866,315.345,255.976,315.364,256.15Z" transform="translate(-169.525 -99.377)"/>
<path class="a" d="M196.249,256.721c0-.8.02-1.6-.008-2.392-.017-.488.05-.76.656-.775.653-.016.689.3.679.8-.024,1.2.012,2.393-.017,3.588-.012.482.156.634.622.6.529-.034,1.064.016,1.594-.015.454-.026.569.19.523.582-.039.338.175.808-.482.8-1.025-.019-2.05-.013-3.076,0-.367,0-.5-.139-.5-.507C196.261,258.506,196.25,257.613,196.249,256.721Z" transform="translate(-65.221 -99.267)"/>
<path class="a" d="M239.139,256.892c0-.873.03-1.748-.011-2.62-.026-.561.295-.558.683-.555.361,0,.665-.015.657.518q-.039,2.648,0,5.3c.009.535-.287.52-.65.518s-.719.039-.692-.538C239.169,258.64,239.139,257.765,239.139,256.892Z" transform="translate(-103.209 -99.412)"/>
</g></svg>