<svg width="49" height="48" viewBox="0 0 49 48" fill="none" xmlns="http://www.w3.org/2000/svg">
<path d="M24.6448 0.5C30.8042 0.500271 36.7112 2.94729 41.0665 7.30276C45.4218 11.6582 47.8686 17.5654 47.8686 23.7248C47.8683 29.8841 45.4214 35.791 41.0662 40.1462C36.7109 44.5015 30.804 46.9484 24.6447 46.9486C18.4853 46.9486 12.5782 44.5019 8.22268 40.1466C3.86721 35.7913 1.42019 29.8842 1.41992 23.7248C1.41992 17.5652 3.86682 11.6579 8.22232 7.3024C12.5778 2.9469 18.4851 0.5 24.6448 0.5Z" stroke="white"/>
<path d="M29.8526 12.1162H19.4353C18.5943 12.1157 17.7615 12.2809 16.9844 12.6024C16.2073 12.9239 15.5012 13.3954 14.9065 13.99C14.3117 14.5845 13.84 15.2905 13.5182 16.0675C13.1965 16.8444 13.031 17.6772 13.0313 18.5182V28.9355C13.0313 30.6328 13.7055 32.2607 14.9057 33.4609C16.106 34.6611 17.7338 35.3354 19.4311 35.3354H29.8484C31.5458 35.3354 33.1736 34.6611 34.3738 33.4609C35.5741 32.2607 36.2483 30.6328 36.2483 28.9355V18.5182C36.2489 16.8212 35.5754 15.1935 34.376 13.9929C33.1767 12.7924 31.5496 12.1173 29.8526 12.1162ZM34.3767 28.9032C34.3765 30.1099 33.897 31.2671 33.0437 32.1203C32.1904 32.9736 31.0332 33.4531 29.8265 33.4533H19.4624C18.2556 33.4533 17.0983 32.9739 16.2449 32.1206C15.3916 31.2673 14.9122 30.1099 14.9122 28.9032V18.539C14.9122 17.3323 15.3916 16.1749 16.2449 15.3216C17.0983 14.4682 18.2556 13.9888 19.4624 13.9888H29.8265C31.0333 13.9888 32.1907 14.4682 33.044 15.3216C33.8973 16.1749 34.3767 17.3323 34.3767 18.539V28.9032Z" fill="white"/>
<path d="M24.6413 17.6057C23.0186 17.6057 21.4624 18.2503 20.315 19.3977C19.1676 20.5452 18.5229 22.1014 18.5229 23.7241C18.5229 24.5276 18.6812 25.3232 18.9887 26.0655C19.2962 26.8078 19.7469 27.4823 20.315 28.0504C20.8831 28.6186 21.5576 29.0692 22.2999 29.3767C23.0423 29.6842 23.8379 29.8424 24.6413 29.8424C26.264 29.8424 27.8202 29.1978 28.9677 28.0504C30.1151 26.903 30.7597 25.3468 30.7597 23.7241C30.7597 22.1014 30.1151 20.5452 28.9677 19.3977C27.8202 18.2503 26.264 17.6057 24.6413 17.6057ZM24.6413 27.7196C23.583 27.7196 22.5681 27.2992 21.8198 26.5509C21.0715 25.8025 20.651 24.7876 20.651 23.7293C20.6504 23.2048 20.7531 22.6854 20.9533 22.2007C21.1535 21.716 21.4473 21.2755 21.8179 20.9044C22.1885 20.5333 22.6286 20.2389 23.1131 20.038C23.5976 19.8372 24.1169 19.7338 24.6413 19.7338C25.6996 19.7338 26.7146 20.1542 27.4629 20.9025C28.2112 21.6508 28.6316 22.6658 28.6316 23.7241C28.6316 24.7824 28.2112 25.7973 27.4629 26.5456C26.7146 27.294 25.6996 27.7144 24.6413 27.7144V27.7196Z" fill="white"/>
<path d="M32.3425 17.4035C32.3425 17.7674 32.198 18.1164 31.9406 18.3737C31.6833 18.631 31.3343 18.7756 30.9704 18.7756C30.7901 18.7757 30.6115 18.7404 30.4449 18.6715C30.2783 18.6026 30.127 18.5015 29.9994 18.3741C29.8719 18.2467 29.7707 18.0953 29.7017 17.9288C29.6327 17.7623 29.5972 17.5837 29.5972 17.4035C29.597 17.2231 29.6325 17.0445 29.7014 16.8778C29.7704 16.7111 29.8715 16.5597 29.9991 16.4322C30.1266 16.3046 30.2781 16.2035 30.4447 16.1345C30.6114 16.0656 30.79 16.0301 30.9704 16.0303C31.1507 16.0303 31.3292 16.0658 31.4957 16.1348C31.6623 16.2038 31.8136 16.305 31.941 16.4325C32.0684 16.5601 32.1695 16.7114 32.2384 16.878C32.3073 17.0446 32.3426 17.2232 32.3425 17.4035Z" fill="white"/>
</svg>
