<svg width="56" height="56" viewBox="0 0 56 56" fill="none" xmlns="http://www.w3.org/2000/svg">
<path d="M56 28C56 12.536 43.464 0 28 0C12.536 0 0 12.536 0 28C0 43.464 12.536 56 28 56C43.464 56 56 43.464 56 28Z" fill="#DCDFEE"/>
<path d="M30.7239 37.529H27.2539C27.0237 37.529 26.803 37.6205 26.6402 37.7833C26.4774 37.946 26.3859 38.1668 26.3859 38.397V40.132C26.3859 40.3622 26.4774 40.583 26.6402 40.7458C26.803 40.9086 27.0237 41 27.2539 41H30.7239C30.9542 41 31.1749 40.9086 31.3377 40.7458C31.5005 40.583 31.5919 40.3622 31.5919 40.132V38.397C31.5919 38.1668 31.5005 37.946 31.3377 37.7833C31.1749 37.6205 30.9542 37.529 30.7239 37.529ZM15.1069 23.648H17.7069V40.132C17.7069 40.246 17.7294 40.3589 17.773 40.4642C17.8166 40.5695 17.8806 40.6652 17.9612 40.7458C18.0418 40.8264 18.1375 40.8903 18.2428 40.934C18.3481 40.9776 18.461 41 18.5749 41H20.3129C20.4269 41 20.5398 40.9776 20.6451 40.934C20.7504 40.8903 20.8461 40.8264 20.9267 40.7458C21.0073 40.6652 21.0713 40.5695 21.1149 40.4642C21.1585 40.3589 21.1809 40.246 21.1809 40.132V23.648H23.7809C23.9524 23.6477 24.1199 23.5967 24.2624 23.5013C24.4048 23.4059 24.5159 23.2704 24.5814 23.112C24.647 22.9536 24.6642 22.7793 24.6308 22.6111C24.5974 22.4429 24.515 22.2884 24.3939 22.167L20.0589 16.961C19.8962 16.7984 19.6755 16.7071 19.4454 16.7071C19.2154 16.7071 18.9947 16.7984 18.8319 16.961L14.4939 22.167C14.3729 22.2884 14.2904 22.4429 14.2571 22.6111C14.2237 22.7793 14.2409 22.9536 14.3065 23.112C14.372 23.2704 14.4831 23.4059 14.6255 23.5013C14.768 23.5967 14.9355 23.6477 15.1069 23.648ZM37.6639 23.648H27.2539C27.0237 23.648 26.803 23.7395 26.6402 23.9023C26.4774 24.065 26.3859 24.2858 26.3859 24.516V26.251C26.3859 26.4812 26.4774 26.702 26.6402 26.8648C26.803 27.0276 27.0237 27.119 27.2539 27.119H37.6649C37.8952 27.119 38.1159 27.0276 38.2787 26.8648C38.4415 26.702 38.5329 26.4812 38.5329 26.251V24.515C38.5327 24.285 38.4411 24.0645 38.2784 23.9019C38.1156 23.7393 37.895 23.648 37.6649 23.648H37.6639ZM34.1939 30.589H27.2539C27.0237 30.589 26.803 30.6805 26.6402 30.8433C26.4774 31.006 26.3859 31.2268 26.3859 31.457V33.192C26.3859 33.4222 26.4774 33.643 26.6402 33.8058C26.803 33.9686 27.0237 34.06 27.2539 34.06H34.1949C34.4252 34.06 34.6459 33.9686 34.8087 33.8058C34.9715 33.643 35.0629 33.4222 35.0629 33.192V31.456C35.0629 31.342 35.0405 31.229 34.9968 31.1236C34.9531 31.0183 34.8891 30.9225 34.8084 30.8419C34.7277 30.7613 34.6318 30.6974 34.5264 30.6538C34.421 30.6103 34.308 30.5879 34.1939 30.588V30.589ZM41.1349 16.707H27.2539C27.0237 16.707 26.803 16.7985 26.6402 16.9613C26.4774 17.124 26.3859 17.3448 26.3859 17.575V19.307C26.3859 19.5372 26.4774 19.758 26.6402 19.9208C26.803 20.0836 27.0237 20.175 27.2539 20.175H41.1349C41.3652 20.175 41.5859 20.0836 41.7487 19.9208C41.9115 19.758 42.0029 19.5372 42.0029 19.307V17.575C42.0029 17.3448 41.9115 17.124 41.7487 16.9613C41.5859 16.7985 41.3652 16.707 41.1349 16.707Z" fill="#1A374D"/>
</svg>
