<svg width="56" height="56" viewBox="0 0 56 56" fill="none" xmlns="http://www.w3.org/2000/svg">
<path d="M56 28C56 12.536 43.464 0 28 0C12.536 0 0 12.536 0 28C0 43.464 12.536 56 28 56C43.464 56 56 43.464 56 28Z" fill="#DCDFEE"/>
<path d="M28.167 13.3008C26.2063 13.3006 24.2648 13.6868 22.4532 14.437C20.6417 15.1873 18.9957 16.2869 17.6093 17.6733C16.2228 19.0597 15.1229 20.7056 14.3726 22.5171C13.6222 24.3285 13.236 26.2701 13.236 28.2308C13.236 30.1916 13.6222 32.133 14.3726 33.9445C15.1229 35.7559 16.2228 37.4018 17.6093 38.7882C18.9957 40.1746 20.6417 41.2744 22.4532 42.0247C24.2648 42.7749 26.2063 43.1609 28.167 43.1608C32.1265 43.1605 35.9238 41.5875 38.7235 38.7876C41.5232 35.9877 43.0959 32.1903 43.0959 28.2308C43.0959 24.2713 41.5232 20.474 38.7235 17.6741C35.9238 14.8742 32.1265 13.301 28.167 13.3008ZM31.593 33.7878C30.9673 34.5298 30.0921 35.0177 29.132 35.1598V36.4088C29.1628 36.6222 29.1078 36.839 28.9788 37.0117C28.8497 37.1844 28.6573 37.2989 28.444 37.3298C28.3674 37.3408 28.2896 37.3408 28.213 37.3298C28.1051 37.3451 27.9953 37.3389 27.8898 37.3116C27.7843 37.2844 27.6852 37.2366 27.5981 37.171C27.5111 37.1054 27.4378 37.0233 27.3826 36.9294C27.3273 36.8355 27.2911 36.7317 27.276 36.6238C27.267 36.5524 27.267 36.4802 27.276 36.4088V35.2228C26.2402 35.1035 25.245 34.751 24.365 34.1918C24.2547 34.1243 24.1588 34.0359 24.0828 33.9314C24.0067 33.8269 23.952 33.7085 23.9218 33.5829C23.8915 33.4572 23.8863 33.3268 23.9064 33.1991C23.9265 33.0714 23.9715 32.949 24.0389 32.8387C24.0637 32.799 24.0912 32.761 24.121 32.7249C24.2013 32.5819 24.312 32.4581 24.4452 32.3624C24.5784 32.2667 24.7308 32.2013 24.892 32.1708C25.2344 32.1382 25.5766 32.2352 25.851 32.4427C26.4706 32.7927 27.1667 32.9856 27.8781 33.0048C29.1554 33.0048 29.7933 32.4518 29.792 31.3458C29.7834 31.0809 29.7147 30.8213 29.5912 30.5868C29.4677 30.3522 29.2926 30.1488 29.079 29.9918C28.5565 29.6097 28.001 29.275 27.4189 28.9918C27.2069 28.8918 27.043 28.8108 26.932 28.7478C26.2137 28.3947 25.5548 27.9318 24.979 27.3759C24.3903 26.7674 24.0666 25.9503 24.079 25.1038C24.047 24.1832 24.3505 23.2824 24.933 22.5688C25.5336 21.8726 26.3617 21.4119 27.27 21.2688V20.0228C27.257 19.9147 27.2655 19.805 27.2949 19.7001C27.3243 19.5952 27.3741 19.4971 27.4414 19.4115C27.5087 19.3259 27.5923 19.2544 27.6873 19.201C27.7822 19.1477 27.8868 19.1137 27.995 19.1008C28.0664 19.0918 28.1386 19.0918 28.21 19.1008C28.4233 19.0706 28.6399 19.1262 28.8123 19.2556C28.9846 19.385 29.0986 19.5775 29.129 19.7908C29.1398 19.8671 29.1398 19.9445 29.129 20.0208V21.2428C30.0125 21.3586 30.8448 21.7231 31.5291 22.2938C31.6247 22.3645 31.7055 22.4534 31.7668 22.5554C31.8281 22.6574 31.8687 22.7704 31.8862 22.8881C31.9038 23.0057 31.898 23.1258 31.8691 23.2412C31.8403 23.3566 31.7889 23.4652 31.718 23.5608C31.6744 23.6197 31.6236 23.6732 31.567 23.7198C31.4031 23.9466 31.1559 24.0989 30.8796 24.1433C30.6034 24.1878 30.3208 24.1207 30.094 23.9568C30.0426 23.92 29.9948 23.8784 29.951 23.8328C29.497 23.5634 28.979 23.4209 28.451 23.4198C27.2997 23.4198 26.724 23.9388 26.724 24.9768C26.7362 25.2154 26.8035 25.4478 26.9207 25.656C27.0378 25.8642 27.2015 26.0424 27.399 26.1768C27.8887 26.5213 28.4108 26.8171 28.958 27.0598C29.7943 27.4254 30.5757 27.9054 31.28 28.4858C31.6505 28.8229 31.9444 29.2355 32.1421 29.6957C32.3398 30.1559 32.4366 30.6531 32.426 31.1538C32.4647 32.1013 32.1675 33.032 31.587 33.7819L31.593 33.7878Z" fill="#1A374D"/>
</svg>
