<svg width="56" height="56" viewBox="0 0 56 56" fill="none" xmlns="http://www.w3.org/2000/svg">
<path d="M30.725 37.529H27.255C27.0248 37.529 26.8041 37.6205 26.6413 37.7833C26.4785 37.946 26.387 38.1668 26.387 38.397V40.132C26.387 40.3622 26.4785 40.583 26.6413 40.7458C26.8041 40.9086 27.0248 41 27.255 41H30.725C30.9553 41 31.176 40.9086 31.3388 40.7458C31.5016 40.583 31.593 40.3622 31.593 40.132V38.397C31.593 38.1668 31.5016 37.946 31.3388 37.7833C31.176 37.6205 30.9553 37.529 30.725 37.529ZM15.108 23.648H17.708V40.132C17.708 40.246 17.7305 40.3589 17.7741 40.4642C17.8177 40.5695 17.8817 40.6652 17.9623 40.7458C18.0429 40.8264 18.1386 40.8903 18.2439 40.934C18.3492 40.9776 18.4621 41 18.576 41H20.314C20.428 41 20.5409 40.9776 20.6462 40.934C20.7515 40.8903 20.8472 40.8264 20.9278 40.7458C21.0084 40.6652 21.0723 40.5695 21.116 40.4642C21.1596 40.3589 21.182 40.246 21.182 40.132V23.648H23.782C23.9535 23.6477 24.121 23.5967 24.2635 23.5013C24.4059 23.4059 24.517 23.2704 24.5825 23.112C24.6481 22.9536 24.6653 22.7793 24.6319 22.6111C24.5985 22.4429 24.5161 22.2884 24.395 22.167L20.06 16.961C19.8973 16.7984 19.6766 16.7071 19.4465 16.7071C19.2165 16.7071 18.9958 16.7984 18.833 16.961L14.495 22.167C14.374 22.2884 14.2915 22.4429 14.2582 22.6111C14.2248 22.7793 14.242 22.9536 14.3076 23.112C14.3731 23.2704 14.4842 23.4059 14.6266 23.5013C14.7691 23.5967 14.9366 23.6477 15.108 23.648ZM37.665 23.648H27.255C27.0248 23.648 26.8041 23.7395 26.6413 23.9023C26.4785 24.065 26.387 24.2858 26.387 24.516V26.251C26.387 26.4812 26.4785 26.702 26.6413 26.8648C26.8041 27.0276 27.0248 27.119 27.255 27.119H37.666C37.8963 27.119 38.117 27.0276 38.2798 26.8648C38.4426 26.702 38.534 26.4812 38.534 26.251V24.515C38.5338 24.285 38.4422 24.0645 38.2795 23.9019C38.1167 23.7393 37.8961 23.648 37.666 23.648H37.665ZM34.195 30.589H27.255C27.0248 30.589 26.8041 30.6805 26.6413 30.8433C26.4785 31.006 26.387 31.2268 26.387 31.457V33.192C26.387 33.4222 26.4785 33.643 26.6413 33.8058C26.8041 33.9686 27.0248 34.06 27.255 34.06H34.196C34.4262 34.06 34.647 33.9686 34.8098 33.8058C34.9726 33.643 35.064 33.4222 35.064 33.192V31.456C35.064 31.342 35.0416 31.229 34.9979 31.1236C34.9542 31.0183 34.8902 30.9225 34.8095 30.8419C34.7288 30.7613 34.6329 30.6974 34.5275 30.6538C34.4221 30.6103 34.3091 30.5879 34.195 30.588V30.589ZM41.136 16.707H27.255C27.0248 16.707 26.8041 16.7985 26.6413 16.9613C26.4785 17.124 26.387 17.3448 26.387 17.575V19.307C26.387 19.5372 26.4785 19.758 26.6413 19.9208C26.8041 20.0836 27.0248 20.175 27.255 20.175H41.136C41.3662 20.175 41.587 20.0836 41.7498 19.9208C41.9126 19.758 42.004 19.5372 42.004 19.307V17.575C42.004 17.3448 41.9126 17.124 41.7498 16.9613C41.587 16.7985 41.3662 16.707 41.136 16.707Z" fill="white"/>
<path d="M56 28C56 12.536 43.464 0 28 0C12.536 0 0 12.536 0 28C0 43.464 12.536 56 28 56C43.464 56 56 43.464 56 28Z" fill="#DCDFEE"/>
<path d="M36.357 38.7439L28.001 32.7749L19.644 38.7439V19.6439C19.6439 19.3302 19.7056 19.0196 19.8256 18.7299C19.9455 18.4401 20.1214 18.1768 20.3432 17.955C20.565 17.7332 20.8283 17.5573 21.118 17.4374C21.4078 17.3174 21.7184 17.2557 22.032 17.2559H33.969C34.2827 17.2557 34.5933 17.3174 34.883 17.4374C35.1728 17.5573 35.4361 17.7332 35.6579 17.955C35.8797 18.1768 36.0556 18.4401 36.1755 18.7299C36.2955 19.0196 36.3572 19.3302 36.357 19.6439V38.7439Z" fill="#1A374D" stroke="#1A374D" stroke-width="2" stroke-linecap="round" stroke-linejoin="round"/>
</svg>
