<svg width="56" height="56" viewBox="0 0 56 56" fill="none" xmlns="http://www.w3.org/2000/svg">
<path d="M56 28C56 12.536 43.464 0 28 0C12.536 0 0 12.536 0 28C0 43.464 12.536 56 28 56C43.464 56 56 43.464 56 28Z" fill="#DCDFEE"/>
<path d="M30.465 23.7652C29.8028 23.4057 29.0517 23.2433 28.3002 23.2972H26.7301V27.8352H28.389C30.269 27.8352 31.2094 27.0388 31.2101 25.4461C31.2374 25.1259 31.1833 24.804 31.0531 24.5101C30.9229 24.2163 30.7206 23.9601 30.465 23.7652Z" fill="#1A374D"/>
<path d="M28.1392 13.4609C24.1789 13.4609 20.3809 15.0342 17.5806 17.8345C14.7803 20.6348 13.207 24.4327 13.207 28.3929C13.207 30.3538 13.5933 32.2955 14.3438 34.1071C15.0942 35.9186 16.194 37.5647 17.5806 38.9512C18.9671 40.3377 20.6132 41.4375 22.4248 42.1877C24.2364 42.938 26.1783 43.3241 28.1392 43.324C32.0991 43.324 35.8967 41.7509 38.6968 38.9508C41.4969 36.1507 43.0701 32.3529 43.0701 28.3929C43.0702 26.4321 42.6841 24.4905 41.9338 22.6788C41.1835 20.8672 40.0837 19.2211 38.6973 17.8345C37.3108 16.4479 35.6646 15.3481 33.853 14.5977C32.0415 13.8472 30.1 13.4609 28.1392 13.4609ZM32.7742 29.401C31.5331 30.2811 30.0314 30.7172 28.512 30.639H26.4321V34.609C26.4835 34.9698 26.3895 35.3362 26.1709 35.6278C25.9523 35.9194 25.6269 36.1122 25.2661 36.1639C25.1374 36.1819 25.0069 36.1819 24.8782 36.1639C24.6996 36.1895 24.5178 36.1797 24.343 36.135C24.1683 36.0903 24.0039 36.0116 23.8596 35.9034C23.7153 35.7953 23.5939 35.6597 23.502 35.5045C23.41 35.3493 23.3495 35.1776 23.324 34.999C23.3052 34.8697 23.3052 34.7383 23.324 34.609V21.988C23.3141 21.8042 23.3426 21.6203 23.4077 21.4481C23.4728 21.2759 23.5731 21.1193 23.7021 20.988C23.8323 20.8612 23.9868 20.7623 24.1565 20.6973C24.3262 20.6323 24.5074 20.6026 24.689 20.61H28.428C32.4886 20.61 34.5187 22.2339 34.5181 25.4819C34.5619 26.227 34.4265 26.9718 34.123 27.6537C33.8196 28.3356 33.3571 28.9348 32.7742 29.401Z" fill="#1A374D"/>
</svg>
