<svg width="56" height="56" viewBox="0 0 56 56" fill="none" xmlns="http://www.w3.org/2000/svg">
<path d="M56 28C56 12.536 43.464 0 28 0C12.536 0 0 12.536 0 28C0 43.464 12.536 56 28 56C43.464 56 56 43.464 56 28Z" fill="#DCDFEE"/>
<path d="M14.795 28.0595C14.7913 25.7405 15.3829 23.4594 16.5132 21.4345C17.6435 19.4096 19.2746 17.7087 21.2504 16.4947C23.2262 15.2807 25.4806 14.5941 27.7977 14.5007C30.1148 14.4074 32.4171 14.9104 34.4842 15.9616C36.5512 17.0127 38.3139 18.5769 39.6034 20.5043C40.8929 22.4317 41.666 24.6578 41.8488 26.9696C42.0317 29.2814 41.6181 31.6014 40.6476 33.7076C39.6771 35.8137 38.1822 37.6355 36.306 38.9985C36.323 38.7985 36.3391 38.5876 36.3391 38.3576C36.3366 36.5381 35.7139 34.7738 34.5739 33.3558C33.4338 31.9378 31.8445 30.9507 30.0681 30.5575C31.2258 30.1501 32.2021 29.3464 32.8243 28.2885C33.4465 27.2305 33.6744 25.9867 33.4678 24.7769C33.2612 23.5671 32.6333 22.4693 31.6952 21.6779C30.7572 20.8864 29.5694 20.4523 28.342 20.4523C27.1147 20.4523 25.927 20.8864 24.9889 21.6779C24.0508 22.4693 23.4229 23.5671 23.2163 24.7769C23.0096 25.9867 23.2376 27.2305 23.8598 28.2885C24.482 29.3464 25.4583 30.1501 26.616 30.5575C24.8396 30.9507 23.2502 31.9378 22.1102 33.3558C20.9702 34.7738 20.3475 36.5381 20.345 38.3576C20.345 38.5876 20.362 38.7965 20.381 38.9985C18.6527 37.7454 17.2455 36.101 16.2747 34.1997C15.3038 32.2984 14.7967 30.1943 14.795 28.0595ZM43.2751 28.0595C43.278 25.3998 42.5703 22.7876 41.2252 20.4931C39.8802 18.1985 37.9466 16.3049 35.6244 15.0081C33.3022 13.7113 30.6758 13.0584 28.0167 13.1169C25.3576 13.1754 22.7624 13.9432 20.4995 15.3408C18.2366 16.7385 16.3882 18.7153 15.1453 21.0668C13.9025 23.4183 13.3104 26.059 13.4302 28.7161C13.5501 31.3731 14.3775 33.9499 15.8271 36.1799C17.2766 38.41 19.2955 40.2123 21.6751 41.4005C21.8428 41.5018 22.0196 41.5875 22.203 41.6565C24.1324 42.535 26.2276 42.9896 28.3475 42.9896C30.4674 42.9896 32.5627 42.535 34.492 41.6565C34.6755 41.5875 34.8523 41.5018 35.0201 41.4005C37.4994 40.1631 39.5851 38.2594 41.0432 35.903C42.5013 33.5465 43.2741 30.8306 43.2751 28.0595Z" fill="#1A374D" stroke="#1A374D"/>
</svg>
