<svg width="56" height="56" viewBox="0 0 56 56" fill="none" xmlns="http://www.w3.org/2000/svg">
<path d="M56 28C56 12.536 43.464 0 28 0C12.536 0 0 12.536 0 28C0 43.464 12.536 56 28 56C43.464 56 56 43.464 56 28Z" fill="#DCDFEE"/>
<path d="M35.042 16.2617H20.957C20.3348 16.2633 19.7385 16.5112 19.2985 16.9512C18.8585 17.3912 18.6106 17.9875 18.609 18.6097V37.3897C18.6106 38.012 18.8585 38.6083 19.2985 39.0483C19.7385 39.4882 20.3348 39.7361 20.957 39.7377H35.042C35.6643 39.7361 36.2606 39.4882 36.7005 39.0483C37.1405 38.6083 37.3884 38.012 37.39 37.3897V18.6097C37.3884 17.9875 37.1405 17.3912 36.7005 16.9512C36.2606 16.5112 35.6643 16.2633 35.042 16.2617ZM20.957 18.6097H26.826V27.9997L23.892 26.2387L20.957 27.9997V18.6097Z" fill="#1A374D"/>
</svg>
