<svg width="56" height="56" viewBox="0 0 56 56" fill="none" xmlns="http://www.w3.org/2000/svg">
<path d="M56 28C56 12.536 43.464 0 28 0C12.536 0 0 12.536 0 28C0 43.464 12.536 56 28 56C43.464 56 56 43.464 56 28Z" fill="#DCDFEE"/>
<path d="M23.101 33.3914C24.0027 33.392 24.8843 33.1252 25.6344 32.6247C26.3845 32.1242 26.9693 31.4125 27.3149 30.5796C27.6605 29.7467 27.7513 28.8301 27.5759 27.9456C27.4005 27.0611 26.9667 26.2485 26.3294 25.6105C25.6922 24.9725 24.88 24.5379 23.9957 24.3615C23.1114 24.1851 22.1946 24.2749 21.3614 24.6196C20.5281 24.9643 19.8158 25.5483 19.3145 26.2978C18.8131 27.0473 18.5454 27.9287 18.545 28.8304C18.5446 29.4288 18.6621 30.0214 18.8907 30.5744C19.1194 31.1274 19.4547 31.6299 19.8776 32.0533C20.3005 32.4766 20.8027 32.8125 21.3554 33.0418C21.9081 33.271 22.5006 33.3892 23.099 33.3894L23.101 33.3914ZM26.226 34.6914H25.89C25.0231 35.1201 24.069 35.3431 23.102 35.3431C22.1349 35.3431 21.1808 35.1201 20.314 34.6914H19.976C18.7331 34.693 17.5416 35.1875 16.6628 36.0663C15.784 36.9451 15.2896 38.1366 15.288 39.3794V40.5515C15.2885 41.0693 15.4944 41.5657 15.8606 41.9318C16.2267 42.298 16.7232 42.5039 17.241 42.5044H28.955C29.2115 42.5046 29.4655 42.4541 29.7025 42.356C29.9395 42.2579 30.1549 42.1141 30.3362 41.9327C30.5176 41.7513 30.6615 41.536 30.7596 41.299C30.8577 41.062 30.9081 40.808 30.908 40.5515V39.3794C30.9074 38.1378 30.4146 36.9471 29.5375 36.0683C28.6604 35.1895 27.4706 34.6943 26.229 34.6914H26.226ZM34.826 33.3914C35.5989 33.392 36.3547 33.1634 36.9977 32.7344C37.6408 32.3054 38.1421 31.6954 38.4384 30.9815C38.7348 30.2676 38.8127 29.4818 38.6624 28.7236C38.5121 27.9654 38.1403 27.2688 37.5941 26.7218C37.0479 26.1749 36.3517 25.8023 35.5937 25.651C34.8357 25.4997 34.0498 25.5767 33.3355 25.8721C32.6212 26.1675 32.0105 26.668 31.5807 27.3105C31.151 27.953 30.9214 28.7085 30.921 29.4814C30.9206 29.9945 31.0212 30.5026 31.2172 30.9768C31.4132 31.451 31.7007 31.8819 32.0632 32.245C32.4257 32.6081 32.8562 32.8962 33.33 33.0929C33.8039 33.2896 34.3119 33.3911 34.825 33.3914H34.826ZM36.779 34.6914H36.625C35.4646 35.1275 34.1854 35.1275 33.025 34.6914H32.87C32.0719 34.6981 31.2897 34.9146 30.602 35.3194C31.6383 36.4182 32.2182 37.87 32.224 39.3804V40.9434C32.224 41.0334 32.203 41.1194 32.198 41.2034H39.379C39.6355 41.2037 39.8896 41.1534 40.1266 41.0553C40.3637 40.9572 40.5791 40.8134 40.7605 40.632C40.9419 40.4506 41.0858 40.2352 41.1838 39.9981C41.2819 39.7611 41.3322 39.507 41.332 39.2504C41.3324 38.652 41.2149 38.0594 40.9862 37.5065C40.7575 36.9535 40.4222 36.451 39.9993 36.0276C39.5764 35.6043 39.0743 35.2684 38.5215 35.0391C37.9688 34.8098 37.3763 34.6917 36.778 34.6914H36.779Z" fill="#1A374D"/>
<path d="M24.1169 15.5511L27.5709 19.3511L33.2589 13.0801" stroke="#1A374D" stroke-width="3.2" stroke-linecap="round" stroke-linejoin="round"/>
</svg>
