<svg width="56" height="56" viewBox="0 0 56 56" fill="none" xmlns="http://www.w3.org/2000/svg">
<path d="M56 28C56 12.536 43.464 0 28 0C12.536 0 0 12.536 0 28C0 43.464 12.536 56 28 56C43.464 56 56 43.464 56 28Z" fill="#DCDFEE"/>
<path d="M31.2549 17.022C31.8012 17.022 32.3352 16.8601 32.7894 16.5566C33.2436 16.2531 33.5976 15.8217 33.8067 15.317C34.0157 14.8123 34.0704 14.257 33.9639 13.7212C33.8573 13.1854 33.5942 12.6933 33.208 12.307C32.8217 11.9207 32.3295 11.6577 31.7938 11.5511C31.258 11.4445 30.7026 11.4992 30.198 11.7083C29.6933 11.9173 29.2619 12.2714 28.9584 12.7256C28.6549 13.1798 28.4929 13.7138 28.4929 14.26C28.4932 14.9925 28.7843 15.6949 29.3022 16.2128C29.8201 16.7307 30.5225 17.0218 31.2549 17.022ZM43.6839 35.436C43.3177 35.436 42.9664 35.5815 42.7074 35.8405C42.4484 36.0995 42.3029 36.4508 42.3029 36.817C42.3019 37.1833 42.1558 37.5343 41.8966 37.7931C41.6374 38.0519 41.2862 38.1975 40.9199 38.198H36.9199L38.3899 27.932C38.787 27.7735 39.1164 27.4815 39.3214 27.1063C39.5264 26.7311 39.5942 26.2961 39.5131 25.8763C39.432 25.4565 39.207 25.0782 38.877 24.8063C38.547 24.5345 38.1325 24.3862 37.7049 24.387H35.1729L33.6729 21.326C33.3257 20.6115 32.8287 19.98 32.2156 19.4748C31.6025 18.9695 30.8877 18.6023 30.1199 18.398L26.0199 17.178C25.2205 16.9846 24.388 16.9725 23.5833 17.1428C22.7787 17.313 22.0224 17.6613 21.3699 18.162L19.0839 19.911C18.8915 20.0584 18.73 20.2423 18.6088 20.4522C18.4875 20.6621 18.4089 20.8938 18.3774 21.1342C18.3459 21.3745 18.3622 21.6187 18.4253 21.8527C18.4883 22.0868 18.5969 22.3061 18.7449 22.498C18.7849 22.55 18.8449 22.573 18.8829 22.619L15.7699 38.198H13.3009C12.9347 38.198 12.5834 38.3435 12.3244 38.6025C12.0654 38.8615 11.9199 39.2128 11.9199 39.579C11.9199 39.9453 12.0654 40.2966 12.3244 40.5556C12.5834 40.8146 12.9347 40.96 13.3009 40.96H40.9199C42.0183 40.9587 43.0713 40.5218 43.848 39.7451C44.6247 38.9685 45.0616 37.9154 45.0629 36.817C45.0619 36.4515 44.9163 36.1011 44.658 35.8424C44.3997 35.5837 44.0495 35.4376 43.6839 35.436ZM28.6939 38.198H23.1199L25.5999 32.962L24.3339 32.214C23.6596 31.8081 23.0799 31.2626 22.6339 30.614L19.0379 38.198H17.6459L20.6559 23.156C20.8997 23.0952 21.1286 22.9857 21.3289 22.834L23.6129 21.085C23.8156 20.9244 24.0508 20.8098 24.3023 20.7492C24.5537 20.6885 24.8153 20.6834 25.0689 20.734L25.9149 20.987L23.7569 26.016C23.4069 26.8389 23.3673 27.7609 23.6456 28.6107C23.9239 29.4605 24.501 30.1805 25.2699 30.637L30.1609 33.526L28.6939 38.198ZM35.0579 38.198H32.5489L33.9069 33.853C34.0714 33.2672 34.0389 32.6436 33.8143 32.078C33.5897 31.5125 33.1855 31.0364 32.6639 30.723L29.1419 28.646L30.9419 24.14L32.1099 26.522C32.3389 26.9848 32.6922 27.3747 33.1302 27.6481C33.5682 27.9215 34.0736 28.0676 34.5899 28.07H36.5059L35.0579 38.198Z" fill="#1A374D"/>
</svg>
