<svg width="111" height="111" viewBox="0 0 111 111" fill="none" xmlns="http://www.w3.org/2000/svg">
<circle cx="55.5" cy="55.5" r="55.5" fill="#1A374D"/>
<path d="M83.7028 47.3115C82.3435 43.0235 80.0267 39.1105 77.0079 35.8724C76.7837 35.6274 76.4811 35.4664 76.1511 35.4165C75.821 35.3665 75.4837 35.4308 75.1959 35.5984L70.0104 38.5633C67.8204 36.7187 65.3037 35.2743 62.5852 34.3262V28.1347C62.5852 27.4613 62.0818 26.8635 61.4272 26.7384C56.9477 25.7413 52.3654 25.7665 48.0861 26.7384C47.6722 27.0901 47.1853 27.7061 47.1853 28.1347V34.0913C44.4668 35.0386 41.9485 36.4836 39.7601 38.3284L34.5503 35.3635C33.9717 35.0145 33.2162 35.139 32.7387 35.6375C29.7173 38.8782 27.4018 42.7913 26.0682 47.0766C25.867 47.7494 26.144 48.4471 26.7228 48.7709L31.9083 51.7626C31.4055 54.5654 31.4055 57.4341 31.9083 60.2369L26.7228 63.2285C26.1185 63.5524 25.867 64.2506 26.0682 64.9234C27.4023 69.2114 29.7173 73.0976 32.7387 76.3625C33.2165 76.8615 33.9471 76.986 34.5503 76.6371L39.7601 73.6722C41.9495 75.5167 44.4668 76.9611 47.1853 77.9093V83.8659C47.1853 84.5392 47.6641 85.137 48.3182 85.2616C52.8247 86.2587 57.3799 86.2335 61.6592 85.2616C62.3138 85.137 62.8172 84.5392 62.8172 83.8659V77.9093C65.5358 76.9625 68.0541 75.517 70.2425 73.6722L75.4279 76.6371C76.0071 76.986 76.7872 76.8615 77.24 76.3625C80.2615 73.1217 82.577 69.2114 83.9349 64.9234C84.1362 64.2506 83.86 63.5524 83.2554 63.2285L78.0699 60.2369C78.5982 57.4363 78.5982 54.5632 78.0699 51.7626L83.2554 48.7709C83.8651 48.6774 84.1356 47.9811 83.7028 47.3115ZM55.0028 64.801C50.2231 64.801 46.3468 60.9629 46.3468 56.2303C46.3468 51.4977 50.2231 47.6597 55.0028 47.6597C59.7825 47.6597 63.6588 51.4977 63.6588 56.2303C63.6588 60.971 59.7906 64.801 55.0028 64.801Z" fill="white"/>
</svg>
