<svg width="111" height="111" viewBox="0 0 111 111" fill="none" xmlns="http://www.w3.org/2000/svg">
<circle cx="55.5" cy="55.5" r="55.5" fill="#1A374D"/>
<path d="M74.2 45.9375C78.618 45.9375 82.2 42.3695 82.2 37.9688C82.2 33.568 78.62 30 74.2 30C69.782 30 66.2 33.568 66.2 37.9688C66.2 42.3695 69.78 45.9375 74.2 45.9375ZM35.8 45.9375C40.218 45.9375 43.8 42.3695 43.8 37.9688C43.8 33.568 40.22 30 35.8 30C31.382 30 27.8 33.568 27.8 37.9688C27.8 42.3695 31.382 45.9375 35.8 45.9375ZM54.99 61.875C60.731 61.875 65.3 57.2372 65.3 51.5156C65.3 45.7941 60.646 41.1562 54.99 41.1562C49.249 41.1562 44.68 45.7941 44.68 51.5156C44.59 57.2332 49.25 61.875 54.99 61.875ZM59.8 69.8438C59.8 68.1813 60.1398 66.6104 60.6619 65.1263C60.43 65.1123 60.22 65.0625 59.99 65.0625H50.01C42.16 65.0625 35.8 71.0092 35.8 78.3404C35.8 79.8146 37.07 81 38.64 81H65.25C61.95 78.3703 59.8 74.376 59.8 69.8438ZM41.39 51.5156C41.39 50.9729 41.4882 50.4568 41.5509 49.9308C40.46 49.3342 39.26 49.125 37.99 49.125H31.808C26.944 49.125 23 53.2887 23 58.4186C23 59.4445 23.7887 60.2812 24.762 60.2812H44.712C42.67 57.9105 41.39 54.8725 41.39 51.5156ZM78.19 49.125H72.006C70.726 49.125 69.518 49.4275 68.42 49.9458C68.48 50.4697 68.58 50.9777 68.58 51.5156C68.58 53.6542 68.0175 55.6375 67.115 57.4264C69.22 56.2371 71.61 55.5 74.2 55.5C78.448 55.5 82.227 57.3667 84.86 60.2812H85.2356C86.21 60.2812 87 59.4445 87 58.4186C87 53.2887 83.06 49.125 78.19 49.125ZM84.81 66.5268C84.3075 64.932 83.451 63.4767 82.335 62.2724C82.2521 62.1813 82.1403 62.1214 82.0182 62.1029C81.8962 62.0843 81.7715 62.1082 81.6651 62.1705L79.7481 63.2732C78.9385 62.5872 78.0081 62.05 77.0031 61.6974V59.3947C77.0031 59.1443 76.817 58.922 76.575 58.8755C74.919 58.5046 73.225 58.514 71.643 58.8755C71.49 59.0062 71.31 59.2354 71.31 59.3947V61.61C70.305 61.9624 69.374 62.4998 68.565 63.1859L66.639 62.0832C66.4251 61.9534 66.1458 61.9997 65.9693 62.1851C64.8523 63.3904 63.9963 64.8456 63.5033 66.4394C63.4289 66.6896 63.5313 66.9491 63.7453 67.0695L65.6623 68.1822C65.4764 69.2246 65.4764 70.2914 65.6623 71.3338L63.7453 72.4464C63.5219 72.5669 63.4289 72.8266 63.5033 73.0768C63.9965 74.6715 64.8523 76.1168 65.9693 77.3311C66.1459 77.5167 66.416 77.563 66.639 77.4332L68.565 76.3305C69.3744 77.0165 70.305 77.5537 71.31 77.9063V80.1216C71.31 80.3721 71.487 80.5944 71.7288 80.6407C73.3948 81.0116 75.0788 81.0022 76.6608 80.6407C76.9028 80.5944 77.0889 80.3721 77.0889 80.1216V77.9063C78.0939 77.5542 79.0249 77.0166 79.8339 76.3305L81.7509 77.4332C81.965 77.563 82.2534 77.5167 82.4208 77.3311C83.5378 76.1258 84.3938 74.6715 84.8958 73.0768C84.9702 72.8266 84.8681 72.5669 84.6446 72.4464L82.7276 71.3338C82.9229 70.2923 82.9229 69.2237 82.7276 68.1822L84.6446 67.0695C84.87 67.0348 84.97 66.7758 84.81 66.5268ZM74.2 73.0312C72.433 73.0312 71 71.6038 71 69.8438C71 68.0837 72.433 66.6562 74.2 66.6562C75.967 66.6562 77.4 68.0837 77.4 69.8438C77.4 71.6068 75.97 73.0312 74.2 73.0312Z" fill="white"/>
</svg>
