<svg width="16" height="16" viewBox="0 0 16 16" fill="none" xmlns="http://www.w3.org/2000/svg">
<path d="M8.57015 0.23657C8.4958 0.161609 8.40734 0.102111 8.30988 0.0615077C8.21242 0.0209045 8.10789 0 8.00231 0C7.89673 0 7.7922 0.0209045 7.69474 0.0615077C7.59728 0.102111 7.50883 0.161609 7.43448 0.23657L0.23657 7.43448C0.161609 7.50883 0.102111 7.59729 0.0615076 7.69475C0.0209045 7.79221 0 7.89674 0 8.00232C0 8.1079 0.0209045 8.21243 0.0615076 8.30989C0.102111 8.40735 0.161609 8.49581 0.23657 8.57015C0.3113 8.64428 0.399927 8.70292 0.497369 8.74272C0.59481 8.78252 0.69915 8.8027 0.804405 8.80209H1.60417V14.4005C1.60417 14.8247 1.77269 15.2315 2.07266 15.5315C2.37264 15.8315 2.77948 16 3.20371 16H12.8009C13.2251 16 13.632 15.8315 13.932 15.5315C14.2319 15.2315 14.4005 14.8247 14.4005 14.4005V8.80209H15.2002C15.4123 8.80209 15.6158 8.71783 15.7657 8.56784C15.9157 8.41785 16 8.21443 16 8.00232C16.0006 7.89706 15.9804 7.79272 15.9406 7.69528C15.9008 7.59784 15.8422 7.50921 15.7681 7.43448L8.57015 0.23657ZM3.20371 14.4005V6.73069L8.00231 1.93208L12.8009 6.73069V14.4005H3.20371Z" fill="#1A374D"/>
</svg>
