<svg width="60" height="60" viewBox="0 0 60 60" fill="none" xmlns="http://www.w3.org/2000/svg">
<path d="M29.9996 17.3327L49.7276 34.6462C49.8739 34.7773 50.0607 34.8384 50.2214 34.9471V51.5625C50.2214 51.9438 50.0692 52.3094 49.7984 52.579C49.5275 52.8486 49.1601 53 48.777 53H11.2221C10.8391 53 10.4717 52.8486 10.2008 52.579C9.9299 52.3094 9.77772 51.9438 9.77772 51.5625V34.9507C9.93119 34.8465 10.1135 34.7872 10.2526 34.6632L29.9996 17.3327ZM21.3331 40.7815C21.3331 40.9721 21.4092 41.1549 21.5446 41.2897C21.68 41.4245 21.8637 41.5002 22.0553 41.5002H27.1107V46.5314C27.1107 46.722 27.1868 46.9048 27.3223 47.0396C27.4577 47.1744 27.6414 47.2501 27.8329 47.2501H32.1662C32.3577 47.2501 32.5414 47.1744 32.6769 47.0396C32.8123 46.9048 32.8884 46.722 32.8884 46.5314V41.5002H37.9439C38.1354 41.5002 38.3191 41.4245 38.4546 41.2897C38.59 41.1549 38.6661 40.9721 38.6661 40.7815V36.4691C38.6661 36.2785 38.59 36.0956 38.4546 35.9608C38.3191 35.8261 38.1354 35.7503 37.9439 35.7503H32.8884V30.7192C32.8884 30.5286 32.8123 30.3457 32.6769 30.211C32.5414 30.0762 32.3577 30.0004 32.1662 30.0004H27.8329C27.6414 30.0004 27.4577 30.0762 27.3223 30.211C27.1868 30.3457 27.1107 30.5286 27.1107 30.7192V35.7503H22.0553C21.8637 35.7503 21.68 35.8261 21.5446 35.9608C21.4092 36.0956 21.3331 36.2785 21.3331 36.4691V40.7815ZM4.47941 28.2288L27.5847 7.92447C28.246 7.32945 29.1058 7 29.9973 7C30.8889 7 31.7486 7.32945 32.4099 7.92447L55.5206 28.2288C55.6618 28.3549 55.7766 28.5075 55.8585 28.6779C55.9404 28.8482 55.9878 29.0329 55.9979 29.2215C56.0081 29.41 55.9808 29.5987 55.9176 29.7768C55.8545 29.9548 55.7567 30.1188 55.6299 30.2592L53.6971 32.3992C53.5703 32.5397 53.417 32.654 53.2458 32.7355C53.0746 32.817 52.889 32.8641 52.6996 32.8742C52.5101 32.8843 52.3205 32.8572 52.1416 32.7943C51.9627 32.7315 51.7979 32.6342 51.6568 32.5079L30.9547 14.3347C30.6908 14.103 30.351 13.9752 29.9991 13.9752C29.6472 13.9752 29.3074 14.103 29.0436 14.3347L8.34143 32.507C8.20031 32.6333 8.03559 32.7306 7.85667 32.7934C7.67775 32.8563 7.48814 32.8834 7.29868 32.8733C7.10921 32.8632 6.9236 32.8161 6.75245 32.7346C6.5813 32.6531 6.42796 32.5388 6.30119 32.3983L4.36928 30.2583C4.11353 29.9746 3.98145 29.6014 4.0021 29.2208C4.02275 28.8402 4.19444 28.4834 4.47941 28.2288Z" fill="#1A374D"/>
</svg>
