<svg width="33" height="24" viewBox="0 0 33 24" fill="none"
    xmlns="http://www.w3.org/2000/svg">
    <path d="M22.0469 17.9488V18.6851L22.7017 19.0519L23.3566 18.6851V17.9488L22.7017 17.582L22.0469 17.9488Z" fill="#FFAB37"/>
    <path d="M19.5858 0C15.5466 0 11.7653 1.92406 9.46179 5.15717C4.11872 5.27283 -0.117485 9.58364 -0.00158358 14.7859C0.114318 19.9177 4.42876 24.0141 9.69939 24C9.76313 24 9.82398 24 9.88483 23.9944V24H19.7799C26.5863 23.9464 32.0597 18.5297 32.0047 11.9027C31.9525 5.27848 26.3892 -0.0507817 19.5829 0.00282121L19.5858 0ZM8.52009 17.5705L5.86015 16.7495L11.2322 7.79499L13.8921 8.61596L8.52009 17.5705ZM10.5542 16.7495L15.9262 7.79499L18.5862 8.61596L13.2141 17.5705L10.5542 16.7495ZM24.4537 19.2999L22.6978 20.2873L20.9419 19.2999V17.325L21.9647 16.7495V10.8052L17.9081 17.5677L15.2482 16.7467L20.6202 7.79217L23.2802 8.61314H23.4337V16.7495L24.4566 17.325V19.2999H24.4537Z" fill="#FFAB37"/>
</svg>
