<svg width="16" height="16" viewBox="0 0 16 16" fill="none" xmlns="http://www.w3.org/2000/svg">
<mask id="mask0_3_442" style="mask-type:alpha" maskUnits="userSpaceOnUse" x="0" y="0" width="16" height="16">
<circle cx="8" cy="8" r="8" fill="#D9D9D9"/>
</mask>
<g mask="url(#mask0_3_442)">
<path fill-rule="evenodd" clip-rule="evenodd" d="M0 0.197266H24.6379V16.7204H0V0.197266Z" fill="#FE0000"/>
<path fill-rule="evenodd" clip-rule="evenodd" d="M-4.1543 -2.01685H8.16467V8.40896H-4.1543V-2.01685Z" fill="#000095"/>
<path d="M4.91406 3.01392L3.87109 6.9311L6.72107 4.0641L2.82703 5.1133L6.72107 6.16262L3.87109 3.2955L4.91406 7.2128L5.95703 3.2955L3.10706 6.16262L7.0011 5.1133L3.10706 4.0641L5.95703 6.9311L4.91406 3.01392Z" fill="white"/>
<path d="M4.91354 6.23295C5.52823 6.23295 6.02654 5.73167 6.02654 5.1133C6.02654 4.49494 5.52823 3.99365 4.91354 3.99365C4.29884 3.99365 3.80054 4.49494 3.80054 5.1133C3.80054 5.73167 4.29884 6.23295 4.91354 6.23295Z" fill="white"/>
<path d="M4.91301 6.33562C4.67251 6.33562 4.43744 6.26385 4.23747 6.12944C4.0375 5.99502 3.88163 5.80405 3.7896 5.58052C3.69756 5.357 3.67346 5.11098 3.72038 4.87369C3.7673 4.6364 3.88321 4.41849 4.05327 4.24741C4.22333 4.07634 4.43995 3.95986 4.67583 3.91266C4.91171 3.86546 5.15627 3.8897 5.37846 3.98229C5.60066 4.07487 5.7905 4.23155 5.92412 4.43272C6.05773 4.63388 6.12907 4.87047 6.12907 5.11241C6.12881 5.43676 6.00062 5.7477 5.77263 5.97704C5.54464 6.20639 5.23543 6.33535 4.91301 6.33562ZM4.91301 4.09637C4.71325 4.09637 4.51807 4.15591 4.35197 4.26755C4.18588 4.3792 4.05635 4.53785 3.9799 4.72351C3.90346 4.90916 3.88356 5.11352 3.92253 5.31061C3.9615 5.5077 4.05765 5.6887 4.1989 5.83079C4.34015 5.97289 4.52007 6.06973 4.71599 6.10893C4.91191 6.14814 5.11505 6.12799 5.29961 6.05109C5.48416 5.97419 5.64187 5.84401 5.75285 5.67692C5.86383 5.50984 5.92302 5.31337 5.92302 5.11241C5.92276 4.84303 5.81635 4.58477 5.627 4.39428C5.43764 4.2038 5.1808 4.09664 4.91301 4.09637Z" fill="#000095"/>
</g>
</svg>
