<svg width="23" height="23" viewBox="0 0 23 23" fill="none" xmlns="http://www.w3.org/2000/svg">
<path d="M1.15556 17.8179C0.946809 18.0679 0.845554 18.3904 0.873942 18.7148C0.90233 19.0393 1.05805 19.3393 1.30705 19.5493L5.07215 22.7086C5.32217 22.9174 5.64468 23.0186 5.96915 22.9902C6.29362 22.9618 6.59364 22.8061 6.80361 22.5571L7.5936 21.6157L1.94555 16.8764L1.15556 17.8179ZM18.985 2.30245C17.5825 1.1269 15.8416 0.429346 14.0155 0.311231C12.1893 0.193117 10.3731 0.660596 8.83091 1.64569C7.28871 2.63079 6.10094 4.08215 5.44033 5.78872C4.77971 7.49529 4.68069 9.36809 5.15765 11.1348L3.37263 13.2621C3.16388 13.5121 3.06262 13.8346 3.09101 14.1591C3.1194 14.4836 3.27512 14.7836 3.52411 14.9936L9.17139 19.7322C9.42141 19.941 9.74392 20.0422 10.0684 20.0138C10.3929 19.9854 10.6929 19.8297 10.9028 19.5807L12.6879 17.4534C14.5106 17.6163 16.3377 17.1936 17.9037 16.2467C19.4696 15.2998 20.6926 13.878 21.395 12.1882C22.0973 10.4984 22.2423 8.62856 21.8089 6.85066C21.3754 5.07276 20.3862 3.47946 18.985 2.30245ZM12.8991 15.0003L11.6256 14.8938L9.81042 17.0571L6.0476 13.8997L7.86284 11.7364L7.53682 10.5008C7.19196 9.23786 7.25951 7.89781 7.72963 6.67598C8.19974 5.45415 9.04785 4.41443 10.1503 3.70839C11.2527 3.00235 12.5519 2.66691 13.8583 2.75097C15.1648 2.83504 16.4102 3.33421 17.4131 4.17572C18.416 5.01722 19.1238 6.15707 19.4335 7.42907C19.7431 8.70108 19.6384 10.0387 19.1345 11.247C18.6306 12.4553 17.754 13.4711 16.6323 14.1462C15.5107 14.8214 14.2027 15.1206 12.8991 15.0003Z" fill="#203C62"/>
</svg>
