<svg width="302" height="29" viewBox="0 0 302 29" fill="none" xmlns="http://www.w3.org/2000/svg">
<rect x="0.240234" y="15.8213" width="2.96646" height="301.591" transform="rotate(-90 0.240234 15.8213)" fill="#AAB0BB"/>
<rect x="82.3125" y="15.8213" width="2.96646" height="133.491" transform="rotate(-90 82.3125 15.8213)" fill="#1A374D"/>
<circle cx="61.0528" cy="14.3379" r="14.3379" fill="#AAB0BB"/>
<circle cx="149.058" cy="14.3379" r="14.3379" fill="#1A374D"/>
<circle cx="237.063" cy="14.3379" r="14.3379" fill="#AAB0BB"/>
<circle cx="61.0529" cy="14.3378" r="12.3603" fill="white"/>
<circle cx="149.058" cy="14.3378" r="12.3603" fill="white"/>
<circle cx="237.063" cy="14.3378" r="12.3603" fill="white"/>
<path d="M60.0305 14.0703V15.793C60.0305 16.5404 59.9508 17.1852 59.7913 17.7275C59.6318 18.2653 59.4016 18.7074 59.1008 19.0537C58.8046 19.3955 58.4514 19.6484 58.0413 19.8125C57.6311 19.9766 57.1754 20.0586 56.6741 20.0586C56.273 20.0586 55.8993 20.0085 55.553 19.9082C55.2066 19.8034 54.8944 19.6416 54.6165 19.4229C54.343 19.2041 54.106 18.9284 53.9055 18.5957C53.7096 18.2585 53.5592 17.8574 53.4543 17.3926C53.3495 16.9277 53.2971 16.3945 53.2971 15.793V14.0703C53.2971 13.3229 53.3769 12.6826 53.5364 12.1494C53.7004 11.6117 53.9306 11.1719 54.2268 10.8301C54.5276 10.4883 54.8831 10.2376 55.2932 10.0781C55.7034 9.91406 56.1591 9.83203 56.6604 9.83203C57.0614 9.83203 57.4329 9.88444 57.7747 9.98926C58.121 10.0895 58.4332 10.2467 58.7112 10.4609C58.9892 10.6751 59.2262 10.9508 59.4221 11.2881C59.6181 11.6208 59.7685 12.0195 59.8733 12.4844C59.9781 12.9447 60.0305 13.4733 60.0305 14.0703ZM58.0549 16.0527V13.8037C58.0549 13.4437 58.0344 13.1292 57.9934 12.8604C57.9569 12.5915 57.9 12.3636 57.8225 12.1768C57.745 11.9854 57.6493 11.8304 57.5354 11.7119C57.4215 11.5934 57.2916 11.5068 57.1458 11.4521C56.9999 11.3975 56.8381 11.3701 56.6604 11.3701C56.4371 11.3701 56.2389 11.4134 56.0657 11.5C55.8971 11.5866 55.7535 11.7256 55.635 11.917C55.5165 12.1038 55.4254 12.3545 55.3616 12.6689C55.3023 12.9788 55.2727 13.3571 55.2727 13.8037V16.0527C55.2727 16.4128 55.2909 16.7295 55.3274 17.0029C55.3684 17.2764 55.4277 17.5111 55.5051 17.707C55.5872 17.8984 55.6829 18.0557 55.7922 18.1787C55.9062 18.2972 56.0361 18.3838 56.1819 18.4385C56.3323 18.4932 56.4963 18.5205 56.6741 18.5205C56.8928 18.5205 57.0865 18.4772 57.2551 18.3906C57.4283 18.2995 57.5741 18.1582 57.6926 17.9668C57.8157 17.7708 57.9068 17.5156 57.9661 17.2012C58.0253 16.8867 58.0549 16.5039 58.0549 16.0527ZM66.1692 9.94824V19.9219H64.2004V12.2178L61.8352 12.9697V11.418L65.9573 9.94824H66.1692Z" fill="#1A374D"/>
<path d="M148.036 14.0703V15.793C148.036 16.5404 147.956 17.1852 147.796 17.7275C147.637 18.2653 147.407 18.7074 147.106 19.0537C146.81 19.3955 146.457 19.6484 146.046 19.8125C145.636 19.9766 145.181 20.0586 144.679 20.0586C144.278 20.0586 143.904 20.0085 143.558 19.9082C143.212 19.8034 142.9 19.6416 142.622 19.4229C142.348 19.2041 142.111 18.9284 141.911 18.5957C141.715 18.2585 141.564 17.8574 141.459 17.3926C141.355 16.9277 141.302 16.3945 141.302 15.793V14.0703C141.302 13.3229 141.382 12.6826 141.542 12.1494C141.706 11.6117 141.936 11.1719 142.232 10.8301C142.533 10.4883 142.888 10.2376 143.298 10.0781C143.708 9.91406 144.164 9.83203 144.666 9.83203C145.067 9.83203 145.438 9.88444 145.78 9.98926C146.126 10.0895 146.438 10.2467 146.716 10.4609C146.994 10.6751 147.231 10.9508 147.427 11.2881C147.623 11.6208 147.774 12.0195 147.878 12.4844C147.983 12.9447 148.036 13.4733 148.036 14.0703ZM146.06 16.0527V13.8037C146.06 13.4437 146.04 13.1292 145.999 12.8604C145.962 12.5915 145.905 12.3636 145.828 12.1768C145.75 11.9854 145.654 11.8304 145.541 11.7119C145.427 11.5934 145.297 11.5068 145.151 11.4521C145.005 11.3975 144.843 11.3701 144.666 11.3701C144.442 11.3701 144.244 11.4134 144.071 11.5C143.902 11.5866 143.759 11.7256 143.64 11.917C143.522 12.1038 143.431 12.3545 143.367 12.6689C143.307 12.9788 143.278 13.3571 143.278 13.8037V16.0527C143.278 16.4128 143.296 16.7295 143.333 17.0029C143.374 17.2764 143.433 17.5111 143.51 17.707C143.592 17.8984 143.688 18.0557 143.797 18.1787C143.911 18.2972 144.041 18.3838 144.187 18.4385C144.337 18.4932 144.501 18.5205 144.679 18.5205C144.898 18.5205 145.092 18.4772 145.26 18.3906C145.433 18.2995 145.579 18.1582 145.698 17.9668C145.821 17.7708 145.912 17.5156 145.971 17.2012C146.03 16.8867 146.06 16.5039 146.06 16.0527ZM156.184 18.3838V19.9219H149.375V18.6094L152.595 15.1572C152.919 14.7972 153.174 14.4805 153.361 14.207C153.548 13.929 153.682 13.6807 153.764 13.4619C153.851 13.2386 153.894 13.0267 153.894 12.8262C153.894 12.5254 153.844 12.2679 153.744 12.0537C153.643 11.835 153.495 11.6663 153.299 11.5479C153.108 11.4294 152.871 11.3701 152.588 11.3701C152.288 11.3701 152.028 11.443 151.809 11.5889C151.595 11.7347 151.431 11.9375 151.317 12.1973C151.208 12.457 151.153 12.751 151.153 13.0791H149.177C149.177 12.4867 149.319 11.9443 149.601 11.4521C149.884 10.9554 150.282 10.5612 150.797 10.2695C151.312 9.97331 151.923 9.8252 152.629 9.8252C153.327 9.8252 153.915 9.93913 154.393 10.167C154.876 10.3903 155.241 10.7139 155.487 11.1377C155.737 11.557 155.863 12.0583 155.863 12.6416C155.863 12.9697 155.81 13.291 155.706 13.6055C155.601 13.9154 155.45 14.2253 155.254 14.5352C155.063 14.8405 154.831 15.1504 154.557 15.4648C154.284 15.7793 153.981 16.1051 153.648 16.4424L151.918 18.3838H156.184Z" fill="#1A374D"/>
<path d="M236.041 14.0703V15.793C236.041 16.5404 235.961 17.1852 235.802 17.7275C235.642 18.2653 235.412 18.7074 235.111 19.0537C234.815 19.3955 234.462 19.6484 234.052 19.8125C233.642 19.9766 233.186 20.0586 232.685 20.0586C232.284 20.0586 231.91 20.0085 231.563 19.9082C231.217 19.8034 230.905 19.6416 230.627 19.4229C230.354 19.2041 230.117 18.9284 229.916 18.5957C229.72 18.2585 229.57 17.8574 229.465 17.3926C229.36 16.9277 229.308 16.3945 229.308 15.793V14.0703C229.308 13.3229 229.387 12.6826 229.547 12.1494C229.711 11.6117 229.941 11.1719 230.237 10.8301C230.538 10.4883 230.894 10.2376 231.304 10.0781C231.714 9.91406 232.17 9.83203 232.671 9.83203C233.072 9.83203 233.443 9.88444 233.785 9.98926C234.132 10.0895 234.444 10.2467 234.722 10.4609C235 10.6751 235.237 10.9508 235.433 11.2881C235.629 11.6208 235.779 12.0195 235.884 12.4844C235.989 12.9447 236.041 13.4733 236.041 14.0703ZM234.065 16.0527V13.8037C234.065 13.4437 234.045 13.1292 234.004 12.8604C233.967 12.5915 233.91 12.3636 233.833 12.1768C233.756 11.9854 233.66 11.8304 233.546 11.7119C233.432 11.5934 233.302 11.5068 233.156 11.4521C233.01 11.3975 232.849 11.3701 232.671 11.3701C232.448 11.3701 232.249 11.4134 232.076 11.5C231.908 11.5866 231.764 11.7256 231.646 11.917C231.527 12.1038 231.436 12.3545 231.372 12.6689C231.313 12.9788 231.283 13.3571 231.283 13.8037V16.0527C231.283 16.4128 231.301 16.7295 231.338 17.0029C231.379 17.2764 231.438 17.5111 231.516 17.707C231.598 17.8984 231.693 18.0557 231.803 18.1787C231.917 18.2972 232.047 18.3838 232.192 18.4385C232.343 18.4932 232.507 18.5205 232.685 18.5205C232.903 18.5205 233.097 18.4772 233.266 18.3906C233.439 18.2995 233.585 18.1582 233.703 17.9668C233.826 17.7708 233.917 17.5156 233.977 17.2012C234.036 16.8867 234.065 16.5039 234.065 16.0527ZM239.397 14.0908H240.45C240.787 14.0908 241.065 14.0339 241.284 13.9199C241.503 13.8014 241.665 13.6374 241.77 13.4277C241.879 13.2135 241.934 12.9652 241.934 12.6826C241.934 12.4274 241.883 12.2018 241.783 12.0059C241.688 11.8053 241.539 11.6504 241.339 11.541C241.138 11.4271 240.885 11.3701 240.58 11.3701C240.339 11.3701 240.115 11.418 239.91 11.5137C239.705 11.6094 239.541 11.7438 239.418 11.917C239.295 12.0902 239.233 12.2998 239.233 12.5459H237.258C237.258 11.999 237.404 11.5228 237.695 11.1172C237.992 10.7116 238.388 10.3949 238.885 10.167C239.382 9.93913 239.928 9.8252 240.525 9.8252C241.2 9.8252 241.79 9.93457 242.296 10.1533C242.802 10.3675 243.196 10.6842 243.479 11.1035C243.761 11.5228 243.902 12.0423 243.902 12.6621C243.902 12.9766 243.829 13.2819 243.684 13.5781C243.538 13.8698 243.328 14.1341 243.055 14.3711C242.786 14.6035 242.458 14.7904 242.07 14.9316C241.683 15.0684 241.248 15.1367 240.765 15.1367H239.397V14.0908ZM239.397 15.5879V14.5693H240.765C241.307 14.5693 241.783 14.6309 242.193 14.7539C242.604 14.877 242.948 15.0547 243.226 15.2871C243.504 15.515 243.713 15.7861 243.854 16.1006C243.996 16.4105 244.066 16.7546 244.066 17.1328C244.066 17.5977 243.978 18.0124 243.8 18.377C243.622 18.737 243.371 19.0423 243.048 19.293C242.729 19.5436 242.355 19.735 241.927 19.8672C241.498 19.9948 241.031 20.0586 240.525 20.0586C240.106 20.0586 239.694 20.0016 239.288 19.8877C238.887 19.7692 238.522 19.5938 238.194 19.3613C237.871 19.1243 237.611 18.8281 237.415 18.4727C237.224 18.1126 237.128 17.6865 237.128 17.1943H239.104C239.104 17.4495 239.167 17.6774 239.295 17.8779C239.423 18.0785 239.598 18.2357 239.821 18.3496C240.049 18.4635 240.302 18.5205 240.58 18.5205C240.895 18.5205 241.163 18.4635 241.387 18.3496C241.615 18.2311 241.788 18.0671 241.906 17.8574C242.029 17.6432 242.091 17.3949 242.091 17.1123C242.091 16.7477 242.025 16.4561 241.893 16.2373C241.76 16.014 241.571 15.8499 241.325 15.7451C241.079 15.6403 240.787 15.5879 240.45 15.5879H239.397Z" fill="#1A374D"/>
</svg>
