<svg width="160" height="31" viewBox="0 0 160 31" fill="none" xmlns="http://www.w3.org/2000/svg">
<g clip-path="url(#clip0_3_420)">
<path d="M62.1996 10.5601L56.7996 25.4001H53.0896L55.7896 17.9801L50.9796 23.5501L50.2195 17.9801L47.5196 25.4001H43.8096L49.2096 10.5601H52.8896L53.6496 16.1301L58.4596 10.5601H62.1996Z" fill="#1A374D"/>
<path d="M68.5997 25.4001H64.8897L65.7397 17.9801L61.1797 25.4001H57.4697L66.5797 10.5601H70.2897L68.5997 25.4001Z" fill="#1A374D"/>
<path d="M81.57 20.76C81.0632 22.0539 80.1991 23.1771 79.0783 23.9986C77.9576 24.8202 76.6264 25.3062 75.24 25.4H68.75L71.96 21.69H76.6C76.8774 21.669 77.1434 21.5708 77.3679 21.4064C77.5923 21.2421 77.7663 21.0182 77.87 20.76C77.9237 20.6614 77.95 20.5501 77.9463 20.4378C77.9425 20.3256 77.9088 20.2163 77.8486 20.1215C77.7884 20.0266 77.7039 19.9496 77.604 19.8983C77.504 19.8471 77.3922 19.8235 77.28 19.83H75.42C72.86 19.83 71.54 17.75 72.47 15.19C72.9768 13.8961 73.8409 12.773 74.9617 11.9514C76.0824 11.1299 77.4136 10.6439 78.8 10.55H85.29L82.08 14.26H77.44C77.1633 14.2794 76.8979 14.3771 76.6748 14.5418C76.4516 14.7065 76.28 14.9314 76.18 15.19C76.1263 15.2887 76.1 15.4 76.1038 15.5122C76.1076 15.6245 76.1413 15.7337 76.2014 15.8286C76.2616 15.9234 76.3461 16.0005 76.446 16.0517C76.546 16.103 76.6579 16.1266 76.77 16.12H78.62C81.18 16.13 82.5 18.2 81.57 20.76Z" fill="#1A374D"/>
<path d="M96.58 10.5601L93.37 14.2701H91.51L87.46 25.4001H83.75L87.8 14.2701H84.09L85.44 10.5601H96.58Z" fill="#1A374D"/>
<path d="M96.6901 21.6901H104.11L100.9 25.4001H91.6201L97.0201 10.5601H108.15L104.94 14.2701H99.3701L98.6901 16.1201H104.26L101.05 19.8301H97.4001L96.6901 21.6901Z" fill="#1A374D"/>
<path d="M113.98 20.6801L114.62 25.4101H110.89L110.39 21.7001H108.53L107.18 25.4101H103.47L108.87 10.5701H114.44C117.51 10.5701 119.1 13.0601 117.98 16.1401C117.21 18.0697 115.797 19.6737 113.98 20.6801V20.6801ZM114.29 16.1301C114.395 15.933 114.445 15.7116 114.436 15.4886C114.428 15.2655 114.36 15.0489 114.24 14.8607C114.12 14.6725 113.952 14.5196 113.753 14.4175C113.555 14.3155 113.333 14.2681 113.11 14.2801H111.25L109.92 17.9401H111.77C112.318 17.9068 112.845 17.7192 113.291 17.3989C113.737 17.0786 114.083 16.6388 114.29 16.1301V16.1301Z" fill="#1A374D"/>
<path d="M132.39 25.4001H128.68L129.53 17.9801L124.97 25.4001H121.26L130.37 10.5601H134.08L132.39 25.4001Z" fill="#1A374D"/>
<path d="M147.56 16.1301C146.95 17.6806 145.914 19.0267 144.57 20.0125C143.227 20.9982 141.632 21.5834 139.97 21.7001H138.11L136.76 25.4101H133.05L138.45 10.5701H144.02C147.09 10.5601 148.68 13.0701 147.56 16.1301ZM143.85 16.1301C143.955 15.933 144.005 15.7117 143.997 15.4886C143.988 15.2656 143.92 15.0489 143.8 14.8607C143.68 14.6725 143.512 14.5196 143.314 14.4176C143.115 14.3156 142.893 14.2681 142.67 14.2801H140.81L139.48 17.9401H141.34C141.892 17.9088 142.425 17.7224 142.876 17.4023C143.327 17.0821 143.678 16.6411 143.89 16.1301H143.85Z" fill="#1A374D"/>
<path d="M159.51 16.1301C158.9 17.6806 157.864 19.0267 156.52 20.0125C155.177 20.9982 153.582 21.5834 151.92 21.7001H150.06L148.71 25.4101H145L150.4 10.5701H155.97C159.05 10.5601 160.63 13.0701 159.51 16.1301ZM155.8 16.1301C155.905 15.933 155.955 15.7117 155.947 15.4886C155.938 15.2656 155.87 15.0489 155.75 14.8607C155.63 14.6725 155.462 14.5196 155.264 14.4176C155.065 14.3156 154.843 14.2681 154.62 14.2801H152.77L151.44 17.9401H153.3C153.845 17.9032 154.368 17.7139 154.81 17.3939C155.252 17.0738 155.595 16.6359 155.8 16.1301V16.1301Z" fill="#1A374D"/>
<path d="M27.4099 22.95V23.89L28.2199 24.36L29.0399 23.89V22.95L28.2199 22.48L27.4099 22.95Z" fill="#1A374D"/>
<path d="M24.35 9.88417e-07C21.8737 -0.000888169 19.434 0.598134 17.2397 1.74579C15.0454 2.89345 13.1618 4.55557 11.75 6.59C8.61093 6.65541 5.62255 7.94851 3.4259 10.1919C1.22925 12.4353 -0.000681159 15.4502 2.83012e-07 18.59C2.83012e-07 21.7859 1.26958 24.8508 3.52939 27.1107C5.7892 29.3705 8.85416 30.64 12.05 30.64H24.6C28.6267 30.577 32.4671 28.9331 35.2922 26.0631C38.1173 23.193 39.7005 19.3272 39.7 15.3C39.6841 11.2384 38.0602 7.34845 35.1836 4.48114C32.3069 1.61383 28.4116 0.00261429 24.35 9.88417e-07ZM10.57 22.47L7.26001 21.47L13.95 10.02L17.26 11.07L10.57 22.47ZM13.1 21.47L19.79 10.02L23.1 11.07L16.41 22.52L13.1 21.47ZM30.41 24.73L28.22 25.99L26.03 24.73V22.21L27.3 21.48V13.88L22.25 22.53L18.94 21.48L25.63 10.03L28.94 11.03H29.13V21.44L30.4 22.17V24.68L30.41 24.73Z" fill="#1A374D"/>
</g>
<defs>
<clipPath id="clip0_3_420">
<rect width="159.87" height="30.68" fill="white"/>
</clipPath>
</defs>
</svg>
