<svg width="119" height="119" viewBox="0 0 119 119" fill="none" xmlns="http://www.w3.org/2000/svg">
<g filter="url(#filter0_d_0_1)">
<path d="M115 55.5C115 86.1518 90.1518 111 59.5 111C28.8482 111 4 86.1518 4 55.5C4 24.8482 28.8482 0 59.5 0C90.1518 0 115 24.8482 115 55.5Z" fill="#1A374D"/>
</g>
<path d="M89.2105 42.5244V38.0408C89.2093 37.7643 89.0987 37.4996 88.9028 37.3045C88.7069 37.1095 88.4417 37 88.1653 37H44.2512C43.9748 37 43.7096 37.1095 43.5137 37.3045C43.3178 37.4996 43.2072 37.7643 43.2061 38.0408V42.52L89.2105 42.5244Z" fill="white" stroke="white" stroke-miterlimit="10"/>
<path d="M43.2061 45.353V75.5923C43.2072 75.8687 43.3178 76.1334 43.5137 76.3285C43.7096 76.5235 43.9748 76.633 44.2512 76.633H88.1653C88.4418 76.633 88.7069 76.5235 88.9028 76.3285C89.0987 76.1334 89.2093 75.8687 89.2105 75.5923V45.353H43.2061Z" fill="#1A374D" stroke="white" stroke-miterlimit="10"/>
<path d="M45.942 41.5325C46.4125 41.5325 46.794 41.1511 46.794 40.6805C46.794 40.21 46.4125 39.8286 45.942 39.8286C45.4715 39.8286 45.0901 40.21 45.0901 40.6805C45.0901 41.1511 45.4715 41.5325 45.942 41.5325Z" fill="#1A374D"/>
<path d="M48.6207 41.5325C49.0912 41.5325 49.4727 41.1511 49.4727 40.6805C49.4727 40.21 49.0912 39.8286 48.6207 39.8286C48.1502 39.8286 47.7688 40.21 47.7688 40.6805C47.7688 41.1511 48.1502 41.5325 48.6207 41.5325Z" fill="#1A374D"/>
<path d="M51.3041 41.5325C51.7746 41.5325 52.156 41.1511 52.156 40.6805C52.156 40.21 51.7746 39.8286 51.3041 39.8286C50.8336 39.8286 50.4521 40.21 50.4521 40.6805C50.4521 41.1511 50.8336 41.5325 51.3041 41.5325Z" fill="#1A374D"/>
<path d="M55.8139 37.6328H29.9749V74.2001H55.8139V37.6328Z" fill="#1A374D"/>
<path d="M31.9116 33.7291H53.39C54.0329 33.7291 54.6494 33.9845 55.104 34.4391C55.5586 34.8937 55.814 35.5103 55.814 36.1532V37.3828H29.4656V36.1532C29.4656 35.833 29.529 35.516 29.6522 35.2204C29.7754 34.9249 29.9559 34.6567 30.1833 34.4313C30.4107 34.2059 30.6806 34.0278 30.9772 33.9073C31.2739 33.7868 31.5914 33.7262 31.9116 33.7291Z" fill="white"/>
<path d="M29.4873 74.4414H55.8358V75.671C55.8358 75.9893 55.7731 76.3045 55.6512 76.5986C55.5294 76.8927 55.3509 77.16 55.1258 77.3851C54.9007 77.6102 54.6334 77.7887 54.3393 77.9105C54.0452 78.0324 53.73 78.0951 53.4117 78.0951H31.9114C31.593 78.0951 31.2778 78.0324 30.9837 77.9105C30.6896 77.7887 30.4224 77.6102 30.1973 77.3851C29.9722 77.16 29.7937 76.8927 29.6718 76.5986C29.55 76.3045 29.4873 75.9893 29.4873 75.671V74.4414Z" fill="white"/>
<path d="M53.8378 33H31.7578C31.0264 33 30.3249 33.2905 29.8077 33.8077C29.2905 34.3249 29 35.0264 29 35.7578V76.2422C29 76.9736 29.2905 77.6751 29.8077 78.1923C30.3249 78.7094 31.0264 79 31.7578 79H53.8378C54.5696 79 55.2716 78.7096 55.7894 78.1925C56.3073 77.6755 56.5989 76.974 56.6 76.2422V35.7578C56.5989 35.026 56.3073 34.3245 55.7894 33.8075C55.2716 33.2904 54.5696 33 53.8378 33ZM30.84 38.542H54.76V73.5019H30.84V38.542ZM31.7578 34.862H53.8378C54.0816 34.8619 54.3155 34.9585 54.4884 35.1305C54.6612 35.3025 54.7588 35.5359 54.76 35.7797V36.702H30.84V35.7797C30.8371 35.6574 30.8587 35.5357 30.9035 35.4218C30.9483 35.3079 31.0154 35.2041 31.1009 35.1165C31.1864 35.029 31.2886 34.9594 31.4014 34.9119C31.5142 34.8644 31.6354 34.8399 31.7578 34.84V34.862ZM53.8378 77.1819H31.7578C31.5144 77.1819 31.2809 77.0852 31.1088 76.9131C30.9367 76.741 30.84 76.5076 30.84 76.2642V75.342H54.76V76.2642C54.7531 76.5041 54.653 76.732 54.4808 76.8993C54.3085 77.0666 54.0779 77.1601 53.8378 77.16V77.1819Z" fill="white"/>
<path d="M42.4729 52.0718L38.4548 53.477L37.6511 57.6971C37.6511 57.6971 42.0689 58.9048 42.2709 58.9048C42.4729 58.9048 47.1014 58.2988 47.1014 58.2988L47.9051 53.679L42.4729 52.0718Z" fill="#1A374D"/>
<path d="M45.3362 57.1967V57.5128L45.6084 57.6709L45.8851 57.5128V57.1967L45.6084 57.0386L45.3362 57.1967Z" fill="white"/>
<path d="M44.2997 49.4592C43.4647 49.4596 42.6422 49.6624 41.9027 50.0502C41.1631 50.4379 40.5285 50.9991 40.0532 51.6856C38.9983 51.7309 38.0024 52.1851 37.2767 52.9521C36.551 53.7191 36.1525 54.7386 36.1656 55.7944C36.1787 56.8503 36.6025 57.8595 37.347 58.6082C38.0916 59.3569 39.0985 59.7863 40.1542 59.8053H44.3831C45.0625 59.7999 45.7341 59.6606 46.3596 59.3956C46.9852 59.1305 47.5523 58.7449 48.0288 58.2607C48.5053 57.7764 48.8818 57.2031 49.1367 56.5734C49.3916 55.9437 49.52 55.2699 49.5145 54.5905C49.509 53.9112 49.3698 53.2396 49.1048 52.614C48.8397 51.9885 48.4541 51.4213 47.9699 50.9448C47.4856 50.4684 46.9123 50.0919 46.2826 49.837C45.6528 49.5821 44.9791 49.4537 44.2997 49.4592ZM39.658 57.0343L38.5426 56.6831L40.7954 52.823L41.9152 53.1743L39.658 57.0343ZM40.5143 56.6831L42.7671 52.823L43.8825 53.1743L41.6297 57.0343L40.5143 56.6831ZM46.3461 57.7809L45.6084 58.22L44.8706 57.7809V56.9289L45.3097 56.6831V54.1184L43.6059 57.0343L42.4905 56.6831L44.7433 52.823L45.863 53.1743H45.9245V56.6874L46.3637 56.9333L46.3461 57.7809Z" fill="white"/>
<path d="M86.5041 38H87.9341C87.9456 37.9999 87.957 38.0034 87.967 38.0101C87.977 38.0169 87.9853 38.0265 87.9911 38.0383C87.9969 38.05 88 38.0634 88 38.077C88 38.0906 87.9971 38.104 87.9913 38.1157L87.2804 39.5336L86.5613 40.9613C86.5546 40.9732 86.5455 40.983 86.5348 40.9898C86.5241 40.9965 86.5121 41 86.5 41C86.4879 41 86.476 40.9965 86.4653 40.9898C86.4546 40.983 86.4455 40.9732 86.4388 40.9613L85.7197 39.5336L85.0088 38.1157C85.003 38.104 85 38.0906 85 38.077C85 38.0634 85.0031 38.05 85.0089 38.0383C85.0147 38.0265 85.0231 38.0169 85.0331 38.0101C85.0431 38.0034 85.0544 37.9999 85.0659 38H86.5041Z" fill="#1A374D"/>
<path d="M85.5702 49.459H73.7749V56.7838H85.5702V49.459Z" stroke="white" stroke-linecap="round" stroke-linejoin="round"/>
<path d="M70.7755 49.459H58.9802V56.7838H70.7755V49.459Z" stroke="white" stroke-linecap="round" stroke-linejoin="round"/>
<path d="M85.5702 61.1577H58.9802V64.6401H85.5702V61.1577Z" fill="#1A374D" stroke="white" stroke-linecap="round" stroke-linejoin="round"/>
<path d="M86.9535 73.3177L85.0564 71.4206L86.1103 70.3623C86.2074 70.2661 86.2775 70.1461 86.3137 70.0144C86.3499 69.8826 86.351 69.7437 86.3167 69.6114C86.2843 69.4795 86.2177 69.3586 86.1236 69.2607C86.0296 69.1628 85.9114 69.0914 85.781 69.0537L77.9116 66.6911C77.7755 66.6501 77.631 66.6468 77.4932 66.6815C77.3554 66.7161 77.2296 66.7875 77.1292 66.888C77.0287 66.9884 76.9574 67.1142 76.9227 67.252C76.888 67.3897 76.8913 67.5343 76.9323 67.6704L79.2949 75.5398C79.3334 75.6698 79.4051 75.7875 79.5029 75.8815C79.6006 75.9754 79.7211 76.0422 79.8526 76.0755C79.9849 76.1089 80.1236 76.1074 80.2552 76.0712C80.3868 76.0351 80.5068 75.9654 80.6035 75.8691L81.7145 74.7581L83.616 76.6552C83.6884 76.7292 83.7748 76.7879 83.8702 76.828C83.9656 76.8681 84.068 76.8888 84.1715 76.8888C84.275 76.8888 84.3774 76.8681 84.4728 76.828C84.5682 76.7879 84.6547 76.7292 84.727 76.6552L86.9535 74.4287C87.1007 74.2813 87.1834 74.0815 87.1834 73.8732C87.1834 73.6649 87.1007 73.4651 86.9535 73.3177ZM84.1737 74.9865L82.4435 73.2563C82.2502 73.0645 81.989 72.9569 81.7167 72.9569C81.4445 72.9569 81.1832 73.0645 80.9899 73.2563L80.4235 73.8227L78.8601 68.6189L84.0683 70.1779L83.4579 70.7883C83.3736 70.8702 83.3066 70.9681 83.2608 71.0763C83.215 71.1846 83.1914 71.3009 83.1914 71.4184C83.1914 71.536 83.215 71.6523 83.2608 71.7605C83.3066 71.8688 83.3736 71.9668 83.4579 72.0486L85.2848 73.8754L84.1737 74.9865Z" fill="white"/>
<defs>
<filter id="filter0_d_0_1" x="0" y="0" width="119" height="119" filterUnits="userSpaceOnUse" color-interpolation-filters="sRGB">
<feFlood flood-opacity="0" result="BackgroundImageFix"/>
<feColorMatrix in="SourceAlpha" type="matrix" values="0 0 0 0 0 0 0 0 0 0 0 0 0 0 0 0 0 0 127 0" result="hardAlpha"/>
<feOffset dy="4"/>
<feGaussianBlur stdDeviation="2"/>
<feComposite in2="hardAlpha" operator="out"/>
<feColorMatrix type="matrix" values="0 0 0 0 0 0 0 0 0 0 0 0 0 0 0 0 0 0 0.25 0"/>
<feBlend mode="normal" in2="BackgroundImageFix" result="effect1_dropShadow_0_1"/>
<feBlend mode="normal" in="SourceGraphic" in2="effect1_dropShadow_0_1" result="shape"/>
</filter>
</defs>
</svg>
