<svg width="119" height="119" viewBox="0 0 119 119" fill="none" xmlns="http://www.w3.org/2000/svg">
<g filter="url(#filter0_d_0_1)">
<circle cx="59.5" cy="55.5" r="55.5" fill="white"/>
<circle cx="59.5" cy="55.5" r="55" stroke="#1A374D"/>
</g>
<g clip-path="url(#clip0_0_1)">
<path d="M73.6163 35.4126H32.2335C29.5491 35.4126 27.373 37.5957 27.373 40.2887V81.8047C27.373 84.4977 29.5491 86.6808 32.2335 86.6808H73.6163C76.3006 86.6808 78.4767 84.4977 78.4767 81.8047V40.2887C78.4767 37.5957 76.3006 35.4126 73.6163 35.4126Z" fill="white"/>
<path d="M78.4769 51.2579C86.0123 51.2579 92.121 45.1296 92.121 37.5699C92.121 30.0102 86.0123 23.8818 78.4769 23.8818C70.9414 23.8818 64.8328 30.0102 64.8328 37.5699C64.8328 45.1296 70.9414 51.2579 78.4769 51.2579Z" fill="white"/>
<path d="M77.663 52.1183V81.3457C77.6611 82.6802 77.1314 83.9594 76.1901 84.9023C75.2488 85.8452 73.973 86.3749 72.6428 86.3749H32.6476C31.3174 86.3749 30.0416 85.8452 29.1003 84.9023C28.159 83.9594 27.6293 82.6802 27.6274 81.3457V41.2072C27.6312 39.8733 28.1616 38.5953 29.1024 37.6528C30.0433 36.7103 31.318 36.18 32.6476 36.1781H64.0261C64.0748 35.6293 64.1574 35.084 64.2732 34.5454H32.6476C30.8858 34.5454 29.196 35.2471 27.9495 36.4962C26.703 37.7453 26.0019 39.4397 26 41.2072V81.3457C26.0019 83.1132 26.703 84.8076 27.9495 86.0568C29.196 87.3059 30.8858 88.0075 32.6476 88.0075H72.6428C74.4046 88.0075 76.0944 87.3059 77.3409 86.0568C78.5874 84.8076 79.2885 83.1132 79.2904 81.3457V52.1183C79.0216 52.1183 78.7456 52.1183 78.4768 52.1183C78.208 52.1183 77.9318 52.1329 77.663 52.1183Z" fill="black"/>
<path d="M78.4769 23.0366C75.1506 23.0384 71.9256 24.185 69.3405 26.2849C66.7555 28.3848 64.9668 31.3109 64.2733 34.5745C64.1575 35.1131 64.0749 35.6584 64.0262 36.2072C63.9826 36.6639 63.961 37.1304 63.961 37.6066C63.9549 41.333 65.3716 44.9202 67.9199 47.6313C70.4683 50.3424 73.9547 51.9714 77.6631 52.1838C77.9319 52.1838 78.2081 52.1838 78.4769 52.1838C78.7457 52.1838 79.0217 52.1838 79.2905 52.1838C83.0002 51.9732 86.4886 50.3449 89.0384 47.6337C91.5883 44.9224 93.006 41.3342 93.0001 37.6066C92.9982 33.743 91.4674 30.0382 88.7442 27.3062C86.021 24.5742 82.3281 23.0386 78.4769 23.0366ZM79.2905 50.5148C79.0217 50.5148 78.7457 50.5148 78.4769 50.5148C78.2081 50.5148 77.9246 50.5148 77.6631 50.5148C74.3928 50.3037 71.3252 48.8523 69.0826 46.455C66.8401 44.0577 65.5908 40.8942 65.5884 37.6066C65.5868 37.1391 65.611 36.672 65.6609 36.2072C65.717 35.6565 65.8143 35.1107 65.9516 34.5745C66.6296 31.7534 68.2331 29.2429 70.5048 27.4464C72.7765 25.6499 75.5843 24.6718 78.4769 24.6693C81.8852 24.6808 85.1509 26.0432 87.5623 28.4597C89.9738 30.8762 91.3355 34.1508 91.3509 37.5702C91.3486 40.8554 90.1014 44.0169 87.8619 46.4138C85.6224 48.8107 82.5582 50.2638 79.2905 50.4783V50.5148Z" fill="black"/>
<path d="M76.3915 45.8793H79.7263V37.4973H82.0511L82.2982 34.6912H79.7263V33.095C79.7263 32.4317 79.8571 32.1694 80.4964 32.1694H82.2982V29.2539H79.9879C77.5105 29.2539 76.3553 30.3472 76.3553 32.4463V34.6985H74.6406V37.5411H76.3769L76.3915 45.8793Z" fill="#1E6EFF"/>
<path d="M47.7595 47.1981C48.0226 46.4495 48.4496 45.7696 49.0091 45.2083C49.55 44.6858 50.2033 44.2949 50.9187 44.0657C51.634 43.8365 52.3923 43.7752 53.135 43.8865C53.8776 43.9977 54.5849 44.2786 55.2022 44.7075C55.8196 45.1363 56.3306 45.7017 56.6957 46.3599C57.88 48.5465 59.1296 50.631 60.3283 52.7666C62.3626 56.3089 64.4186 59.8512 66.4238 63.408C66.8129 64.0967 67.0296 64.8697 67.0553 65.6609C67.0809 66.4521 66.9149 67.2377 66.5712 67.9502C66.2275 68.6628 65.7165 69.281 65.0821 69.7517C64.4478 70.2225 63.7089 70.5317 62.9292 70.6529C61.9343 70.8077 60.9162 70.6514 60.0128 70.2055C59.1095 69.7595 58.3647 69.0454 57.8799 68.1602C56.1023 65.0407 54.3152 61.9284 52.5182 58.8235C52.4832 58.7548 52.4392 58.6911 52.3875 58.634C52.2235 58.4643 52.0906 58.2669 51.9951 58.0509C51.2032 56.6514 50.3895 55.2666 49.5976 53.8818C49.089 52.978 48.5586 52.0888 48.05 51.185C47.5992 50.3942 47.3754 49.4935 47.4035 48.5829C47.4159 48.1083 47.5194 47.6406 47.7086 47.2054" fill="#1E6EFF"/>
<path d="M47.7593 47.1981C47.6397 47.6241 47.5642 48.0613 47.5341 48.5028C47.5049 49.4816 47.7571 50.4481 48.2606 51.287C49.5586 53.5271 50.8543 55.7744 52.1475 58.029C52.2638 58.2331 52.3582 58.4372 52.4745 58.6267C51.7479 59.8585 51.0578 61.0757 50.3385 62.271C49.3432 63.9911 48.355 65.7258 47.3524 67.4386C47.3016 67.4386 47.2871 67.4387 47.2799 67.3803C47.2773 67.2885 47.292 67.197 47.3233 67.1106C47.571 66.2958 47.5966 65.4293 47.3973 64.6012C47.198 63.7732 46.7811 63.0138 46.1901 62.4022C45.4698 61.5973 44.4845 61.0797 43.4147 60.9445C42.7445 60.8395 42.0598 60.8788 41.406 61.0597C40.7521 61.2407 40.144 61.5592 39.6223 61.994C39.4189 62.1471 39.2881 62.373 39.0556 62.497C39.046 62.498 39.0364 62.497 39.0272 62.4943C39.018 62.4915 39.0094 62.487 39.002 62.4809C38.9946 62.4748 38.9884 62.4672 38.9839 62.4587C38.9794 62.4502 38.9765 62.4409 38.9756 62.4313C39.5423 61.4474 40.0945 60.4634 40.6612 59.5159C43.0006 55.4391 45.3448 51.3672 47.6939 47.3001C47.6939 47.2491 47.7521 47.2127 47.7739 47.1689" fill="#FABC04"/>
<path d="M38.9757 62.5333C39.2009 62.3365 39.4117 62.1179 39.6515 61.9284C40.3135 61.4091 41.0978 61.0701 41.9288 60.9441C42.7597 60.8182 43.609 60.9095 44.3944 61.2093C45.1799 61.5091 45.8749 62.0072 46.4122 62.6554C46.9496 63.3036 47.311 64.08 47.4616 64.9094C47.603 65.753 47.5382 66.6184 47.2727 67.4313C47.2592 67.5001 47.2421 67.5682 47.2218 67.6354C47.1201 67.8249 47.0184 68.0216 46.9022 68.2111C46.4584 69.0344 45.7829 69.7084 44.9599 70.1491C44.1369 70.5897 43.2028 70.7776 42.2741 70.6893C41.1529 70.6123 40.0931 70.1472 39.2756 69.3736C38.4581 68.6 37.9336 67.5657 37.7915 66.4473C37.6357 65.351 37.8669 64.2345 38.4453 63.2913C38.5616 63.08 38.7069 62.8905 38.8304 62.6791C38.8958 62.6281 38.8667 62.5333 38.9757 62.5333Z" fill="#34A852"/>
<path d="M38.9757 62.5335C38.9321 62.5845 38.9322 62.6647 38.845 62.6793C38.7578 62.6938 38.8814 62.5481 38.9323 62.4897L38.9757 62.5335Z" fill="#FABC04"/>
<path d="M47.2217 67.6357C47.1781 67.5483 47.2218 67.4899 47.2726 67.4316L47.3161 67.4754L47.2217 67.6357Z" fill="#E1C025"/>
<path d="M40.0293 74.6764C39.3875 74.6725 38.7701 74.9231 38.3116 75.3735C37.853 75.824 37.5904 76.4379 37.5808 77.0817C37.5904 77.7241 37.8535 78.3366 38.3125 78.7847C38.7714 79.2329 39.3889 79.4801 40.0293 79.4723C40.3405 79.4874 40.6513 79.4354 40.9408 79.3197C41.2303 79.204 41.4917 79.0274 41.7074 78.8018C42.0862 78.3842 42.2893 77.8357 42.2741 77.2712C42.2865 77.133 42.2865 76.9939 42.2741 76.8557H40.0946V77.5044H41.664C41.6436 77.8141 41.5179 78.1074 41.308 78.3353C41.1506 78.4968 40.9613 78.6236 40.7524 78.7077C40.5435 78.7918 40.3195 78.8313 40.0946 78.8237C39.8669 78.8237 39.6414 78.7786 39.4312 78.6909C39.2209 78.6033 39.0299 78.4749 38.8693 78.313C38.7086 78.1512 38.5815 77.9591 38.495 77.7477C38.4085 77.5364 38.3646 77.3101 38.3655 77.0817C38.3636 76.853 38.4069 76.6262 38.493 76.4145C38.5792 76.2027 38.7063 76.0102 38.8671 75.8482C39.028 75.6861 39.2194 75.5577 39.4301 75.4705C39.6408 75.3832 39.8666 75.3387 40.0946 75.3397C40.3126 75.3339 40.5294 75.373 40.7319 75.4545C40.9343 75.5359 41.118 75.6581 41.2716 75.8135L41.7365 75.347C41.5142 75.1221 41.2474 74.9463 40.9534 74.8308C40.6594 74.7153 40.3447 74.6628 40.0293 74.6764ZM44.0324 76.3893C43.8284 76.3882 43.6261 76.4283 43.4377 76.507C43.2493 76.5858 43.0787 76.7017 42.9357 76.8478C42.7928 76.9939 42.6806 77.1673 42.6056 77.3577C42.5307 77.5481 42.4945 77.7517 42.4994 77.9563C42.4935 78.1613 42.5289 78.3653 42.6035 78.5561C42.6781 78.747 42.7903 78.9208 42.9334 79.0671C43.0766 79.2134 43.2476 79.3293 43.4365 79.4077C43.6253 79.4861 43.8281 79.5254 44.0324 79.5234C44.2368 79.5254 44.4394 79.4861 44.6282 79.4077C44.8171 79.3293 44.9881 79.2134 45.1313 79.0671C45.2744 78.9208 45.3866 78.747 45.4612 78.5561C45.5358 78.3653 45.5712 78.1613 45.5653 77.9563C45.5702 77.7517 45.534 77.5481 45.4591 77.3577C45.3841 77.1673 45.2719 76.9939 45.129 76.8478C44.986 76.7017 44.8154 76.5858 44.627 76.507C44.4386 76.4283 44.2365 76.3882 44.0324 76.3893ZM44.0324 78.9038C43.9131 78.9001 43.7957 78.8725 43.6873 78.8226C43.5788 78.7726 43.4814 78.7014 43.4008 78.6131C43.3202 78.5248 43.2581 78.4212 43.2181 78.3084C43.1781 78.1956 43.1609 78.0759 43.1677 77.9563C43.1619 77.837 43.1797 77.7177 43.2201 77.6053C43.2604 77.493 43.3227 77.3898 43.4031 77.3016C43.4835 77.2135 43.5805 77.1423 43.6885 77.092C43.7965 77.0418 43.9135 77.0135 44.0324 77.0088C44.1517 77.0125 44.269 77.0401 44.3774 77.0901C44.4859 77.14 44.5833 77.2112 44.6639 77.2995C44.7445 77.3879 44.8066 77.4915 44.8466 77.6043C44.8866 77.7171 44.9038 77.8368 44.897 77.9563C44.9038 78.0759 44.8866 78.1956 44.8466 78.3084C44.8066 78.4212 44.7445 78.5248 44.6639 78.6131C44.5833 78.7014 44.4859 78.7726 44.3774 78.8226C44.269 78.8725 44.1517 78.9001 44.0324 78.9038ZM47.3671 76.3893C47.1624 76.3873 46.9594 76.4266 46.7702 76.5049C46.581 76.5832 46.4095 76.6989 46.2657 76.8451C46.122 76.9913 46.0091 77.1651 45.9337 77.356C45.8583 77.5469 45.822 77.751 45.8269 77.9563C45.822 78.1616 45.8583 78.3658 45.9337 78.5567C46.0091 78.7476 46.122 78.9213 46.2657 79.0675C46.4095 79.2137 46.581 79.3294 46.7702 79.4078C46.9594 79.4861 47.1624 79.5254 47.3671 79.5234C47.5708 79.5234 47.7726 79.4827 47.9606 79.4036C48.1485 79.3245 48.3187 79.2086 48.4615 79.0627C48.6042 78.9168 48.7164 78.7438 48.7917 78.5538C48.867 78.3638 48.904 78.1607 48.9001 77.9563C48.906 77.7514 48.8706 77.5474 48.796 77.3565C48.7214 77.1656 48.609 76.9918 48.4659 76.8455C48.3228 76.6992 48.1517 76.5834 47.9629 76.505C47.774 76.4266 47.5714 76.3872 47.3671 76.3893ZM47.3671 78.9038C47.2478 78.9001 47.1304 78.8725 47.0219 78.8226C46.9134 78.7726 46.816 78.7014 46.7354 78.6131C46.6548 78.5248 46.5928 78.4212 46.5527 78.3084C46.5127 78.1956 46.4957 78.0759 46.5025 77.9563C46.4957 77.8368 46.5127 77.7171 46.5527 77.6043C46.5928 77.4915 46.6548 77.3879 46.7354 77.2995C46.816 77.2112 46.9134 77.14 47.0219 77.0901C47.1304 77.0401 47.2478 77.0125 47.3671 77.0088C47.4861 77.0124 47.6031 77.0401 47.7112 77.0901C47.8193 77.1402 47.9162 77.2115 47.9962 77.3C48.0762 77.3884 48.1378 77.4921 48.177 77.6048C48.2161 77.7176 48.2322 77.8372 48.2243 77.9563C48.2332 78.0757 48.2179 78.1957 48.1791 78.3089C48.1403 78.4221 48.0789 78.5262 47.9987 78.6149C47.9185 78.7035 47.8212 78.7749 47.7126 78.8245C47.604 78.8742 47.4864 78.9012 47.3671 78.9038ZM50.6873 76.3893C50.2916 76.4082 49.9187 76.5807 49.6476 76.8704C49.3764 77.1602 49.2282 77.5443 49.2343 77.9417C49.2301 78.3379 49.3791 78.7202 49.65 79.0084C49.921 79.2965 50.2929 79.4681 50.6873 79.4869C50.8386 79.4903 50.9887 79.46 51.1269 79.3983C51.265 79.3365 51.3877 79.2448 51.4864 79.1298V79.3557C51.4864 79.9461 51.1813 80.2668 50.6728 80.2668C50.5052 80.2647 50.3423 80.2112 50.2059 80.1135C50.0696 80.0157 49.9662 79.8785 49.9099 79.7202L49.3141 79.9753C49.4234 80.2463 49.6114 80.4781 49.8537 80.6406C50.0959 80.8031 50.3814 80.8887 50.6728 80.8863C50.8796 80.8961 51.0859 80.8598 51.2771 80.7801C51.4682 80.7003 51.6394 80.5791 51.7783 80.4251C51.9173 80.2711 52.0205 80.0882 52.0806 79.8894C52.1407 79.6907 52.1561 79.481 52.1258 79.2756V76.4986H51.4864V76.7464C51.3877 76.6314 51.265 76.5397 51.1269 76.4779C50.9887 76.4162 50.8386 76.3859 50.6873 76.3893ZM50.7455 78.882C50.6278 78.8773 50.512 78.8492 50.4053 78.7992C50.2985 78.7492 50.2028 78.6784 50.1236 78.5908C50.0445 78.5033 49.9837 78.4008 49.9445 78.2893C49.9053 78.1779 49.8885 78.0597 49.8953 77.9417C49.8885 77.8234 49.9052 77.7048 49.9443 77.593C49.9834 77.4811 50.0442 77.3781 50.1233 77.29C50.2023 77.2019 50.298 77.1304 50.4048 77.0796C50.5116 77.0288 50.6275 76.9998 50.7455 76.9942C50.8614 77.0016 50.9746 77.0321 51.0786 77.0839C51.1826 77.1358 51.2753 77.208 51.3511 77.2962C51.4269 77.3845 51.4842 77.4871 51.5199 77.5979C51.5557 77.7088 51.569 77.8257 51.5591 77.9417C51.5701 78.0576 51.5575 78.1746 51.522 78.2854C51.4866 78.3963 51.4291 78.4988 51.353 78.5867C51.2769 78.6746 51.1838 78.7461 51.0793 78.7969C50.9749 78.8476 50.8614 78.8766 50.7455 78.882ZM52.6489 74.8659H53.3172V79.4359H52.6489V74.8659ZM55.1263 76.3893C54.9259 76.3887 54.7278 76.4297 54.544 76.5097C54.3602 76.5897 54.1948 76.707 54.0583 76.8541C53.9219 77.0013 53.8172 77.1752 53.7509 77.3648C53.6847 77.5545 53.6582 77.7559 53.6732 77.9563C53.6693 78.162 53.7066 78.3663 53.7829 78.5572C53.8591 78.7482 53.9727 78.9218 54.117 79.0679C54.2613 79.214 54.4333 79.3296 54.6229 79.4078C54.8125 79.4861 55.0158 79.5254 55.2208 79.5234C55.478 79.5261 55.7317 79.4641 55.9589 79.3431C56.186 79.2222 56.3794 79.0461 56.5213 78.8309L55.991 78.4811C55.9082 78.6107 55.7942 78.7173 55.6596 78.7911C55.5251 78.865 55.3742 78.9037 55.2208 78.9038C55.0663 78.9071 54.9144 78.8637 54.7848 78.7792C54.6553 78.6947 54.554 78.5731 54.4943 78.4301L56.5866 77.5627L56.5141 77.3878C56.4203 77.1039 56.2417 76.8558 56.0025 76.6771C55.7634 76.4985 55.4752 76.398 55.1772 76.3893H55.1263ZM54.3781 77.9126C54.3703 77.7984 54.3851 77.6838 54.4219 77.5755C54.4588 77.4672 54.5168 77.3674 54.5926 77.2819C54.6683 77.1963 54.7603 77.1268 54.8632 77.0775C54.9661 77.0281 55.0778 76.9998 55.1917 76.9942C55.3101 76.9846 55.4286 77.0116 55.5312 77.0715C55.6338 77.1315 55.7156 77.2215 55.7657 77.3295L54.3781 77.9126Z" fill="black"/>
<path d="M57.7126 79.3703L59.2748 75.2085H59.8777L61.4398 79.3703H60.844L60.4444 78.2406H58.7081L58.3084 79.3703H57.7126ZM58.8824 77.7449H60.27L59.5944 75.8718L58.8824 77.7449Z" fill="black"/>
<path d="M61.9774 79.0205C61.7192 78.7218 61.5818 78.3369 61.5924 77.9417C61.5892 77.5477 61.7257 77.1654 61.9774 76.863C62.0965 76.7252 62.2438 76.6148 62.4093 76.5394C62.5748 76.4639 62.7545 76.4251 62.9363 76.4257C63.1327 76.426 63.3264 76.4708 63.503 76.5569C63.6673 76.6355 63.8059 76.7594 63.9027 76.9141V76.5205V75.2085H64.4403V79.3703H63.9317V78.9767C63.8309 79.1279 63.6934 79.2508 63.5321 79.3339C63.3574 79.4251 63.1623 79.4702 62.9654 79.4651C62.7827 79.4672 62.6017 79.4284 62.4358 79.3515C62.2699 79.2746 62.1233 79.1615 62.0065 79.0205H61.9774ZM63.6847 78.6925C63.8633 78.493 63.9572 78.2315 63.9463 77.9636C63.9529 77.8308 63.9332 77.698 63.8883 77.5729C63.8434 77.4478 63.7741 77.3328 63.6847 77.2347C63.6059 77.1427 63.5076 77.0694 63.397 77.0202C63.2864 76.971 63.1663 76.9472 63.0454 76.9505C62.9255 76.9473 62.8065 76.9711 62.697 77.0204C62.5876 77.0696 62.4906 77.1428 62.4132 77.2347C62.3238 77.3328 62.2547 77.4478 62.2098 77.5729C62.1649 77.698 62.1452 77.8308 62.1518 77.9636C62.1393 78.2317 62.2333 78.4939 62.4132 78.6925C62.4919 78.7828 62.5892 78.855 62.6983 78.9041C62.8074 78.9532 62.9258 78.9779 63.0454 78.9767C63.1659 78.9888 63.2876 78.9705 63.3993 78.9234C63.5109 78.8763 63.609 78.8019 63.6847 78.7071" fill="black"/>
<path d="M66.8961 79.2026C66.6626 79.3806 66.3754 79.4732 66.0823 79.465C65.8229 79.4649 65.5697 79.3861 65.3558 79.239C65.1417 79.0942 64.9789 78.8849 64.8909 78.6414L65.363 78.4446C65.4244 78.6047 65.5303 78.7439 65.6681 78.8455C65.7959 78.9416 65.9517 78.9928 66.1114 78.9912C66.2593 78.995 66.4053 78.9571 66.5328 78.8819C66.581 78.8566 66.6218 78.819 66.6511 78.773C66.6804 78.727 66.6973 78.6741 66.6999 78.6195C66.6999 78.4446 66.5546 78.2988 66.2857 78.2186L65.799 78.102C65.2469 77.9562 64.978 77.6939 64.978 77.293C64.9733 77.1706 64.9996 77.049 65.0542 76.9394C65.1088 76.8299 65.1899 76.7359 65.2903 76.6662C65.5274 76.5033 65.8096 76.4192 66.0968 76.4256C66.3368 76.4227 66.5729 76.4857 66.7797 76.6079C66.971 76.7171 67.1216 76.886 67.2084 77.0889L66.7363 77.293C66.6762 77.1763 66.5858 77.0781 66.4746 77.0087C66.3494 76.9345 66.2059 76.8966 66.0605 76.8994C65.9269 76.9003 65.7962 76.9381 65.6827 77.0087C65.634 77.0335 65.5929 77.0709 65.5635 77.117C65.5341 77.1632 65.5175 77.2164 65.5156 77.2711C65.5156 77.4388 65.6682 77.5554 65.9807 77.6137L66.4019 77.723C66.9686 77.8615 67.2448 78.1458 67.2448 78.5758C67.2486 78.6989 67.2212 78.8209 67.1653 78.9305C67.1094 79.0401 67.0267 79.1337 66.925 79.2026" fill="black"/>
</g>
<defs>
<filter id="filter0_d_0_1" x="0" y="0" width="119" height="119" filterUnits="userSpaceOnUse" color-interpolation-filters="sRGB">
<feFlood flood-opacity="0" result="BackgroundImageFix"/>
<feColorMatrix in="SourceAlpha" type="matrix" values="0 0 0 0 0 0 0 0 0 0 0 0 0 0 0 0 0 0 127 0" result="hardAlpha"/>
<feOffset dy="4"/>
<feGaussianBlur stdDeviation="2"/>
<feComposite in2="hardAlpha" operator="out"/>
<feColorMatrix type="matrix" values="0 0 0 0 0 0 0 0 0 0 0 0 0 0 0 0 0 0 0.25 0"/>
<feBlend mode="normal" in2="BackgroundImageFix" result="effect1_dropShadow_0_1"/>
<feBlend mode="normal" in="SourceGraphic" in2="effect1_dropShadow_0_1" result="shape"/>
</filter>
<clipPath id="clip0_0_1">
<rect width="67" height="65" fill="white" transform="translate(26 23)"/>
</clipPath>
</defs>
</svg>
