<svg width="594" height="528" viewBox="0 0 594 528" fill="none" xmlns="http://www.w3.org/2000/svg">
<path d="M301.18 294.01C301.18 294.01 268.18 328.68 262.34 323.06L273.04 302.87C273.09 303.41 296.18 285.31 296.18 285.31C296.18 285.31 300.91 273.43 302.75 273.44C304.59 273.45 300.75 280.21 301.4 281.09C302.05 281.97 313.34 267.59 314.62 269.33C315.32 270.26 307.56 277.88 308.21 279.11C308.54 279.75 317.21 274.29 318.13 274.55C320.65 275.29 308.48 281.06 309.2 281.42C309.92 281.78 318.91 276.22 319.05 278.09C319.13 279.26 310.78 283.31 310.92 284.09C311.06 284.87 315.7 281.81 317.21 282.4C318.72 282.99 310.97 286.83 310.46 287.48C307.784 290.196 304.64 292.408 301.18 294.01Z" fill="#FFC9AE"/>
<path d="M253.62 268.74C253.62 268.74 261.62 271.42 263.57 277.51C265.52 283.6 274.06 301.88 274.06 301.88L262.5 323.25C262.5 323.25 229.19 280.71 253.62 268.74Z" fill="#FFC9AE"/>
<path d="M252.96 266.74C261.6 265.41 266.38 275.48 274.09 294.07L254.36 309.95C254.36 309.95 226.07 270.88 252.96 266.74Z" fill="#84A075"/>
<path d="M253.06 229.29C248.94 224.14 239.38 220.72 231.51 223.92L231.38 223.97C228.92 224.785 226.787 226.368 225.296 228.488C223.805 230.607 223.035 233.15 223.1 235.74C223.178 239.068 224.024 242.333 225.57 245.28C229.09 251.6 235.78 254.28 242.76 253.87C243.375 253.811 243.995 253.883 244.581 254.079C245.167 254.275 245.705 254.593 246.16 255.01L254.26 241.11C255.26 239.17 255.47 232.3 253.06 229.29Z" fill="#151F36"/>
<path d="M220.945 249.791C224.855 248.163 226.705 243.673 225.076 239.762C223.448 235.852 218.958 234.002 215.047 235.63C211.137 237.259 209.287 241.749 210.915 245.66C212.544 249.57 217.034 251.42 220.945 249.791Z" fill="#151F36"/>
<path d="M233.63 243.11C233.54 243.38 232.56 241.27 232.29 241.17C231.16 240.76 228.64 239.59 227.22 242.41C225.8 245.23 228.03 247.96 229.71 248.66C230.571 249.099 231.344 249.692 231.99 250.41C234.1 254.51 231.32 263.22 230.99 266.56C230.34 273.92 224.37 265.84 224.37 265.84C224.37 265.84 244.28 281.51 247.22 272.76C244.82 268.55 243.32 255.31 245.43 256.1C248.2 257.1 254.02 253.64 254.73 241.04C251.5 231.68 247.46 230.22 247.42 229.49C247.17 236.04 243.46 240.4 233.63 243.11Z" fill="#FFC9AE"/>
<path d="M228.2 243.73C228.2 243.73 231.31 240.62 231.77 246.44L228.2 243.73Z" fill="#EDA682"/>
<path d="M242.74 244.37C243.091 244.486 243.415 244.669 243.695 244.91C243.975 245.151 244.205 245.445 244.371 245.774C244.537 246.104 244.637 246.463 244.664 246.832C244.691 247.2 244.646 247.57 244.53 247.92C244.415 248.272 244.231 248.598 243.989 248.878C243.748 249.159 243.453 249.389 243.122 249.555C242.791 249.722 242.431 249.821 242.062 249.848C241.692 249.874 241.321 249.828 240.97 249.71C240.619 249.594 240.294 249.409 240.015 249.167C239.735 248.925 239.506 248.631 239.341 248.3C239.176 247.969 239.077 247.609 239.051 247.24C239.025 246.871 239.073 246.501 239.19 246.15C239.305 245.8 239.489 245.475 239.73 245.196C239.971 244.917 240.265 244.688 240.595 244.522C240.925 244.357 241.284 244.258 241.652 244.232C242.02 244.206 242.39 244.253 242.74 244.37Z" fill="#EDA682"/>
<path d="M253.43 249.301C252.869 248.975 252.438 248.466 252.208 247.86C251.979 247.253 251.965 246.586 252.17 245.971C252.327 245.499 252.605 245.078 252.978 244.75C253.35 244.421 253.803 244.197 254.29 244.101C254.346 245.873 254.054 247.64 253.43 249.301Z" fill="#EDA682"/>
<path d="M249.65 243.101L249.25 246.211L250.88 246.091C250.949 246.087 251.016 246.065 251.074 246.026C251.131 245.988 251.178 245.935 251.208 245.873C251.239 245.811 251.252 245.742 251.247 245.673C251.242 245.604 251.219 245.538 251.18 245.481L249.65 243.101Z" fill="#EDA682"/>
<path d="M244.85 240.16C244.32 240.53 245.14 238.89 245.85 238.7C246.166 238.598 246.509 238.624 246.806 238.771C247.103 238.919 247.331 239.177 247.44 239.49C246.525 239.404 245.608 239.641 244.85 240.16Z" fill="black"/>
<path d="M253.5 240C254.02 240.37 253.22 238.73 252.5 238.53C252.186 238.421 251.841 238.441 251.541 238.586C251.241 238.73 251.011 238.987 250.9 239.3C251.822 239.219 252.743 239.467 253.5 240Z" fill="black"/>
<path d="M246.42 243.12C246.42 243.67 246.68 244.12 246.95 244.12C247.22 244.12 247.41 243.65 247.39 243.12C247.37 242.59 247.13 242.12 246.86 242.12C246.59 242.12 246.4 242.57 246.42 243.12Z" fill="black"/>
<path d="M250.8 242.67C250.8 243.2 251.05 243.62 251.3 243.61C251.55 243.6 251.75 243.16 251.73 242.61C251.71 242.06 251.48 241.66 251.22 241.67C250.96 241.68 250.78 242.15 250.8 242.67Z" fill="black"/>
<path d="M244.83 256.061C244.83 256.061 240.93 254.681 238.45 253.611C235.97 252.541 242.11 262.771 244.83 256.061Z" fill="#EDA682"/>
<path d="M239.72 498.8L241.66 512.62C241.66 512.62 244.78 521.78 247.66 518.23C249.321 516.163 251.263 514.339 253.43 512.81L254.38 498.45L239.72 498.8Z" fill="#FFC9AE"/>
<path d="M193.55 497.74L189.25 511.52C189.25 511.52 185.98 514.39 184.8 514.32C182.65 514.18 181.52 510.47 181.52 510.47L181.17 497.74H193.55Z" fill="#FFC9AE"/>
<path d="M254.4 512.74L265.97 522.12C266.56 522.56 266.14 523.3 265.29 523.3L248.22 523.44C248.03 523.459 247.839 523.422 247.668 523.336C247.498 523.249 247.357 523.115 247.26 522.95L245.97 520.31C245.6 519.54 244.86 519.48 244.92 520.31L244.29 522.86C244.29 523.26 240.24 523.15 240.21 522.79C240.107 518.862 240.324 514.933 240.86 511.04C240.914 510.876 241.017 510.732 241.154 510.626C241.291 510.521 241.457 510.46 241.63 510.45C241.806 510.417 241.986 510.423 242.159 510.468C242.332 510.513 242.493 510.596 242.63 510.71C243.78 511.83 247.46 515.18 249.43 514.5C250.689 514.088 251.883 513.502 252.98 512.76C253.186 512.611 253.433 512.528 253.687 512.525C253.941 512.521 254.19 512.596 254.4 512.74Z" fill="#48393E"/>
<path d="M181.36 510L174.79 521C174.627 521.264 174.524 521.56 174.487 521.867C174.449 522.174 174.479 522.486 174.575 522.781C174.67 523.076 174.827 523.346 175.037 523.574C175.247 523.802 175.504 523.981 175.79 524.1C177.79 525.32 179.52 527.76 180.79 527.8C183.13 527.86 186.79 525.41 188.88 524.48C190.3 523.86 191.41 522.96 191.23 521.77L189.6 510.77C189.6 510.64 189.34 510.58 189.22 510.69L186.7 512.97C185.88 513.72 183.64 513.62 183.09 512.72C182.69 512.09 181.76 510.03 181.76 510.03C181.739 509.997 181.711 509.97 181.677 509.95C181.644 509.93 181.606 509.918 181.568 509.915C181.529 509.912 181.49 509.918 181.454 509.933C181.418 509.948 181.386 509.971 181.36 510Z" fill="#48393E"/>
<path d="M220.37 313.06C215.06 322.44 208.1 332.46 205.05 344.38C201.52 358.21 181.3 475.68 179.63 500.83C183.99 501.88 190.52 501.2 193.28 501.04C202.03 475.95 228.5 384.04 232.28 368.21C232.85 365.78 236.61 366.31 236.28 368.79C234.15 386.85 239.58 453.51 239.58 503.03C241.86 504.19 251.79 503.36 254.43 503.03C257.3 472.03 273.19 353.45 250.19 315.45C239.7 314 231.03 312.75 220.37 313.06Z" fill="#1B314F"/>
<path d="M245.42 265.75C246.42 266.57 256.19 289.55 255.83 296.83C255.47 304.11 259.26 318.15 259.26 318.15C259.26 318.15 247.38 322.61 215.99 317.67C208.23 300.95 203.81 281.26 214.14 270.84C214.14 270.84 228.34 261.91 231 261.71C231 261.71 240.41 275.33 244.29 275.28C246.07 275.25 245.62 268.35 245.42 265.75Z" fill="#84A075"/>
<path d="M229.46 262.42L229.68 256.88L249.68 261.75L248.35 268.18C248.35 268.18 255 283.48 246.58 281.04C238.16 278.6 229.46 262.42 229.46 262.42Z" fill="#84A075"/>
<path d="M217.04 279.81C218.98 289.76 223.04 299.23 225.78 308.96C226.76 312.414 227.707 315.87 228.62 319.33C224.99 318.96 220.82 318.43 216.01 317.67C209.87 304.44 209.51 285.75 214.75 273.36L217.04 279.81Z" fill="#39194B"/>
<path d="M256.61 328.951C256.61 328.951 213.33 337.491 210.95 329.741L207.88 305.581L226.8 300.061L229.01 317.311C228.79 317.801 262.01 321.201 262.01 321.201C262.01 321.201 268.75 321.141 272.54 322.961C272.74 323.061 280.19 328.621 282.54 331.961L268.37 332.961C266.89 332.951 256.61 328.951 256.61 328.951Z" fill="#FFC9AE"/>
<path d="M222.26 268.95C222.26 268.95 229.06 273.89 227.77 280.15C226.48 286.41 227.29 301.44 227.29 301.44L207.29 306.59C207.29 306.59 195.04 267.51 222.26 268.95Z" fill="#84A075"/>
<path d="M249.47 201.62C248.86 178.31 245.47 69.0498 245.47 69.0498C115.26 73.8598 16.3599 97.3398 16.3599 125.57C16.3599 147.67 77.9899 226.88 165.72 210.2V207.39C191.52 204.6 219.7 202.63 249.47 201.62Z" fill="#B5A392"/>
<path opacity="0.15" d="M165.72 210.2V207.39C191.04 204.66 218.67 202.71 247.83 201.68C246.73 164.96 245.49 125.07 245.46 125.07C149.16 128.62 70.0301 142.39 35.3201 160.73C60.0101 189.59 107.02 221.36 165.72 210.2Z" fill="#A19183"/>
<path d="M211.69 36.8901H135.43C134.044 36.8901 132.92 38.0139 132.92 39.4001V134.46C132.92 135.846 134.044 136.97 135.43 136.97H211.69C213.076 136.97 214.2 135.846 214.2 134.46V39.4001C214.2 38.0139 213.076 36.8901 211.69 36.8901Z" fill="#1A374D"/>
<path d="M191.08 63.95V48.52C186.987 48.52 183.061 50.1454 180.166 53.0388C177.27 55.9322 175.643 59.8568 175.64 63.95C175.639 65.9785 176.037 67.9873 176.812 69.8617C177.588 71.7361 178.725 73.4394 180.159 74.8742C181.593 76.309 183.295 77.4472 185.169 78.2238C187.043 79.0003 189.051 79.4 191.08 79.4C195.176 79.3974 199.103 77.7684 201.998 74.8713C204.894 71.9741 206.52 68.0459 206.52 63.95H191.08Z" fill="#F6EEE3"/>
<path d="M207.19 59.8101C207.19 58.078 206.849 56.3628 206.186 54.7625C205.523 53.1622 204.552 51.7082 203.327 50.4834C202.102 49.2586 200.648 48.287 199.048 47.6241C197.447 46.9613 195.732 46.6201 194 46.6201V59.8101H207.19Z" fill="#EB8D2E"/>
<path d="M167.89 52.6599H143.11C142.948 52.6599 142.793 52.5957 142.679 52.4813C142.564 52.3669 142.5 52.2117 142.5 52.0499C142.5 51.8882 142.564 51.733 142.679 51.6186C142.793 51.5042 142.948 51.4399 143.11 51.4399H167.89C168.052 51.4399 168.207 51.5042 168.321 51.6186C168.436 51.733 168.5 51.8882 168.5 52.0499C168.5 52.2117 168.436 52.3669 168.321 52.4813C168.207 52.5957 168.052 52.6599 167.89 52.6599Z" fill="#F6EEE3"/>
<path d="M194.8 122.25H174.13C174.049 122.251 173.969 122.236 173.893 122.206C173.818 122.176 173.75 122.132 173.692 122.075C173.634 122.018 173.589 121.95 173.557 121.876C173.526 121.801 173.51 121.721 173.51 121.64C173.51 121.559 173.526 121.479 173.557 121.404C173.589 121.329 173.634 121.262 173.692 121.205C173.75 121.148 173.818 121.103 173.893 121.073C173.969 121.043 174.049 121.029 174.13 121.03H194.8C194.962 121.03 195.117 121.094 195.231 121.209C195.346 121.323 195.41 121.478 195.41 121.64C195.41 121.802 195.346 121.957 195.231 122.071C195.117 122.186 194.962 122.25 194.8 122.25Z" fill="#F6EEE3"/>
<path d="M165.33 67.8098H143.11C142.948 67.8098 142.793 67.7456 142.679 67.6312C142.564 67.5168 142.5 67.3616 142.5 67.1998C142.5 67.0381 142.564 66.8829 142.679 66.7685C142.793 66.6541 142.948 66.5898 143.11 66.5898H165.33C165.492 66.5898 165.647 66.6541 165.761 66.7685C165.876 66.8829 165.94 67.0381 165.94 67.1998C165.94 67.3616 165.876 67.5168 165.761 67.6312C165.647 67.7456 165.492 67.8098 165.33 67.8098Z" fill="#F6EEE3"/>
<path d="M171.51 80.01H143.11C142.948 80.01 142.793 79.9458 142.679 79.8314C142.564 79.717 142.5 79.5618 142.5 79.4C142.5 79.2383 142.564 79.0831 142.679 78.9687C142.793 78.8543 142.948 78.79 143.11 78.79H171.51C171.672 78.79 171.827 78.8543 171.941 78.9687C172.056 79.0831 172.12 79.2383 172.12 79.4C172.12 79.4801 172.104 79.5595 172.074 79.6335C172.043 79.7075 171.998 79.7747 171.941 79.8314C171.885 79.888 171.817 79.933 171.743 79.9636C171.669 79.9943 171.59 80.01 171.51 80.01Z" fill="#F6EEE3"/>
<path d="M194.8 92.3201H143.11C142.948 92.3201 142.793 92.2558 142.679 92.1414C142.564 92.027 142.5 91.8719 142.5 91.7101C142.5 91.5483 142.564 91.3932 142.679 91.2788C142.793 91.1644 142.948 91.1001 143.11 91.1001H194.8C194.962 91.1001 195.117 91.1644 195.231 91.2788C195.346 91.3932 195.41 91.5483 195.41 91.7101C195.41 91.8719 195.346 92.027 195.231 92.1414C195.117 92.2558 194.962 92.3201 194.8 92.3201Z" fill="#F6EEE3"/>
<path d="M194.8 105.63H143.11C142.948 105.63 142.793 105.566 142.679 105.451C142.564 105.337 142.5 105.182 142.5 105.02C142.5 104.858 142.564 104.703 142.679 104.589C142.793 104.474 142.948 104.41 143.11 104.41H194.8C194.962 104.41 195.117 104.474 195.231 104.589C195.346 104.703 195.41 104.858 195.41 105.02C195.41 105.182 195.346 105.337 195.231 105.451C195.117 105.566 194.962 105.63 194.8 105.63Z" fill="#F6EEE3"/>
<path d="M265.26 76.9501H265.04C264.565 76.8923 264.131 76.6505 263.832 76.2766C263.533 75.9027 263.392 75.4265 263.44 74.9501L265.03 61.6001L252.09 65.8401C251.861 65.9151 251.62 65.9443 251.381 65.9261C251.141 65.9078 250.907 65.8425 250.692 65.7339C250.478 65.6252 250.287 65.4753 250.13 65.2928C249.974 65.1103 249.855 64.8987 249.78 64.6701C249.705 64.4416 249.676 64.2006 249.694 63.9608C249.712 63.721 249.778 63.4871 249.886 63.2726C249.995 63.0581 250.145 62.867 250.327 62.7105C250.51 62.5539 250.721 62.4348 250.95 62.3601L265.87 57.4701C266.243 57.3436 266.642 57.3149 267.028 57.3867C267.415 57.4585 267.777 57.6284 268.08 57.8801C268.386 58.1284 268.624 58.4506 268.771 58.8163C268.918 59.182 268.969 59.5791 268.92 59.9701L267.08 75.3801C267.017 75.8174 266.798 76.2172 266.464 76.5058C266.129 76.7943 265.702 76.9522 265.26 76.9501Z" fill="#5C69AB"/>
<path d="M156.15 104.03H105.4C103.876 104.03 102.64 105.265 102.64 106.79V151.25C102.64 152.774 103.876 154.01 105.4 154.01H156.15C157.674 154.01 158.91 152.774 158.91 151.25V106.79C158.91 105.265 157.674 104.03 156.15 104.03Z" fill="#DCDFEE"/>
<path d="M147.485 115H114.515C113.678 115 113 115.665 113 116.486V138.514C113 139.335 113.678 140 114.515 140H147.485C148.322 140 149 139.335 149 138.514V116.486C149 115.665 148.322 115 147.485 115Z" fill="#F6EEE3"/>
<path d="M113.58 140C113.495 139.998 113.411 139.978 113.334 139.942C113.256 139.906 113.187 139.855 113.131 139.792C113.034 139.673 112.988 139.521 113.003 139.369C113.017 139.217 113.09 139.077 113.207 138.978L129.905 125.131C130.01 125.046 130.142 125 130.277 125C130.413 125 130.545 125.046 130.65 125.131L147.787 138.817C147.905 138.915 147.981 139.055 147.997 139.207C148.013 139.359 147.968 139.511 147.873 139.631C147.825 139.69 147.765 139.739 147.698 139.776C147.63 139.812 147.556 139.835 147.48 139.843C147.404 139.851 147.327 139.843 147.253 139.822C147.179 139.8 147.111 139.764 147.051 139.716L130.287 126.333L113.962 139.83C113.858 139.927 113.723 139.987 113.58 140Z" fill="#5C69AB"/>
<path d="M113.06 115.56L126.55 126.29C127.746 127.248 129.233 127.771 130.765 127.771C132.298 127.771 133.784 127.248 134.98 126.29L148.49 115.44" fill="#F6EEE3"/>
<path d="M130.478 128C128.886 127.996 127.343 127.449 126.103 126.448L113.217 116.171C113.157 116.123 113.107 116.063 113.071 115.996C113.034 115.928 113.011 115.854 113.003 115.778C112.995 115.701 113.002 115.624 113.024 115.55C113.046 115.476 113.082 115.407 113.131 115.348C113.178 115.287 113.236 115.237 113.302 115.2C113.368 115.162 113.441 115.138 113.517 115.129C113.592 115.12 113.669 115.127 113.742 115.148C113.815 115.169 113.884 115.204 113.943 115.252L126.829 125.539C127.867 126.377 129.159 126.835 130.492 126.835C131.825 126.835 133.118 126.377 134.156 125.539L147.051 115.127C147.112 115.079 147.18 115.044 147.254 115.023C147.328 115.001 147.406 114.995 147.482 115.004C147.558 115.013 147.632 115.037 147.699 115.074C147.766 115.112 147.825 115.163 147.873 115.223C147.968 115.345 148.013 115.499 147.997 115.653C147.981 115.806 147.905 115.948 147.787 116.047L134.891 126.439C133.64 127.448 132.083 127.999 130.478 128Z" fill="#5C69AB"/>
<path d="M573.2 125.57C573.2 101.33 500.3 80.5699 397.2 72.1699C396.78 72.1699 396.54 169.09 396.57 198.33C426.86 200.78 454.57 204.33 478.57 208.64C536.15 194.15 573.2 142.71 573.2 125.57Z" fill="#B5A392"/>
<path opacity="0.15" d="M550.93 164.45C521.81 150.4 466.26 139.22 397.26 133.58C397.02 133.58 396.84 165.58 396.73 198.34C426.98 200.79 454.64 204.34 478.65 208.64C509.46 200.88 534.41 182.48 550.93 164.45Z" fill="#2D2D30"/>
<path d="M479.12 111.02H434.21C432.824 111.02 431.7 112.144 431.7 113.53V158.44C431.7 159.826 432.824 160.95 434.21 160.95H479.12C480.506 160.95 481.63 159.826 481.63 158.44V113.53C481.63 112.144 480.506 111.02 479.12 111.02Z" fill="#1A374D"/>
<path d="M458.65 150.36C458.347 150.36 458.057 150.242 457.84 150.03C457.722 149.92 457.629 149.787 457.565 149.639C457.502 149.491 457.469 149.331 457.47 149.17V134.95H443.26C443.103 134.949 442.948 134.917 442.803 134.855C442.659 134.794 442.529 134.703 442.42 134.59C442.312 134.48 442.227 134.348 442.172 134.204C442.117 134.059 442.092 133.905 442.1 133.75C442.182 131.552 442.716 129.395 443.67 127.413C444.623 125.431 445.974 123.666 447.64 122.23C449.309 120.779 451.262 119.693 453.375 119.04C455.488 118.388 457.714 118.183 459.91 118.44C463.505 118.854 466.854 120.475 469.41 123.037C471.965 125.6 473.576 128.954 473.98 132.55C474.239 134.744 474.036 136.968 473.385 139.079C472.734 141.191 471.649 143.142 470.2 144.81C468.766 146.476 467.003 147.829 465.023 148.784C463.043 149.739 460.887 150.275 458.69 150.36H458.65ZM458.08 133.76H458.69V149.17C460.708 149.068 462.684 148.559 464.501 147.674C466.317 146.789 467.936 145.546 469.26 144.02C470.597 142.478 471.597 140.673 472.196 138.722C472.795 136.771 472.981 134.717 472.74 132.69C472.361 129.373 470.87 126.282 468.509 123.921C466.148 121.56 463.057 120.069 459.74 119.69C457.711 119.45 455.654 119.636 453.701 120.237C451.749 120.838 449.943 121.841 448.4 123.18C446.861 124.509 445.613 126.14 444.732 127.972C443.851 129.805 443.357 131.799 443.28 133.83L458.08 133.76Z" fill="#F6EEE3"/>
<path d="M454.5 154.46H454.45C450.148 154.263 446.075 152.465 443.03 149.42C439.985 146.375 438.187 142.302 437.99 138C437.984 137.829 438.013 137.658 438.075 137.498C438.137 137.339 438.23 137.193 438.35 137.07C438.471 136.946 438.616 136.848 438.775 136.781C438.935 136.714 439.107 136.679 439.28 136.68H454.5C454.837 136.68 455.16 136.814 455.398 137.052C455.636 137.29 455.77 137.613 455.77 137.95V153.18C455.769 153.352 455.735 153.522 455.668 153.679C455.601 153.837 455.503 153.98 455.38 154.1C455.144 154.33 454.829 154.459 454.5 154.46ZM439.26 137.95H439.2C439.374 141.948 441.039 145.735 443.868 148.566C446.696 151.396 450.482 153.064 454.48 153.24L454.53 137.95H439.26Z" fill="#EB8D2E"/>
<path d="M548.86 50.8901H477.46C475.936 50.8901 474.7 52.1258 474.7 53.6501V118.61C474.7 120.134 475.936 121.37 477.46 121.37H548.86C550.384 121.37 551.62 120.134 551.62 118.61V53.6501C551.62 52.1258 550.384 50.8901 548.86 50.8901Z" fill="#DCDFEE"/>
<path d="M513.16 108.63C525.586 108.63 535.66 98.5563 535.66 86.1299C535.66 73.7035 525.586 63.6299 513.16 63.6299C500.734 63.6299 490.66 73.7035 490.66 86.1299C490.66 98.5563 500.734 108.63 513.16 108.63Z" fill="#F6EEE3"/>
<path d="M520.9 86.7402H512.55V73.5902C512.546 73.5076 512.559 73.425 512.588 73.3475C512.616 73.27 512.661 73.1992 512.718 73.1393C512.775 73.0795 512.843 73.0318 512.919 72.9993C512.996 72.9668 513.077 72.9501 513.16 72.9502C513.322 72.9502 513.477 73.0145 513.591 73.1289C513.706 73.2433 513.77 73.3984 513.77 73.5602V85.5202H520.9C521.062 85.5202 521.217 85.5845 521.331 85.6989C521.446 85.8133 521.51 85.9684 521.51 86.1302C521.51 86.2103 521.494 86.2896 521.464 86.3636C521.433 86.4376 521.388 86.5049 521.331 86.5615C521.275 86.6182 521.208 86.6631 521.134 86.6938C521.059 86.7244 520.98 86.7402 520.9 86.7402Z" fill="#5C69AB"/>
<path d="M405.69 147.96C414.377 147.96 421.42 140.917 421.42 132.23C421.42 123.543 414.377 116.5 405.69 116.5C397.003 116.5 389.96 123.543 389.96 132.23C389.96 140.917 397.003 147.96 405.69 147.96Z" fill="#F8D4B1"/>
<path d="M405.38 136.68C405.184 136.682 404.989 136.645 404.807 136.572C404.625 136.498 404.459 136.389 404.32 136.25L398.71 130.64C398.596 130.524 398.532 130.368 398.532 130.205C398.532 130.042 398.596 129.886 398.71 129.77C398.766 129.713 398.833 129.667 398.907 129.636C398.98 129.605 399.06 129.589 399.14 129.589C399.22 129.589 399.299 129.605 399.373 129.636C399.447 129.667 399.514 129.713 399.57 129.77L405.19 135.38C405.214 135.406 405.244 135.427 405.276 135.441C405.309 135.455 405.344 135.463 405.38 135.463C405.416 135.463 405.451 135.455 405.484 135.441C405.516 135.427 405.546 135.406 405.57 135.38L420.27 120.68C420.326 120.623 420.393 120.577 420.467 120.546C420.54 120.515 420.62 120.499 420.7 120.499C420.78 120.499 420.859 120.515 420.933 120.546C421.007 120.577 421.074 120.623 421.13 120.68C421.244 120.796 421.308 120.952 421.308 121.115C421.308 121.278 421.244 121.434 421.13 121.55L406.43 136.25C406.292 136.387 406.128 136.496 405.948 136.57C405.768 136.643 405.575 136.681 405.38 136.68Z" fill="#111111"/>
<path d="M410 46.9502C408.859 46.9502 407.764 47.4029 406.956 48.209C406.148 49.0151 405.693 50.1088 405.69 51.2502V80.7102C405.693 81.8524 406.148 82.9472 406.955 83.7549C407.763 84.5626 408.858 85.0175 410 85.0202H417.87C419.502 85.0202 421.067 85.6678 422.222 86.8208C423.377 87.9739 424.027 89.5382 424.03 91.1702V98.1702C424.024 98.5859 424.144 98.9938 424.374 99.34C424.605 99.6863 424.934 99.9548 425.32 100.11C425.703 100.274 426.126 100.319 426.534 100.239C426.943 100.158 427.318 99.9568 427.61 99.6602L440.44 86.8202C441.602 85.6737 443.167 85.0277 444.8 85.0202H460.58C461.723 85.0202 462.819 84.5661 463.628 83.7578C464.436 82.9495 464.89 81.8532 464.89 80.7102V51.2102C464.887 50.0688 464.432 48.9751 463.624 48.169C462.816 47.3629 461.721 46.9102 460.58 46.9102L410 46.9502Z" fill="#F8D4B1"/>
<path d="M422.09 71.3001C421.545 71.3014 421.006 71.1953 420.503 70.9878C419.999 70.7803 419.542 70.4756 419.156 70.091C418.771 69.7065 418.465 69.2496 418.256 68.7467C418.047 68.2437 417.94 67.7046 417.94 67.1601C417.943 66.0612 418.381 65.0082 419.159 64.232C419.937 63.4559 420.991 63.0201 422.09 63.0201C422.636 63.0174 423.177 63.1225 423.682 63.3293C424.187 63.536 424.646 63.8404 425.034 64.225C425.421 64.6095 425.729 65.0667 425.939 65.5704C426.15 66.074 426.259 66.6142 426.26 67.1601C426.26 67.7063 426.152 68.2471 425.942 68.7513C425.732 69.2556 425.424 69.7133 425.037 70.0981C424.649 70.483 424.189 70.7873 423.683 70.9936C423.178 71.1999 422.636 71.304 422.09 71.3001ZM422.09 64.2401C421.316 64.2401 420.573 64.5477 420.025 65.0953C419.478 65.6429 419.17 66.3856 419.17 67.1601C419.17 67.9345 419.478 68.6772 420.025 69.2248C420.573 69.7724 421.316 70.0801 422.09 70.0801C422.864 70.0801 423.607 69.7724 424.155 69.2248C424.702 68.6772 425.01 67.9345 425.01 67.1601C425.01 66.3856 424.702 65.6429 424.155 65.0953C423.607 64.5477 422.864 64.2401 422.09 64.2401Z" fill="#111111"/>
<path d="M435.26 71.3C434.716 71.3013 434.176 71.1952 433.673 70.9878C433.169 70.7803 432.712 70.4755 432.326 70.091C431.941 69.7064 431.635 69.2496 431.426 68.7466C431.218 68.2437 431.11 67.7045 431.11 67.16C431.113 66.0611 431.551 65.0081 432.329 64.232C433.107 63.4559 434.161 63.02 435.26 63.02C436.357 63.0227 437.409 63.4597 438.185 64.2355C438.96 65.0113 439.397 66.0628 439.4 67.16C439.4 68.258 438.964 69.311 438.188 70.0874C437.411 70.8638 436.358 71.3 435.26 71.3ZM435.26 64.24C434.877 64.24 434.497 64.3155 434.143 64.4623C433.788 64.609 433.466 64.8241 433.195 65.0953C432.924 65.3664 432.709 65.6883 432.562 66.0426C432.416 66.3969 432.34 66.7766 432.34 67.16C432.34 67.5435 432.416 67.9232 432.562 68.2775C432.709 68.6317 432.924 68.9536 433.195 69.2248C433.466 69.4959 433.788 69.711 434.143 69.8577C434.497 70.0045 434.877 70.08 435.26 70.08C435.643 70.08 436.022 70.0044 436.376 69.8576C436.73 69.7107 437.051 69.4954 437.321 69.2242C437.592 68.9529 437.806 68.6309 437.951 68.2767C438.097 67.9225 438.171 67.543 438.17 67.16C438.171 66.777 438.097 66.3976 437.951 66.0433C437.806 65.6891 437.592 65.3672 437.321 65.0959C437.051 64.8246 436.73 64.6093 436.376 64.4625C436.022 64.3156 435.643 64.24 435.26 64.24Z" fill="#111111"/>
<path d="M448.26 71.3C447.162 71.3 446.109 70.8638 445.333 70.0874C444.556 69.311 444.12 68.258 444.12 67.16C444.12 66.062 444.556 65.009 445.333 64.2326C446.109 63.4562 447.162 63.02 448.26 63.02C449.357 63.0227 450.409 63.4597 451.185 64.2355C451.96 65.0113 452.398 66.0628 452.4 67.16C452.4 68.258 451.964 69.311 451.188 70.0874C450.411 70.8638 449.358 71.3 448.26 71.3ZM448.26 64.24C447.87 64.2293 447.482 64.297 447.118 64.4389C446.755 64.5809 446.423 64.7942 446.143 65.0665C445.864 65.3387 445.642 65.6642 445.49 66.0238C445.338 66.3834 445.26 66.7697 445.26 67.16C445.26 67.5503 445.338 67.9367 445.49 68.2962C445.642 68.6558 445.864 68.9814 446.143 69.2536C446.423 69.5258 446.755 69.7392 447.118 69.8811C447.482 70.0231 447.87 70.0907 448.26 70.08C449.035 70.08 449.777 69.7724 450.325 69.2248C450.872 68.6772 451.18 67.9345 451.18 67.16C451.18 66.3856 450.872 65.6429 450.325 65.0953C449.777 64.5477 449.035 64.24 448.26 64.24Z" fill="#111111"/>
<path d="M70.5701 75.0298C69.907 75.0298 69.2711 75.2932 68.8023 75.762C68.3335 76.2309 68.0701 76.8667 68.0701 77.5298V94.6298C68.0701 95.2928 68.3335 95.9287 68.8023 96.3976C69.2711 96.8664 69.907 97.1298 70.5701 97.1298H79.73C80.6677 97.1251 81.5707 97.4835 82.2501 98.1298L89.6901 105.58C89.8605 105.751 90.0782 105.867 90.3152 105.913C90.5523 105.96 90.7978 105.934 91.0201 105.84C91.2429 105.75 91.4335 105.595 91.5672 105.395C91.7009 105.195 91.7716 104.96 91.7701 104.72V100.7C91.7701 99.753 92.1462 98.8449 92.8157 98.1754C93.4852 97.5059 94.3933 97.1298 95.3401 97.1298H99.9001C100.563 97.1298 101.199 96.8664 101.668 96.3976C102.137 95.9287 102.4 95.2928 102.4 94.6298V77.5298C102.4 76.8667 102.137 76.2309 101.668 75.762C101.199 75.2932 100.563 75.0298 99.9001 75.0298H70.5701Z" fill="#F8D4B1"/>
<path d="M92.89 89.4301C92.1907 89.4248 91.5218 89.1433 91.0291 88.6469C90.5365 88.1505 90.26 87.4795 90.26 86.7801C90.26 86.0764 90.5389 85.4013 91.0356 84.9027C91.5323 84.4042 92.2063 84.1228 92.91 84.1201C93.6155 84.1201 94.292 84.4004 94.7909 84.8992C95.2897 85.3981 95.57 86.0746 95.57 86.7801C95.5687 87.1303 95.4982 87.4767 95.3627 87.7996C95.2272 88.1225 95.0293 88.4154 94.7803 88.6617C94.5313 88.9079 94.2362 89.1025 93.9118 89.2344C93.5874 89.3662 93.2402 89.4328 92.89 89.4301ZM92.89 85.3401C92.7014 85.3401 92.5146 85.3774 92.3405 85.4499C92.1663 85.5224 92.0082 85.6286 91.8753 85.7625C91.7424 85.8963 91.6373 86.0552 91.566 86.2298C91.4947 86.4045 91.4587 86.5915 91.46 86.7801C91.46 87.1594 91.6107 87.5231 91.8788 87.7913C92.147 88.0595 92.5108 88.2101 92.89 88.2101C93.0786 88.2114 93.2657 88.1754 93.4403 88.1041C93.615 88.0329 93.7738 87.9278 93.9077 87.7948C94.0415 87.6619 94.1477 87.5038 94.2202 87.3297C94.2927 87.1555 94.33 86.9688 94.33 86.7801C94.3313 86.5906 94.295 86.4028 94.2231 86.2275C94.1512 86.0522 94.0452 85.8929 93.9112 85.7589C93.7772 85.6249 93.6179 85.5189 93.4426 85.447C93.2673 85.3751 93.0795 85.3388 92.89 85.3401Z" fill="#111111"/>
<path d="M85.2599 89.4301C84.5571 89.4301 83.883 89.1509 83.386 88.6539C82.8891 88.157 82.6099 87.4829 82.6099 86.7801C82.6099 86.0764 82.8888 85.4013 83.3854 84.9027C83.8821 84.4042 84.5561 84.1228 85.2599 84.1201C85.9654 84.1201 86.642 84.4004 87.1408 84.8992C87.6397 85.3981 87.9199 86.0746 87.9199 86.7801C87.9172 87.4839 87.6358 88.1579 87.1373 88.6546C86.6387 89.1512 85.9636 89.4301 85.2599 89.4301ZM85.2599 85.3401C85.0713 85.3401 84.8845 85.3774 84.7103 85.4499C84.5362 85.5224 84.3781 85.6286 84.2452 85.7625C84.1123 85.8963 84.0071 86.0552 83.9359 86.2298C83.8646 86.4045 83.8286 86.5915 83.8299 86.7801C83.8299 87.1594 83.9805 87.5231 84.2487 87.7913C84.5169 88.0595 84.8806 88.2101 85.2599 88.2101C85.4485 88.2114 85.6355 88.1754 85.8102 88.1041C85.9848 88.0329 86.1437 87.9278 86.2775 87.7948C86.4114 87.6619 86.5176 87.5038 86.5901 87.3297C86.6626 87.1555 86.6999 86.9688 86.6999 86.7801C86.7012 86.5906 86.6649 86.4028 86.593 86.2275C86.5211 86.0522 86.415 85.8929 86.2811 85.7589C86.1471 85.6249 85.9878 85.5189 85.8125 85.447C85.6372 85.3751 85.4494 85.3388 85.2599 85.3401Z" fill="#111111"/>
<path d="M77.7401 89.4301C77.0363 89.4301 76.3612 89.1512 75.8627 88.6546C75.3641 88.1579 75.0827 87.4839 75.0801 86.7801C75.0827 86.0755 75.3638 85.4004 75.8621 84.9021C76.3603 84.4038 77.0354 84.1228 77.7401 84.1201C78.4455 84.1201 79.1221 84.4004 79.621 84.8992C80.1198 85.3981 80.4001 86.0746 80.4001 86.7801C80.3974 87.4839 80.116 88.1579 79.6174 88.6546C79.1189 89.1512 78.4438 89.4301 77.7401 89.4301ZM77.7401 85.3401C77.5514 85.3401 77.3646 85.3774 77.1905 85.4499C77.0163 85.5224 76.8583 85.6286 76.7253 85.7625C76.5924 85.8963 76.4873 86.0552 76.416 86.2298C76.3447 86.4045 76.3087 86.5915 76.3101 86.7801C76.3101 87.1594 76.4607 87.5231 76.7289 87.7913C76.9971 88.0595 77.3608 88.2101 77.7401 88.2101C78.1202 88.2101 78.485 88.0598 78.7548 87.7919C79.0245 87.524 79.1774 87.1603 79.1801 86.7801C79.1801 86.591 79.1428 86.4038 79.0704 86.2291C78.9981 86.0543 78.892 85.8956 78.7583 85.7619C78.6246 85.6282 78.4658 85.5221 78.2911 85.4497C78.1164 85.3774 77.9292 85.3401 77.7401 85.3401Z" fill="#111111"/>
<path d="M254.67 11.7501C254.67 12.6554 254.311 13.5238 253.672 14.1649C253.033 14.8059 252.165 15.1674 251.26 15.1701C250.353 15.1701 249.483 14.8098 248.842 14.1684C248.2 13.527 247.84 12.6571 247.84 11.7501C247.84 10.843 248.2 9.97315 248.842 9.33178C249.483 8.69041 250.353 8.33008 251.26 8.33008C252.165 8.33273 253.033 8.69422 253.672 9.3353C254.311 9.97639 254.67 10.8448 254.67 11.7501Z" fill="#EB8D2E"/>
<path d="M15.66 342.79C17.5488 342.79 19.08 341.259 19.08 339.37C19.08 337.481 17.5488 335.95 15.66 335.95C13.7712 335.95 12.24 337.481 12.24 339.37C12.24 341.259 13.7712 342.79 15.66 342.79Z" fill="#EB8D2E"/>
<path d="M496.67 350.44C496.67 351.347 496.31 352.217 495.668 352.858C495.027 353.5 494.157 353.86 493.25 353.86C492.343 353.86 491.473 353.5 490.832 352.858C490.19 352.217 489.83 351.347 489.83 350.44C489.83 349.991 489.919 349.546 490.09 349.131C490.262 348.716 490.514 348.339 490.832 348.022C491.149 347.704 491.526 347.452 491.941 347.28C492.356 347.108 492.801 347.02 493.25 347.02C493.699 347.02 494.144 347.108 494.559 347.28C494.974 347.452 495.351 347.704 495.668 348.022C495.986 348.339 496.238 348.716 496.41 349.131C496.582 349.546 496.67 349.991 496.67 350.44Z" fill="#EB8D2E"/>
<path d="M576.62 18.5899C576.617 19.4952 576.256 20.3625 575.615 21.0018C574.974 21.641 574.105 21.9999 573.2 21.9999C572.295 21.9999 571.426 21.641 570.785 21.0018C570.144 20.3625 569.783 19.4952 569.78 18.5899C569.78 17.6829 570.14 16.813 570.782 16.1716C571.423 15.5302 572.293 15.1699 573.2 15.1699C574.107 15.1699 574.977 15.5302 575.618 16.1716C576.26 16.813 576.62 17.6829 576.62 18.5899Z" fill="#EB8D2E"/>
<path d="M592.1 101.95C592.101 102.175 592.058 102.398 591.972 102.606C591.887 102.814 591.761 103.003 591.602 103.162C591.443 103.321 591.254 103.447 591.046 103.533C590.838 103.618 590.615 103.661 590.39 103.66C589.936 103.66 589.501 103.48 589.181 103.159C588.86 102.838 588.68 102.404 588.68 101.95C588.683 101.498 588.864 101.066 589.184 100.747C589.505 100.429 589.938 100.25 590.39 100.25C590.614 100.249 590.836 100.292 591.044 100.377C591.251 100.461 591.44 100.586 591.598 100.744C591.757 100.902 591.884 101.09 591.97 101.297C592.056 101.504 592.1 101.726 592.1 101.95Z" fill="#5C69AB"/>
<path d="M590.39 104.3C590.083 104.3 589.779 104.239 589.495 104.12C589.212 104.002 588.955 103.828 588.739 103.61C588.523 103.391 588.353 103.132 588.238 102.847C588.123 102.562 588.066 102.257 588.07 101.95C588.073 101.335 588.318 100.747 588.752 100.312C589.187 99.8778 589.776 99.6325 590.39 99.6299C591.005 99.6325 591.593 99.8778 592.028 100.312C592.462 100.747 592.707 101.335 592.71 101.95C592.714 102.257 592.657 102.562 592.542 102.847C592.427 103.132 592.257 103.391 592.041 103.61C591.825 103.828 591.568 104.002 591.285 104.12C591.001 104.239 590.697 104.3 590.39 104.3ZM590.39 100.89C590.246 100.885 590.102 100.908 589.967 100.958C589.833 101.009 589.709 101.086 589.604 101.184C589.499 101.283 589.414 101.401 589.355 101.533C589.296 101.664 589.264 101.806 589.26 101.95C589.259 102.094 589.286 102.237 589.34 102.37C589.394 102.503 589.474 102.625 589.576 102.727C589.677 102.829 589.798 102.911 589.931 102.966C590.063 103.021 590.206 103.05 590.35 103.05C590.642 103.05 590.922 102.934 591.128 102.728C591.334 102.521 591.45 102.242 591.45 101.95C591.442 101.671 591.328 101.406 591.131 101.209C590.934 101.012 590.669 100.897 590.39 100.89Z" fill="#5C69AB"/>
<path d="M117.13 352.15C117.127 352.603 116.946 353.036 116.626 353.356C116.306 353.676 115.873 353.857 115.42 353.86C114.966 353.86 114.532 353.68 114.211 353.359C113.89 353.038 113.71 352.603 113.71 352.15C113.71 351.696 113.89 351.261 114.211 350.941C114.532 350.62 114.966 350.44 115.42 350.44C115.873 350.443 116.306 350.624 116.626 350.944C116.946 351.264 117.127 351.697 117.13 352.15Z" fill="#5C69AB"/>
<path d="M115.42 354.47C114.805 354.47 114.215 354.226 113.78 353.791C113.345 353.355 113.1 352.765 113.1 352.15C113.1 351.535 113.345 350.945 113.78 350.51C114.215 350.074 114.805 349.83 115.42 349.83C116.035 349.83 116.625 350.074 117.061 350.51C117.496 350.945 117.74 351.535 117.74 352.15C117.74 352.765 117.496 353.355 117.061 353.791C116.625 354.226 116.035 354.47 115.42 354.47ZM115.42 351.05C115.128 351.05 114.849 351.166 114.642 351.372C114.436 351.579 114.32 351.858 114.32 352.15C114.32 352.442 114.436 352.722 114.642 352.928C114.849 353.134 115.128 353.25 115.42 353.25C115.564 353.25 115.707 353.222 115.84 353.166C115.972 353.111 116.093 353.03 116.194 352.927C116.296 352.825 116.376 352.704 116.43 352.57C116.484 352.437 116.511 352.294 116.51 352.15C116.51 351.86 116.396 351.582 116.191 351.376C115.987 351.17 115.71 351.053 115.42 351.05Z" fill="#5C69AB"/>
<path d="M3.72996 56.9799C5.39786 56.9799 6.74996 55.6278 6.74996 53.9599C6.74996 52.292 5.39786 50.9399 3.72996 50.9399C2.06206 50.9399 0.709961 52.292 0.709961 53.9599C0.709961 55.6278 2.06206 56.9799 3.72996 56.9799Z" fill="#5C69AB"/>
<path d="M3.73004 57.5898C2.76639 57.5872 1.84313 57.2025 1.16266 56.5202C0.482188 55.8378 0.100094 54.9135 0.100098 53.9498C0.102737 52.9879 0.486013 52.0661 1.1662 51.3859C1.84638 50.7058 2.76812 50.3225 3.73004 50.3198C4.69197 50.3225 5.61376 50.7058 6.29395 51.3859C6.97413 52.0661 7.35741 52.9879 7.36005 53.9498C7.36005 54.9135 6.97796 55.8378 6.29749 56.5202C5.61701 57.2025 4.6937 57.5872 3.73004 57.5898ZM3.73004 51.5898C3.09944 51.5897 2.49395 51.8367 2.0434 52.2779C1.59284 52.7191 1.33315 53.3194 1.32007 53.9498C1.32007 54.589 1.57398 55.202 2.02594 55.654C2.4779 56.1059 3.09087 56.3598 3.73004 56.3598C4.04653 56.3598 4.35995 56.2975 4.65234 56.1764C4.94474 56.0553 5.21041 55.8777 5.4342 55.654C5.65799 55.4302 5.83549 55.1645 5.9566 54.8721C6.07772 54.5797 6.14008 54.2663 6.14008 53.9498C6.13743 53.3124 5.88234 52.702 5.43066 52.2522C4.97899 51.8024 4.36748 51.5498 3.73004 51.5498V51.5898Z" fill="#5C69AB"/>
<path d="M150.73 0.609863C151.04 0.609863 151.338 0.733128 151.557 0.952545C151.777 1.17196 151.9 1.46956 151.9 1.77986C151.9 2.09016 151.777 2.38776 151.557 2.60718C151.338 2.8266 151.04 2.94986 150.73 2.94986C150.419 2.94722 150.121 2.82174 149.902 2.60073C149.683 2.37972 149.56 2.08109 149.56 1.76986C149.565 1.46211 149.691 1.16857 149.909 0.951859C150.128 0.735149 150.422 0.612428 150.73 0.609863Z" fill="#5C69AB"/>
<path d="M150.73 3.57C150.257 3.56736 149.804 3.3776 149.471 3.0422C149.137 2.70679 148.95 2.25301 148.95 1.78C148.95 1.30791 149.137 0.855162 149.471 0.521347C149.805 0.187532 150.258 2.18279e-10 150.73 2.18279e-10C151.203 -7.38116e-06 151.657 0.187206 151.992 0.520737C152.328 0.854267 152.517 1.307 152.52 1.78C152.52 2.01506 152.474 2.24783 152.384 2.465C152.294 2.68218 152.162 2.8795 151.996 3.04572C151.829 3.21193 151.632 3.34378 151.415 3.43374C151.198 3.52369 150.965 3.57 150.73 3.57ZM150.73 1.21999C150.582 1.22256 150.441 1.28239 150.337 1.38686C150.232 1.49132 150.172 1.63228 150.17 1.78C150.17 1.85354 150.184 1.92636 150.213 1.9943C150.241 2.06224 150.282 2.12398 150.334 2.17598C150.386 2.22798 150.448 2.26923 150.516 2.29737C150.584 2.32551 150.656 2.34 150.73 2.34C150.878 2.34 151.021 2.281 151.126 2.17598C151.231 2.07096 151.29 1.92852 151.29 1.78C151.287 1.63228 151.228 1.49132 151.123 1.38686C151.019 1.28239 150.878 1.22256 150.73 1.21999Z" fill="#5C69AB"/>
<path d="M104.11 45.1998C104.114 45.4273 104.073 45.6534 103.989 45.8649C103.905 46.0764 103.779 46.2691 103.62 46.4319C103.461 46.5947 103.272 46.7243 103.062 46.8132C102.853 46.9021 102.628 46.9485 102.4 46.9498C101.947 46.9472 101.514 46.7662 101.194 46.446C100.874 46.1259 100.693 45.6925 100.69 45.2398C100.69 45.0152 100.734 44.7929 100.82 44.5854C100.906 44.3779 101.032 44.1894 101.191 44.0306C101.35 43.8718 101.538 43.7459 101.746 43.66C101.953 43.574 102.175 43.5298 102.4 43.5298C102.847 43.5297 103.276 43.7043 103.595 44.0164C103.915 44.3285 104.099 44.7532 104.11 45.1998Z" fill="#111111"/>
<path d="M446.4 3.6302C446.4 4.08372 446.22 4.51866 445.899 4.83935C445.578 5.16004 445.144 5.34019 444.69 5.34019C444.465 5.34152 444.242 5.2982 444.034 5.21273C443.826 5.12726 443.637 5.00136 443.478 4.84231C443.319 4.68325 443.193 4.49421 443.107 4.28615C443.022 4.07808 442.979 3.85513 442.98 3.6302C442.988 3.18189 443.171 2.75462 443.491 2.44039C443.811 2.12616 444.242 1.95013 444.69 1.9502C445.138 1.95268 445.567 2.12954 445.886 2.44323C446.205 2.75692 446.39 3.18272 446.4 3.6302Z" fill="#111111"/>
<path d="M593.81 311.36C593.811 311.585 593.768 311.808 593.683 312.016C593.597 312.224 593.471 312.413 593.312 312.572C593.153 312.731 592.964 312.857 592.756 312.942C592.548 313.028 592.325 313.071 592.1 313.07C591.646 313.07 591.212 312.89 590.891 312.569C590.57 312.248 590.39 311.813 590.39 311.36C590.393 310.907 590.574 310.474 590.894 310.154C591.214 309.834 591.647 309.653 592.1 309.65C592.325 309.65 592.547 309.694 592.754 309.78C592.962 309.866 593.15 309.992 593.309 310.151C593.468 310.31 593.594 310.498 593.68 310.706C593.766 310.913 593.81 311.135 593.81 311.36Z" fill="#111111"/>
<path d="M16.3599 125.57V269.69C16.3599 291.79 76.9399 310.97 165.72 320.57V176.45C76.9399 166.85 16.3599 147.67 16.3599 125.57Z" fill="#BADBEE"/>
<path d="M150.14 207.13H150.07C76.8301 199.21 31.3301 183.55 31.3301 166.25C31.3301 166.088 31.3943 165.933 31.5087 165.819C31.6231 165.704 31.7783 165.64 31.9401 165.64C32.1018 165.64 32.257 165.704 32.3714 165.819C32.4858 165.933 32.55 166.088 32.55 166.25C32.55 182.62 78.7301 198.19 150.2 205.91C150.28 205.919 150.358 205.943 150.429 205.982C150.5 206.021 150.562 206.074 150.612 206.137C150.662 206.201 150.7 206.273 150.722 206.351C150.744 206.429 150.75 206.51 150.74 206.59C150.723 206.738 150.653 206.874 150.542 206.974C150.432 207.073 150.289 207.129 150.14 207.13Z" fill="#F6EEE3"/>
<path d="M87.2599 220.75C87.2137 220.759 87.1661 220.759 87.1199 220.75C77.1221 218.524 67.289 215.613 57.6899 212.04C57.6149 212.011 57.5464 211.968 57.4883 211.913C57.4301 211.857 57.3834 211.791 57.3509 211.718C57.3184 211.644 57.3006 211.565 57.2988 211.485C57.2969 211.405 57.3109 211.325 57.3399 211.25C57.3687 211.175 57.412 211.107 57.4673 211.049C57.5226 210.99 57.5888 210.944 57.6622 210.911C57.7356 210.879 57.8147 210.861 57.8949 210.859C57.9752 210.857 58.055 210.871 58.1299 210.9C67.6788 214.448 77.458 217.341 87.3999 219.56C87.5585 219.598 87.6957 219.697 87.7818 219.836C87.8679 219.974 87.8959 220.141 87.8598 220.3C87.8227 220.43 87.744 220.545 87.6356 220.626C87.5273 220.707 87.3953 220.751 87.2599 220.75Z" fill="#F6EEE3"/>
<path d="M150.14 230.95H150.07C134.44 229.26 119.78 227.18 106.51 224.77C106.43 224.757 106.354 224.728 106.286 224.685C106.217 224.642 106.158 224.585 106.111 224.519C106.065 224.453 106.032 224.379 106.015 224.3C105.997 224.221 105.996 224.139 106.01 224.06C106.023 223.98 106.052 223.905 106.095 223.837C106.138 223.769 106.195 223.71 106.261 223.664C106.327 223.619 106.402 223.587 106.481 223.57C106.56 223.554 106.641 223.554 106.72 223.57C119.97 225.97 134.6 228.05 150.2 229.74C150.28 229.747 150.357 229.771 150.428 229.809C150.499 229.847 150.561 229.898 150.611 229.961C150.662 230.023 150.699 230.095 150.721 230.172C150.743 230.249 150.75 230.33 150.74 230.41C150.723 230.558 150.653 230.694 150.542 230.793C150.432 230.893 150.289 230.948 150.14 230.95Z" fill="#1A374D"/>
<path d="M35.3201 268.63L52.1901 274.04V249.98L35.3201 243.5V268.63Z" fill="#1A374D"/>
<path d="M52.7999 274.87L34.71 269.08V227.89L52.7999 234.89V274.87ZM35.9299 268.19L51.58 273.19V235.69L35.9299 229.69V268.19Z" fill="#F6EEE3"/>
<path d="M77.12 282.39L59.02 276.59V253.74L77.12 260.74V282.39ZM60.26 275.7L75.91 280.7V261.53L60.26 255.53V275.7Z" fill="#F6EEE3"/>
<path d="M573.2 125.57V269.69C573.2 287.95 531.85 304.22 467.41 314.69C465.59 314.99 465.24 170.93 466.79 170.69C531.59 160.2 573.2 143.89 573.2 125.57Z" fill="#BADBEE"/>
<path d="M528.34 185.72C528.202 185.72 528.068 185.673 527.959 185.588C527.851 185.503 527.773 185.384 527.74 185.25C527.704 185.091 527.732 184.924 527.818 184.786C527.904 184.647 528.041 184.548 528.2 184.51C543.51 180.87 554.98 176.73 562.3 172.2C562.368 172.158 562.444 172.13 562.523 172.117C562.603 172.104 562.683 172.107 562.761 172.126C562.839 172.145 562.913 172.178 562.978 172.225C563.043 172.272 563.098 172.332 563.14 172.4C563.182 172.468 563.21 172.544 563.223 172.624C563.236 172.703 563.233 172.784 563.214 172.862C563.196 172.94 563.162 173.013 563.115 173.078C563.068 173.143 563.008 173.198 562.94 173.24C555.51 177.84 543.94 182.03 528.48 185.7L528.34 185.72Z" fill="#1A374D"/>
<path d="M529.26 205.41C529.123 205.411 528.989 205.365 528.882 205.279C528.775 205.194 528.7 205.074 528.67 204.94C528.651 204.862 528.647 204.781 528.659 204.701C528.671 204.622 528.699 204.545 528.741 204.476C528.783 204.408 528.838 204.348 528.903 204.3C528.968 204.253 529.042 204.219 529.12 204.2C544.04 200.66 555.22 196.62 562.35 192.2C562.418 192.157 562.494 192.127 562.573 192.114C562.653 192.1 562.734 192.103 562.812 192.122C562.891 192.14 562.965 192.175 563.03 192.223C563.094 192.27 563.149 192.331 563.19 192.4C563.232 192.468 563.26 192.544 563.273 192.623C563.286 192.703 563.283 192.784 563.264 192.862C563.246 192.94 563.212 193.013 563.165 193.078C563.118 193.143 563.058 193.198 562.99 193.24C555.75 197.72 544.45 201.81 529.4 205.38L529.26 205.41Z" fill="#F6EEE3"/>
<path d="M359.54 496.02L357.98 515.24L330.31 521.12L344.58 506.92L348.03 494.87L359.54 496.02Z" fill="#FFC9AE"/>
<path d="M344.57 505.23L325 522.48L362.04 522.86L359.54 505.42L352.25 512.52L344.57 505.23Z" fill="#48393E"/>
<path d="M340.91 507.43L344.32 509.62" stroke="white" stroke-width="0.53" stroke-miterlimit="10"/>
<path d="M337.86 508.86L341.27 511.05" stroke="white" stroke-width="0.53" stroke-miterlimit="10"/>
<path d="M392.72 499.71L390.17 516.03L418.88 522.43L403.52 507.93L404.49 499.06L392.72 499.71Z" fill="#FFC9AE"/>
<path d="M404.83 506.96L421.92 523.29L388.73 522.91L391.28 507.66L396.38 514.63L404.83 506.96Z" fill="#48393E"/>
<path d="M408.14 509.03L404.63 511.06" stroke="white" stroke-width="0.53" stroke-miterlimit="10"/>
<path d="M411.11 510.61L407.6 512.64" stroke="white" stroke-width="0.53" stroke-miterlimit="10"/>
<path d="M401.95 315.3L369.06 318.48C369.06 318.48 364.39 321.9 359.71 339.67C354.02 361.31 345.49 417.67 342.71 498.81L363.98 499.45L381.4 375.55C381.505 375.172 381.745 374.846 382.075 374.635C382.405 374.424 382.802 374.342 383.189 374.405C383.576 374.468 383.925 374.672 384.171 374.978C384.417 375.283 384.541 375.668 384.52 376.06L390.23 500.84L411.23 500.02C411.23 500.02 417.53 364.28 412.01 343.09C406.69 323.15 401.95 315.3 401.95 315.3Z" fill="#25334C"/>
<path d="M365.68 499.09L366.78 492.03L341.17 491.17L340.73 499.86L365.68 499.09Z" fill="#4475AB"/>
<path d="M389.36 500.72C389.79 500.29 388.49 492.47 388.49 492.47L412.81 491.6L412.69 500.6L389.36 500.72Z" fill="#4475AB"/>
<path d="M332.6 270.91C332.6 270.91 348.21 317.01 355.99 314.75L355.87 291.93C355.58 292.38 342.58 266.56 342.58 266.56C342.58 266.56 338.66 260.08 336.9 259.06C336.35 258.985 335.792 259.122 335.339 259.444C334.886 259.765 334.572 260.246 334.46 260.79L332.46 270.28" fill="#FFC9AE"/>
<path d="M337.48 269.53L341.5 249.72" stroke="white" stroke-width="3.05" stroke-miterlimit="10" stroke-linecap="round"/>
<path d="M342.26 266.35C342.26 266.35 342.26 259.76 341.26 259.64C340.26 259.52 335.97 259.84 335.55 261.34C335.13 262.84 338.83 262.76 338.83 262.76C338.83 262.76 337.09 265.84 338.59 266.84C340.09 267.84 342.26 266.35 342.26 266.35Z" fill="#FFC9AE"/>
<path d="M383.69 252.07C383.69 252.07 370.51 260.07 365.99 264.55C361.47 269.03 356.56 291.89 356.56 291.89L345.56 267.79L331.01 277.67C331.01 277.67 348.01 315.75 355.44 315.98C362.87 316.21 399.78 273.98 383.69 252.07Z" fill="#E2E2E2"/>
<path d="M365.28 227.85C365.06 234.59 367.28 241.63 373.04 245.63C378.49 249.4 386.12 248.51 391.04 244.27C399.19 237.34 396.71 221.43 387.68 217.75C386.44 217.25 382.98 216.9 382.46 215.92C375.39 214.72 367.71 217.92 366.07 223.32C365.87 223.97 365.45 224.99 365 226.14C365.19 226.69 365.285 227.268 365.28 227.85Z" fill="#1E2F4D"/>
<path d="M385.45 233.07C385.493 233.199 385.586 233.306 385.707 233.368C385.829 233.43 385.97 233.441 386.1 233.4C387.23 233 389.76 231.86 391.1 234.7C392.44 237.54 390.23 240.23 388.54 240.91C388.06 241.11 386.95 241.6 386.74 242.08C386.09 243.56 386.45 246.18 386.74 249.51C386.799 251.505 387.508 253.427 388.759 254.982C390.01 256.538 391.734 257.643 393.67 258.13C393.67 258.13 377.26 272.13 374.42 263.35C375.54 261.48 374.87 247.35 372.75 248.14C369.97 249.14 364.48 247.9 363.93 235.31C363.41 223.64 371.44 221.73 373.54 221.4C375.33 221.12 381.24 219.49 385.45 233.07Z" fill="#FFC9AE"/>
<path d="M367.69 222.23C367.69 222.23 383.48 232.86 385.79 233.4C385.83 233.4 387.21 213.3 367.69 222.23Z" fill="#1E2F4D"/>
<path d="M390.16 236C390.16 236 387.09 232.86 386.56 238.66L390.16 236Z" fill="#EDA682"/>
<path d="M369.03 235.59L369.39 238.71L367.77 238.57C367.701 238.564 367.634 238.54 367.577 238.501C367.519 238.462 367.473 238.408 367.443 238.345C367.413 238.283 367.399 238.213 367.404 238.144C367.409 238.075 367.431 238.008 367.47 237.95L369.03 235.59Z" fill="#EDA682"/>
<path d="M373.57 232.24C374.09 232.61 373.3 230.97 372.57 230.77C372.257 230.663 371.914 230.683 371.616 230.825C371.317 230.967 371.085 231.22 370.97 231.53C371.893 231.453 372.814 231.704 373.57 232.24Z" fill="black"/>
<path d="M364.94 231.97C364.41 232.34 365.23 230.7 365.94 230.52C366.095 230.467 366.26 230.444 366.424 230.455C366.589 230.465 366.749 230.507 366.897 230.58C367.045 230.652 367.177 230.753 367.285 230.877C367.394 231 367.477 231.144 367.53 231.3C366.615 231.214 365.698 231.451 364.94 231.97Z" fill="black"/>
<path d="M371.63 236.03C371.63 236.58 371.36 237.03 371.1 237.03C370.84 237.03 370.64 236.56 370.66 236.03C370.68 235.5 370.93 235.03 371.2 235.03C371.47 235.03 371.69 235.48 371.63 236.03Z" fill="black"/>
<path d="M366.81 235.74C366.81 236.27 366.56 236.68 366.3 236.67C366.04 236.66 365.86 236.22 365.89 235.67C365.92 235.12 366.15 234.73 366.4 234.74C366.65 234.75 366.84 235.21 366.81 235.74Z" fill="black"/>
<path d="M373.4 248.12C373.4 248.12 377.31 246.79 379.8 245.75C382.29 244.71 376.03 254.84 373.4 248.12Z" fill="#EDA682"/>
<path d="M388.17 257.3C388.17 257.3 390.91 256.55 390.45 257.12C389.732 257.845 388.918 258.467 388.03 258.97L388.17 257.3Z" fill="#C20600"/>
<path d="M373.69 257.48C373.99 258.22 361.62 281.42 361.89 288.7C362.16 295.98 367.03 319.54 366.62 320.64C366.62 320.64 377.88 326.4 409.29 321.84C412.29 294.49 413.18 271.3 403 262.69C403 262.69 392 254.78 389.32 254.55C389.36 254.55 377.69 268.97 373.69 257.48Z" fill="#E2E2E2"/>
<path d="M401.37 259.73C396.78 257.46 390.92 254.68 389.37 254.55C387.968 256.23 386.404 257.767 384.7 259.14C384.802 259.777 384.785 260.428 384.65 261.06C380.34 281.46 377.06 309.98 379.6 330.74C386.09 331.02 405.82 333.35 417.05 331.74C415.62 311.25 416.47 288.4 413.05 274.24C412.283 271.114 410.839 268.195 408.821 265.688C406.803 263.181 404.26 261.147 401.37 259.73Z" fill="#48393E"/>
<path d="M374.06 332.05C371.7 311.21 371.8 281.19 375.95 260.63C375.5 260 374.95 257.28 374.64 256.29C374.94 257.03 361.64 281.42 361.93 288.7C362.22 295.98 357.85 330.62 357.45 331.7C357.45 331.72 369.58 331.21 374.06 332.05Z" fill="#48393E"/>
<path d="M363.5 294.59C363.433 293.833 363.241 293.093 362.93 292.4C362.771 292.054 362.529 291.753 362.225 291.523C361.922 291.292 361.566 291.14 361.19 291.08C360.689 291.097 360.201 291.252 359.782 291.527C359.362 291.802 359.026 292.187 358.81 292.64C358.571 293.044 358.376 293.473 358.23 293.92C358.23 294.04 358.17 294.2 358.23 294.27C358.301 294.296 358.379 294.296 358.45 294.27C359.99 294.09 361.53 294.87 363.07 294.67" fill="#35445C"/>
<path d="M358 295.41L363.53 295.47C363.616 295.473 363.701 295.458 363.781 295.427C363.861 295.396 363.934 295.35 363.995 295.29C364.057 295.23 364.106 295.159 364.139 295.08C364.173 295.001 364.19 294.916 364.19 294.83C364.193 294.744 364.178 294.659 364.147 294.579C364.116 294.499 364.069 294.426 364.01 294.365C363.95 294.303 363.878 294.254 363.799 294.221C363.72 294.187 363.636 294.17 363.55 294.17L358.01 294.1C357.837 294.1 357.67 294.168 357.547 294.29C357.423 294.411 357.352 294.577 357.35 294.75C357.35 294.923 357.418 295.09 357.54 295.213C357.661 295.337 357.827 295.407 358 295.41Z" fill="#ADBEDE"/>
<path d="M358.51 302.54L350.14 275.13C349.911 274.384 349.525 273.697 349.008 273.114C348.49 272.53 347.853 272.065 347.14 271.75L329.42 263.84C329.3 263.787 329.167 263.771 329.038 263.793C328.909 263.815 328.789 263.874 328.693 263.963C328.598 264.053 328.53 264.168 328.499 264.296C328.468 264.423 328.476 264.557 328.52 264.68L336.99 291.54C337.21 292.248 337.573 292.903 338.056 293.466C338.54 294.028 339.133 294.485 339.8 294.81L357.56 303.37C357.681 303.437 357.819 303.465 357.956 303.451C358.094 303.437 358.223 303.38 358.327 303.289C358.431 303.198 358.504 303.078 358.537 302.943C358.57 302.809 358.56 302.668 358.51 302.54Z" fill="#F5C679"/>
<path d="M357.36 304.3L348.98 276.89C348.754 276.144 348.368 275.455 347.851 274.871C347.333 274.288 346.694 273.824 345.98 273.51L328.25 265.6C328.13 265.551 327.999 265.536 327.872 265.56C327.744 265.583 327.627 265.643 327.532 265.732C327.438 265.82 327.372 265.935 327.341 266.06C327.311 266.186 327.317 266.318 327.36 266.44L335.83 293.3C336.05 294.007 336.412 294.661 336.893 295.224C337.375 295.786 337.966 296.244 338.63 296.57L356.39 305.13C356.511 305.198 356.651 305.228 356.789 305.214C356.928 305.2 357.059 305.144 357.165 305.054C357.27 304.963 357.346 304.843 357.381 304.708C357.416 304.573 357.408 304.431 357.36 304.3Z" fill="#4475AB"/>
<path d="M357.29 299.16C357.29 299.16 384.99 331.57 391.13 326.27L381.52 305.57C381.44 306.11 358.87 288.04 358.87 288.04C358.87 288.04 343.47 281.8 343.08 283.8C342.81 285.18 352.31 286.28 351.41 286.27C351.31 286.27 343.04 284.78 342.23 285.57C341.03 286.73 350.71 288.57 350.59 289.27C350.59 289.27 340.92 289.33 340.59 290.27C340.26 291.21 350.24 291.95 350.04 292.27C349.84 292.59 341.75 291.58 342.93 292.32C344.11 293.06 357.29 299.16 357.29 299.16Z" fill="#FFC9AE"/>
<path d="M353.35 286.66C353.35 286.66 349.67 279.22 351.35 280.11C353.03 281 361.35 290.27 361.35 290.27" fill="#FFC9AE"/>
<path d="M406.56 265.84C406.03 265.066 405.309 264.441 404.466 264.029C403.623 263.616 402.688 263.429 401.751 263.485C400.815 263.541 399.908 263.84 399.121 264.35C398.334 264.861 397.693 265.568 397.26 266.4C395.16 270.4 393.49 277.57 392.26 280.78C390.03 286.78 380.53 304.53 380.53 304.53L361.69 289.72L356.21 302.5C356.21 302.5 383.73 331.03 390.55 328.16C396.69 325.61 418.48 283.8 406.56 265.84Z" fill="#E2E2E2"/>
<path d="M386.43 220.44C390.97 220.44 394.65 216.76 394.65 212.22C394.65 207.68 390.97 204 386.43 204C381.89 204 378.21 207.68 378.21 212.22C378.21 216.76 381.89 220.44 386.43 220.44Z" fill="#1E2F4D"/>
</svg>
