<svg width="119" height="119" viewBox="0 0 119 119" fill="none" xmlns="http://www.w3.org/2000/svg">
<g filter="url(#filter0_d_0_1)">
<circle cx="59.5" cy="55.5" r="55.5" fill="#1A374D"/>
</g>
<path d="M55.2031 71L54.8466 74L52 77H68L64.7969 74.3009L64.0891 71H55.2031Z" fill="#1A374D"/>
<path d="M37.2637 33H82.7315C83.0294 33 83.3244 33.0586 83.5996 33.1724C83.8748 33.2861 84.1249 33.4529 84.3356 33.6632C84.5462 33.8734 84.7133 34.123 84.8273 34.3978C84.9413 34.6725 85 34.9669 85 35.2642V63H35V35.2594C35.0013 34.6606 35.2402 34.0866 35.6644 33.6632C36.0887 33.2397 36.6637 33.0013 37.2637 33Z" fill="#1A374D"/>
<path d="M35 64H85V68.4268C85 69.1093 84.7247 69.7638 84.2346 70.2463C83.7445 70.7289 83.0798 71 82.3868 71H37.6132C36.9202 71 36.2555 70.7289 35.7654 70.2463C35.2753 69.7638 35 69.1093 35 68.4268V64.0143V64Z" fill="white"/>
<path d="M70 39H46V43H70V39Z" fill="white"/>
<path d="M82.5369 32H37.4679C36.549 32 35.6677 32.3655 35.0174 33.0161C34.3672 33.6667 34.0013 34.5494 34 35.4701V64.1277C34 64.3582 34.0911 64.5794 34.2533 64.7428C34.4155 64.9063 34.6357 64.9987 34.8658 65H85.1342C85.3643 64.9987 85.5845 64.9063 85.7467 64.7428C85.9089 64.5794 86 64.3582 86 64.1277V35.4701C85.9987 34.5502 85.6334 33.6683 84.9843 33.0178C84.3351 32.3673 83.4549 32.0013 82.5369 32ZM84.2684 63.2601H35.7364V35.4701C35.7377 35.0104 35.9205 34.5698 36.245 34.2447C36.5694 33.9195 37.0091 33.7363 37.4679 33.735H82.5369C82.9957 33.7363 83.4354 33.9195 83.7599 34.2447C84.0843 34.5698 84.2672 35.0104 84.2684 35.4701V63.2601Z" fill="white"/>
<path d="M85.1245 63.0001H34.8658C34.6365 63.0014 34.4171 63.0963 34.255 63.2643C34.0929 63.4322 34.0013 63.6596 34 63.8971V68.4071C34.0013 69.3596 34.3671 70.2727 35.0172 70.9462C35.6672 71.6197 36.5486 71.9987 37.4679 72H82.5369C83.4558 71.9987 84.3367 71.6196 84.986 70.9459C85.6353 70.2722 86 69.3591 86 68.4071V63.8971C86 63.7784 85.9773 63.6609 85.9332 63.5514C85.8891 63.442 85.8244 63.3427 85.743 63.2592C85.6616 63.1758 85.565 63.1099 85.4588 63.0654C85.3527 63.021 85.2391 62.9987 85.1245 63.0001ZM84.2588 68.387C84.2588 68.8633 84.0765 69.3201 83.7519 69.6573C83.4273 69.9946 82.9869 70.1847 82.5272 70.186H37.4583C36.9986 70.1847 36.5582 69.9946 36.2336 69.6573C35.909 69.3201 35.7267 68.8633 35.7267 68.387V64.799H84.2588V68.387Z" fill="white"/>
<path d="M62.1256 66H56.8744C56.6425 66 56.4201 66.1054 56.2561 66.2929C56.0921 66.4804 56 66.7347 56 67C56 67.2652 56.0921 67.5196 56.2561 67.7071C56.4201 67.8946 56.6425 68 56.8744 68H62.1256C62.2404 68 62.3541 67.9741 62.4602 67.9239C62.5663 67.8736 62.6627 67.8 62.7439 67.7071C62.8251 67.6142 62.8895 67.504 62.9335 67.3827C62.9774 67.2614 63 67.1313 63 67C63 66.8686 62.9774 66.7386 62.9335 66.6173C62.8895 66.496 62.8251 66.3858 62.7439 66.2929C62.6627 66.2 62.5663 66.1264 62.4602 66.0761C62.3541 66.0259 62.2404 66 62.1256 66Z" fill="#1A374D"/>
<path d="M82.1163 36H37.8837C37.6493 36 37.4245 36.0898 37.2588 36.2495C37.0931 36.4093 37 36.626 37 36.8519V64.1433C37 64.3697 37.0929 64.5869 37.2585 64.7474C37.4241 64.908 37.6489 64.9987 37.8837 65H82.1163C82.3512 64.9987 82.5759 64.908 82.7415 64.7474C82.9071 64.5869 83 64.3697 83 64.1433V36.8519C83 36.626 82.9069 36.4093 82.7412 36.2495C82.5755 36.0898 82.3507 36 82.1163 36ZM81.2277 63.2913H38.7723V37.7087H81.2277V63.2913Z" fill="white"/>
<path d="M69.2347 77.197C66.4512 77.197 65.0243 75.0776 65.0243 70.899C65.0243 70.6606 64.9361 70.4319 64.7791 70.2633C64.622 70.0947 64.409 70 64.1869 70H55.8271C55.605 70 55.392 70.0947 55.2349 70.2633C55.0779 70.4319 54.9897 70.6606 54.9897 70.899C54.9897 75.0776 53.5863 77.197 50.7794 77.197C50.5675 77.214 50.3694 77.3163 50.2249 77.4835C50.0803 77.6507 50 77.8704 50 78.0985C50 78.3266 50.0803 78.5463 50.2249 78.7134C50.3694 78.8806 50.5675 78.983 50.7794 79H69.2206C69.4325 78.983 69.6306 78.8806 69.7751 78.7134C69.9197 78.5463 70 78.3266 70 78.0985C70 77.8704 69.9197 77.6507 69.7751 77.4835C69.6306 77.3163 69.4325 77.214 69.2206 77.197H69.2347ZM54.8774 77.197C55.9066 75.9716 56.5148 74.1434 56.6364 71.798H63.3916C63.5133 74.1434 64.1214 75.9716 65.1506 77.197H54.8774Z" fill="white"/>
<path d="M75.7034 57.7662L73.4901 55.5409L74.722 54.2994C74.8328 54.1851 74.913 54.0443 74.955 53.8902C74.9971 53.7361 74.9995 53.5738 74.9622 53.4185C74.9226 53.2647 74.8444 53.1238 74.7352 53.0092C74.626 52.8947 74.4895 52.8103 74.3386 52.7642L65.1787 50.0391C65.0204 49.9911 64.8521 49.9872 64.6917 50.0279C64.5313 50.0685 64.3849 50.1522 64.268 50.27C64.1511 50.3879 64.068 50.5355 64.0277 50.6971C63.9873 50.8587 63.9912 51.0283 64.0388 51.1879L66.7837 60.4192C66.8284 60.574 66.9125 60.7142 67.0277 60.826C67.1429 60.9377 67.2852 61.0172 67.4404 61.0562C67.5955 61.0953 67.7581 61.0927 67.912 61.0488C68.0658 61.0048 68.2055 60.921 68.3172 60.8056L69.6155 59.5023L71.8237 61.7277C71.9088 61.8139 72.0099 61.8825 72.1213 61.9292C72.2327 61.9759 72.3522 62 72.4729 62C72.5936 62 72.7131 61.9759 72.8245 61.9292C72.9359 61.8825 73.037 61.8139 73.1221 61.7277L75.7136 59.1159C75.8049 59.0289 75.8775 58.9239 75.9267 58.8074C75.976 58.6909 76.0009 58.5655 76 58.4388C75.999 58.3122 75.9722 58.1871 75.9212 58.0714C75.8701 57.9557 75.796 57.8518 75.7034 57.7662ZM72.4627 59.7238L70.4487 57.6941C70.3379 57.5827 70.2063 57.4945 70.0616 57.4344C69.9169 57.3742 69.7618 57.3435 69.6053 57.3439C69.2879 57.3441 68.9832 57.4698 68.7568 57.6941L68.0974 58.3587L66.2777 52.2543L72.34 54.083L71.6295 54.799C71.5326 54.8961 71.456 55.0118 71.4042 55.1392C71.3524 55.2666 71.3264 55.4032 71.3279 55.5409C71.3278 55.678 71.3549 55.8139 71.4075 55.9404C71.4602 56.0669 71.5374 56.1815 71.6346 56.2775L73.7559 58.4205L72.4627 59.7238Z" fill="white"/>
<path d="M70.1341 39H45.8659C45.6362 39 45.416 39.09 45.2536 39.2501C45.0912 39.4102 45 39.6273 45 39.8537V44.1463C45 44.3727 45.0912 44.5898 45.2536 44.7499C45.416 44.91 45.6362 45 45.8659 45H70.1341C70.3638 45 70.584 44.91 70.7464 44.7499C70.9088 44.5898 71 44.3727 71 44.1463V39.8537C71 39.6273 70.9088 39.4102 70.7464 39.2501C70.584 39.09 70.3638 39 70.1341 39ZM69.2683 43.2925H46.7317V40.7265H69.2683V43.2925Z" fill="white"/>
<path d="M57.101 48H49.904C49.6651 48 49.4359 48.1051 49.2665 48.2923C49.0971 48.4795 49.0013 48.7335 49 48.999V53.0009C49.0013 53.2664 49.0971 53.5205 49.2665 53.7077C49.4359 53.8949 49.6651 54 49.904 54H57.101C57.3394 54 57.5681 53.8947 57.7367 53.7074C57.9053 53.52 58 53.2659 58 53.0009V48.999C58 48.7341 57.9053 48.48 57.7367 48.2926C57.5681 48.1053 57.3394 48 57.101 48ZM56.202 52.0018H50.803V49.9981H56.207L56.202 52.0018Z" fill="white"/>
<path d="M70.1341 39H45.8659C45.6362 39 45.416 39.0902 45.2536 39.2508C45.0912 39.4114 45 39.6292 45 39.8563V56.1438C45 56.3709 45.0912 56.5886 45.2536 56.7492C45.416 56.9098 45.6362 57 45.8659 57H66.5014C66.6365 56.9998 66.7697 56.9683 66.8903 56.9081C67.0109 56.8479 67.1156 56.7606 67.196 56.6532C67.2764 56.5458 67.3302 56.4213 67.3532 56.2897C67.3762 56.158 67.3678 56.0229 67.3286 55.8951L66.2305 52.2788L69.8874 53.3598C70.0165 53.3988 70.1529 53.4073 70.2859 53.3845C70.4188 53.3618 70.5444 53.3085 70.6527 53.2289C70.761 53.1493 70.8488 53.0456 70.9091 52.9263C70.9694 52.8069 71.0006 52.6753 71 52.5419V39.8563C71 39.6292 70.9088 39.4114 70.7464 39.2508C70.584 39.0902 70.3638 39 70.1341 39ZM69.2683 51.3891L65.1857 50.1788C65.0359 50.134 64.8766 50.1303 64.7249 50.1682C64.5732 50.2061 64.4348 50.2843 64.3247 50.3941C64.2144 50.5037 64.1361 50.6405 64.0978 50.7903C64.0595 50.9401 64.0627 51.0974 64.107 51.2456L65.3356 55.2876H46.7317V40.7125H69.2683V51.3891Z" fill="white"/>
<defs>
<filter id="filter0_d_0_1" x="0" y="0" width="119" height="119" filterUnits="userSpaceOnUse" color-interpolation-filters="sRGB">
<feFlood flood-opacity="0" result="BackgroundImageFix"/>
<feColorMatrix in="SourceAlpha" type="matrix" values="0 0 0 0 0 0 0 0 0 0 0 0 0 0 0 0 0 0 127 0" result="hardAlpha"/>
<feOffset dy="4"/>
<feGaussianBlur stdDeviation="2"/>
<feComposite in2="hardAlpha" operator="out"/>
<feColorMatrix type="matrix" values="0 0 0 0 0 0 0 0 0 0 0 0 0 0 0 0 0 0 0.25 0"/>
<feBlend mode="normal" in2="BackgroundImageFix" result="effect1_dropShadow_0_1"/>
<feBlend mode="normal" in="SourceGraphic" in2="effect1_dropShadow_0_1" result="shape"/>
</filter>
</defs>
</svg>
