<svg width="119" height="119" viewBox="0 0 119 119" fill="none" xmlns="http://www.w3.org/2000/svg">
<g filter="url(#filter0_d_0_1)">
<circle cx="59.5" cy="55.5" r="55" fill="white" stroke="#1A374D"/>
</g>
<path d="M50.3879 85.0043C50.3859 85.2733 50.2782 85.5306 50.088 85.7208C49.8979 85.911 49.6405 86.0187 49.3716 86.0206H45.2912C45.0217 86.0206 44.7632 85.9136 44.5726 85.723C44.382 85.5324 44.2749 85.2739 44.2749 85.0043C44.2739 84.8702 44.2995 84.7372 44.3501 84.6131C44.4007 84.4889 44.4754 84.376 44.5699 84.2808C44.6644 84.1856 44.7768 84.1101 44.9006 84.0586C45.0244 84.007 45.1571 83.9805 45.2912 83.9805H49.3716C49.6418 83.9825 49.9003 84.0912 50.0907 84.283C50.2811 84.4748 50.3879 84.7341 50.3879 85.0043Z" fill="white"/>
<path d="M45.2686 37.0941H44.2523C44.1182 37.0931 43.9852 37.1187 43.861 37.1693C43.7369 37.2199 43.6239 37.2947 43.5287 37.3891C43.4336 37.4836 43.3581 37.596 43.3065 37.7198C43.255 37.8436 43.2284 37.9763 43.2284 38.1104C43.2284 38.382 43.3363 38.6424 43.5283 38.8344C43.7203 39.0264 43.9807 39.1343 44.2523 39.1343H45.2686C45.4027 39.1343 45.5355 39.1078 45.6593 39.0562C45.7831 39.0047 45.8955 38.9291 45.99 38.834C46.0844 38.7388 46.159 38.6259 46.2097 38.5017C46.2603 38.3775 46.2859 38.2445 46.2849 38.1104C46.2859 37.9767 46.2603 37.8441 46.2096 37.7203C46.1589 37.5966 46.0841 37.4841 45.9895 37.3895C45.8949 37.295 45.7824 37.2202 45.6587 37.1695C45.5349 37.1187 45.4023 37.0931 45.2686 37.0941ZM50.3652 37.0941H49.3489C49.2148 37.0931 49.0819 37.1187 48.9577 37.1693C48.8335 37.2199 48.7206 37.2947 48.6254 37.3891C48.5302 37.4836 48.4547 37.596 48.4032 37.7198C48.3516 37.8436 48.3251 37.9763 48.3251 38.1104C48.3251 38.382 48.4329 38.6424 48.6249 38.8344C48.817 39.0264 49.0774 39.1343 49.3489 39.1343H50.3652C50.4993 39.1343 50.6321 39.1078 50.7559 39.0562C50.8797 39.0047 50.9921 38.9291 51.0865 38.834C51.181 38.7388 51.2557 38.6259 51.3063 38.5017C51.357 38.3775 51.3825 38.2445 51.3815 38.1104C51.3835 37.8442 51.2802 37.5879 51.0941 37.3975C50.9079 37.2072 50.6541 37.0981 50.3878 37.0941H50.3652ZM50.3652 37.0941H49.3489C49.2148 37.0931 49.0819 37.1187 48.9577 37.1693C48.8335 37.2199 48.7206 37.2947 48.6254 37.3891C48.5302 37.4836 48.4547 37.596 48.4032 37.7198C48.3516 37.8436 48.3251 37.9763 48.3251 38.1104C48.3251 38.382 48.4329 38.6424 48.6249 38.8344C48.817 39.0264 49.0774 39.1343 49.3489 39.1343H50.3652C50.4993 39.1343 50.6321 39.1078 50.7559 39.0562C50.8797 39.0047 50.9921 38.9291 51.0865 38.834C51.181 38.7388 51.2557 38.6259 51.3063 38.5017C51.357 38.3775 51.3825 38.2445 51.3815 38.1104C51.3835 37.8442 51.2802 37.5879 51.0941 37.3975C50.9079 37.2072 50.6541 37.0981 50.3878 37.0941H50.3652ZM45.2686 37.0941H44.2523C44.1182 37.0931 43.9852 37.1187 43.861 37.1693C43.7369 37.2199 43.6239 37.2947 43.5287 37.3891C43.4336 37.4836 43.3581 37.596 43.3065 37.7198C43.255 37.8436 43.2284 37.9763 43.2284 38.1104C43.2284 38.382 43.3363 38.6424 43.5283 38.8344C43.7203 39.0264 43.9807 39.1343 44.2523 39.1343H45.2686C45.4027 39.1343 45.5355 39.1078 45.6593 39.0562C45.7831 39.0047 45.8955 38.9291 45.99 38.834C46.0844 38.7388 46.159 38.6259 46.2097 38.5017C46.2603 38.3775 46.2859 38.2445 46.2849 38.1104C46.2859 37.9767 46.2603 37.8441 46.2096 37.7203C46.1589 37.5966 46.0841 37.4841 45.9895 37.3895C45.8949 37.295 45.7824 37.2202 45.6587 37.1695C45.5349 37.1187 45.4023 37.0931 45.2686 37.0941ZM62.0567 35.0464C61.7501 34.9618 61.4336 34.9187 61.1156 34.9185H33.5621C33.1004 34.9185 32.6433 35.0094 32.2167 35.1861C31.7902 35.3627 31.4026 35.6217 31.0761 35.9482C30.7496 36.2746 30.4907 36.6622 30.314 37.0888C30.1373 37.5153 30.0464 37.9725 30.0464 38.4342V85.5612C30.0464 86.0229 30.1373 86.4801 30.314 86.9066C30.4907 87.3332 30.7496 87.7207 31.0761 88.0472C31.4026 88.3736 31.7902 88.6326 32.2167 88.8093C32.6433 88.986 33.1004 89.0769 33.5621 89.0769H61.1156C61.5808 89.0773 62.0415 88.9852 62.4708 88.8059C62.8884 88.6314 63.2672 88.3755 63.5849 88.0531C63.8961 87.7605 64.1512 87.4135 64.3378 87.0292C64.5571 86.5579 64.6676 86.0434 64.6614 85.5236V38.3965C64.6515 37.6306 64.3917 36.8889 63.9215 36.2842C63.4514 35.6794 62.7965 35.2448 62.0567 35.0464ZM30.995 39.1267C30.9989 38.3173 31.3222 37.5422 31.8945 36.9698C32.4669 36.3975 33.2421 36.0742 34.0515 36.0703H58.5937L58.4506 36.9511C58.4223 37.1354 58.4494 37.324 58.5285 37.4929C58.6076 37.6618 58.7351 37.8033 58.8948 37.8996C59.0432 37.9871 59.2119 38.0338 59.3841 38.0352C59.591 38.0336 59.7917 37.9649 59.9562 37.8394L61.8685 36.3338C62.389 36.5827 62.8289 36.9731 63.1377 37.4604C63.4466 37.9477 63.612 38.5122 63.615 39.0891V40.1129H30.995V39.1267ZM42.2121 50.3439C42.1297 50.3328 42.0462 50.3328 41.9637 50.3439L39.1556 51.044V49.0716L42.31 48.2736H43.3564C43.6276 49.3209 44.3028 50.2179 45.2341 50.7682C46.1654 51.3185 47.2769 51.4773 48.3251 51.2097C49.0314 51.0274 49.6758 50.6588 50.191 50.1423C50.7061 49.6258 51.0731 48.9804 51.2536 48.2736H52.3L55.4619 49.0716V51.044L52.6538 50.3439C52.5024 50.306 52.3443 50.3033 52.1916 50.336C52.0389 50.3686 51.8958 50.4357 51.773 50.5321C51.6524 50.6275 51.5547 50.7487 51.4869 50.8868C51.4192 51.0249 51.3831 51.1763 51.3815 51.3301V60.5523H43.2284V51.3753C43.2304 51.2405 43.2056 51.1068 43.1555 50.9817C43.1053 50.8567 43.0307 50.7429 42.9361 50.6469C42.8415 50.5509 42.7288 50.4747 42.6045 50.4227C42.4802 50.3706 42.3469 50.3439 42.2121 50.3439ZM54.4456 87.0367C54.3111 87.0367 54.1779 87.0632 54.0537 87.1147C53.9295 87.1662 53.8167 87.2416 53.7216 87.3366C53.6265 87.4317 53.5511 87.5446 53.4997 87.6688C53.4482 87.793 53.4217 87.9262 53.4217 88.0606H34.0515C33.2408 88.0566 32.4644 87.7323 31.8919 87.1583C31.3193 86.5844 30.9969 85.8073 30.995 84.9966V81.9401H53.4819C53.6096 83.06 54.0019 84.1335 54.6262 85.0719L55.2812 86.0656C55.3981 86.2336 55.4611 86.4331 55.4619 86.6377V87.0367H54.4456ZM50.3652 37.0941H49.3489C49.2148 37.0931 49.0819 37.1187 48.9577 37.1693C48.8335 37.2199 48.7206 37.2947 48.6254 37.3891C48.5302 37.4836 48.4547 37.596 48.4032 37.7198C48.3516 37.8436 48.3251 37.9763 48.3251 38.1104C48.3251 38.382 48.4329 38.6424 48.6249 38.8344C48.817 39.0264 49.0774 39.1343 49.3489 39.1343H50.3652C50.4993 39.1343 50.6321 39.1078 50.7559 39.0562C50.8797 39.0047 50.9921 38.9291 51.0865 38.834C51.181 38.7388 51.2557 38.6259 51.3063 38.5017C51.357 38.3775 51.3825 38.2445 51.3815 38.1104C51.3835 37.8442 51.2802 37.5879 51.0941 37.3975C50.9079 37.2072 50.6541 37.0981 50.3878 37.0941H50.3652ZM45.2686 37.0941H44.2523C44.1182 37.0931 43.9852 37.1187 43.861 37.1693C43.7369 37.2199 43.6239 37.2947 43.5287 37.3891C43.4336 37.4836 43.3581 37.596 43.3065 37.7198C43.255 37.8436 43.2284 37.9763 43.2284 38.1104C43.2284 38.382 43.3363 38.6424 43.5283 38.8344C43.7203 39.0264 43.9807 39.1343 44.2523 39.1343H45.2686C45.4027 39.1343 45.5355 39.1078 45.6593 39.0562C45.7831 39.0047 45.8955 38.9291 45.99 38.834C46.0844 38.7388 46.159 38.6259 46.2097 38.5017C46.2603 38.3775 46.2859 38.2445 46.2849 38.1104C46.2859 37.9767 46.2603 37.8441 46.2096 37.7203C46.1589 37.5966 46.0841 37.4841 45.9895 37.3895C45.8949 37.295 45.7824 37.2202 45.6587 37.1695C45.5349 37.1187 45.4023 37.0931 45.2686 37.0941ZM45.2686 37.0941H44.2523C44.1182 37.0931 43.9852 37.1187 43.861 37.1693C43.7369 37.2199 43.6239 37.2947 43.5287 37.3891C43.4336 37.4836 43.3581 37.596 43.3065 37.7198C43.255 37.8436 43.2284 37.9763 43.2284 38.1104C43.2284 38.382 43.3363 38.6424 43.5283 38.8344C43.7203 39.0264 43.9807 39.1343 44.2523 39.1343H45.2686C45.4027 39.1343 45.5355 39.1078 45.6593 39.0562C45.7831 39.0047 45.8955 38.9291 45.99 38.834C46.0844 38.7388 46.159 38.6259 46.2097 38.5017C46.2603 38.3775 46.2859 38.2445 46.2849 38.1104C46.2859 37.9767 46.2603 37.8441 46.2096 37.7203C46.1589 37.5966 46.0841 37.4841 45.9895 37.3895C45.8949 37.295 45.7824 37.2202 45.6587 37.1695C45.5349 37.1187 45.4023 37.0931 45.2686 37.0941ZM50.3652 37.0941H49.3489C49.2148 37.0931 49.0819 37.1187 48.9577 37.1693C48.8335 37.2199 48.7206 37.2947 48.6254 37.3891C48.5302 37.4836 48.4547 37.596 48.4032 37.7198C48.3516 37.8436 48.3251 37.9763 48.3251 38.1104C48.3251 38.382 48.4329 38.6424 48.6249 38.8344C48.817 39.0264 49.0774 39.1343 49.3489 39.1343H50.3652C50.4993 39.1343 50.6321 39.1078 50.7559 39.0562C50.8797 39.0047 50.9921 38.9291 51.0865 38.834C51.181 38.7388 51.2557 38.6259 51.3063 38.5017C51.357 38.3775 51.3825 38.2445 51.3815 38.1104C51.3835 37.8442 51.2802 37.5879 51.0941 37.3975C50.9079 37.2072 50.6541 37.0981 50.3878 37.0941H50.3652ZM50.3652 37.0941H49.3489C49.2148 37.0931 49.0819 37.1187 48.9577 37.1693C48.8335 37.2199 48.7206 37.2947 48.6254 37.3891C48.5302 37.4836 48.4547 37.596 48.4032 37.7198C48.3516 37.8436 48.3251 37.9763 48.3251 38.1104C48.3251 38.382 48.4329 38.6424 48.6249 38.8344C48.817 39.0264 49.0774 39.1343 49.3489 39.1343H50.3652C50.4993 39.1343 50.6321 39.1078 50.7559 39.0562C50.8797 39.0047 50.9921 38.9291 51.0865 38.834C51.181 38.7388 51.2557 38.6259 51.3063 38.5017C51.357 38.3775 51.3825 38.2445 51.3815 38.1104C51.3835 37.8442 51.2802 37.5879 51.0941 37.3975C50.9079 37.2072 50.6541 37.0981 50.3878 37.0941H50.3652ZM45.2686 37.0941H44.2523C44.1182 37.0931 43.9852 37.1187 43.861 37.1693C43.7369 37.2199 43.6239 37.2947 43.5287 37.3891C43.4336 37.4836 43.3581 37.596 43.3065 37.7198C43.255 37.8436 43.2284 37.9763 43.2284 38.1104C43.2284 38.382 43.3363 38.6424 43.5283 38.8344C43.7203 39.0264 43.9807 39.1343 44.2523 39.1343H45.2686C45.4027 39.1343 45.5355 39.1078 45.6593 39.0562C45.7831 39.0047 45.8955 38.9291 45.99 38.834C46.0844 38.7388 46.159 38.6259 46.2097 38.5017C46.2603 38.3775 46.2859 38.2445 46.2849 38.1104C46.2859 37.9767 46.2603 37.8441 46.2096 37.7203C46.1589 37.5966 46.0841 37.4841 45.9895 37.3895C45.8949 37.295 45.7824 37.2202 45.6587 37.1695C45.5349 37.1187 45.4023 37.0931 45.2686 37.0941Z" fill="white"/>
<path d="M62.4707 45.1196V89.0773H72.7919V86.0133L75.216 81.3081L74.8245 68.6907L75.8409 69.4435L89.0756 69.5113V45.1196H62.4707ZM72.1596 53.4007H79.5297L78.1672 57.4811H72.6639L72.1596 53.4007Z" fill="white"/>
<path d="M86.3354 16.7076H56.0567C55.8277 16.7066 55.6007 16.7509 55.3888 16.8378C55.177 16.9248 54.9844 17.0527 54.8221 17.2143C54.6598 17.3758 54.5311 17.5679 54.4432 17.7794C54.3554 17.9909 54.3101 18.2176 54.3101 18.4466V30.3789C54.3101 30.8421 54.4941 31.2864 54.8217 31.6139C55.1492 31.9415 55.5935 32.1255 56.0567 32.1255H60.0994L59.8133 37.0942L65.2637 32.1255H86.3429C86.8062 32.1255 87.2504 31.9415 87.578 31.6139C87.9055 31.2864 88.0895 30.8421 88.0895 30.3789V18.4466C88.0895 18.217 88.044 17.9896 87.9557 17.7776C87.8673 17.5656 87.7379 17.3732 87.5748 17.2116C87.4118 17.0499 87.2183 16.9221 87.0055 16.8356C86.7928 16.7491 86.565 16.7056 86.3354 16.7076Z" fill="white"/>
<path d="M54.9727 88.061V94.174H74.4107V88.061H54.9727ZM73.7934 93.1577H55.4469V89.0774H73.7934V93.1577Z" fill="white"/>
<path d="M46.285 38.1106C46.286 38.2447 46.2604 38.3776 46.2098 38.5018C46.1591 38.626 46.0845 38.7389 45.9901 38.8341C45.8956 38.9293 45.7832 39.0048 45.6594 39.0563C45.5356 39.1079 45.4028 39.1344 45.2687 39.1344H44.2524C43.9808 39.1344 43.7204 39.0265 43.5284 38.8345C43.3364 38.6425 43.2285 38.3821 43.2285 38.1106C43.2285 37.9765 43.2551 37.8437 43.3066 37.7199C43.3582 37.5961 43.4337 37.4837 43.5288 37.3893C43.624 37.2948 43.737 37.2201 43.8611 37.1694C43.9853 37.1188 44.1183 37.0933 44.2524 37.0943H45.2687C45.4024 37.0933 45.535 37.1189 45.6588 37.1696C45.7825 37.2203 45.895 37.2951 45.9896 37.3897C46.0842 37.4842 46.159 37.5967 46.2097 37.7205C46.2604 37.8442 46.286 37.9768 46.285 38.1106Z" fill="black"/>
<path d="M51.3816 38.1106C51.3826 38.2447 51.3571 38.3776 51.3065 38.5018C51.2558 38.626 51.1811 38.7389 51.0866 38.8341C50.9922 38.9293 50.8798 39.0048 50.756 39.0563C50.6322 39.1079 50.4994 39.1344 50.3653 39.1344H49.349C49.0775 39.1344 48.8171 39.0265 48.6251 38.8345C48.433 38.6425 48.3252 38.3821 48.3252 38.1106C48.3252 37.9765 48.3518 37.8437 48.4033 37.7199C48.4549 37.5961 48.5303 37.4837 48.6255 37.3893C48.7207 37.2948 48.8336 37.2201 48.9578 37.1694C49.082 37.1188 49.2149 37.0933 49.349 37.0943H50.3653C50.4991 37.0933 50.6317 37.1189 50.7554 37.1696C50.8792 37.2203 50.9917 37.2951 51.0863 37.3897C51.1808 37.4842 51.2556 37.5967 51.3064 37.7205C51.3571 37.8442 51.3826 37.9768 51.3816 38.1106Z" fill="black"/>
<path d="M89.0983 44.2311H65.6553V39.1269C65.6562 38.3333 65.4706 37.5506 65.1136 36.8419C64.7566 36.1332 64.2382 35.5182 63.6001 35.0465L66.0543 33.1795H86.7946C87.4649 33.1776 88.1071 32.9104 88.581 32.4365C89.055 31.9625 89.3222 31.3203 89.3241 30.6501V18.5295C89.3222 17.8592 89.055 17.217 88.581 16.743C88.1071 16.2691 87.4649 16.002 86.7946 16H56.0642C55.3934 16 54.7499 16.2665 54.2755 16.7409C53.8012 17.2153 53.5347 17.8586 53.5347 18.5295V30.6501C53.5347 31.3209 53.8012 31.9643 54.2755 32.4387C54.7499 32.913 55.3934 33.1795 56.0642 33.1795H59.0755L58.94 34.0378H34.0967C32.7463 34.0378 31.451 34.5737 30.4955 35.5279C29.5399 36.482 29.002 37.7765 29 39.1269V84.9967C29 86.3484 29.537 87.6448 30.4928 88.6006C31.4486 89.5564 32.7449 90.0933 34.0967 90.0933H53.3992V94.1737C53.3992 94.3078 53.4258 94.4406 53.4773 94.5644C53.5288 94.6882 53.6043 94.8005 53.6995 94.895C53.7947 94.9895 53.9076 95.0642 54.0318 95.1148C54.156 95.1654 54.2889 95.191 54.423 95.19H74.8096C75.0791 95.19 75.3377 95.0829 75.5283 94.8923C75.7189 94.7017 75.826 94.4432 75.826 94.1737V88.0607C75.826 87.7905 75.7192 87.5312 75.5288 87.3394C75.3384 87.1476 75.0798 87.0389 74.8096 87.0369H73.7857V86.6379C73.791 86.4351 73.8509 86.2374 73.959 86.0657L74.6214 85.072C75.4083 83.8987 75.8277 82.5174 75.826 81.1046V70.7306H89.0757C89.2102 70.7306 89.3433 70.7042 89.4675 70.6527C89.5917 70.6012 89.7046 70.5258 89.7997 70.4307C89.8948 70.3356 89.9702 70.2228 90.0216 70.0986C90.0731 69.9743 90.0996 69.8412 90.0996 69.7067V45.2474C90.0996 44.9804 89.9946 44.7242 89.8072 44.534C89.6199 44.3438 89.3653 44.235 89.0983 44.2311ZM88.082 68.6904H75.6603C75.5139 68.2666 75.2747 67.8808 74.9602 67.5612C74.5347 67.1419 73.9978 66.8537 73.4132 66.7309C72.8286 66.6081 72.221 66.6559 71.6628 66.8686C71.5352 66.3609 71.2755 65.8959 70.91 65.521C70.4308 65.0575 69.8168 64.7582 69.1565 64.6662C68.4962 64.5742 67.8238 64.6943 67.2362 65.0091C67.1222 64.8247 66.9856 64.6552 66.8296 64.5047C66.2487 63.9333 65.4688 63.6094 64.6539 63.6013C64.3084 63.6005 63.965 63.6565 63.6376 63.767V59.5135C63.6365 58.7105 63.3203 57.9401 62.7569 57.3679C62.6741 57.2851 62.5837 57.2098 62.4933 57.1345C62.225 56.9254 61.9252 56.7602 61.605 56.6452V46.2486H88.1046L88.082 68.6904ZM55.4168 30.6501V18.5295C55.4168 18.3578 55.485 18.1931 55.6064 18.0717C55.7278 17.9503 55.8925 17.8821 56.0642 17.8821H86.7946C86.9664 17.8821 87.1311 17.9503 87.2525 18.0717C87.3739 18.1931 87.4421 18.3578 87.4421 18.5295V30.6501C87.4431 30.7354 87.427 30.82 87.3948 30.899C87.3627 30.978 87.315 31.0498 87.2547 31.1101C87.1944 31.1704 87.1226 31.2181 87.0436 31.2502C86.9646 31.2824 86.8799 31.2985 86.7946 31.2975H65.7155C65.5094 31.2964 65.3085 31.3625 65.1433 31.4857L60.6263 34.9186L61.0253 32.3816C61.0483 32.2483 61.0413 32.1116 61.0049 31.9814C60.9684 31.8512 60.9033 31.7307 60.8145 31.6287C60.7227 31.5197 60.6071 31.4331 60.4766 31.3757C60.3461 31.3183 60.2042 31.2915 60.0617 31.2975H55.9739C55.8176 31.2771 55.6743 31.1997 55.5715 31.0803C55.4687 30.9608 55.4136 30.8076 55.4168 30.6501ZM58.5937 36.0704L58.4506 36.9512C58.4224 37.1356 58.4495 37.3241 58.5286 37.493C58.6077 37.6619 58.7352 37.8034 58.8949 37.8997C59.0432 37.9872 59.2119 38.034 59.3841 38.0353C59.591 38.0337 59.7918 37.965 59.9563 37.8396L61.8685 36.3339C62.389 36.5828 62.8289 36.9732 63.1378 37.4605C63.4467 37.9478 63.6121 38.5123 63.615 39.0892V40.1131H30.995V39.0892C30.999 38.2798 31.3223 37.5047 31.8946 36.9323C32.4669 36.36 33.2421 36.0367 34.0515 36.0327L58.5937 36.0704ZM62.4708 72.7482C62.5131 72.756 62.5564 72.756 62.5987 72.7482C62.8683 72.7482 63.1268 72.6411 63.3174 72.4505C63.508 72.2599 63.615 72.0014 63.615 71.7319V66.6352C63.617 66.3663 63.7247 66.1089 63.9149 65.9188C64.1051 65.7286 64.3625 65.6209 64.6314 65.6189C64.7725 65.6127 64.9131 65.6379 65.0432 65.6926C65.1734 65.7473 65.2899 65.8301 65.3843 65.9351C65.4777 66.0261 65.5518 66.135 65.6022 66.2553C65.6527 66.3756 65.6785 66.5048 65.6779 66.6352V71.7319C65.6779 71.866 65.7043 71.9988 65.7559 72.1226C65.8074 72.2464 65.883 72.3587 65.9782 72.4532C66.0734 72.5477 66.1862 72.6224 66.3104 72.673C66.4346 72.7236 66.5676 72.7492 66.7017 72.7482C66.9712 72.7482 67.2297 72.6411 67.4203 72.4505C67.6109 72.2599 67.718 72.0014 67.718 71.7319V67.6591C67.718 67.3875 67.8259 67.1271 68.0179 66.9351C68.2099 66.7431 68.4703 66.6352 68.7418 66.6352C68.8828 66.6301 69.0231 66.6558 69.1531 66.7104C69.2831 66.765 69.3997 66.8472 69.4947 66.9514C69.5894 67.0434 69.6647 67.1534 69.7164 67.2749C69.7681 67.3964 69.7952 67.527 69.7958 67.6591V71.7319C69.7948 71.8656 69.8204 71.9982 69.8711 72.122C69.9218 72.2457 69.9967 72.3582 70.0913 72.4527C70.1858 72.5473 70.2982 72.6222 70.422 72.6729C70.5458 72.7236 70.6784 72.7492 70.8121 72.7482C70.9462 72.7492 71.0791 72.7236 71.2033 72.673C71.3275 72.6224 71.4405 72.5477 71.5356 72.4532C71.6308 72.3587 71.7063 72.2464 71.7578 72.1226C71.8094 71.9988 71.836 71.866 71.8359 71.7319V69.6917C71.8359 69.5583 71.8623 69.4261 71.9133 69.3028C71.9644 69.1795 72.0392 69.0675 72.1336 68.9731C72.228 68.8787 72.34 68.8038 72.4633 68.7528C72.5866 68.7017 72.7188 68.6754 72.8522 68.6754C72.993 68.6713 73.1331 68.6974 73.2629 68.7519C73.3928 68.8065 73.5094 68.8882 73.6051 68.9916C73.7 69.0815 73.7751 69.1902 73.8256 69.3107C73.8762 69.4313 73.9011 69.561 73.8987 69.6917V81.0895C73.8992 82.0972 73.6005 83.0824 73.0405 83.9202L72.3704 84.9214C72.0381 85.4264 71.8627 86.0183 71.8661 86.6228V87.0218H57.5624V86.6228C57.5595 86.0182 57.3817 85.4272 57.0504 84.9214L56.3804 83.9202C55.817 83.084 55.518 82.0978 55.5221 81.0895V71.7319C55.5241 71.4629 55.6318 71.2056 55.822 71.0154C56.0122 70.8252 56.2696 70.7175 56.5385 70.7156H57.5624V75.8047C57.5614 75.9388 57.5869 76.0717 57.6375 76.1959C57.6882 76.3201 57.7629 76.433 57.8573 76.5282C57.9518 76.6234 58.0642 76.6989 58.188 76.7505C58.3118 76.802 58.4446 76.8285 58.5787 76.8285C58.8502 76.8285 59.1106 76.7207 59.3026 76.5287C59.4946 76.3366 59.6025 76.0762 59.6025 75.8047V59.6113C59.5934 59.3428 59.6824 59.0801 59.8528 58.8723C60.0232 58.6645 60.2633 58.5258 60.5285 58.4821C60.679 58.47 60.8304 58.4922 60.9712 58.547C61.112 58.6017 61.2387 58.6876 61.3416 58.7983C61.4367 58.8884 61.5125 58.9969 61.5642 59.1173C61.616 59.2377 61.6427 59.3674 61.6426 59.4984V71.7319C61.6354 71.9725 61.7151 72.2077 61.8672 72.3944C62.0193 72.5811 62.2336 72.7067 62.4708 72.7482ZM60.5586 44.2311C60.4249 44.2301 60.2922 44.2557 60.1685 44.3064C60.0447 44.3571 59.9323 44.4319 59.8377 44.5265C59.7432 44.6211 59.6683 44.7335 59.6176 44.8573C59.5668 44.981 59.5413 45.1136 59.5423 45.2474V56.6527C58.9415 56.8841 58.4249 57.2921 58.0607 57.823C57.6965 58.3538 57.5017 58.9826 57.5021 59.6264V68.6603H56.4782C55.6688 68.6643 54.8937 68.9876 54.3214 69.5599C53.749 70.1323 53.4258 70.9074 53.4218 71.7168V79.8699H30.995V42.1608H63.615V44.201L60.5586 44.2311ZM30.995 81.9402H53.482C53.6097 83.0601 54.0019 84.1336 54.6263 85.072L55.2813 86.0657C55.3981 86.2337 55.4611 86.4332 55.4619 86.6379V87.0369H54.4456C54.1741 87.0369 53.9137 87.1447 53.7217 87.3368C53.5297 87.5288 53.4218 87.7892 53.4218 88.0607H34.0515C33.2408 88.0568 32.4645 87.7324 31.8919 87.1584C31.3194 86.5845 30.997 85.8074 30.995 84.9967V81.9402ZM73.8084 93.1574H55.4619V89.077H73.8084V93.1574Z" fill="black"/>
<path d="M72.792 89.0771H62.4707V89.6568H72.792V89.0771Z" fill="#1A374D"/>
<path d="M73.8083 89.0771V93.1575H55.4619V89.0771H62.4707V89.6568H72.792V89.0771H73.8083Z" fill="#1A374D"/>
<path d="M61.8686 36.3714L59.9564 37.877C59.7919 38.0025 59.5911 38.0712 59.3842 38.0728C59.212 38.0714 59.0433 38.0247 58.895 37.9373C58.7353 37.841 58.6078 37.6994 58.5287 37.5305C58.4496 37.3616 58.4225 37.173 58.4507 36.9887L58.5938 36.1079H34.0516C33.2422 36.1119 32.4671 36.4352 31.8947 37.0075C31.3224 37.5798 30.9991 38.355 30.9951 39.1644V40.1882H63.6151V39.1644C63.6193 38.581 63.4573 38.0086 63.148 37.5139C62.8387 37.0193 62.3949 36.623 61.8686 36.3714ZM45.3064 39.1342H44.2901C44.0185 39.1342 43.7581 39.0264 43.5661 38.8344C43.3741 38.6424 43.2663 38.382 43.2663 38.1104C43.2663 37.9763 43.2927 37.8436 43.3443 37.7198C43.3958 37.596 43.4714 37.4836 43.5666 37.3891C43.6618 37.2946 43.7746 37.2199 43.8988 37.1693C44.023 37.1187 44.156 37.0931 44.2901 37.0941H45.3064C45.4401 37.0931 45.5727 37.1187 45.6965 37.1694C45.8203 37.2201 45.9327 37.2949 46.0272 37.3895C46.1218 37.4841 46.1967 37.5965 46.2474 37.7203C46.2981 37.8441 46.3237 37.9767 46.3227 38.1104C46.3238 38.2477 46.2971 38.3839 46.2441 38.5106C46.1912 38.6373 46.1131 38.7519 46.0146 38.8476C45.9161 38.9433 45.7992 39.018 45.671 39.0673C45.5429 39.1166 45.4059 39.1393 45.2687 39.1342H45.3064ZM50.4031 39.1342H49.3868C49.1152 39.1342 48.8548 39.0264 48.6628 38.8344C48.4708 38.6424 48.3629 38.382 48.3629 38.1104C48.3629 37.9763 48.3894 37.8436 48.4409 37.7198C48.4925 37.596 48.5681 37.4836 48.6632 37.3891C48.7584 37.2946 48.8713 37.2199 48.9955 37.1693C49.1196 37.1187 49.2527 37.0931 49.3868 37.0941H50.4031C50.5368 37.0931 50.6694 37.1187 50.7932 37.1694C50.9169 37.2201 51.0293 37.2949 51.1239 37.3895C51.2185 37.4841 51.2933 37.5965 51.344 37.7203C51.3947 37.8441 51.4204 37.9767 51.4194 38.1104C51.4204 38.2458 51.3944 38.38 51.3428 38.5052C51.2912 38.6303 51.2151 38.7439 51.119 38.8393C51.023 38.9347 50.9089 39.0099 50.7833 39.0605C50.6578 39.1112 50.5233 39.1363 50.388 39.1342H50.4031Z" fill="#1A374D"/>
<path d="M55.2814 86.0654L54.6264 85.0717C54.002 84.1333 53.6098 83.0598 53.4821 81.9399H30.9951V84.9964C30.9971 85.8071 31.3195 86.5842 31.892 87.1582C32.4646 87.7321 33.2409 88.0565 34.0516 88.0604H53.3993C53.3993 87.926 53.4258 87.7929 53.4772 87.6686C53.5287 87.5444 53.6041 87.4315 53.6992 87.3365C53.7942 87.2414 53.9072 87.166 54.0314 87.1145C54.1556 87.0631 54.2887 87.0366 54.4231 87.0366H55.4394V86.6376C55.4453 86.4353 55.3903 86.236 55.2814 86.0654ZM49.3491 86.0203H45.2687C45.1352 86.0203 45.0031 85.994 44.8798 85.9429C44.7565 85.8918 44.6444 85.817 44.5501 85.7226C44.4557 85.6282 44.3809 85.5162 44.3298 85.3929C44.2787 85.2696 44.2524 85.1374 44.2524 85.004C44.2514 84.8699 44.277 84.7369 44.3276 84.6127C44.3782 84.4885 44.4529 84.3756 44.5474 84.2804C44.6419 84.1852 44.7543 84.1097 44.8781 84.0582C45.0019 84.0066 45.1346 83.9801 45.2687 83.9801H49.3491C49.6193 83.9821 49.8778 84.0908 50.0682 84.2826C50.2586 84.4744 50.3654 84.7337 50.3654 85.004C50.3634 85.2729 50.2557 85.5302 50.0655 85.7204C49.8753 85.9106 49.618 86.0183 49.3491 86.0203Z" fill="#1A374D"/>
<path d="M37.1155 65.6343H36.0842C35.8146 65.6343 35.5561 65.7413 35.3655 65.9319C35.1749 66.1225 35.0679 66.381 35.0679 66.6506C35.0679 66.9208 35.1747 67.1801 35.3651 67.3719C35.5555 67.5637 35.8139 67.6725 36.0842 67.6745H37.108C37.2421 67.6745 37.3749 67.6479 37.4987 67.5963C37.6225 67.5448 37.7348 67.4693 37.8293 67.3741C37.9238 67.2789 37.9985 67.166 38.0491 67.0418C38.0998 66.9177 38.1253 66.7847 38.1243 66.6506C38.1253 66.5175 38.0999 66.3855 38.0497 66.2622C37.9994 66.139 37.9253 66.0269 37.8315 65.9324C37.7377 65.8379 37.6262 65.763 37.5034 65.7118C37.3805 65.6606 37.2487 65.6343 37.1155 65.6343Z" fill="black"/>
<path d="M51.3817 65.6338H41.1884C40.9189 65.6338 40.6604 65.7409 40.4698 65.9315C40.2792 66.1221 40.1721 66.3806 40.1721 66.6501C40.1721 66.9204 40.2789 67.1797 40.4693 67.3715C40.6597 67.5633 40.9182 67.672 41.1884 67.674H51.3817C51.6532 67.674 51.9136 67.5661 52.1056 67.3741C52.2976 67.1821 52.4056 66.9217 52.4056 66.6501C52.4056 66.516 52.379 66.3833 52.3275 66.2595C52.2759 66.1357 52.2003 66.0233 52.1052 65.9288C52.01 65.8343 51.8971 65.7596 51.773 65.709C51.6488 65.6584 51.5157 65.6328 51.3817 65.6338Z" fill="black"/>
<path d="M37.1155 69.7065H36.0842C35.8139 69.7085 35.5555 69.8173 35.3651 70.0091C35.1747 70.2009 35.0679 70.4602 35.0679 70.7304C35.0679 71 35.1749 71.2585 35.3655 71.4491C35.5561 71.6397 35.8146 71.7467 36.0842 71.7467H37.108C37.2418 71.7477 37.3744 71.7221 37.4981 71.6714C37.6219 71.6207 37.7343 71.5458 37.8289 71.4513C37.9234 71.3567 37.9983 71.2443 38.049 71.1205C38.0998 70.9968 38.1253 70.8642 38.1243 70.7304C38.1253 70.597 38.1 70.4646 38.0499 70.3409C37.9997 70.2172 37.9257 70.1046 37.832 70.0095C37.7383 69.9145 37.6268 69.8388 37.5039 69.7868C37.381 69.7348 37.249 69.7075 37.1155 69.7065Z" fill="black"/>
<path d="M49.3491 69.7065H41.1884C40.9182 69.7085 40.6597 69.8173 40.4693 70.0091C40.2789 70.2009 40.1721 70.4602 40.1721 70.7304C40.1721 71 40.2792 71.2585 40.4698 71.4491C40.6604 71.6397 40.9189 71.7467 41.1884 71.7467H49.3491C49.6186 71.7467 49.8771 71.6397 50.0677 71.4491C50.2583 71.2585 50.3654 71 50.3654 70.7304C50.3654 70.4602 50.2585 70.2009 50.0682 70.0091C49.8778 69.8173 49.6193 69.7085 49.3491 69.7065Z" fill="black"/>
<path d="M37.1155 73.7871H36.0842C35.8152 73.7891 35.5579 73.8968 35.3677 74.0869C35.1776 74.2771 35.0698 74.5345 35.0679 74.8034C35.0679 75.0737 35.1747 75.3329 35.3651 75.5247C35.5555 75.7165 35.8139 75.8253 36.0842 75.8273H37.108C37.2421 75.8273 37.3749 75.8007 37.4987 75.7492C37.6225 75.6976 37.7348 75.6221 37.8293 75.5269C37.9238 75.4317 37.9985 75.3188 38.0491 75.1947C38.0998 75.0705 38.1253 74.9375 38.1243 74.8034C38.1243 74.5352 38.0183 74.2778 37.8293 74.0874C37.6403 73.8971 37.3838 73.7891 37.1155 73.7871Z" fill="black"/>
<path d="M49.3491 73.7871H41.1884C40.9195 73.7891 40.6621 73.8968 40.4719 74.0869C40.2817 74.2771 40.1741 74.5345 40.1721 74.8034C40.1721 75.0737 40.2789 75.3329 40.4693 75.5247C40.6597 75.7165 40.9182 75.8253 41.1884 75.8273H49.3491C49.6193 75.8253 49.8778 75.7165 50.0682 75.5247C50.2585 75.3329 50.3654 75.0737 50.3654 74.8034C50.3634 74.5345 50.2557 74.2771 50.0655 74.0869C49.8753 73.8968 49.618 73.7891 49.3491 73.7871Z" fill="black"/>
<path d="M72.7921 63.5935C73.9189 63.5935 74.8323 62.6801 74.8323 61.5533C74.8323 60.4266 73.9189 59.5132 72.7921 59.5132C71.6654 59.5132 70.752 60.4266 70.752 61.5533C70.752 62.6801 71.6654 63.5935 72.7921 63.5935Z" fill="black"/>
<path d="M77.8885 63.5935C79.0153 63.5935 79.9287 62.6801 79.9287 61.5533C79.9287 60.4266 79.0153 59.5132 77.8885 59.5132C76.7618 59.5132 75.8484 60.4266 75.8484 61.5533C75.8484 62.6801 76.7618 63.5935 77.8885 63.5935Z" fill="black"/>
<path d="M81.2538 51.413C81.1487 51.3808 81.0398 51.3631 80.93 51.3603H71.8961L71.7531 50.216C71.7219 49.9705 71.6023 49.7448 71.4165 49.5812C71.2308 49.4177 70.9918 49.3275 70.7443 49.3277H68.7041C68.5703 49.3267 68.4377 49.3523 68.314 49.403C68.1902 49.4537 68.0778 49.5285 67.9832 49.6231C67.8887 49.7176 67.8138 49.8301 67.7631 49.9539C67.7124 50.0776 67.6868 50.2102 67.6878 50.344C67.6868 50.4777 67.7124 50.6103 67.7631 50.7341C67.8138 50.8578 67.8887 50.9703 67.9832 51.0649C68.0778 51.1594 68.1902 51.2342 68.314 51.285C68.4377 51.3357 68.5703 51.3613 68.7041 51.3603H69.8409L69.9839 52.497L70.7368 58.595C70.7695 58.8418 70.8904 59.0685 71.0772 59.2332C71.264 59.3978 71.5041 59.4894 71.7531 59.4908H78.8899C79.1042 59.4886 79.3126 59.4201 79.4865 59.2947C79.6603 59.1694 79.7912 58.9933 79.861 58.7907L81.8936 52.6777C81.9707 52.4251 81.9472 52.1524 81.8279 51.9167C81.7087 51.681 81.503 51.5005 81.2538 51.413ZM78.1521 57.4808H72.6489L72.1445 53.4004H79.5147L78.1521 57.4808Z" fill="black"/>
<path d="M79.5299 53.4009L78.1672 57.4812H72.6641L72.1597 53.4009H79.5299Z" fill="#1A374D"/>
<path d="M50.3879 85.0043C50.3859 85.2733 50.2782 85.5306 50.088 85.7208C49.8979 85.911 49.6405 86.0187 49.3716 86.0206H45.2912C45.0217 86.0206 44.7632 85.9136 44.5726 85.723C44.382 85.5324 44.2749 85.2739 44.2749 85.0043C44.2739 84.8702 44.2995 84.7372 44.3501 84.6131C44.4007 84.4889 44.4754 84.376 44.5699 84.2808C44.6644 84.1856 44.7768 84.1101 44.9006 84.0586C45.0244 84.007 45.1571 83.9805 45.2912 83.9805H49.3716C49.6418 83.9825 49.9003 84.0912 50.0907 84.283C50.2811 84.4748 50.3879 84.7341 50.3879 85.0043Z" fill="black"/>
<path d="M56.7266 47.3176L52.6689 46.3013C52.5881 46.2778 52.5045 46.2651 52.4204 46.2637H50.3878C50.2537 46.2637 50.1209 46.2902 49.9971 46.3417C49.8733 46.3933 49.761 46.4688 49.6665 46.564C49.572 46.6592 49.4973 46.7721 49.4467 46.8963C49.396 47.0204 49.3705 47.1534 49.3715 47.2875C49.3695 47.828 49.1539 48.3457 48.7718 48.7279C48.3896 49.1101 47.8717 49.3257 47.3313 49.3277C47.0633 49.3277 46.7981 49.2749 46.5506 49.1724C46.3031 49.0699 46.0781 48.9196 45.8887 48.7301C45.6992 48.5407 45.549 48.3158 45.4464 48.0682C45.3439 47.8207 45.2911 47.5554 45.2911 47.2875C45.2911 47.0173 45.1843 46.758 44.9939 46.5662C44.8035 46.3744 44.5451 46.2657 44.2748 46.2637H42.2046C42.1204 46.2651 42.0369 46.2778 41.9562 46.3013L37.9059 47.3176C37.6892 47.3758 37.4977 47.5041 37.3615 47.6825C37.2253 47.8609 37.1521 48.0794 37.1531 48.3038V52.3842C37.1521 52.5179 37.1776 52.6505 37.2284 52.7743C37.2791 52.898 37.354 53.0104 37.4486 53.105C37.5431 53.1996 37.6555 53.2744 37.7793 53.3252C37.9031 53.3759 38.0357 53.4015 38.1694 53.4005C38.2518 53.4115 38.3354 53.4115 38.4178 53.4005L41.2258 52.7003V61.5837C41.2258 61.8553 41.3338 62.1157 41.5258 62.3077C41.7178 62.4997 41.9781 62.6075 42.2497 62.6075H52.443C52.5771 62.6075 52.7099 62.581 52.8337 62.5295C52.9575 62.4779 53.0698 62.4024 53.1643 62.3072C53.2588 62.2121 53.3335 62.0991 53.3841 61.975C53.4348 61.8508 53.4603 61.7178 53.4593 61.5837V52.7003L56.2674 53.4005C56.5319 53.4642 56.8109 53.4208 57.0435 53.2798C57.2762 53.1388 57.4436 52.9116 57.5095 52.6476C57.5169 52.565 57.5169 52.4818 57.5095 52.3992V48.3189C57.5123 48.0878 57.4363 47.8628 57.2939 47.6807C57.1516 47.4987 56.9515 47.3706 56.7266 47.3176ZM55.4618 51.0817L52.6538 50.3816C52.5024 50.3438 52.3442 50.3411 52.1916 50.3737C52.0389 50.4063 51.8957 50.4734 51.773 50.5698C51.6524 50.6652 51.5546 50.7864 51.4869 50.9245C51.4192 51.0626 51.3831 51.214 51.3815 51.3678V60.5523H43.2284V51.3754C43.2284 51.1058 43.1213 50.8473 42.9307 50.6567C42.7401 50.4661 42.4816 50.3591 42.2121 50.3591C42.1296 50.348 42.0461 50.348 41.9637 50.3591L39.1556 51.0592V49.0868L42.31 48.2888H43.3564C43.6276 49.336 44.3027 50.233 45.2341 50.7834C46.1654 51.3337 47.2769 51.4924 48.3251 51.2248C49.0314 51.0425 49.6758 50.6739 50.1909 50.1574C50.7061 49.6409 51.0731 48.9956 51.2536 48.2888H52.3L55.4618 49.0868V51.0817Z" fill="black"/>
<path d="M55.462 49.1021V51.0745L52.654 50.3744C52.5026 50.3365 52.3444 50.3338 52.1918 50.3664C52.0391 50.399 51.8959 50.4661 51.7732 50.5626C51.6526 50.658 51.5548 50.7792 51.4871 50.9173C51.4194 51.0553 51.3833 51.2068 51.3817 51.3606V60.5526H43.2286V51.3756C43.2286 51.1061 43.1215 50.8476 42.9309 50.657C42.7403 50.4664 42.4818 50.3593 42.2123 50.3593C42.1298 50.3483 42.0463 50.3483 41.9639 50.3593L39.1558 51.0595V49.0871L42.3102 48.2891H43.3566C43.6278 49.3363 44.3029 50.2333 45.2343 50.7836C46.1656 51.334 47.2771 51.4927 48.3253 51.2251C49.0316 51.0428 49.676 50.6741 50.1911 50.1577C50.7063 49.6412 51.0733 48.9959 51.2538 48.2891H52.3002L55.462 49.1021Z" fill="#1A374D"/>
<path d="M62.4331 26.0351C63.1981 26.0351 63.8183 25.4149 63.8183 24.6499C63.8183 23.8848 63.1981 23.2646 62.4331 23.2646C61.668 23.2646 61.0479 23.8848 61.0479 24.6499C61.0479 25.4149 61.668 26.0351 62.4331 26.0351Z" fill="black"/>
<path d="M68.4331 26.0351C69.1981 26.0351 69.8183 25.4149 69.8183 24.6499C69.8183 23.8848 69.1981 23.2646 68.4331 23.2646C67.668 23.2646 67.0479 23.8848 67.0479 24.6499C67.0479 25.4149 67.668 26.0351 68.4331 26.0351Z" fill="black"/>
<path d="M74.4258 26.0351C75.1908 26.0351 75.811 25.4149 75.811 24.6499C75.811 23.8848 75.1908 23.2646 74.4258 23.2646C73.6607 23.2646 73.0405 23.8848 73.0405 24.6499C73.0405 25.4149 73.6607 26.0351 74.4258 26.0351Z" fill="black"/>
<path d="M80.4257 26.0351C81.1908 26.0351 81.811 25.4149 81.811 24.6499C81.811 23.8848 81.1908 23.2646 80.4257 23.2646C79.6607 23.2646 79.0405 23.8848 79.0405 24.6499C79.0405 25.4149 79.6607 26.0351 80.4257 26.0351Z" fill="black"/>
<defs>
<filter id="filter0_d_0_1" x="0" y="0" width="119" height="119" filterUnits="userSpaceOnUse" color-interpolation-filters="sRGB">
<feFlood flood-opacity="0" result="BackgroundImageFix"/>
<feColorMatrix in="SourceAlpha" type="matrix" values="0 0 0 0 0 0 0 0 0 0 0 0 0 0 0 0 0 0 127 0" result="hardAlpha"/>
<feOffset dy="4"/>
<feGaussianBlur stdDeviation="2"/>
<feComposite in2="hardAlpha" operator="out"/>
<feColorMatrix type="matrix" values="0 0 0 0 0 0 0 0 0 0 0 0 0 0 0 0 0 0 0.25 0"/>
<feBlend mode="normal" in2="BackgroundImageFix" result="effect1_dropShadow_0_1"/>
<feBlend mode="normal" in="SourceGraphic" in2="effect1_dropShadow_0_1" result="shape"/>
</filter>
</defs>
</svg>
