<svg width="119" height="119" viewBox="0 0 119 119" fill="none" xmlns="http://www.w3.org/2000/svg">
<g filter="url(#filter0_d_0_1)">
<circle cx="59.5" cy="55.5" r="55" fill="white" stroke="#1A374D"/>
</g>
<path d="M86.0257 27.6646H31.108C29.5411 27.6645 28.0383 28.2865 26.9298 29.3939C25.8212 30.5012 25.1976 32.0033 25.1958 33.5702V77.8923C25.1976 79.4598 25.821 80.9625 26.9294 82.0709C28.0378 83.1793 29.5405 83.8028 31.108 83.8045H86.0257C87.5926 83.8028 89.0946 83.1791 90.202 82.0705C91.3093 80.9619 91.9313 79.4591 91.9313 77.8923V33.5702C91.9313 32.0039 91.3092 30.5018 90.2016 29.3943C89.0941 28.2867 87.5919 27.6646 86.0257 27.6646V27.6646ZM58.8359 74.6837H56.3315L57.6601 73.7138L58.8359 74.6837ZM58.4705 72.259V52.5492L60.2575 73.7005L58.4705 72.259ZM56.8031 72.3454L54.8966 73.7736L56.8031 54.4026V72.3454ZM53.4418 70.9171L53.0631 74.6837H36.0238L36.3427 70.9171H53.4418ZM73.3708 68.5522V70.0867H70.9992V68.5522H73.3708ZM70.9992 63.1116V61.577H73.3708V63.1116H70.9992ZM70.9992 49.1613V47.6334H73.3708V49.1613H70.9992ZM70.9992 56.1364V54.6019H73.3708V56.1364H70.9992ZM90.9282 36.2074H46.6593C47.3446 35.3784 47.7141 34.3335 47.7023 33.2579V28.6743H86.1851C87.4455 28.6813 88.6519 29.1869 89.5407 30.0807C90.4294 30.9744 90.9282 32.1836 90.9282 33.444V36.2074Z" fill="white"/>
<path d="M81.8938 45.9663H70.1822C69.9602 45.9663 69.7473 46.0545 69.5904 46.2115C69.4334 46.3685 69.3452 46.5814 69.3452 46.8034V50.0053C69.3452 50.2273 69.4334 50.4402 69.5904 50.5972C69.7473 50.7541 69.9602 50.8423 70.1822 50.8423H81.8938C82.004 50.8432 82.1133 50.8221 82.2152 50.7804C82.3172 50.7386 82.4098 50.677 82.4877 50.5991C82.5656 50.5212 82.6272 50.4286 82.6689 50.3267C82.7107 50.2247 82.7318 50.1155 82.7309 50.0053V46.8034C82.7318 46.6932 82.7107 46.5839 82.6689 46.482C82.6272 46.38 82.5656 46.2874 82.4877 46.2095C82.4098 46.1316 82.3172 46.07 82.2152 46.0282C82.1133 45.9865 82.004 45.9655 81.8938 45.9663ZM73.3908 49.1683H71.0193V47.6404H73.3908V49.1683ZM81.0568 49.1683H75.0781V47.6404H81.0568V49.1683Z" fill="black"/>
<path d="M86.0789 52.9346H70.1822C69.9602 52.9346 69.7473 53.0228 69.5904 53.1797C69.4334 53.3367 69.3452 53.5496 69.3452 53.7716V56.9802C69.347 57.2016 69.4357 57.4135 69.5923 57.5701C69.7489 57.7267 69.9608 57.8154 70.1822 57.8172H86.0789C86.3009 57.8172 86.5138 57.729 86.6708 57.572C86.8277 57.4151 86.9159 57.2022 86.9159 56.9802V53.7716C86.9168 53.6614 86.8958 53.5522 86.854 53.4503C86.8123 53.3483 86.7507 53.2557 86.6728 53.1777C86.5949 53.0998 86.5022 53.0383 86.4002 52.9965C86.2983 52.9548 86.189 52.9337 86.0789 52.9346V52.9346ZM73.3908 56.1431H71.0193V54.6086H73.3908V56.1431ZM85.2419 56.1431H75.0648V54.6086H85.2419V56.1431Z" fill="black"/>
<path d="M81.8938 59.9028H70.1822C69.9608 59.9046 69.7489 59.9933 69.5923 60.1499C69.4357 60.3065 69.347 60.5184 69.3452 60.7399V63.9484C69.3452 64.1704 69.4334 64.3833 69.5904 64.5403C69.7473 64.6973 69.9602 64.7854 70.1822 64.7854H81.8938C82.004 64.7863 82.1133 64.7653 82.2152 64.7235C82.3172 64.6818 82.4098 64.6201 82.4877 64.5422C82.5656 64.4643 82.6272 64.3717 82.6689 64.2698C82.7107 64.1678 82.7318 64.0586 82.7309 63.9484V60.7399C82.7309 60.5179 82.6427 60.3049 82.4857 60.148C82.3288 59.991 82.1158 59.9028 81.8938 59.9028V59.9028ZM73.3908 63.1114H71.0193V61.5768H73.3908V63.1114ZM81.0568 63.1114H75.0781V61.5768H81.0568V63.1114Z" fill="black"/>
<path d="M84.6839 66.878H70.1822C69.9602 66.878 69.7473 66.9661 69.5904 67.1231C69.4334 67.2801 69.3452 67.493 69.3452 67.715V70.9169C69.3452 71.1389 69.4334 71.3518 69.5904 71.5088C69.7473 71.6657 69.9602 71.7539 70.1822 71.7539H84.6839C84.794 71.7548 84.9033 71.7338 85.0052 71.692C85.1072 71.6502 85.1998 71.5886 85.2777 71.5107C85.3556 71.4328 85.4173 71.3402 85.459 71.2382C85.5008 71.1363 85.5218 71.0271 85.5209 70.9169V67.715C85.5218 67.6048 85.5008 67.4956 85.459 67.3936C85.4173 67.2917 85.3556 67.199 85.2777 67.1211C85.1998 67.0432 85.1072 66.9816 85.0052 66.9399C84.9033 66.8981 84.794 66.8771 84.6839 66.878V66.878ZM73.3908 70.0865H71.0193V68.552H73.3908V70.0865ZM83.8468 70.0865H75.0648V68.552H83.8468V70.0865Z" fill="black"/>
<path d="M59.9852 51.2337C59.9689 51.0279 59.8771 50.8354 59.7275 50.6932C59.5779 50.551 59.3811 50.469 59.1747 50.4631L53.196 50.4233V48.3905C53.1987 47.6176 53.0491 46.8517 52.7557 46.1366C52.4624 45.4215 52.031 44.7712 51.4863 44.2229C50.9416 43.6745 50.2942 43.2387 49.5812 42.9405C48.8681 42.6423 48.1032 42.4875 47.3303 42.4849V42.4849C45.7561 42.4848 44.2454 43.1055 43.126 44.2124C42.0067 45.3193 41.3691 46.823 41.3516 48.3971V50.4299H37.1864C36.9772 50.4274 36.7747 50.5041 36.6195 50.6445C36.4643 50.7849 36.3678 50.9787 36.3494 51.1872L34.3034 75.5271C34.2933 75.6378 34.3078 75.7493 34.3456 75.8538C34.3835 75.9583 34.4439 76.0531 34.5226 76.1317C34.6035 76.2116 34.7004 76.2736 34.8068 76.3136C34.9133 76.3537 35.0269 76.3709 35.1404 76.3641H61.2075C61.4162 76.3769 61.6214 76.3065 61.7783 76.1683C61.9351 76.0301 62.0309 75.8354 62.0446 75.6268V75.5072L59.9852 51.2337ZM42.9991 48.3905C43.0113 47.261 43.4691 46.1821 44.2728 45.3884C45.0764 44.5947 46.161 44.1504 47.2905 44.1523C47.8446 44.1512 48.3934 44.2598 48.9053 44.4719C49.4173 44.6839 49.8822 44.9953 50.2732 45.3878C51.0618 46.18 51.5038 47.2528 51.5021 48.3705V50.4233H42.9991V48.3905ZM53.0632 74.6835H36.0239L36.3428 70.9169H53.4419L53.0632 74.6835ZM36.4557 69.2495L37.9039 52.0973H41.2985V54.7545C41.2976 54.8647 41.3186 54.9739 41.3604 55.0759C41.4021 55.1778 41.4638 55.2704 41.5417 55.3483C41.6196 55.4262 41.7122 55.4879 41.8142 55.5296C41.9161 55.5714 42.0254 55.5924 42.1355 55.5915C42.3575 55.5915 42.5704 55.5033 42.7273 55.3463C42.8843 55.1894 42.9725 54.9765 42.9725 54.7545V52.0973H51.4755V54.7545C51.4746 54.8647 51.4957 54.9739 51.5375 55.0759C51.5792 55.1778 51.6408 55.2704 51.7187 55.3483C51.7966 55.4262 51.8892 55.4879 51.9912 55.5296C52.0931 55.5714 52.2024 55.5924 52.3126 55.5915C52.5345 55.5915 52.7475 55.5033 52.9044 55.3463C53.0614 55.1894 53.1496 54.9765 53.1496 54.7545V52.0973H55.2687L53.5747 69.2495H36.4557ZM56.7766 54.4024V72.3385L54.8701 73.7667L56.7766 54.4024ZM56.305 74.6835L57.6336 73.7136L58.836 74.6835H56.305ZM58.444 72.2588V52.549L60.231 73.7003L58.444 72.2588Z" fill="black"/>
<path d="M86.2183 27H30.4172C28.7158 27.0018 27.0845 27.6784 25.8815 28.8815C24.6784 30.0845 24.0018 31.7158 24 33.4172V78.5895C24.0018 80.2903 24.6786 81.9208 25.8819 83.1228C27.0851 84.3248 28.7164 85 30.4172 85H86.2183C87.0602 85 87.8937 84.8342 88.6715 84.512C89.4493 84.1899 90.156 83.7177 90.7512 83.1224C91.3465 82.5271 91.8187 81.8205 92.1408 81.0427C92.463 80.265 92.6288 79.4314 92.6288 78.5895V33.4172C92.6288 31.7164 91.9537 30.0851 90.7516 28.8819C89.5496 27.6786 87.9191 27.0018 86.2183 27ZM86.2183 83.326H30.4172C29.1574 83.3207 27.951 82.8166 27.0621 81.9239C26.1732 81.0312 25.674 79.8227 25.674 78.563V37.8746H90.9282V78.563C90.9265 79.8165 90.4315 81.019 89.55 81.9104C88.6686 82.8017 87.4718 83.3103 86.2183 83.326V83.326ZM30.4172 28.674H46.0282V33.2577C46.0308 33.6424 45.9576 34.0239 45.8128 34.3803C45.668 34.7368 45.4545 35.0612 45.1843 35.3351C44.9141 35.609 44.5925 35.827 44.2381 35.9766C43.8837 36.1262 43.5033 36.2046 43.1186 36.2072H25.674V33.4437C25.674 32.8168 25.7976 32.196 26.0377 31.6169C26.2779 31.0378 26.6297 30.5117 27.0734 30.0687C27.517 29.6257 28.0436 29.2745 28.623 29.0352C29.2025 28.7959 29.8234 28.6732 30.4503 28.674H30.4172ZM90.9282 36.2072H46.6592C47.3446 35.3782 47.7141 34.3332 47.7022 33.2577V28.674H86.1851C87.4455 28.6811 88.6519 29.1867 89.5406 30.0804C90.4294 30.9741 90.9282 32.1833 90.9282 33.4437V36.2072Z" fill="black"/>
<path d="M73.3908 47.6401H71.0193V49.168H73.3908V47.6401Z" fill="#1A374D"/>
<path d="M73.3908 68.5522H71.0193V70.0868H73.3908V68.5522Z" fill="#1A374D"/>
<path d="M73.3908 61.5771H71.0193V63.1117H73.3908V61.5771Z" fill="#1A374D"/>
<path d="M73.3908 54.6084H71.0193V56.1429H73.3908V54.6084Z" fill="#1A374D"/>
<path d="M53.4419 70.9165L53.0632 74.6831H36.0239L36.3428 70.9165H53.4419Z" fill="#1A374D"/>
<path d="M58.836 74.6833H56.3315L57.6336 73.7134L58.836 74.6833Z" fill="#1A374D"/>
<path d="M60.2574 73.7001L58.4705 72.2586V52.5488L60.2574 73.7001Z" fill="#1A374D"/>
<path d="M56.803 54.4023V72.3451L54.8965 73.7733L56.803 54.4023Z" fill="#1A374D"/>
<path d="M90.9616 33.444V36.2075H46.6926C47.3779 35.3784 47.7474 34.3335 47.7355 33.258V28.6743H86.2185C87.4788 28.6813 88.6852 29.187 89.5739 30.0807C90.4627 30.9744 90.9616 32.1836 90.9616 33.444V33.444Z" fill="#1A374D"/>
<path d="M31.3139 31.3179C31.012 31.3196 30.7231 31.4408 30.5103 31.6549C30.2974 31.869 30.178 32.1586 30.178 32.4605C30.178 32.7624 30.2974 33.052 30.5103 33.2661C30.7231 33.4802 31.012 33.6013 31.3139 33.6031C31.6169 33.6031 31.9075 33.4827 32.1218 33.2684C32.3361 33.0541 32.4565 32.7635 32.4565 32.4605C32.4565 32.1575 32.3361 31.8668 32.1218 31.6525C31.9075 31.4383 31.6169 31.3179 31.3139 31.3179Z" fill="black"/>
<path d="M35.8977 31.3179C35.748 31.3179 35.5997 31.3475 35.4615 31.405C35.3232 31.4625 35.1977 31.5468 35.0921 31.6529C34.9865 31.7591 34.903 31.8851 34.8463 32.0237C34.7896 32.1623 34.7609 32.3108 34.7617 32.4605C34.7609 32.6102 34.7896 32.7587 34.8463 32.8972C34.903 33.0358 34.9865 33.1618 35.0921 33.268C35.1977 33.3742 35.3232 33.4585 35.4615 33.516C35.5997 33.5735 35.748 33.6031 35.8977 33.6031C36.2008 33.6031 36.4914 33.4827 36.7057 33.2684C36.9199 33.0541 37.0403 32.7635 37.0403 32.4605C37.0403 32.1575 36.9199 31.8668 36.7057 31.6525C36.4914 31.4383 36.2008 31.3179 35.8977 31.3179Z" fill="black"/>
<path d="M40.4614 31.3179C40.1584 31.3179 39.8678 31.4383 39.6535 31.6525C39.4392 31.8668 39.3188 32.1575 39.3188 32.4605C39.3188 32.7635 39.4392 33.0541 39.6535 33.2684C39.8678 33.4827 40.1584 33.6031 40.4614 33.6031C40.7645 33.6031 41.0551 33.4827 41.2693 33.2684C41.4836 33.0541 41.604 32.7635 41.604 32.4605V32.4605C41.604 32.1575 41.4836 31.8668 41.2693 31.6525C41.0551 31.4383 40.7645 31.3179 40.4614 31.3179V31.3179Z" fill="black"/>
<path d="M28.7765 42.4521C28.8867 42.453 28.9958 42.4319 29.0978 42.3902C29.1997 42.3484 29.2924 42.2868 29.3703 42.2089C29.4482 42.131 29.5098 42.0384 29.5516 41.9364C29.5933 41.8345 29.6143 41.7252 29.6134 41.615V41.0172C29.6134 40.7952 29.5253 40.5823 29.3683 40.4253C29.2113 40.2683 28.9985 40.1802 28.7765 40.1802C28.5545 40.1802 28.3416 40.2683 28.1846 40.4253C28.0276 40.5823 27.9395 40.7952 27.9395 41.0172V41.615C27.9386 41.7252 27.9596 41.8345 28.0014 41.9364C28.0431 42.0384 28.1048 42.131 28.1827 42.2089C28.2606 42.2868 28.3532 42.3484 28.4551 42.3902C28.5571 42.4319 28.6663 42.453 28.7765 42.4521Z" fill="black"/>
<path d="M28.7765 58.7667C28.9985 58.7667 29.2113 58.6786 29.3683 58.5216C29.5253 58.3646 29.6134 58.1517 29.6134 57.9297V44.5441C29.6143 44.4339 29.5933 44.3247 29.5516 44.2227C29.5098 44.1208 29.4482 44.0282 29.3703 43.9503C29.2924 43.8723 29.1997 43.8107 29.0978 43.769C28.9958 43.7272 28.8867 43.7062 28.7765 43.7071C28.6663 43.7062 28.5571 43.7272 28.4551 43.769C28.3532 43.8107 28.2606 43.8723 28.1827 43.9503C28.1048 44.0282 28.0431 44.1208 28.0014 44.2227C27.9596 44.3247 27.9386 44.4339 27.9395 44.5441V57.9297C27.9395 58.1517 28.0276 58.3646 28.1846 58.5216C28.3416 58.6786 28.5545 58.7667 28.7765 58.7667V58.7667Z" fill="black"/>
<defs>
<filter id="filter0_d_0_1" x="0" y="0" width="119" height="119" filterUnits="userSpaceOnUse" color-interpolation-filters="sRGB">
<feFlood flood-opacity="0" result="BackgroundImageFix"/>
<feColorMatrix in="SourceAlpha" type="matrix" values="0 0 0 0 0 0 0 0 0 0 0 0 0 0 0 0 0 0 127 0" result="hardAlpha"/>
<feOffset dy="4"/>
<feGaussianBlur stdDeviation="2"/>
<feComposite in2="hardAlpha" operator="out"/>
<feColorMatrix type="matrix" values="0 0 0 0 0 0 0 0 0 0 0 0 0 0 0 0 0 0 0.25 0"/>
<feBlend mode="normal" in2="BackgroundImageFix" result="effect1_dropShadow_0_1"/>
<feBlend mode="normal" in="SourceGraphic" in2="effect1_dropShadow_0_1" result="shape"/>
</filter>
</defs>
</svg>
