<svg width="792" height="479" viewBox="0 0 792 479" fill="none" xmlns="http://www.w3.org/2000/svg">
<path d="M789.015 479H2.98465C2.19307 479 1.43391 478.686 0.874181 478.127C0.314451 477.568 0 476.81 0 476.02C0 475.23 0.314451 474.472 0.874181 473.913C1.43391 473.354 2.19307 473.04 2.98465 473.04H789.015C789.807 473.04 790.566 473.354 791.126 473.913C791.686 474.472 792 475.23 792 476.02C792 476.81 791.686 477.568 791.126 478.127C790.566 478.686 789.807 479 789.015 479Z" fill="#D4E8FF"/>
<path d="M173.232 471.738C173.232 471.738 89.5365 255.492 149.767 207.339C190.027 175.156 232.698 246.106 283.628 208.57C328.971 175.156 265.753 90.9753 341.411 68.9535C420.931 45.8082 486.08 233.259 552.804 207.339C633.772 175.889 714.31 239.734 644.711 472.153L173.232 471.738Z" fill="#D4E8FF"/>
<path d="M107.749 453.2C106.343 448.9 104.952 444.445 103.615 439.96L106.898 438.982C108.226 443.452 109.605 447.863 111.002 452.133L107.749 453.2ZM697.011 447.639L693.602 447.219C694.169 442.642 694.706 438.035 695.199 433.511L698.616 433.887C698.121 438.431 697.581 443.056 697.011 447.639ZM99.8216 426.627C98.6277 422.193 97.4518 417.688 96.3534 413.218L99.6933 412.401C100.783 416.844 101.944 421.341 103.138 425.739L99.8216 426.627ZM700.034 420.137L696.614 419.815C697.049 415.22 697.452 410.598 697.807 406.078L701.234 406.349C700.864 410.887 700.461 415.524 700.022 420.137H700.034ZM93.2255 399.704C92.2346 395.189 91.2885 390.621 90.42 386.13L93.7926 385.48C94.6582 389.95 95.5983 394.48 96.5833 398.971L93.2255 399.704ZM702.222 392.552L698.792 392.337C699.091 387.745 699.339 383.099 699.551 378.573L702.983 378.734C702.759 383.272 702.502 387.936 702.225 392.543L702.222 392.552ZM87.9457 372.491C87.1816 367.919 86.4743 363.309 85.8415 358.783L89.247 358.309C89.8738 362.8 90.5752 367.377 91.3363 371.919L87.9457 372.491ZM703.496 364.892L700.061 364.79C700.195 360.18 700.288 355.553 700.335 351.011L703.771 351.047C703.717 355.6 703.631 360.258 703.496 364.892V364.892ZM84.1194 345.03C83.606 340.412 83.1583 335.769 82.7912 331.227L86.2176 330.95C86.5817 335.459 87.0234 340.069 87.5338 344.658L84.1194 345.03ZM700.35 337.232C700.309 332.619 700.222 327.994 700.088 323.459L703.523 323.357C703.657 327.908 703.747 332.565 703.786 337.202L700.35 337.232ZM81.8928 317.385C81.663 312.743 81.5138 308.079 81.4421 303.526L84.8775 303.472C84.9491 307.987 85.0983 312.612 85.3222 317.219L81.8928 317.385ZM699.539 309.694C699.303 305.087 699.013 300.456 698.679 295.951L702.105 295.697C702.443 300.233 702.735 304.885 702.971 309.521L699.539 309.694ZM84.9133 289.729L81.478 289.66C81.5735 285.002 81.7585 280.339 82.0271 275.794L85.4565 275.997C85.1879 280.488 84.9998 285.107 84.9103 289.72L84.9133 289.729ZM697.485 282.243C697.026 277.636 696.506 273.035 695.939 268.565L699.351 268.136C699.921 272.633 700.443 277.266 700.906 281.903L697.485 282.243ZM86.5429 262.286L83.1255 261.943C83.5911 257.304 84.1612 252.664 84.8148 248.158L88.2173 248.653C87.5696 253.114 87.0055 257.7 86.5429 262.286ZM694.014 254.923C693.298 250.346 692.522 245.783 691.68 241.367L695.059 240.732C695.897 245.184 696.688 249.782 697.411 254.395L694.014 254.923ZM287.595 254.44C282.819 253.689 279.366 251.517 274.582 247.771L276.751 245.11C280.93 248.388 283.971 250.348 287.959 251.028L287.595 254.44ZM299.515 246.275L296.456 244.716C298.029 241.641 299.42 237.371 300.59 232.031L303.948 232.764C302.697 238.476 301.246 242.899 299.515 246.281V246.275ZM264.494 237.931C261.757 234.889 258.823 231.375 255.54 227.224L258.226 225.102C261.485 229.209 264.377 232.657 267.063 235.642L264.494 237.931ZM90.5125 235.118L87.1398 234.465C88.0352 229.885 89.0351 225.32 90.1245 220.892L93.4583 221.717C92.3868 226.089 91.39 230.597 90.5125 235.121V235.118ZM688.904 227.901C687.887 223.368 686.788 218.877 685.639 214.547L688.964 213.671C690.122 218.04 691.229 222.575 692.247 227.15L688.904 227.901ZM306.273 218.961L302.864 218.523C303.392 214.428 303.867 209.943 304.312 204.815L307.735 205.113C307.269 210.286 306.792 214.819 306.258 218.961H306.273ZM247.15 216.171C244.356 212.405 241.458 208.424 238.963 204.988L241.745 202.973C244.237 206.403 247.117 210.375 249.911 214.13L247.15 216.171ZM498.738 215.891C495.962 215.859 493.254 215.032 490.936 213.507L492.768 210.605C496.526 212.974 500.23 212.989 504.217 211.091L505.71 214.187C503.538 215.271 501.15 215.854 498.723 215.891H498.738ZM97.1235 208.498L93.8404 207.494C95.2073 203.024 96.7026 198.602 98.2935 194.317L101.517 195.508C99.947 199.731 98.4696 204.103 97.1235 208.498ZM516.917 205.22L514.392 202.893C517.445 199.522 520.296 195.975 522.931 192.269L525.716 194.281C523.001 198.099 520.063 201.754 516.917 205.226V205.22ZM481.149 202.86C478.632 198.903 476.381 194.784 474.41 190.529L477.517 189.063C479.423 193.175 481.6 197.157 484.032 200.983L481.149 202.86ZM681.843 201.343C680.461 196.897 678.983 192.52 677.452 188.336L680.682 187.144C682.231 191.381 683.726 195.809 685.126 200.309L681.843 201.343ZM230.803 193.804C227.666 189.513 225.039 185.999 222.556 182.722L225.296 180.636C227.791 183.914 230.421 187.46 233.576 191.766L230.803 193.804ZM308.753 191.253L305.323 191.033C305.586 187.013 305.849 182.492 306.135 177.218L309.565 177.402C309.281 182.692 309.016 187.221 308.753 191.253V191.253ZM106.662 182.808L103.52 181.422C105.406 177.155 107.417 172.971 109.552 168.871L112.599 170.456C110.498 174.489 108.519 178.606 106.662 182.808V182.808ZM533.589 182.808L530.715 180.925C533.159 177.218 535.682 173.29 538.233 169.321L541.126 171.177C538.565 175.152 536.04 179.083 533.592 182.805L533.589 182.808ZM468.879 177.742C467.321 173.841 465.715 169.589 463.963 164.738L467.196 163.575C468.933 168.388 470.53 172.608 472.073 176.47L468.879 177.742ZM672.399 175.599C670.552 171.305 668.597 167.13 666.588 163.194L669.653 161.638C671.692 165.64 673.68 169.881 675.557 174.247L672.399 175.599ZM214.074 171.848C210.955 167.974 208.051 164.544 205.201 161.331L207.77 159.055C210.659 162.309 213.596 165.786 216.748 169.696L214.074 171.848ZM310.281 163.563L306.849 163.391C307.081 158.807 307.311 154.221 307.556 149.555L310.988 149.733C310.744 154.412 310.514 158.98 310.281 163.563ZM548.659 159.585L545.794 157.693C548.665 153.357 551.232 149.605 553.643 146.223L556.443 148.214C554.055 151.56 551.5 155.282 548.659 159.585ZM119.416 158.617L116.518 156.772C119.024 152.82 121.789 149.037 124.794 145.448L127.421 147.662C124.513 151.133 121.839 154.793 119.416 158.617V158.617ZM459.367 151.638C457.791 147.028 456.245 142.4 454.941 138.508L458.2 137.423C459.504 141.321 461.047 145.928 462.62 150.535L459.367 151.638ZM195.745 151.396C192.498 148.215 189.071 145.222 185.481 142.433L187.57 139.712C191.266 142.587 194.794 145.671 198.136 148.95L195.745 151.396ZM659.911 151.25C657.449 147.239 654.867 143.446 652.238 139.974L654.978 137.903C657.664 141.464 660.32 145.353 662.842 149.456L659.911 151.25ZM137.058 138.32L134.969 135.594C139.073 132.468 143.344 130.215 147.663 128.895L148.668 132.173C144.744 133.371 140.837 135.439 137.058 138.32ZM564.731 137.271L562.06 135.111C564.988 131.475 568.105 127.994 571.396 124.681L573.828 127.104C570.621 130.331 567.584 133.722 564.731 137.265V137.271ZM311.758 135.924L308.326 135.719C308.625 130.733 308.923 126.204 309.221 121.874L312.648 122.118C312.349 126.427 312.054 130.945 311.758 135.918V135.924ZM174.124 135.203C169.838 133.076 165.618 131.714 161.589 131.162L162.054 127.762C166.457 128.358 171.032 129.848 175.656 132.134L174.124 135.203ZM643.403 129.658C640.264 126.42 636.858 123.451 633.223 120.78L635.246 118.006C639.038 120.79 642.589 123.886 645.863 127.262L643.403 129.658ZM450.562 125.384C448.855 120.28 447.446 116.117 446.13 112.273L449.38 111.161C450.7 115.002 452.111 119.171 453.822 124.273L450.562 125.384ZM584.113 118.334L582.144 115.524C586.37 112.571 590.638 110.386 594.831 109.024L595.891 112.287C592.023 113.536 588.059 115.571 584.113 118.328V118.334ZM621.609 114.132C617.536 112.383 613.218 111.269 608.805 110.827L609.125 107.412C613.887 107.885 618.548 109.083 622.947 110.964L621.609 114.132ZM313.758 108.339L310.335 108.041C310.762 103.225 311.23 98.5767 311.72 94.223L315.134 94.6044C314.648 98.9283 314.182 103.55 313.758 108.339ZM441.558 99.2293C439.898 94.6015 438.331 90.3729 436.782 86.2993L439.994 85.0746C441.561 89.172 443.134 93.4184 444.802 98.0731L441.558 99.2293ZM316.883 80.9175L313.484 80.4288C314.179 75.6252 314.943 71.0032 315.755 66.6972L319.13 67.3319C318.328 71.5903 317.573 76.1615 316.883 80.9175ZM431.67 73.4885C429.822 69.0544 427.96 64.8109 426.136 60.8774L429.255 59.4351C431.1 63.4103 432.977 67.6955 434.842 72.1714L431.67 73.4885ZM322.049 53.9043L318.716 53.0729C319.909 48.2841 321.235 43.7695 322.643 39.6631L325.894 40.7746C324.518 44.7886 323.225 49.2198 322.049 53.9043ZM420.032 48.5642C417.773 44.3148 415.463 40.3247 413.168 36.707L416.072 34.8714C418.412 38.5635 420.764 42.6192 423.065 46.9551L420.032 48.5642ZM331.054 28.1993L327.974 26.6825C330.031 22.4372 332.523 18.4166 335.412 14.6852L338.098 16.8099C335.362 20.3532 333.002 24.1701 331.054 28.1993V28.1993ZM405.294 25.5769C402.496 22.0371 399.415 18.7286 396.084 15.6835L398.388 13.1386C401.857 16.3084 405.065 19.7524 407.98 23.4373L405.294 25.5769ZM347.691 7.91474L345.84 5.02717C349.88 2.43578 354.422 0.722893 359.17 0L359.692 3.3882C355.42 4.04133 351.333 5.58351 347.697 7.91474H347.691ZM385.234 7.91474C381.363 5.80589 377.18 4.32713 372.842 3.53422L373.439 0.157937C378.14 1.01207 382.674 2.6106 386.87 4.89308L385.234 7.91474Z" fill="#DCE6FF"/>
<path d="M693.537 442.275C667.302 440.487 671.585 456.755 634.187 456.755C599.998 456.755 600.935 420.268 578.055 412.511C535.92 398.231 501.185 470.507 484.847 434.235C453.807 337.983 363.333 289.708 321.587 434.235C305.252 470.507 267.051 405.783 228.379 412.511C204.577 416.656 206.439 456.755 172.25 456.755C134.852 456.755 139.12 440.475 112.9 442.275C84.6537 444.218 76.2161 473.034 76.2161 473.034H730.221C730.221 473.034 721.783 444.224 693.537 442.275Z" fill="#8A9EFF"/>
<path d="M548.981 472.635L570.602 458.856C570.241 457.476 565.827 452.935 564.818 450.881C563.976 449.737 555.819 433.198 554.924 431.512L542.51 439.423L554.712 454.094C555.41 454.939 555.793 456.001 555.793 457.098C555.793 458.194 555.41 459.256 554.712 460.101C551.694 464.16 546.671 466.323 546.119 471.082C546.119 471.415 546.209 471.742 546.379 472.029C546.55 472.315 546.795 472.55 547.088 472.709C547.381 472.868 547.711 472.945 548.045 472.932C548.378 472.919 548.701 472.816 548.981 472.635Z" fill="#FFC9AE"/>
<path d="M569.93 456.362C570.32 457.14 570.548 457.988 570.602 458.856L548.814 472.749C548.568 472.907 548.288 473.005 547.997 473.033C547.706 473.062 547.412 473.021 547.14 472.913C546.868 472.806 546.625 472.635 546.433 472.415C546.24 472.195 546.103 471.933 546.032 471.649C545.367 468.788 546.074 463.57 555.789 456.642C555.789 456.642 559.857 455.48 564.827 450.882C564.818 450.882 568.402 453.176 569.93 456.362Z" fill="#1D3F70"/>
<path d="M546.014 471.605L569.93 456.362C570.32 457.14 570.548 457.989 570.602 458.857L548.814 472.749C548.565 472.911 548.28 473.011 547.984 473.039C547.688 473.067 547.389 473.022 547.114 472.91C546.838 472.797 546.594 472.62 546.403 472.393C546.212 472.165 546.078 471.895 546.014 471.605V471.605Z" fill="#395B96"/>
<path d="M470.536 473.001H496.186C496.625 471.643 495.356 465.45 495.589 463.168C495.496 461.752 497.526 443.431 497.678 441.533H482.952L485.34 460.453C485.474 461.54 485.226 462.639 484.638 463.563C484.05 464.487 483.159 465.179 482.116 465.519C477.386 467.307 471.986 466.449 468.957 470.165C468.779 470.445 468.68 470.768 468.67 471.1C468.66 471.433 468.741 471.761 468.902 472.051C469.064 472.342 469.301 472.583 469.588 472.75C469.876 472.918 470.203 473.004 470.536 473.001V473.001Z" fill="#FFC9AE"/>
<path d="M496.962 470.532C496.871 471.397 496.607 472.235 496.186 472.996H470.324C470.031 472.997 469.743 472.928 469.482 472.796C469.221 472.663 468.996 472.47 468.825 472.234C468.654 471.997 468.541 471.723 468.497 471.434C468.453 471.145 468.479 470.85 468.572 470.573C469.554 467.805 472.962 463.785 484.88 463.159C484.88 463.159 488.936 464.351 495.604 463.159C495.604 463.165 497.388 467.027 496.962 470.532Z" fill="#1D3F70"/>
<path d="M468.587 470.54H496.962C496.871 471.405 496.607 472.243 496.186 473.004H470.324C470.028 473.005 469.735 472.935 469.472 472.799C469.209 472.663 468.983 472.466 468.812 472.224C468.642 471.982 468.532 471.703 468.493 471.41C468.454 471.116 468.486 470.818 468.587 470.54Z" fill="#395B96"/>
<path d="M466.438 449.154C466.736 452.372 466.981 454.127 466.981 454.127C478.248 459.867 495.141 458.839 506.304 456.151C506.162 455.193 506.027 454.24 505.898 453.293C505.786 452.484 505.679 451.681 505.575 450.882C497.577 389.674 508.232 347.001 508.232 347.001C512.339 376.476 513.371 396.856 534.703 448.483C535.425 450.229 536.17 452.017 536.938 453.847C550.026 451.761 565.513 444.353 575.309 436.942C574.314 435.237 573.353 433.534 572.426 431.831C544.898 381.035 551.846 332.092 537.675 305.326C537.675 305.326 481.615 301.789 480.898 303.798C459.952 362.58 464.617 430.478 466.438 449.154Z" fill="#1D3F70"/>
<path d="M514.658 204.118C514.658 204.118 527.626 196.933 535.723 212.539C539.556 219.929 541.003 228.077 546.316 230.741C550.062 232.615 552.091 237.913 547.51 244.112C542.021 251.562 549.172 251.517 548.981 257.819C548.79 264.122 546.444 271.199 538.642 268.327C530.84 265.454 530.076 272.064 522.594 273.583C515.111 275.103 507.969 263.997 499.108 265.409C490.246 266.822 483.832 259.482 484.238 254.887C484.644 250.292 492.524 246.984 493.138 242.398C493.753 237.812 490.709 231.736 496.398 226.181C502.086 220.627 514.658 204.118 514.658 204.118Z" fill="#8E4A35"/>
<path d="M500.531 269.793C502.167 264.226 499.985 259.128 498.29 253.916C494.78 242.711 487.196 232.567 480.979 222.924C474.287 211.171 471.348 197.097 468.939 183.637C468.291 179.244 461.453 179.593 461.239 183.997C460.086 199.651 461.409 214.989 466.885 230.022C479.451 264.459 496.311 282.732 500.531 269.793Z" fill="#FFC9AE"/>
<path d="M461.167 238.098C462.877 244.502 465.536 250.522 468.396 255.775C472.2 262.782 476.777 269.343 482.042 275.336C485.883 272.593 489.316 269.32 492.237 265.615C497.586 258.797 500.893 250.471 495.78 244.067C484.22 229.564 473.49 203.608 469.437 186.307C466.802 187.502 463.803 187.622 461.08 186.64C459.642 197.487 456.672 221.854 461.167 238.098Z" fill="#F4D4BE"/>
<path d="M515.455 250.069C521.266 249.95 526.91 252.822 531.5 255.817C541.412 262.138 548.032 271.706 555.712 280.214C565.319 289.75 580.245 298.338 592.626 304.185C596.7 305.973 595.718 312.278 591.405 311.337C575.971 308.357 558.156 302.117 545.071 292.903C515.088 271.787 501.845 250.754 515.455 250.069Z" fill="#FFC9AE"/>
<path d="M468.402 255.784C472.206 262.791 476.783 269.352 482.047 275.345C485.889 272.602 489.321 269.329 492.243 265.624L487.868 259.265C487.868 259.265 483.987 263.866 480.674 266.244C478.555 267.764 474.795 265.564 468.402 255.784Z" fill="#FFC9AE"/>
<path d="M513.434 247.002C514.822 249.041 532.652 294.086 534.894 293.707C546.173 306.321 569.963 309.772 583.358 309.432C586.94 304.512 586.862 301.348 586.862 301.348C573.766 293.522 559.278 284.282 548.829 268.092C534.371 245.194 513.434 247.002 513.434 247.002Z" fill="#F4D4BE"/>
<path d="M533.294 273.831L534.682 293.499L534.882 293.713C537.855 296.858 541.341 299.478 545.191 301.461C546.683 302.257 548.226 302.972 549.79 303.619C550.268 303.817 550.748 304.007 551.232 304.188C548.411 302.102 545.262 299.351 543.081 296.213C539.723 291.362 540.77 283.146 533.294 273.831Z" fill="#FFC9AE"/>
<path d="M577.792 309.349C577.792 309.349 581.269 310.058 583.355 309.436C586.937 304.516 586.856 301.351 586.856 301.351C586.722 301.241 584.564 299.497 583.06 299.071C583.06 299.071 584.063 300.591 582.86 301.506C581.657 302.421 580.365 302.03 580.472 303.827C580.58 305.624 581.412 306.322 580.135 307.221C578.857 308.121 578.18 308.086 577.792 309.349Z" fill="#FFC9AE"/>
<path d="M518.49 207.098C518.49 207.098 513.986 200.9 506.665 204.476C499.343 208.051 498.29 223.637 498.29 223.637L518.49 207.098Z" fill="#8E4A35"/>
<path d="M502.746 242.637L502.615 246.151C500.373 248.025 502.579 251.55 504.388 251.699C507.136 251.926 512.431 248.237 513.437 247.003C513.437 247.003 513.324 243.633 513.461 242.086L502.746 242.637Z" fill="#FFC9AE"/>
<path d="M515.117 231.197C515.082 231.382 515.04 231.566 514.986 231.745C514.747 231.566 513.676 238.227 513.392 243.09C508.697 244.908 503.647 243.707 502.722 243.462C502.973 237.297 503.856 231.718 504.964 228.244C507.154 222.388 516.413 225.088 515.117 231.197Z" fill="#FFC9AE"/>
<path d="M523.707 229.671C521.585 234.013 518.481 238.688 513.956 240.613C512.109 241.363 510.103 241.638 508.121 241.415C496.633 241.266 487.784 224.879 498.869 218.508C502.749 216.631 504.889 211.875 508.148 209.827C513.204 205.802 520.83 208.4 523.731 213.806C526.349 218.69 526.065 224.25 523.707 229.671Z" fill="#FFC9AE"/>
<path d="M500.111 228.315L507.035 227.072C506.477 230.857 501.979 232.025 500.111 228.315Z" fill="#F9F8F3"/>
<path d="M507.116 221.578C506.94 220.657 508.39 220.4 508.539 221.324C508.689 222.248 507.268 222.501 507.116 221.578Z" fill="#C16256"/>
<path d="M501.594 218.839C501.418 217.922 502.868 217.665 503.018 218.589C503.167 219.513 501.746 219.766 501.594 218.839Z" fill="#C16256"/>
<path d="M500.003 228.551C500.137 228.658 506.931 227.308 507.083 227.326C507.154 227.313 507.217 227.272 507.258 227.213C507.299 227.154 507.316 227.081 507.304 227.01C507.527 226.369 500.185 228.142 500.063 228.029C500.006 228.041 499.955 228.071 499.916 228.114C499.877 228.157 499.852 228.211 499.846 228.269C499.839 228.326 499.851 228.384 499.879 228.435C499.907 228.486 499.951 228.526 500.003 228.551V228.551Z" fill="#C16256"/>
<path d="M501.576 225.368C502.003 225.499 502.892 225.943 503.042 225.368C503.04 225.296 503.01 225.227 502.958 225.177C502.906 225.127 502.836 225.099 502.764 225.1C501.8 225.115 500.675 224.298 500.642 223.851C500.624 223.694 500.854 223.61 501.051 223.571C502.743 223.273 505.895 219.733 504.262 220.293C504.244 220.317 502.471 222.731 500.94 223.041C499.162 223.598 500.463 224.847 501.576 225.368Z" fill="#C16256"/>
<path d="M480.898 303.783C504.976 315.908 537.675 305.311 537.675 305.311C537.675 305.311 539.944 293.865 538.768 288.427C536.362 277.318 526.984 249.008 513.437 247.006C513.437 247.006 507.563 254.345 501.922 250.632C499.735 249.196 503.236 245.864 502.54 246.088C499.132 247.208 491.058 254.992 488.473 258.452C469.396 283.975 481.624 286.651 480.898 303.783Z" fill="#F4D4BE"/>
<path d="M523.707 229.671C521.585 234.013 518.481 238.689 513.956 240.614C516.708 238.739 519.627 233.569 519.627 233.569L519.43 230.816C505.104 220.898 510.333 208.585 510.333 208.585C522.671 204.396 528.966 219.853 523.707 229.671Z" fill="#FFC9AE"/>
<path d="M512.371 207.959C512.371 207.959 507.298 220.12 519.929 229.572L525.877 228.306C533.807 220.069 529.139 203.048 512.371 207.959Z" fill="#8E4A35"/>
<path d="M525.913 232.856C523.313 237.705 517.218 234.346 519.943 229.578C522.525 224.721 528.62 228.065 525.913 232.856Z" fill="#FFC9AE"/>
<path d="M523.907 233.417C525.325 232.615 525.588 230.222 525.143 229.662C524.358 228.527 522.373 228.413 522.355 228.977C522.525 229.593 523.91 228.807 524.671 229.939C525.477 231.015 523.421 232.785 523.907 233.417Z" fill="#C16256"/>
<path d="M521.573 232.312C522.119 232.446 522.904 230.562 525.023 230.977C525.059 230.985 525.095 230.986 525.131 230.98C525.166 230.975 525.2 230.962 525.231 230.943C525.261 230.923 525.288 230.898 525.309 230.869C525.329 230.84 525.344 230.806 525.352 230.771C524.238 229.251 520.561 232.124 521.573 232.312Z" fill="#C16256"/>
<path d="M522.322 234.383C522.105 235.146 520.905 234.785 521.149 234.025C521.394 233.265 522.567 233.623 522.322 234.383Z" fill="#F4D4BE"/>
<path d="M502.812 261.756C503.644 261.756 504.319 261.082 504.319 260.251C504.319 259.42 503.644 258.746 502.812 258.746C501.979 258.746 501.304 259.42 501.304 260.251C501.304 261.082 501.979 261.756 502.812 261.756Z" fill="#FFC9AE"/>
<path d="M500.603 266.161C500.667 266.447 500.814 266.707 501.026 266.91C501.237 267.113 501.504 267.249 501.792 267.302C502.081 267.354 502.379 267.32 502.648 267.205C502.918 267.089 503.147 266.897 503.308 266.652C503.469 266.407 503.553 266.12 503.552 265.827C503.55 265.535 503.462 265.249 503.299 265.005C503.135 264.762 502.904 264.573 502.633 264.46C502.362 264.348 502.064 264.317 501.776 264.373C501.58 264.411 501.394 264.487 501.228 264.598C501.062 264.709 500.92 264.853 500.811 265.019C500.702 265.186 500.627 265.373 500.591 265.569C500.556 265.765 500.56 265.966 500.603 266.161V266.161Z" fill="#FFC9AE"/>
<path d="M538.222 302.12C538.222 302.12 505.689 311.358 480.916 301.324C480.916 301.324 479.424 302.927 480.122 306.006C480.122 306.006 498.087 319.258 539.108 308.25C539.105 308.25 539.839 304.745 538.222 302.12Z" fill="#244C7C"/>
<path d="M505.19 315.997C508.73 315.997 511.599 313.133 511.599 309.599C511.599 306.066 508.73 303.201 505.19 303.201C501.651 303.201 498.782 306.066 498.782 309.599C498.782 313.133 501.651 315.997 505.19 315.997Z" fill="#10325B"/>
<path d="M510.378 221.011C510.417 221.019 510.458 221.019 510.497 221.011C510.542 221.007 510.585 220.993 510.624 220.972C510.664 220.951 510.698 220.922 510.726 220.887C510.754 220.852 510.774 220.811 510.786 220.768C510.798 220.725 510.801 220.68 510.796 220.636C510.796 220.549 510.497 218.49 509.047 217.152C509.014 217.122 508.976 217.099 508.935 217.084C508.893 217.069 508.849 217.062 508.805 217.064C508.761 217.066 508.717 217.076 508.678 217.095C508.638 217.114 508.602 217.14 508.572 217.173C508.542 217.205 508.519 217.243 508.504 217.284C508.489 217.325 508.482 217.369 508.484 217.413C508.486 217.457 508.496 217.5 508.515 217.539C508.534 217.579 508.56 217.614 508.593 217.644C509.867 218.815 510.13 220.704 510.133 220.722C510.14 220.789 510.167 220.853 510.21 220.905C510.254 220.956 510.312 220.993 510.378 221.011V221.011Z" fill="#C16256"/>
<path d="M502.003 216.86C502.031 216.866 502.061 216.866 502.089 216.86L504.931 216.789C505.019 216.786 505.103 216.748 505.164 216.684C505.224 216.62 505.258 216.534 505.256 216.446C505.255 216.402 505.245 216.359 505.227 216.319C505.209 216.279 505.184 216.243 505.152 216.213C505.12 216.182 505.082 216.159 505.041 216.143C505 216.127 504.957 216.12 504.913 216.121L502.074 216.193C501.993 216.194 501.915 216.225 501.854 216.28C501.794 216.335 501.756 216.409 501.747 216.49C501.738 216.571 501.759 216.653 501.806 216.719C501.854 216.786 501.923 216.833 502.003 216.851V216.86Z" fill="#C16256"/>
<path d="M460.289 172.59C458.2 169.983 462.023 167.063 462.379 170.945L462.346 170.901C463.453 172.203 461.364 173.925 460.289 172.59Z" fill="#FFC9AE"/>
<path d="M462.029 171.839C460.289 167.715 465.384 167.342 464.336 170.37C464.357 170.343 464.336 170.322 464.336 170.391C464.344 170.474 464.364 170.555 464.396 170.632C464.396 170.632 464.396 170.665 464.396 170.632C465.211 172.149 462.796 173.389 462.029 171.839Z" fill="#FFC9AE"/>
<path d="M464.014 170.877L463.805 169.554C463.507 167.852 466.193 167.429 466.438 169.139L466.647 170.462C466.939 172.164 464.256 172.59 464.014 170.877Z" fill="#FFC9AE"/>
<path d="M468.948 183.649C468.948 183.649 471.837 175.007 468.915 169.965L460.236 171.598C460.236 171.598 458.812 178.92 461.167 184.817L468.948 183.649Z" fill="#FFC9AE"/>
<path d="M469.784 175.171C470.33 173.383 467.73 160.086 465.256 161.406C464.247 161.898 464.925 163.036 465.175 163.79C466.163 166.615 466.667 169.586 466.668 172.578C466.826 174.047 465.641 176.178 467.524 176.89C467.79 176.977 468.073 176.998 468.348 176.951C468.624 176.905 468.884 176.792 469.106 176.623C469.328 176.454 469.506 176.233 469.624 175.98C469.742 175.727 469.797 175.45 469.784 175.171V175.171Z" fill="#FFC9AE"/>
<path d="M473.04 169.125C470.831 172.042 468.521 174.992 466.107 177.719C464.083 180.07 467.948 182.907 469.59 180.267C471.545 176.989 473.252 173.681 474.944 170.281C475.559 169.104 473.795 168.043 473.04 169.125Z" fill="#FFC9AE"/>
<path d="M461.119 173.248C462.612 173.451 462.994 171.69 462.035 172.602C460.97 173.379 460.621 172.268 460.161 172.42C459.901 172.867 460.767 173.186 461.119 173.248Z" fill="#FFC9AE"/>
<path d="M463.02 172.751C463.572 172.909 464.939 172.2 464.513 171.589C464.05 171.556 464.017 172.644 462.868 172.307C462.131 172.074 461.949 171.195 461.886 170.519C461.791 170.248 462.202 169.473 461.838 169.327C461.812 169.321 461.786 169.321 461.76 169.326C461.734 169.33 461.709 169.34 461.686 169.355C461.664 169.369 461.645 169.388 461.63 169.409C461.615 169.431 461.605 169.456 461.6 169.482C461.316 170.68 461.555 172.53 463.02 172.751Z" fill="#FFC9AE"/>
<path d="M465.13 172.188C465.366 172.217 465.606 172.191 465.83 172.113C466.055 172.034 466.258 171.905 466.424 171.735C466.59 171.565 466.714 171.359 466.787 171.133C466.86 170.907 466.879 170.667 466.844 170.432L466.638 169.109C466.629 169.057 466.601 169.01 466.557 168.978C466.514 168.947 466.461 168.934 466.408 168.942C466.355 168.951 466.308 168.98 466.277 169.023C466.245 169.066 466.232 169.119 466.241 169.172L466.438 170.504C466.688 171.952 464.408 172.292 464.205 170.856C464.054 170.17 464.033 169.462 464.146 168.77C464.157 168.717 464.148 168.663 464.119 168.618C464.091 168.572 464.045 168.54 463.993 168.528C463.968 168.522 463.941 168.522 463.915 168.526C463.889 168.531 463.865 168.541 463.842 168.555C463.82 168.569 463.801 168.587 463.786 168.609C463.771 168.63 463.76 168.655 463.755 168.68C463.581 170.504 463.59 171.821 465.13 172.188Z" fill="#FFC9AE"/>
<path d="M464.581 178.929C466.074 176.109 469.954 173.1 470.091 173.225C470.357 171.979 465.895 175.442 464.42 178.648C464.408 178.677 464.403 178.708 464.404 178.74C464.406 178.771 464.415 178.801 464.431 178.828C464.447 178.856 464.468 178.879 464.494 178.896C464.52 178.913 464.55 178.925 464.581 178.929V178.929Z" fill="#FFC9AE"/>
<path d="M519.564 247.315C519.564 247.315 520.12 250.942 516.666 252.059C513.213 253.177 514.228 257.03 510.214 256.878C506.199 256.726 506.035 252.864 502.074 254.658C497.794 256.592 495.989 252.718 497.26 250.739C498.532 248.761 494.359 246.967 495.768 244.076C495.768 244.076 500.245 244.076 502.522 246.088C502.522 246.088 502.794 249.544 505.172 250.105C506.736 250.474 511.049 248.591 513.419 247.002C513.437 247.002 516.828 245.766 519.564 247.315Z" fill="#FFC9AE"/>
<path d="M460.391 192.085C461.606 191.665 462.068 190.628 462.665 190.408C463.486 190.11 463.752 191.779 465.274 191.898C466.796 192.017 467.181 191.025 468.133 190.11C469.085 189.195 470.7 191.439 470.798 191.549C470.249 189.834 469.798 188.089 469.446 186.322C466.812 187.523 463.81 187.641 461.089 186.65V186.65C461.065 186.772 460.782 188.799 460.391 192.085Z" fill="#FFC9AE"/>
<path d="M604.603 302.545C604.643 302.756 604.599 302.973 604.479 303.151C604.36 303.328 604.175 303.451 603.964 303.493H603.908C603.552 303.565 603.197 303.621 602.845 303.699C602.493 303.776 602.144 303.854 601.803 303.964C601.186 304.141 600.579 304.354 599.986 304.602C601.41 305.488 602.931 306.208 604.519 306.747C604.985 306.804 605.457 306.857 605.922 306.908C606.776 306.997 607.631 307.075 608.489 307.14C610.206 307.272 611.928 307.356 613.656 307.394C613.863 307.395 614.063 307.477 614.212 307.622C614.361 307.766 614.449 307.963 614.457 308.17C614.465 308.377 614.393 308.58 614.255 308.736C614.118 308.891 613.925 308.988 613.718 309.006C611.971 309.185 610.217 309.316 608.456 309.399C607.575 309.441 606.693 309.471 605.812 309.489H604.773V309.533C605.702 309.853 606.638 310.156 607.579 310.442C608.639 310.766 609.705 311.064 610.775 311.336C611.847 311.616 612.927 311.846 614.011 312.063H614.029C614.231 312.105 614.41 312.224 614.528 312.393C614.647 312.563 614.695 312.772 614.664 312.976C614.632 313.181 614.523 313.365 614.36 313.492C614.196 313.619 613.99 313.678 613.784 313.658C612.65 313.541 611.516 313.413 610.39 313.231C609.265 313.05 608.143 312.862 607.027 312.635C605.91 312.409 604.833 312.171 603.744 311.905V311.923C604.084 312.108 604.424 312.29 604.773 312.466C605.561 312.859 606.361 313.234 607.179 313.577C607.997 313.92 608.82 314.245 609.662 314.534C610.504 314.823 611.351 315.085 612.211 315.329H612.229C612.433 315.381 612.609 315.509 612.72 315.688C612.831 315.867 612.867 316.082 612.822 316.287C612.776 316.492 612.652 316.672 612.476 316.787C612.301 316.903 612.086 316.945 611.88 316.906C610.963 316.76 610.044 316.608 609.137 316.393C608.229 316.179 607.322 315.961 606.424 315.705C605.525 315.449 604.633 315.154 603.752 314.835C603.311 314.674 602.87 314.505 602.43 314.328L601.833 314.081L601.806 314.108C601.997 314.248 602.185 314.406 602.382 314.531C602.979 314.945 603.576 315.341 604.188 315.723C604.8 316.104 605.436 316.471 606.078 316.825C606.719 317.18 607.367 317.517 608.023 317.844C608.213 317.932 608.361 318.09 608.436 318.284C608.512 318.478 608.509 318.694 608.429 318.887C608.349 319.079 608.197 319.233 608.006 319.317C607.815 319.4 607.599 319.406 607.403 319.334C606.686 319.093 605.967 318.846 605.257 318.578C604.546 318.309 603.836 318.023 603.132 317.719C602.427 317.415 601.732 317.088 601.042 316.736C600.699 316.557 600.353 316.378 600.01 316.182L599.493 315.884L599.302 315.767C598.44 315.651 595.422 314.996 591.405 311.297C590.086 310.106 590.948 305.338 592.405 304.351C594.043 303.246 597.04 302.954 597.852 302.894C598.25 302.751 598.648 302.623 599.046 302.51C599.818 302.301 600.604 302.142 601.398 302.036C601.789 301.97 602.185 301.952 602.576 301.908C602.967 301.863 603.364 301.872 603.77 301.854C603.97 301.847 604.165 301.913 604.319 302.041C604.473 302.168 604.574 302.348 604.603 302.545Z" fill="#FFC9AE"/>
<path d="M572.423 431.816C572.423 431.816 553.521 446.296 534.7 448.483C535.422 450.229 536.167 452.017 536.935 453.847C550.023 451.761 565.51 444.353 575.306 436.942C574.303 435.227 573.342 433.519 572.423 431.816Z" fill="#10325B"/>
<path d="M466.438 449.153C466.736 452.372 466.981 454.127 466.981 454.127C478.248 459.866 495.141 458.838 506.304 456.15C506.045 454.38 505.802 452.624 505.575 450.882C505.271 450.971 485.889 456.558 466.438 449.153Z" fill="#10325B"/>
<path d="M501.095 453.731L505.898 453.293C505.786 452.484 505.679 451.681 505.575 450.882C497.577 389.674 508.232 347.001 508.232 347.001C508.065 347.713 503.994 350.392 501.707 361.194C499.421 371.997 495.302 419.208 501.095 453.731Z" fill="#10325B"/>
<path d="M324.682 165.345L324.915 161.352L316.215 161.09C316.215 161.09 315.895 164.07 315.585 165.354C315.585 165.354 319.119 168.531 324.682 165.345Z" fill="#FFC9AE"/>
<path d="M412.177 164.948C412.177 164.948 411.902 163.059 411.768 161.715L402.945 160.893L403.077 164.939C403.077 164.939 407.733 167.624 412.177 164.948Z" fill="#FFC9AE"/>
<path d="M403.295 473.04H377.794C375.567 472.951 375.582 470.686 376.003 468.931C377.406 462.604 374.925 448.071 374.466 441.566C374.437 441.284 374.468 441 374.556 440.731C374.644 440.462 374.788 440.215 374.977 440.005C375.167 439.795 375.399 439.627 375.658 439.512C375.917 439.397 376.197 439.337 376.48 439.337H387.736C388.023 439.337 388.307 439.398 388.569 439.516C388.831 439.634 389.065 439.806 389.255 440.021C389.445 440.236 389.588 440.489 389.672 440.763C389.757 441.037 389.783 441.326 389.747 441.611L387.7 457.884C386.915 465.417 394.732 466.046 399.865 467.083C401.883 467.59 403.993 468.371 404.975 469.875C405.183 470.18 405.304 470.535 405.325 470.904C405.346 471.272 405.265 471.639 405.092 471.964C404.919 472.29 404.66 472.563 404.343 472.752C404.027 472.942 403.664 473.041 403.295 473.04V473.04Z" fill="#FFC9AE"/>
<path d="M375.027 470.4C375.096 471.648 375.713 473.082 377.164 473.04H403.614C403.931 473.041 404.243 472.965 404.525 472.819C404.806 472.673 405.048 472.461 405.229 472.202C405.411 471.943 405.527 471.643 405.568 471.33C405.609 471.016 405.573 470.697 405.464 470.4C404.438 467.521 400.79 463.23 388.291 462.527C384.37 463.042 380.399 463.036 376.48 462.509C376.48 462.509 374.448 465.697 375.027 470.4Z" fill="#1D3F70"/>
<path d="M405.464 470.399H375.021C375.118 471.326 375.401 472.224 375.854 473.04H403.611C403.924 473.041 404.232 472.967 404.511 472.825C404.789 472.683 405.03 472.476 405.212 472.223C405.395 471.969 405.514 471.676 405.56 471.367C405.606 471.058 405.577 470.743 405.476 470.447C405.471 470.432 405.467 470.416 405.464 470.399V470.399Z" fill="#395B96"/>
<path d="M346.076 471.201L330.583 471.41C330.583 469.497 330.741 468.802 331.588 467.324C334.701 463.2 330.991 444.751 331.093 439.932C330.371 438.612 344.548 439.634 344.772 439.336C344.848 439.336 344.923 439.352 344.993 439.382C345.063 439.413 345.125 439.458 345.177 439.514C345.228 439.57 345.267 439.636 345.292 439.708C345.316 439.78 345.325 439.857 345.318 439.932L343.64 461.013C342.888 465.009 345.968 467.428 346.076 471.201Z" fill="#FFC9AE"/>
<path d="M332.612 473.04H343.915C344.252 473.041 344.587 472.974 344.898 472.843C345.208 472.713 345.49 472.52 345.724 472.278C345.959 472.036 346.142 471.749 346.262 471.434C346.383 471.119 346.438 470.784 346.425 470.447V470.399C346.285 467.3 344.969 462.571 338.268 462.508C331.568 462.446 330.242 467.261 330.108 470.399C330.107 470.418 330.107 470.437 330.108 470.456C330.097 470.791 330.153 471.125 330.274 471.438C330.395 471.751 330.578 472.037 330.811 472.278C331.045 472.519 331.325 472.711 331.634 472.842C331.944 472.972 332.276 473.04 332.612 473.04Z" fill="#1D3F70"/>
<path d="M332.612 473.04H343.915C344.252 473.041 344.587 472.974 344.898 472.844C345.208 472.713 345.49 472.52 345.724 472.278C345.959 472.036 346.142 471.749 346.262 471.434C346.383 471.119 346.438 470.784 346.425 470.447V470.399H330.108C330.107 470.418 330.107 470.437 330.108 470.456C330.097 470.791 330.153 471.125 330.274 471.438C330.395 471.751 330.578 472.037 330.811 472.278C331.045 472.519 331.325 472.711 331.634 472.842C331.944 472.973 332.276 473.04 332.612 473.04Z" fill="#395B96"/>
<path d="M328.272 458.498C328.272 458.498 341.017 461.418 347.583 458.28C347.583 458.28 347.855 456.716 348.329 453.915C351.114 437.469 360.898 364.981 363.793 329.782C363.793 329.782 370.526 432.862 371.929 453.915C372.102 456.513 372.194 458.066 372.182 458.28C373.457 458.683 374.752 459.015 376.063 459.276C380.202 460.116 386.709 460.766 390.917 457.971C390.917 457.971 391.078 456.546 391.344 453.915C393.245 435.052 403.691 363.077 392.836 304.187C392.836 304.187 354.31 307.719 330.591 300.957C330.591 300.957 324.124 359.397 328.407 453.915C328.503 455.443 328.458 456.978 328.272 458.498Z" fill="#1D3F70"/>
<path d="M375.815 455.034C374.537 437.101 369.589 354.265 368.759 343.817C367.804 331.802 363.793 329.781 363.793 329.781C363.793 329.781 372.021 439.36 372.18 444.691C372.18 444.775 372.18 458.244 372.18 458.274C373.454 458.676 374.749 459.008 376.06 459.269C380.199 460.109 386.706 460.759 390.914 457.964C390.914 457.964 391.075 456.536 391.341 453.908C391.359 453.914 384.536 456.876 375.815 455.034Z" fill="#10325B"/>
<path d="M385.748 456.254C390.416 414.875 389.329 376.496 387.592 351.586C385.712 324.594 382.686 307.152 382.653 306.979L381.477 307.185C381.51 307.358 384.527 324.752 386.401 351.688C388.133 376.543 389.219 414.839 384.56 456.123L385.748 456.254Z" fill="#10325B"/>
<path d="M338.859 456.877C346.18 381.993 348.899 309.214 348.923 308.49L347.729 308.445C347.703 309.172 344.987 381.913 337.668 456.76L338.859 456.877Z" fill="#10325B"/>
<path d="M372.517 226.824L389.938 256.185C397.747 247.606 403.891 237.653 408.058 226.833C417.985 201.116 414.624 176.743 412.908 168.179C412.493 166.093 412.177 164.942 412.177 164.942C408.124 167.073 403.077 164.942 403.077 164.942C403.077 165.985 403.065 167.012 403.041 168.024C401.916 202.984 376.466 219.633 372.517 226.824Z" fill="#3A72AA"/>
<path d="M367.807 228.454C368.437 223.004 367.577 215.119 366.816 211.9C365.443 205.517 355.292 207.985 356.967 214.261C357.292 214.055 358.34 225.623 357.617 228.836C348.102 231.684 376.755 241.056 367.807 228.454Z" fill="#FFC9AE"/>
<path d="M356.88 213.734C356.88 213.808 356.901 213.886 356.916 213.96C356.931 214.035 356.955 214.163 356.979 214.258C357.215 214.103 357.874 220.487 357.874 225.117C362.241 227.096 367.106 226.226 367.998 226.044C368.192 221.148 367.428 215.078 367.031 212.807C366.912 212.274 366.825 211.961 366.81 211.898C366.777 211.755 366.737 211.614 366.688 211.475C366.453 210.777 366.069 210.139 365.561 209.605C365.053 209.071 364.434 208.655 363.748 208.385V208.385C362.783 208.008 361.726 207.936 360.719 208.176C359.712 208.417 358.802 208.96 358.113 209.732C358.084 209.761 358.057 209.792 358.032 209.824C357.578 210.36 357.241 210.984 357.042 211.658C356.844 212.331 356.789 213.038 356.88 213.734Z" fill="#FFC9AE"/>
<path d="M328.272 458.497C328.272 458.497 341.017 461.418 347.583 458.28C347.583 458.28 347.855 456.715 348.329 453.914C348.329 453.914 339.641 456.298 328.41 453.914C328.359 456.644 328.311 458.271 328.272 458.497Z" fill="#10325B"/>
<path d="M374.084 201.93C374.084 201.93 373.114 196.566 370.828 193.121L367.989 195.133L374.084 201.93Z" fill="#1D3F70"/>
<path d="M376.737 217.67C373.675 221.982 368.189 223.958 363.506 223.716C362.066 223.679 360.644 223.382 359.31 222.84V222.84C358.867 222.657 358.437 222.443 358.023 222.2V222.2C337.993 207.69 356.764 175.575 371.454 198.56C376.185 204.937 383.071 207.649 376.737 217.67Z" fill="#FFC9AE"/>
<path d="M367.049 204.847C367.092 204.716 367.094 204.575 367.056 204.442C367.018 204.309 366.942 204.191 366.837 204.101C366.731 204.012 366.602 203.956 366.465 203.94C366.327 203.924 366.188 203.95 366.065 204.013C365.942 204.076 365.841 204.174 365.774 204.294C365.707 204.415 365.677 204.553 365.688 204.69C365.7 204.828 365.752 204.959 365.838 205.067C365.924 205.175 366.04 205.255 366.172 205.297C366.348 205.353 366.539 205.337 366.704 205.253C366.868 205.169 366.992 205.023 367.049 204.847Z" fill="#C16256"/>
<path d="M372.687 202.935C372.728 202.803 372.73 202.662 372.692 202.53C372.653 202.398 372.577 202.28 372.471 202.191C372.366 202.101 372.237 202.045 372.1 202.029C371.963 202.013 371.824 202.038 371.701 202.1C371.578 202.162 371.476 202.259 371.408 202.379C371.34 202.499 371.308 202.636 371.318 202.774C371.328 202.911 371.378 203.043 371.462 203.152C371.546 203.261 371.661 203.343 371.792 203.388C371.88 203.418 371.974 203.431 372.067 203.424C372.161 203.418 372.252 203.393 372.335 203.351C372.419 203.308 372.493 203.25 372.553 203.178C372.614 203.107 372.659 203.024 372.687 202.935V202.935Z" fill="#C16256"/>
<path d="M371.854 209.19C371.473 209.306 371.071 209.341 370.675 209.294C370.606 209.284 370.544 209.246 370.502 209.19C370.46 209.134 370.443 209.064 370.453 208.994C370.463 208.925 370.501 208.863 370.557 208.821C370.613 208.78 370.684 208.762 370.753 208.772C371.675 208.909 372.842 208.272 372.95 207.849C372.988 207.7 372.777 207.592 372.594 207.53C370.983 206.97 369.538 204.332 369.476 204.219C369.443 204.157 369.435 204.085 369.456 204.018C369.476 203.951 369.521 203.895 369.583 203.861C369.613 203.844 369.647 203.834 369.682 203.83C369.716 203.826 369.751 203.829 369.785 203.839C369.818 203.849 369.849 203.866 369.876 203.888C369.903 203.91 369.925 203.938 369.941 203.969C369.941 203.993 371.353 206.537 372.771 207.029C373.544 207.3 373.514 207.78 373.463 207.977C373.338 208.483 372.633 208.969 371.854 209.19Z" fill="#C16256"/>
<path d="M370.368 196.984C366.303 195.622 359.805 198.518 356.468 199.031C356.468 199.031 358.104 204.606 353.009 209.595C353.376 214.908 352.884 217.343 359.31 222.841C358.867 222.657 358.437 222.443 358.023 222.2C338.752 208.394 355.758 176.729 370.368 196.984Z" fill="#FFC9AE"/>
<path d="M371.353 185.185C368.514 181.312 361.766 180.039 357.116 186.16C353.534 190.874 348.956 191.586 349.738 195.809C341.864 201.042 347.607 209.704 347.607 209.704L351.785 208.513C356.015 203.789 354.925 198.035 354.925 198.035C356.024 197.934 357.102 197.672 358.125 197.257C361.13 195.949 365.706 194.811 369.466 195.535C373.227 196.259 374.525 189.521 371.353 185.185Z" fill="#1D3F70"/>
<path d="M352.125 215.838C353.826 215.18 354.543 212.938 353.726 210.829C352.909 208.72 350.867 207.543 349.165 208.2C347.463 208.858 346.746 211.1 347.563 213.209C348.381 215.318 350.423 216.495 352.125 215.838Z" fill="#FFC9AE"/>
<path d="M351.269 209.66C351.198 209.642 349.478 209.284 348.708 210.271C348.507 210.54 348.39 210.864 348.374 211.2V211.2C348.374 211.236 348.374 211.266 348.374 211.302C348.35 211.978 348.592 212.842 349.105 213.882C349.132 213.936 349.176 213.978 349.231 214.003C349.285 214.028 349.346 214.034 349.404 214.019H349.446C349.477 214.004 349.505 213.983 349.528 213.957C349.551 213.931 349.569 213.9 349.58 213.867C349.592 213.834 349.596 213.8 349.594 213.765C349.592 213.73 349.583 213.696 349.568 213.665C349.214 213.012 348.986 212.298 348.896 211.561C350.448 211.588 351.475 213.146 351.487 213.164C351.518 213.213 351.564 213.25 351.617 213.27C351.671 213.291 351.73 213.293 351.786 213.277C351.81 213.271 351.834 213.26 351.854 213.245C351.884 213.226 351.909 213.202 351.93 213.174C351.95 213.146 351.964 213.114 351.972 213.08C351.98 213.046 351.981 213.011 351.975 212.977C351.969 212.943 351.956 212.91 351.938 212.881C351.887 212.804 350.762 211.054 348.953 211.016C348.986 210.867 349.049 210.727 349.138 210.604C349.705 209.88 351.159 210.181 351.171 210.184C351.24 210.198 351.311 210.185 351.37 210.147C351.43 210.109 351.471 210.05 351.487 209.981C351.496 209.946 351.497 209.909 351.491 209.873C351.484 209.837 351.47 209.803 351.45 209.772C351.429 209.742 351.402 209.716 351.371 209.697C351.34 209.678 351.306 209.665 351.269 209.66Z" fill="#C16256"/>
<path d="M392.839 304.187C392.839 304.187 392.126 306.249 386.945 308.89C381.763 311.53 367.816 313.473 367.816 313.473C366.651 312.54 365.691 311.377 364.996 310.058C364.503 311.456 363.566 312.656 362.327 313.473C362.327 313.473 346.909 313.962 330.195 304.187C330.195 304.187 329.111 303.544 330.594 300.957L392.839 304.187Z" fill="#F4D4BE"/>
<path d="M354.382 213.6L351.995 212.11C351.969 211.863 351.866 211.63 351.702 211.445C351.537 211.259 351.319 211.129 351.077 211.073C350.835 211.017 350.581 211.038 350.351 211.132C350.122 211.227 349.928 211.391 349.796 211.601C349.664 211.811 349.601 212.057 349.615 212.305C349.63 212.552 349.722 212.789 349.878 212.982C350.034 213.175 350.246 213.315 350.485 213.382C350.725 213.449 350.979 213.439 351.212 213.355L353.6 214.845C353.688 214.901 353.787 214.937 353.89 214.952C353.993 214.966 354.097 214.958 354.197 214.929C354.333 214.889 354.456 214.811 354.549 214.704C354.642 214.597 354.702 214.465 354.721 214.325C354.741 214.184 354.72 214.041 354.66 213.913C354.601 213.784 354.505 213.675 354.385 213.6H354.382Z" fill="#FDFFDE"/>
<path d="M392.839 304.187C392.839 304.187 359.883 314.539 330.594 300.956C330.594 300.956 327.989 296.486 333.931 275.791C336.113 268.192 335.003 257.369 335.597 253.614C338.065 238.044 349.81 229.446 355.248 227.235L357.671 228.454C359.883 233.642 363.966 234.071 366.142 233.04C368.75 231.801 367.894 228.782 367.816 228.46C371.448 229.575 372.514 226.83 372.514 226.83C378.417 231.75 388.482 246.706 390.469 258.575C392.29 269.437 394.609 293.11 392.839 304.187Z" fill="#3A72AA"/>
<path d="M409.663 244.055C409.498 244.179 409.341 244.312 409.192 244.454C409.35 244.323 409.505 244.192 409.663 244.055Z" fill="#A523A2"/>
<path d="M318.996 238.715C319.082 238.834 319.168 238.953 319.261 239.072C319.179 238.948 319.091 238.829 318.996 238.715Z" fill="#A523A2"/>
<path d="M372.514 226.824C372.514 226.824 374.006 234.554 369.446 236.989C367.979 236.736 366.646 235.983 365.673 234.858C365.365 235.468 364.934 236.007 364.407 236.443C363.881 236.88 363.271 237.203 362.614 237.394C362.614 237.394 355.048 235.263 355.248 227.229C355.248 227.229 356.463 227.229 357.671 228.448C357.671 228.448 360.372 231.664 364.742 231.613C367.589 231.58 367.816 228.454 367.816 228.454C367.816 228.454 369.306 227.149 372.514 226.824Z" fill="#F4D4BE"/>
<path d="M369.583 213.284C369.137 213.118 368.748 212.829 368.461 212.45C368.333 212.294 368.246 212.109 368.209 211.911C368.172 211.713 368.186 211.508 368.249 211.317C368.527 210.623 369.547 210.393 370.571 210.802C371.595 211.21 372.183 212.071 371.905 212.768C371.82 212.951 371.69 213.109 371.527 213.228C371.364 213.347 371.174 213.422 370.974 213.448C370.844 213.472 370.712 213.484 370.58 213.484C370.238 213.48 369.9 213.412 369.583 213.284V213.284ZM371.49 212.605C371.669 212.155 371.174 211.52 370.407 211.216C369.64 210.912 368.843 211.034 368.664 211.484C368.628 211.606 368.624 211.734 368.652 211.858C368.68 211.981 368.738 212.095 368.822 212.19C369.067 212.493 369.387 212.727 369.749 212.87C370.111 213.014 370.504 213.062 370.89 213.01C371.016 212.998 371.137 212.955 371.241 212.884C371.345 212.813 371.43 212.717 371.487 212.605H371.49Z" fill="#C16256"/>
<path d="M369.016 200.461C369.067 200.461 369.118 200.449 369.164 200.427C369.21 200.404 369.251 200.371 369.282 200.33C370.013 199.373 371.496 200.133 371.511 200.139C371.551 200.162 371.594 200.176 371.64 200.181C371.685 200.187 371.731 200.183 371.774 200.17C371.818 200.156 371.858 200.135 371.893 200.105C371.928 200.076 371.957 200.04 371.977 199.999C371.997 199.958 372.009 199.914 372.012 199.869C372.014 199.823 372.008 199.778 371.992 199.735C371.976 199.692 371.952 199.653 371.921 199.62C371.889 199.587 371.851 199.561 371.81 199.543C371.123 199.182 369.595 198.798 368.738 199.922C368.685 199.992 368.662 200.081 368.674 200.168C368.686 200.256 368.731 200.335 368.801 200.389C368.863 200.436 368.938 200.462 369.016 200.461V200.461Z" fill="#C16256"/>
<path d="M363.837 203.056C363.915 203.056 363.99 203.029 364.05 202.981C364.11 202.932 364.151 202.863 364.166 202.788C364.199 202.536 364.284 202.294 364.416 202.077C364.547 201.859 364.722 201.671 364.93 201.524C365.345 201.293 365.827 201.215 366.294 201.304C366.38 201.324 366.471 201.31 366.547 201.263C366.622 201.217 366.676 201.143 366.697 201.056C366.717 200.97 366.703 200.879 366.656 200.804C366.61 200.729 366.535 200.675 366.449 200.654C365.807 200.519 365.137 200.625 364.569 200.952C364.285 201.147 364.045 201.398 363.864 201.69C363.682 201.982 363.562 202.308 363.512 202.648C363.503 202.691 363.502 202.735 363.511 202.778C363.519 202.821 363.535 202.862 363.56 202.899C363.584 202.935 363.615 202.967 363.651 202.991C363.688 203.016 363.729 203.033 363.772 203.041L363.837 203.056Z" fill="#C16256"/>
<path d="M411.401 150.901C413.299 148.156 409.285 145.507 409.195 149.411L409.228 149.363C408.207 150.749 410.419 152.325 411.401 150.901Z" fill="#FFC9AE"/>
<path d="M409.613 150.288C411.061 146.053 405.951 146.035 407.225 148.982C407.202 148.956 407.225 148.935 407.225 149.003C407.226 149.087 407.211 149.169 407.184 149.248C407.184 149.248 407.184 149.28 407.184 149.248C406.446 150.815 408.957 151.885 409.613 150.288Z" fill="#FFC9AE"/>
<path d="M407.566 149.462L407.679 148.13C407.852 146.414 405.148 146.175 405.026 147.901L404.912 149.236C404.736 150.952 407.443 151.188 407.566 149.462Z" fill="#FFC9AE"/>
<path d="M403.533 162.547C403.533 162.547 400.05 154.131 402.614 148.896L411.386 149.921C411.386 149.921 413.317 157.126 411.386 163.172L403.533 162.547Z" fill="#FFC9AE"/>
<path d="M402.11 154.149C401.441 152.409 403.106 138.952 405.667 140.102C406.709 140.522 406.112 141.708 405.912 142.486C405.127 145.373 404.835 148.373 405.049 151.357C404.993 152.832 406.321 154.879 404.494 155.72C404.234 155.827 403.951 155.87 403.67 155.843C403.39 155.816 403.12 155.721 402.885 155.566C402.649 155.411 402.456 155.201 402.321 154.954C402.185 154.707 402.113 154.431 402.11 154.149V154.149Z" fill="#FFC9AE"/>
<path d="M398.439 148.344C400.847 151.101 403.354 153.884 405.957 156.435C408.139 158.64 404.48 161.739 402.674 159.221C400.495 156.086 398.558 152.904 396.636 149.629C395.926 148.496 397.612 147.316 398.439 148.344Z" fill="#FFC9AE"/>
<path d="M410.625 151.631C409.15 151.929 408.646 150.207 409.664 151.05C410.783 151.751 411.052 150.618 411.523 150.737C411.819 151.164 410.965 151.551 410.625 151.631Z" fill="#FFC9AE"/>
<path d="M408.688 151.265C408.147 151.462 406.733 150.848 407.118 150.21C407.577 150.148 407.688 151.229 408.807 150.806C409.526 150.523 409.646 149.632 409.661 148.956C409.741 148.679 409.276 147.934 409.628 147.764C409.679 147.75 409.734 147.757 409.78 147.783C409.827 147.809 409.861 147.853 409.876 147.904C410.243 149.081 410.135 150.946 408.688 151.265Z" fill="#FFC9AE"/>
<path d="M406.545 150.851C406.311 150.897 406.07 150.888 405.841 150.825C405.611 150.763 405.399 150.648 405.221 150.489C405.043 150.331 404.905 150.134 404.816 149.914C404.727 149.693 404.691 149.455 404.709 149.218L404.826 147.883C404.83 147.83 404.856 147.781 404.897 147.747C404.938 147.713 404.991 147.696 405.044 147.701C405.097 147.706 405.146 147.731 405.18 147.772C405.214 147.813 405.23 147.866 405.226 147.919L405.112 149.251C404.963 150.714 407.261 150.908 407.366 149.447C407.468 148.753 407.437 148.045 407.276 147.361C407.269 147.336 407.266 147.31 407.269 147.283C407.271 147.257 407.279 147.232 407.291 147.209C407.304 147.185 407.321 147.165 407.341 147.148C407.362 147.131 407.385 147.119 407.41 147.111C407.436 147.103 407.462 147.101 407.489 147.104C407.515 147.106 407.54 147.114 407.564 147.126C407.587 147.139 407.608 147.156 407.624 147.176C407.641 147.196 407.654 147.22 407.661 147.245C407.972 149.066 408.052 150.377 406.545 150.851Z" fill="#FFC9AE"/>
<path d="M407.56 157.534C405.87 154.829 401.787 152.093 401.665 152.227C401.316 151.005 406.005 154.149 407.697 157.245C407.711 157.273 407.719 157.303 407.72 157.334C407.721 157.365 407.714 157.396 407.701 157.424C407.688 157.452 407.668 157.477 407.643 157.496C407.619 157.515 407.59 157.528 407.56 157.534V157.534Z" fill="#FFC9AE"/>
<path d="M317.692 221.514C321.371 233.258 327.331 244.165 335.23 253.611C336.061 254.604 336.926 255.598 337.823 256.591L355.248 227.229C351.299 220.039 325.891 203.42 324.721 168.504C324.688 167.464 324.673 166.418 324.682 165.339C324.682 165.339 319.638 167.478 315.585 165.339C315.585 165.339 315.316 166.307 314.949 168.083C313.409 175.596 310.108 197.472 317.692 221.514Z" fill="#3A72AA"/>
<path d="M317.044 150.538C315.253 147.722 319.369 145.234 319.304 149.129L319.274 149.081C320.241 150.502 317.97 151.989 317.044 150.538Z" fill="#FFC9AE"/>
<path d="M318.856 149.987C317.572 145.699 322.679 145.881 321.306 148.777C321.33 148.753 321.306 148.729 321.306 148.798C321.306 148.881 321.317 148.965 321.339 149.045C321.339 149.045 321.339 149.078 321.339 149.045C321.981 150.639 319.45 151.611 318.856 149.987Z" fill="#FFC9AE"/>
<path d="M320.933 149.244L320.871 147.906C320.763 146.184 323.476 146.053 323.53 147.781L323.593 149.116C323.7 150.836 320.987 150.97 320.933 149.244Z" fill="#FFC9AE"/>
<path d="M324.452 162.476C324.452 162.476 328.261 154.2 325.903 148.869L317.098 149.552C317.098 149.552 314.886 156.677 316.591 162.794L324.452 162.476Z" fill="#FFC9AE"/>
<path d="M326.201 154.138C326.938 152.427 325.798 138.919 323.195 139.965C322.139 140.343 322.688 141.55 322.855 142.325C323.527 145.24 323.702 148.247 323.372 151.22C323.372 152.71 321.963 154.692 323.757 155.601C324.012 155.718 324.292 155.772 324.572 155.756C324.852 155.741 325.125 155.658 325.366 155.514C325.607 155.37 325.809 155.169 325.954 154.929C326.1 154.689 326.185 154.417 326.201 154.138V154.138Z" fill="#FFC9AE"/>
<path d="M330.093 148.478C327.58 151.133 324.966 153.815 322.279 156.271C320.014 158.39 323.548 161.635 325.467 159.182C327.765 156.137 329.825 153.032 331.872 149.834C332.6 148.732 330.962 147.486 330.093 148.478Z" fill="#FFC9AE"/>
<path d="M317.802 151.289C319.262 151.652 319.835 149.945 318.784 150.746C317.638 151.405 317.414 150.261 316.94 150.362C316.626 150.776 317.453 151.199 317.802 151.289Z" fill="#FFC9AE"/>
<path d="M319.739 151C320.273 151.217 321.709 150.66 321.351 150.007C320.891 149.924 320.754 151.003 319.638 150.544C318.93 150.246 318.847 149.352 318.856 148.66C318.79 148.38 319.283 147.653 318.936 147.469C318.886 147.452 318.831 147.457 318.783 147.481C318.736 147.505 318.7 147.546 318.683 147.597C318.271 148.75 318.307 150.624 319.739 151Z" fill="#FFC9AE"/>
<path d="M321.897 150.668C322.129 150.723 322.37 150.724 322.602 150.67C322.834 150.616 323.051 150.51 323.235 150.358C323.419 150.207 323.565 150.016 323.662 149.798C323.759 149.581 323.805 149.345 323.795 149.107L323.733 147.772C323.725 147.723 323.699 147.678 323.661 147.647C323.622 147.615 323.573 147.599 323.523 147.601C323.473 147.603 323.426 147.624 323.39 147.659C323.355 147.693 323.333 147.74 323.33 147.79L323.392 149.128C323.482 150.591 321.178 150.698 321.133 149.232C321.057 148.532 321.115 147.824 321.303 147.146C321.32 147.095 321.317 147.04 321.293 146.992C321.27 146.944 321.228 146.907 321.178 146.89C321.128 146.873 321.073 146.876 321.026 146.899C320.978 146.922 320.942 146.962 320.924 147.012C320.542 148.83 320.408 150.135 321.897 150.668Z" fill="#FFC9AE"/>
<path d="M320.623 157.308C322.414 154.671 326.592 152.096 326.721 152.242C327.117 151.032 322.306 153.992 320.495 157.01C320.479 157.038 320.47 157.068 320.468 157.1C320.466 157.131 320.472 157.162 320.484 157.191C320.496 157.22 320.516 157.246 320.54 157.266C320.564 157.286 320.592 157.301 320.623 157.308Z" fill="#FFC9AE"/>
<path d="M385.852 245.341C385.945 245.499 388.918 250.526 389.953 256.191C397.762 247.612 403.906 237.659 408.073 226.839C407.858 227.229 400.895 239.733 395.645 243.75C390.395 247.767 385.987 245.422 385.852 245.341Z" fill="#23659B"/>
<path d="M317.692 221.518C321.371 233.262 327.331 244.168 335.23 253.615H335.597C335.809 247.679 340.074 241.173 340.074 241.173C331.156 247.756 317.692 221.518 317.692 221.518Z" fill="#23659B"/>
<path d="M403.077 164.939C403.077 165.982 403.065 167.01 403.041 168.021C404.542 168.864 406.231 169.321 407.954 169.35C409.676 169.378 411.379 168.978 412.908 168.185C412.493 166.099 412.177 164.948 412.177 164.948C408.124 167.079 403.077 164.939 403.077 164.939Z" fill="#23659B"/>
<path d="M314.949 168.098C319.047 171.674 324.721 168.509 324.721 168.509C324.688 167.469 324.673 166.423 324.682 165.345C324.682 165.345 319.638 167.484 315.585 165.345C315.585 165.354 315.316 166.331 314.949 168.098Z" fill="#23659B"/>
<path d="M219.607 226.484C227.045 212.252 238.363 213.56 238.363 213.56C238.363 213.56 248.212 208.715 256.868 219.788C272.343 239.566 251.397 262.145 236.996 271.461C229.045 276.607 193.462 278.461 193.393 260.459C193.342 245.699 210.913 243.112 219.607 226.484Z" fill="#1D3F70"/>
<path d="M246.35 276.333C245.272 270.632 247.947 265.772 250.146 260.754C254.746 249.948 263.279 240.597 270.421 231.625C278.238 220.599 282.551 206.867 286.273 193.711C287.353 189.405 294.122 190.433 293.904 194.825C293.504 210.518 290.675 225.662 283.757 240.073C267.854 273.097 249.275 289.623 246.35 276.333Z" fill="#FFC9AE"/>
<path d="M255.005 273.014C256.954 276.05 259.22 278.871 261.766 281.429C262.592 282.258 263.407 283.018 264.195 283.691C264.195 283.691 271.937 275.469 276.731 269.551V269.533L276.975 269.235C277.934 268.066 278.831 266.848 279.662 265.585C283.661 259.255 292.128 237.618 285.631 236.247C280.285 235.121 276.379 231.348 272.23 228.884C266.344 229.307 264.261 241.331 253.561 251.233C247.595 256.773 250.349 265.689 255.005 273.014Z" fill="#F4D4BE"/>
<path d="M295.984 183.544C298.315 181.16 294.791 177.882 294.062 181.699L294.101 181.658C292.859 182.859 294.776 184.781 295.984 183.544Z" fill="#FFC9AE"/>
<path d="M294.325 182.641C296.462 178.707 291.427 177.837 292.173 180.951C292.155 180.921 292.173 180.903 292.173 180.972C292.158 181.053 292.131 181.131 292.092 181.204C291.128 182.635 293.409 184.107 294.325 182.641Z" fill="#FFC9AE"/>
<path d="M292.433 181.484L292.77 180.191C293.227 178.525 290.6 177.84 290.191 179.521L289.854 180.817C289.406 182.48 292.033 183.165 292.433 181.484Z" fill="#FFC9AE"/>
<path d="M286.273 193.711C286.273 193.711 284.252 184.831 287.657 180.096L296.134 182.575C296.134 182.575 296.829 190.001 293.901 195.639L286.273 193.711Z" fill="#FFC9AE"/>
<path d="M286.279 185.194C285.911 183.368 289.809 170.384 292.143 171.94C293.099 172.536 292.314 173.596 291.988 174.324C290.729 177.038 289.938 179.946 289.648 182.924C289.35 184.369 290.314 186.607 288.368 187.131C288.094 187.194 287.809 187.188 287.537 187.116C287.266 187.043 287.016 186.905 286.81 186.714C286.605 186.523 286.448 186.285 286.356 186.02C286.263 185.755 286.237 185.472 286.279 185.194V185.194Z" fill="#FFC9AE"/>
<path d="M283.634 178.848C285.547 181.971 287.553 185.132 289.687 188.085C291.478 190.621 287.344 193.065 285.971 190.279C284.347 186.825 282.986 183.365 281.628 179.816C281.13 178.588 282.992 177.706 283.634 178.848Z" fill="#FFC9AE"/>
<path d="M295.092 184.133C293.6 184.187 293.379 182.396 294.242 183.4C295.226 184.276 295.683 183.206 296.125 183.4C296.343 183.871 295.447 184.112 295.092 184.133Z" fill="#FFC9AE"/>
<path d="M293.251 183.451C292.683 183.553 291.391 182.712 291.878 182.146C292.343 182.146 292.269 183.246 293.445 183.022C294.2 182.864 294.465 182.006 294.597 181.342C294.719 181.082 294.388 180.269 294.761 180.15C294.814 180.144 294.868 180.159 294.91 180.193C294.952 180.226 294.979 180.275 294.985 180.328C295.149 181.556 294.728 183.377 293.251 183.451Z" fill="#FFC9AE"/>
<path d="M291.206 182.682C290.968 182.688 290.733 182.639 290.517 182.539C290.301 182.438 290.112 182.29 289.963 182.104C289.815 181.919 289.711 181.701 289.661 181.469C289.61 181.237 289.614 180.997 289.672 180.766L290.009 179.47C290.023 179.419 290.056 179.375 290.102 179.348C290.148 179.321 290.203 179.314 290.254 179.327C290.306 179.34 290.35 179.374 290.376 179.42C290.403 179.465 290.411 179.52 290.397 179.571L290.06 180.868C289.669 182.283 291.905 182.858 292.251 181.434C292.47 180.761 292.559 180.053 292.514 179.348C292.508 179.295 292.523 179.241 292.555 179.199C292.588 179.157 292.637 179.129 292.69 179.121C292.743 179.115 292.796 179.131 292.838 179.163C292.879 179.196 292.907 179.244 292.913 179.297C292.913 181.163 292.773 182.468 291.206 182.682Z" fill="#FFC9AE"/>
<path d="M291.087 189.444C289.875 186.494 286.311 183.115 286.165 183.225C286.025 181.961 290.123 185.844 291.272 189.185C291.28 189.214 291.281 189.245 291.276 189.275C291.271 189.305 291.259 189.333 291.241 189.358C291.223 189.383 291.2 189.404 291.174 189.418C291.147 189.433 291.117 189.442 291.087 189.444V189.444Z" fill="#FFC9AE"/>
<path d="M260.816 267.844L261.766 281.414C262.592 282.243 263.407 283.003 264.195 283.676C264.195 283.676 271.937 275.455 276.731 269.536C274.94 271.622 269.487 275.341 267.711 273.869C265.843 272.314 260.816 267.844 260.816 267.844Z" fill="#EABFAC"/>
<path d="M249.182 249.588L249.114 253.104C249.114 253.104 251.868 272.176 249.135 273.794C246.714 275.236 239.226 254.675 238.261 253.34C238.261 253.34 238.56 249.981 238.515 248.429L249.182 249.588Z" fill="#FFC9AE"/>
<path d="M151.993 430.057L147.88 404.778C149.155 404.129 155.479 404.382 157.694 403.774C159.109 403.637 176.894 398.708 178.748 398.24L181.105 412.753L162.022 413.441C160.925 413.482 159.877 413.903 159.057 414.631C158.237 415.359 157.696 416.349 157.527 417.431C156.503 422.384 158.234 427.563 155.049 431.139C154.802 431.358 154.5 431.506 154.175 431.569C153.85 431.632 153.514 431.607 153.202 431.497C152.89 431.387 152.614 431.195 152.401 430.942C152.188 430.688 152.048 430.383 151.993 430.057V430.057Z" fill="#FFC9AE"/>
<path d="M150.19 403.616C149.35 403.845 148.565 404.241 147.88 404.778L152.026 430.263C152.071 430.553 152.185 430.828 152.358 431.065C152.531 431.302 152.759 431.495 153.022 431.626C153.286 431.757 153.576 431.823 153.87 431.819C154.164 431.814 154.453 431.739 154.712 431.601C157.291 430.191 160.717 426.186 159.422 414.341C159.422 414.341 157.58 410.535 157.706 403.771C157.694 403.771 153.59 402.642 150.19 403.616Z" fill="#1D3F70"/>
<path d="M154.739 431.58L150.19 403.616C149.35 403.846 148.565 404.241 147.88 404.778L152.026 430.263C152.072 430.555 152.188 430.832 152.364 431.07C152.541 431.307 152.772 431.499 153.038 431.628C153.305 431.758 153.598 431.821 153.895 431.813C154.191 431.804 154.48 431.724 154.739 431.58Z" fill="#395B96"/>
<path d="M265.022 473.037L239.405 472.757C238.981 471.389 240.3 465.221 240.088 462.923C240.088 461.964 239.837 456.701 239.748 455.741L241.667 441.31L252.958 441.435L250.373 460.322C250.226 461.408 250.462 462.511 251.041 463.442C251.619 464.373 252.503 465.075 253.543 465.426C258.25 467.274 263.625 466.469 266.636 470.176C266.815 470.461 266.914 470.789 266.922 471.125C266.93 471.461 266.847 471.793 266.681 472.086C266.516 472.379 266.275 472.622 265.982 472.789C265.69 472.957 265.359 473.042 265.022 473.037V473.037Z" fill="#FFC9AE"/>
<path d="M238.653 470.286C238.735 471.151 238.991 471.991 239.405 472.756L265.27 473.054C265.563 473.061 265.854 472.997 266.118 472.869C266.382 472.74 266.611 472.55 266.786 472.315C266.962 472.08 267.078 471.806 267.126 471.517C267.173 471.228 267.151 470.931 267.06 470.652C266.108 467.875 262.742 463.819 250.827 463.068C250.827 463.068 246.756 464.228 240.1 462.949C240.088 462.934 238.262 466.776 238.653 470.286Z" fill="#1D3F70"/>
<path d="M267.033 470.584L238.652 470.286C238.735 471.152 238.991 471.992 239.404 472.757L265.269 473.055C265.569 473.062 265.866 472.995 266.134 472.861C266.402 472.727 266.633 472.53 266.807 472.286C266.981 472.043 267.093 471.76 267.132 471.463C267.172 471.167 267.138 470.865 267.033 470.584V470.584Z" fill="#395B96"/>
<path d="M237.48 237.465C237.506 237.65 237.539 237.838 237.581 238.02C237.829 237.856 238.521 244.575 238.524 249.436C243.109 251.522 248.221 250.604 249.158 250.413C249.26 244.245 248.696 238.624 247.789 235.093C245.932 229.121 236.533 231.294 237.48 237.465Z" fill="#FFC9AE"/>
<path d="M229.716 234.334C231.065 238.974 233.337 244.108 237.453 246.79C239.144 247.843 241.071 248.458 243.061 248.578C254.402 250.393 265.935 235.764 256.104 227.587C252.606 225.075 251.307 220.024 248.448 217.456C244.156 212.628 236.211 213.88 232.411 218.716C228.997 223.064 228.322 228.589 229.716 234.334Z" fill="#FFC9AE"/>
<path d="M251.928 236.51L247.708 235.881C248.114 238.175 250.863 238.801 251.928 236.51Z" fill="#F9F8F3"/>
<path d="M247.454 229.208C247.786 228.332 246.401 227.831 246.093 228.716C245.786 229.601 247.147 230.078 247.454 229.208Z" fill="#C16256"/>
<path d="M253.361 227.442C253.695 226.565 252.31 226.065 252.003 226.95C251.695 227.835 253.056 228.315 253.361 227.442Z" fill="#C16256"/>
<path d="M252 236.658C251.919 236.726 247.774 236.032 247.681 236.044C247.66 236.041 247.639 236.033 247.621 236.022C247.602 236.011 247.586 235.996 247.573 235.979C247.56 235.961 247.551 235.941 247.546 235.92C247.541 235.899 247.54 235.878 247.544 235.856C247.394 235.472 251.88 236.413 251.952 236.345C251.987 236.351 252.018 236.368 252.043 236.393C252.067 236.418 252.083 236.45 252.089 236.484C252.094 236.519 252.088 236.554 252.072 236.585C252.056 236.617 252.031 236.642 252 236.658Z" fill="#C16256"/>
<path d="M161.884 401.411C161.884 401.411 161.884 408.613 163.848 415.482C165.526 415.342 167.17 415.205 168.776 415.062C214.405 411.075 233.761 405.66 241.392 347.417C241.392 347.417 254.083 389.434 238.038 450.458C237.572 452.246 237.091 454.007 236.572 455.801C236.572 455.801 242.885 460.953 251.606 459.263C262.482 438.627 285.929 383.182 265.198 318.201C252.847 303.936 223.252 296.341 214.393 311.219C199.61 336.057 226.281 382.553 166.979 400.022C165.345 400.513 163.647 400.975 161.884 401.411Z" fill="#1D3F70"/>
<path d="M252.259 233.874C251.818 233.931 250.866 234.217 250.818 233.615C250.832 233.544 250.873 233.482 250.933 233.441C250.992 233.4 251.066 233.385 251.137 233.398C252.086 233.576 253.319 232.963 253.444 232.53C253.489 232.378 253.274 232.259 253.089 232.185C251.471 231.61 248.973 227.578 250.486 228.4C250.486 228.427 251.844 231.112 253.289 231.678C254.946 232.542 253.453 233.553 252.259 233.874Z" fill="#C16256"/>
<path d="M229.716 234.334C231.065 238.974 233.337 244.108 237.453 246.79C235.065 244.472 233.056 238.875 233.056 238.875L233.722 236.193C249.54 228.869 246.496 215.846 246.496 215.846C235.071 209.609 226.218 223.761 229.716 234.334Z" fill="#FFC9AE"/>
<path d="M244.61 214.88C244.61 214.88 247.535 227.73 233.459 234.882L227.815 232.617C221.413 223.147 228.929 207.177 244.61 214.88Z" fill="#1D3F70"/>
<path d="M226.92 212.982C231.862 224.955 245.854 219.446 241.276 207.32C236.336 195.356 222.341 200.869 226.92 212.982Z" fill="#1D3F70"/>
<path d="M227 237.093C228.731 242.317 235.307 240.073 233.459 234.882C231.731 229.661 225.153 231.914 227 237.093Z" fill="#FFC9AE"/>
<path d="M228.878 237.99C227.621 236.959 227.77 234.554 228.305 234.077C229.275 233.097 231.247 233.321 231.173 233.881C230.895 234.459 229.68 233.449 228.722 234.432C227.746 235.356 229.457 237.463 228.878 237.99Z" fill="#C16256"/>
<path d="M231.367 237.299C230.809 237.337 230.358 235.347 228.197 235.395C228.16 235.398 228.123 235.394 228.088 235.383C228.052 235.372 228.02 235.354 227.992 235.329C227.964 235.305 227.941 235.275 227.925 235.242C227.909 235.209 227.9 235.172 227.899 235.135C229.269 233.827 232.397 237.287 231.367 237.299Z" fill="#C16256"/>
<path d="M231.289 239.042C231.376 239.835 232.618 239.683 232.51 238.893C232.403 238.103 231.182 238.255 231.289 239.042Z" fill="#F4D4BE"/>
<path d="M236.572 455.797C236.572 455.797 242.882 460.949 251.606 459.26C251.606 459.26 252.576 457.666 254.119 454.701C254.119 454.701 243.643 455.684 238.041 450.454C237.581 452.21 237.092 453.991 236.572 455.797Z" fill="#10325B"/>
<path d="M248.26 457.413C256.092 438.973 261.392 420.223 263.989 401.688C266.068 387.18 266.448 372.479 265.123 357.883C262.849 333.638 256.277 319.06 256.211 318.917L255.125 319.412C255.19 319.555 261.691 333.99 263.941 358.053C266.031 380.259 264.786 415.443 247.162 456.951L248.26 457.413Z" fill="#10325B"/>
<path d="M165.824 413.071C183.305 411.39 196.345 408.393 205.687 403.905C215.029 399.417 221.085 393.421 224.771 385.024C233.961 364.078 233.638 317.608 233.635 317.141H232.441C232.441 317.603 232.764 363.822 223.679 384.532C216.593 400.678 199.801 408.598 165.711 411.873L165.824 413.071Z" fill="#10325B"/>
<path d="M213.608 312.629C227.636 319.343 248.782 323.655 265.195 318.199C265.195 318.199 266.261 312.862 265.308 309.462C259.826 289.83 276.098 287.201 261.36 268.526C257.554 263.704 251.51 257.724 249.314 253.626C249.314 253.626 249.335 272.102 246.434 271.983C242.461 271.831 238.42 250.771 238.42 250.771C236.629 250.855 223.344 252.786 215.498 294.532C214.707 298.773 209.137 307.84 213.608 312.629Z" fill="#F4D4BE"/>
<path d="M244.266 227.718C244.325 227.712 244.382 227.69 244.43 227.655C244.477 227.62 244.515 227.573 244.538 227.518C245.347 225.626 246.663 225.108 246.675 225.105C246.758 225.073 246.825 225.011 246.861 224.93C246.898 224.85 246.902 224.758 246.872 224.675C246.857 224.634 246.834 224.597 246.805 224.565C246.775 224.533 246.739 224.507 246.7 224.488C246.66 224.47 246.617 224.46 246.573 224.458C246.53 224.457 246.486 224.464 246.445 224.479C246.38 224.503 244.851 225.075 243.923 227.256C243.9 227.31 243.891 227.368 243.897 227.426C243.904 227.484 243.925 227.54 243.96 227.587C243.995 227.634 244.042 227.671 244.096 227.694C244.149 227.717 244.208 227.725 244.266 227.718V227.718Z" fill="#C16256"/>
<path d="M252.785 224.628C252.863 224.619 252.935 224.584 252.989 224.527C253.043 224.47 253.075 224.396 253.08 224.318C253.085 224.24 253.062 224.163 253.016 224.1C252.97 224.036 252.903 223.992 252.827 223.973C252.788 223.973 251.851 223.746 249.663 223.782C249.574 223.782 249.489 223.817 249.427 223.88C249.364 223.943 249.329 224.027 249.329 224.116C249.329 224.204 249.364 224.289 249.427 224.352C249.489 224.415 249.574 224.45 249.663 224.45C251.752 224.417 252.648 224.62 252.665 224.622C252.705 224.631 252.745 224.633 252.785 224.628V224.628Z" fill="#C16256"/>
<path d="M161.884 401.411C161.884 401.411 161.884 408.613 163.848 415.482C165.526 415.342 167.17 415.205 168.776 415.062C167.115 410.237 166.505 405.114 166.985 400.034C165.347 400.517 163.647 400.976 161.884 401.411Z" fill="#10325B"/>
<path d="M222.099 253.277C210.161 260.09 197.718 268.362 191.683 281.319C183.869 301.323 200.207 320.213 215.778 330.804C216.694 331.507 218.548 333.074 219.604 333.486C221.237 334.141 222.097 333.244 223.416 331.331C224.511 329.543 224.341 328.28 223.284 326.951C222.168 325.538 220.1 324.072 219.106 322.779C197.264 297.05 201.598 285.75 231.14 272.027C243.41 266.058 234.402 247.422 222.099 253.277Z" fill="#FFC9AE"/>
<path d="M214.152 329.665C214.152 329.665 215.148 325.696 220.213 323.965C220.129 323.593 219.95 323.248 219.695 322.965C219.44 322.681 219.116 322.467 218.754 322.344C218.754 322.344 214.226 322.543 212.283 328.304C212.475 328.654 212.742 328.957 213.065 329.193C213.388 329.428 213.759 329.589 214.152 329.665Z" fill="#10325B"/>
<path d="M190.782 283.986C191.441 266.86 212.316 252.738 232.224 249.505C232.224 249.505 238.423 256.514 239.521 271.259C239.819 275.302 230.866 278.288 224.261 280.151C213.483 282.991 212.537 292.666 205.093 293.414C205.093 293.42 193.832 293.182 190.782 283.986Z" fill="#F4D4BE"/>
<path d="M249.114 253.104C249.114 253.104 250.904 251.066 253.608 251.206C253.608 251.206 254.405 274.274 246.445 277.993C246.445 277.993 240.903 274.175 238.434 266.055C235.966 257.935 234.486 252.592 232.235 249.504C232.235 249.504 236.682 248.908 238.431 250.777C240.159 254.292 241.546 257.964 242.574 261.743C244.365 268.186 246.454 271.279 246.454 271.279C246.454 271.279 248.699 261.275 249.114 253.104Z" fill="#EABFAC"/>
<path d="M232.844 328.253C232.801 328.462 232.675 328.646 232.496 328.763C232.317 328.88 232.099 328.922 231.889 328.879H231.833C231.48 328.804 231.128 328.721 230.773 328.658C230.418 328.596 230.069 328.53 229.71 328.5C229.073 328.424 228.431 328.386 227.788 328.387C228.758 329.755 229.883 331.006 231.14 332.115C231.548 332.347 231.959 332.577 232.373 332.803C233.125 333.215 233.885 333.612 234.653 333.995C236.185 334.776 237.74 335.517 239.318 336.218C239.507 336.301 239.657 336.453 239.737 336.643C239.817 336.833 239.822 337.046 239.75 337.239C239.678 337.433 239.534 337.591 239.349 337.682C239.164 337.773 238.951 337.79 238.754 337.729C237.073 337.223 235.404 336.668 233.749 336.066C232.919 335.766 232.094 335.454 231.274 335.128L230.31 334.74L230.284 334.779C231.018 335.433 231.764 336.073 232.522 336.701C233.374 337.406 234.241 338.091 235.125 338.754C236.02 339.422 236.915 340.051 237.829 340.667H237.847C238.023 340.782 238.148 340.961 238.194 341.166C238.24 341.371 238.205 341.587 238.095 341.766C237.985 341.945 237.809 342.074 237.605 342.126C237.401 342.178 237.185 342.149 237.002 342.044C236.002 341.499 235.005 340.942 234.038 340.343C233.071 339.744 232.107 339.151 231.167 338.495C230.227 337.839 229.322 337.223 228.418 336.558H228.4C228.642 336.856 228.887 337.154 229.14 337.452C229.713 338.12 230.307 338.775 230.931 339.404C231.555 340.033 232.188 340.656 232.853 341.243C233.519 341.83 234.199 342.405 234.895 342.959C235.056 343.088 235.162 343.273 235.19 343.476C235.219 343.68 235.169 343.887 235.05 344.055C234.932 344.224 234.753 344.34 234.551 344.381C234.349 344.422 234.139 344.385 233.964 344.276C233.176 343.787 232.388 343.29 231.63 342.747C230.872 342.205 230.137 341.651 229.394 341.067C228.651 340.483 227.958 339.875 227.266 339.234C226.92 338.918 226.58 338.59 226.245 338.26L225.798 337.807H225.765C225.884 338.012 226.004 338.218 226.132 338.421C226.511 339.017 226.917 339.613 227.326 340.209C227.735 340.805 228.185 341.38 228.639 341.952C229.093 342.524 229.564 343.087 230.042 343.647C230.17 343.804 230.235 344.002 230.225 344.203C230.215 344.405 230.129 344.596 229.985 344.738C229.841 344.88 229.65 344.963 229.448 344.971C229.246 344.98 229.048 344.912 228.893 344.783C228.323 344.285 227.756 343.779 227.203 343.257C226.651 342.736 226.108 342.199 225.577 341.648C225.045 341.097 224.529 340.524 224.025 339.934C223.777 339.636 223.526 339.338 223.285 339.04L222.923 338.567L222.795 338.388C222.043 337.947 219.306 336.034 216.351 331.236C215.417 329.713 219.261 324.632 221.016 324.68C222.246 324.722 225.654 325.69 226.424 325.946C226.851 325.967 227.272 326.006 227.69 326.057C228.483 326.162 229.269 326.318 230.042 326.525C230.43 326.614 230.803 326.751 231.182 326.864C231.561 326.978 231.922 327.133 232.289 327.267C232.492 327.326 232.664 327.463 232.768 327.647C232.871 327.831 232.899 328.049 232.844 328.253V328.253Z" fill="#FFC9AE"/>
<path d="M227.911 276.438C227.911 276.438 221.183 278.991 218.005 283.142C218.005 283.142 217.169 286.462 216.769 288.31C216.769 288.31 219.049 282.523 227.911 276.438Z" fill="#EABFAC"/>
</svg>
