<svg width="119" height="119" viewBox="0 0 119 119" fill="none" xmlns="http://www.w3.org/2000/svg">
<g filter="url(#filter0_d_0_1)">
<circle cx="59.5" cy="55.5" r="55.5" fill="#1A374D"/>
</g>
<path d="M49.9648 46.7441C49.4783 44.8839 48.2233 41.5584 45.416 40.9383C46.0918 40.7179 46.6683 40.2575 47.0413 39.6405C47.4144 39.0234 47.5595 38.2903 47.4504 37.5734C47.3413 36.8566 46.9853 36.2032 46.4465 35.7313C45.9078 35.2594 45.2218 35 44.5125 35C43.8031 35 43.1172 35.2594 42.5784 35.7313C42.0397 36.2032 41.6836 36.8566 41.5745 37.5734C41.4654 38.2903 41.6105 39.0234 41.9836 39.6405C42.3566 40.2575 42.9331 40.7179 43.6089 40.9383C40.7862 41.5465 39.5235 44.8878 39.0331 46.7519C38.9944 46.8993 38.9896 47.0539 39.0189 47.2035C39.0482 47.3531 39.1109 47.4938 39.2021 47.6145C39.2933 47.7353 39.4105 47.8329 39.5446 47.8998C39.6787 47.9667 39.8261 48.0009 39.9753 48H49.0265C49.1762 48.0007 49.324 47.9659 49.4584 47.8983C49.5928 47.8307 49.71 47.7323 49.8009 47.6106C49.8918 47.4889 49.9539 47.3474 49.9824 47.197C50.0108 47.0467 50.0048 46.8916 49.9648 46.7441Z" fill="white"/>
<path d="M49.9648 61.6474C49.4783 59.6484 48.2233 56.0672 45.416 55.3952C46.0918 55.1577 46.6683 54.662 47.0413 53.9975C47.4144 53.333 47.5595 52.5434 47.4504 51.7714C47.3413 50.9994 46.9853 50.2957 46.4465 49.7875C45.9078 49.2793 45.2218 49 44.5125 49C43.8031 49 43.1172 49.2793 42.5784 49.7875C42.0397 50.2957 41.6836 50.9994 41.5745 51.7714C41.4654 52.5434 41.6105 53.333 41.9836 53.9975C42.3566 54.662 42.9331 55.1577 43.6089 55.3952C40.7862 56.0502 39.5235 59.6484 39.0331 61.6559C38.9944 61.8147 38.9896 61.981 39.0189 62.1422C39.0482 62.3033 39.1109 62.4548 39.2021 62.5849C39.2933 62.7149 39.4105 62.82 39.5446 62.892C39.6787 62.964 39.8261 63.001 39.9753 63H49.0265C49.1762 63.0007 49.324 62.9632 49.4584 62.8904C49.5928 62.8177 49.71 62.7116 49.8009 62.5806C49.8918 62.4495 49.9539 62.2971 49.9824 62.1352C50.0108 61.9733 50.0048 61.8063 49.9648 61.6474Z" fill="white"/>
<path d="M80.2699 36H52.7301C52.3269 36 52 36.3478 52 36.7768V46.2232C52 46.6522 52.3269 47 52.7301 47H80.2699C80.6731 47 81 46.6522 81 46.2232V36.7768C81 36.3478 80.6731 36 80.2699 36Z" fill="white"/>
<path d="M77.2696 39H62.7304C62.327 39 62 39.3143 62 39.702V43.298C62 43.6857 62.327 44 62.7304 44H77.2696C77.673 44 78 43.6857 78 43.298V39.702C78 39.3143 77.673 39 77.2696 39Z" fill="#1A374D"/>
<path d="M80.2699 51H52.7301C52.3269 51 52 51.3162 52 51.7062V60.2938C52 60.6838 52.3269 61 52.7301 61H80.2699C80.6731 61 81 60.6838 81 60.2938V51.7062C81 51.3162 80.6731 51 80.2699 51Z" fill="white"/>
<path d="M77.3706 54H74.6294C74.2818 54 74 54.2514 74 54.5616V57.4384C74 57.7486 74.2818 58 74.6294 58H77.3706C77.7182 58 78 57.7486 78 57.4384V54.5616C78 54.2514 77.7182 54 77.3706 54Z" fill="#1A374D"/>
<path d="M49.9637 75.7405C49.4772 73.8848 48.2224 70.5604 45.4154 69.9366C46.0911 69.7161 46.6675 69.256 47.0405 68.6391C47.4135 68.0222 47.5586 67.2893 47.4496 66.5727C47.3405 65.856 46.9845 65.2028 46.4457 64.731C45.907 64.2593 45.2211 64 44.5119 64C43.8026 64 43.1167 64.2593 42.578 64.731C42.0393 65.2028 41.6832 65.856 41.5742 66.5727C41.4651 67.2893 41.6102 68.0222 41.9832 68.6391C42.3562 69.256 42.9326 69.7161 43.6084 69.9366C40.7859 70.5446 39.5233 73.8848 39.0329 75.7484C38.9944 75.8959 38.9896 76.0506 39.0189 76.2003C39.0482 76.3501 39.1109 76.4908 39.202 76.6119C39.293 76.7329 39.4102 76.8308 39.5442 76.8981C39.6783 76.9654 39.8257 77.0003 39.975 77H49.0255C49.1756 77.0008 49.3239 76.966 49.4586 76.8982C49.5933 76.8304 49.7108 76.7316 49.8018 76.6095C49.8928 76.4874 49.9548 76.3453 49.9829 76.1945C50.011 76.0437 50.0044 75.8882 49.9637 75.7405Z" fill="white"/>
<path d="M80.2699 65H52.7301C52.3269 65 52 65.3162 52 65.7062V74.2938C52 74.6838 52.3269 75 52.7301 75H80.2699C80.6731 75 81 74.6838 81 74.2938V65.7062C81 65.3162 80.6731 65 80.2699 65Z" fill="white"/>
<path d="M77.2931 67H70.7069C70.3165 67 70 67.3772 70 67.8424V72.1576C70 72.6228 70.3165 73 70.7069 73H77.2931C77.6835 73 78 72.6228 78 72.1576V67.8424C78 67.3772 77.6835 67 77.2931 67Z" fill="#1A374D"/>
<defs>
<filter id="filter0_d_0_1" x="0" y="0" width="119" height="119" filterUnits="userSpaceOnUse" color-interpolation-filters="sRGB">
<feFlood flood-opacity="0" result="BackgroundImageFix"/>
<feColorMatrix in="SourceAlpha" type="matrix" values="0 0 0 0 0 0 0 0 0 0 0 0 0 0 0 0 0 0 127 0" result="hardAlpha"/>
<feOffset dy="4"/>
<feGaussianBlur stdDeviation="2"/>
<feComposite in2="hardAlpha" operator="out"/>
<feColorMatrix type="matrix" values="0 0 0 0 0 0 0 0 0 0 0 0 0 0 0 0 0 0 0.25 0"/>
<feBlend mode="normal" in2="BackgroundImageFix" result="effect1_dropShadow_0_1"/>
<feBlend mode="normal" in="SourceGraphic" in2="effect1_dropShadow_0_1" result="shape"/>
</filter>
</defs>
</svg>

