<svg width="48" height="48" viewBox="0 0 48 48" fill="none" xmlns="http://www.w3.org/2000/svg">
<path d="M16 24C18.1217 24 20.1566 23.1571 21.6569 21.6569C23.1571 20.1566 24 18.1217 24 16C24 13.8783 23.1571 11.8434 21.6569 10.3431C20.1566 8.84285 18.1217 8 16 8C13.8783 8 11.8434 8.84285 10.3431 10.3431C8.84285 11.8434 8 13.8783 8 16C8 18.1217 8.84285 20.1566 10.3431 21.6569C11.8434 23.1571 13.8783 24 16 24ZM34 24C35.5913 24 37.1174 23.3679 38.2426 22.2426C39.3679 21.1174 40 19.5913 40 18C40 16.4087 39.3679 14.8826 38.2426 13.7574C37.1174 12.6321 35.5913 12 34 12C32.4087 12 30.8826 12.6321 29.7574 13.7574C28.6321 14.8826 28 16.4087 28 18C28 19.5913 28.6321 21.1174 29.7574 22.2426C30.8826 23.3679 32.4087 24 34 24ZM6.75 27C5.75544 27 4.80161 27.3951 4.09835 28.0983C3.39509 28.8016 3 29.7554 3 30.75V32C3 32 3 41 16 41C29 41 29 32 29 32V30.75C29 29.7554 28.6049 28.8016 27.9017 28.0983C27.1984 27.3951 26.2446 27 25.25 27H6.75ZM28.674 38.089C30.05 38.647 31.793 39 33.999 39C44.499 39 44.499 31 44.499 31V30.75C44.499 29.7556 44.104 28.8019 43.401 28.0987C42.698 27.3955 41.7444 27.0003 40.75 27H29.607C30.5062 28.0423 31 29.3735 30.998 30.75V32.045L30.997 32.102C30.9911 32.2961 30.9778 32.4899 30.957 32.683C30.9074 33.1294 30.8269 33.5718 30.716 34.007C30.3373 35.4989 29.6408 36.8913 28.674 38.089Z" fill="#1A374D"/>
</svg>
