<svg width="42" height="42" viewBox="0 0 42 42" fill="none" xmlns="http://www.w3.org/2000/svg">
<path d="M38.9 19H42V23H38.9C38 31.34 31.34 38 23 38.9V42H19V38.9C10.66 38 4 31.34 3.1 23H0V19H3.1C4 10.66 10.66 4 19 3.1V0H23V3.1C31.34 4 38 10.66 38.9 19ZM7.14 19H10V23H7.14C7.56503 25.9949 8.95135 28.7708 11.0903 30.9097C13.2292 33.0486 16.0051 34.435 19 34.86V32H23V34.86C25.9949 34.435 28.7708 33.0486 30.9097 30.9097C33.0486 28.7708 34.435 25.9949 34.86 23H32V19H34.86C34.435 16.0051 33.0486 13.2292 30.9097 11.0903C28.7708 8.95135 25.9949 7.56503 23 7.14V10H19V7.14C16.0051 7.56503 13.2292 8.95135 11.0903 11.0903C8.95135 13.2292 7.56503 16.0051 7.14 19ZM29 29H13V27C13 24.34 18.34 23 21 23C23.66 23 29 24.34 29 27V29ZM21 13C22.0609 13 23.0783 13.4214 23.8284 14.1716C24.5786 14.9217 25 15.9391 25 17C25 18.0609 24.5786 19.0783 23.8284 19.8284C23.0783 20.5786 22.0609 21 21 21C19.9391 21 18.9217 20.5786 18.1716 19.8284C17.4214 19.0783 17 18.0609 17 17C17 15.9391 17.4214 14.9217 18.1716 14.1716C18.9217 13.4214 19.9391 13 21 13Z" fill="#1A374D"/>
<rect x="19" width="4" height="10" fill="#FFC9AE"/>
<rect x="19" y="32" width="4" height="10" fill="#FFC9AE"/>
<rect x="42" y="19" width="4" height="10" transform="rotate(90 42 19)" fill="#FFC9AE"/>
<rect x="10" y="19" width="4" height="10" transform="rotate(90 10 19)" fill="#FFC9AE"/>
</svg>
