<svg width="48" height="48" viewBox="0 0 48 48" fill="none" xmlns="http://www.w3.org/2000/svg">
<g clip-path="url(#clip0_3_11707)">
<path d="M25.58 41.9999L6 22.4199V26.4199C6 27.4799 6.42 28.4999 7.18 29.2399L22.76 44.8199C24.32 46.3799 26.86 46.3799 28.42 44.8199L40.84 32.3999C42.4 30.8399 42.4 28.2999 40.84 26.7399L25.58 41.9999Z" fill="#FFC9AE"/>
<path d="M22.76 34.82C24.32 36.38 26.86 36.38 28.42 34.82L40.84 22.4C42.4 20.84 42.4 18.3 40.84 16.74L25.26 1.16C24.5003 0.418604 23.4815 0.00249065 22.42 0L10 0C7.8 0 6 1.8 6 4V16.42C6 17.48 6.42 18.5 7.18 19.24L22.76 34.82ZM14.5 6C15.163 6 15.7989 6.26339 16.2678 6.73223C16.7366 7.20107 17 7.83696 17 8.5C17 9.16304 16.7366 9.79893 16.2678 10.2678C15.7989 10.7366 15.163 11 14.5 11C13.837 11 13.2011 10.7366 12.7322 10.2678C12.2634 9.79893 12 9.16304 12 8.5C12 7.83696 12.2634 7.20107 12.7322 6.73223C13.2011 6.26339 13.837 6 14.5 6Z" fill="#1A374D"/>
</g>
<defs>
<clipPath id="clip0_3_11707">
<rect width="48" height="48" fill="white"/>
</clipPath>
</defs>
</svg>
