<svg width="21" height="310" viewBox="0 0 21 310" fill="none" xmlns="http://www.w3.org/2000/svg">
<mask id="path-1-inside-1_3_11496" fill="white">
<path fill-rule="evenodd" clip-rule="evenodd" d="M10.5 0C9.67157 0 9 0.671571 9 1.5V12.1063C3.91156 12.8342 0 17.2103 0 22.5C0 27.7897 3.91156 32.1658 9 32.8937V63.1063C3.91156 63.8342 0 68.2103 0 73.5C0 78.7897 3.91156 83.1658 9 83.8937V114.106C3.91156 114.834 0 119.21 0 124.5C0 129.79 3.91156 134.166 9 134.894V165.106C3.91156 165.834 0 170.21 0 175.5C0 180.79 3.91156 185.166 9 185.894V216.106C3.91156 216.834 0 221.21 0 226.5C0 231.79 3.91156 236.166 9 236.894V267.106C3.91156 267.834 0 272.21 0 277.5C0 282.79 3.91156 287.166 9 287.894V308.5C9 309.328 9.67157 310 10.5 310C11.3284 310 12 309.328 12 308.5V287.894C17.0884 287.166 21 282.79 21 277.5C21 272.21 17.0884 267.834 12 267.106V236.894C17.0884 236.166 21 231.79 21 226.5C21 221.21 17.0884 216.834 12 216.106V185.894C17.0884 185.166 21 180.79 21 175.5C21 170.21 17.0884 165.834 12 165.106V134.894C17.0884 134.166 21 129.79 21 124.5C21 119.21 17.0884 114.834 12 114.106V83.8937C17.0884 83.1658 21 78.7897 21 73.5C21 68.2103 17.0884 63.8342 12 63.1063V32.8937C17.0884 32.1658 21 27.7897 21 22.5C21 17.2103 17.0884 12.8342 12 12.1063V1.5C12 0.671573 11.3284 0 10.5 0Z"/>
</mask>
<path d="M9 12.1063L9.1416 13.0963L10 12.9735V12.1063H9ZM9 32.8937H10V32.0265L9.1416 31.9037L9 32.8937ZM9 63.1063L9.1416 64.0963L10 63.9735V63.1063H9ZM9 83.8937H10V83.0265L9.1416 82.9037L9 83.8937ZM9 114.106L9.1416 115.096L10 114.973V114.106H9ZM9 134.894H10V134.027L9.1416 133.904L9 134.894ZM9 165.106L9.1416 166.096L10 165.973V165.106H9ZM9 185.894H10V185.027L9.1416 184.904L9 185.894ZM9 216.106L9.1416 217.096L10 216.973V216.106H9ZM9 236.894H10V236.027L9.1416 235.904L9 236.894ZM9 267.106L9.1416 268.096L10 267.973V267.106H9ZM9 287.894H10V287.027L9.1416 286.904L9 287.894ZM12 287.894L11.8584 286.904L11 287.027V287.894H12ZM12 267.106H11V267.973L11.8584 268.096L12 267.106ZM12 236.894L11.8584 235.904L11 236.027V236.894H12ZM12 216.106H11V216.973L11.8584 217.096L12 216.106ZM12 185.894L11.8584 184.904L11 185.027V185.894H12ZM12 165.106H11V165.973L11.8584 166.096L12 165.106ZM12 134.894L11.8584 133.904L11 134.027V134.894H12ZM12 114.106H11V114.973L11.8584 115.096L12 114.106ZM12 83.8937L11.8584 82.9037L11 83.0265V83.8937H12ZM12 63.1063H11V63.9735L11.8584 64.0963L12 63.1063ZM12 32.8937L11.8584 31.9037L11 32.0265V32.8937H12ZM12 12.1063H11V12.9735L11.8584 13.0963L12 12.1063ZM10 1.5C10 1.22386 10.2239 1 10.5 1V-1C9.11929 -1 8 0.119286 8 1.5H10ZM10 12.1063V1.5H8V12.1063H10ZM1 22.5C1 17.7149 4.53871 13.7547 9.1416 13.0963L8.8584 11.1164C3.28441 11.9137 -1 16.7056 -1 22.5H1ZM9.1416 31.9037C4.53871 31.2453 1 27.2851 1 22.5H-1C-1 28.2944 3.28441 33.0863 8.8584 33.8836L9.1416 31.9037ZM10 63.1063V32.8937H8V63.1063H10ZM1 73.5C1 68.7149 4.53871 64.7547 9.1416 64.0963L8.8584 62.1164C3.28441 62.9137 -1 67.7057 -1 73.5H1ZM9.1416 82.9037C4.53871 82.2454 1 78.2851 1 73.5H-1C-1 79.2943 3.28441 84.0863 8.8584 84.8836L9.1416 82.9037ZM10 114.106V83.8937H8V114.106H10ZM1 124.5C1 119.715 4.53871 115.755 9.1416 115.096L8.8584 113.116C3.28441 113.914 -1 118.706 -1 124.5H1ZM9.1416 133.904C4.5387 133.245 1 129.285 1 124.5H-1C-1 130.294 3.28441 135.086 8.8584 135.884L9.1416 133.904ZM10 165.106V134.894H8V165.106H10ZM1 175.5C1 170.715 4.5387 166.755 9.1416 166.096L8.8584 164.116C3.28441 164.914 -1 169.706 -1 175.5H1ZM9.1416 184.904C4.5387 184.245 1 180.285 1 175.5H-1C-1 181.294 3.28441 186.086 8.8584 186.884L9.1416 184.904ZM10 216.106V185.894H8V216.106H10ZM1 226.5C1 221.715 4.5387 217.755 9.1416 217.096L8.8584 215.116C3.28441 215.914 -1 220.706 -1 226.5H1ZM9.1416 235.904C4.5387 235.245 1 231.285 1 226.5H-1C-1 232.294 3.28441 237.086 8.8584 237.884L9.1416 235.904ZM10 267.106V236.894H8V267.106H10ZM1 277.5C1 272.715 4.53871 268.755 9.1416 268.096L8.8584 266.116C3.28441 266.914 -1 271.706 -1 277.5H1ZM9.1416 286.904C4.53871 286.245 1 282.285 1 277.5H-1C-1 283.294 3.28441 288.086 8.8584 288.884L9.1416 286.904ZM10 308.5V287.894H8V308.5H10ZM10.5 309C10.2239 309 10 308.776 10 308.5H8C8 309.881 9.11929 311 10.5 311V309ZM11 308.5C11 308.776 10.7761 309 10.5 309V311C11.8807 311 13 309.881 13 308.5H11ZM11 287.894V308.5H13V287.894H11ZM20 277.5C20 282.285 16.4613 286.245 11.8584 286.904L12.1416 288.884C17.7156 288.086 22 283.294 22 277.5H20ZM11.8584 268.096C16.4613 268.755 20 272.715 20 277.5H22C22 271.706 17.7156 266.914 12.1416 266.116L11.8584 268.096ZM11 236.894V267.106H13V236.894H11ZM20 226.5C20 231.285 16.4613 235.245 11.8584 235.904L12.1416 237.884C17.7156 237.086 22 232.294 22 226.5H20ZM11.8584 217.096C16.4613 217.755 20 221.715 20 226.5H22C22 220.706 17.7156 215.914 12.1416 215.116L11.8584 217.096ZM11 185.894V216.106H13V185.894H11ZM20 175.5C20 180.285 16.4613 184.245 11.8584 184.904L12.1416 186.884C17.7156 186.086 22 181.294 22 175.5H20ZM11.8584 166.096C16.4613 166.755 20 170.715 20 175.5H22C22 169.706 17.7156 164.914 12.1416 164.116L11.8584 166.096ZM11 134.894V165.106H13V134.894H11ZM20 124.5C20 129.285 16.4613 133.245 11.8584 133.904L12.1416 135.884C17.7156 135.086 22 130.294 22 124.5H20ZM11.8584 115.096C16.4613 115.755 20 119.715 20 124.5H22C22 118.706 17.7156 113.914 12.1416 113.116L11.8584 115.096ZM11 83.8937V114.106H13V83.8937H11ZM20 73.5C20 78.2851 16.4613 82.2454 11.8584 82.9037L12.1416 84.8836C17.7156 84.0863 22 79.2943 22 73.5H20ZM11.8584 64.0963C16.4613 64.7547 20 68.7149 20 73.5H22C22 67.7057 17.7156 62.9137 12.1416 62.1164L11.8584 64.0963ZM11 32.8937V63.1063H13V32.8937H11ZM20 22.5C20 27.2851 16.4613 31.2453 11.8584 31.9037L12.1416 33.8836C17.7156 33.0863 22 28.2944 22 22.5H20ZM11.8584 13.0963C16.4613 13.7547 20 17.7149 20 22.5H22C22 16.7056 17.7156 11.9137 12.1416 11.1164L11.8584 13.0963ZM11 1.5V12.1063H13V1.5H11ZM10.5 1C10.7761 1 11 1.22386 11 1.5H13C13 0.119288 11.8807 -1 10.5 -1V1Z" fill="#F8D4B1" mask="url(#path-1-inside-1_3_11496)"/>
</svg>
