<svg width="114" height="114" viewBox="0 0 114 114" fill="none" xmlns="http://www.w3.org/2000/svg">
<circle cx="57" cy="57" r="57" fill="#F8D4B1"/>
<path fill-rule="evenodd" clip-rule="evenodd" d="M57 23C57.5523 23 58 23.4477 58 24V27.0164C63.5026 27.1967 68.6327 28.8596 73.0007 31.6189C73.4677 31.9138 73.6071 32.5314 73.3121 32.9984C73.0172 33.4653 72.3995 33.6047 71.9326 33.3097C67.8747 30.7464 63.1128 29.1969 58 29.0175V32C58 32.5523 57.5523 33 57 33C56.4477 33 56 32.5523 56 32V29.0175C41.3311 29.5324 29.5324 41.3311 29.0175 56H32C32.5523 56 33 56.4477 33 57C33 57.5523 32.5523 58 32 58H29.0175C29.1388 61.4544 29.8858 64.7497 31.1487 67.7759C31.3869 67.278 31.7123 66.8114 32.1247 66.399L48.0227 50.501C48.8038 49.7199 50.0701 49.7199 50.8512 50.501L54.9887 54.6385L66.7615 42.8657L62.452 38.5563L80.8368 34.3136L76.5942 52.6984L72.4184 48.5226L56.3359 64.6051C55.5548 65.3861 54.2885 65.3861 53.5075 64.6051L52.4054 63.5031L52.3903 63.5182L49.3548 60.4826L35.2288 74.6087C36.6292 76.3381 38.2316 77.8973 40 79.2504V77C40 76.4477 40.4477 76 41 76C41.5523 76 42 76.4477 42 77V80C42 80.2007 41.9409 80.3877 41.839 80.5443C43.7461 81.7749 45.8123 82.7801 48 83.5222V70C48 69.4477 48.4477 69 49 69C49.5523 69 50 69.4477 50 70V84C50 84.0393 49.9977 84.078 49.9933 84.1162C51.9229 84.6133 53.9329 84.9099 56 84.9825V82V73C56 72.4477 56.4477 72 57 72C57.5523 72 58 72.4477 58 73V82V84.9825C60.0647 84.91 62.0725 84.614 64 84.1179V64C64 63.4477 64.4477 63 65 63C65.5523 63 66 63.4477 66 64V83.5222C68.1877 82.7801 70.2539 81.7749 72.161 80.5443C72.0592 80.3877 72 80.2007 72 80V57C72 56.4477 72.4477 56 73 56C73.5523 56 74 56.4477 74 57V79.2504C80.4402 74.3224 84.6784 66.6616 84.9825 58H82C81.4477 58 81 57.5523 81 57C81 56.4477 81.4477 56 82 56H84.9825C84.8429 52.0204 83.8733 48.2542 82.2422 44.8672C82.0026 44.3696 82.2117 43.772 82.7093 43.5324C83.2069 43.2927 83.8045 43.5019 84.0442 43.9995C85.8026 47.651 86.8431 51.7128 86.9836 56H90C90.5523 56 91 56.4477 91 57C91 57.5523 90.5523 58 90 58H86.9836C86.467 73.7736 73.7736 86.467 58 86.9836V89V90C58 90.5523 57.5523 91 57 91C56.4477 91 56 90.5523 56 90V89V86.9836C40.2264 86.467 27.533 73.7736 27.0163 58H24C23.4477 58 23 57.5523 23 57C23 56.4477 23.4477 56 24 56H27.0163C27.533 40.2264 40.2264 27.533 56 27.0163V24C56 23.4477 56.4477 23 57 23ZM66.4178 39.6936L69.5899 42.8657L54.9887 57.467L49.4369 51.9152L33.5389 67.8132C32.3674 68.9848 32.3674 70.8843 33.5389 72.0558L34.246 72.7629L49.3548 57.6542L52.3903 60.6898L52.4054 60.6746L54.9217 63.1909L72.4184 45.6942L75.4568 48.7326L78.1685 36.982L66.4178 39.6936Z" fill="#1A374D"/>
</svg>
