<svg width="48" height="48" viewBox="0 0 48 48" fill="none" xmlns="http://www.w3.org/2000/svg">
<path d="M37.5 34.5H37.4685C37.1481 34.4925 36.8384 34.3828 36.5848 34.1869C36.3311 33.991 36.1467 33.7191 36.0585 33.411L31.305 16.785L28.4025 24.525C28.2957 24.8109 28.1042 25.0574 27.8536 25.2316C27.603 25.4058 27.3052 25.4995 27 25.5H21V22.5H25.9605L30.096 11.4735C30.2067 11.1779 30.4079 10.9247 30.6709 10.75C30.9339 10.5754 31.2453 10.4882 31.5607 10.5008C31.8762 10.5134 32.1796 10.6253 32.4278 10.8204C32.676 11.0155 32.8563 11.2839 32.943 11.5875L37.6095 27.9255L40.578 19.026C40.6772 18.7273 40.868 18.4675 41.1233 18.2833C41.3785 18.0991 41.6853 18 42 18H48V21H43.08L38.922 33.474C38.823 33.7728 38.6322 34.0328 38.3769 34.217C38.1217 34.4012 37.8148 34.5002 37.5 34.5ZM22.5 45H19.5V34.5C19.4988 33.3069 19.0243 32.163 18.1807 31.3193C17.337 30.4757 16.1931 30.0012 15 30H9C7.80689 30.0012 6.66299 30.4757 5.81934 31.3193C4.97568 32.163 4.50119 33.3069 4.5 34.5V45H1.5V34.5C1.50238 32.5116 2.29332 30.6053 3.69933 29.1993C5.10534 27.7933 7.01161 27.0024 9 27H15C16.9884 27.0024 18.8947 27.7933 20.3007 29.1993C21.7067 30.6053 22.4976 32.5116 22.5 34.5V45ZM12 12C12.89 12 13.76 12.2639 14.5001 12.7584C15.2401 13.2529 15.8169 13.9557 16.1575 14.7779C16.4981 15.6002 16.5872 16.505 16.4135 17.3779C16.2399 18.2508 15.8113 19.0526 15.182 19.682C14.5526 20.3113 13.7508 20.7399 12.8779 20.9135C12.005 21.0872 11.1002 20.9981 10.2779 20.6575C9.45566 20.3169 8.75285 19.7401 8.25839 19.0001C7.76392 18.26 7.5 17.39 7.5 16.5C7.5 15.3065 7.97411 14.1619 8.81802 13.318C9.66193 12.4741 10.8065 12 12 12ZM12 9C10.5166 9 9.06659 9.43987 7.83322 10.264C6.59985 11.0881 5.63856 12.2594 5.0709 13.6299C4.50325 15.0003 4.35472 16.5083 4.64411 17.9632C4.9335 19.418 5.64781 20.7544 6.6967 21.8033C7.74559 22.8522 9.08197 23.5665 10.5368 23.8559C11.9917 24.1453 13.4997 23.9968 14.8701 23.4291C16.2406 22.8614 17.4119 21.9001 18.236 20.6668C19.0601 19.4334 19.5 17.9834 19.5 16.5C19.5 14.5109 18.7098 12.6032 17.3033 11.1967C15.8968 9.79018 13.9891 9 12 9Z" fill="#1A374D"/>
</svg>
