<svg width="32" height="32" viewBox="0 0 32 32" fill="none" xmlns="http://www.w3.org/2000/svg">
<path d="M15.9998 2.66602C23.3515 2.66602 29.3332 7.50499 29.3332 13.454C29.3332 15.8353 28.4082 17.9789 26.4748 20.091C23.6782 23.3015 17.4232 27.2115 15.9998 27.8098C14.6165 28.3914 14.7765 27.4824 14.8398 27.1235L14.8448 27.0935L15.0348 25.9553C15.0798 25.6163 15.1265 25.0895 14.9915 24.7538C14.8415 24.3833 14.2515 24.1905 13.8182 24.0974C7.40984 23.2549 2.6665 18.7865 2.6665 13.454C2.6665 7.50499 8.64984 2.66602 15.9998 2.66602ZM11.0365 15.4381H8.49484V10.8384C8.49484 10.77 8.46767 10.7043 8.41927 10.6557C8.37088 10.6072 8.30517 10.5796 8.2365 10.5792H7.29984C7.26569 10.5792 7.23188 10.5859 7.20034 10.5989C7.16879 10.612 7.14013 10.6311 7.11599 10.6551C7.09185 10.6792 7.07269 10.7078 7.05963 10.7392C7.04656 10.7707 7.03984 10.8044 7.03984 10.8384V16.6313C7.03984 16.6994 7.06817 16.7642 7.11317 16.8091V16.8107L7.1165 16.814L7.11984 16.8174C7.16817 16.8637 7.23278 16.8894 7.29984 16.8888H11.0365C11.1798 16.8888 11.2948 16.7725 11.2948 16.6296V15.699C11.2951 15.665 11.2885 15.6312 11.2757 15.5997C11.2628 15.5682 11.2439 15.5395 11.2199 15.5152C11.1959 15.491 11.1673 15.4717 11.1359 15.4585C11.1044 15.4453 11.0706 15.4383 11.0365 15.4381ZM12.3548 10.5792C12.2859 10.5792 12.2197 10.6065 12.171 10.6551C12.1222 10.7037 12.0948 10.7697 12.0948 10.8384V16.6313C12.0948 16.7742 12.2115 16.8888 12.3548 16.8888H13.2915C13.4348 16.8888 13.5498 16.7725 13.5498 16.6313V10.8384C13.5498 10.77 13.5227 10.7043 13.4743 10.6557C13.4259 10.6072 13.3602 10.5796 13.2915 10.5792H12.3548ZM18.7932 10.5792C18.7242 10.5792 18.6581 10.6065 18.6093 10.6551C18.5606 10.7037 18.5332 10.7697 18.5332 10.8384V14.2782L15.8715 10.6955C15.8648 10.6868 15.8575 10.6785 15.8498 10.6706V10.6689C15.8446 10.6631 15.839 10.6576 15.8332 10.6523L15.8282 10.6473C15.8225 10.6419 15.8163 10.6369 15.8098 10.6324H15.8082L15.7998 10.6257L15.7948 10.6224C15.7922 10.6205 15.7894 10.6188 15.7865 10.6174L15.7732 10.6091H15.7698L15.7648 10.6058L15.7482 10.5991L15.7415 10.5958C15.736 10.5939 15.7305 10.5922 15.7248 10.5908H15.7215L15.7165 10.5892L15.7015 10.5859H15.6915L15.6865 10.5842H15.6798L15.6765 10.5825H14.7198C14.6512 10.5825 14.5853 10.6096 14.5366 10.6579C14.4879 10.7061 14.4603 10.7716 14.4598 10.8401V16.6329C14.4598 16.7758 14.5765 16.8905 14.7198 16.8905H15.6532C15.7982 16.8905 15.9148 16.7742 15.9148 16.6329V13.1931L18.5815 16.7825C18.5992 16.8072 18.6212 16.8286 18.6465 16.8456L18.6482 16.8473L18.6648 16.8572L18.6715 16.8606C18.6758 16.8631 18.6802 16.8653 18.6848 16.8672L18.6965 16.8722L18.7048 16.8755C18.7103 16.8774 18.7159 16.879 18.7215 16.8805H18.7265C18.7482 16.8867 18.7706 16.8901 18.7932 16.8905H19.7265C19.8715 16.8905 19.9882 16.7742 19.9882 16.6329V10.8384C19.9882 10.7697 19.9608 10.7037 19.912 10.6551C19.8633 10.6065 19.7971 10.5792 19.7282 10.5792H18.7932ZM25.1515 11.7707V10.8401C25.1517 10.8061 25.1452 10.7723 25.1324 10.7408C25.1195 10.7092 25.1005 10.6805 25.0765 10.6563C25.0525 10.6321 25.024 10.6128 24.9925 10.5996C24.9611 10.5863 24.9273 10.5794 24.8932 10.5792H21.1565C21.0892 10.5793 21.0247 10.6055 20.9765 10.6523H20.9748L20.9732 10.6556L20.9698 10.6606C20.9233 10.7082 20.897 10.772 20.8965 10.8384V16.6313C20.8965 16.6994 20.9248 16.7642 20.9698 16.8091L20.9732 16.814L20.9765 16.8174C21.0249 16.8636 21.0895 16.8892 21.1565 16.8888H24.8932C25.0365 16.8888 25.1515 16.7725 25.1515 16.6296V15.699C25.1517 15.665 25.1452 15.6312 25.1324 15.5997C25.1195 15.5682 25.1005 15.5395 25.0765 15.5152C25.0525 15.491 25.024 15.4717 24.9925 15.4585C24.9611 15.4453 24.9273 15.4383 24.8932 15.4381H22.3498V14.4594H24.8915C25.0348 14.4594 25.1498 14.343 25.1498 14.2001V13.2696C25.1501 13.2355 25.1435 13.2018 25.1307 13.1702C25.1178 13.1387 25.0989 13.11 25.0749 13.0858C25.0509 13.0615 25.0223 13.0423 24.9909 13.029C24.9594 13.0158 24.9256 13.0089 24.8915 13.0087H22.3498V12.0299H24.8915C25.0348 12.0299 25.1498 11.9136 25.1498 11.7707H25.1515Z" fill="black"/>
</svg>
