<svg width="854" height="98" viewBox="0 0 854 98" fill="none" xmlns="http://www.w3.org/2000/svg">
<rect x="108.5" y="57.5" width="116" height="40" rx="20" fill="#777777" fill-opacity="0.4"/>
<g clip-path="url(#clip0_2452_29026)">
<path d="M144 65.5C150.616 65.5 156 69.868 156 75.238C156 77.3875 155.167 79.3225 153.427 81.229C150.91 84.127 145.281 87.6565 144 88.1965C142.755 88.7215 142.899 87.901 142.956 87.577L142.961 87.55L143.132 86.5225C143.172 86.2165 143.214 85.741 143.092 85.438C142.957 85.1035 142.427 84.9295 142.036 84.8455C136.269 84.085 132 80.0515 132 75.238C132 69.868 137.385 65.5 144 65.5ZM139.533 77.029H137.246V72.877C137.246 72.8152 137.221 72.7559 137.177 72.7121C137.134 72.6682 137.075 72.6434 137.013 72.643H136.17C136.139 72.643 136.109 72.6491 136.08 72.6608C136.052 72.6726 136.026 72.6898 136.005 72.7115C135.983 72.7333 135.966 72.7591 135.954 72.7875C135.942 72.8158 135.936 72.8463 135.936 72.877V78.106C135.936 78.1675 135.961 78.226 136.002 78.2665V78.268L136.005 78.271L136.008 78.274C136.052 78.3158 136.11 78.339 136.17 78.3385H139.533C139.662 78.3385 139.766 78.2335 139.766 78.1045V77.2645C139.766 77.2338 139.76 77.2033 139.748 77.1748C139.737 77.1464 139.72 77.1205 139.698 77.0986C139.676 77.0767 139.651 77.0593 139.622 77.0474C139.594 77.0354 139.564 77.0292 139.533 77.029ZM140.72 72.643C140.657 72.643 140.598 72.6677 140.554 72.7115C140.51 72.7554 140.486 72.8149 140.486 72.877V78.106C140.486 78.235 140.59 78.3385 140.72 78.3385H141.562C141.691 78.3385 141.795 78.2335 141.795 78.106V72.877C141.795 72.8152 141.771 72.7559 141.727 72.7121C141.683 72.6682 141.624 72.6434 141.562 72.643H140.72ZM146.514 72.643C146.452 72.643 146.392 72.6677 146.349 72.7115C146.305 72.7554 146.28 72.8149 146.28 72.877V75.982L143.884 72.748C143.878 72.7401 143.872 72.7326 143.865 72.7255V72.724C143.86 72.7187 143.855 72.7137 143.85 72.709L143.845 72.7045C143.84 72.6996 143.835 72.6951 143.829 72.691H143.828L143.82 72.685L143.816 72.682C143.813 72.6803 143.811 72.6787 143.808 72.6775L143.796 72.67H143.793L143.788 72.667L143.774 72.661L143.767 72.658C143.763 72.6562 143.758 72.6547 143.753 72.6535H143.75L143.745 72.652L143.732 72.649H143.722L143.718 72.6475H143.712L143.709 72.646H142.848C142.786 72.646 142.727 72.6704 142.683 72.714C142.639 72.7576 142.614 72.8167 142.614 72.8785V78.1075C142.614 78.2365 142.719 78.34 142.848 78.34H143.688C143.818 78.34 143.924 78.235 143.924 78.1075V75.0025L146.323 78.2425C146.339 78.2648 146.359 78.2841 146.382 78.2995L146.383 78.301L146.399 78.31L146.404 78.313C146.408 78.3153 146.412 78.3173 146.417 78.319L146.427 78.3235L146.434 78.3265C146.439 78.3282 146.444 78.3297 146.45 78.331H146.454C146.474 78.3366 146.494 78.3396 146.514 78.34H147.354C147.484 78.34 147.589 78.235 147.589 78.1075V72.877C147.589 72.8149 147.565 72.7554 147.521 72.7115C147.477 72.6677 147.418 72.643 147.356 72.643H146.514ZM152.236 73.7185V72.8785C152.237 72.8478 152.231 72.8173 152.219 72.7888C152.208 72.7604 152.191 72.7345 152.169 72.7126C152.147 72.6907 152.122 72.6733 152.093 72.6614C152.065 72.6494 152.035 72.6432 152.004 72.643H148.641C148.58 72.6431 148.522 72.6668 148.479 72.709H148.477L148.476 72.712L148.473 72.7165C148.431 72.7595 148.407 72.817 148.407 72.877V78.106C148.407 78.1675 148.433 78.226 148.473 78.2665L148.476 78.271L148.479 78.274C148.523 78.3157 148.581 78.3388 148.641 78.3385H152.004C152.133 78.3385 152.236 78.2335 152.236 78.1045V77.2645C152.237 77.2338 152.231 77.2033 152.219 77.1748C152.208 77.1464 152.191 77.1205 152.169 77.0986C152.147 77.0767 152.122 77.0593 152.093 77.0474C152.065 77.0354 152.035 77.0292 152.004 77.029H149.715V76.1455H152.003C152.132 76.1455 152.235 76.0405 152.235 75.9115V75.0715C152.235 75.0408 152.229 75.0103 152.218 74.9818C152.206 74.9534 152.189 74.9275 152.168 74.9056C152.146 74.8837 152.12 74.8663 152.092 74.8544C152.064 74.8424 152.033 74.8362 152.003 74.836H149.715V73.9525H152.003C152.132 73.9525 152.235 73.8475 152.235 73.7185H152.236Z" fill="white"/>
</g>
<path d="M165.746 85H173.45V83.236H167.834V71.734H165.746V85ZM175.603 85H177.673V75.1H175.603V85ZM176.629 73.246C177.385 73.246 177.925 72.76 177.925 72.004C177.925 71.266 177.385 70.78 176.629 70.78C175.873 70.78 175.351 71.266 175.351 72.004C175.351 72.76 175.873 73.246 176.629 73.246ZM180.771 85H182.841V77.98C183.705 77.098 184.335 76.63 185.253 76.63C186.423 76.63 186.927 77.314 186.927 79.024V85H188.997V78.772C188.997 76.252 188.061 74.848 185.955 74.848C184.605 74.848 183.597 75.586 182.679 76.468H182.625L182.463 75.1H180.771V85ZM196.126 85.234C197.422 85.234 198.556 84.802 199.474 84.19L198.754 82.876C198.034 83.344 197.278 83.614 196.396 83.614C194.686 83.614 193.498 82.48 193.336 80.59H199.762C199.816 80.338 199.87 79.942 199.87 79.528C199.87 76.738 198.448 74.848 195.82 74.848C193.516 74.848 191.302 76.846 191.302 80.05C191.302 83.326 193.444 85.234 196.126 85.234ZM193.318 79.15C193.516 77.422 194.614 76.468 195.856 76.468C197.296 76.468 198.07 77.458 198.07 79.15H193.318Z" fill="white"/>
<rect x="108.5" y="57.5" width="116" height="40" rx="20" stroke="#B3B3B3"/>
<rect x="241.5" y="57.5" width="143" height="40" rx="20" fill="#777777" fill-opacity="0.4"/>
<path d="M281.174 74.3453C281.313 74.3453 281.451 74.35 281.587 74.357C281.015 71.3406 277.877 69.0344 274.089 69.0344C269.898 69.0344 266.5 71.8609 266.5 75.3484C266.5 77.2492 267.522 78.9625 269.123 80.1203C269.189 80.1669 269.243 80.2287 269.28 80.3005C269.317 80.3723 269.336 80.452 269.336 80.5328C269.336 80.5891 269.324 80.6406 269.31 80.6945C269.181 81.1703 268.977 81.932 268.968 81.9672C268.952 82.0281 268.928 82.0891 268.928 82.1523C268.928 82.2906 269.041 82.4055 269.181 82.4055C269.235 82.4055 269.28 82.3844 269.327 82.3586L270.988 81.4C271.113 81.3273 271.246 81.2828 271.391 81.2828C271.466 81.2828 271.541 81.2945 271.614 81.3156C272.39 81.5383 273.227 81.6625 274.091 81.6625C274.232 81.6625 274.37 81.6601 274.509 81.6531C274.342 81.1609 274.253 80.643 274.253 80.1062C274.253 76.9234 277.352 74.3453 281.174 74.3453ZM276.62 72.318C277.178 72.318 277.633 72.7703 277.633 73.3281C277.633 73.8859 277.18 74.3383 276.62 74.3383C276.063 74.3383 275.608 73.8859 275.608 73.3281C275.608 72.7703 276.063 72.318 276.62 72.318ZM271.56 74.3383C271.002 74.3383 270.548 73.8859 270.548 73.3281C270.548 72.7703 271 72.318 271.56 72.318C272.12 72.318 272.573 72.7703 272.573 73.3281C272.573 73.8859 272.118 74.3383 271.56 74.3383ZM285.313 84.0789C286.647 83.1133 287.498 81.6883 287.498 80.1016C287.498 77.1953 284.666 74.8398 281.172 74.8398C277.68 74.8398 274.846 77.1953 274.846 80.1016C274.846 83.0078 277.677 85.3633 281.172 85.3633C281.894 85.3633 282.592 85.2601 283.237 85.075C283.298 85.0562 283.359 85.0469 283.422 85.0469C283.544 85.0469 283.654 85.0844 283.757 85.143L285.142 85.9398C285.182 85.9633 285.22 85.9797 285.264 85.9797C285.292 85.9799 285.319 85.9746 285.345 85.9642C285.371 85.9537 285.394 85.9383 285.414 85.9187C285.434 85.899 285.449 85.8756 285.459 85.8498C285.47 85.8241 285.475 85.7965 285.475 85.7687C285.475 85.7172 285.454 85.6656 285.442 85.6141C285.435 85.5859 285.264 84.9508 285.156 84.5523C285.145 84.5078 285.135 84.4633 285.135 84.4187C285.138 84.2805 285.208 84.1562 285.313 84.0789ZM279.067 79.2625C278.601 79.2625 278.223 78.8851 278.223 78.4211C278.223 77.957 278.601 77.5797 279.067 77.5797C279.534 77.5797 279.911 77.957 279.911 78.4211C279.911 78.8851 279.531 79.2625 279.067 79.2625ZM283.284 79.2625C282.817 79.2625 282.44 78.8851 282.44 78.4211C282.44 77.957 282.817 77.5797 283.284 77.5797C283.75 77.5797 284.127 77.957 284.127 78.4211C284.126 78.6443 284.037 78.858 283.879 79.0156C283.721 79.1733 283.507 79.262 283.284 79.2625Z" fill="white"/>
<path d="M300.114 85H302.634L304.38 77.638C304.596 76.594 304.812 75.604 305.01 74.596H305.082C305.262 75.604 305.46 76.594 305.694 77.638L307.476 85H310.05L312.66 71.734H310.662L309.402 78.646C309.186 80.032 308.952 81.454 308.736 82.894H308.646C308.34 81.454 308.052 80.032 307.746 78.646L306.036 71.734H304.182L302.472 78.646C302.166 80.05 301.86 81.472 301.572 82.894H301.5C301.266 81.472 301.032 80.05 300.798 78.646L299.556 71.734H297.414L300.114 85ZM318.772 85.234C320.068 85.234 321.202 84.802 322.12 84.19L321.4 82.876C320.68 83.344 319.924 83.614 319.042 83.614C317.332 83.614 316.144 82.48 315.982 80.59H322.408C322.462 80.338 322.516 79.942 322.516 79.528C322.516 76.738 321.094 74.848 318.466 74.848C316.162 74.848 313.948 76.846 313.948 80.05C313.948 83.326 316.09 85.234 318.772 85.234ZM315.964 79.15C316.162 77.422 317.26 76.468 318.502 76.468C319.942 76.468 320.716 77.458 320.716 79.15H315.964ZM328.86 85.234C329.994 85.234 331.164 84.82 332.082 84.01L331.218 82.642C330.624 83.146 329.886 83.542 329.058 83.542C327.42 83.542 326.268 82.156 326.268 80.05C326.268 77.962 327.456 76.558 329.13 76.558C329.796 76.558 330.354 76.846 330.894 77.332L331.92 75.982C331.2 75.352 330.282 74.848 329.022 74.848C326.412 74.848 324.126 76.756 324.126 80.05C324.126 83.344 326.178 85.234 328.86 85.234ZM334.127 85H336.197V77.98C337.061 77.098 337.691 76.63 338.609 76.63C339.779 76.63 340.283 77.314 340.283 79.024V85H342.353V78.772C342.353 76.252 341.417 74.848 339.311 74.848C337.961 74.848 336.971 75.586 336.107 76.414L336.197 74.452V70.654H334.127V85ZM347.646 85.234C348.834 85.234 349.896 84.64 350.796 83.866H350.868L351.03 85H352.722V79.042C352.722 76.414 351.588 74.848 349.122 74.848C347.538 74.848 346.152 75.496 345.126 76.144L345.9 77.548C346.746 77.008 347.718 76.54 348.762 76.54C350.22 76.54 350.634 77.548 350.652 78.7C346.53 79.15 344.73 80.248 344.73 82.372C344.73 84.118 345.936 85.234 347.646 85.234ZM348.276 83.596C347.394 83.596 346.728 83.2 346.728 82.228C346.728 81.112 347.718 80.356 350.652 80.014V82.444C349.842 83.182 349.14 83.596 348.276 83.596ZM358.691 85.234C359.411 85.234 360.077 85.054 360.635 84.874L360.257 83.344C359.969 83.47 359.537 83.578 359.195 83.578C358.169 83.578 357.755 82.966 357.755 81.778V76.756H360.329V75.1H357.755V72.364H356.027L355.793 75.1L354.245 75.208V76.756H355.685V81.76C355.685 83.848 356.459 85.234 358.691 85.234Z" fill="white"/>
<rect x="241.5" y="57.5" width="143" height="40" rx="20" stroke="#B3B3B3"/>
<rect x="401.5" y="57.5" width="101" height="40" rx="20" fill="#777777" fill-opacity="0.4"/>
<path d="M433.154 70.15V84.208C433.154 84.568 433.028 84.676 432.65 84.694C432.272 84.712 430.958 84.712 429.734 84.658C430.004 85.144 430.292 85.936 430.4 86.404C432.11 86.422 433.262 86.368 433.982 86.098C434.684 85.81 434.972 85.324 434.972 84.208V70.15H433.154ZM437.456 74.74C438.914 77.332 440.336 80.68 440.714 82.804L442.532 82.084C442.082 79.906 440.606 76.63 439.076 74.128L437.456 74.74ZM428.492 74.272C428.078 76.648 427.124 79.744 425.612 81.616C426.062 81.778 426.8 82.192 427.214 82.498C428.78 80.5 429.788 77.242 430.382 74.614L428.492 74.272ZM451.316 80.176C451.136 79.24 450.632 77.71 450.128 76.54L448.76 76.882C448.94 77.368 449.138 77.908 449.3 78.448L446.636 78.808C448.148 77.278 449.642 75.388 450.884 73.48L449.39 72.544C448.94 73.354 448.436 74.128 447.914 74.866L446.114 75.01C447.176 73.714 448.274 72.112 449.138 70.546L447.536 69.862C446.69 71.752 445.322 73.714 444.872 74.236C444.44 74.758 444.098 75.1 443.738 75.19C443.936 75.622 444.206 76.396 444.296 76.738C444.548 76.612 444.98 76.504 446.852 76.288C446.186 77.134 445.61 77.764 445.322 78.052C444.692 78.7 444.26 79.114 443.81 79.204C444.008 79.654 444.278 80.482 444.368 80.806C444.764 80.59 445.412 80.464 449.696 79.744C449.768 80.068 449.822 80.374 449.858 80.608L451.316 80.176ZM444.89 81.472C444.638 82.894 444.242 84.496 443.738 85.558C444.152 85.684 444.854 85.918 445.214 86.08C445.646 85 446.132 83.308 446.384 81.778L444.89 81.472ZM447.032 81.688C447.266 82.858 447.5 84.406 447.536 85.432L448.976 85.054C448.886 84.046 448.634 82.516 448.382 81.346L447.032 81.688ZM449.048 81.22C449.39 82.048 449.786 83.146 449.93 83.848L451.28 83.344C451.1 82.642 450.722 81.58 450.344 80.752L449.048 81.22ZM456.464 83.848V72.868H459.974V71.23H451.316V72.868H454.736V83.848H450.632V85.486H460.28V83.848H456.464ZM474.23 81.904V82.804H465.932V81.904H474.23ZM465.932 84.802V83.848H474.23V84.802H465.932ZM464.294 86.458H465.932V85.918H474.23V86.44H475.922V80.824H464.294V86.458ZM470.774 74.164H474.176V75.046H470.774V74.164ZM470.774 72.094H474.176V72.958H470.774V72.094ZM470.774 78.88V78.016H476.714V76.936H470.774V76.108H475.832V74.164H477.956V72.958H475.832V71.068H470.774V69.844H469.082V71.068H463.916V72.094H469.082V72.958H462.044V74.164H469.082V75.046H463.7V76.108H469.082V76.936H463.268V78.016H469.082V78.88H462.026V80.086H477.974V78.88H470.774Z" fill="white"/>
<rect x="401.5" y="57.5" width="101" height="40" rx="20" stroke="#B3B3B3"/>
<rect x="519.5" y="57.5" width="248" height="40" rx="20" fill="url(#paint0_linear_2452_29026)" fill-opacity="0.4"/>
<rect x="519.5" y="57.5" width="248" height="40" rx="20" stroke="url(#paint1_linear_2452_29026)"/>
<rect x="545.5" y="0.5" width="308" height="40" rx="20" fill="url(#paint2_linear_2452_29026)" fill-opacity="0.4"/>
<rect x="545.5" y="0.5" width="308" height="40" rx="20" stroke="url(#paint3_linear_2452_29026)"/>
<rect x="0.5" y="0.5" width="162" height="40" rx="20" fill="#777777" fill-opacity="0.7"/>
<g clip-path="url(#clip1_2452_29026)">
<path fill-rule="evenodd" clip-rule="evenodd" d="M24 20.567C24 26.533 28.333 31.494 34 32.5V23.833H31V20.5H34V17.833C34 14.833 35.933 13.167 38.667 13.167C39.533 13.167 40.467 13.3 41.333 13.433V16.5H39.8C38.333 16.5 38 17.233 38 18.167V20.5H41.2L40.667 23.833H38V32.5C43.667 31.494 48 26.534 48 20.567C48 13.93 42.6 8.5 36 8.5C29.4 8.5 24 13.93 24 20.567Z" fill="white"/>
</g>
<path d="M57.746 28H59.834V22.294H64.73V20.548H59.834V16.498H65.594V14.734H57.746V28ZM69.3982 28.234C70.5862 28.234 71.6482 27.64 72.5482 26.866H72.6202L72.7822 28H74.4742V22.042C74.4742 19.414 73.3402 17.848 70.8742 17.848C69.2902 17.848 67.9042 18.496 66.8782 19.144L67.6522 20.548C68.4982 20.008 69.4702 19.54 70.5142 19.54C71.9722 19.54 72.3862 20.548 72.4042 21.7C68.2822 22.15 66.4822 23.248 66.4822 25.372C66.4822 27.118 67.6882 28.234 69.3982 28.234ZM70.0282 26.596C69.1462 26.596 68.4802 26.2 68.4802 25.228C68.4802 24.112 69.4702 23.356 72.4042 23.014V25.444C71.5942 26.182 70.8922 26.596 70.0282 26.596ZM81.4437 28.234C82.5777 28.234 83.7477 27.82 84.6657 27.01L83.8017 25.642C83.2077 26.146 82.4697 26.542 81.6417 26.542C80.0037 26.542 78.8517 25.156 78.8517 23.05C78.8517 20.962 80.0397 19.558 81.7137 19.558C82.3797 19.558 82.9377 19.846 83.4777 20.332L84.5037 18.982C83.7837 18.352 82.8657 17.848 81.6057 17.848C78.9957 17.848 76.7097 19.756 76.7097 23.05C76.7097 26.344 78.7617 28.234 81.4437 28.234ZM90.3579 28.234C91.6539 28.234 92.7879 27.802 93.7059 27.19L92.9859 25.876C92.2659 26.344 91.5099 26.614 90.6279 26.614C88.9179 26.614 87.7299 25.48 87.5679 23.59H93.9939C94.0479 23.338 94.1019 22.942 94.1019 22.528C94.1019 19.738 92.6799 17.848 90.0519 17.848C87.7479 17.848 85.5339 19.846 85.5339 23.05C85.5339 26.326 87.6759 28.234 90.3579 28.234ZM87.5499 22.15C87.7479 20.422 88.8459 19.468 90.0879 19.468C91.5279 19.468 92.3019 20.458 92.3019 22.15H87.5499ZM101.022 28.234C103.254 28.234 105.288 26.29 105.288 22.888C105.288 19.846 103.866 17.848 101.364 17.848C100.32 17.848 99.2577 18.406 98.4117 19.144L98.4837 17.452V13.654H96.4137V28H98.0337L98.2317 26.974H98.2857C99.1317 27.766 100.122 28.234 101.022 28.234ZM100.626 26.524C100.014 26.524 99.2397 26.29 98.4837 25.624V20.782C99.2937 19.972 100.05 19.576 100.824 19.576C102.48 19.576 103.146 20.854 103.146 22.924C103.146 25.246 102.066 26.524 100.626 26.524ZM111.694 28.234C114.142 28.234 116.356 26.344 116.356 23.05C116.356 19.756 114.142 17.848 111.694 17.848C109.246 17.848 107.032 19.756 107.032 23.05C107.032 26.344 109.246 28.234 111.694 28.234ZM111.694 26.542C110.146 26.542 109.174 25.156 109.174 23.05C109.174 20.962 110.146 19.558 111.694 19.558C113.26 19.558 114.232 20.962 114.232 23.05C114.232 25.156 113.26 26.542 111.694 26.542ZM122.751 28.234C125.199 28.234 127.413 26.344 127.413 23.05C127.413 19.756 125.199 17.848 122.751 17.848C120.303 17.848 118.089 19.756 118.089 23.05C118.089 26.344 120.303 28.234 122.751 28.234ZM122.751 26.542C121.203 26.542 120.231 25.156 120.231 23.05C120.231 20.962 121.203 19.558 122.751 19.558C124.317 19.558 125.289 20.962 125.289 23.05C125.289 25.156 124.317 26.542 122.751 26.542ZM129.847 28H131.881V25.426L133.537 23.518L136.219 28H138.469L134.743 22.132L138.091 18.1H135.787L131.953 22.888H131.881V13.654H129.847V28Z" fill="white"/>
<rect x="0.5" y="0.5" width="162" height="40" rx="20" stroke="#B3B3B3"/>
<rect x="179.5" y="0.5" width="166" height="40" rx="20" fill="#777777" fill-opacity="0.7"/>
<path d="M214.997 16.8343C212.979 16.8343 211.332 18.4815 211.332 20.5C211.332 22.5185 212.979 24.1657 214.997 24.1657C217.016 24.1657 218.663 22.5185 218.663 20.5C218.663 18.4815 217.016 16.8343 214.997 16.8343ZM225.991 20.5C225.991 18.982 226.005 17.4778 225.92 15.9626C225.835 14.2026 225.433 12.6406 224.146 11.3537C222.856 10.0639 221.297 9.66519 219.537 9.57995C218.019 9.4947 216.515 9.50845 215 9.50845C213.482 9.50845 211.978 9.4947 210.463 9.57995C208.703 9.66519 207.141 10.0667 205.854 11.3537C204.564 12.6434 204.165 14.2026 204.08 15.9626C203.995 17.4806 204.009 18.9848 204.009 20.5C204.009 22.0152 203.995 23.5222 204.08 25.0374C204.165 26.7974 204.567 28.3594 205.854 29.6463C207.144 30.9361 208.703 31.3348 210.463 31.42C211.981 31.5053 213.485 31.4915 215 31.4915C216.518 31.4915 218.022 31.5053 219.537 31.42C221.297 31.3348 222.859 30.9333 224.146 29.6463C225.436 28.3566 225.835 26.7974 225.92 25.0374C226.008 23.5222 225.991 22.018 225.991 20.5ZM214.997 26.1401C211.876 26.1401 209.357 23.6212 209.357 20.5C209.357 17.3788 211.876 14.8598 214.997 14.8598C218.118 14.8598 220.637 17.3788 220.637 20.5C220.637 23.6212 218.118 26.1401 214.997 26.1401ZM220.868 15.9461C220.14 15.9461 219.551 15.3576 219.551 14.6289C219.551 13.9001 220.14 13.3116 220.868 13.3116C221.597 13.3116 222.185 13.9001 222.185 14.6289C222.186 14.8019 222.152 14.9733 222.086 15.1332C222.02 15.2931 221.922 15.4384 221.8 15.5608C221.678 15.6831 221.532 15.7801 221.373 15.8463C221.213 15.9124 221.041 15.9463 220.868 15.9461Z" fill="white"/>
<path d="M236.746 28H238.834V14.734H236.746V28ZM242.121 28H244.191V20.98C245.055 20.098 245.685 19.63 246.603 19.63C247.773 19.63 248.277 20.314 248.277 22.024V28H250.347V21.772C250.347 19.252 249.411 17.848 247.305 17.848C245.955 17.848 244.947 18.586 244.029 19.468H243.975L243.813 18.1H242.121V28ZM256.035 28.234C258.483 28.234 259.797 26.884 259.797 25.228C259.797 23.356 258.267 22.744 256.881 22.222C255.801 21.826 254.829 21.502 254.829 20.656C254.829 19.972 255.333 19.432 256.431 19.432C257.241 19.432 257.943 19.792 258.627 20.296L259.599 19.018C258.807 18.388 257.709 17.848 256.395 17.848C254.199 17.848 252.867 19.09 252.867 20.746C252.867 22.42 254.325 23.122 255.657 23.626C256.719 24.04 257.835 24.436 257.835 25.336C257.835 26.092 257.277 26.668 256.089 26.668C255.027 26.668 254.163 26.218 253.281 25.534L252.309 26.866C253.281 27.658 254.667 28.234 256.035 28.234ZM264.927 28.234C265.647 28.234 266.313 28.054 266.871 27.874L266.493 26.344C266.205 26.47 265.773 26.578 265.431 26.578C264.405 26.578 263.991 25.966 263.991 24.778V19.756H266.565V18.1H263.991V15.364H262.263L262.029 18.1L260.481 18.208V19.756H261.921V24.76C261.921 26.848 262.695 28.234 264.927 28.234ZM270.635 28.234C271.823 28.234 272.885 27.64 273.785 26.866H273.857L274.019 28H275.711V22.042C275.711 19.414 274.577 17.848 272.111 17.848C270.527 17.848 269.141 18.496 268.115 19.144L268.889 20.548C269.735 20.008 270.707 19.54 271.751 19.54C273.209 19.54 273.623 20.548 273.641 21.7C269.519 22.15 267.719 23.248 267.719 25.372C267.719 27.118 268.925 28.234 270.635 28.234ZM271.265 26.596C270.383 26.596 269.717 26.2 269.717 25.228C269.717 24.112 270.707 23.356 273.641 23.014V25.444C272.831 26.182 272.129 26.596 271.265 26.596ZM282.032 32.446C285.2 32.446 287.216 30.898 287.216 28.99C287.216 27.298 285.992 26.578 283.652 26.578H281.834C280.574 26.578 280.178 26.2 280.178 25.606C280.178 25.12 280.394 24.85 280.718 24.562C281.15 24.76 281.654 24.868 282.104 24.868C284.174 24.868 285.812 23.626 285.812 21.466C285.812 20.71 285.542 20.044 285.164 19.648H287.054V18.1H283.544C283.166 17.956 282.662 17.848 282.104 17.848C280.052 17.848 278.27 19.162 278.27 21.394C278.27 22.582 278.9 23.518 279.584 24.04V24.112C279.026 24.508 278.468 25.174 278.468 25.948C278.468 26.758 278.864 27.28 279.368 27.586V27.676C278.45 28.234 277.928 29.008 277.928 29.836C277.928 31.564 279.656 32.446 282.032 32.446ZM282.104 23.536C281.078 23.536 280.232 22.726 280.232 21.394C280.232 20.062 281.06 19.306 282.104 19.306C283.148 19.306 283.976 20.08 283.976 21.394C283.976 22.726 283.13 23.536 282.104 23.536ZM282.338 31.078C280.7 31.078 279.692 30.502 279.692 29.53C279.692 29.026 279.944 28.522 280.538 28.09C280.952 28.18 281.402 28.234 281.87 28.234H283.364C284.57 28.234 285.218 28.486 285.218 29.314C285.218 30.232 284.066 31.078 282.338 31.078ZM289.054 28H291.124V21.826C291.736 20.26 292.708 19.702 293.518 19.702C293.914 19.702 294.166 19.756 294.508 19.864L294.886 18.064C294.58 17.92 294.256 17.848 293.77 17.848C292.708 17.848 291.664 18.604 290.962 19.882H290.908L290.746 18.1H289.054V28ZM298.25 28.234C299.438 28.234 300.5 27.64 301.4 26.866H301.472L301.634 28H303.326V22.042C303.326 19.414 302.192 17.848 299.726 17.848C298.142 17.848 296.756 18.496 295.73 19.144L296.504 20.548C297.35 20.008 298.322 19.54 299.366 19.54C300.824 19.54 301.238 20.548 301.256 21.7C297.134 22.15 295.334 23.248 295.334 25.372C295.334 27.118 296.54 28.234 298.25 28.234ZM298.88 26.596C297.998 26.596 297.332 26.2 297.332 25.228C297.332 24.112 298.322 23.356 301.256 23.014V25.444C300.446 26.182 299.744 26.596 298.88 26.596ZM306.263 28H308.333V20.98C309.143 20.08 309.881 19.63 310.547 19.63C311.681 19.63 312.203 20.314 312.203 22.024V28H314.273V20.98C315.101 20.08 315.821 19.63 316.505 19.63C317.621 19.63 318.161 20.314 318.161 22.024V28H320.231V21.772C320.231 19.252 319.259 17.848 317.189 17.848C315.947 17.848 314.939 18.622 313.967 19.666C313.535 18.532 312.707 17.848 311.231 17.848C310.007 17.848 309.017 18.586 308.171 19.486H308.117L307.955 18.1H306.263V28Z" fill="white"/>
<rect x="179.5" y="0.5" width="166" height="40" rx="20" stroke="#B3B3B3"/>
<rect x="362.5" y="0.5" width="166" height="40" rx="20" fill="#777777" fill-opacity="0.7"/>
<g clip-path="url(#clip2_2452_29026)">
<path d="M408.205 14.0499C404.615 8.49982 397.285 6.8498 391.601 10.2998C386.066 13.7499 384.271 21.2499 387.861 26.8L388.16 27.25L386.964 31.75L391.451 30.55L391.9 30.85C393.845 31.9 395.939 32.5 398.033 32.5C400.277 32.5 402.521 31.9 404.465 30.7C410 27.1 411.646 19.7499 408.205 14.0499ZM405.064 25.5999C404.465 26.5 403.717 27.1 402.67 27.25C402.072 27.25 401.324 27.55 398.332 26.35C395.789 25.1499 393.695 23.1999 392.199 20.9499C391.302 19.8999 390.853 18.5499 390.703 17.1999C390.703 15.9999 391.152 14.9499 391.9 14.1999C392.199 13.8999 392.498 13.7499 392.798 13.7499H393.546C393.845 13.7499 394.144 13.7499 394.293 14.3499C394.593 15.0999 395.341 16.8999 395.341 17.0499C395.49 17.1999 395.49 17.4999 395.341 17.6499C395.49 17.9499 395.341 18.2499 395.191 18.3999C395.041 18.5499 394.892 18.8499 394.742 18.9999C394.443 19.1499 394.293 19.4499 394.443 19.7499C395.041 20.6499 395.789 21.5499 396.537 22.2999C397.435 23.0499 398.332 23.6499 399.379 24.0999C399.679 24.2499 399.978 24.2499 400.127 23.9499C400.277 23.6499 401.025 22.8999 401.324 22.5999C401.623 22.2999 401.773 22.2999 402.072 22.4499L404.465 23.6499C404.765 23.7999 405.064 23.9499 405.213 24.0999C405.363 24.5499 405.363 25.1499 405.064 25.5999Z" fill="white"/>
</g>
<path d="M421.114 28H423.634L425.38 20.638C425.596 19.594 425.812 18.604 426.01 17.596H426.082C426.262 18.604 426.46 19.594 426.694 20.638L428.476 28H431.05L433.66 14.734H431.662L430.402 21.646C430.186 23.032 429.952 24.454 429.736 25.894H429.646C429.34 24.454 429.052 23.032 428.746 21.646L427.036 14.734H425.182L423.472 21.646C423.166 23.05 422.86 24.472 422.572 25.894H422.5C422.266 24.472 422.032 23.05 421.798 21.646L420.556 14.734H418.414L421.114 28ZM435.65 28H437.72V20.98C438.584 20.098 439.214 19.63 440.132 19.63C441.302 19.63 441.806 20.314 441.806 22.024V28H443.876V21.772C443.876 19.252 442.94 17.848 440.834 17.848C439.484 17.848 438.494 18.586 437.63 19.414L437.72 17.452V13.654H435.65V28ZM449.17 28.234C450.358 28.234 451.42 27.64 452.32 26.866H452.392L452.554 28H454.246V22.042C454.246 19.414 453.112 17.848 450.646 17.848C449.062 17.848 447.676 18.496 446.65 19.144L447.424 20.548C448.27 20.008 449.242 19.54 450.286 19.54C451.744 19.54 452.158 20.548 452.176 21.7C448.054 22.15 446.254 23.248 446.254 25.372C446.254 27.118 447.46 28.234 449.17 28.234ZM449.8 26.596C448.918 26.596 448.252 26.2 448.252 25.228C448.252 24.112 449.242 23.356 452.176 23.014V25.444C451.366 26.182 450.664 26.596 449.8 26.596ZM460.214 28.234C460.934 28.234 461.6 28.054 462.158 27.874L461.78 26.344C461.492 26.47 461.06 26.578 460.718 26.578C459.692 26.578 459.278 25.966 459.278 24.778V19.756H461.852V18.1H459.278V15.364H457.55L457.316 18.1L455.768 18.208V19.756H457.208V24.76C457.208 26.848 457.982 28.234 460.214 28.234ZM466.51 28.234C468.958 28.234 470.272 26.884 470.272 25.228C470.272 23.356 468.742 22.744 467.356 22.222C466.276 21.826 465.304 21.502 465.304 20.656C465.304 19.972 465.808 19.432 466.906 19.432C467.716 19.432 468.418 19.792 469.102 20.296L470.074 19.018C469.282 18.388 468.184 17.848 466.87 17.848C464.674 17.848 463.342 19.09 463.342 20.746C463.342 22.42 464.8 23.122 466.132 23.626C467.194 24.04 468.31 24.436 468.31 25.336C468.31 26.092 467.752 26.668 466.564 26.668C465.502 26.668 464.638 26.218 463.756 25.534L462.784 26.866C463.756 27.658 465.142 28.234 466.51 28.234ZM475.194 20.8C475.626 19.36 476.04 17.902 476.418 16.39H476.508C476.904 17.884 477.3 19.36 477.75 20.8L478.272 22.582H474.654L475.194 20.8ZM470.91 28H473.034L474.168 24.22H478.776L479.892 28H482.106L477.714 14.734H475.302L470.91 28ZM483.673 32.014H485.743V28.81L485.671 27.118C486.517 27.838 487.399 28.234 488.281 28.234C490.513 28.234 492.547 26.29 492.547 22.888C492.547 19.846 491.143 17.848 488.641 17.848C487.525 17.848 486.445 18.46 485.581 19.18H485.527L485.365 18.1H483.673V32.014ZM487.885 26.524C487.273 26.524 486.517 26.29 485.743 25.624V20.782C486.571 19.972 487.309 19.576 488.083 19.576C489.739 19.576 490.405 20.854 490.405 22.924C490.405 25.246 489.325 26.524 487.885 26.524ZM495.011 32.014H497.081V28.81L497.009 27.118C497.855 27.838 498.737 28.234 499.619 28.234C501.851 28.234 503.885 26.29 503.885 22.888C503.885 19.846 502.481 17.848 499.979 17.848C498.863 17.848 497.783 18.46 496.919 19.18H496.865L496.703 18.1H495.011V32.014ZM499.223 26.524C498.611 26.524 497.855 26.29 497.081 25.624V20.782C497.909 19.972 498.647 19.576 499.421 19.576C501.077 19.576 501.743 20.854 501.743 22.924C501.743 25.246 500.663 26.524 499.223 26.524Z" fill="white"/>
<rect x="362.5" y="0.5" width="166" height="40" rx="20" stroke="#B3B3B3"/>
<rect x="91.5" y="97.5" width="91" height="40" rx="20" transform="rotate(-180 91.5 97.5)" fill="url(#paint4_linear_2452_29026)" fill-opacity="0.4"/>
<rect x="91.5" y="97.5" width="91" height="40" rx="20" transform="rotate(-180 91.5 97.5)" stroke="url(#paint5_linear_2452_29026)"/>
<defs>
<linearGradient id="paint0_linear_2452_29026" x1="519" y1="78" x2="768" y2="78" gradientUnits="userSpaceOnUse">
<stop stop-color="#777777" stop-opacity="0.7"/>
<stop offset="1" stop-color="#777777" stop-opacity="0"/>
</linearGradient>
<linearGradient id="paint1_linear_2452_29026" x1="522.469" y1="78" x2="768" y2="78" gradientUnits="userSpaceOnUse">
<stop stop-color="#B3B3B3"/>
<stop offset="1" stop-color="#B3B3B3" stop-opacity="0"/>
</linearGradient>
<linearGradient id="paint2_linear_2452_29026" x1="545" y1="21" x2="854" y2="21" gradientUnits="userSpaceOnUse">
<stop stop-color="#777777" stop-opacity="0.7"/>
<stop offset="1" stop-color="#777777" stop-opacity="0"/>
</linearGradient>
<linearGradient id="paint3_linear_2452_29026" x1="549.305" y1="21" x2="854" y2="21" gradientUnits="userSpaceOnUse">
<stop stop-color="#B3B3B3"/>
<stop offset="1" stop-color="#B3B3B3" stop-opacity="0"/>
</linearGradient>
<linearGradient id="paint4_linear_2452_29026" x1="92" y1="119" x2="184" y2="119" gradientUnits="userSpaceOnUse">
<stop stop-color="#777777" stop-opacity="0.7"/>
<stop offset="0.713542" stop-color="#777777" stop-opacity="0"/>
</linearGradient>
<linearGradient id="paint5_linear_2452_29026" x1="93.2817" y1="119" x2="184" y2="119" gradientUnits="userSpaceOnUse">
<stop stop-color="#B3B3B3"/>
<stop offset="0.713542" stop-color="#B3B3B3" stop-opacity="0"/>
</linearGradient>
<clipPath id="clip0_2452_29026">
<rect width="24" height="24" fill="white" transform="translate(132 65.5)"/>
</clipPath>
<clipPath id="clip1_2452_29026">
<rect width="24" height="24" fill="white" transform="translate(24 8.5)"/>
</clipPath>
<clipPath id="clip2_2452_29026">
<rect width="24" height="24" fill="white" transform="translate(386 8.5)"/>
</clipPath>
</defs>
</svg>
