<svg width="137" height="32" viewBox="0 0 137 32" fill="none" xmlns="http://www.w3.org/2000/svg">
<path d="M30.1055 23.9313V24.9131L30.9995 25.4021L31.8936 24.9131V23.9313L30.9995 23.4423L30.1055 23.9313Z" fill="#FFAB37"/>
<path d="M26.7464 0C21.2316 0 16.0689 2.56541 12.9238 6.87621C5.62875 7.03044 -0.155073 12.7782 0.00317121 19.7146C0.161415 26.5569 6.05206 32.0188 13.2482 32C13.3352 32 13.4183 32 13.5014 31.9924V32H27.0115C36.3044 31.9285 43.7775 24.7062 43.7023 15.8702C43.6311 7.03796 36.0354 -0.0677088 26.7425 0.0037616L26.7464 0ZM11.6381 23.4273L8.00637 22.3326L15.341 10.3933L18.9727 11.4879L11.6381 23.4273ZM14.4153 22.3326L21.7499 10.3933L25.3816 11.4879L18.047 23.4273L14.4153 22.3326ZM33.3927 25.7331L30.9953 27.0497L28.5979 25.7331V23.1L29.9944 22.3326V14.4069L24.4559 23.4235L20.8242 22.3289L28.1588 10.3895L31.7905 11.4842H32.0002V22.3326L33.3967 23.1V25.7331H33.3927Z" fill="#FFAB37"/>
<path d="M50.6729 9.59998H54.9969L56.6624 16.7621L58.3161 9.59998H62.6362V21.3663H59.9421V12.3911L57.8691 21.3663H55.4321L53.3631 12.3911V21.3663H50.6689V9.59998H50.6729Z" fill="#FFAB37"/>
<path d="M67.2335 15.6035L64.4088 15.2724C64.5156 14.727 64.6699 14.2982 64.8677 13.9822C65.0655 13.6662 65.3583 13.3992 65.7341 13.166C66.0071 13.0004 66.3789 12.8725 66.8537 12.7823C67.3284 12.692 67.8387 12.6469 68.3926 12.6469C69.2788 12.6469 69.9909 12.7033 70.5249 12.8124C71.063 12.9214 71.51 13.1509 71.8661 13.497C72.1192 13.7377 72.3171 14.08 72.4595 14.5201C72.6058 14.9602 72.6771 15.3815 72.6771 15.784V19.5494C72.6771 19.9519 72.7008 20.2641 72.7443 20.4936C72.7878 20.723 72.8907 21.0127 73.045 21.3662H70.2717C70.161 21.1481 70.0898 20.9788 70.0542 20.866C70.0186 20.7493 69.9869 20.5688 69.9513 20.3243C69.5636 20.7381 69.1799 21.0315 68.7961 21.2083C68.2739 21.4452 67.6647 21.5618 66.9763 21.5618C66.0585 21.5618 65.3583 21.3249 64.8835 20.8547C64.4088 20.3845 64.1675 19.8014 64.1675 19.113C64.1675 18.466 64.3376 17.9319 64.6818 17.5144C65.026 17.0968 65.6589 16.7884 66.5847 16.5815C67.6924 16.337 68.4124 16.1639 68.7407 16.0624C69.0691 15.9608 69.4172 15.8329 69.7851 15.6749C69.7851 15.2724 69.71 14.9941 69.5597 14.8323C69.4093 14.6706 69.1443 14.5916 68.7684 14.5916C68.2858 14.5916 67.9218 14.6781 67.6805 14.8474C67.4906 14.9828 67.3403 15.2311 67.2216 15.6035H67.2335ZM69.797 17.3225C69.3895 17.4843 68.9662 17.6235 68.5271 17.7476C67.9258 17.9244 67.546 18.0974 67.3877 18.2704C67.2216 18.4472 67.1425 18.6466 67.1425 18.8723C67.1425 19.1281 67.2216 19.3387 67.3838 19.5005C67.546 19.6622 67.7834 19.745 68.0998 19.745C68.4163 19.745 68.7328 19.6585 69.0177 19.4817C69.3025 19.3049 69.5003 19.0905 69.619 18.8347C69.7377 18.5789 69.797 18.2516 69.797 17.8416V17.3188V17.3225Z" fill="#FFAB37"/>
<path d="M73.9337 19.0002L76.8652 18.6955C76.9878 19.0792 77.154 19.3575 77.3716 19.5231C77.5891 19.6886 77.8779 19.7713 78.2419 19.7713C78.6375 19.7713 78.9461 19.6773 79.1637 19.4892C79.3338 19.35 79.4169 19.177 79.4169 18.9663C79.4169 18.7331 79.3061 18.5488 79.0845 18.4209C78.9263 18.3306 78.503 18.2178 77.8146 18.0861C76.79 17.8868 76.0779 17.7062 75.6783 17.5369C75.2788 17.3677 74.9425 17.0855 74.6695 16.683C74.3966 16.2806 74.2581 15.8254 74.2581 15.3101C74.2581 14.7496 74.4045 14.2643 74.7012 13.8581C74.9979 13.4518 75.4014 13.1471 75.9197 12.9478C76.4379 12.7484 77.1302 12.6469 78.0006 12.6469C78.9184 12.6469 79.5988 12.7258 80.038 12.8801C80.4771 13.0343 80.8411 13.275 81.1338 13.6023C81.4266 13.9296 81.6679 14.3697 81.8617 14.9264L79.0608 15.2311C78.9896 14.9565 78.867 14.7571 78.6968 14.6292C78.4634 14.4599 78.1825 14.3734 77.8542 14.3734C77.5258 14.3734 77.2766 14.4374 77.1263 14.569C76.972 14.7007 76.8968 14.8587 76.8968 15.0468C76.8968 15.2536 76.9918 15.4116 77.1856 15.5207C77.3795 15.626 77.7988 15.7238 78.4476 15.8104C79.4287 15.9345 80.1606 16.1038 80.6393 16.3219C81.118 16.5401 81.4859 16.8523 81.7391 17.2586C81.9923 17.6648 82.1189 18.1125 82.1189 18.5977C82.1189 19.083 81.9844 19.5682 81.7154 20.0346C81.4463 20.5011 81.023 20.8697 80.4454 21.1443C79.8678 21.4189 79.0806 21.5581 78.0836 21.5581C76.6753 21.5581 75.6744 21.3362 75.077 20.8923C74.4796 20.4484 74.0959 19.8165 73.9258 18.9964L73.9337 19.0002Z" fill="#FFAB37"/>
<path d="M87.0964 9.59998V12.8425H88.7224V15.2349H87.0964V18.2554C87.0964 18.6203 87.1281 18.8573 87.1914 18.9776C87.2863 19.1582 87.4564 19.2485 87.6977 19.2485C87.9153 19.2485 88.2199 19.1808 88.6116 19.0416L88.8292 21.2986C88.0973 21.4754 87.4169 21.5619 86.7839 21.5619C86.048 21.5619 85.5061 21.4565 85.1579 21.2497C84.8098 21.0428 84.5526 20.723 84.3865 20.298C84.2203 19.8729 84.1372 19.1845 84.1372 18.2329V15.2349H83.0493V12.8425H84.1372V11.2777L87.1004 9.59998H87.0964Z" fill="#FFAB37"/>
<path d="M98.6882 17.9168H92.7659C92.8173 18.4397 92.9478 18.8309 93.1496 19.0904C93.4344 19.4591 93.8063 19.6434 94.2692 19.6434C94.558 19.6434 94.8349 19.5644 95.096 19.4026C95.2543 19.3011 95.4283 19.1205 95.6103 18.8647L98.522 19.1619C98.075 20.0196 97.5409 20.6327 96.9119 21.0051C96.2828 21.3775 95.3809 21.5618 94.2059 21.5618C93.1852 21.5618 92.3821 21.4038 91.7966 21.0841C91.2111 20.7643 90.7245 20.2603 90.3408 19.5682C89.957 18.876 89.7632 18.0598 89.7632 17.1231C89.7632 15.7915 90.1509 14.7119 90.9223 13.8881C91.6938 13.0643 92.758 12.6506 94.1189 12.6506C95.2226 12.6506 96.093 12.8349 96.7299 13.2035C97.3668 13.5722 97.8534 14.1063 98.1897 14.8097C98.522 15.5094 98.6921 16.4235 98.6921 17.5482V17.9168H98.6882ZM95.6855 16.352C95.6261 15.72 95.4758 15.2686 95.2266 14.9941C94.9773 14.7195 94.649 14.584 94.2415 14.584C93.7707 14.584 93.3988 14.7909 93.118 15.2009C92.9399 15.4567 92.8252 15.8404 92.7777 16.3482H95.6894L95.6855 16.352Z" fill="#FFAB37"/>
<path d="M100.073 12.8425H102.839V14.238C103.104 13.6324 103.381 13.2186 103.661 12.9892C103.946 12.7635 104.294 12.6469 104.71 12.6469C105.125 12.6469 105.62 12.7973 106.138 13.0945L105.224 15.4229C104.876 15.2612 104.599 15.1822 104.397 15.1822C104.01 15.1822 103.709 15.359 103.499 15.7126C103.195 16.2091 103.04 17.142 103.04 18.5074V21.3662H100.073V12.8425Z" fill="#FFAB37"/>
<path d="M106.845 9.59998H113.001C114.026 9.59998 114.813 9.8821 115.363 10.4426C115.913 11.0031 116.186 11.6989 116.186 12.5303C116.186 13.2262 115.988 13.8243 115.596 14.3208C115.335 14.6518 114.951 14.9151 114.449 15.107C115.212 15.3101 115.774 15.6599 116.134 16.1564C116.494 16.653 116.676 17.2736 116.676 18.0222C116.676 18.6316 116.55 19.1808 116.292 19.666C116.035 20.1513 115.687 20.5387 115.24 20.8208C114.963 20.9976 114.548 21.1255 113.994 21.2045C113.254 21.3098 112.764 21.3663 112.522 21.3663H106.849V9.59998H106.845ZM110.16 14.2155H111.589C112.103 14.2155 112.459 14.1177 112.661 13.9221C112.862 13.7265 112.961 13.4443 112.961 13.0757C112.961 12.7334 112.862 12.4663 112.661 12.2745C112.459 12.0826 112.111 11.9848 111.612 11.9848H110.16V14.2155ZM110.16 18.8385H111.838C112.404 18.8385 112.803 18.7294 113.037 18.5037C113.27 18.2818 113.385 17.9846 113.385 17.6084C113.385 17.2624 113.27 16.9802 113.04 16.7696C112.811 16.5589 112.407 16.4536 111.834 16.4536H110.164V18.8385H110.16Z" fill="#FFAB37"/>
<path d="M117.84 17.1306C117.84 15.8291 118.235 14.7571 119.031 13.9145C119.826 13.0719 120.894 12.6506 122.247 12.6506C123.79 12.6506 124.957 13.1471 125.744 14.1364C126.377 14.9339 126.694 15.9156 126.694 17.0817C126.694 18.3945 126.302 19.4666 125.515 20.3054C124.727 21.1443 123.64 21.5618 122.251 21.5618C121.013 21.5618 120.012 21.2157 119.248 20.5198C118.311 19.6584 117.84 18.53 117.84 17.1306ZM120.799 17.1231C120.799 17.883 120.937 18.4434 121.214 18.8083C121.491 19.1732 121.843 19.3537 122.263 19.3537C122.682 19.3537 123.038 19.1732 123.311 18.8158C123.584 18.4585 123.723 17.883 123.723 17.0893C123.723 16.352 123.584 15.799 123.307 15.4379C123.03 15.0768 122.69 14.8962 122.283 14.8962C121.851 14.8962 121.495 15.0806 121.214 15.4454C120.934 15.8103 120.795 16.3708 120.795 17.1194L120.799 17.1231Z" fill="#FFAB37"/>
<path d="M126.933 12.8426H130.439L131.661 15.2199L133.085 12.8426H136.345L133.714 16.9051L136.531 21.3664H133.085L131.661 18.6204L129.988 21.3664H126.787L129.588 16.9051L126.933 12.8426Z" fill="#FFAB37"/>
</svg>
