<svg width="293" height="1167" viewBox="0 0 293 1167" fill="none" xmlns="http://www.w3.org/2000/svg">
<g filter="url(#filter0_d_3763_46086)">
<rect x="8" y="6" width="277" height="1151" rx="16" fill="white"/>
<path d="M34.328 80H37.112V72.392H43.64V70.064H37.112V64.664H44.792V62.312H34.328V80ZM47.1427 80H49.9027V71.768C50.7187 69.68 52.0147 68.936 53.0947 68.936C53.6227 68.936 53.9587 69.008 54.4147 69.152L54.9187 66.752C54.5107 66.56 54.0787 66.464 53.4307 66.464C52.0147 66.464 50.6227 67.472 49.6867 69.176H49.6147L49.3987 66.8H47.1427V80ZM62.2012 80.312C63.9292 80.312 65.4412 79.736 66.6652 78.92L65.7052 77.168C64.7452 77.792 63.7372 78.152 62.5612 78.152C60.2812 78.152 58.6972 76.64 58.4812 74.12H67.0492C67.1212 73.784 67.1932 73.256 67.1932 72.704C67.1932 68.984 65.2972 66.464 61.7932 66.464C58.7212 66.464 55.7692 69.128 55.7692 73.4C55.7692 77.768 58.6252 80.312 62.2012 80.312ZM58.4572 72.2C58.7212 69.896 60.1852 68.624 61.8412 68.624C63.7612 68.624 64.7932 69.944 64.7932 72.2H58.4572ZM75.7715 80.312C77.4995 80.312 79.0115 79.736 80.2355 78.92L79.2755 77.168C78.3155 77.792 77.3075 78.152 76.1315 78.152C73.8515 78.152 72.2675 76.64 72.0515 74.12H80.6195C80.6915 73.784 80.7635 73.256 80.7635 72.704C80.7635 68.984 78.8675 66.464 75.3635 66.464C72.2915 66.464 69.3395 69.128 69.3395 73.4C69.3395 77.768 72.1955 80.312 75.7715 80.312ZM72.0275 72.2C72.2915 69.896 73.7555 68.624 75.4115 68.624C77.3315 68.624 78.3635 69.944 78.3635 72.2H72.0275Z" fill="black"/>
<g filter="url(#filter1_i_3763_46086)">
<rect width="229" height="36" transform="translate(32 173)" fill="white"/>
<path fill-rule="evenodd" clip-rule="evenodd" d="M49.2022 180.252C49.5807 180.605 49.6011 181.199 49.2479 181.577L40.4979 190.952C40.3244 191.138 40.0829 191.245 39.8287 191.25C39.5744 191.254 39.3294 191.155 39.1496 190.975L34.7746 186.6C34.4085 186.234 34.4085 185.641 34.7746 185.275C35.1407 184.908 35.7343 184.908 36.1004 185.275L39.7892 188.963L47.8771 180.298C48.2304 179.919 48.8237 179.899 49.2022 180.252Z" fill="#FFAB37"/>
<path d="M63.856 180.128H72.144V184.096H73.328V179.232H62.72V184.096H63.856V180.128ZM71.44 181.088H64.56V181.888H71.44V181.088ZM64.56 183.664H71.408V182.864H64.56V183.664ZM66.272 186.768H63.392V185.728H66.272V186.768ZM63.392 189.616H66.272V190.624C65.28 190.736 64.304 190.832 63.392 190.928V189.616ZM66.272 188.72H63.392V187.648H66.272V188.72ZM74.976 185.728V184.736H60.96V185.728H62.288V191.024C61.728 191.088 61.216 191.136 60.768 191.168L60.896 192.208C62.352 192.048 64.304 191.808 66.272 191.584V193.216H67.424V185.728H74.976ZM73.008 187.664C72.592 188.576 71.984 189.376 71.28 190.064C70.592 189.376 70.032 188.56 69.664 187.664H73.008ZM73.728 186.688L73.52 186.72H67.856V187.664H69.36L68.672 187.872C69.104 188.96 69.712 189.92 70.48 190.736C69.552 191.424 68.512 191.936 67.456 192.256C67.68 192.464 67.968 192.912 68.112 193.168C69.232 192.784 70.32 192.224 71.28 191.488C72.208 192.256 73.312 192.832 74.576 193.2C74.72 192.928 75.04 192.496 75.28 192.272C74.064 191.968 72.992 191.456 72.096 190.768C73.12 189.776 73.952 188.512 74.448 186.976L73.728 186.688ZM86.88 180.96C86.176 181.888 85.216 182.72 84.128 183.44C83.472 182.864 82.336 182.176 81.296 181.648C81.648 181.424 81.984 181.2 82.304 180.96H86.88ZM87.84 179.888L87.632 179.952H83.536C83.92 179.6 84.272 179.248 84.592 178.88L83.264 178.592C82.16 179.92 80.08 181.424 77.216 182.432C77.472 182.624 77.856 183.024 78.032 183.312C78.848 182.976 79.6 182.624 80.304 182.24C81.296 182.752 82.416 183.456 83.104 184.048C81.248 185.072 79.088 185.808 77.088 186.176C77.312 186.432 77.552 186.896 77.664 187.216C81.856 186.304 86.544 184.064 88.592 180.368L87.84 179.888ZM89.296 186.528C88.592 187.744 87.568 188.736 86.352 189.536C85.632 188.88 84.4 188.048 83.296 187.44C83.792 187.136 84.272 186.848 84.704 186.528H89.296ZM90.176 185.456L89.952 185.504H85.984C86.416 185.12 86.8 184.72 87.152 184.32L85.84 184.016C84.592 185.536 82.176 187.184 78.832 188.24C79.072 188.448 79.408 188.88 79.552 189.136C80.512 188.8 81.408 188.416 82.224 188.016C83.328 188.608 84.544 189.472 85.296 190.16C83.248 191.232 80.784 191.872 78.288 192.176C78.48 192.432 78.72 192.944 78.816 193.248C83.984 192.496 88.944 190.512 90.944 185.888L90.176 185.456ZM103.648 185.84C102.816 187.392 101.584 188.608 100.064 189.568C98.56 188.592 97.408 187.344 96.608 185.84H103.648ZM104.56 184.624L104.32 184.672H100.576V182.224H106.672V181.056H100.576V178.624H99.36V181.056H93.296V182.224H99.36V184.672H94.016V185.84H95.712L95.36 185.968C96.224 187.696 97.408 189.104 98.928 190.208C97.072 191.136 94.912 191.728 92.64 192.096C92.864 192.368 93.184 192.912 93.296 193.232C95.712 192.768 98.032 192.048 100.016 190.944C101.824 192.032 104.048 192.752 106.624 193.152C106.784 192.8 107.104 192.288 107.36 192C104.976 191.712 102.912 191.104 101.168 190.208C103.008 188.96 104.464 187.312 105.376 185.136L104.56 184.624ZM121.744 178.72C119.888 179.136 116.512 179.408 113.744 179.504C113.856 179.776 114 180.16 114.032 180.432C116.832 180.352 120.272 180.096 122.448 179.616L121.744 178.72ZM118.752 182.496C118.656 181.968 118.464 181.072 118.256 180.384L117.312 180.544C117.488 181.248 117.68 182.176 117.728 182.72L118.752 182.496ZM113.664 186.992L113.504 185.92L111.84 186.448V182.928H113.536V181.824H111.84V178.624H110.72V181.824H108.736V182.928H110.72V186.8C109.92 187.04 109.2 187.264 108.608 187.424L108.8 188.576C109.392 188.4 110.032 188.192 110.72 187.968V191.84C110.72 192.08 110.64 192.128 110.448 192.128C110.272 192.144 109.632 192.144 108.944 192.128C109.104 192.464 109.248 192.944 109.296 193.232C110.304 193.248 110.912 193.2 111.28 193.008C111.68 192.816 111.84 192.496 111.84 191.84V187.6L113.664 186.992ZM114.448 180.88C114.752 181.52 115.056 182.368 115.2 182.912L116.176 182.576C116.032 182.08 115.664 181.248 115.376 180.64L114.448 180.88ZM120.704 188.16C120.304 189.104 119.728 189.872 119.008 190.48C118.112 189.84 117.392 189.056 116.88 188.16H120.704ZM121.424 187.2L121.216 187.232H116.736C116.816 186.88 116.896 186.512 116.944 186.16H123.184V185.152H117.104C117.152 184.72 117.2 184.288 117.232 183.888H122.72V182.912H120.784C121.28 182.224 121.808 181.36 122.256 180.592L121.136 180.224C120.784 181.024 120.176 182.128 119.664 182.912H113.984V183.888H116.08C116.048 184.288 116 184.72 115.952 185.152H113.616V186.16H115.792C115.408 188.48 114.544 190.96 112.256 192.384C112.528 192.56 112.896 192.944 113.072 193.216C114.656 192.176 115.6 190.672 116.224 189.04C116.72 189.84 117.36 190.528 118.096 191.12C117.152 191.696 116.048 192.096 114.832 192.368C115.056 192.544 115.376 193.008 115.504 193.248C116.784 192.928 117.968 192.464 118.992 191.76C120.064 192.464 121.328 192.96 122.736 193.264C122.896 192.96 123.2 192.496 123.456 192.256C122.144 192.016 120.928 191.616 119.904 191.04C120.864 190.144 121.616 188.992 122.096 187.488L121.424 187.2ZM128.224 192.208C130.304 192.208 131.984 190.96 131.984 188.864C131.984 187.264 130.88 186.208 129.504 185.888V185.824C130.736 185.36 131.584 184.416 131.584 182.992C131.584 181.136 130.144 180.048 128.176 180.048C126.816 180.048 125.776 180.64 124.896 181.456L125.68 182.384C126.336 181.712 127.168 181.248 128.112 181.248C129.328 181.248 130.096 181.984 130.096 183.104C130.096 184.368 129.264 185.344 126.848 185.344V186.464C129.552 186.464 130.496 187.408 130.496 188.8C130.496 190.16 129.504 190.992 128.112 190.992C126.784 190.992 125.888 190.368 125.2 189.648L124.464 190.608C125.232 191.44 126.384 192.208 128.224 192.208ZM143.899 180.976C143.755 180.32 143.387 179.296 143.099 178.496L141.979 178.784C142.283 179.584 142.603 180.656 142.731 181.328L143.899 180.976ZM147.419 181.504H138.795V182.656H147.419V181.504ZM142.091 190.352C141.915 188.72 141.435 185.856 140.907 183.632L139.835 183.872C140.331 186.096 140.795 189.024 140.923 190.688L142.091 190.352ZM137.483 178.672C136.603 181.104 135.115 183.488 133.547 185.024C133.771 185.296 134.107 185.904 134.219 186.192C134.763 185.616 135.307 184.976 135.803 184.256V193.2H136.987V182.4C137.611 181.312 138.171 180.176 138.603 179.008L137.483 178.672ZM144.811 191.424C145.387 189.296 146.043 186.176 146.459 183.728L145.227 183.504C144.923 185.888 144.283 189.28 143.707 191.424H138.123V192.576H148.075V191.424H144.811Z" fill="black"/>
</g>
<g filter="url(#filter2_i_3763_46086)">
<rect width="229" height="36" transform="translate(32 221)" fill="white"/>
<path fill-rule="evenodd" clip-rule="evenodd" d="M49.2022 228.252C49.5807 228.605 49.6011 229.199 49.2479 229.577L40.4979 238.952C40.3244 239.138 40.0829 239.245 39.8287 239.25C39.5744 239.254 39.3294 239.155 39.1496 238.975L34.7746 234.6C34.4085 234.234 34.4085 233.641 34.7746 233.275C35.1407 232.908 35.7343 232.908 36.1004 233.275L39.7892 236.963L47.8771 228.298C48.2304 227.919 48.8237 227.899 49.2022 228.252Z" fill="#FFAB37"/>
<path d="M74.736 229.296V228.224H64.88C65.12 227.776 65.328 227.312 65.536 226.864L64.368 226.528C63.536 228.544 62.16 230.592 60.688 231.872C60.992 232.048 61.488 232.384 61.744 232.576C62.608 231.712 63.488 230.56 64.272 229.296H74.736ZM69.024 238.096L69.568 237.504C68.928 236.848 67.616 236.016 66.528 235.504L65.856 236.16C66.88 236.688 68.048 237.472 68.72 238.096H63.776C63.904 237.328 64.048 236.432 64.176 235.504H71.84C71.776 236.592 71.712 237.44 71.648 238.096H69.024ZM71.984 231.968C71.952 232.912 71.92 233.728 71.888 234.48H69.152L69.84 233.776C69.2 233.2 67.968 232.464 66.928 232.016L66.256 232.688C67.296 233.136 68.48 233.904 69.104 234.48H64.304C64.432 233.632 64.544 232.784 64.656 231.968H71.984ZM75.28 235.536V234.448H73.04C73.072 233.584 73.12 232.608 73.152 231.488C73.152 231.344 73.168 230.912 73.168 230.912H63.6C63.488 231.984 63.312 233.216 63.152 234.448H60.736V235.536H62.992C62.784 236.88 62.56 238.176 62.384 239.136H63.024V239.152H71.52C71.424 239.648 71.312 239.952 71.2 240.08C71.04 240.272 70.896 240.304 70.608 240.304C70.304 240.32 69.568 240.304 68.752 240.24C68.912 240.512 69.04 240.912 69.056 241.184C69.84 241.232 70.64 241.248 71.104 241.216C71.584 241.168 71.92 241.024 72.224 240.64C72.4 240.384 72.56 239.952 72.688 239.152H74.736V238.096H72.816C72.896 237.424 72.944 236.576 73.008 235.536H75.28ZM79.84 226.688C79.04 229.104 77.76 231.504 76.336 233.056C76.544 233.344 76.864 234 76.96 234.256C77.504 233.648 78.016 232.928 78.512 232.144V241.232H79.648V230.096C80.144 229.104 80.576 228.048 80.928 226.992L79.84 226.688ZM87.52 236.992H84.816V234.512H87.52V236.992ZM89.088 231.856V230.944H86.624V229.136H85.648V230.944H83.248V231.856H85.648V233.616H83.904V237.872H88.464V233.616H86.624V231.856H89.088ZM82.592 239.2V228.624H89.632V239.2H82.592ZM81.488 227.584V241.2H82.592V240.256H89.632V241.072H90.768V227.584H81.488ZM97.04 228.672C96.768 228.096 96.096 227.232 95.488 226.608L94.592 227.136C95.168 227.76 95.808 228.672 96.096 229.264L97.04 228.672ZM98.816 235.36C98.464 235.008 97.248 233.76 96.608 233.152C97.424 232.128 98.128 230.96 98.608 229.776L97.968 229.312L97.744 229.36H92.912V230.448H97.12C96.096 232.432 94.24 234.352 92.48 235.392C92.656 235.616 92.928 236.208 93.024 236.544C93.76 236.064 94.512 235.424 95.232 234.704V241.216H96.4V234.352C97.008 235.024 97.728 235.872 98.064 236.336L98.816 235.36ZM103.552 239.44V232.752H106.96V231.6H103.552V226.592H102.368V231.6H98.912V232.752H102.368V239.44H98.16V240.608H107.296V239.44H103.552ZM121.568 226.592C121.312 227.424 120.816 228.624 120.4 229.36L121.376 229.632C121.808 228.912 122.288 227.824 122.704 226.88L121.568 226.592ZM118.784 229.312C118.64 228.592 118.16 227.536 117.632 226.736L116.688 227.056C117.168 227.872 117.632 228.96 117.776 229.696L118.784 229.312ZM114.432 236.352V239.312H111.504V236.352H114.432ZM114.256 231.056V232.64H112.064C112.176 232.128 112.272 231.6 112.352 231.056H114.256ZM114.256 228.448V230.048H112.48C112.544 229.536 112.592 228.992 112.64 228.448H114.256ZM111.264 235.312C111.472 234.8 111.664 234.256 111.808 233.68H115.376V231.056H116.32V230.048H115.376V227.408H109.568V228.448H111.504C111.472 228.992 111.408 229.536 111.36 230.048H108.752V231.056H111.216C111.136 231.6 111.04 232.128 110.928 232.64H109.488V233.68H110.656C110.192 235.216 109.52 236.496 108.512 237.456C108.752 237.68 109.168 238.144 109.312 238.384C109.728 237.952 110.096 237.488 110.416 236.992V241.216H111.504V240.352H115.6V235.312H111.264ZM123.376 236.368H120.256V234.048H122.72V232.96H120.256V230.8H123.008V229.712H116.48V230.8H119.104V232.96H116.704V234.048H119.104V236.368H116.112V237.488H119.104V241.232H120.256V237.488H123.376V236.368ZM139.136 234.448H132.576V228.864H138.24V227.696H125.728V228.864H131.36V234.448H124.896V235.616H131.36V241.216H132.576V235.616H139.136V234.448ZM126.848 229.968C127.456 231.136 128.064 232.688 128.288 233.632L129.408 233.248C129.2 232.304 128.544 230.8 127.888 229.648L126.848 229.968ZM135.328 233.68C135.952 232.72 136.72 231.2 137.296 229.92L136.048 229.568C135.648 230.72 134.912 232.352 134.32 233.344L135.328 233.68ZM151.84 235.664V239.2H144.112V235.664H151.84ZM142.912 241.216H144.112V240.352H151.84V241.184H153.088V234.528H142.912V241.216ZM149.568 229.04C150.336 229.728 151.152 230.56 151.888 231.392L143.728 231.792C145.136 230.464 146.56 228.816 147.824 227.088L146.656 226.56C145.408 228.544 143.552 230.56 142.976 231.072C142.448 231.6 142.032 231.952 141.68 232.016C141.808 232.336 142.016 232.928 142.064 233.184C142.688 232.96 143.616 232.928 152.752 232.416C153.152 232.912 153.488 233.376 153.728 233.792L154.736 233.072C153.904 231.744 152.064 229.792 150.512 228.432L149.568 229.04ZM159.856 228.128H168.144V232.096H169.328V227.232H158.72V232.096H159.856V228.128ZM167.44 229.088H160.56V229.888H167.44V229.088ZM160.56 231.664H167.408V230.864H160.56V231.664ZM162.272 234.768H159.392V233.728H162.272V234.768ZM159.392 237.616H162.272V238.624C161.28 238.736 160.304 238.832 159.392 238.928V237.616ZM162.272 236.72H159.392V235.648H162.272V236.72ZM170.976 233.728V232.736H156.96V233.728H158.288V239.024C157.728 239.088 157.216 239.136 156.768 239.168L156.896 240.208C158.352 240.048 160.304 239.808 162.272 239.584V241.216H163.424V233.728H170.976ZM169.008 235.664C168.592 236.576 167.984 237.376 167.28 238.064C166.592 237.376 166.032 236.56 165.664 235.664H169.008ZM169.728 234.688L169.52 234.72H163.856V235.664H165.36L164.672 235.872C165.104 236.96 165.712 237.92 166.48 238.736C165.552 239.424 164.512 239.936 163.456 240.256C163.68 240.464 163.968 240.912 164.112 241.168C165.232 240.784 166.32 240.224 167.28 239.488C168.208 240.256 169.312 240.832 170.576 241.2C170.72 240.928 171.04 240.496 171.28 240.272C170.064 239.968 168.992 239.456 168.096 238.768C169.12 237.776 169.952 236.512 170.448 234.976L169.728 234.688ZM182.88 228.96C182.176 229.888 181.216 230.72 180.128 231.44C179.472 230.864 178.336 230.176 177.296 229.648C177.648 229.424 177.984 229.2 178.304 228.96H182.88ZM183.84 227.888L183.632 227.952H179.536C179.92 227.6 180.272 227.248 180.592 226.88L179.264 226.592C178.16 227.92 176.08 229.424 173.216 230.432C173.472 230.624 173.856 231.024 174.032 231.312C174.848 230.976 175.6 230.624 176.304 230.24C177.296 230.752 178.416 231.456 179.104 232.048C177.248 233.072 175.088 233.808 173.088 234.176C173.312 234.432 173.552 234.896 173.664 235.216C177.856 234.304 182.544 232.064 184.592 228.368L183.84 227.888ZM185.296 234.528C184.592 235.744 183.568 236.736 182.352 237.536C181.632 236.88 180.4 236.048 179.296 235.44C179.792 235.136 180.272 234.848 180.704 234.528H185.296ZM186.176 233.456L185.952 233.504H181.984C182.416 233.12 182.8 232.72 183.152 232.32L181.84 232.016C180.592 233.536 178.176 235.184 174.832 236.24C175.072 236.448 175.408 236.88 175.552 237.136C176.512 236.8 177.408 236.416 178.224 236.016C179.328 236.608 180.544 237.472 181.296 238.16C179.248 239.232 176.784 239.872 174.288 240.176C174.48 240.432 174.72 240.944 174.816 241.248C179.984 240.496 184.944 238.512 186.944 233.888L186.176 233.456ZM189.408 240H195.84V238.784H193.488V228.256H192.368C191.728 228.64 190.976 228.912 189.936 229.104V230.032H192.016V238.784H189.408V240ZM200.715 226.688C199.915 229.104 198.635 231.504 197.211 233.056C197.419 233.344 197.739 234 197.835 234.256C198.379 233.648 198.891 232.928 199.387 232.144V241.232H200.523V230.096C201.019 229.104 201.451 228.048 201.803 226.992L200.715 226.688ZM208.395 236.992H205.691V234.512H208.395V236.992ZM209.963 231.856V230.944H207.499V229.136H206.523V230.944H204.123V231.856H206.523V233.616H204.779V237.872H209.339V233.616H207.499V231.856H209.963ZM203.467 239.2V228.624H210.507V239.2H203.467ZM202.363 227.584V241.2H203.467V240.256H210.507V241.072H211.643V227.584H202.363Z" fill="black"/>
</g>
<g filter="url(#filter3_i_3763_46086)">
<rect width="229" height="36" transform="translate(32 269)" fill="white"/>
<path fill-rule="evenodd" clip-rule="evenodd" d="M49.2022 276.252C49.5807 276.605 49.6011 277.199 49.2479 277.577L40.4979 286.952C40.3244 287.138 40.0829 287.245 39.8287 287.25C39.5744 287.254 39.3294 287.155 39.1496 286.975L34.7746 282.6C34.4085 282.234 34.4085 281.641 34.7746 281.275C35.1407 280.908 35.7343 280.908 36.1004 281.275L39.7892 284.963L47.8771 276.298C48.2304 275.919 48.8237 275.899 49.2022 276.252Z" fill="#FFAB37"/>
<path d="M64.176 288.208C66.16 288.208 68.016 286.752 68.016 284.176C68.016 281.6 66.432 280.448 64.48 280.448C63.776 280.448 63.264 280.624 62.736 280.912L63.024 277.52H67.456V276.256H61.744L61.376 281.76L62.16 282.24C62.832 281.792 63.328 281.552 64.112 281.552C65.584 281.552 66.544 282.544 66.544 284.224C66.544 285.936 65.424 286.992 64.048 286.992C62.688 286.992 61.84 286.368 61.168 285.696L60.448 286.656C61.232 287.44 62.352 288.208 64.176 288.208ZM73.323 288.208C75.547 288.208 76.971 286.176 76.971 282.096C76.971 278.032 75.547 276.048 73.323 276.048C71.083 276.048 69.659 278.016 69.659 282.096C69.659 286.176 71.083 288.208 73.323 288.208ZM73.323 287.04C71.979 287.04 71.083 285.552 71.083 282.096C71.083 278.672 71.979 277.216 73.323 277.216C74.651 277.216 75.547 278.672 75.547 282.096C75.547 285.552 74.651 287.04 73.323 287.04ZM82.198 288.208C84.422 288.208 85.846 286.176 85.846 282.096C85.846 278.032 84.422 276.048 82.198 276.048C79.958 276.048 78.534 278.016 78.534 282.096C78.534 286.176 79.958 288.208 82.198 288.208ZM82.198 287.04C80.854 287.04 79.958 285.552 79.958 282.096C79.958 278.672 80.854 277.216 82.198 277.216C83.526 277.216 84.422 278.672 84.422 282.096C84.422 285.552 83.526 287.04 82.198 287.04ZM91.073 288.208C93.297 288.208 94.721 286.176 94.721 282.096C94.721 278.032 93.297 276.048 91.073 276.048C88.833 276.048 87.409 278.016 87.409 282.096C87.409 286.176 88.833 288.208 91.073 288.208ZM91.073 287.04C89.729 287.04 88.833 285.552 88.833 282.096C88.833 278.672 89.729 277.216 91.073 277.216C92.401 277.216 93.297 278.672 93.297 282.096C93.297 285.552 92.401 287.04 91.073 287.04ZM106.524 276.976C106.38 276.32 106.012 275.296 105.724 274.496L104.604 274.784C104.908 275.584 105.228 276.656 105.356 277.328L106.524 276.976ZM110.044 277.504H101.42V278.656H110.044V277.504ZM104.716 286.352C104.54 284.72 104.06 281.856 103.532 279.632L102.46 279.872C102.956 282.096 103.42 285.024 103.548 286.688L104.716 286.352ZM100.108 274.672C99.228 277.104 97.74 279.488 96.172 281.024C96.396 281.296 96.732 281.904 96.844 282.192C97.388 281.616 97.932 280.976 98.428 280.256V289.2H99.612V278.4C100.236 277.312 100.796 276.176 101.228 275.008L100.108 274.672ZM107.436 287.424C108.012 285.296 108.668 282.176 109.084 279.728L107.852 279.504C107.548 281.888 106.908 285.28 106.332 287.424H100.748V288.576H110.7V287.424H107.436Z" fill="black"/>
</g>
<g filter="url(#filter4_i_3763_46086)">
<rect width="229" height="36" transform="translate(32 317)" fill="white"/>
<path fill-rule="evenodd" clip-rule="evenodd" d="M49.2022 324.252C49.5807 324.605 49.6011 325.199 49.2479 325.577L40.4979 334.952C40.3244 335.138 40.0829 335.245 39.8287 335.25C39.5744 335.254 39.3294 335.155 39.1496 334.975L34.7746 330.6C34.4085 330.234 34.4085 329.641 34.7746 329.275C35.1407 328.908 35.7343 328.908 36.1004 329.275L39.7892 332.963L47.8771 324.298C48.2304 323.919 48.8237 323.899 49.2022 324.252Z" fill="#FFAB37"/>
<path d="M74.544 325.52V324.448H64.208C64.56 323.936 64.88 323.392 65.152 322.848L64.096 322.512C63.328 324.08 62.048 325.6 60.704 326.56C60.944 326.784 61.312 327.264 61.44 327.488C62.128 326.944 62.8 326.272 63.408 325.52H74.544ZM62.336 337.232C62.928 336.384 63.552 335.056 63.952 334.016L62.832 333.728C62.432 334.768 61.776 336.016 61.216 336.784L62.336 337.232ZM65.504 334.176C65.696 335.136 65.84 336.368 65.84 337.104L67.008 336.928C66.992 336.208 66.816 335.008 66.608 334.08L65.504 334.176ZM68.8 334.144C69.2 335.088 69.616 336.32 69.76 337.072L70.928 336.832C70.768 336.08 70.336 334.864 69.888 333.952L68.8 334.144ZM72.096 334.08C72.672 335.072 73.392 336.4 73.696 337.2L74.848 336.704C74.496 335.92 73.76 334.608 73.168 333.648L72.096 334.08ZM64.48 329.28H66.144V332H64.48V329.28ZM69.024 329.28V332H67.168V329.28H69.024ZM71.808 329.28V332H70.048V329.28H71.808ZM72.912 332V329.28H74.72V328.208H72.912V326.448H71.808V328.208H70.048V326.448H69.024V328.208H67.168V326.448H66.144V328.208H64.48V326.448H63.408V328.208H61.488V329.28H63.408V332H60.96V333.072H75.056V332H72.912ZM81.52 323.216L81.344 323.264H77.52V337.2H78.576V324.352H80.896C80.576 325.408 80.096 326.784 79.632 327.936C80.784 329.216 81.072 330.32 81.072 331.184C81.072 331.664 80.976 332.112 80.736 332.288C80.608 332.384 80.432 332.416 80.24 332.432C79.984 332.464 79.68 332.448 79.312 332.416C79.488 332.72 79.6 333.168 79.616 333.472C79.952 333.488 80.368 333.488 80.672 333.44C80.992 333.408 81.296 333.312 81.52 333.136C81.952 332.832 82.144 332.128 82.144 331.296C82.144 330.304 81.856 329.136 80.704 327.808C81.248 326.544 81.824 324.976 82.304 323.68L81.52 323.216ZM84.24 327.28H88.928V329.264H84.24V327.28ZM88.928 324.368V326.288H84.24V324.368H88.928ZM90.256 330.816C89.6 331.392 88.592 332.144 87.76 332.704C87.36 331.984 87.056 331.168 86.816 330.304H90.08V323.312H83.088V335.136C83.088 335.792 82.752 336.128 82.496 336.256C82.688 336.48 82.944 336.976 83.024 337.232C83.344 337.024 83.824 336.864 87.12 335.968C87.072 335.712 87.056 335.232 87.056 334.88L84.24 335.568V330.304H85.776C86.576 333.472 88.064 335.92 90.56 337.104C90.752 336.8 91.12 336.32 91.376 336.096C90.096 335.568 89.072 334.688 88.288 333.552C89.168 333.024 90.224 332.32 91.04 331.648L90.256 330.816ZM97.792 326H101.024V324.912H97.792V322.672H96.656V324.912H94.96C95.136 324.368 95.296 323.776 95.44 323.216L94.32 322.992C94 324.528 93.44 326.128 92.72 327.2C93.008 327.296 93.536 327.504 93.776 327.648C94.048 327.2 94.32 326.624 94.576 326H96.656V327.68H92.768V328.768H96.656V330.368H93.504V335.92H94.592V331.456H96.656V337.2H97.792V331.456H100V334.72C100 334.88 99.952 334.928 99.776 334.928C99.616 334.944 99.088 334.944 98.4 334.928C98.56 335.232 98.704 335.648 98.752 335.968C99.632 335.968 100.24 335.952 100.608 335.776C101.008 335.584 101.088 335.28 101.088 334.736V330.368H97.792V328.768H101.648V327.68H97.792V326ZM103.92 324.064H102.8V332.864H103.92V324.064ZM105.632 322.784V335.6C105.632 335.872 105.552 335.936 105.296 335.952C105.024 335.952 104.128 335.952 103.184 335.92C103.344 336.288 103.504 336.832 103.568 337.168C104.752 337.168 105.632 337.136 106.128 336.928C106.608 336.72 106.784 336.368 106.784 335.584V322.784H105.632Z" fill="black"/>
</g>
<g filter="url(#filter5_i_3763_46086)">
<rect width="229" height="36" transform="translate(32 449)" fill="white"/>
<path fill-rule="evenodd" clip-rule="evenodd" d="M49.2022 456.252C49.5807 456.605 49.6011 457.199 49.2479 457.577L40.4979 466.952C40.3244 467.138 40.0829 467.245 39.8287 467.25C39.5744 467.254 39.3294 467.155 39.1496 466.975L34.7746 462.6C34.4085 462.234 34.4085 461.641 34.7746 461.275C35.1407 460.908 35.7343 460.908 36.1004 461.275L39.7892 464.963L47.8771 456.298C48.2304 455.919 48.8237 455.899 49.2022 456.252Z" fill="#FFAB37"/>
</g>
<g filter="url(#filter6_i_3763_46086)">
<rect width="229" height="36" transform="translate(32 497)" fill="white"/>
<path fill-rule="evenodd" clip-rule="evenodd" d="M49.2022 504.252C49.5807 504.605 49.6011 505.199 49.2479 505.577L40.4979 514.952C40.3244 515.138 40.0829 515.245 39.8287 515.25C39.5744 515.254 39.3294 515.155 39.1496 514.975L34.7746 510.6C34.4085 510.234 34.4085 509.641 34.7746 509.275C35.1407 508.908 35.7343 508.908 36.1004 509.275L39.7892 512.963L47.8771 504.298C48.2304 503.919 48.8237 503.899 49.2022 504.252Z" fill="#FFAB37"/>
</g>
<g filter="url(#filter7_i_3763_46086)">
<rect width="229" height="36" transform="translate(32 545)" fill="white"/>
<path fill-rule="evenodd" clip-rule="evenodd" d="M49.2022 552.252C49.5807 552.605 49.6011 553.199 49.2479 553.577L40.4979 562.952C40.3244 563.138 40.0829 563.245 39.8287 563.25C39.5744 563.254 39.3294 563.155 39.1496 562.975L34.7746 558.6C34.4085 558.234 34.4085 557.641 34.7746 557.275C35.1407 556.908 35.7343 556.908 36.1004 557.275L39.7892 560.963L47.8771 552.298C48.2304 551.919 48.8237 551.899 49.2022 552.252Z" fill="#FFAB37"/>
</g>
<g filter="url(#filter8_i_3763_46086)">
<rect width="229" height="36" transform="translate(32 593)" fill="white"/>
<path fill-rule="evenodd" clip-rule="evenodd" d="M49.2022 600.252C49.5807 600.605 49.6011 601.199 49.2479 601.577L40.4979 610.952C40.3244 611.138 40.0829 611.245 39.8287 611.25C39.5744 611.254 39.3294 611.155 39.1496 610.975L34.7746 606.6C34.4085 606.234 34.4085 605.641 34.7746 605.275C35.1407 604.908 35.7343 604.908 36.1004 605.275L39.7892 608.963L47.8771 600.298C48.2304 599.919 48.8237 599.899 49.2022 600.252Z" fill="#FFAB37"/>
</g>
<g filter="url(#filter9_i_3763_46086)">
<rect width="229" height="36" transform="translate(32 641)" fill="white"/>
<path fill-rule="evenodd" clip-rule="evenodd" d="M49.2022 648.252C49.5807 648.605 49.6011 649.199 49.2479 649.577L40.4979 658.952C40.3244 659.138 40.0829 659.245 39.8287 659.25C39.5744 659.254 39.3294 659.155 39.1496 658.975L34.7746 654.6C34.4085 654.234 34.4085 653.641 34.7746 653.275C35.1407 652.908 35.7343 652.908 36.1004 653.275L39.7892 656.963L47.8771 648.298C48.2304 647.919 48.8237 647.899 49.2022 648.252Z" fill="#FFAB37"/>
</g>
<g filter="url(#filter10_i_3763_46086)">
<rect width="229" height="36" transform="translate(32 689)" fill="white"/>
<path fill-rule="evenodd" clip-rule="evenodd" d="M49.2022 696.252C49.5807 696.605 49.6011 697.199 49.2479 697.577L40.4979 706.952C40.3244 707.138 40.0829 707.245 39.8287 707.25C39.5744 707.254 39.3294 707.155 39.1496 706.975L34.7746 702.6C34.4085 702.234 34.4085 701.641 34.7746 701.275C35.1407 700.908 35.7343 700.908 36.1004 701.275L39.7892 704.963L47.8771 696.298C48.2304 695.919 48.8237 695.899 49.2022 696.252Z" fill="#FFAB37"/>
</g>
<g filter="url(#filter11_i_3763_46086)">
<rect width="229" height="36" transform="translate(32 737)" fill="white"/>
</g>
<g filter="url(#filter12_i_3763_46086)">
<rect width="229" height="36" transform="translate(32 785)" fill="white"/>
</g>
<g filter="url(#filter13_i_3763_46086)">
<rect width="229" height="36" transform="translate(32 833)" fill="white"/>
</g>
<g filter="url(#filter14_i_3763_46086)">
<rect width="229" height="36" transform="translate(32 881)" fill="white"/>
</g>
<g filter="url(#filter15_i_3763_46086)">
<rect width="229" height="36" transform="translate(32 929)" fill="white"/>
</g>
<g filter="url(#filter16_i_3763_46086)">
<rect width="229" height="36" transform="translate(32 977)" fill="white"/>
</g>
<g filter="url(#filter17_i_3763_46086)">
<rect width="229" height="36" transform="translate(32 1025)" fill="white"/>
</g>
<g filter="url(#filter18_i_3763_46086)">
<rect width="229" height="36" transform="translate(32 1073)" fill="white"/>
</g>
</g>
<defs>
<filter id="filter0_d_3763_46086" x="0" y="0" width="293" height="1167" filterUnits="userSpaceOnUse" color-interpolation-filters="sRGB">
<feFlood flood-opacity="0" result="BackgroundImageFix"/>
<feColorMatrix in="SourceAlpha" type="matrix" values="0 0 0 0 0 0 0 0 0 0 0 0 0 0 0 0 0 0 127 0" result="hardAlpha"/>
<feMorphology radius="2" operator="dilate" in="SourceAlpha" result="effect1_dropShadow_3763_46086"/>
<feOffset dy="2"/>
<feGaussianBlur stdDeviation="3"/>
<feComposite in2="hardAlpha" operator="out"/>
<feColorMatrix type="matrix" values="0 0 0 0 1 0 0 0 0 0.77425 0 0 0 0 0.4625 0 0 0 0.4 0"/>
<feBlend mode="normal" in2="BackgroundImageFix" result="effect1_dropShadow_3763_46086"/>
<feBlend mode="normal" in="SourceGraphic" in2="effect1_dropShadow_3763_46086" result="shape"/>
</filter>
<filter id="filter1_i_3763_46086" x="32" y="173" width="229" height="36" filterUnits="userSpaceOnUse" color-interpolation-filters="sRGB">
<feFlood flood-opacity="0" result="BackgroundImageFix"/>
<feBlend mode="normal" in="SourceGraphic" in2="BackgroundImageFix" result="shape"/>
<feColorMatrix in="SourceAlpha" type="matrix" values="0 0 0 0 0 0 0 0 0 0 0 0 0 0 0 0 0 0 127 0" result="hardAlpha"/>
<feOffset dy="-1"/>
<feComposite in2="hardAlpha" operator="arithmetic" k2="-1" k3="1"/>
<feColorMatrix type="matrix" values="0 0 0 0 0 0 0 0 0 0 0 0 0 0 0 0 0 0 0.25 0"/>
<feBlend mode="normal" in2="shape" result="effect1_innerShadow_3763_46086"/>
</filter>
<filter id="filter2_i_3763_46086" x="32" y="221" width="229" height="36" filterUnits="userSpaceOnUse" color-interpolation-filters="sRGB">
<feFlood flood-opacity="0" result="BackgroundImageFix"/>
<feBlend mode="normal" in="SourceGraphic" in2="BackgroundImageFix" result="shape"/>
<feColorMatrix in="SourceAlpha" type="matrix" values="0 0 0 0 0 0 0 0 0 0 0 0 0 0 0 0 0 0 127 0" result="hardAlpha"/>
<feOffset dy="-1"/>
<feComposite in2="hardAlpha" operator="arithmetic" k2="-1" k3="1"/>
<feColorMatrix type="matrix" values="0 0 0 0 0 0 0 0 0 0 0 0 0 0 0 0 0 0 0.25 0"/>
<feBlend mode="normal" in2="shape" result="effect1_innerShadow_3763_46086"/>
</filter>
<filter id="filter3_i_3763_46086" x="32" y="269" width="229" height="36" filterUnits="userSpaceOnUse" color-interpolation-filters="sRGB">
<feFlood flood-opacity="0" result="BackgroundImageFix"/>
<feBlend mode="normal" in="SourceGraphic" in2="BackgroundImageFix" result="shape"/>
<feColorMatrix in="SourceAlpha" type="matrix" values="0 0 0 0 0 0 0 0 0 0 0 0 0 0 0 0 0 0 127 0" result="hardAlpha"/>
<feOffset dy="-1"/>
<feComposite in2="hardAlpha" operator="arithmetic" k2="-1" k3="1"/>
<feColorMatrix type="matrix" values="0 0 0 0 0 0 0 0 0 0 0 0 0 0 0 0 0 0 0.25 0"/>
<feBlend mode="normal" in2="shape" result="effect1_innerShadow_3763_46086"/>
</filter>
<filter id="filter4_i_3763_46086" x="32" y="317" width="229" height="36" filterUnits="userSpaceOnUse" color-interpolation-filters="sRGB">
<feFlood flood-opacity="0" result="BackgroundImageFix"/>
<feBlend mode="normal" in="SourceGraphic" in2="BackgroundImageFix" result="shape"/>
<feColorMatrix in="SourceAlpha" type="matrix" values="0 0 0 0 0 0 0 0 0 0 0 0 0 0 0 0 0 0 127 0" result="hardAlpha"/>
<feOffset dy="-1"/>
<feComposite in2="hardAlpha" operator="arithmetic" k2="-1" k3="1"/>
<feColorMatrix type="matrix" values="0 0 0 0 0 0 0 0 0 0 0 0 0 0 0 0 0 0 0.25 0"/>
<feBlend mode="normal" in2="shape" result="effect1_innerShadow_3763_46086"/>
</filter>
<filter id="filter5_i_3763_46086" x="32" y="449" width="229" height="36" filterUnits="userSpaceOnUse" color-interpolation-filters="sRGB">
<feFlood flood-opacity="0" result="BackgroundImageFix"/>
<feBlend mode="normal" in="SourceGraphic" in2="BackgroundImageFix" result="shape"/>
<feColorMatrix in="SourceAlpha" type="matrix" values="0 0 0 0 0 0 0 0 0 0 0 0 0 0 0 0 0 0 127 0" result="hardAlpha"/>
<feOffset dy="-1"/>
<feComposite in2="hardAlpha" operator="arithmetic" k2="-1" k3="1"/>
<feColorMatrix type="matrix" values="0 0 0 0 0 0 0 0 0 0 0 0 0 0 0 0 0 0 0.25 0"/>
<feBlend mode="normal" in2="shape" result="effect1_innerShadow_3763_46086"/>
</filter>
<filter id="filter6_i_3763_46086" x="32" y="497" width="229" height="36" filterUnits="userSpaceOnUse" color-interpolation-filters="sRGB">
<feFlood flood-opacity="0" result="BackgroundImageFix"/>
<feBlend mode="normal" in="SourceGraphic" in2="BackgroundImageFix" result="shape"/>
<feColorMatrix in="SourceAlpha" type="matrix" values="0 0 0 0 0 0 0 0 0 0 0 0 0 0 0 0 0 0 127 0" result="hardAlpha"/>
<feOffset dy="-1"/>
<feComposite in2="hardAlpha" operator="arithmetic" k2="-1" k3="1"/>
<feColorMatrix type="matrix" values="0 0 0 0 0 0 0 0 0 0 0 0 0 0 0 0 0 0 0.25 0"/>
<feBlend mode="normal" in2="shape" result="effect1_innerShadow_3763_46086"/>
</filter>
<filter id="filter7_i_3763_46086" x="32" y="545" width="229" height="36" filterUnits="userSpaceOnUse" color-interpolation-filters="sRGB">
<feFlood flood-opacity="0" result="BackgroundImageFix"/>
<feBlend mode="normal" in="SourceGraphic" in2="BackgroundImageFix" result="shape"/>
<feColorMatrix in="SourceAlpha" type="matrix" values="0 0 0 0 0 0 0 0 0 0 0 0 0 0 0 0 0 0 127 0" result="hardAlpha"/>
<feOffset dy="-1"/>
<feComposite in2="hardAlpha" operator="arithmetic" k2="-1" k3="1"/>
<feColorMatrix type="matrix" values="0 0 0 0 0 0 0 0 0 0 0 0 0 0 0 0 0 0 0.25 0"/>
<feBlend mode="normal" in2="shape" result="effect1_innerShadow_3763_46086"/>
</filter>
<filter id="filter8_i_3763_46086" x="32" y="593" width="229" height="36" filterUnits="userSpaceOnUse" color-interpolation-filters="sRGB">
<feFlood flood-opacity="0" result="BackgroundImageFix"/>
<feBlend mode="normal" in="SourceGraphic" in2="BackgroundImageFix" result="shape"/>
<feColorMatrix in="SourceAlpha" type="matrix" values="0 0 0 0 0 0 0 0 0 0 0 0 0 0 0 0 0 0 127 0" result="hardAlpha"/>
<feOffset dy="-1"/>
<feComposite in2="hardAlpha" operator="arithmetic" k2="-1" k3="1"/>
<feColorMatrix type="matrix" values="0 0 0 0 0 0 0 0 0 0 0 0 0 0 0 0 0 0 0.25 0"/>
<feBlend mode="normal" in2="shape" result="effect1_innerShadow_3763_46086"/>
</filter>
<filter id="filter9_i_3763_46086" x="32" y="641" width="229" height="36" filterUnits="userSpaceOnUse" color-interpolation-filters="sRGB">
<feFlood flood-opacity="0" result="BackgroundImageFix"/>
<feBlend mode="normal" in="SourceGraphic" in2="BackgroundImageFix" result="shape"/>
<feColorMatrix in="SourceAlpha" type="matrix" values="0 0 0 0 0 0 0 0 0 0 0 0 0 0 0 0 0 0 127 0" result="hardAlpha"/>
<feOffset dy="-1"/>
<feComposite in2="hardAlpha" operator="arithmetic" k2="-1" k3="1"/>
<feColorMatrix type="matrix" values="0 0 0 0 0 0 0 0 0 0 0 0 0 0 0 0 0 0 0.25 0"/>
<feBlend mode="normal" in2="shape" result="effect1_innerShadow_3763_46086"/>
</filter>
<filter id="filter10_i_3763_46086" x="32" y="689" width="229" height="36" filterUnits="userSpaceOnUse" color-interpolation-filters="sRGB">
<feFlood flood-opacity="0" result="BackgroundImageFix"/>
<feBlend mode="normal" in="SourceGraphic" in2="BackgroundImageFix" result="shape"/>
<feColorMatrix in="SourceAlpha" type="matrix" values="0 0 0 0 0 0 0 0 0 0 0 0 0 0 0 0 0 0 127 0" result="hardAlpha"/>
<feOffset dy="-1"/>
<feComposite in2="hardAlpha" operator="arithmetic" k2="-1" k3="1"/>
<feColorMatrix type="matrix" values="0 0 0 0 0 0 0 0 0 0 0 0 0 0 0 0 0 0 0.25 0"/>
<feBlend mode="normal" in2="shape" result="effect1_innerShadow_3763_46086"/>
</filter>
<filter id="filter11_i_3763_46086" x="32" y="737" width="229" height="36" filterUnits="userSpaceOnUse" color-interpolation-filters="sRGB">
<feFlood flood-opacity="0" result="BackgroundImageFix"/>
<feBlend mode="normal" in="SourceGraphic" in2="BackgroundImageFix" result="shape"/>
<feColorMatrix in="SourceAlpha" type="matrix" values="0 0 0 0 0 0 0 0 0 0 0 0 0 0 0 0 0 0 127 0" result="hardAlpha"/>
<feOffset dy="-1"/>
<feComposite in2="hardAlpha" operator="arithmetic" k2="-1" k3="1"/>
<feColorMatrix type="matrix" values="0 0 0 0 0 0 0 0 0 0 0 0 0 0 0 0 0 0 0.25 0"/>
<feBlend mode="normal" in2="shape" result="effect1_innerShadow_3763_46086"/>
</filter>
<filter id="filter12_i_3763_46086" x="32" y="785" width="229" height="36" filterUnits="userSpaceOnUse" color-interpolation-filters="sRGB">
<feFlood flood-opacity="0" result="BackgroundImageFix"/>
<feBlend mode="normal" in="SourceGraphic" in2="BackgroundImageFix" result="shape"/>
<feColorMatrix in="SourceAlpha" type="matrix" values="0 0 0 0 0 0 0 0 0 0 0 0 0 0 0 0 0 0 127 0" result="hardAlpha"/>
<feOffset dy="-1"/>
<feComposite in2="hardAlpha" operator="arithmetic" k2="-1" k3="1"/>
<feColorMatrix type="matrix" values="0 0 0 0 0 0 0 0 0 0 0 0 0 0 0 0 0 0 0.25 0"/>
<feBlend mode="normal" in2="shape" result="effect1_innerShadow_3763_46086"/>
</filter>
<filter id="filter13_i_3763_46086" x="32" y="833" width="229" height="36" filterUnits="userSpaceOnUse" color-interpolation-filters="sRGB">
<feFlood flood-opacity="0" result="BackgroundImageFix"/>
<feBlend mode="normal" in="SourceGraphic" in2="BackgroundImageFix" result="shape"/>
<feColorMatrix in="SourceAlpha" type="matrix" values="0 0 0 0 0 0 0 0 0 0 0 0 0 0 0 0 0 0 127 0" result="hardAlpha"/>
<feOffset dy="-1"/>
<feComposite in2="hardAlpha" operator="arithmetic" k2="-1" k3="1"/>
<feColorMatrix type="matrix" values="0 0 0 0 0 0 0 0 0 0 0 0 0 0 0 0 0 0 0.25 0"/>
<feBlend mode="normal" in2="shape" result="effect1_innerShadow_3763_46086"/>
</filter>
<filter id="filter14_i_3763_46086" x="32" y="881" width="229" height="36" filterUnits="userSpaceOnUse" color-interpolation-filters="sRGB">
<feFlood flood-opacity="0" result="BackgroundImageFix"/>
<feBlend mode="normal" in="SourceGraphic" in2="BackgroundImageFix" result="shape"/>
<feColorMatrix in="SourceAlpha" type="matrix" values="0 0 0 0 0 0 0 0 0 0 0 0 0 0 0 0 0 0 127 0" result="hardAlpha"/>
<feOffset dy="-1"/>
<feComposite in2="hardAlpha" operator="arithmetic" k2="-1" k3="1"/>
<feColorMatrix type="matrix" values="0 0 0 0 0 0 0 0 0 0 0 0 0 0 0 0 0 0 0.25 0"/>
<feBlend mode="normal" in2="shape" result="effect1_innerShadow_3763_46086"/>
</filter>
<filter id="filter15_i_3763_46086" x="32" y="929" width="229" height="36" filterUnits="userSpaceOnUse" color-interpolation-filters="sRGB">
<feFlood flood-opacity="0" result="BackgroundImageFix"/>
<feBlend mode="normal" in="SourceGraphic" in2="BackgroundImageFix" result="shape"/>
<feColorMatrix in="SourceAlpha" type="matrix" values="0 0 0 0 0 0 0 0 0 0 0 0 0 0 0 0 0 0 127 0" result="hardAlpha"/>
<feOffset dy="-1"/>
<feComposite in2="hardAlpha" operator="arithmetic" k2="-1" k3="1"/>
<feColorMatrix type="matrix" values="0 0 0 0 0 0 0 0 0 0 0 0 0 0 0 0 0 0 0.25 0"/>
<feBlend mode="normal" in2="shape" result="effect1_innerShadow_3763_46086"/>
</filter>
<filter id="filter16_i_3763_46086" x="32" y="977" width="229" height="36" filterUnits="userSpaceOnUse" color-interpolation-filters="sRGB">
<feFlood flood-opacity="0" result="BackgroundImageFix"/>
<feBlend mode="normal" in="SourceGraphic" in2="BackgroundImageFix" result="shape"/>
<feColorMatrix in="SourceAlpha" type="matrix" values="0 0 0 0 0 0 0 0 0 0 0 0 0 0 0 0 0 0 127 0" result="hardAlpha"/>
<feOffset dy="-1"/>
<feComposite in2="hardAlpha" operator="arithmetic" k2="-1" k3="1"/>
<feColorMatrix type="matrix" values="0 0 0 0 0 0 0 0 0 0 0 0 0 0 0 0 0 0 0.25 0"/>
<feBlend mode="normal" in2="shape" result="effect1_innerShadow_3763_46086"/>
</filter>
<filter id="filter17_i_3763_46086" x="32" y="1025" width="229" height="36" filterUnits="userSpaceOnUse" color-interpolation-filters="sRGB">
<feFlood flood-opacity="0" result="BackgroundImageFix"/>
<feBlend mode="normal" in="SourceGraphic" in2="BackgroundImageFix" result="shape"/>
<feColorMatrix in="SourceAlpha" type="matrix" values="0 0 0 0 0 0 0 0 0 0 0 0 0 0 0 0 0 0 127 0" result="hardAlpha"/>
<feOffset dy="-1"/>
<feComposite in2="hardAlpha" operator="arithmetic" k2="-1" k3="1"/>
<feColorMatrix type="matrix" values="0 0 0 0 0 0 0 0 0 0 0 0 0 0 0 0 0 0 0.25 0"/>
<feBlend mode="normal" in2="shape" result="effect1_innerShadow_3763_46086"/>
</filter>
<filter id="filter18_i_3763_46086" x="32" y="1073" width="229" height="36" filterUnits="userSpaceOnUse" color-interpolation-filters="sRGB">
<feFlood flood-opacity="0" result="BackgroundImageFix"/>
<feBlend mode="normal" in="SourceGraphic" in2="BackgroundImageFix" result="shape"/>
<feColorMatrix in="SourceAlpha" type="matrix" values="0 0 0 0 0 0 0 0 0 0 0 0 0 0 0 0 0 0 127 0" result="hardAlpha"/>
<feOffset dy="-1"/>
<feComposite in2="hardAlpha" operator="arithmetic" k2="-1" k3="1"/>
<feColorMatrix type="matrix" values="0 0 0 0 0 0 0 0 0 0 0 0 0 0 0 0 0 0 0.25 0"/>
<feBlend mode="normal" in2="shape" result="effect1_innerShadow_3763_46086"/>
</filter>
</defs>
</svg>
