<svg width="174" height="26" viewBox="0 0 174 26" fill="none" xmlns="http://www.w3.org/2000/svg">
<path d="M0.00801267 0H8.77067L12.1459 15.1061L15.497 0H24.2516V24.8171H18.792V5.88693L14.5911 24.8171H9.65255L5.45963 5.88693V24.8171H0V0H0.00801267Z" fill="#FFAB37"/>
<path d="M33.5682 12.6628L27.844 11.9646C28.0605 10.8142 28.3732 9.90972 28.774 9.24328C29.1749 8.57683 29.7681 8.01353 30.5297 7.52163C31.0829 7.17254 31.8365 6.90279 32.7986 6.71238C33.7606 6.52196 34.7948 6.42676 35.9172 6.42676C37.713 6.42676 39.1561 6.54576 40.2384 6.77585C41.3287 7.00593 42.2347 7.4899 42.9562 8.21981C43.4693 8.72758 43.8701 9.44956 44.1588 10.3778C44.4554 11.3061 44.5997 12.1947 44.5997 13.0436V20.9854C44.5997 21.8343 44.6478 22.4928 44.736 22.9768C44.8242 23.4608 45.0326 24.0717 45.3453 24.8175H39.7253C39.5008 24.3573 39.3565 24.0003 39.2844 23.7622C39.2122 23.5163 39.1481 23.1355 39.0759 22.6198C38.2903 23.4925 37.5126 24.1113 36.735 24.4842C35.6767 24.9841 34.4421 25.23 33.0471 25.23C31.1871 25.23 29.7681 24.7302 28.8061 23.7384C27.844 22.7467 27.355 21.517 27.355 20.0651C27.355 18.7004 27.6997 17.5738 28.3972 16.6932C29.0947 15.8125 30.3774 15.1619 32.2534 14.7256C34.4982 14.2099 35.9573 13.8449 36.6227 13.6307C37.2881 13.4165 37.9936 13.1467 38.7392 12.8135C38.7392 11.9646 38.5869 11.3775 38.2823 11.0363C37.9776 10.6952 37.4405 10.5286 36.6788 10.5286C35.7008 10.5286 34.9632 10.711 34.4741 11.0681C34.0893 11.3537 33.7847 11.8773 33.5442 12.6628H33.5682ZM38.7633 16.2886C37.9375 16.6297 37.0797 16.9233 36.1898 17.1851C34.9712 17.558 34.2016 17.9229 33.8809 18.2879C33.5442 18.6608 33.3838 19.0813 33.3838 19.5573C33.3838 20.0968 33.5442 20.5411 33.8729 20.8823C34.2016 21.2234 34.6826 21.398 35.324 21.398C35.9653 21.398 36.6067 21.2155 37.1839 20.8426C37.7611 20.4697 38.162 20.0175 38.4025 19.478C38.643 18.9385 38.7633 18.2482 38.7633 17.3834V16.2806V16.2886Z" fill="#FFAB37"/>
<path d="M47.1464 19.8271L53.0871 19.1844C53.3356 19.9937 53.6723 20.5808 54.1132 20.9299C54.5542 21.279 55.1394 21.4535 55.877 21.4535C56.6787 21.4535 57.304 21.2551 57.745 20.8585C58.0897 20.5649 58.2581 20.1999 58.2581 19.7556C58.2581 19.2637 58.0336 18.875 57.5846 18.6052C57.2639 18.4148 56.4061 18.1768 55.0112 17.8991C52.9347 17.4786 51.4917 17.0978 50.6819 16.7408C49.8722 16.3838 49.1908 15.7887 48.6376 14.9398C48.0844 14.0909 47.8038 13.1309 47.8038 12.0439C47.8038 10.8618 48.1004 9.83832 48.7017 8.98146C49.303 8.12461 50.1207 7.48196 51.171 7.06147C52.2212 6.64097 53.6242 6.42676 55.388 6.42676C57.2479 6.42676 58.6269 6.59337 59.5167 6.91866C60.4066 7.24394 61.1442 7.75171 61.7375 8.44196C62.3307 9.13221 62.8198 10.0605 63.2126 11.2347L57.5365 11.8773C57.3922 11.2981 57.1437 10.8777 56.799 10.6079C56.326 10.2509 55.7567 10.0684 55.0913 10.0684C54.4259 10.0684 53.9208 10.2033 53.6162 10.481C53.3035 10.7586 53.1512 11.0919 53.1512 11.4886C53.1512 11.9249 53.3436 12.2581 53.7364 12.4882C54.1293 12.7104 54.9791 12.9167 56.2939 13.0991C58.2821 13.361 59.7653 13.718 60.7353 14.1781C61.7054 14.6383 62.451 15.2968 62.9641 16.1537C63.4772 17.0105 63.7337 17.9547 63.7337 18.9781C63.7337 20.0016 63.4612 21.0251 62.916 22.0089C62.3708 22.9927 61.513 23.7702 60.3425 24.3494C59.172 24.9285 57.5766 25.2221 55.5563 25.2221C52.7022 25.2221 50.6739 24.754 49.4633 23.8178C48.2528 22.8816 47.4751 21.5487 47.1304 19.8191L47.1464 19.8271Z" fill="#FFAB37"/>
<path d="M73.8206 0V6.83899H77.1156V11.8849H73.8206V18.2558C73.8206 19.0254 73.8847 19.5252 74.013 19.7791C74.2054 20.1599 74.5502 20.3504 75.0392 20.3504C75.4801 20.3504 76.0975 20.2076 76.8911 19.914L77.3321 24.6743C75.8489 25.0472 74.47 25.2297 73.1873 25.2297C71.6961 25.2297 70.5977 25.0075 69.8922 24.5712C69.1867 24.1348 68.6656 23.4604 68.3289 22.5639C67.9922 21.6674 67.8238 20.2155 67.8238 18.2082V11.8849H65.6191V6.83899H67.8238V3.5385L73.8286 0H73.8206Z" fill="#FFAB37"/>
<path d="M97.3116 17.542H85.3101C85.4143 18.6448 85.6788 19.4699 86.0877 20.0173C86.6649 20.7949 87.4185 21.1836 88.3565 21.1836C88.9418 21.1836 89.503 21.017 90.0321 20.6759C90.3528 20.4616 90.7055 20.0808 91.0743 19.5413L96.9749 20.1681C96.069 21.977 94.9867 23.2702 93.712 24.0557C92.4372 24.8411 90.6093 25.2299 88.2283 25.2299C86.1599 25.2299 84.5324 24.8967 83.3459 24.2223C82.1593 23.5479 81.1733 22.4848 80.3956 21.0249C79.6179 19.5651 79.2251 17.8435 79.2251 15.8679C79.2251 13.0593 80.0108 10.7823 81.5741 9.04481C83.1374 7.30729 85.294 6.43457 88.0519 6.43457C90.2887 6.43457 92.0524 6.82333 93.3432 7.60085C94.6339 8.37836 95.62 9.50497 96.3015 10.9886C96.9749 12.4643 97.3196 14.3922 97.3196 16.7645V17.542H97.3116ZM91.2267 14.2415C91.1064 12.9086 90.8018 11.9565 90.2967 11.3774C89.7916 10.7982 89.1262 10.5126 88.3004 10.5126C87.3464 10.5126 86.5928 10.9489 86.0236 11.8137C85.6628 12.3532 85.4303 13.1625 85.3341 14.2336H91.2347L91.2267 14.2415Z" fill="#FFAB37"/>
<path d="M100.118 6.83932H105.722V9.78278C106.259 8.50543 106.82 7.6327 107.39 7.14874C107.967 6.67271 108.672 6.42676 109.514 6.42676C110.356 6.42676 111.358 6.74411 112.408 7.37089L110.556 12.282C109.851 11.9408 109.29 11.7742 108.881 11.7742C108.095 11.7742 107.486 12.1471 107.061 12.8929C106.444 13.9401 106.131 15.9077 106.131 18.7877V24.8175H100.118V6.83932Z" fill="#FFAB37"/>
<path d="M113.842 0H126.316C128.393 0 129.988 0.59504 131.103 1.77719C132.217 2.95933 132.77 4.4271 132.77 6.18048C132.77 7.64824 132.369 8.90973 131.576 9.957C131.046 10.6552 130.269 11.2106 129.251 11.6152C130.798 12.0436 131.936 12.7815 132.666 13.8287C133.395 14.876 133.764 16.1851 133.764 17.7639C133.764 19.0492 133.508 20.2076 132.987 21.231C132.465 22.2545 131.76 23.0717 130.854 23.6667C130.293 24.0396 129.451 24.3094 128.329 24.476C126.829 24.6981 125.835 24.8171 125.346 24.8171H113.85V0H113.842ZM120.56 9.73485H123.454C124.496 9.73485 125.218 9.52857 125.627 9.11601C126.036 8.70345 126.236 8.10841 126.236 7.33089C126.236 6.60891 126.036 6.04561 125.627 5.64098C125.218 5.23635 124.513 5.03007 123.502 5.03007H120.56V9.73485ZM120.56 19.4856H123.959C125.106 19.4856 125.916 19.2555 126.389 18.7795C126.862 18.3114 127.094 17.6846 127.094 16.8912C127.094 16.1613 126.862 15.5662 126.397 15.1219C125.932 14.6776 125.114 14.4555 123.951 14.4555H120.568V19.4856H120.56Z" fill="#FFAB37"/>
<path d="M136.123 15.8838C136.123 13.1387 136.924 10.8775 138.536 9.10035C140.147 7.32316 142.312 6.43457 145.054 6.43457C148.18 6.43457 150.545 7.48184 152.141 9.56844C153.423 11.2504 154.065 13.3212 154.065 15.7807C154.065 18.5496 153.271 20.8107 151.676 22.58C150.08 24.3492 147.876 25.2299 145.062 25.2299C142.552 25.2299 140.524 24.5 138.977 23.0322C137.077 21.2154 136.123 18.8352 136.123 15.8838ZM142.119 15.8679C142.119 17.4706 142.4 18.6527 142.961 19.4223C143.522 20.1919 144.236 20.5727 145.086 20.5727C145.935 20.5727 146.657 20.1919 147.21 19.4382C147.763 18.6845 148.044 17.4706 148.044 15.7965C148.044 14.2415 147.763 13.0752 147.202 12.3136C146.641 11.5519 145.951 11.1711 145.126 11.1711C144.252 11.1711 143.53 11.5598 142.961 12.3294C142.392 13.099 142.111 14.2812 142.111 15.86L142.119 15.8679Z" fill="#FFAB37"/>
<path d="M154.551 6.83887H161.654L164.131 11.8531L167.017 6.83887H173.623L168.292 15.4074L174 24.817H167.017L164.131 19.0253L160.74 24.817H154.254L159.93 15.4074L154.551 6.83887Z" fill="#FFAB37"/>
</svg>
