<svg width="52" height="88" viewBox="0 0 52 88" fill="none" xmlns="http://www.w3.org/2000/svg">
<g clip-path="url(#clip0_4572_50255)">
<path d="M51.9493 86.6247L48.4601 75.6173C46.9849 70.214 46.7503 64.4493 47.7838 58.9445C47.9486 58.0676 47.9909 57.1737 47.9085 56.2883L46.8391 44.6322C46.5031 40.9828 45.3238 37.3946 43.4281 34.2587C41.9889 31.8772 39.9537 29.8845 37.5444 28.4941L33.474 26.1442L33.3684 25.9667C32.4068 24.3312 30.9908 23.0379 29.2747 22.2265L26.6604 20.9903L25.7918 18.3488C25.3311 16.9478 24.7626 15.57 24.1032 14.2514L20.073 6.2109C19.663 5.24096 18.843 4.54573 17.818 4.29638C16.7782 4.04492 15.7152 4.29638 14.9036 4.99372C13.3102 6.3567 12.6698 8.53325 13.2721 10.5407L16.4422 21.1234L18.6444 34.6877L18.8853 45.1267C18.9022 45.8874 18.3125 46.16 18.1308 46.2255C17.9512 46.291 17.3277 46.4558 16.8606 45.8641C15.861 44.5984 14.7092 42.9755 13.437 41.0377C8.79806 33.9734 3.99432 34.7595 1.5449 35.8563C0.707997 36.2303 0.137381 36.9974 0.0211443 37.906C-0.0950922 38.7957 0.251504 39.6642 0.948923 40.2263C3.82525 42.5486 6.86853 47.5948 8.04358 49.6572C8.56347 50.568 9.01574 51.5295 9.3877 52.5142L11.0509 56.9138C12.8832 61.7592 16.1062 65.8757 20.371 68.8172C22.3386 70.1738 24.8112 72.456 25.4368 75.6363L27.0874 87.098C27.1634 87.6242 27.6157 88.0046 28.1314 88.0046C28.1821 88.0046 28.2328 88.0003 28.2835 87.994C28.8605 87.9116 29.262 87.3748 29.1796 86.798L27.5248 75.3109L27.5164 75.2602C26.764 71.3677 23.8665 68.6629 21.5693 67.0802C17.6595 64.3838 14.705 60.6097 13.0248 56.1679L11.3616 51.7683C10.9516 50.6821 10.4507 49.6213 9.878 48.6133C8.34579 45.9233 5.31942 41.0419 2.27613 38.5843C2.10918 38.4491 2.10495 38.2737 2.11763 38.1807C2.1282 38.0983 2.17892 37.8933 2.40928 37.7877C5.62797 36.3465 8.82976 37.8722 11.6723 42.1999C12.9783 44.1884 14.1682 45.8641 15.2037 47.1764C16.0829 48.2879 17.5116 48.6958 18.8472 48.214C20.1871 47.7322 21.0325 46.5002 20.9987 45.0781L20.7556 34.5672V34.4933L18.5175 20.7177L18.507 20.65L15.2967 9.93426C14.9353 8.72766 15.32 7.41962 16.2774 6.59971C16.569 6.35036 16.9473 6.2595 17.3214 6.35036C17.6933 6.44123 17.9892 6.69481 18.135 7.04982L22.2139 15.1981C22.8289 16.4237 23.3572 17.7064 23.7841 19.0081L27.1191 29.1618L29.2388 39.5014C29.355 40.072 29.913 40.4418 30.4857 40.3256C31.0584 40.2094 31.4261 39.6494 31.3078 39.0788L29.1775 28.68L29.1648 28.6208L27.5671 23.7585L28.3702 24.1367C29.6995 24.7665 30.7985 25.7681 31.5445 27.0381L33.753 30.7932C33.9495 31.127 34.3025 31.3151 34.6639 31.3151C34.8456 31.3151 35.0295 31.2686 35.1985 31.1693C35.6677 30.8925 35.841 30.3135 35.6212 29.8274L36.4835 30.324C38.5863 31.537 40.3595 33.2761 41.6148 35.3533C43.3457 38.2188 44.4235 41.4942 44.7299 44.8266L45.7993 56.4827C45.8627 57.1758 45.831 57.8732 45.7021 58.5578C44.6095 64.3817 44.8589 70.4823 46.4228 76.1963L49.9289 87.265C50.0705 87.7151 50.4868 88.0025 50.937 88.0025C51.0426 88.0025 51.1504 87.9855 51.2561 87.9538C51.8119 87.7785 52.1205 87.1847 51.9451 86.6268L51.9493 86.6247Z" fill="#666666"/>
<path d="M13.942 12.7704L13.2741 10.5389C12.6739 8.53144 13.3143 6.3549 14.9057 4.99192C15.7193 4.29669 16.7824 4.04311 17.82 4.29458C18.845 4.54393 19.665 5.23915 20.075 6.20909L21.8461 9.74228C22.292 8.87377 22.5456 7.89116 22.5456 6.84726C22.5456 3.34577 19.7073 0.507812 16.2054 0.507812C12.7035 0.507812 9.86523 3.34577 9.86523 6.84726C9.86523 9.54998 11.5581 11.8575 13.942 12.7683V12.7704Z" fill="#FBB040"/>
<path d="M30.7095 12.2396C31.4196 12.9454 32.5629 12.9475 33.2625 12.2439C33.962 11.5402 33.9536 10.397 33.2413 9.69117L31.7303 8.19083L39.4357 8.20563C40.4332 8.20563 41.2342 7.40052 41.2257 6.40311C41.2173 5.4057 40.4036 4.59637 39.4061 4.59425L31.7007 4.57946L33.1885 3.08335C33.888 2.37967 33.8775 1.23646 33.1674 0.530667C32.4573 -0.175125 31.3139 -0.177238 30.6144 0.526441L24.8047 6.37141L30.7095 12.2396Z" fill="#FBB040"/>
</g>
<defs>
<clipPath id="clip0_4572_50255">
<rect width="52" height="88" fill="white"/>
</clipPath>
</defs>
</svg>
