<svg width="160" height="48" viewBox="0 0 160 48" fill="none" xmlns="http://www.w3.org/2000/svg">
<rect width="160" height="48" rx="10" fill="#242424"/>
<path d="M45.4086 24.6924C45.4194 23.8578 45.6411 23.0394 46.0531 22.3134C46.4651 21.5875 47.0541 20.9775 47.7652 20.5404C47.3135 19.8952 46.7175 19.3643 46.0247 18.9897C45.3319 18.6152 44.5612 18.4073 43.774 18.3827C42.0948 18.2064 40.4669 19.3875 39.6111 19.3875C38.7389 19.3875 37.4214 18.4002 36.0026 18.4294C35.085 18.459 34.1906 18.7259 33.4067 19.2039C32.6229 19.682 31.9762 20.3549 31.5297 21.1572C29.5957 24.5057 31.0383 29.4267 32.8909 32.1333C33.8178 33.4587 34.9011 34.9391 36.3186 34.8866C37.7056 34.8291 38.2237 34.0021 39.898 34.0021C41.5567 34.0021 42.0427 34.8866 43.489 34.8532C44.9773 34.8291 45.9151 33.522 46.8095 32.1841C47.4754 31.2397 47.9879 30.196 48.3279 29.0916C47.4632 28.7259 46.7253 28.1137 46.2061 27.3314C45.687 26.5491 45.4097 25.6313 45.4086 24.6924V24.6924Z" fill="white"/>
<path d="M42.6772 16.6024C43.4887 15.6282 43.8886 14.376 43.7917 13.1118C42.5519 13.242 41.4067 13.8346 40.5842 14.7714C40.182 15.2291 39.874 15.7615 39.6778 16.3383C39.4815 16.9151 39.4009 17.5249 39.4405 18.1328C40.0606 18.1392 40.6741 18.0048 41.2348 17.7397C41.7954 17.4746 42.2886 17.0858 42.6772 16.6024Z" fill="white"/>
<path d="M59.4414 11.8046C59.831 11.7767 60.222 11.8355 60.5861 11.977C60.9502 12.1184 61.2784 12.3389 61.547 12.6225C61.8156 12.9061 62.0178 13.2458 62.1393 13.6171C62.2607 13.9884 62.2981 14.3819 62.249 14.7695C62.249 16.6757 61.2188 17.7715 59.4414 17.7715H57.2861V11.8046H59.4414ZM58.2129 16.9276H59.3379C59.6163 16.9443 59.8949 16.8986 60.1534 16.794C60.412 16.6894 60.6439 16.5284 60.8324 16.3229C61.0209 16.1173 61.1612 15.8723 61.2431 15.6057C61.3249 15.3391 61.3463 15.0575 61.3057 14.7816C61.3434 14.5068 61.3198 14.227 61.2367 13.9624C61.1536 13.6977 61.0129 13.4547 60.8249 13.2508C60.6368 13.0468 60.406 12.887 60.1489 12.7828C59.8918 12.6785 59.6149 12.6325 59.3379 12.6478H58.2129V16.9276Z" fill="white"/>
<path d="M63.2962 15.518C63.2679 15.2221 63.3017 14.9235 63.3956 14.6415C63.4894 14.3594 63.6412 14.1001 63.8411 13.8801C64.041 13.6601 64.2848 13.4843 64.5566 13.364C64.8285 13.2438 65.1224 13.1816 65.4197 13.1816C65.717 13.1816 66.011 13.2438 66.2828 13.364C66.5547 13.4843 66.7984 13.6601 66.9983 13.8801C67.1983 14.1001 67.35 14.3594 67.4439 14.6415C67.5377 14.9235 67.5716 15.2221 67.5432 15.518C67.5721 15.8142 67.5386 16.1132 67.4451 16.3957C67.3515 16.6783 67.1998 16.9381 66.9998 17.1585C66.7998 17.3789 66.5559 17.5551 66.2838 17.6756C66.0117 17.7961 65.7173 17.8584 65.4197 17.8584C65.1221 17.8584 64.8278 17.7961 64.5556 17.6756C64.2835 17.5551 64.0396 17.3789 63.8396 17.1585C63.6396 16.9381 63.488 16.6783 63.3944 16.3957C63.3008 16.1132 63.2673 15.8142 63.2962 15.518V15.518ZM66.6292 15.518C66.6292 14.5419 66.1907 13.9711 65.4212 13.9711C64.6487 13.9711 64.2142 14.5419 64.2142 15.518C64.2142 16.5019 64.6487 17.0683 65.4212 17.0683C66.1907 17.0683 66.6292 16.498 66.6292 15.518H66.6292Z" fill="white"/>
<path d="M73.1885 17.7715H72.2666L71.3359 14.4551H71.2656L70.3389 17.7715H69.4258L68.1846 13.2686H69.0859L69.8926 16.7046H69.959L70.8848 13.2686H71.7373L72.6631 16.7046H72.7334L73.5361 13.2686H74.4248L73.1885 17.7715Z" fill="white"/>
<path d="M75.4688 13.2686H76.3242V13.9839H76.3906C76.5033 13.727 76.6933 13.5116 76.9342 13.3678C77.175 13.224 77.4548 13.1589 77.7344 13.1817C77.9535 13.1652 78.1735 13.1982 78.3781 13.2783C78.5827 13.3584 78.7666 13.4835 78.9163 13.6444C79.066 13.8052 79.1776 13.9977 79.2428 14.2075C79.308 14.4173 79.3251 14.6391 79.293 14.8565V17.7715H78.4043V15.0796C78.4043 14.356 78.0899 13.9961 77.4326 13.9961C77.2839 13.9892 77.1354 14.0145 76.9973 14.0704C76.8592 14.1262 76.7349 14.2112 76.6328 14.3196C76.5306 14.428 76.4532 14.5572 76.4056 14.6983C76.3581 14.8394 76.3417 14.9892 76.3574 15.1372V17.7715H75.4688L75.4688 13.2686Z" fill="white"/>
<path d="M80.709 11.5107H81.5977V17.7715H80.709V11.5107Z" fill="white"/>
<path d="M82.8333 15.5181C82.805 15.2222 82.8388 14.9236 82.9327 14.6415C83.0266 14.3594 83.1784 14.1001 83.3783 13.8801C83.5783 13.6601 83.822 13.4843 84.0939 13.364C84.3658 13.2438 84.6598 13.1816 84.957 13.1816C85.2543 13.1816 85.5483 13.2438 85.8202 13.364C86.0921 13.4843 86.3358 13.6601 86.5358 13.8801C86.7357 14.1001 86.8875 14.3594 86.9814 14.6415C87.0752 14.9236 87.1091 15.2222 87.0808 15.5181C87.1096 15.8143 87.0762 16.1133 86.9825 16.3958C86.8889 16.6784 86.7372 16.9382 86.5372 17.1586C86.3372 17.379 86.0933 17.5551 85.8211 17.6757C85.549 17.7962 85.2547 17.8584 84.957 17.8584C84.6594 17.8584 84.3651 17.7962 84.0929 17.6757C83.8208 17.5551 83.5769 17.379 83.3769 17.1586C83.1769 16.9382 83.0252 16.6784 82.9316 16.3958C82.8379 16.1133 82.8045 15.8143 82.8333 15.5181V15.5181ZM86.1663 15.5181C86.1663 14.542 85.7278 13.9712 84.9583 13.9712C84.1858 13.9712 83.7513 14.542 83.7513 15.5181C83.7513 16.502 84.1858 17.0684 84.9583 17.0684C85.7278 17.0684 86.1663 16.4981 86.1663 15.5181H86.1663Z" fill="white"/>
<path d="M88.0156 16.498C88.0156 15.6875 88.6191 15.2202 89.6904 15.1538L90.9102 15.0835V14.6948C90.9102 14.2192 90.5957 13.9507 89.9883 13.9507C89.4922 13.9507 89.1484 14.1328 89.0498 14.4512H88.1895C88.2803 13.6777 89.0078 13.1816 90.0293 13.1816C91.1582 13.1816 91.7949 13.7436 91.7949 14.6948V17.7715H90.9395V17.1387H90.8691C90.7264 17.3657 90.526 17.5507 90.2884 17.6749C90.0508 17.7991 89.7844 17.8581 89.5166 17.8457C89.3276 17.8653 89.1365 17.8452 88.9557 17.7865C88.775 17.7278 88.6085 17.6318 88.4671 17.5049C88.3257 17.3779 88.2125 17.2227 88.1347 17.0493C88.0569 16.8759 88.0164 16.6881 88.0156 16.498V16.498ZM90.9102 16.1133V15.7368L89.8105 15.8071C89.1904 15.8486 88.9092 16.0596 88.9092 16.4565C88.9092 16.8618 89.2607 17.0976 89.7442 17.0976C89.8858 17.112 90.0289 17.0977 90.1649 17.0556C90.3009 17.0135 90.4271 16.9445 90.5358 16.8526C90.6446 16.7608 90.7338 16.648 90.7981 16.521C90.8624 16.394 90.9005 16.2553 90.9102 16.1133V16.1133Z" fill="white"/>
<path d="M92.9629 15.5181C92.9629 14.0952 93.6943 13.1939 94.832 13.1939C95.1134 13.1809 95.3927 13.2483 95.6373 13.3882C95.8818 13.5281 96.0814 13.7347 96.2129 13.9839H96.2793V11.5107H97.168V17.7715H96.3164V17.0601H96.2461C96.1045 17.3075 95.8979 17.5116 95.6486 17.6501C95.3994 17.7885 95.117 17.8562 94.832 17.8457C93.6865 17.8457 92.9629 16.9444 92.9629 15.5181ZM93.8809 15.5181C93.8809 16.4732 94.3311 17.0479 95.084 17.0479C95.833 17.0479 96.2959 16.4649 96.2959 15.522C96.2959 14.5835 95.8282 13.9922 95.084 13.9922C94.3359 13.9922 93.8809 14.5708 93.8809 15.5181H93.8809Z" fill="white"/>
<path d="M100.845 15.518C100.817 15.2221 100.851 14.9235 100.944 14.6415C101.038 14.3594 101.19 14.1001 101.39 13.8801C101.59 13.6601 101.834 13.4843 102.105 13.364C102.377 13.2438 102.671 13.1816 102.969 13.1816C103.266 13.1816 103.56 13.2438 103.832 13.364C104.103 13.4843 104.347 13.6601 104.547 13.8801C104.747 14.1001 104.899 14.3594 104.993 14.6415C105.087 14.9235 105.12 15.2221 105.092 15.518C105.121 15.8142 105.087 16.1132 104.994 16.3957C104.9 16.6783 104.749 16.9381 104.549 17.1585C104.349 17.3789 104.105 17.5551 103.833 17.6756C103.56 17.7961 103.266 17.8584 102.969 17.8584C102.671 17.8584 102.377 17.7961 102.104 17.6756C101.832 17.5551 101.588 17.3789 101.388 17.1585C101.188 16.9381 101.037 16.6783 100.943 16.3957C100.85 16.1132 100.816 15.8142 100.845 15.518V15.518ZM104.178 15.518C104.178 14.5419 103.74 13.9711 102.97 13.9711C102.198 13.9711 101.763 14.5419 101.763 15.518C101.763 16.5019 102.198 17.0683 102.97 17.0683C103.74 17.0683 104.178 16.498 104.178 15.518Z" fill="white"/>
<path d="M106.284 13.2686H107.14V13.9839H107.206C107.319 13.727 107.509 13.5116 107.75 13.3678C107.99 13.224 108.27 13.1589 108.55 13.1817C108.769 13.1652 108.989 13.1982 109.194 13.2783C109.398 13.3584 109.582 13.4835 109.732 13.6444C109.881 13.8052 109.993 13.9977 110.058 14.2075C110.123 14.4173 110.141 14.6391 110.108 14.8565V17.7715H109.22V15.0796C109.22 14.356 108.905 13.9961 108.248 13.9961C108.099 13.9892 107.951 14.0145 107.813 14.0704C107.675 14.1262 107.55 14.2112 107.448 14.3196C107.346 14.428 107.269 14.5572 107.221 14.6983C107.174 14.8394 107.157 14.9892 107.173 15.1372V17.7715H106.284V13.2686Z" fill="white"/>
<path d="M115.13 12.1475V13.2891H116.105V14.0376H115.13V16.353C115.13 16.8247 115.324 17.0312 115.767 17.0312C115.88 17.0309 115.993 17.024 116.105 17.0107V17.751C115.946 17.7795 115.784 17.7947 115.622 17.7964C114.634 17.7964 114.24 17.4487 114.24 16.5806V14.0376H113.525V13.289H114.24V12.1475H115.13Z" fill="white"/>
<path d="M117.32 11.5107H118.201V13.9922H118.271C118.39 13.7329 118.585 13.5163 118.831 13.3719C119.076 13.2276 119.36 13.1625 119.644 13.1856C119.862 13.1737 120.08 13.2101 120.283 13.2921C120.485 13.3742 120.667 13.4998 120.815 13.6602C120.963 13.8205 121.074 14.0116 121.14 14.2197C121.205 14.4278 121.224 14.6479 121.195 14.8643V17.7715H120.306V15.0835C120.306 14.3643 119.971 14 119.343 14C119.19 13.9875 119.036 14.0085 118.893 14.0615C118.749 14.1146 118.618 14.1984 118.51 14.3071C118.402 14.4159 118.32 14.5469 118.267 14.691C118.215 14.8352 118.195 14.9889 118.209 15.1416V17.7715H117.32L117.32 11.5107Z" fill="white"/>
<path d="M126.377 16.5557C126.256 16.9673 125.994 17.3233 125.638 17.5614C125.281 17.7996 124.852 17.9047 124.425 17.8585C124.129 17.8663 123.834 17.8095 123.561 17.6919C123.289 17.5744 123.045 17.399 122.847 17.1779C122.649 16.9567 122.502 16.6952 122.415 16.4113C122.329 16.1275 122.305 15.8282 122.345 15.5343C122.306 15.2394 122.33 14.9394 122.417 14.6548C122.503 14.3701 122.65 14.1073 122.847 13.8843C123.044 13.6612 123.286 13.483 123.558 13.3618C123.829 13.2406 124.124 13.1792 124.422 13.1817C125.674 13.1817 126.43 14.0377 126.43 15.4517V15.7618H123.251V15.8116C123.237 15.9769 123.258 16.1432 123.312 16.2999C123.366 16.4567 123.452 16.6004 123.565 16.7218C123.678 16.8433 123.815 16.9398 123.967 17.0052C124.12 17.0706 124.284 17.1034 124.45 17.1016C124.662 17.1271 124.878 17.0888 125.069 16.9916C125.259 16.8944 125.417 16.7427 125.521 16.5557L126.377 16.5557ZM123.251 15.1046H125.525C125.536 14.9534 125.516 14.8016 125.465 14.6589C125.414 14.5162 125.334 14.3857 125.229 14.2759C125.125 14.166 124.999 14.0792 124.859 14.021C124.719 13.9629 124.568 13.9346 124.417 13.9381C124.263 13.9361 124.11 13.965 123.968 14.0229C123.826 14.0809 123.696 14.1667 123.588 14.2755C123.479 14.3842 123.393 14.5135 123.335 14.6559C123.277 14.7983 123.249 14.9509 123.251 15.1046H123.251Z" fill="white"/>
<path d="M62.2031 30.1377H57.4697L56.333 33.4942H54.3281L58.8115 21.0762H60.8945L65.3779 33.4942H63.3389L62.2031 30.1377ZM57.96 28.5889H61.712L59.8623 23.1416H59.8106L57.96 28.5889Z" fill="white"/>
<path d="M75.0606 28.968C75.0606 31.7815 73.5547 33.5891 71.2823 33.5891C70.7066 33.6192 70.1341 33.4866 69.6303 33.2064C69.1265 32.9263 68.7118 32.51 68.4336 32.0051H68.3906V36.4895H66.5322V24.4406H68.3311V25.9465H68.3653C68.6562 25.444 69.0779 25.0298 69.5856 24.748C70.0932 24.4661 70.6678 24.3272 71.2481 24.3459C73.5459 24.3459 75.0606 26.1623 75.0606 28.968ZM73.1504 28.968C73.1504 27.135 72.2031 25.9299 70.7578 25.9299C69.3379 25.9299 68.3828 27.1604 68.3828 28.968C68.3828 30.7922 69.3379 32.0139 70.7578 32.0139C72.2032 32.0139 73.1504 30.8176 73.1504 28.968Z" fill="white"/>
<path d="M85.0254 28.968C85.0254 31.7815 83.5196 33.5891 81.2471 33.5891C80.6714 33.6192 80.0989 33.4866 79.5952 33.2064C79.0914 32.9263 78.6766 32.51 78.3985 32.0051H78.3555V36.4894H76.4971V24.4406H78.2959V25.9465H78.3301C78.621 25.444 79.0428 25.0298 79.5504 24.748C80.058 24.4661 80.6326 24.3272 81.2129 24.3459C83.5108 24.3459 85.0254 26.1623 85.0254 28.968ZM83.1153 28.968C83.1153 27.135 82.168 25.9299 80.7227 25.9299C79.3028 25.9299 78.3477 27.1604 78.3477 28.968C78.3477 30.7922 79.3028 32.0139 80.7227 32.0139C82.168 32.0139 83.1153 30.8176 83.1153 28.968H83.1153Z" fill="white"/>
<path d="M91.6114 30.0342C91.7491 31.2657 92.9454 32.0742 94.5801 32.0742C96.1465 32.0742 97.2735 31.2656 97.2735 30.1553C97.2735 29.1914 96.5938 28.6143 94.9844 28.2188L93.375 27.8311C91.0948 27.2803 90.0362 26.2139 90.0362 24.4834C90.0362 22.3408 91.9034 20.8691 94.5547 20.8691C97.1787 20.8691 98.9776 22.3408 99.0381 24.4834H97.1621C97.0498 23.2441 96.0254 22.4961 94.5283 22.4961C93.0313 22.4961 92.0068 23.2529 92.0068 24.3545C92.0068 25.2324 92.6611 25.749 94.2617 26.1445L95.6299 26.4804C98.1777 27.083 99.2363 28.1064 99.2363 29.9228C99.2363 32.2461 97.3857 33.7011 94.4424 33.7011C91.6885 33.7011 89.8291 32.2802 89.709 30.0341L91.6114 30.0342Z" fill="white"/>
<path d="M103.247 22.2979V24.4404H104.969V25.9121H103.247V30.9033C103.247 31.6787 103.592 32.04 104.349 32.04C104.553 32.0365 104.757 32.0221 104.96 31.997V33.4599C104.62 33.5235 104.274 33.5523 103.928 33.5459C102.095 33.5459 101.38 32.8574 101.38 31.1015V25.9121H100.063V24.4404H101.38V22.2979H103.247Z" fill="white"/>
<path d="M105.966 28.9678C105.966 26.1191 107.644 24.3291 110.26 24.3291C112.885 24.3291 114.555 26.1191 114.555 28.9678C114.555 31.8242 112.894 33.6064 110.26 33.6064C107.627 33.6064 105.966 31.8242 105.966 28.9678ZM112.661 28.9678C112.661 27.0137 111.766 25.8604 110.26 25.8604C108.754 25.8604 107.859 27.0225 107.859 28.9678C107.859 30.9297 108.754 32.0742 110.26 32.0742C111.766 32.0742 112.661 30.9297 112.661 28.9678H112.661Z" fill="white"/>
<path d="M116.087 24.4406H117.859V25.9816H117.902C118.022 25.5003 118.304 25.0749 118.701 24.777C119.097 24.4792 119.584 24.3269 120.08 24.3458C120.294 24.3451 120.508 24.3683 120.717 24.4152V26.1534C120.446 26.0708 120.164 26.0329 119.882 26.0411C119.612 26.0302 119.343 26.0778 119.093 26.1807C118.843 26.2836 118.618 26.4393 118.434 26.6372C118.25 26.8351 118.111 27.0704 118.027 27.3271C117.943 27.5838 117.915 27.8557 117.945 28.1241V33.4943H116.087L116.087 24.4406Z" fill="white"/>
<path d="M129.285 30.835C129.035 32.4785 127.435 33.6064 125.387 33.6064C122.753 33.6064 121.118 31.8418 121.118 29.0107C121.118 26.1709 122.762 24.3291 125.309 24.3291C127.813 24.3291 129.389 26.0498 129.389 28.7949V29.4316H122.994V29.5439C122.965 29.8771 123.006 30.2128 123.117 30.5286C123.227 30.8445 123.403 31.1333 123.633 31.3758C123.864 31.6184 124.143 31.8091 124.453 31.9354C124.762 32.0617 125.095 32.1207 125.43 32.1084C125.869 32.1495 126.31 32.0478 126.686 31.8184C127.063 31.5889 127.356 31.244 127.521 30.835L129.285 30.835ZM123.003 28.1328H127.529C127.546 27.8332 127.501 27.5334 127.396 27.2522C127.291 26.971 127.13 26.7144 126.921 26.4987C126.712 26.2829 126.462 26.1126 126.184 25.9984C125.907 25.8841 125.609 25.8285 125.309 25.835C125.006 25.8332 124.706 25.8913 124.426 26.006C124.146 26.1208 123.891 26.2899 123.677 26.5035C123.463 26.7171 123.293 26.9711 123.177 27.2507C123.061 27.5304 123.002 27.8302 123.003 28.1328V28.1328Z" fill="white"/>
</svg>
