<svg width="48" height="48" viewBox="0 0 48 48" fill="none" xmlns="http://www.w3.org/2000/svg">
<path fill-rule="evenodd" clip-rule="evenodd" d="M9 6C7.34315 6 6 7.34315 6 9V39C6 40.6569 7.34315 42 9 42H39C40.6569 42 42 40.6569 42 39V9C42 7.34315 40.6569 6 39 6H9ZM23.5144 11C26.8545 11.0012 29.9897 12.3012 32.3473 14.66C34.7049 17.02 36.0025 20.1563 36 23.4925C35.9962 30.3738 30.3947 35.9738 23.5131 35.9738H23.5081C21.418 35.9725 19.3654 35.4488 17.5416 34.4538L11 36L12.6938 29.7212C11.6013 27.8287 11.0263 25.6812 11.0275 23.4813C11.03 16.5987 16.6315 11 23.5144 11ZM27.5171 29.425C28.0896 29.3737 29.3634 28.6712 29.6234 27.9425C29.8834 27.2137 29.8834 26.5887 29.8059 26.46C29.7436 26.3555 29.5973 26.2849 29.3799 26.1801C29.3269 26.1545 29.2697 26.1269 29.2084 26.0962C28.8971 25.94 27.3633 25.185 27.0771 25.0812C26.7908 24.9775 26.582 24.925 26.3745 25.2375C26.167 25.55 25.5695 26.2525 25.387 26.46C25.2045 26.6688 25.0232 26.695 24.7107 26.5387C24.6588 26.5126 24.588 26.4818 24.5004 26.4437C24.0599 26.252 23.1965 25.8762 22.2018 24.99C21.2743 24.1637 20.6492 23.1425 20.4667 22.83C20.2855 22.5187 20.448 22.3488 20.6042 22.1938C20.6974 22.1006 20.8044 21.9704 20.9116 21.8399C20.9655 21.7743 21.0195 21.7086 21.0718 21.6475C21.204 21.4918 21.2616 21.3744 21.3401 21.2144C21.3536 21.1868 21.3678 21.158 21.383 21.1275C21.4868 20.92 21.4343 20.7375 21.3568 20.5813C21.3242 20.5157 21.1986 20.206 21.0432 19.823C20.8283 19.2933 20.5565 18.6234 20.3955 18.265C20.1617 17.7463 19.9154 17.735 19.6929 17.7262C19.5117 17.7188 19.3029 17.7188 19.0954 17.7188C18.8866 17.7188 18.5491 17.7962 18.2629 18.1087C18.245 18.1282 18.225 18.1494 18.2034 18.1724C17.8789 18.5175 17.1703 19.271 17.1703 20.71C17.1703 22.2351 18.2734 23.7083 18.441 23.932L18.4441 23.9362C18.4557 23.9518 18.4776 23.9843 18.5095 24.0317C18.905 24.6185 20.8387 27.4884 23.7731 28.645C26.156 29.5843 26.8226 29.5056 27.3518 29.4431C27.4078 29.4365 27.4623 29.43 27.5171 29.425Z" fill="#2EC56E"/>
</svg>
