<svg width="160" height="48" viewBox="0 0 160 48" fill="none" xmlns="http://www.w3.org/2000/svg">
<rect width="160" height="48" rx="10" fill="#242424"/>
<path fill-rule="evenodd" clip-rule="evenodd" d="M23.7621 11.5302C23.474 11.8419 23.3076 12.3183 23.3076 12.9417V35.0539C23.3076 35.6774 23.474 36.1537 23.772 36.4529L23.849 36.5202L36.1872 24.1312V23.8544L23.8391 11.4629L23.7621 11.5302Z" fill="url(#paint0_linear_3556_47453)"/>
<path fill-rule="evenodd" clip-rule="evenodd" d="M40.293 28.2733L36.1777 24.1412V23.8519L40.293 19.7197L40.3824 19.7746L45.2501 22.5526C46.6434 23.3407 46.6434 24.6424 45.2501 25.4404L40.3824 28.2185L40.293 28.2733Z" fill="url(#paint1_linear_3556_47453)"/>
<path fill-rule="evenodd" clip-rule="evenodd" d="M40.3815 28.2185L36.1769 23.9966L23.7617 36.4629C24.2162 36.9517 24.9787 37.0066 25.8305 36.5302L40.3815 28.2185Z" fill="url(#paint2_linear_3556_47453)"/>
<path fill-rule="evenodd" clip-rule="evenodd" d="M40.3815 19.7745L25.8305 11.4753C24.9787 10.9865 24.2137 11.0538 23.7617 11.5426L36.1769 23.9965L40.3815 19.7745Z" fill="url(#paint3_linear_3556_47453)"/>
<path d="M82.3281 16.7158C81.4266 16.7158 80.6667 16.3991 80.0656 15.7757C79.4696 15.1697 79.1368 14.3343 79.1517 13.4814C79.1517 12.5712 79.4597 11.8006 80.0656 11.1897C80.6642 10.5662 81.4241 10.2495 82.3256 10.2495C83.2172 10.2495 83.9772 10.5662 84.5881 11.1897C85.1941 11.8206 85.5021 12.5912 85.5021 13.4814C85.4921 14.3942 85.1842 15.1647 84.5881 15.7732C83.9896 16.4016 83.2296 16.7158 82.3281 16.7158ZM55.5036 16.7158C54.622 16.7158 53.8571 16.4041 53.2312 15.7882C52.6103 15.1747 52.2949 14.3991 52.2949 13.4839C52.2949 12.5687 52.6103 11.7932 53.2312 11.1797C53.8446 10.5637 54.6096 10.252 55.5036 10.252C55.9407 10.252 56.3654 10.3393 56.7727 10.5163C57.1726 10.6884 57.4979 10.9228 57.7388 11.2096L57.7984 11.2819L57.1254 11.9453L57.0558 11.863C56.6758 11.4091 56.1667 11.1872 55.4937 11.1872C54.8927 11.1872 54.3687 11.4016 53.9365 11.8256C53.5019 12.252 53.2809 12.8106 53.2809 13.4864C53.2809 14.1622 53.5019 14.7208 53.9365 15.1473C54.3687 15.5712 54.8927 15.7857 55.4937 15.7857C56.1344 15.7857 56.6734 15.5712 57.0931 15.1473C57.3414 14.8979 57.4954 14.5488 57.55 14.1074H55.3919V13.1747H58.4764L58.4888 13.2595C58.5112 13.4166 58.5335 13.5787 58.5335 13.7283C58.5335 14.5887 58.2752 15.2844 57.7636 15.7981C57.1825 16.4066 56.4225 16.7158 55.5036 16.7158ZM91.1695 16.5837H90.2183L87.3051 11.9029L87.3299 12.7458V16.5812H86.3787V10.3842H87.464L87.4939 10.4316L90.2332 14.8405L90.2083 14.0001V10.3842H91.1695V16.5837ZM75.1806 16.5837H74.217V11.3168H72.5455V10.3842H76.8495V11.3168H75.1781V16.5837H75.1806ZM71.7608 16.5837H70.7996V10.3842H71.7608V16.5837ZM66.3591 16.5837H65.398V11.3168H63.7266V10.3842H68.0305V11.3168H66.3591V16.5837ZM63.1181 16.5737H59.4326V10.3842H63.1181V11.3168H60.3962V13.0176H62.8524V13.9403H60.3962V15.641H63.1181V16.5737ZM80.771 15.1348C81.2006 15.5662 81.7222 15.7832 82.3281 15.7832C82.9515 15.7832 83.4606 15.5712 83.8853 15.1348C84.3075 14.7109 84.5211 14.1547 84.5211 13.4839C84.5211 12.8131 84.3075 12.2545 83.8878 11.8331C83.4581 11.4016 82.9341 11.1847 82.3306 11.1847C81.7072 11.1847 81.1981 11.3966 80.7759 11.8331C80.3537 12.257 80.1401 12.8131 80.1401 13.4839C80.1401 14.1547 80.3512 14.7134 80.771 15.1348Z" fill="white"/>
<path fill-rule="evenodd" clip-rule="evenodd" d="M79.2513 25.439C76.9043 25.439 75.0019 27.227 75.0019 29.6934C75.0019 32.1373 76.9167 33.9477 79.2513 33.9477C81.5982 33.9477 83.5006 32.1472 83.5006 29.6934C83.5006 27.227 81.5982 25.439 79.2513 25.439ZM79.2513 32.262C77.9673 32.262 76.8621 31.1946 76.8621 29.6834C76.8621 28.1497 77.9697 27.1048 79.2513 27.1048C80.5352 27.1048 81.6404 28.1497 81.6404 29.6834C81.6429 31.2046 80.5352 32.262 79.2513 32.262ZM69.9802 25.439C67.6333 25.439 65.7309 27.227 65.7309 29.6934C65.7309 32.1373 67.6457 33.9477 69.9802 33.9477C72.3271 33.9477 74.2295 32.1472 74.2295 29.6934C74.2295 27.227 72.3247 25.439 69.9802 25.439ZM69.9802 32.262C68.6962 32.262 67.591 31.1946 67.591 29.6834C67.591 28.1497 68.6987 27.1048 69.9802 27.1048C71.2642 27.1048 72.3694 28.1497 72.3694 29.6834C72.3694 31.2046 71.2642 32.262 69.9802 32.262ZM58.9483 26.7383V28.5388H63.2523C63.1207 29.5487 62.7879 30.2944 62.2787 30.8056C61.6479 31.439 60.6744 32.1273 58.9583 32.1273C56.3133 32.1273 54.2445 29.9827 54.2445 27.3268C54.2445 24.6709 56.3133 22.5263 58.9583 22.5263C60.3863 22.5263 61.4269 23.0924 62.1993 23.8156L63.4708 22.5388C62.398 21.5063 60.9699 20.7158 58.9682 20.7158C55.3397 20.7158 52.2949 23.6834 52.2949 27.3168C52.2949 30.9602 55.3373 33.9178 58.9682 33.9178C60.9277 33.9178 62.398 33.2744 63.5603 32.0625C64.7449 30.8729 65.1199 29.1946 65.1199 27.8405C65.1199 27.4191 65.0876 27.04 65.0206 26.7183H58.9458C58.9483 26.7158 58.9483 26.7383 58.9483 26.7383ZM104.072 28.1398C103.717 27.1846 102.644 25.429 100.443 25.429C98.2627 25.429 96.4498 27.1522 96.4498 29.6834C96.4498 32.0724 98.2429 33.9378 100.654 33.9378C102.592 33.9378 103.719 32.7482 104.183 32.05L102.746 31.0824C102.269 31.7931 101.606 32.2595 100.664 32.2595C99.7131 32.2595 99.0475 31.8255 98.6055 30.9702L104.27 28.6136C104.27 28.6161 104.072 28.1398 104.072 28.1398ZM98.295 29.5612C98.2503 27.9178 99.5666 27.0824 100.508 27.0824C101.25 27.0824 101.869 27.449 102.08 27.9827L98.295 29.5612ZM93.693 33.6834H95.5532V21.1846H93.693V33.6834ZM90.6383 26.3841H90.5712C90.1515 25.8829 89.3543 25.429 88.336 25.429C86.2225 25.429 84.2754 27.2969 84.2754 29.6959C84.2754 32.0849 86.2126 33.9303 88.336 33.9303C89.3419 33.9303 90.1515 33.4739 90.5712 32.9627H90.6383V33.5737C90.6383 35.1971 89.774 36.0724 88.3807 36.0724C87.2408 36.0724 86.533 35.2495 86.2449 34.5612L84.6281 35.2395C85.0925 36.3617 86.3318 37.7507 88.3783 37.7507C90.5588 37.7507 92.4066 36.4615 92.4066 33.3168V25.6834H90.6482V26.3841C90.6507 26.3841 90.6383 26.3841 90.6383 26.3841ZM88.5024 32.262C87.2184 32.262 86.1455 31.1846 86.1455 29.6959C86.1455 28.1946 87.2184 27.1073 88.5024 27.1073C89.774 27.1073 90.76 28.2071 90.76 29.6959C90.7724 31.1846 89.7765 32.262 88.5024 32.262ZM112.781 21.1846H108.333V33.6834H110.194V28.9502H112.784C114.843 28.9502 116.867 27.4515 116.867 25.0724C116.867 22.6934 114.85 21.1846 112.781 21.1846ZM112.836 27.2046H110.191V22.9153H112.836C114.229 22.9153 115.017 24.0699 115.017 25.06C115.017 26.04 114.219 27.2046 112.836 27.2046ZM124.323 25.4166C122.971 25.4166 121.578 26.0176 121.002 27.3268L122.651 28.0151C123.006 27.3268 123.657 27.0924 124.345 27.0924C125.308 27.0924 126.282 27.6709 126.304 28.7034V28.8355C125.972 28.646 125.241 28.3567 124.367 28.3567C122.587 28.3567 120.781 29.3343 120.781 31.1672C120.781 32.8455 122.241 33.9228 123.868 33.9228C125.117 33.9228 125.805 33.3567 126.235 32.7009H126.302V33.6684H128.095V28.8804C128.095 26.651 126.446 25.4166 124.323 25.4166ZM124.089 32.262C123.481 32.262 122.629 31.9627 122.629 31.1946C122.629 30.227 123.692 29.8605 124.598 29.8605C125.418 29.8605 125.805 30.0375 126.292 30.2819C126.158 31.4041 125.214 32.252 124.089 32.262ZM134.637 25.6834L132.501 31.1048H132.434L130.221 25.6834H128.219L131.54 33.262L129.647 37.4739H131.584L136.693 25.6834H134.637ZM117.893 33.6834H119.753V21.1846H117.893V33.6834Z" fill="white"/>
<defs>
<linearGradient id="paint0_linear_3556_47453" x1="35.0805" y1="12.7031" x2="15.3061" y2="17.9504" gradientUnits="userSpaceOnUse">
<stop stop-color="#00A0FF"/>
<stop offset="0.00657" stop-color="#00A1FF"/>
<stop offset="0.2601" stop-color="#00BEFF"/>
<stop offset="0.5122" stop-color="#00D2FF"/>
<stop offset="0.7604" stop-color="#00DFFF"/>
<stop offset="1" stop-color="#00E3FF"/>
</linearGradient>
<linearGradient id="paint1_linear_3556_47453" x1="47.0671" y1="23.9966" x2="22.9694" y2="23.9966" gradientUnits="userSpaceOnUse">
<stop stop-color="#FFE000"/>
<stop offset="0.4087" stop-color="#FFBD00"/>
<stop offset="0.7754" stop-color="#FFA500"/>
<stop offset="1" stop-color="#FF9C00"/>
</linearGradient>
<linearGradient id="paint2_linear_3556_47453" x1="38.0952" y1="26.2939" x2="22.1325" y2="53.0504" gradientUnits="userSpaceOnUse">
<stop stop-color="#FF3A44"/>
<stop offset="1" stop-color="#C31162"/>
</linearGradient>
<linearGradient id="paint3_linear_3556_47453" x1="20.6354" y1="4.17527" x2="27.7571" y2="16.1252" gradientUnits="userSpaceOnUse">
<stop stop-color="#32A071"/>
<stop offset="0.0685" stop-color="#2DA771"/>
<stop offset="0.4762" stop-color="#15CF74"/>
<stop offset="0.8009" stop-color="#06E775"/>
<stop offset="1" stop-color="#00F076"/>
</linearGradient>
</defs>
</svg>
