<svg width="9" height="6" viewBox="0 0 9 6" fill="none" xmlns="http://www.w3.org/2000/svg">
<path d="M4.24396 5.47618L0.742277 1.97961C0.661241 1.89853 0.615723 1.78862 0.615723 1.67402C0.615723 1.55943 0.661241 1.44952 0.742277 1.36844L1.151 0.959953C1.23208 0.87928 1.34183 0.833984 1.45624 0.833984C1.57065 0.833984 1.6804 0.87928 1.76148 0.959953L4.54972 3.73413L7.33796 0.959953C7.41904 0.87928 7.52879 0.833984 7.6432 0.833984C7.75761 0.833984 7.86736 0.87928 7.94844 0.959953L8.35716 1.36844C8.43819 1.44952 8.48371 1.55943 8.48371 1.67402C8.48371 1.78862 8.43819 1.89853 8.35716 1.97961L4.85548 5.4793C4.77435 5.56029 4.66438 5.60578 4.54972 5.60578C4.43505 5.60578 4.32508 5.56029 4.24396 5.4793V5.47618Z" fill="#BCBCBC"/>
</svg>
