<svg width="21" height="21" viewBox="0 0 21 21" fill="none" xmlns="http://www.w3.org/2000/svg">
<g clip-path="url(#clip0_3_7717)">
<path d="M20.48 10.24C20.4798 12.9557 19.4008 15.5602 17.4805 17.4805C15.5602 19.4008 12.9557 20.4797 10.24 20.48C7.52474 20.4782 4.92125 19.3987 3.00128 17.4787C1.08131 15.5588 0.00185423 12.9553 0 10.24C0.00026517 7.52427 1.0792 4.91984 2.99951 2.99953C4.91983 1.07921 7.52425 0.00026517 10.24 0V10.24H20.48Z" fill="#E2E2E2"/>
<path d="M20.48 10.24H10.24V1.75997e-06C11.5849 -0.000786995 12.9169 0.263551 14.1596 0.77788C15.4023 1.29221 16.5315 2.04644 17.4825 2.99747C18.4336 3.9485 19.1878 5.07766 19.7021 6.32039C20.2165 7.56312 20.4808 8.89505 20.48 10.24Z" fill="#1A374D"/>
</g>
<defs>
<clipPath id="clip0_3_7717">
<rect width="20.48" height="20.48" fill="white"/>
</clipPath>
</defs>
</svg>
