<svg width="21" height="21" viewBox="0 0 21 21" fill="none" xmlns="http://www.w3.org/2000/svg">
<g clip-path="url(#clip0_3_7721)">
<path d="M10.241 20.482C15.8969 20.482 20.482 15.8969 20.482 10.241C20.482 4.58505 15.8969 0 10.241 0C4.58505 0 0 4.58505 0 10.241C0 15.8969 4.58505 20.482 10.241 20.482Z" fill="#1A374D"/>
<path d="M10.52 5.603L11.9089 8.41699L15.0089 8.868C15.067 8.87637 15.1216 8.90083 15.1665 8.93863C15.2113 8.97642 15.2447 9.02603 15.2628 9.08183C15.2809 9.13763 15.283 9.19739 15.2689 9.25433C15.2548 9.31127 15.225 9.36311 15.1829 9.40399L12.9359 11.594L13.4669 14.687C13.477 14.7449 13.4707 14.8045 13.4486 14.859C13.4264 14.9135 13.3894 14.9607 13.3418 14.9952C13.2942 15.0297 13.2378 15.0501 13.1792 15.0541C13.1205 15.0582 13.0619 15.0456 13.01 15.018L10.2329 13.558L7.45595 15.018C7.40405 15.0456 7.34543 15.0582 7.28676 15.0541C7.22809 15.0501 7.17173 15.0297 7.1241 14.9952C7.07647 14.9607 7.03947 14.9135 7.01735 14.859C6.99522 14.8045 6.98888 14.7449 6.99898 14.687L7.52998 11.594L5.28297 9.40399C5.2409 9.36311 5.21109 9.31127 5.19697 9.25433C5.18286 9.19739 5.18496 9.13763 5.20308 9.08183C5.22119 9.02603 5.25458 8.97642 5.29945 8.93863C5.34432 8.90083 5.39886 8.87637 5.45692 8.868L8.56196 8.41699L9.95094 5.603C9.97622 5.54887 10.0165 5.50308 10.0668 5.47099C10.1172 5.43891 10.1757 5.42188 10.2354 5.42188C10.2952 5.42188 10.3537 5.43891 10.4041 5.47099C10.4545 5.50308 10.4947 5.54887 10.52 5.603Z" fill="white"/>
</g>
<defs>
<clipPath id="clip0_3_7721">
<rect width="20.482" height="20.482" fill="white"/>
</clipPath>
</defs>
</svg>
