<svg width="21" height="18" viewBox="0 0 21 18" fill="none" xmlns="http://www.w3.org/2000/svg">
<g clip-path="url(#clip0_3_7713)">
<path d="M20.017 3.944L17.859 0.5C17.7632 0.347569 17.6305 0.221814 17.4732 0.134399C17.3158 0.0469852 17.1389 0.000748187 16.959 0H3.52395C3.3439 0.000469275 3.16694 0.046593 3.00955 0.134033C2.85216 0.221473 2.71951 0.347375 2.62399 0.5L0.464994 3.944C0.198596 4.35377 0.0374984 4.823 -0.0038781 5.31C-0.0452546 5.797 0.034363 6.28669 0.227811 6.73553C0.42126 7.18437 0.72257 7.57845 1.10501 7.88278C1.48745 8.18712 1.93913 8.39229 2.41995 8.48001C2.57079 8.49998 2.72281 8.51001 2.87497 8.51001C3.33863 8.5103 3.79711 8.41243 4.22024 8.22284C4.64337 8.03325 5.02158 7.75623 5.32998 7.41C5.61687 7.73236 5.96445 7.99503 6.35287 8.18301C6.7413 8.371 7.16292 8.4806 7.59372 8.50558C8.02452 8.53057 8.45607 8.47044 8.86362 8.32861C9.27116 8.18678 9.64674 7.96602 9.96896 7.67899C10.0638 7.59463 10.1536 7.50483 10.2379 7.41C10.5248 7.73236 10.8724 7.99503 11.2608 8.18301C11.6493 8.371 12.0709 8.4806 12.5017 8.50558C12.9325 8.53057 13.364 8.47044 13.7716 8.32861C14.1791 8.18678 14.5548 7.96602 14.877 7.67899C14.9718 7.59464 15.0616 7.50484 15.146 7.41C15.4545 7.75575 15.8326 8.03246 16.2555 8.22202C16.6784 8.41157 17.1365 8.50971 17.5999 8.51001C17.7524 8.51 17.9048 8.49998 18.056 8.48001C18.5377 8.39379 18.9906 8.18961 19.3742 7.88574C19.7578 7.58187 20.0602 7.18776 20.2544 6.73856C20.4486 6.28935 20.5286 5.79903 20.4872 5.3114C20.4457 4.82377 20.2842 4.354 20.017 3.944ZM17.606 9.577C17.2759 9.57384 16.9474 9.53223 16.627 9.453V12.769H3.85599V9.453C3.53474 9.53175 3.20568 9.57433 2.87497 9.57999C2.67427 9.57985 2.47384 9.56616 2.27499 9.539C2.0908 9.51193 1.90866 9.47218 1.72995 9.42001V15.961C1.72968 16.1005 1.75696 16.2388 1.81015 16.3678C1.86334 16.4968 1.94141 16.6141 2.03995 16.7129C2.13848 16.8117 2.25556 16.8901 2.38443 16.9437C2.51329 16.9972 2.65143 17.0249 2.79098 17.025H17.6909C17.8305 17.0253 17.9687 16.998 18.0977 16.9448C18.2268 16.8916 18.344 16.8135 18.4428 16.715C18.5417 16.6165 18.6201 16.4994 18.6737 16.3706C18.7272 16.2417 18.7548 16.1035 18.755 15.964V9.41699C18.5769 9.47198 18.3947 9.51211 18.21 9.53699C18.0098 9.56377 17.808 9.57714 17.606 9.577V9.577Z" fill="#1A374D"/>
</g>
<defs>
<clipPath id="clip0_3_7713">
<rect width="20.482" height="17.025" fill="white"/>
</clipPath>
</defs>
</svg>
