<svg width="21" height="18" viewBox="0 0 21 18" fill="none" xmlns="http://www.w3.org/2000/svg">
<g clip-path="url(#clip0_3_8264)">
<path d="M20.101 6.94L18.381 5.22101C18.1525 4.99292 17.8428 4.86489 17.52 4.86502H15.593V1.82401C15.5927 1.34085 15.4009 0.877506 15.0595 0.535583C14.7182 0.19366 14.2552 0.0010589 13.772 0H7.68901C7.20516 -7.26361e-08 6.74111 0.192142 6.39888 0.53418C6.05665 0.876217 5.86426 1.34016 5.864 1.82401V1.82401V4.86502H3.935C3.77504 4.86464 3.61657 4.89578 3.46866 4.9567C3.32075 5.01761 3.1863 5.10708 3.073 5.22L1.356 6.94C1.12908 7.16762 1.00115 7.47559 1 7.797V10.941H5.864V10.333C5.86426 10.1717 5.92854 10.017 6.04272 9.90302C6.15691 9.78902 6.31166 9.72501 6.47301 9.72501H7.68901C7.85018 9.72527 8.00467 9.78942 8.11864 9.90338C8.2326 10.0173 8.29673 10.1718 8.297 10.333V10.333V10.941H13.161V10.333C13.161 10.1718 13.2251 10.0171 13.3391 9.90308C13.4531 9.78905 13.6077 9.72501 13.769 9.72501H14.985C15.1463 9.72501 15.3009 9.78905 15.4149 9.90308C15.529 10.0171 15.593 10.1718 15.593 10.333V10.941H20.458V7.797C20.4568 7.4754 20.3285 7.16734 20.101 6.94ZM13.16 4.86502H8.30101V2.436H13.165L13.16 4.86502ZM15.59 12.765C15.59 12.9263 15.5259 13.0809 15.4119 13.1949C15.2979 13.3089 15.1433 13.373 14.982 13.373H13.772C13.6108 13.373 13.4561 13.3089 13.3421 13.1949C13.2281 13.0809 13.164 12.9263 13.164 12.765V12.157H8.30101V12.765C8.30101 12.9263 8.23695 13.0809 8.12292 13.1949C8.0089 13.3089 7.85426 13.373 7.69301 13.373H6.478C6.31665 13.373 6.16191 13.309 6.04773 13.195C5.93355 13.081 5.86927 12.9264 5.869 12.765V12.765V12.157H1.00101V15.805C1.00088 15.9647 1.03223 16.1229 1.09329 16.2705C1.15436 16.4181 1.24393 16.5522 1.35687 16.6651C1.46981 16.7781 1.60392 16.8676 1.75151 16.9287C1.8991 16.9898 2.05729 17.0211 2.21701 17.021H19.242C19.4017 17.0211 19.5599 16.9898 19.7075 16.9287C19.8551 16.8676 19.9892 16.7781 20.1021 16.6651C20.2151 16.5522 20.3046 16.4181 20.3657 16.2705C20.4268 16.1229 20.4581 15.9647 20.458 15.805V12.157H15.594L15.59 12.765Z" fill="#00254B"/>
</g>
<defs>
<clipPath id="clip0_3_8264">
<rect width="20.482" height="17.025" fill="white"/>
</clipPath>
</defs>
</svg>
