<svg width="21" height="21" viewBox="0 0 21 21" fill="none" xmlns="http://www.w3.org/2000/svg">
<g clip-path="url(#clip0_3_8275)">
<path d="M16.3893 3.78613H3.71446V18.556H16.3893V3.78613Z" fill="#1A374D"/>
<path d="M16.4387 3.15191H13.815L14.0501 3.27736V3.88433H16.354V18.2576H3.81033V3.88433H6.1142V3.27736L6.35034 3.15191H3.72658C3.54202 3.14469 3.36198 3.21022 3.22504 3.33446C3.0881 3.45869 3.00515 3.63174 2.99394 3.81655V18.3365C3.0054 18.5212 3.08846 18.694 3.22538 18.818C3.36229 18.942 3.54219 19.0074 3.72658 19.0002H16.4327C16.6171 19.0074 16.7969 18.942 16.9339 18.818C17.0708 18.694 17.1539 18.5212 17.1653 18.3365V3.81655C17.1541 3.63283 17.072 3.4607 16.9364 3.33663C16.8007 3.21256 16.6223 3.1463 16.4387 3.15191Z" fill="#1A374D"/>
<path d="M14.4093 6.93408H5.76302V7.41157H14.4093V6.93408Z" fill="white"/>
<path d="M14.4093 9.82959H5.76302V10.2929H14.4093V9.82959Z" fill="white"/>
<path d="M14.4093 12.6978H5.76302V13.1763H14.4093V12.6978Z" fill="white"/>
<path d="M14.4093 15.5371H5.76302V16.0571H14.4093V15.5371Z" fill="white"/>
<path d="M13.4436 3.58778V4.18566H6.7298V3.58778L7.3807 3.24181C7.65449 3.1018 7.88536 2.89009 8.04881 2.62915C8.21227 2.36822 8.30222 2.06781 8.30911 1.75977H11.8653C11.8722 2.06781 11.9621 2.36822 12.1256 2.62915C12.2891 2.89009 12.5199 3.1018 12.7937 3.24181L13.4436 3.58778Z" fill="#1A374D"/>
<path d="M13.8745 4.56401H13.4961H6.78126H6.40283V4.18465V3.58779V3.35986L6.60358 3.25284L7.24544 2.91066L7.24901 2.90852C7.28474 2.88692 7.32168 2.86458 7.34336 2.84828L7.35348 2.84067L7.36409 2.83376C7.75046 2.58185 7.98112 2.17998 7.98112 1.75876V1.37939H8.35955H11.9168H12.2952V1.75876C12.2952 2.17957 12.5263 2.58144 12.9133 2.83376L12.9239 2.84069L12.934 2.84831C12.9578 2.86619 12.9943 2.88836 13.0305 2.90992L13.6738 3.25284L13.8745 3.35986V3.58779V4.18465V4.56401Z" fill="#1A374D"/>
<path d="M13.4961 4.18462V3.58776L12.8452 3.24077C12.7957 3.21144 12.7473 3.18209 12.7069 3.15174C12.2104 2.82803 11.9168 2.31108 11.9168 1.75873H8.35955C8.35955 2.31108 8.0669 2.82803 7.5704 3.15174C7.53004 3.18209 7.4806 3.21144 7.43216 3.24077L6.78126 3.58776V4.18462H13.4961ZM13.4961 4.94334H6.78126C6.36325 4.94334 6.0244 4.60365 6.0244 4.18462V3.58776C6.0244 3.30722 6.17881 3.04959 6.42589 2.91787L7.05867 2.58054C7.07975 2.56779 7.10802 2.55062 7.11789 2.54358C7.13138 2.53344 7.14362 2.52492 7.15776 2.51571C7.44052 2.33135 7.60269 2.05544 7.60269 1.75873C7.60269 1.33969 7.94155 1 8.35955 1H11.9168C12.3348 1 12.6736 1.33969 12.6736 1.75873C12.6736 2.05503 12.8362 2.33092 13.1196 2.51571C13.1338 2.52495 13.1476 2.53465 13.1611 2.54482C13.171 2.55198 13.1978 2.56821 13.2163 2.57927L13.8515 2.91787C14.0985 3.04959 14.2529 3.30722 14.2529 3.58776V4.18462C14.2529 4.60365 13.9141 4.94334 13.4961 4.94334Z" fill="white"/>
<path d="M10.3582 12.6885C10.1244 12.6885 9.90721 12.5604 9.79136 12.3543C9.67448 12.1462 9.67843 11.9001 9.80193 11.6958L10.7727 10.0708L10.774 10.0686L10.7754 10.0664C10.826 9.98422 10.8913 9.91611 10.9694 9.864L17.5545 5.39124C17.7233 5.27652 17.9201 5.21582 18.1237 5.21582C18.4619 5.21582 18.7766 5.3834 18.9655 5.66411L19.4486 6.37992C19.7617 6.84508 19.6397 7.47911 19.177 7.79368L12.5943 12.2642C12.513 12.3185 12.4232 12.3539 12.3322 12.3683L10.4672 12.6794C10.4312 12.6854 10.3945 12.6885 10.3582 12.6885Z" fill="#1A374D"/>
<path d="M18.1237 5.59515C18.0007 5.59515 17.8763 5.63081 17.7668 5.70527L11.1791 10.1797C11.1458 10.202 11.1185 10.2313 11.0974 10.2657L10.1255 11.8924C10.0128 12.0789 10.1528 12.3091 10.3582 12.3091C10.3735 12.3091 10.3892 12.3078 10.4051 12.3052L12.273 11.9936C12.3113 11.9875 12.3487 11.9723 12.382 11.9501L18.9646 7.47968C19.2563 7.2814 19.3319 6.88484 19.1352 6.59248L18.6518 5.87625C18.5289 5.69368 18.3281 5.59515 18.1237 5.59515ZM18.1236 4.83643C18.5878 4.83643 19.0198 5.0665 19.2792 5.4519L19.762 6.16731C20.1918 6.80585 20.0244 7.6759 19.3894 8.10761L12.8065 12.5783C12.8048 12.5794 12.8031 12.5805 12.8015 12.5816C12.6788 12.6635 12.5384 12.7191 12.3952 12.7424L10.5293 13.0536C10.4729 13.063 10.4153 13.0678 10.3582 13.0678C9.98797 13.0678 9.64444 12.8657 9.46164 12.5404C9.27954 12.2164 9.28592 11.8174 9.47828 11.4992L10.448 9.87589C10.4498 9.87292 10.4516 9.86996 10.4534 9.86701C10.5323 9.73898 10.6344 9.63233 10.7569 9.55L17.3422 5.07716C17.5738 4.91974 17.8441 4.83643 18.1236 4.83643Z" fill="white"/>
</g>
<defs>
<clipPath id="clip0_3_8275">
<rect width="17" height="18" fill="white" transform="translate(3 1)"/>
</clipPath>
</defs>
</svg>
