<svg width="21" height="21" viewBox="0 0 21 21" fill="none" xmlns="http://www.w3.org/2000/svg">
<path d="M17.967 2H2.033C0.910207 2 0 2.91786 0 4.0501V15.9499C0 17.0821 0.910207 18 2.033 18H17.967C19.0898 18 20 17.0821 20 15.9499V4.0501C20 2.91786 19.0898 2 17.967 2Z" fill="#1A374D"/>
<path d="M7.98555 11.6402H5.34909L4.69974 13.8203H3.48502L5.99747 6.18018H7.37624L9.88869 13.8203H8.61928L7.98555 11.6402ZM7.69261 10.6959L7.39382 9.66789C7.137 8.83781 6.91046 7.98607 6.67318 7.12448H6.63217C6.41637 7.9969 6.17909 8.83781 5.93204 9.66789L5.62348 10.6959H7.69261Z" fill="white"/>
<path d="M10.8925 6.18018H12.8581C15.1841 6.18018 16.513 7.47797 16.513 9.9692C16.513 12.4604 15.1841 13.8203 12.9196 13.8203H10.8925V6.18018ZM12.7761 12.8346C14.4019 12.8346 15.2768 11.8686 15.2768 9.9692C15.2768 8.06976 14.398 7.15599 12.7761 7.15599H12.0857V12.8346H12.7761Z" fill="white"/>
</svg>
