<svg width="13" height="14" viewBox="0 0 13 14" fill="none" xmlns="http://www.w3.org/2000/svg">
<path d="M11.7825 5.82391H7.82834V1.87047C7.82834 1.75506 7.80559 1.64079 7.76138 1.53418C7.71718 1.42757 7.65239 1.33072 7.57072 1.24915C7.48905 1.16758 7.3921 1.10291 7.28541 1.05882C7.17872 1.01472 7.06438 0.992084 6.94893 0.992188H6.07032C5.95487 0.992084 5.84054 1.01472 5.73385 1.05882C5.62716 1.10291 5.53021 1.16758 5.44854 1.24915C5.36687 1.33072 5.30208 1.42757 5.25787 1.53418C5.21367 1.64079 5.19092 1.75506 5.19092 1.87047V5.82391H1.23677C1.00374 5.82391 0.780266 5.91645 0.615494 6.08115C0.450722 6.24586 0.358154 6.46926 0.358154 6.70219L0.358154 7.58047C0.358154 7.81341 0.450722 8.0368 0.615494 8.20151C0.780266 8.36622 1.00374 8.45875 1.23677 8.45875H5.19092V12.4122C5.19092 12.5276 5.21367 12.6419 5.25787 12.7485C5.30208 12.8551 5.36687 12.9519 5.44854 13.0335C5.53021 13.1151 5.62716 13.1798 5.73385 13.2238C5.84054 13.2679 5.95487 13.2906 6.07032 13.2905H6.94893C7.06438 13.2906 7.17872 13.2679 7.28541 13.2238C7.3921 13.1798 7.48905 13.1151 7.57072 13.0335C7.65239 12.9519 7.71718 12.8551 7.76138 12.7485C7.80559 12.6419 7.82834 12.5276 7.82834 12.4122V8.45954H11.7825C12.0155 8.45954 12.239 8.36701 12.4038 8.2023C12.5685 8.03759 12.6611 7.8142 12.6611 7.58126V6.70219C12.6611 6.46926 12.5685 6.24586 12.4038 6.08115C12.239 5.91645 12.0155 5.82391 11.7825 5.82391Z" fill="#BABABA"/>
</svg>
