<svg width="191" height="309" viewBox="0 0 191 309" fill="none" xmlns="http://www.w3.org/2000/svg">
<path d="M21.1604 0H15.1969C2.85498 0 -9.2718 3.23181 -19.9768 9.37387C-41.5393 21.7454 -55.0169 44.5354 -55.4698 69.3908L-59.2044 274.339C-59.6038 296.257 -38.9615 312.495 -17.7535 306.947C-13.3995 305.807 -9.32609 303.793 -5.77571 301.027C7.6696 290.553 28.0086 274.766 31.6805 272.142C34.5633 270.082 45.1339 260.849 54.6472 252.417C62.3566 245.584 71.0296 239.918 80.4225 235.687L87.5 232.5L117.547 221.301C123.414 219.115 129.063 216.382 134.418 213.139L153.27 201.724C172.475 190.096 185.751 170.77 189.716 148.672C192.506 133.12 190.517 117.087 184.01 102.687L182.976 100.398C174.114 80.7874 158.242 65.1981 138.476 56.6907L118.687 48.1736C109.333 44.1477 100.649 38.7166 92.9354 32.0683L81.912 22.5675C65.0198 8.00854 43.4608 0 21.1604 0Z" fill="#DCDFEE"/>
</svg>
