<svg width="189" height="309" viewBox="0 0 189 309" fill="none" xmlns="http://www.w3.org/2000/svg">
<path d="M169.84 309L175.803 309C188.145 309 200.272 305.768 210.977 299.626C232.539 287.255 246.017 264.465 246.47 239.609L250.204 34.6613C250.604 12.7431 229.962 -3.49545 208.754 2.0534C204.4 3.19259 200.326 5.20727 196.776 7.97308C183.33 18.4472 162.991 34.2344 159.32 36.8581C156.437 38.9181 145.866 48.1514 136.353 56.583C128.643 63.4157 119.97 69.0823 110.578 73.3125L103.5 76.5L73.4531 87.6986C67.5861 89.8852 61.9375 92.618 56.5816 95.861L37.73 107.276C18.5253 118.904 5.24887 138.23 1.28412 160.328C-1.50629 175.88 0.482997 191.913 6.98962 206.313L8.02439 208.602C16.8858 228.213 32.7579 243.802 52.5242 252.309L72.3129 260.826C81.6668 264.852 90.3508 270.283 98.0646 276.932L109.088 286.432C125.98 300.991 147.539 309 169.84 309Z" fill="#DCDFEE"/>
</svg>
