<svg width="60" height="60" viewBox="0 0 60 60" fill="none" xmlns="http://www.w3.org/2000/svg">
<path d="M47.5 23.2508V12.5008C47.5 11.1258 46.375 10.0008 45 10.0008H42.5C41.125 10.0008 40 11.1258 40 12.5008V16.5008L31.675 9.00078C30.725 8.15078 29.275 8.15078 28.325 9.00078L7.425 27.8258C6.575 28.5758 7.1 30.0008 8.25 30.0008H12.5V47.5008C12.5 48.8758 13.625 50.0008 15 50.0008H22.5C23.875 50.0008 25 48.8758 25 47.5008V35.0008H35V47.5008C35 48.8758 36.125 50.0008 37.5 50.0008H45C46.375 50.0008 47.5 48.8758 47.5 47.5008V30.0008H51.75C52.9 30.0008 53.45 28.5758 52.575 27.8258L47.5 23.2508ZM25 25.0008C25 22.2508 27.25 20.0008 30 20.0008C32.75 20.0008 35 22.2508 35 25.0008H25Z" fill="#1A374D"/>
</svg>
