<svg width="19" height="19" viewBox="0 0 19 19" fill="none" xmlns="http://www.w3.org/2000/svg">
<path d="M10.8168 6.83342V7.96955C10.8155 8.08259 10.77 8.19061 10.69 8.27055C10.6101 8.35048 10.5021 8.39598 10.389 8.39733H4.40874C4.2957 8.39598 4.18768 8.35048 4.10774 8.27055C4.02781 8.19061 3.98231 8.08259 3.98096 7.96955V6.83342C3.98095 6.71948 4.02585 6.61013 4.10593 6.52908C4.18601 6.44803 4.29481 6.40181 4.40874 6.40044H10.3916C10.5051 6.40248 10.6132 6.449 10.6928 6.52998C10.7723 6.61096 10.8168 6.71992 10.8168 6.83342ZM17.9765 16.9651L16.9651 17.9765C16.886 18.0561 16.7919 18.1192 16.6884 18.1623C16.5848 18.2053 16.4737 18.2275 16.3615 18.2275C16.2493 18.2275 16.1383 18.2053 16.0347 18.1623C15.9311 18.1192 15.8371 18.0561 15.758 17.9765L12.2075 14.4261C12.1281 14.3465 12.0652 14.2519 12.0224 14.1479C11.9796 14.0439 11.9577 13.9324 11.9581 13.8199V13.2415C10.472 14.4009 8.59953 14.9499 6.72258 14.7764C4.84563 14.603 3.10551 13.7201 1.857 12.308C0.608487 10.8958 -0.0543974 9.06058 0.00349638 7.17652C0.0613901 5.29246 0.835702 3.50142 2.16856 2.16856C3.50142 0.835702 5.29246 0.0613901 7.17652 0.00349638C9.06058 -0.0543974 10.8958 0.608486 12.308 1.857C13.7201 3.10551 14.603 4.84563 14.7764 6.72258C14.9499 8.59953 14.4009 10.472 13.2415 11.9581H13.8217C13.9342 11.9577 14.0456 11.9796 14.1497 12.0224C14.2537 12.0652 14.3482 12.1281 14.4278 12.2075L17.9783 15.758C18.1351 15.9198 18.2227 16.1365 18.2224 16.3619C18.2221 16.5873 18.1339 16.8037 17.9765 16.9651ZM12.243 7.39975C12.243 6.44184 11.959 5.50544 11.4268 4.70896C10.8946 3.91249 10.1382 3.29171 9.2532 2.92514C8.3682 2.55856 7.39438 2.46264 6.45487 2.64952C5.51537 2.8364 4.65237 3.29768 3.97503 3.97503C3.29768 4.65237 2.8364 5.51537 2.64952 6.45487C2.46264 7.39438 2.55856 8.3682 2.92514 9.2532C3.29171 10.1382 3.91249 10.8946 4.70896 11.4268C5.50544 11.959 6.44184 12.243 7.39975 12.243C8.03594 12.2436 8.666 12.1187 9.25387 11.8755C9.84175 11.6323 10.3759 11.2756 10.8257 10.8257C11.2756 10.3759 11.6323 9.84174 11.8755 9.25387C12.1187 8.666 12.2436 8.03594 12.243 7.39975Z" fill="#BADBEE"/>
</svg>
