<svg width="22" height="22" viewBox="0 0 22 22" fill="none" xmlns="http://www.w3.org/2000/svg">
<path d="M12.971 7.89997V9.21197C12.9695 9.34251 12.9169 9.46725 12.8246 9.55956C12.7323 9.65187 12.6076 9.70442 12.477 9.70597H10.177V12.006C10.1755 12.1365 10.1229 12.2613 10.0306 12.3536C9.93832 12.4459 9.81358 12.4984 9.68304 12.5H8.37104C8.24051 12.4984 8.11576 12.4459 8.02345 12.3536C7.93115 12.2613 7.8786 12.1365 7.87704 12.006V9.70597H5.57104C5.44051 9.70442 5.31576 9.65187 5.22345 9.55956C5.13115 9.46725 5.0786 9.34251 5.07704 9.21197V7.89997C5.07703 7.7684 5.12889 7.64212 5.22136 7.54852C5.31384 7.45493 5.43948 7.40155 5.57104 7.39997H7.87104V5.09997C7.87262 4.96841 7.926 4.84277 8.01959 4.75029C8.11319 4.65782 8.23947 4.60596 8.37104 4.60597H9.68304C9.81358 4.60753 9.93832 4.66008 10.0306 4.75238C10.1229 4.84469 10.1755 4.96944 10.177 5.09997V7.39997H12.477C12.6086 7.40155 12.7343 7.45493 12.8267 7.54852C12.9192 7.64212 12.9711 7.7684 12.971 7.89997ZM21.239 19.6L20.071 20.768C19.9797 20.8598 19.8711 20.9327 19.7515 20.9825C19.6319 21.0322 19.5036 21.0578 19.374 21.0578C19.2445 21.0578 19.1162 21.0322 18.9966 20.9825C18.877 20.9327 18.7684 20.8598 18.677 20.768L14.577 16.668C14.4853 16.576 14.4126 16.4668 14.3632 16.3467C14.3138 16.2266 14.2886 16.0979 14.289 15.968V15.3C12.5728 16.6389 10.4105 17.2728 8.24305 17.0725C6.07556 16.8722 4.06608 15.8527 2.62431 14.2219C1.18253 12.5912 0.417041 10.4719 0.483896 8.29619C0.550751 6.12049 1.44492 4.05221 2.9841 2.51303C4.52328 0.973852 6.59156 0.079682 8.76726 0.0128267C10.943 -0.0540287 13.0622 0.711465 14.693 2.15324C16.3238 3.59501 17.3433 5.60449 17.5436 7.77198C17.7439 9.93947 17.11 12.1018 15.771 13.818H16.441C16.5709 13.8175 16.6997 13.8427 16.8198 13.8921C16.9399 13.9416 17.0491 14.0142 17.141 14.106L21.241 18.206C21.4222 18.3929 21.5233 18.6431 21.523 18.9034C21.5226 19.1637 21.4207 19.4136 21.239 19.6ZM14.618 8.55397C14.618 7.44778 14.29 6.36643 13.6755 5.44667C13.0609 4.52691 12.1874 3.81004 11.1654 3.38672C10.1434 2.96339 9.01884 2.85263 7.9339 3.06844C6.84897 3.28425 5.85239 3.81693 5.07019 4.59913C4.288 5.38132 3.75532 6.3779 3.53951 7.46283C3.3237 8.54777 3.43446 9.67233 3.85778 10.6943C4.28111 11.7163 4.99797 12.5898 5.91774 13.2044C6.8375 13.8189 7.91885 14.147 9.02504 14.147C9.75971 14.1476 10.4873 14.0034 11.1662 13.7226C11.845 13.4417 12.4619 13.0298 12.9814 12.5103C13.5008 11.9908 13.9128 11.374 14.1936 10.6951C14.4745 10.0162 14.6187 9.28864 14.618 8.55397Z" fill="#1A374D"/>
</svg>
