<svg width="17" height="18" viewBox="0 0 17 18" fill="none" xmlns="http://www.w3.org/2000/svg">
<path d="M5.50795 7.45292L4.36795 8.59392L8.03596 12.2619L16.186 4.11192L15.044 2.96992L8.03496 9.93792L5.50795 7.45292ZM15.37 9.00092C15.3642 10.3599 14.9321 11.6829 14.1345 12.7833C13.337 13.8837 12.2142 14.706 10.9244 15.1344C9.63467 15.5628 8.24299 15.5757 6.94556 15.1711C5.64813 14.7666 4.51037 13.9651 3.69266 12.8796C2.87494 11.7941 2.4185 10.4793 2.38768 9.12062C2.35686 7.76194 2.75322 6.42784 3.52087 5.30637C4.28853 4.18491 5.38878 3.33263 6.66653 2.86968C7.94428 2.40673 9.33511 2.35645 10.643 2.72592L11.906 1.46292C10.9406 1.04981 9.89994 0.841745 8.84995 0.851918C7.23804 0.851918 5.66232 1.32991 4.32206 2.22544C2.9818 3.12097 1.93719 4.39383 1.32034 5.88305C0.703482 7.37227 0.542085 9.01096 0.856555 10.5919C1.17102 12.1728 1.94724 13.625 3.08703 14.7648C4.22683 15.9046 5.67902 16.6808 7.25997 16.9953C8.84091 17.3098 10.4796 17.1484 11.9688 16.5315C13.458 15.9147 14.7309 14.8701 15.6264 13.5298C16.522 12.1896 17 10.6138 17 9.00192L15.37 9.00092Z" fill="#25B562"/>
</svg>
