<svg width="29" height="25" viewBox="0 0 29 25" fill="none" xmlns="http://www.w3.org/2000/svg">
<path d="M25.77 14.7L28.076 4.553C28.1151 4.3815 28.115 4.20341 28.0758 4.03195C28.0365 3.86048 27.9592 3.70006 27.8495 3.56258C27.7398 3.4251 27.6005 3.3141 27.442 3.23783C27.2835 3.16156 27.1099 3.12197 26.934 3.122H7.769L7.321 0.936004C7.26687 0.671752 7.12317 0.43429 6.91418 0.263749C6.70519 0.0932078 6.44374 4.47092e-05 6.174 3.84322e-06H1.174C1.01997 -0.00039077 0.867375 0.0296068 0.724956 0.0882784C0.582538 0.14695 0.453093 0.233143 0.344038 0.341919C0.234983 0.450696 0.148459 0.579919 0.0894232 0.722188C0.0303874 0.864456 -5.05477e-07 1.01697 0 1.171L0 1.952C0 2.26257 0.123373 2.56042 0.342978 2.78003C0.562583 2.99963 0.860431 3.123 1.171 3.123H4.581L8.009 19.881C7.51219 20.1658 7.1174 20.5995 6.88036 21.1207C6.64331 21.642 6.576 22.2246 6.68792 22.7862C6.79984 23.3478 7.08534 23.8601 7.50411 24.2506C7.92288 24.6412 8.45375 24.8904 9.02178 24.963C9.58981 25.0356 10.1663 24.9279 10.6698 24.6552C11.1734 24.3825 11.5785 23.9585 11.828 23.4431C12.0776 22.9276 12.159 22.3469 12.0606 21.7827C11.9623 21.2186 11.6892 20.6996 11.28 20.299H21.51C21.0952 20.7053 20.8205 21.2331 20.726 21.806C20.6314 22.3789 20.7218 22.967 20.9841 23.485C21.2464 24.003 21.6669 24.424 22.1846 24.6869C22.7023 24.9498 23.2903 25.0409 23.8633 24.947C24.4363 24.8531 24.9645 24.5791 25.3712 24.1647C25.7779 23.7503 26.0421 23.2171 26.1253 22.6425C26.2085 22.0679 26.1065 21.4817 25.834 20.9689C25.5615 20.4562 25.1328 20.0436 24.61 19.791L24.879 18.606C24.9181 18.4345 24.918 18.2564 24.8788 18.0849C24.8395 17.9135 24.7622 17.7531 24.6525 17.6156C24.5428 17.4781 24.4035 17.3671 24.245 17.2908C24.0865 17.2146 23.9129 17.175 23.737 17.175H10.637L10.318 15.614H24.618C24.8855 15.6162 25.1458 15.5267 25.3554 15.3604C25.565 15.1941 25.7113 14.961 25.77 14.7V14.7Z" fill="#203C62"/>
</svg>
