<svg width="42" height="35" viewBox="0 0 42 35" fill="none" xmlns="http://www.w3.org/2000/svg">
<path d="M40.52 8.49242L36.205 1.60742C36.0141 1.30204 35.7489 1.05011 35.434 0.875211C35.1192 0.700313 34.7652 0.608174 34.405 0.607422L7.54303 0.607422C7.1829 0.608174 6.82884 0.700313 6.51403 0.875211C6.19921 1.05011 5.93393 1.30204 5.74303 1.60742L1.42603 8.49242C-0.800968 12.0494 1.17303 16.9924 5.33503 17.5614C5.63704 17.6015 5.94137 17.6215 6.24603 17.6214C7.1729 17.6219 8.08937 17.4261 8.93513 17.0469C9.78089 16.6677 10.5368 16.1137 11.153 15.4214C11.7694 16.1135 12.5252 16.6674 13.3708 17.0467C14.2164 17.426 15.1327 17.6221 16.0595 17.6221C16.9863 17.6221 17.9026 17.426 18.7482 17.0467C19.5939 16.6674 20.3497 16.1135 20.966 15.4214C21.5824 16.1135 22.3382 16.6674 23.1838 17.0467C24.0294 17.426 24.9457 17.6221 25.8725 17.6221C26.7993 17.6221 27.7156 17.426 28.5612 17.0467C29.4069 16.6674 30.1627 16.1135 30.779 15.4214C31.3962 16.1127 32.1522 16.6659 32.9978 17.045C33.8434 17.4241 34.7594 17.6205 35.686 17.6214C35.9907 17.6217 36.295 17.6017 36.597 17.5614C40.772 17.0034 42.754 12.0614 40.52 8.49242ZM35.7 19.7554C35.0402 19.7496 34.3834 19.6663 33.743 19.5074V26.1374H8.20803V19.5074C7.56593 19.6651 6.90812 19.75 6.24703 19.7604C5.84569 19.7606 5.44479 19.7339 5.04703 19.6804C4.67878 19.6251 4.31464 19.5453 3.95703 19.4414V32.5204C3.95677 32.8001 4.0117 33.077 4.11869 33.3354C4.22568 33.5938 4.38261 33.8285 4.58049 34.0261C4.77837 34.2237 5.01331 34.3803 5.27183 34.4869C5.53036 34.5935 5.80738 34.6481 6.08703 34.6474H35.872C36.1516 34.6478 36.4285 34.593 36.6868 34.4862C36.9452 34.3794 37.18 34.2227 37.3776 34.025C37.5753 33.8273 37.732 33.5926 37.8389 33.3342C37.9457 33.0759 38.0004 32.799 38 32.5194V19.4364C37.6439 19.5459 37.2793 19.6258 36.91 19.6754C36.5089 19.7285 36.1047 19.7553 35.7 19.7554V19.7554Z" fill="#B7B7B7"/>
</svg>
