<svg width="228" height="158" viewBox="0 0 228 158" fill="none"
    xmlns="http://www.w3.org/2000/svg">
    <path d="M206.189 108.27H194.466V154.407H206.189V108.27Z" fill="#9EC0FF"/>
    <path d="M191.901 102.059H180.178V154.407H191.901V102.059Z" fill="#89A4D9"/>
    <path d="M177.614 125.546H165.891V154.406H177.614V125.546Z" fill="#5181DB"/>
    <path d="M163.327 139.043H151.604V154.406H163.327V139.043Z" fill="#1A374D"/>
    <path d="M226.887 157.405H149V95.9512" stroke="#1A374D" stroke-width="1.15" stroke-miterlimit="10"/>
    <path d="M205.062 41.3292L227.001 43.5172C227.723 36.2874 226.413 28.9997 223.219 22.4736C220.025 15.9474 215.075 10.4416 208.923 6.5752L197.197 25.2302C199.876 26.916 202.032 29.316 203.421 32.1601C204.811 35.0042 205.379 38.1797 205.062 41.3292Z" fill="#9EC0FF"/>
    <path d="M202.461 49.1181C200.984 51.4756 198.951 53.4345 196.54 54.823C194.129 56.2115 191.414 56.9871 188.634 57.0818C185.853 57.1765 183.092 56.5874 180.593 55.3661C178.093 54.1448 175.931 52.3286 174.297 50.0771L156.482 63.0561C161.141 69.4514 167.632 74.2808 175.097 76.9049C182.561 79.529 190.647 79.824 198.283 77.7508C205.919 75.6777 212.745 71.3342 217.858 65.2954C222.97 59.2566 226.128 51.8074 226.913 43.9341L204.974 41.7461C204.721 44.3654 203.86 46.8896 202.461 49.1181Z" fill="#1A374D"/>
    <path d="M156.482 63.0578L174.297 50.0788C172.8 48.015 171.784 45.6418 171.325 43.1338L149.641 47.1218C150.7 52.8787 153.038 58.3245 156.482 63.0578Z" fill="#5181DB"/>
    <path d="M173.638 31.0018C175.409 28.1851 177.966 25.949 180.994 24.57C184.021 23.191 187.387 22.7296 190.674 23.2428L194.074 1.46678C187.911 0.505253 181.607 1.034 175.69 3.00877C169.773 4.98355 164.415 8.34689 160.065 12.8173C155.715 17.2877 152.499 22.7352 150.686 28.7037C148.873 34.6722 148.516 40.9881 149.645 47.1228L171.329 43.1348C170.545 38.944 171.369 34.6116 173.638 31.0018Z" fill="#89A4D9"/>
    <path d="M190.761 22.8219C193.048 23.1761 195.238 23.995 197.196 25.2279L208.922 6.57291C204.429 3.74278 199.405 1.86186 194.158 1.0459L190.761 22.8219Z" fill="white"/>
    <path d="M119.251 0H0V157.405H119.251V0Z" fill="white"/>
    <path d="M105.624 17.6973H13.627V66.2963H105.624V17.6973Z" fill="#BADBEE"/>
    <path d="M12.166 94.1387H107.084" stroke="#B8D0FF" stroke-miterlimit="10"/>
    <path d="M12.166 105.484H107.084" stroke="#B8D0FF" stroke-miterlimit="10"/>
    <path d="M12.166 116.83H107.084" stroke="#B8D0FF" stroke-miterlimit="10"/>
    <path d="M12.166 128.175H107.084" stroke="#B8D0FF" stroke-miterlimit="10"/>
    <path d="M12.166 139.521H51.955" stroke="#B8D0FF" stroke-miterlimit="10"/>
    <path d="M25.903 48.0623C27.6725 48.0623 29.107 46.6278 29.107 44.8583C29.107 43.0888 27.6725 41.6543 25.903 41.6543C24.1335 41.6543 22.699 43.0888 22.699 44.8583C22.699 46.6278 24.1335 48.0623 25.903 48.0623Z" fill="#2E6ADB"/>
    <path d="M46.602 34.2928C48.3715 34.2928 49.806 32.8583 49.806 31.0888C49.806 29.3192 48.3715 27.8848 46.602 27.8848C44.8325 27.8848 43.398 29.3192 43.398 31.0888C43.398 32.8583 44.8325 34.2928 46.602 34.2928Z" fill="#2E6ADB"/>
    <path d="M76.023 54.4705C77.7925 54.4705 79.227 53.036 79.227 51.2665C79.227 49.497 77.7925 48.0625 76.023 48.0625C74.2535 48.0625 72.819 49.497 72.819 51.2665C72.819 53.036 74.2535 54.4705 76.023 54.4705Z" fill="#2E6ADB"/>
    <path d="M93.348 41.6551C95.1175 41.6551 96.552 40.2206 96.552 38.4511C96.552 36.6816 95.1175 35.2471 93.348 35.2471C91.5785 35.2471 90.144 36.6816 90.144 38.4511C90.144 40.2206 91.5785 41.6551 93.348 41.6551Z" fill="#2E6ADB"/>
    <path d="M25.9031 44.8589L46.603 31.0889L76.025 51.2669L93.348 38.4489" stroke="#2E6ADB" stroke-miterlimit="10"/>
    <path d="M25.903 55.657C27.6725 55.657 29.107 54.2225 29.107 52.453C29.107 50.6835 27.6725 49.249 25.903 49.249C24.1335 49.249 22.699 50.6835 22.699 52.453C22.699 54.2225 24.1335 55.657 25.903 55.657Z" fill="white"/>
    <path d="M46.603 52.448C48.3725 52.448 49.807 51.0136 49.807 49.244C49.807 47.4745 48.3725 46.04 46.603 46.04C44.8335 46.04 43.399 47.4745 43.399 49.244C43.399 51.0136 44.8335 52.448 46.603 52.448Z" fill="white"/>
    <path d="M76.023 62.0652C77.7925 62.0652 79.227 60.6307 79.227 58.8612C79.227 57.0917 77.7925 55.6572 76.023 55.6572C74.2535 55.6572 72.819 57.0917 72.819 58.8612C72.819 60.6307 74.2535 62.0652 76.023 62.0652Z" fill="white"/>
    <path d="M93.348 48.0623C95.1175 48.0623 96.552 46.6278 96.552 44.8583C96.552 43.0888 95.1175 41.6543 93.348 41.6543C91.5785 41.6543 90.144 43.0888 90.144 44.8583C90.144 46.6278 91.5785 48.0623 93.348 48.0623Z" fill="white"/>
    <path d="M25.9031 52.4403L46.603 49.2403L76.021 58.8623L93.35 44.8623" stroke="white" stroke-miterlimit="10"/>
</svg>
