<svg width="228" height="160" viewBox="0 0 228 160" fill="none" xmlns="http://www.w3.org/2000/svg">
<path d="M171.63 3.5969e-08C160.631 0.000197817 149.88 3.26183 140.735 9.37246C131.59 15.4831 124.463 24.1683 120.254 34.3297C116.045 44.4911 114.944 55.6724 117.09 66.4596C119.236 77.2468 124.532 87.1555 132.309 94.9326C140.086 102.71 149.995 108.006 160.782 110.152C171.57 112.297 182.751 111.196 192.912 106.987C203.074 102.778 211.759 95.6502 217.869 86.5052C223.98 77.3602 227.241 66.6086 227.241 55.61C227.241 48.3071 225.803 41.0756 223.008 34.3286C220.213 27.5815 216.117 21.451 210.953 16.2871C205.789 11.1232 199.659 7.02706 192.911 4.23251C186.164 1.43795 178.933 -0.000262618 171.63 3.5969e-08ZM171.63 101.972C162.461 101.972 153.497 99.2526 145.874 94.1583C138.25 89.064 132.308 81.8234 128.799 73.3521C125.29 64.8808 124.372 55.5592 126.161 46.5662C127.95 37.5731 132.365 29.3125 138.849 22.8288C145.332 16.3452 153.593 11.9297 162.586 10.1409C171.579 8.35198 180.901 9.26999 189.372 12.7788C197.843 16.2877 205.084 22.2297 210.178 29.8536C215.273 37.4775 217.992 46.4407 217.992 55.61C217.992 61.6984 216.793 67.7272 214.463 73.3521C212.133 78.9771 208.718 84.088 204.413 88.3932C200.108 92.6983 194.997 96.1133 189.372 98.4432C183.747 100.773 177.718 101.972 171.63 101.972Z" fill="#1A374D"/>
<path d="M173.551 15.0482C173.551 15.4965 173.419 15.9347 173.17 16.3075C172.921 16.6803 172.567 16.9709 172.153 17.1425C171.739 17.3142 171.283 17.3591 170.843 17.2717C170.404 17.1843 170 16.9685 169.683 16.6515C169.366 16.3345 169.15 15.9307 169.063 15.491C168.975 15.0514 169.02 14.5957 169.192 14.1816C169.363 13.7675 169.654 13.4136 170.027 13.1647C170.4 12.9158 170.838 12.783 171.286 12.7832C171.584 12.7832 171.878 12.8418 172.153 12.9556C172.428 13.0694 172.677 13.2363 172.888 13.4466C173.098 13.6569 173.265 13.9066 173.379 14.1814C173.492 14.4562 173.551 14.7508 173.551 15.0482Z" fill="#1A374D"/>
<path d="M173.551 96.1732C173.551 96.6214 173.418 97.0596 173.169 97.4323C172.92 97.8049 172.566 98.0954 172.152 98.2668C171.738 98.4383 171.282 98.4831 170.842 98.3956C170.403 98.3081 169.999 98.0922 169.682 97.7752C169.365 97.4582 169.15 97.0543 169.062 96.6147C168.975 96.1751 169.02 95.7194 169.192 95.3054C169.363 94.8913 169.654 94.5375 170.027 94.2886C170.4 94.0397 170.838 93.907 171.286 93.9072C171.584 93.9072 171.878 93.9658 172.153 94.0797C172.428 94.1936 172.678 94.3606 172.888 94.571C173.098 94.7814 173.265 95.0312 173.379 95.3061C173.493 95.5811 173.551 95.8757 173.551 96.1732Z" fill="#1A374D"/>
<path d="M153.045 19.4677C153.268 19.8556 153.372 20.3011 153.342 20.7477C153.312 21.1943 153.151 21.6222 152.878 21.9772C152.606 22.3322 152.234 22.5985 151.81 22.7424C151.386 22.8863 150.929 22.9014 150.497 22.7858C150.064 22.6701 149.676 22.4289 149.38 22.0927C149.085 21.7564 148.896 21.3401 148.837 20.8964C148.778 20.4527 148.852 20.0014 149.049 19.5996C149.246 19.1978 149.558 18.8634 149.945 18.6387C150.203 18.4892 150.488 18.392 150.783 18.3527C151.079 18.3135 151.379 18.3329 151.667 18.4099C151.955 18.4869 152.225 18.62 152.461 18.8015C152.698 18.983 152.896 19.2094 153.045 19.4677Z" fill="#1A374D"/>
<path d="M193.608 89.7235C193.832 90.1116 193.935 90.5573 193.906 91.0042C193.876 91.4512 193.715 91.8793 193.442 92.2346C193.169 92.5899 192.797 92.8564 192.373 93.0005C191.949 93.1445 191.492 93.1596 191.059 93.0439C190.627 92.9282 190.238 92.6869 189.942 92.3504C189.647 92.0138 189.457 91.5973 189.398 91.1533C189.339 90.7093 189.413 90.2577 189.611 89.8557C189.808 89.4537 190.12 89.1192 190.508 88.8946C190.766 88.745 191.051 88.6479 191.346 88.6086C191.642 88.5693 191.942 88.5888 192.23 88.6658C192.518 88.7428 192.788 88.8759 193.024 89.0574C193.261 89.2389 193.459 89.4653 193.608 89.7235Z" fill="#1A374D"/>
<path d="M137.494 33.546C137.882 33.7699 138.195 34.1038 138.393 34.5055C138.591 34.9072 138.666 35.3587 138.608 35.8029C138.549 36.247 138.361 36.6639 138.065 37.0007C137.77 37.3376 137.381 37.5794 136.949 37.6954C136.516 37.8115 136.059 37.7967 135.635 37.6528C135.21 37.509 134.838 37.2425 134.566 36.8872C134.293 36.5319 134.131 36.1037 134.102 35.6567C134.072 35.2097 134.176 34.764 134.4 34.376C134.7 33.8558 135.195 33.4762 135.775 33.3206C136.355 33.1649 136.974 33.246 137.494 33.546Z" fill="#1A374D"/>
<path d="M207.752 74.1091C208.14 74.3337 208.452 74.6681 208.649 75.0701C208.847 75.472 208.921 75.9235 208.862 76.3675C208.803 76.8115 208.614 77.2281 208.319 77.5647C208.023 77.9013 207.634 78.1428 207.202 78.2586C206.769 78.3745 206.312 78.3595 205.888 78.2156C205.464 78.0717 205.092 77.8053 204.819 77.4501C204.546 77.0949 204.384 76.6668 204.355 76.2199C204.325 75.773 204.429 75.3273 204.652 74.9391C204.801 74.6808 204.999 74.4543 205.235 74.2727C205.472 74.0911 205.742 73.9579 206.03 73.8808C206.318 73.8037 206.618 73.7842 206.914 73.8234C207.209 73.8626 207.494 73.9597 207.752 74.1091Z" fill="#1A374D"/>
<path d="M131.067 53.5166C131.515 53.5166 131.953 53.6494 132.325 53.8983C132.698 54.1472 132.988 54.501 133.16 54.9148C133.331 55.3287 133.376 55.7841 133.288 56.2235C133.201 56.6628 132.985 57.0664 132.669 57.3832C132.352 57.7 131.948 57.9157 131.509 58.0031C131.07 58.0905 130.614 58.0456 130.2 57.8742C129.786 57.7028 129.433 57.4124 129.184 57.04C128.935 56.6675 128.802 56.2296 128.802 55.7816C128.802 55.181 129.041 54.605 129.466 54.1803C129.89 53.7556 130.466 53.5169 131.067 53.5166Z" fill="#1A374D"/>
<path d="M212.193 53.5166C212.641 53.5168 213.079 53.6498 213.451 53.8988C213.824 54.1478 214.114 54.5016 214.285 54.9155C214.456 55.3294 214.501 55.7848 214.413 56.2241C214.326 56.6634 214.11 57.0669 213.793 57.3835C213.476 57.7002 213.073 57.9158 212.634 58.0031C212.194 58.0905 211.739 58.0455 211.325 57.8741C210.911 57.7026 210.558 57.4123 210.309 57.0399C210.06 56.6674 209.927 56.2295 209.927 55.7816C209.927 55.4841 209.986 55.1895 210.099 54.9146C210.213 54.6397 210.38 54.39 210.591 54.1796C210.801 53.9693 211.051 53.8025 211.326 53.6887C211.601 53.575 211.895 53.5165 212.193 53.5166Z" fill="#1A374D"/>
<path d="M135.486 74.0237C135.874 73.8003 136.319 73.697 136.766 73.7267C137.213 73.7563 137.64 73.9176 137.995 74.1903C138.351 74.4629 138.617 74.8347 138.761 75.2585C138.905 75.6824 138.92 76.1394 138.804 76.5718C138.688 77.0043 138.447 77.3927 138.111 77.6882C137.775 77.9836 137.358 78.1728 136.915 78.2319C136.471 78.2909 136.02 78.2172 135.618 78.0199C135.216 77.8227 134.882 77.5108 134.657 77.1237C134.507 76.8658 134.41 76.5809 134.371 76.2854C134.332 75.99 134.351 75.6896 134.428 75.4016C134.505 75.1137 134.638 74.8437 134.82 74.6073C135.001 74.3708 135.228 74.1725 135.486 74.0237Z" fill="#1A374D"/>
<path d="M205.743 33.4604C206.131 33.2361 206.577 33.1319 207.024 33.1611C207.472 33.1902 207.9 33.3514 208.256 33.6242C208.612 33.897 208.878 34.2691 209.022 34.6936C209.167 35.1181 209.182 35.5757 209.066 36.0087C208.95 36.4417 208.708 36.8306 208.371 37.1261C208.034 37.4216 207.617 37.6105 207.172 37.6689C206.728 37.7273 206.276 37.6526 205.874 37.4542C205.472 37.2558 205.138 36.9427 204.914 36.5544C204.614 36.0341 204.533 35.4159 204.688 34.8358C204.844 34.2556 205.223 33.7609 205.743 33.4604Z" fill="#1A374D"/>
<path d="M149.566 89.5734C149.79 89.1854 150.124 88.8725 150.526 88.6743C150.927 88.476 151.379 88.4014 151.823 88.4597C152.267 88.5181 152.684 88.7068 153.021 89.0021C153.358 89.2974 153.599 89.6859 153.716 90.1186C153.832 90.5512 153.817 91.0086 153.673 91.4328C153.529 91.8571 153.263 92.2291 152.907 92.5019C152.552 92.7748 152.124 92.9361 151.677 92.9655C151.23 92.995 150.784 92.8912 150.396 92.6674C149.876 92.367 149.496 91.8724 149.341 91.2922C149.185 90.712 149.266 90.0938 149.566 89.5734Z" fill="#1A374D"/>
<path d="M190.133 19.3163C190.358 18.9288 190.692 18.6165 191.094 18.4189C191.496 18.2214 191.947 18.1473 192.391 18.2062C192.835 18.265 193.252 18.4542 193.589 18.7497C193.925 19.0452 194.167 19.4338 194.282 19.8665C194.398 20.2991 194.383 20.7564 194.239 21.1806C194.096 21.6047 193.829 21.9767 193.474 22.2495C193.119 22.5224 192.691 22.6839 192.244 22.7136C191.797 22.7432 191.351 22.6398 190.963 22.4163C190.705 22.2676 190.478 22.0693 190.297 21.8329C190.115 21.5965 189.982 21.3266 189.905 21.0386C189.828 20.7506 189.808 20.4502 189.847 20.1547C189.886 19.8592 189.984 19.5743 190.133 19.3163Z" fill="#1A374D"/>
<path d="M171.631 20.4482V55.6102L151.083 68.8102" stroke="white" stroke-miterlimit="10"/>
<path d="M171.63 59.4219C173.735 59.4219 175.442 57.7152 175.442 55.6099C175.442 53.5045 173.735 51.7979 171.63 51.7979C169.525 51.7979 167.818 53.5045 167.818 55.6099C167.818 57.7152 169.525 59.4219 171.63 59.4219Z" fill="#1A374D"/>
<path d="M176.472 154.104H28.882V159.699H176.472V154.104Z" fill="#1A374D"/>
<path d="M121.64 159.696H15.089L0 88.7539H106.551L121.64 159.696Z" fill="white"/>
<path d="M103.051 90.376L117.796 159.7" stroke="#1A374D" stroke-width="2" stroke-miterlimit="10"/>
<path d="M70.1509 123.414C71.3399 129.005 67.136 133.539 60.762 133.539C54.388 133.539 48.2559 129.005 47.0669 123.414C45.8779 117.823 50.081 113.288 56.455 113.288C62.829 113.288 68.9609 117.814 70.1509 123.414Z" stroke="#1A374D" stroke-miterlimit="10"/>
<path d="M73.1069 6.71582H20.626C17.3638 6.71582 14.2353 8.01171 11.9286 10.3184C9.62189 12.6251 8.32593 15.7537 8.32593 19.0158V54.7778C8.32593 58.04 9.62189 61.1685 11.9286 63.4752C14.2353 65.7819 17.3638 67.0778 20.626 67.0778H38.3719L46.8369 80.0898L55.7169 67.0778H73.1069C76.3691 67.0778 79.4976 65.7819 81.8043 63.4752C84.111 61.1685 85.407 58.04 85.407 54.7778V19.0138C85.4064 15.752 84.1104 12.624 81.8037 10.3177C79.4971 8.01144 76.3688 6.71582 73.1069 6.71582Z" fill="#1A374D"/>
<path d="M62.915 36.8583C62.915 40.0382 61.9719 43.1467 60.2053 45.7907C58.4386 48.4348 55.9276 50.4955 52.9897 51.7124C50.0518 52.9293 46.8191 53.2477 43.7003 52.6273C40.5814 52.007 37.7166 50.4757 35.4681 48.2271C33.2195 45.9786 31.6883 43.1138 31.0679 39.9949C30.4476 36.8761 30.7659 33.6434 31.9828 30.7055C33.1998 27.7676 35.2605 25.2566 37.9045 23.4899C40.5485 21.7232 43.657 20.7803 46.837 20.7803C51.1011 20.7803 55.1905 22.4742 58.2057 25.4894C61.221 28.5046 62.915 32.5941 62.915 36.8583Z" fill="white"/>
<path d="M38.2129 34.7651L45.2379 41.8561L55.4609 31.0781" fill="white"/>
<path d="M38.2129 34.7651L45.2379 41.8561L55.4609 31.0781" stroke="#25B562" stroke-width="3" stroke-linecap="round" stroke-linejoin="round"/>
</svg>
