<svg width="375" height="344" viewBox="0 0 375 344" fill="none" xmlns="http://www.w3.org/2000/svg">
<path d="M370.272 165.742C370.405 166.689 370.539 167.635 370.672 168.58C374.249 194.315 376.824 220.554 372.679 246.204C368.534 271.854 356.974 297.158 336.606 313.291C305.981 337.551 259.073 339.957 221.74 340.361L102.806 341.646C86.625 341.82 70.289 341.981 54.46 338.623C36.753 334.867 15.36 325.139 7.212 307.942C-1.053 290.494 0.285988 269.399 6.84399 251.65C14.55 230.795 28.901 213.137 43.679 196.524C58.457 179.911 74.06 163.711 85.079 144.397C100.832 116.776 106.494 83.987 124.332 57.665C135.832 40.692 152.013 27.165 170.007 17.336C205.478 -2.03901 250.262 -6.70301 286.493 11.209C314.288 24.949 334.893 50.562 347.754 78.776C360.21 106.122 366.039 135.971 370.272 165.742Z" fill="#FFDCD6"/>
<path d="M46.878 43.794C42.467 50.532 38.498 57.606 36.585 65.394C33.053 79.776 38.906 92.844 50.651 101.387C54.9941 104.448 60.1086 106.231 65.4138 106.531C70.7189 106.832 76.002 105.638 80.663 103.087C85.758 100.199 89.792 95.793 93.719 91.45C108.469 75.133 123.919 56.125 122.633 34.166C121.233 10.356 99.957 0.0310159 78.893 10.527C66.313 16.796 57.333 28.398 49.412 40.01C48.5587 41.26 47.714 42.5213 46.878 43.794Z" fill="#FFDDD4"/>
<path d="M170.583 275.302H110.453C109.82 275.302 109.306 275.815 109.306 276.449V283.979C109.306 284.612 109.82 285.126 110.453 285.126H170.583C171.216 285.126 171.73 284.612 171.73 283.979V276.449C171.73 275.815 171.216 275.302 170.583 275.302Z" fill="white"/>
<path d="M171.851 280.047H109.186V317.268H171.851V280.047Z" fill="#F0A600"/>
<path d="M122.459 285.593H157.973" stroke="#1C1C1B" stroke-width="0.5" stroke-miterlimit="10"/>
<path d="M122.459 290.828H157.973" stroke="#1C1C1B" stroke-width="0.5" stroke-miterlimit="10"/>
<path d="M122.459 296.064H157.973" stroke="#1C1C1B" stroke-width="0.5" stroke-miterlimit="10"/>
<path d="M122.459 301.299H157.973" stroke="#1C1C1B" stroke-width="0.5" stroke-miterlimit="10"/>
<path d="M115.061 283.372L118.252 285.62L115.061 287.941" stroke="#1C1C1B" stroke-width="0.5" stroke-miterlimit="10"/>
<path d="M158.615 293.362H98.485C97.8515 293.362 97.338 293.876 97.338 294.509V302.039C97.338 302.673 97.8515 303.186 98.485 303.186H158.615C159.248 303.186 159.762 302.673 159.762 302.039V294.509C159.762 293.876 159.248 293.362 158.615 293.362Z" fill="white"/>
<path d="M159.883 298.107H97.218V335.328H159.883V298.107Z" fill="black"/>
<path d="M110.491 303.652H146.005" stroke="white" stroke-width="0.75" stroke-miterlimit="10"/>
<path d="M110.491 308.888H146.005" stroke="white" stroke-width="0.75" stroke-miterlimit="10"/>
<path d="M110.491 314.124H146.005" stroke="white" stroke-width="0.75" stroke-miterlimit="10"/>
<path d="M110.491 319.358H146.005" stroke="white" stroke-width="0.75" stroke-miterlimit="10"/>
<path d="M103.093 301.434L106.284 303.682L103.093 306.003" stroke="white" stroke-width="0.75" stroke-miterlimit="10"/>
<path d="M110.491 323.934H146.005" stroke="white" stroke-width="0.75" stroke-miterlimit="10"/>
<path d="M110.491 329.169H146.005" stroke="white" stroke-width="0.75" stroke-miterlimit="10"/>
<path d="M103.093 321.715L106.284 323.963L103.093 326.284" stroke="white" stroke-width="0.75" stroke-miterlimit="10"/>
<path d="M309.15 287.394L301.317 293.051L308.717 297.838" stroke="#FF5E58" stroke-miterlimit="10"/>
<path d="M371.812 290.439C371.812 290.611 371.761 290.78 371.665 290.923C371.57 291.066 371.434 291.177 371.275 291.243C371.116 291.309 370.941 291.326 370.772 291.293C370.603 291.259 370.448 291.176 370.327 291.055C370.205 290.933 370.122 290.778 370.089 290.609C370.055 290.44 370.072 290.265 370.138 290.106C370.204 289.947 370.316 289.812 370.459 289.716C370.602 289.62 370.77 289.569 370.942 289.569C371.173 289.57 371.394 289.661 371.557 289.824C371.72 289.988 371.812 290.209 371.812 290.439V290.439Z" stroke="#FF5E58" stroke-miterlimit="10"/>
<path d="M370.941 295.661C371.421 295.661 371.811 295.271 371.811 294.791C371.811 294.31 371.421 293.921 370.941 293.921C370.46 293.921 370.071 294.31 370.071 294.791C370.071 295.271 370.46 295.661 370.941 295.661Z" stroke="#FF5E58" stroke-miterlimit="10"/>
<path d="M347.879 292.615C347.879 295.739 346.126 298.272 343.963 298.272C341.8 298.272 340.046 295.739 340.046 292.615C340.046 289.491 341.799 286.958 343.963 286.958C346.127 286.958 347.879 289.49 347.879 292.615Z" stroke="#FF5E58" stroke-miterlimit="10"/>
<path d="M317.85 292.615H324.813" stroke="#FF5E58" stroke-miterlimit="10"/>
<path d="M328.73 292.615H335.693" stroke="#FF5E58" stroke-miterlimit="10"/>
<path d="M354.187 290.687H363.761" stroke="#FF5E58" stroke-miterlimit="10"/>
<path d="M354.187 294.543H363.761" stroke="#FF5E58" stroke-miterlimit="10"/>
<path d="M356 33.3379H7.52V239.398H356V33.3379Z" fill="white"/>
<path d="M145.123 198.664C145.123 199.23 144.955 199.783 144.641 200.254C144.326 200.725 143.879 201.091 143.356 201.308C142.833 201.525 142.257 201.581 141.702 201.471C141.147 201.36 140.637 201.087 140.237 200.687C139.837 200.287 139.564 199.777 139.454 199.221C139.344 198.666 139.4 198.091 139.617 197.568C139.834 197.045 140.201 196.598 140.672 196.284C141.142 195.969 141.696 195.802 142.262 195.802C142.638 195.802 143.01 195.876 143.357 196.02C143.704 196.163 144.02 196.374 144.285 196.64C144.551 196.906 144.762 197.221 144.905 197.569C145.049 197.916 145.123 198.288 145.123 198.664Z" fill="#FFDDD4"/>
<path d="M194.914 195.023H152.848V200.288H194.914V195.023Z" fill="#FFDDD4"/>
<path d="M145.123 220.13C145.123 220.696 144.955 221.249 144.641 221.72C144.326 222.19 143.879 222.557 143.356 222.774C142.833 222.99 142.257 223.047 141.702 222.936C141.147 222.826 140.637 222.553 140.237 222.153C139.837 221.753 139.564 221.243 139.454 220.687C139.344 220.132 139.4 219.557 139.617 219.034C139.834 218.511 140.201 218.064 140.672 217.749C141.142 217.435 141.696 217.267 142.262 217.268C142.638 217.268 143.01 217.342 143.357 217.485C143.704 217.629 144.02 217.84 144.285 218.106C144.551 218.372 144.762 218.687 144.905 219.034C145.049 219.382 145.123 219.754 145.123 220.13Z" fill="#FFDDD4"/>
<path d="M194.914 217.496H152.848V222.761H194.914V217.496Z" fill="#FFDDD4"/>
<path d="M110.026 109.452H25.355V173.88H110.026V109.452Z" fill="#FFDDD4"/>
<path d="M1.90735e-06 168.437C8.239 160.45 16.665 152.33 26.98 147.301C37.295 142.272 50.004 140.763 60.102 146.215C71.09 152.147 76.613 164.672 80.33 176.594C81.63 180.779 77.071 183.063 73.667 185.826C70.1551 188.466 66.2299 190.505 62.051 191.861C52.905 195.202 43.182 197.427 33.47 196.726C23.758 196.025 14.026 192.151 7.58101 184.853" fill="#FF5E58"/>
<path d="M123.352 177.668L118.652 167.451C114.402 158.207 109.279 148.117 99.76 144.525C94.074 142.378 87.624 143.004 81.924 145.115C76.224 147.226 71.151 150.715 66.273 154.347C52.8444 164.337 40.4021 175.588 29.116 187.947" fill="white"/>
<path d="M84.497 130.043C84.497 131.12 84.1776 132.173 83.5792 133.068C82.9808 133.964 82.1302 134.662 81.1351 135.074C80.14 135.486 79.045 135.594 77.9885 135.384C76.9321 135.174 75.9617 134.655 75.2001 133.894C74.4385 133.132 73.9198 132.162 73.7096 131.105C73.4995 130.049 73.6074 128.954 74.0196 127.959C74.4318 126.963 75.1298 126.113 76.0254 125.514C76.921 124.916 77.9739 124.597 79.051 124.597C80.4954 124.597 81.8806 125.17 82.9019 126.192C83.9232 127.213 84.497 128.598 84.497 130.043Z" fill="#FF5E58"/>
<path d="M117.955 103.419H17.427V179.913H117.955V103.419Z" stroke="#7C7C7C" stroke-width="0.5" stroke-miterlimit="10" stroke-dasharray="4 4"/>
<path d="M345.484 43.6738H17.427V87.1108H345.484V43.6738Z" fill="white" stroke="#7C7C7C" stroke-width="0.5" stroke-miterlimit="10" stroke-dasharray="4 4"/>
<path d="M341.281 47.1162H21.629V83.6702H341.281V47.1162Z" fill="#FFDDD4"/>
<path d="M55.001 212.129C56.5312 202.699 50.1271 193.814 40.697 192.283C31.267 190.753 22.3819 197.157 20.8517 206.587C19.3215 216.018 25.7256 224.903 35.1557 226.433C44.5857 227.963 53.4708 221.559 55.001 212.129Z" fill="#FFDDD4"/>
<path d="M69.982 198.664C69.982 199.23 69.8141 199.783 69.4997 200.254C69.1852 200.724 68.7382 201.091 68.2152 201.308C67.6923 201.525 67.1168 201.581 66.5616 201.471C66.0065 201.36 65.4965 201.088 65.0963 200.688C64.696 200.287 64.4234 199.777 64.313 199.222C64.2026 198.667 64.2592 198.091 64.4758 197.569C64.6925 197.046 65.0593 196.599 65.53 196.284C66.0006 195.97 66.5539 195.802 67.12 195.802C67.879 195.802 68.607 196.103 69.1437 196.64C69.6805 197.177 69.982 197.905 69.982 198.664Z" fill="#FFDDD4"/>
<path d="M119.775 195.023H77.709V200.288H119.775V195.023Z" fill="#FFDDD4"/>
<path d="M69.982 220.13C69.982 220.696 69.8141 221.249 69.4997 221.72C69.1852 222.19 68.7382 222.557 68.2152 222.774C67.6923 222.99 67.1168 223.047 66.5616 222.937C66.0065 222.826 65.4965 222.554 65.0963 222.153C64.696 221.753 64.4234 221.243 64.313 220.688C64.2026 220.133 64.2592 219.557 64.4758 219.034C64.6925 218.511 65.0593 218.064 65.53 217.75C66.0006 217.435 66.5539 217.268 67.12 217.268C67.4958 217.268 67.868 217.342 68.2152 217.485C68.5625 217.629 68.878 217.84 69.1437 218.106C69.4095 218.372 69.6203 218.687 69.7641 219.034C69.908 219.382 69.982 219.754 69.982 220.13Z" fill="#FFDDD4"/>
<path d="M119.775 217.496H77.709V222.761H119.775V217.496Z" fill="#FFDDD4"/>
<path opacity="0.55" d="M338.521 108.507H203.401V118.117H338.521V108.507Z" fill="#FFDDD4"/>
<path opacity="0.55" d="M338.521 127.438H203.401V137.047H338.521V127.438Z" fill="#FFDDD4"/>
<path opacity="0.55" d="M338.521 146.367H203.401V155.977H338.521V146.367Z" fill="#FFDDD4"/>
<path opacity="0.55" d="M338.521 165.297H203.401V174.907H338.521V165.297Z" fill="#FFDDD4"/>
<path d="M51.1508 212.48C52.8749 205.176 48.3518 197.858 41.0481 196.134C33.7444 194.41 26.4259 198.933 24.7018 206.236C22.9777 213.54 27.5008 220.859 34.8045 222.583C42.1082 224.307 49.4267 219.784 51.1508 212.48Z" stroke="#7C7C7C" stroke-width="0.5" stroke-miterlimit="10" stroke-dasharray="4 4"/>
<path d="M283.338 261.646V329.307" stroke="white" stroke-width="4" stroke-miterlimit="10" stroke-linecap="round"/>
<path d="M311.877 329.308H255.33" stroke="white" stroke-width="5" stroke-miterlimit="10" stroke-linecap="round"/>
<path d="M330.67 226.653C326.849 238.11 321.029 248.562 311.64 256.353C308.051 259.458 303.774 261.665 299.163 262.791C293.126 264.418 286.851 264.801 280.629 265.007C271.552 265.308 262.472 265.284 253.389 264.937C247.766 264.721 241.355 263.964 238.115 259.363C232.478 251.357 238.197 241.462 246.139 238.584C253.78 235.811 261.902 234.501 269.128 230.604C284.26 222.444 288.235 204.02 292.199 188.752C295.084 177.645 296.927 165.435 304.93 156.559C314.995 145.394 330.894 147.588 337.576 161.038C342.376 170.698 338.887 182.602 337.853 192.752C336.702 204.281 334.293 215.648 330.67 226.653Z" fill="#97B7FF"/>
<path d="M189.558 288.836C186.721 289.671 182.044 288.656 180.521 286.749C178.774 284.559 180.898 280.929 181.876 278.814C185.215 271.592 187.894 264.093 191.056 256.795C192.605 253.15 194.351 249.593 196.286 246.137C198.007 243.114 199.694 240.837 203.493 240.366C205.804 240.184 208.094 240.918 209.867 242.41C212.27 244.317 213.881 247.047 214.386 250.072C215.304 255.715 212.249 261.186 209.047 265.923C206.128 270.243 202.99 274.41 199.647 278.41C198.01 280.368 196.326 282.284 194.593 284.157C193.224 285.636 191.536 288.253 189.558 288.836Z" fill="white"/>
<path d="M173.536 279.81C175.18 280.055 176.844 280.139 178.504 280.061C179.421 279.861 180.32 279.587 181.192 279.241C182.436 281.323 184.294 282.968 186.511 283.949C188.758 284.919 191.158 285.482 193.601 285.613C192.252 288.303 188.901 298.107 188.901 298.107C188.901 298.107 185.801 296.407 183.352 295.407C174.871 291.93 167.479 288.43 159.213 284.467L152.129 281.159L153.259 278.23L173.536 279.81Z" fill="black"/>
<path d="M296.232 213.738C289.193 219.557 280.396 212.401 272.132 211.026C252.994 207.841 224.302 193.183 210.873 214.393C203.541 225.974 196.165 237.639 191.1 250.376C189.405 254.637 187.9 259.116 185.705 263.107C186.27 263.444 186.83 263.787 187.379 264.134C193.249 267.848 198.617 272.455 205.028 275.244C208.209 276.616 211.503 277.708 214.873 278.508C215.973 276.766 217.013 274.983 217.992 273.16C224.376 261.327 228.58 248.051 234.562 236.018C241.926 221.204 257.612 242.895 261.893 248.841C269.317 255.27 318.279 266.848 296.232 213.738Z" fill="#E23D3D"/>
<path d="M299.215 221.837L273.139 222.178C268.924 229.044 253.809 238.789 253.809 238.789C247.44 232.036 239.292 226.512 234.564 236.019C228.579 248.049 224.373 261.325 217.995 273.158C217.012 274.98 215.971 276.765 214.874 278.511C211.503 277.708 208.208 276.615 205.025 275.244C198.613 272.457 193.252 267.844 187.379 264.13C186.832 263.788 186.268 263.447 185.703 263.104C187.903 259.112 189.403 254.632 191.098 250.374C196.168 237.636 203.537 225.974 210.873 214.39C224.304 193.179 252.996 207.84 272.129 211.022C280.396 212.398 289.194 219.553 296.229 213.74C297.428 216.631 298.423 219.33 299.215 221.837Z" fill="#C63030"/>
<path d="M235.591 328.7L235.55 328.749C234.685 329.666 233.661 330.42 232.528 330.974C230.214 332.218 227.342 333.18 224.787 332.093C220.95 330.461 223.016 325.993 223.367 322.83C223.867 318.348 224.189 313.846 224.921 309.394C225.97 303.016 227.933 296.601 231.997 291.574C233.122 290.08 234.559 288.848 236.208 287.965C237.981 287.096 240.208 286.665 241.595 288.204C243.077 290.042 244.064 292.23 244.462 294.558C244.8 297.023 244.728 299.527 244.25 301.969C243.693 305.885 242.702 309.728 241.295 313.426C240.548 315.621 238.203 322.596 237.504 324.799C236.882 326.765 236.95 327.11 235.591 328.7Z" fill="white"/>
<path d="M259.873 235.054C255.453 230.668 250.358 225.88 244.354 223.806C233.879 220.189 227.754 229.277 225.905 238.19C223.254 250.938 220.603 263.687 217.952 276.435C215.705 287.241 214.042 298.198 212.114 309.068L212.091 309.196C213.174 309.61 214.279 309.966 215.399 310.264C218.056 311.008 220.749 311.628 223.45 312.192C225.339 312.622 227.248 312.956 229.17 313.192C231.682 313.454 246.324 314.427 246.819 311.505C249.467 295.837 250.411 279.861 252.481 264.097C252.816 261.549 253.187 258.897 254.609 256.761C257.936 251.753 268.098 252.833 273.101 253.452" fill="#E23D3D"/>
<path d="M259.873 235.054C255.453 230.668 250.358 225.88 244.354 223.806C233.879 220.189 227.754 229.277 225.905 238.19L219.032 271.24" stroke="#A51313" stroke-miterlimit="10"/>
<path d="M214.553 342.372C219.207 342.181 223.825 341.464 228.318 340.236C232.262 339.036 233.503 338.492 237.447 337.289L241.296 335.689C240.255 332.3 239.285 328.989 237.746 324.708C233.322 326.426 226.646 327.425 222.337 325.008C220.326 328.92 215.979 330.955 211.884 332.561L199.284 338.402V340.909C204.298 341.998 209.423 342.489 214.553 342.372Z" fill="black"/>
<path d="M178.866 127.954C180.795 132.059 184.453 142.021 186.427 146.368C189.536 153.214 195.442 163.2 195.442 163.2C195.442 163.2 211.888 169.568 220.18 170.1C231.108 170.805 235.802 172.817 245.3 166.364C247.745 164.703 249.965 162.495 250.68 159.556C250.971 158.388 250.953 157.163 250.625 156.004C249.625 152.568 246.534 151.746 243.66 151.26C234.345 149.811 224.945 148.973 215.521 148.753C212.813 148.641 206.383 148.023 206.383 148.023C206.383 148.023 200.031 140.909 195.442 135.478C194.29 134.115 190.404 128.915 188.026 125.717C186.753 124.005 185.212 122.51 183.461 121.29L183.161 121.083C180.211 119.029 176.05 118.278 173.037 120.239C172.368 120.583 171.814 121.116 171.446 121.773C171.078 122.429 170.911 123.179 170.966 123.929C171.021 124.68 171.295 125.397 171.755 125.993C172.216 126.588 172.841 127.035 173.553 127.277C175.053 128.047 177.273 128.643 178.864 127.951L178.866 127.954Z" fill="#FFA18D"/>
<path d="M319.622 204.657C321.358 209.283 318.697 210.784 316.696 213.518C314.248 216.863 311.696 220.788 305.882 218.894C287.574 212.255 277.95 142.88 307.968 171.474C312.891 181.657 316.074 193.557 319.622 204.657Z" fill="#FFA18D"/>
<path d="M312.308 176.397C308.011 166.228 301.178 157.332 292.46 150.558C288.86 147.764 284.343 146.725 279.895 146.082C275.224 145.407 270.549 144.729 265.842 144.364C251.642 143.264 237.433 145.351 223.309 147.134C223.333 156.444 223.357 165.755 223.38 175.066C223.385 174.658 234.326 174.215 235.494 174.038C235.888 178.532 236.576 182.81 236.576 187.284C236.609 192.17 237.085 197.042 237.999 201.841C238.899 206.699 239.464 212.199 241.908 216.598C247.008 225.776 260.596 223.616 269.247 222.898C274.298 222.482 279.311 221.961 284.381 221.785C287.771 221.833 291.16 221.664 294.528 221.279C296.228 220.997 297.823 220.438 298.346 218.642C299.054 216.211 298.101 213.121 297.603 210.742C296.473 205.357 295.741 198.981 293.603 193.716C293.303 192.977 292.975 192.261 292.614 191.573C296.268 189.636 299.596 187.397 303.067 185.131C304.878 183.949 306.667 182.738 308.402 181.439C309.264 180.793 310.155 180.189 311.002 179.53C312.406 178.449 313.052 178.159 312.308 176.397Z" fill="#FFAB37"/>
<path d="M272.455 142.817C271.498 139.809 270.995 136.674 270.961 133.517C271.743 125.434 275.437 118.255 267.983 112.138C266.354 110.744 264.542 109.578 262.597 108.675C260.864 107.763 258.839 107.575 256.967 108.152C254.994 108.691 253.467 108.384 251.673 109.624C248.64 111.724 247.586 114.996 247.415 118.534C247.408 118.67 247.404 118.813 247.398 118.95C246.989 120.265 246.353 121.499 245.518 122.594C244.818 123.538 243.788 124.559 244.918 125.329C245.715 125.791 246.602 126.076 247.518 126.166C247.699 128.281 248.227 130.35 249.082 132.292C249.668 133.784 250.658 135.082 251.941 136.041C253.058 136.677 256.103 136.694 257.41 136.368C257.105 137.583 256.882 138.816 256.741 140.06C256.427 142.824 256.31 142.568 254.705 143.794C254.563 143.888 254.411 143.967 254.252 144.028C255.55 145.419 257.085 146.567 258.787 147.417C260.965 148.43 263.36 148.882 265.757 148.734C269.24 148.538 272.575 147.264 275.301 145.087C274.65 145.05 274.027 144.812 273.517 144.405C273.007 143.998 272.636 143.444 272.455 142.817Z" fill="#FFA18D"/>
<path d="M251.174 115.224C251.908 114.752 252.694 114.367 253.517 114.077C254.279 113.847 255.778 113.777 256.371 114.454C256.852 115.007 256.548 115.439 256.501 116.078C256.361 117.984 257.482 118.929 259.408 118.101C260.363 117.691 261.483 117.138 262.367 117.687C263.667 118.487 262.782 119.835 262.959 120.948C263.318 122.621 263.953 124.222 264.839 125.685C265.843 127.709 267.211 129.531 268.874 131.06C274.228 135.248 274.533 125.818 276.131 123.289C276.65 122.609 277.061 121.852 277.349 121.046C277.835 119.16 276.494 117.446 275.157 115.925C274.942 115.681 274.728 115.442 274.522 115.208C274.314 115.008 274.162 114.757 274.083 114.479C273.933 113.719 275.402 112.347 275.599 111.414C275.708 110.549 275.634 109.67 275.38 108.835C275.127 108 274.701 107.227 274.129 106.568C273.399 105.728 272.466 105.09 271.419 104.713C270.373 104.336 269.247 104.234 268.149 104.416C267.197 104.585 266.14 104.952 265.324 104.432C264.134 103.675 264.624 102.159 263.675 101.187C263.25 100.739 262.698 100.433 262.093 100.309C261.488 100.185 260.86 100.249 260.293 100.493C259.778 100.751 259.344 101.16 258.807 101.368C257.602 101.834 256.282 101.182 254.997 101.051C254.293 100.984 253.583 101.074 252.918 101.314C252.253 101.554 251.65 101.938 251.151 102.439C250.395 103.209 249.892 104.247 248.973 104.813C247.982 105.423 246.732 105.349 245.605 105.639C244.894 105.863 244.234 106.226 243.664 106.706C243.094 107.186 242.625 107.775 242.284 108.438C241.943 109.101 241.737 109.825 241.677 110.568C241.618 111.311 241.707 112.059 241.938 112.767C242.521 114.158 243.606 115.277 244.978 115.903C246.349 116.528 247.906 116.614 249.338 116.142C249.977 115.893 250.591 115.585 251.174 115.224Z" fill="black"/>
<path d="M262.103 122.623C262.348 122.133 262.663 121.682 263.037 121.282C263.311 120.99 263.654 120.773 264.035 120.651C264.415 120.529 264.821 120.506 265.213 120.584C265.605 120.663 265.971 120.839 266.275 121.098C266.58 121.357 266.814 121.689 266.955 122.063C267.236 122.864 267.245 123.734 266.982 124.541C266.849 125.008 266.621 125.442 266.312 125.817C266.004 126.192 265.621 126.499 265.189 126.719" fill="#FFA18D"/>
<path d="M262.103 122.623C262.348 122.133 262.663 121.682 263.037 121.282C263.311 120.99 263.654 120.773 264.035 120.651C264.415 120.529 264.821 120.506 265.213 120.584C265.605 120.663 265.971 120.839 266.275 121.098C266.58 121.357 266.814 121.689 266.955 122.063C267.236 122.864 267.245 123.734 266.982 124.541C266.849 125.008 266.621 125.442 266.312 125.817C266.004 126.192 265.621 126.499 265.189 126.719" stroke="#E07A6C" stroke-width="0.5" stroke-miterlimit="10"/>
<path d="M292.499 191.254C290.505 187.307 288.772 184.72 286.879 180.674" stroke="#D86627" stroke-width="0.75" stroke-linecap="round" stroke-linejoin="round"/>
<path d="M256.727 126.719C254.847 127.713 252.716 128.131 250.6 127.919C250.6 127.919 251.884 131.446 254.911 131.019C258.083 130.576 256.727 126.719 256.727 126.719Z" fill="white"/>
<path d="M336.78 211.86C298.48 189.667 247.466 229.497 267.927 266.699" stroke="black" stroke-width="3" stroke-miterlimit="10"/>
<path d="M235.449 173.533L233.87 155.399" stroke="#D86627" stroke-width="0.75" stroke-linecap="round" stroke-linejoin="round"/>
<path d="M250.6 144.526L255.141 141.796L262.101 146.365L273.777 142.365L278.456 145.876L263.986 151.966L250.6 144.526Z" fill="#FFAB37"/>
<path d="M276.742 145.482L266.384 152.622L262.096 146.881L258.231 151.699L251.256 144.899" stroke="#D86627" stroke-width="0.75" stroke-linecap="round" stroke-linejoin="round"/>
<path d="M224.152 152.651L227.958 152.594" stroke="#D86627" stroke-width="0.75" stroke-linecap="round" stroke-linejoin="round"/>
<path d="M224.311 149.434L228.117 149.377" stroke="#D86627" stroke-width="0.75" stroke-linecap="round" stroke-linejoin="round"/>
<path d="M224.171 155.399H227.939" stroke="#D86627" stroke-width="0.75" stroke-linecap="round" stroke-linejoin="round"/>
<path d="M224.228 158.714H227.883" stroke="#D86627" stroke-width="0.75" stroke-linecap="round" stroke-linejoin="round"/>
<path d="M224.143 161.939H227.968" stroke="#D86627" stroke-width="0.75" stroke-linecap="round" stroke-linejoin="round"/>
<path d="M224.086 165.165H227.799" stroke="#D86627" stroke-width="0.75" stroke-linecap="round" stroke-linejoin="round"/>
<path d="M224.199 168.392H227.8" stroke="#D86627" stroke-width="0.75" stroke-linecap="round" stroke-linejoin="round"/>
<path d="M224.311 171.616H227.799" stroke="#D86627" stroke-width="0.75" stroke-linecap="round" stroke-linejoin="round"/>
<path d="M199.28 342.378V340.236C201.311 340.738 203.371 341.116 205.448 341.369C206.199 341.469 207.006 341.557 207.856 341.635C213.97 342.05 219.956 342.05 226.247 340.253C227.883 339.776 229.342 339.343 230.647 338.946C239.756 336.183 241.3 335.691 241.3 335.691V337.855C241.3 337.855 237.867 339.125 233.658 340.42C232.817 340.678 231.943 340.938 231.058 341.189C223.376 343.762 215.682 343.762 207.858 343.454C207.101 343.408 206.344 343.348 205.586 343.273C204.069 343.123 202.548 342.907 201.021 342.626C199.93 342.472 199.28 342.183 199.28 342.378Z" fill="#3E49E1"/>
<path d="M335.821 223.171L338.895 340.236" stroke="black" stroke-miterlimit="10"/>
<path d="M186.422 223.171L183.348 340.236" stroke="black" stroke-miterlimit="10"/>
<path d="M121.294 179.843L174.352 181.68L176.999 105.231L123.941 103.394L121.294 179.843Z" stroke="#7C7C7C" stroke-width="0.5" stroke-miterlimit="10" stroke-dasharray="4 4"/>
<path d="M123.83 176.454L172.075 178.145L174.51 108.632L126.266 106.942L123.83 176.454Z" fill="#FFDDD4"/>
<path d="M177 105.231L121.294 179.841" stroke="#7C7C7C" stroke-width="0.5" stroke-miterlimit="10" stroke-dasharray="4 4"/>
<path d="M124.097 103.295L174.196 181.78" stroke="#7C7C7C" stroke-width="0.5" stroke-miterlimit="10" stroke-dasharray="4 4"/>
<path d="M342.698 219.023H177.007V224.524H342.698V219.023Z" fill="#3E49E1"/>
<path d="M202.767 219.116H273.283C273.728 219.116 274.155 218.939 274.47 218.624C274.784 218.309 274.961 217.882 274.961 217.437C274.961 216.992 274.784 216.565 274.47 216.25C274.155 215.935 273.728 215.758 273.283 215.758H202.767C202.322 215.758 201.895 215.935 201.58 216.25C201.266 216.565 201.089 216.992 201.089 217.437C201.089 217.882 201.266 218.309 201.58 218.624C201.895 218.939 202.322 219.116 202.767 219.116Z" fill="black"/>
<path d="M200.858 219.116H263.986L258.493 182.842C258.407 182.237 258.107 181.684 257.649 181.28C257.191 180.877 256.603 180.65 255.993 180.642H197.868C197.512 180.645 197.161 180.726 196.84 180.878C196.518 181.031 196.233 181.251 196.005 181.524C195.777 181.797 195.611 182.117 195.518 182.46C195.425 182.804 195.408 183.164 195.468 183.515L200.858 219.116Z" fill="black"/>
<path d="M226.664 200.312C228.333 200.312 229.686 198.959 229.686 197.29C229.686 195.621 228.333 194.268 226.664 194.268C224.995 194.268 223.642 195.621 223.642 197.29C223.642 198.959 224.995 200.312 226.664 200.312Z" fill="#3E49E1"/>
<path d="M179.015 128.007C176.618 128.314 174.194 128.33 171.793 128.057C171.305 128.02 170.837 127.846 170.442 127.557C170.251 127.407 170.121 127.193 170.074 126.954C170.027 126.716 170.067 126.469 170.187 126.257C170.508 125.818 171.158 125.857 171.7 125.889C173.802 126.018 175.888 125.454 177.639 124.283" fill="#FFA18D"/>
<path d="M179.015 128.007C176.618 128.314 174.194 128.33 171.793 128.057C171.305 128.02 170.837 127.846 170.442 127.557C170.251 127.407 170.121 127.193 170.074 126.954C170.027 126.716 170.067 126.469 170.187 126.257C170.508 125.818 171.158 125.857 171.7 125.889C173.802 126.018 175.888 125.454 177.639 124.283" stroke="#E07A6C" stroke-width="0.5" stroke-miterlimit="10"/>
<path d="M311.973 138.108C311.417 137.47 310.757 136.932 310.021 136.515C305.938 134.215 300.75 136.096 296.883 138.745C289.448 143.838 282.265 148.563 278.428 157.118C274.211 166.523 272.828 177.161 271.491 187.285C271.306 188.685 270.531 191.601 270.891 193.523C272.258 193.241 273.636 192.983 275.025 192.837C275.711 191.544 276.278 190.083 276.675 189.308C281.227 180.146 287.529 171.964 295.225 165.223C301.263 160.072 310.971 156.202 313.686 148.162C314.271 146.478 314.42 144.673 314.121 142.915C313.821 141.157 313.083 139.504 311.973 138.108Z" fill="#97B7FF"/>
<path d="M265.548 179.935C266.54 182.108 267.406 184.336 268.142 186.609C268.518 187.728 270.379 191.637 270.597 193.644L270.733 193.623L271.814 193.402C272.677 191.408 272.086 189.387 272.226 187.261C272.771 179.007 274.49 169.787 271.045 162.027C269.054 157.284 265.279 153.514 260.535 151.527C255.569 149.578 249.114 150.127 245.066 153.575C244.288 154.186 243.667 154.975 243.255 155.875C242.377 158.064 243.697 160.398 245.355 162.106C246.812 163.593 248.5 164.833 250.355 165.778C252.325 166.789 254.495 167.495 256.404 168.59C258.566 169.867 260.439 171.58 261.904 173.619C263.326 175.598 264.547 177.714 265.548 179.935Z" fill="#97B7FF"/>
<path d="M272.95 192.653C277.489 178.58 281.906 163.127 293.236 152.921C296.389 150.175 299.679 147.591 303.094 145.179" stroke="#5485DD" stroke-miterlimit="10"/>
<path d="M257.372 160.694C269.879 167.175 269.272 181.521 271.263 193.081" stroke="#5485DD" stroke-miterlimit="10"/>
<path d="M303.437 198.078C297.806 196.016 292.148 194.037 286.489 192.054C283.319 190.943 280.2 189.689 277.013 188.627C273.826 187.565 270.447 186.311 267.087 187.642C266.696 187.793 266.355 188.05 266.1 188.383C265.035 189.805 266.845 190.163 267.882 190.321C267.686 190.322 267.493 190.366 267.316 190.45C267.139 190.535 266.984 190.657 266.86 190.809C266.736 190.961 266.648 191.138 266.601 191.328C266.554 191.519 266.549 191.717 266.588 191.909C266.706 192.29 266.969 192.609 267.32 192.799C267.67 192.989 268.081 193.034 268.465 192.925C268.009 193.242 267.499 193.665 267.546 194.219C267.608 194.946 268.522 195.208 269.246 195.289C269.066 195.318 268.898 195.394 268.756 195.509C268.615 195.624 268.506 195.773 268.44 195.943C268.374 196.112 268.353 196.296 268.38 196.476C268.406 196.656 268.479 196.826 268.591 196.97C268.855 197.241 269.17 197.456 269.519 197.605C269.867 197.753 270.241 197.832 270.619 197.835C273.043 198.12 275.486 198.209 277.924 198.103C278.056 198.088 278.189 198.099 278.316 198.136C278.427 198.184 278.529 198.251 278.616 198.336C280.53 199.962 282.501 201.519 284.53 203.007C286.385 204.57 288.14 206.249 289.784 208.033L294.567 212.409C298.867 216.342 303.111 219.119 308.931 219.394C311.639 219.522 315.01 219.501 317.352 219.461C318.116 219.448 318.846 219.142 319.391 218.606C319.936 218.07 320.253 217.345 320.278 216.581L320.434 212.002C320.576 208.544 320.096 205.089 319.016 201.802L318.995 201.74C318.809 201.192 317.742 198.64 317.567 198.085" fill="#FFA18D"/>
<path d="M303.437 198.078C297.806 196.016 299.627 196.665 293.969 194.678" stroke="#E07A6C" stroke-miterlimit="10" stroke-linecap="round"/>
<path d="M167.554 280.34C167.716 279.589 169.074 276.598 170.233 277.606C170.938 278.219 169.983 279.406 169.77 280.029C169.658 280.277 169.638 280.556 169.714 280.817C169.791 281.078 169.958 281.303 170.186 281.452C170.443 281.515 170.713 281.491 170.954 281.384C171.196 281.277 171.395 281.093 171.521 280.861C171.837 280.305 172.11 279.725 172.337 279.127C172.453 278.828 172.634 278.558 172.867 278.339C173.1 278.119 173.38 277.954 173.685 277.856C173.761 277.829 173.842 277.82 173.923 277.828C174.003 277.837 174.08 277.863 174.149 277.906C174.218 277.948 174.276 278.005 174.32 278.073C174.364 278.141 174.392 278.218 174.402 278.298C174.473 278.848 174.404 279.408 174.202 279.925C174.104 280.184 174.075 280.464 174.117 280.737C174.16 281.011 174.273 281.269 174.445 281.486C174.705 281.671 175.027 281.75 175.343 281.705C175.659 281.661 175.946 281.496 176.145 281.246C176.524 280.728 176.759 280.119 176.825 279.481" stroke="#97B7FF" stroke-miterlimit="10"/>
<path d="M219.206 330.354C218.966 329.428 218.41 328.614 217.635 328.054C217.425 327.86 217.161 327.737 216.877 327.699C216.594 327.662 216.307 327.713 216.054 327.846C215.889 328.001 215.773 328.202 215.721 328.423C215.669 328.644 215.683 328.875 215.761 329.088C215.925 329.51 216.135 329.913 216.389 330.288C216.556 330.537 216.67 330.818 216.723 331.113C216.776 331.408 216.768 331.711 216.698 332.003C216.655 332.144 216.583 332.274 216.485 332.385C216.388 332.496 216.268 332.584 216.134 332.645C215.999 332.705 215.853 332.736 215.706 332.736C215.559 332.735 215.413 332.703 215.279 332.642C215.054 332.463 214.881 332.227 214.779 331.959C214.577 331.47 214.27 331.031 213.879 330.675C213.679 330.501 213.432 330.39 213.169 330.358C212.906 330.326 212.64 330.374 212.404 330.495C212.157 330.715 211.978 331.002 211.889 331.321C211.8 331.641 211.806 331.979 211.904 332.295C212.111 332.926 212.152 333.599 212.024 334.25C211.748 334.367 211.445 334.403 211.149 334.354C210.854 334.305 210.578 334.173 210.355 333.974C209.915 333.567 209.558 333.08 209.303 332.538" stroke="#97B7FF" stroke-miterlimit="10"/>
<path d="M268.271 190.413C268.271 190.413 269.514 190.084 269.671 190.413" stroke="#E07A6C" stroke-miterlimit="10" stroke-linecap="round"/>
<path d="M268.812 192.954C269.283 192.763 269.803 192.73 270.294 192.86" stroke="#E07A6C" stroke-miterlimit="10" stroke-linecap="round"/>
<path d="M269.553 195.235C269.969 195.145 270.402 195.178 270.799 195.33" stroke="#E07A6C" stroke-miterlimit="10" stroke-linecap="round"/>
<path d="M309.5 175.895L310.717 178.89" stroke="#D86627" stroke-width="0.75" stroke-linecap="round" stroke-linejoin="round"/>
<path d="M307.249 177.393L308.466 180.388" stroke="#D86627" stroke-width="0.75" stroke-linecap="round" stroke-linejoin="round"/>
<path d="M304.694 179.177L305.911 182.172" stroke="#D86627" stroke-width="0.75" stroke-linecap="round" stroke-linejoin="round"/>
<path d="M302.139 180.961L303.356 183.956" stroke="#D86627" stroke-width="0.75" stroke-linecap="round" stroke-linejoin="round"/>
<path d="M299.583 182.743L300.8 185.738" stroke="#D86627" stroke-width="0.75" stroke-linecap="round" stroke-linejoin="round"/>
<path d="M297.028 184.527L298.245 187.522" stroke="#D86627" stroke-width="0.75" stroke-linecap="round" stroke-linejoin="round"/>
<path d="M294.473 186.312L295.69 189.307" stroke="#D86627" stroke-width="0.75" stroke-linecap="round" stroke-linejoin="round"/>
<path d="M252.148 119.794C252.148 120.11 252.501 120.994 251.442 120.994C250.901 120.994 250.736 120.107 250.736 119.794C250.77 119.632 250.858 119.486 250.987 119.382C251.115 119.277 251.276 119.22 251.442 119.22C251.608 119.22 251.769 119.277 251.897 119.382C252.026 119.486 252.114 119.632 252.148 119.794Z" fill="black"/>
<path d="M249.565 117.116C250.33 116.551 251.284 116.304 252.227 116.426C253.17 116.549 254.029 117.032 254.624 117.774" stroke="black" stroke-miterlimit="10" stroke-linecap="round"/>
<path d="M152.124 281.157L151.419 282.604L188.135 299.546L188.897 298.108C183.191 294.174 176.352 292.464 169.211 289.085C168.511 288.785 167.811 288.465 167.105 288.133C166.399 287.801 165.694 287.455 164.986 287.088L163.598 286.445L152.124 281.157Z" fill="#E23D3D"/>
<path d="M71.302 265.256C70.3232 265.558 69.3767 265.956 68.476 266.444C68.7465 266.704 68.9565 267.02 69.0914 267.371C69.2263 267.721 69.2826 268.097 69.2565 268.471C69.2303 268.846 69.1224 269.21 68.9402 269.538C68.758 269.866 68.506 270.15 68.202 270.371C67.9317 270.584 67.6214 270.742 67.2894 270.834C66.9574 270.926 66.6104 270.951 66.2687 270.907C65.9269 270.863 65.5974 270.752 65.2993 270.579C65.0013 270.406 64.7407 270.176 64.533 269.901C64.4752 269.818 64.4224 269.732 64.375 269.644C63.673 270.406 63.0458 271.234 62.502 272.116C62.5973 272.138 62.6911 272.166 62.783 272.2C63.4284 272.473 63.9405 272.989 64.2087 273.637C64.4768 274.284 64.4794 275.011 64.216 275.661C64.0922 276.017 63.8897 276.34 63.6236 276.607C63.3576 276.874 63.0348 277.077 62.6792 277.202C62.3237 277.327 61.9445 277.37 61.57 277.328C61.1955 277.287 60.8352 277.161 60.516 276.961C60.2787 277.983 60.1414 279.026 60.106 280.076C60.4662 279.962 60.8472 279.931 61.221 279.985C61.5947 280.039 61.9515 280.177 62.2649 280.387C62.5784 280.598 62.8405 280.876 63.0318 281.201C63.2231 281.527 63.3387 281.891 63.37 282.268C63.4678 282.96 63.2876 283.664 62.8687 284.224C62.4498 284.785 61.8261 285.156 61.134 285.259C61.0108 285.272 60.8868 285.276 60.763 285.272C61.0615 286.287 61.4591 287.27 61.95 288.207C62.2022 287.924 62.5145 287.702 62.8641 287.557C63.2136 287.411 63.5914 287.346 63.9694 287.366C64.3474 287.387 64.7161 287.491 65.0482 287.673C65.3803 287.855 65.6673 288.109 65.888 288.417C66.3134 288.975 66.5032 289.677 66.4167 290.373C66.3301 291.069 65.9741 291.704 65.425 292.141C65.3169 292.222 65.2026 292.295 65.083 292.358C65.8479 293.085 66.683 293.734 67.576 294.297C67.6038 294.165 67.6416 294.035 67.689 293.909C67.815 293.588 68.0037 293.295 68.244 293.047C68.4843 292.8 68.7714 292.602 69.0887 292.467C69.406 292.332 69.747 292.261 70.092 292.258C70.437 292.256 70.7789 292.322 71.098 292.454C71.7436 292.727 72.2559 293.243 72.5243 293.89C72.7926 294.538 72.7953 295.265 72.532 295.915C72.4756 296.048 72.4088 296.177 72.332 296.3C73.3596 296.544 74.4093 296.682 75.465 296.714C75.3462 296.349 75.309 295.963 75.356 295.583C75.4031 295.202 75.5332 294.837 75.7372 294.513C75.9413 294.188 76.2142 293.913 76.5366 293.705C76.859 293.498 77.2231 293.364 77.603 293.314C77.9827 293.26 78.3696 293.291 78.736 293.404C79.1024 293.518 79.4391 293.711 79.7221 293.969C80.0051 294.228 80.2273 294.546 80.3729 294.901C80.5184 295.256 80.5837 295.639 80.564 296.022C81.5762 295.71 82.5539 295.296 83.482 294.786C83.379 294.694 83.2836 294.593 83.197 294.486C82.7715 293.928 82.5817 293.225 82.6682 292.529C82.7548 291.832 83.1108 291.198 83.66 290.761C83.9561 290.521 84.3021 290.35 84.6728 290.261C85.0435 290.172 85.4294 290.167 85.8022 290.246C86.1751 290.325 86.5255 290.487 86.8277 290.719C87.13 290.952 87.3764 291.249 87.549 291.589C88.2642 290.805 88.9006 289.953 89.449 289.045C89.3219 289.017 89.1972 288.98 89.076 288.933C88.4304 288.66 87.9181 288.144 87.65 287.496C87.3818 286.848 87.3793 286.121 87.643 285.472C87.7716 285.113 87.9794 284.789 88.251 284.522C88.5226 284.255 88.8509 284.053 89.2114 283.931C89.5719 283.809 89.9554 283.77 90.3331 283.817C90.7108 283.864 91.0732 283.995 91.393 284.202C91.6244 283.168 91.7537 282.114 91.779 281.055C91.6664 281.091 91.5515 281.119 91.435 281.139C91.0925 281.184 90.7444 281.161 90.4107 281.072C90.077 280.982 89.7643 280.828 89.4906 280.617C89.2169 280.406 88.9876 280.143 88.8159 279.843C88.6441 279.543 88.5334 279.212 88.49 278.87C88.3919 278.177 88.572 277.473 88.991 276.913C89.4099 276.352 90.0337 275.981 90.726 275.879C90.8406 275.867 90.9558 275.862 91.071 275.866C90.7664 274.862 90.3645 273.891 89.871 272.966C89.7988 273.044 89.722 273.118 89.641 273.188C89.3706 273.401 89.0602 273.558 88.7282 273.65C88.3962 273.742 88.0492 273.767 87.7075 273.723C87.3658 273.679 87.0363 273.568 86.7383 273.395C86.4403 273.222 86.1798 272.991 85.972 272.717C85.5468 272.159 85.3572 271.456 85.4437 270.76C85.5303 270.064 85.8861 269.43 86.435 268.993C86.5195 268.931 86.6076 268.875 86.699 268.825C85.9462 268.118 85.1267 267.487 84.252 266.939C84.225 267.031 84.208 267.125 84.172 267.215C84.046 267.536 83.8573 267.829 83.6169 268.076C83.3765 268.324 83.0893 268.521 82.7719 268.657C82.4545 268.792 82.1133 268.863 81.7682 268.865C81.4232 268.867 81.0811 268.801 80.762 268.67C80.1165 268.396 79.6045 267.88 79.3363 267.233C79.0682 266.585 79.0656 265.858 79.329 265.209C79.3697 265.12 79.4151 265.033 79.465 264.949C78.4691 264.718 77.4528 264.586 76.431 264.556C76.4565 264.642 76.4772 264.73 76.493 264.819C76.5479 265.162 76.5337 265.513 76.4513 265.852C76.3688 266.19 76.2197 266.508 76.0128 266.788C75.8058 267.067 75.5451 267.303 75.2459 267.481C74.9467 267.658 74.615 267.775 74.2704 267.823C73.9257 267.871 73.5749 267.849 73.2386 267.76C72.9022 267.671 72.5871 267.515 72.3116 267.303C72.0361 267.09 71.8058 266.825 71.6341 266.522C71.4625 266.219 71.353 265.885 71.312 265.54C71.3037 265.445 71.3004 265.35 71.302 265.256ZM74.483 269.924C76.6034 269.606 78.7703 269.926 80.7087 270.842C82.647 271.758 84.2692 273.23 85.3694 275.07C86.4695 276.911 86.9979 279.036 86.8874 281.178C86.777 283.319 86.0326 285.379 84.7489 287.096C83.4652 288.813 81.7001 290.11 79.6778 290.822C77.6554 291.534 75.4671 291.629 73.3906 291.095C71.3142 290.561 69.4435 289.421 68.0159 287.822C66.5883 286.222 65.6684 284.234 65.373 282.111C65.1608 280.711 65.2289 279.283 65.5733 277.91C65.9177 276.537 66.5315 275.246 67.3791 274.112C68.2267 272.978 69.2912 272.024 70.5107 271.305C71.7302 270.586 73.0805 270.116 74.483 269.924Z" fill="#FF5E58"/>
<path d="M74.662 271.254C76.5195 270.976 78.4178 271.256 80.1159 272.058C81.8139 272.861 83.2351 274.15 84.199 275.762C85.1628 277.374 85.6257 279.237 85.529 281.112C85.4323 282.988 84.7803 284.793 83.6558 286.297C82.5313 287.802 80.985 288.938 79.2134 289.562C77.4418 290.185 75.5247 290.269 73.7057 289.801C71.8867 289.333 70.2479 288.335 68.9973 286.933C67.7467 285.532 66.9408 283.79 66.682 281.93C66.4961 280.704 66.5557 279.453 66.8573 278.25C67.159 277.047 67.6967 275.916 68.4391 274.923C69.1816 273.93 70.1141 273.094 71.1823 272.464C72.2506 271.834 73.4334 271.423 74.662 271.254V271.254Z" stroke="white" stroke-width="0.5" stroke-miterlimit="10" stroke-linecap="round"/>
<path d="M30.269 255.006C28.7458 255.422 27.2673 255.986 25.855 256.692C25.9548 256.794 26.0489 256.901 26.137 257.013C26.7646 257.894 27.0219 258.986 26.8536 260.054C26.6853 261.122 26.1049 262.082 25.237 262.727C24.8095 263.042 24.3235 263.269 23.8074 263.393C23.2913 263.518 22.7555 263.539 22.2314 263.454C21.7073 263.369 21.2054 263.18 20.7551 262.899C20.3048 262.617 19.9151 262.249 19.609 261.815C19.5238 261.687 19.4463 261.553 19.377 261.415C18.2581 262.553 17.2512 263.796 16.37 265.126C16.5154 265.166 16.6583 265.214 16.798 265.27C17.7777 265.723 18.5401 266.543 18.9209 267.554C19.3017 268.564 19.2705 269.683 18.834 270.67C18.6236 271.158 18.3182 271.599 17.9356 271.968C17.553 272.337 17.1008 272.626 16.6054 272.819C16.11 273.011 15.5813 273.103 15.05 273.089C14.5188 273.075 13.9956 272.955 13.511 272.737C13.3571 272.661 13.2084 272.575 13.066 272.479C12.6506 274.042 12.388 275.642 12.282 277.256C12.444 277.212 12.6087 277.179 12.775 277.156C13.8485 277.057 14.918 277.385 15.7508 278.07C16.5836 278.754 17.1125 279.74 17.2224 280.813C17.3323 281.885 17.0143 282.958 16.3377 283.797C15.6611 284.637 14.6804 285.175 13.609 285.295C13.4182 285.308 13.2268 285.308 13.036 285.295C13.446 286.873 14.0096 288.408 14.719 289.876C14.8521 289.738 14.9948 289.609 15.146 289.49C15.5734 289.175 16.0594 288.949 16.5754 288.824C17.0915 288.699 17.6273 288.678 18.1514 288.763C18.6755 288.848 19.1774 289.037 19.6278 289.318C20.0781 289.599 20.4678 289.967 20.774 290.401C21.4019 291.282 21.6593 292.374 21.491 293.442C21.3227 294.51 20.7421 295.47 19.874 296.115C19.7035 296.235 19.524 296.341 19.337 296.432C20.4814 297.594 21.7382 298.64 23.089 299.554C23.1382 299.352 23.2028 299.154 23.282 298.962C23.4925 298.474 23.798 298.033 24.1806 297.664C24.5632 297.296 25.0154 297.007 25.5107 296.814C26.0061 296.622 26.5348 296.53 27.066 296.544C27.5972 296.558 28.1204 296.677 28.605 296.895C29.1473 297.136 29.63 297.494 30.0192 297.942C30.4083 298.39 30.6944 298.918 30.8573 299.489C31.0202 300.059 31.0559 300.659 30.9618 301.245C30.8678 301.831 30.6463 302.389 30.313 302.88C31.8836 303.31 33.4939 303.578 35.119 303.68C35.0596 303.472 35.0165 303.26 34.99 303.046C34.9282 302.517 34.9721 301.98 35.1191 301.468C35.2661 300.955 35.5132 300.477 35.8462 300.061C36.1793 299.645 36.5916 299.299 37.0592 299.043C37.5269 298.787 38.0407 298.626 38.5708 298.57C39.101 298.514 39.6369 298.564 40.1477 298.717C40.6585 298.869 41.1339 299.122 41.5465 299.459C41.9591 299.797 42.3006 300.213 42.5513 300.683C42.802 301.154 42.9569 301.669 43.007 302.2C43.0253 302.425 43.0253 302.651 43.007 302.876C44.5809 302.447 46.1071 301.859 47.562 301.121C47.4081 300.972 47.2663 300.81 47.138 300.638C46.5104 299.757 46.2531 298.666 46.4214 297.597C46.5897 296.529 47.1701 295.569 48.038 294.924C48.4654 294.609 48.9514 294.383 49.4676 294.258C49.9837 294.133 50.5195 294.112 51.0437 294.197C51.5678 294.282 52.0698 294.471 52.5201 294.752C52.9704 295.034 53.3599 295.402 53.666 295.836C53.7882 296.015 53.8958 296.203 53.988 296.398C55.1299 295.228 56.1535 293.948 57.044 292.576C56.8498 292.527 56.6597 292.463 56.475 292.385C55.4955 291.932 54.7333 291.112 54.3524 290.102C53.9716 289.092 54.0027 287.972 54.439 286.985C54.6493 286.497 54.9546 286.056 55.3372 285.687C55.7198 285.318 56.172 285.029 56.6674 284.836C57.1629 284.644 57.6916 284.552 58.2229 284.566C58.7542 284.58 59.2774 284.7 59.762 284.918C59.9417 285.005 60.1146 285.105 60.279 285.218C60.6867 283.637 60.9383 282.02 61.03 280.39C60.8552 280.44 60.6771 280.477 60.497 280.502C59.4242 280.6 58.356 280.271 57.5243 279.586C56.6927 278.902 56.1647 277.916 56.055 276.845C55.9453 275.773 56.2628 274.701 56.9385 273.862C57.6142 273.023 58.5936 272.484 59.664 272.363C59.8411 272.351 60.0189 272.351 60.196 272.363C59.7758 270.803 59.2044 269.288 58.49 267.839C58.3754 267.956 58.2539 268.066 58.126 268.168C57.6986 268.483 57.2126 268.71 56.6965 268.834C56.1805 268.959 55.6447 268.98 55.1206 268.895C54.5965 268.81 54.0946 268.622 53.6442 268.34C53.1939 268.059 52.8042 267.691 52.498 267.257C51.8702 266.376 51.6127 265.285 51.781 264.216C51.9493 263.148 52.5298 262.188 53.398 261.543C53.5314 261.453 53.6703 261.371 53.814 261.298C52.6895 260.171 51.4584 259.156 50.138 258.267C50.0997 258.41 50.0537 258.551 50 258.689C49.7896 259.177 49.4842 259.618 49.1016 259.987C48.719 260.356 48.2668 260.645 47.7714 260.837C47.276 261.03 46.7473 261.122 46.216 261.108C45.6848 261.094 45.1616 260.974 44.677 260.756C43.6975 260.303 42.9353 259.483 42.5545 258.473C42.1737 257.463 42.2047 256.343 42.641 255.356C42.7079 255.221 42.7823 255.089 42.864 254.962C41.3414 254.556 39.7825 254.302 38.21 254.202C38.237 254.338 38.278 254.469 38.293 254.611C38.3594 255.143 38.3192 255.682 38.1746 256.198C38.0301 256.714 37.7841 257.196 37.451 257.616C37.118 258.036 36.7046 258.385 36.235 258.643C35.7654 258.902 35.2491 259.063 34.7162 259.12C34.1833 259.176 33.6445 259.125 33.1314 258.971C32.6183 258.817 32.1411 258.561 31.7278 258.22C31.3144 257.879 30.9732 257.459 30.7241 256.985C30.475 256.51 30.323 255.991 30.277 255.457C30.2656 255.307 30.2629 255.156 30.269 255.006ZM34.937 262.359C38.22 261.974 41.5433 262.574 44.4847 264.082C47.4261 265.59 49.8528 267.938 51.4565 270.829C53.0602 273.719 53.7684 277.021 53.4912 280.315C53.214 283.608 51.964 286.745 49.8998 289.327C47.8356 291.909 45.0506 293.819 41.8985 294.814C38.7464 295.809 35.3697 295.845 32.1972 294.917C29.0248 293.989 26.1999 292.138 24.0815 289.601C21.9631 287.063 20.6469 283.953 20.3 280.666C20.0469 278.501 20.2258 276.307 20.8262 274.212C21.4267 272.116 22.4367 270.161 23.798 268.458C25.1592 266.755 26.8446 265.34 28.7566 264.293C30.6686 263.246 32.7693 262.589 34.937 262.359Z" fill="#FFB331"/>
<path d="M34.21 297.722C37.9264 298.26 41.7188 297.681 45.1056 296.059C48.4924 294.437 51.3206 291.845 53.2312 288.612C55.1418 285.38 56.0485 281.652 55.8361 277.903C55.6237 274.154 54.3018 270.552 52.0383 267.556C49.7748 264.56 46.6719 262.304 43.1236 261.075C39.5753 259.846 35.7418 259.699 32.1099 260.653C28.478 261.607 25.2117 263.619 22.7257 266.434C20.2398 269.248 18.6464 272.738 18.148 276.46C17.7923 278.913 17.9268 281.411 18.5434 283.812C19.1601 286.212 20.2469 288.466 21.7407 290.444C23.2346 292.421 25.1058 294.083 27.2462 295.332C29.3866 296.581 31.7535 297.394 34.21 297.722ZM24.222 277.271C24.5857 274.827 25.6631 272.545 27.3189 270.712C28.9748 268.878 31.1353 267.574 33.5294 266.964C35.9234 266.354 38.4444 266.464 40.776 267.281C43.1076 268.099 45.1458 269.586 46.635 271.558C48.1242 273.529 48.9979 275.896 49.1466 278.363C49.2953 280.829 48.7123 283.284 47.4708 285.42C46.2292 287.556 44.3845 289.278 42.168 290.369C39.9515 291.461 37.4621 291.873 35.012 291.555C33.3618 291.334 31.7718 290.788 30.334 289.949C28.8962 289.11 27.6391 287.993 26.6356 286.665C25.6321 285.337 24.9021 283.822 24.4878 282.21C24.0735 280.597 23.9832 278.919 24.222 277.271Z" fill="#FFB331"/>
<path d="M22.017 276.979C22.4453 274.103 23.7137 271.417 25.663 269.258C27.6123 267.1 30.1557 265.565 32.974 264.847C35.7923 264.129 38.76 264.259 41.5046 265.221C44.2492 266.183 46.6485 267.935 48.4013 270.255C50.1542 272.576 51.1825 275.363 51.3573 278.266C51.5321 281.169 50.8456 284.06 49.3839 286.574C47.9222 289.088 45.7504 291.115 43.141 292.399C40.5317 293.684 37.6011 294.169 34.717 293.794C32.7745 293.535 30.9028 292.892 29.2103 291.904C27.5179 290.916 26.0382 289.602 24.8571 288.038C23.6759 286.474 22.8167 284.691 22.3292 282.793C21.8417 280.895 21.7356 278.919 22.017 276.979V276.979Z" stroke="white" stroke-width="0.5" stroke-miterlimit="10" stroke-linecap="round"/>
<path d="M172.096 262.179V253.18H111.723V262.179H172.096Z" fill="#97B7FF"/>
<path d="M99.875 257.728L111.822 262.183V253.183L99.875 257.728Z" fill="#010101"/>
<path d="M81.662 257.85L90.894 263.693L101.549 257.793L91.238 251.664L81.662 257.85Z" fill="#010101"/>
<path d="M90.379 256.132C90.685 256.132 90.9841 256.223 91.2385 256.393C91.4929 256.563 91.6912 256.804 91.8082 257.087C91.9253 257.369 91.956 257.681 91.8963 257.981C91.8366 258.281 91.6892 258.556 91.4729 258.773C91.2565 258.989 90.9809 259.136 90.6808 259.196C90.3807 259.256 90.0697 259.225 89.787 259.108C89.5043 258.991 89.2627 258.793 89.0927 258.538C88.9227 258.284 88.832 257.985 88.832 257.679C88.832 257.476 88.872 257.275 88.9498 257.087C89.0275 256.899 89.1415 256.729 89.2851 256.585C89.4288 256.441 89.5993 256.327 89.787 256.25C89.9747 256.172 90.1759 256.132 90.379 256.132Z" fill="#FFDDD4"/>
<path d="M81.662 257.68H90.379" stroke="#FFDDD4" stroke-width="0.5" stroke-miterlimit="10"/>
<path d="M105.765 257.256V257.988C105.765 259.111 105.319 260.188 104.524 260.983C103.73 261.777 102.652 262.224 101.529 262.224C100.406 262.224 99.3281 261.777 98.5337 260.983C97.7393 260.188 97.293 259.111 97.293 257.988V257.256C97.293 256.132 97.7393 255.055 98.5337 254.26C99.3281 253.466 100.406 253.02 101.529 253.02C102.652 253.02 103.73 253.466 104.524 254.26C105.319 255.055 105.765 256.132 105.765 257.256Z" fill="#F0A600"/>
<path d="M345.715 28.0398C345.414 27.5837 345.06 27.1642 344.662 26.7898C341.231 23.5728 335.746 24.4899 331.262 25.9209C321.24 29.1289 309.912 34.8649 304.062 43.9209C297.623 53.8779 294.199 65.7318 290.907 77.0089C290.452 78.5658 289.061 81.7489 289.139 83.9989C290.739 83.9169 292.354 83.8628 293.957 83.9408C294.962 82.5898 295.864 81.0289 296.45 80.2159C303.227 70.5936 311.822 62.3913 321.75 56.0718C330.616 50.5878 340.71 48.1658 345.81 38.0838C347.392 34.9558 347.596 30.8818 345.715 28.0398Z" fill="#97B7FF"/>
<path d="M285.594 83.9278H287.387C287.387 83.9028 287.387 83.8758 287.382 83.8508C287.304 83.2778 287.139 82.7268 287.051 82.1028C286.893 80.9888 286.727 79.8928 286.462 78.7898C285.883 76.3838 285.119 74.0288 284.416 71.6578C283.378 67.8352 281.928 64.1368 280.09 60.6278C278.225 57.0151 275.391 53.9935 271.905 51.9018C263.424 47.1878 248.105 49.9158 243.988 59.5078C242.629 62.6708 242.912 66.6828 245.295 69.1668C246.481 70.3302 247.947 71.1694 249.551 71.6038C251.706 72.25 253.98 72.3913 256.198 72.0168C261.586 71.1018 267.804 69.4828 273.361 70.9518C273.921 71.1005 274.468 71.2921 274.998 71.5248C277.786 72.9206 280.184 74.9863 281.978 77.5368C283.52 79.5168 285.026 81.5128 285.594 83.9278Z" fill="#FFAB37"/>
<path d="M283.441 61.7693C284.337 65.3621 285.048 68.9986 285.571 72.6643C285.849 74.4783 287.56 80.9383 287.439 84.0833H287.628L289.142 83.9983C290.73 81.1313 290.347 77.8773 290.982 74.6363C293.443 62.0513 297.7 48.2543 294.641 35.4873C292.872 28.1053 288.897 20.9993 282.559 16.8213C276.221 12.6433 267.342 11.9613 261.125 16.3163C259.91 17.107 258.903 18.1772 258.187 19.4373C256.538 22.6003 257.844 26.5103 259.741 29.5313C261.368 32.1204 263.402 34.4298 265.765 36.3703C268.229 38.3933 271.028 39.9943 273.392 42.1333C276.119 44.6886 278.304 47.7654 279.819 51.1813C281.343 54.5942 282.555 58.138 283.441 61.7693Z" fill="#FF5E58"/>
<path d="M291.631 83.3615C299.249 68.1525 306.97 51.3545 321.631 41.7285C325.695 39.1568 329.888 36.7931 334.192 34.6465" stroke="#5485DD" stroke-miterlimit="10"/>
<path d="M286.547 83.6675C282.747 74.8775 279.096 67.4805 270.983 63.6675C265.733 61.2805 260.006 61.7585 254.932 62.2445" stroke="#D86627" stroke-width="0.75" stroke-linecap="round" stroke-linejoin="round"/>
<path d="M276.349 30.1973C291.982 43.1403 288.163 65.0973 288.459 83.3733" stroke="#C92D2D" stroke-linecap="round" stroke-linejoin="round"/>
<path d="M271.702 83.9277H306.575" stroke="#58A59C" stroke-linecap="round" stroke-linejoin="round"/>
<path d="M29.023 323.814C29.5813 324.312 30.233 324.693 30.9402 324.936C31.6475 325.178 32.3959 325.278 33.142 325.228C34.6009 325.047 35.9594 324.39 37.007 323.359L69.119 321.429L68.585 313.287L36.543 315.209C35.9833 314.708 35.3267 314.326 34.6137 314.089C33.9007 313.852 33.1466 313.763 32.398 313.829C31.0127 313.919 29.709 314.516 28.736 315.506C28.19 316.059 27.7625 316.718 27.4799 317.443C27.1972 318.167 27.0653 318.941 27.0922 319.718C27.119 320.495 27.3041 321.258 27.6361 321.961C27.9681 322.664 28.44 323.292 29.023 323.806V323.814ZM31.017 318.342C31.2843 317.978 31.6808 317.729 32.1253 317.648C32.5698 317.566 33.0287 317.657 33.408 317.903L33.15 317.76L33.174 317.769C33.5398 317.918 33.848 318.181 34.0529 318.519C34.2579 318.856 34.3487 319.251 34.312 319.644C34.2683 320.04 34.0949 320.409 33.8188 320.696C33.5427 320.982 33.1795 321.169 32.786 321.227H32.758C32.4586 321.247 32.1582 321.208 31.874 321.112V321.123C31.85 321.114 31.824 321.097 31.799 321.085C31.6676 321.034 31.5422 320.969 31.425 320.89C31.395 320.87 31.374 320.843 31.346 320.822C30.9868 320.528 30.753 320.108 30.6919 319.647C30.6308 319.187 30.747 318.72 31.017 318.342Z" fill="#6696EC"/>
<path d="M68.582 315.746L36.117 317.701" stroke="#2058A8" stroke-miterlimit="10"/>
<path d="M68.825 318.939L36.233 320.879" stroke="#2058A8" stroke-miterlimit="10"/>
<path d="M72.419 324.22C74.2364 324.107 75.9533 323.347 77.2596 322.079C78.5658 320.81 79.375 319.116 79.541 317.303L79.658 316.069L73.404 319.102L70.985 314.113L77.344 311.031L76.397 310.347C74.9143 309.279 73.099 308.776 71.2783 308.928C69.4575 309.08 67.7509 309.878 66.466 311.177C66.359 311.286 66.254 311.398 66.152 311.515C65.1536 312.655 64.5155 314.065 64.3184 315.568C64.1213 317.071 64.3741 318.598 65.0448 319.957C65.7154 321.316 66.7739 322.446 68.0864 323.204C69.399 323.962 70.9067 324.313 72.419 324.215V324.22Z" fill="#97B7FF"/>
<path d="M28.666 318.109C28.9237 317.355 29.3991 316.695 30.0322 316.211C30.6653 315.727 31.4276 315.442 32.2227 315.392C33.0178 315.341 33.81 315.528 34.4991 315.928C35.1882 316.328 35.7432 316.923 36.094 317.638C36.4448 318.353 36.5756 319.157 36.4699 319.946C36.3641 320.736 36.0266 321.477 35.5 322.074C34.9733 322.672 34.2812 323.1 33.5112 323.305C32.7412 323.509 31.9278 323.481 31.174 323.223C30.1635 322.877 29.3317 322.144 28.8614 321.185C28.3911 320.226 28.3208 319.12 28.666 318.109V318.109Z" stroke="#2058A8" stroke-miterlimit="10"/>
<path d="M112.387 10.0225L104.602 20.0315" stroke="#FF5E58" stroke-miterlimit="10"/>
<path d="M118.504 10.0225L110.719 20.0315" stroke="#FF5E58" stroke-miterlimit="10"/>
<path d="M124.62 10.0225L116.835 20.0315" stroke="#FF5E58" stroke-miterlimit="10"/>
<path d="M176.236 10.0225L168.451 20.0315" stroke="#FF5E58" stroke-miterlimit="10"/>
<path d="M182.353 10.0225L174.568 20.0315" stroke="#FF5E58" stroke-miterlimit="10"/>
<path d="M124.058 16.1875H129.643" stroke="#FF5E58" stroke-miterlimit="10"/>
<path d="M131.746 16.1875H137.331" stroke="#FF5E58" stroke-miterlimit="10"/>
<path d="M139.434 16.1875H145.019" stroke="#FF5E58" stroke-miterlimit="10"/>
<path d="M181.21 16.1875H186.795" stroke="#FF5E58" stroke-miterlimit="10"/>
<path d="M188.898 16.1875H194.483" stroke="#FF5E58" stroke-miterlimit="10"/>
<path d="M161.482 16.1875H167.067" stroke="#FF5E58" stroke-miterlimit="10"/>
<path d="M155.027 11.6133L148.499 16.0023L154.156 21.0423" stroke="#FF5E58" stroke-miterlimit="10"/>
<path d="M160.543 11.6133L154.015 16.0023L159.672 21.0423" stroke="#FF5E58" stroke-miterlimit="10"/>
<path d="M46.521 59.6182L38.688 65.2752L46.088 70.0622" stroke="#6696EC" stroke-miterlimit="10"/>
<path d="M118.759 59.6182L110.926 65.2752L118.326 70.0622" stroke="#6696EC" stroke-miterlimit="10"/>
<path d="M51.743 62.9131H61.317" stroke="#6696EC" stroke-miterlimit="10"/>
<path d="M51.743 66.7695H61.317" stroke="#6696EC" stroke-miterlimit="10"/>
<path d="M70.02 60.0537L66.539 69.6277" stroke="#6696EC" stroke-miterlimit="10"/>
<path d="M75.242 60.0537L71.761 69.6277" stroke="#6696EC" stroke-miterlimit="10"/>
<path d="M128.333 60.0537L124.852 69.6277" stroke="#6696EC" stroke-miterlimit="10"/>
<path d="M133.555 60.0537L130.074 69.6277" stroke="#6696EC" stroke-miterlimit="10"/>
<path d="M81.77 62.6639C81.77 62.836 81.719 63.0042 81.6234 63.1473C81.5278 63.2904 81.3919 63.4019 81.233 63.4677C81.074 63.5336 80.8991 63.5508 80.7303 63.5172C80.5615 63.4837 80.4065 63.4008 80.2848 63.2791C80.1632 63.1575 80.0803 63.0024 80.0467 62.8337C80.0132 62.6649 80.0304 62.49 80.0962 62.331C80.1621 62.172 80.2736 62.0362 80.4167 61.9406C80.5597 61.845 80.728 61.7939 80.9 61.7939C81.1308 61.7939 81.3521 61.8856 81.5152 62.0488C81.6784 62.2119 81.77 62.4332 81.77 62.6639V62.6639Z" stroke="#6696EC" stroke-miterlimit="10"/>
<path d="M81.77 67.0165C81.77 67.1885 81.719 67.3568 81.6234 67.4998C81.5278 67.6429 81.3919 67.7544 81.233 67.8203C81.074 67.8861 80.8991 67.9033 80.7303 67.8698C80.5615 67.8362 80.4065 67.7533 80.2848 67.6317C80.1632 67.51 80.0803 67.355 80.0467 67.1862C80.0132 67.0175 80.0304 66.8425 80.0962 66.6835C80.1621 66.5246 80.2736 66.3887 80.4167 66.2931C80.5597 66.1975 80.728 66.1465 80.9 66.1465C81.1307 66.1467 81.3518 66.2385 81.5149 66.4016C81.678 66.5647 81.7698 66.7858 81.77 67.0165V67.0165Z" stroke="#6696EC" stroke-miterlimit="10"/>
<path d="M95.26 64.8436C95.26 67.9676 93.507 70.5005 91.344 70.5005C89.181 70.5005 87.428 67.9676 87.428 64.8436C87.428 61.7196 89.181 59.1855 91.344 59.1855C93.507 59.1855 95.26 61.7156 95.26 64.8436Z" stroke="#6696EC" stroke-miterlimit="10"/>
<path d="M107.445 64.8436C107.445 67.9676 105.692 70.5005 103.529 70.5005C101.366 70.5005 99.613 67.9676 99.613 64.8436C99.613 61.7196 101.366 59.1855 103.529 59.1855C105.692 59.1855 107.445 61.7156 107.445 64.8436Z" stroke="#6696EC" stroke-miterlimit="10"/>
<path d="M316.002 92.6084L309.093 98.2654L315.618 103.052" stroke="#6696EC" stroke-miterlimit="10"/>
<path d="M326.2 92.6084L319.291 98.2654L325.816 103.052" stroke="#6696EC" stroke-miterlimit="10"/>
<path d="M329.651 95.9023H338.095" stroke="#6696EC" stroke-miterlimit="10"/>
<path d="M329.651 99.7588H338.095" stroke="#6696EC" stroke-miterlimit="10"/>
<path d="M277.619 97.8311H284.144" stroke="#6696EC" stroke-miterlimit="10"/>
<path d="M287.982 97.8311H294.507" stroke="#6696EC" stroke-miterlimit="10"/>
<path d="M298.346 97.8311H304.871" stroke="#6696EC" stroke-miterlimit="10"/>
<path d="M312.62 150.955C311.015 153.373 308.964 155.462 306.576 157.111C305.35 157.853 304.186 158.693 303.095 159.622" stroke="#5485DD" stroke-miterlimit="10" stroke-linecap="round"/>
<path d="M212.461 306.525C212.461 306.525 232.507 314.425 247.001 309.838" stroke="white" stroke-width="0.5" stroke-miterlimit="10"/>
<path d="M212.858 305.128C212.858 305.128 232.904 313.028 247.398 308.44" stroke="white" stroke-width="0.5" stroke-miterlimit="10"/>
<path d="M186.874 261.293C186.874 261.293 201.428 273.004 216.007 275.983" stroke="white" stroke-width="0.5" stroke-miterlimit="10"/>
<path d="M187.779 259.874C187.779 259.874 202.014 271.923 216.998 274.486" stroke="white" stroke-width="0.5" stroke-miterlimit="10"/>
<path d="M258.059 136.165C258.059 136.165 262.278 135.446 264.004 133.516" stroke="#E07A6C" stroke-miterlimit="10" stroke-linecap="round"/>
</svg>
