<svg width="25" height="24" viewBox="0 0 25 24" fill="none" xmlns="http://www.w3.org/2000/svg">
<path d="M12.8758 0.954073L16.142 7.57988L23.4586 8.6438C23.5513 8.65661 23.6404 8.68769 23.721 8.7351C23.8016 8.78251 23.8721 8.84528 23.9283 8.92001C23.9845 8.99474 24.0253 9.07991 24.0485 9.17049C24.0717 9.26107 24.0767 9.35543 24.0633 9.44796C24.0397 9.60224 23.9667 9.74466 23.8551 9.85384L18.5624 15.0113L19.8105 22.2943C19.8265 22.3861 19.8243 22.4801 19.804 22.571C19.7837 22.6618 19.7456 22.7478 19.692 22.824C19.6384 22.9002 19.5703 22.9651 19.4916 23.015C19.413 23.0649 19.3253 23.0988 19.2335 23.1147C19.0788 23.1414 18.9198 23.1162 18.7809 23.043L12.2399 19.605L5.69642 23.043C5.52985 23.13 5.33557 23.1474 5.1561 23.0917C4.97664 23.0361 4.82645 22.9119 4.73832 22.746C4.66583 22.6075 4.64139 22.449 4.66851 22.2952L5.9166 15.0122L0.623916 9.85468C0.557123 9.78989 0.503687 9.71261 0.466798 9.62718C0.429908 9.54176 0.410375 9.44991 0.409012 9.35688C0.407648 9.26384 0.424624 9.17136 0.458994 9.08489C0.493364 8.99842 0.544288 8.91947 0.609153 8.85275C0.71773 8.7399 0.861125 8.66666 1.01619 8.64464L8.33369 7.58072L11.5999 0.954916C11.6401 0.870387 11.6966 0.794808 11.7663 0.732264C11.8359 0.669719 11.9173 0.621494 12.0056 0.590576C12.094 0.559657 12.1876 0.546517 12.2811 0.551991C12.3745 0.557465 12.4658 0.581602 12.55 0.622624C12.6929 0.693116 12.8079 0.809854 12.8758 0.954073Z" fill="#B7B7B7"/>
</svg>
