<svg width="25" height="24" viewBox="0 0 25 24" fill="none" xmlns="http://www.w3.org/2000/svg">
<path d="M12.8799 0.954073L16.1461 7.57988L23.4628 8.6438C23.5554 8.65661 23.6445 8.68769 23.7251 8.7351C23.8057 8.78251 23.8762 8.84528 23.9324 8.92001C23.9886 8.99474 24.0295 9.07991 24.0527 9.17049C24.0758 9.26107 24.0808 9.35543 24.0674 9.44796C24.0438 9.60224 23.9708 9.74466 23.8593 9.85384L18.5666 15.0113L19.8147 22.2943C19.8307 22.3861 19.8285 22.4801 19.8081 22.571C19.7878 22.6618 19.7497 22.7478 19.6961 22.824C19.6426 22.9002 19.5745 22.9651 19.4958 23.015C19.4171 23.0649 19.3294 23.0988 19.2377 23.1147C19.083 23.1414 18.9239 23.1162 18.7851 23.043L12.2441 19.605L5.70057 23.043C5.534 23.13 5.33972 23.1474 5.16025 23.0917C4.98079 23.0361 4.8306 22.9119 4.74247 22.746C4.66998 22.6075 4.64554 22.449 4.67266 22.2952L5.92075 15.0122L0.628067 9.85468C0.561273 9.78989 0.507838 9.71261 0.470948 9.62718C0.434058 9.54176 0.414526 9.44991 0.413162 9.35688C0.411798 9.26384 0.428775 9.17136 0.463145 9.08489C0.497515 8.99842 0.548438 8.91947 0.613304 8.85275C0.721881 8.7399 0.865275 8.66666 1.02034 8.64464L8.33785 7.58072L11.604 0.954916C11.6442 0.870387 11.7008 0.794808 11.7704 0.732264C11.8401 0.669719 11.9214 0.621494 12.0098 0.590576C12.0981 0.559657 12.1918 0.546517 12.2852 0.551991C12.3787 0.557465 12.47 0.581602 12.5541 0.622624C12.6971 0.693116 12.8121 0.809854 12.8799 0.954073Z" fill="#FF9A00"/>
</svg>
