<svg width="200" height="129" viewBox="0 0 200 129" fill="none" xmlns="http://www.w3.org/2000/svg">
<g clip-path="url(#clip0_398_146)">
<path d="M99.924 0.553711H77.9029C74.2365 0.553711 71.2644 3.52946 71.2644 7.20023V55.3804C71.2644 59.0512 74.2365 62.0269 77.9029 62.0269H99.924C103.59 62.0269 106.562 59.0512 106.562 55.3804V7.20023C106.562 3.52946 103.59 0.553711 99.924 0.553711Z" fill="#1A374D"/>
<path d="M99.8581 62.4383H77.9691C76.0819 62.4358 74.2729 61.6838 72.9389 60.3473C71.6049 59.0109 70.855 57.1991 70.8538 55.3097V7.26655C70.8563 5.37793 71.6067 3.56737 72.9405 2.23191C74.2744 0.896446 76.0828 0.14508 77.9691 0.142578H99.8581C101.744 0.14508 103.553 0.896446 104.887 2.23191C106.22 3.56737 106.971 5.37793 106.973 7.26655V55.3097C106.972 57.1991 106.222 59.0109 104.888 60.3473C103.554 61.6838 101.745 62.4358 99.8581 62.4383ZM77.9691 0.984029C76.3039 0.98651 74.7074 1.64861 73.5281 2.82574C72.3489 4.00286 71.6828 5.59936 71.6753 7.26655V55.3097C71.6765 56.9809 72.3399 58.5835 73.5198 59.7657C74.6997 60.9479 76.2998 61.6133 77.9691 61.6158H99.8581C101.526 61.6108 103.123 60.9443 104.301 59.7624C105.479 58.5804 106.141 56.9793 106.142 55.3097V7.26655C106.14 5.59608 105.476 3.99474 104.296 2.81353C103.116 1.63233 101.517 0.967624 99.8486 0.965123L77.9691 0.984029Z" fill="black"/>
<path d="M106.563 7.0918H71.2646V53.4473H106.563V7.0918Z" fill="white"/>
<path d="M106.563 53.8582H71.2645C71.1556 53.8582 71.0511 53.8149 70.9741 53.7377C70.897 53.6606 70.8538 53.556 70.8538 53.4469V7.09145C70.8538 6.98238 70.897 6.87776 70.9741 6.80064C71.0511 6.72351 71.1556 6.68018 71.2645 6.68018H106.563C106.672 6.68018 106.776 6.72351 106.853 6.80064C106.93 6.87776 106.973 6.98238 106.973 7.09145V53.4469C106.973 53.556 106.93 53.6606 106.853 53.7377C106.776 53.8149 106.672 53.8582 106.563 53.8582ZM71.6753 53.0356H106.142V7.50272H71.6753V53.0356Z" fill="black"/>
<path d="M92.45 57.1912H86.0949C85.9859 57.1912 85.8814 57.1479 85.8044 57.0707C85.7274 56.9936 85.6841 56.889 85.6841 56.7799C85.6841 56.6708 85.7274 56.5662 85.8044 56.4891C85.8814 56.412 85.9859 56.3687 86.0949 56.3687H92.45C92.559 56.3687 92.6635 56.412 92.7405 56.4891C92.8175 56.5662 92.8608 56.6708 92.8608 56.7799C92.8608 56.889 92.8175 56.9936 92.7405 57.0707C92.6635 57.1479 92.559 57.1912 92.45 57.1912Z" fill="white"/>
<path d="M89.0978 17.1892H77.006C76.897 17.1892 76.7926 17.1459 76.7155 17.0688C76.6385 16.9917 76.5952 16.887 76.5952 16.778C76.5952 16.6689 76.6385 16.5643 76.7155 16.4872C76.7926 16.41 76.897 16.3667 77.006 16.3667H89.0978C89.2068 16.3667 89.3112 16.41 89.3883 16.4872C89.4653 16.5643 89.5086 16.6689 89.5086 16.778C89.5086 16.887 89.4653 16.9917 89.3883 17.0688C89.3112 17.1459 89.2068 17.1892 89.0978 17.1892Z" fill="black"/>
<path d="M83.0071 26.7947H77.006C76.897 26.7947 76.7926 26.7514 76.7155 26.6742C76.6385 26.5971 76.5952 26.4925 76.5952 26.3834C76.5952 26.2744 76.6385 26.1698 76.7155 26.0926C76.7926 26.0155 76.897 25.9722 77.006 25.9722H83.0071C83.116 25.9722 83.2205 26.0155 83.2975 26.0926C83.3745 26.1698 83.4178 26.2744 83.4178 26.3834C83.4178 26.4925 83.3745 26.5971 83.2975 26.6742C83.2205 26.7514 83.116 26.7947 83.0071 26.7947Z" fill="black"/>
<path d="M101.19 36.722H90.9486C90.8397 36.722 90.7352 36.6786 90.6582 36.6015C90.5811 36.5244 90.5378 36.4198 90.5378 36.3107C90.5378 36.2016 90.5811 36.097 90.6582 36.0199C90.7352 35.9427 90.8397 35.8994 90.9486 35.8994H101.19C101.299 35.8994 101.403 35.9427 101.48 36.0199C101.557 36.097 101.6 36.2016 101.6 36.3107C101.6 36.4198 101.557 36.5244 101.48 36.6015C101.403 36.6786 101.299 36.722 101.19 36.722Z" fill="black"/>
<path d="M101.19 45.491H86.4017C86.2928 45.491 86.1883 45.4477 86.1113 45.3705C86.0342 45.2934 85.991 45.1888 85.991 45.0797C85.991 44.9706 86.0342 44.866 86.1113 44.7889C86.1883 44.7118 86.2928 44.6685 86.4017 44.6685H101.19C101.298 44.6685 101.403 44.7118 101.48 44.7889C101.557 44.866 101.6 44.9706 101.6 45.0797C101.6 45.1888 101.557 45.2934 101.48 45.3705C101.403 45.4477 101.298 45.491 101.19 45.491Z" fill="black"/>
<path d="M80.5329 41.5154C80.4425 41.5148 80.3547 41.4849 80.2826 41.4303C80.2399 41.3974 80.204 41.3564 80.177 41.3096C80.1501 41.2628 80.1326 41.2112 80.1256 41.1577C80.1185 41.1041 80.1221 41.0497 80.1361 40.9975C80.1501 40.9454 80.1742 40.8965 80.2071 40.8536L97.6201 18.1628C97.6901 18.0777 97.7895 18.022 97.8986 18.0068C97.9529 18.0001 98.0079 18.0041 98.0606 18.0187C98.1132 18.0333 98.1625 18.0582 98.2056 18.0919L113.787 30.69L122.998 17.2694C123.061 17.1797 123.157 17.1186 123.264 17.0996C123.372 17.0805 123.482 17.105 123.572 17.1677C123.661 17.2304 123.722 17.3261 123.741 17.4338C123.761 17.5416 123.736 17.6524 123.673 17.7421L114.23 31.5315C114.197 31.578 114.155 31.6175 114.106 31.6475C114.058 31.6775 114.004 31.6976 113.947 31.7064C113.891 31.7143 113.834 31.7104 113.779 31.695C113.725 31.6795 113.674 31.6528 113.631 31.6166L98.012 19.009L80.8587 41.3547C80.8201 41.4044 80.7707 41.4448 80.7142 41.4726C80.6578 41.5004 80.5958 41.5151 80.5329 41.5154Z" fill="black"/>
<path d="M123.357 19.9685C124.718 19.9685 125.822 18.8637 125.822 17.5008C125.822 16.138 124.718 15.0332 123.357 15.0332C121.996 15.0332 120.893 16.138 120.893 17.5008C120.893 18.8637 121.996 19.9685 123.357 19.9685Z" fill="white"/>
<path d="M123.357 20.3799C122.788 20.3808 122.232 20.2128 121.758 19.897C121.285 19.5812 120.916 19.1319 120.697 18.606C120.479 18.08 120.421 17.501 120.532 16.9422C120.642 16.3835 120.916 15.87 121.318 15.467C121.72 15.0639 122.232 14.7892 122.79 14.6777C123.348 14.5663 123.926 14.623 124.452 14.8408C124.977 15.0585 125.427 15.4275 125.743 15.901C126.059 16.3746 126.228 16.9314 126.228 17.501C126.228 18.2637 125.926 18.9952 125.387 19.535C124.849 20.0748 124.119 20.3786 123.357 20.3799ZM123.357 15.4446C122.951 15.4437 122.553 15.5635 122.215 15.7889C121.876 16.0143 121.612 16.3351 121.456 16.7108C121.3 17.0864 121.259 17.5 121.337 17.8992C121.416 18.2984 121.611 18.6653 121.898 18.9534C122.186 19.2414 122.551 19.4377 122.95 19.5175C123.349 19.5972 123.762 19.5567 124.137 19.4012C124.513 19.2457 124.834 18.9822 125.06 18.6439C125.286 18.3056 125.406 17.9079 125.406 17.501C125.405 16.9572 125.189 16.4361 124.805 16.0516C124.421 15.6671 123.9 15.4506 123.357 15.4493V15.4446Z" fill="black"/>
<path d="M97.7002 20.8811C99.0614 20.8811 100.165 19.7763 100.165 18.4134C100.165 17.0506 99.0614 15.9458 97.7002 15.9458C96.3391 15.9458 95.2356 17.0506 95.2356 18.4134C95.2356 19.7763 96.3391 20.8811 97.7002 20.8811Z" fill="white"/>
<path d="M97.7003 21.2925C97.1316 21.2925 96.5757 21.1236 96.1029 20.8073C95.63 20.4909 95.2615 20.0413 95.0438 19.5153C94.8262 18.9892 94.7693 18.4104 94.8802 17.8519C94.9912 17.2935 95.265 16.7805 95.6671 16.3779C96.0693 15.9753 96.5816 15.7011 97.1394 15.59C97.6972 15.4789 98.2753 15.5359 98.8007 15.7538C99.3261 15.9717 99.7752 16.3407 100.091 16.8141C100.407 17.2876 100.576 17.8442 100.576 18.4136C100.576 19.1771 100.273 19.9094 99.7336 20.4493C99.1943 20.9892 98.463 21.2925 97.7003 21.2925ZM97.7003 16.3572C97.2941 16.3572 96.897 16.4778 96.5593 16.7038C96.2215 16.9297 95.9583 17.2509 95.8028 17.6266C95.6474 18.0024 95.6067 18.4158 95.686 18.8147C95.7652 19.2136 95.9608 19.58 96.248 19.8676C96.5353 20.1552 96.9013 20.3511 97.2997 20.4304C97.6981 20.5098 98.111 20.469 98.4863 20.3134C98.8616 20.1578 99.1824 19.8942 99.4081 19.556C99.6337 19.2179 99.7542 18.8203 99.7542 18.4136C99.7542 18.1435 99.7011 17.8761 99.5979 17.6266C99.4946 17.3772 99.3434 17.1505 99.1527 16.9595C98.9619 16.7686 98.7355 16.6171 98.4863 16.5137C98.2371 16.4104 97.9701 16.3572 97.7003 16.3572Z" fill="black"/>
<path d="M113.895 33.758C115.256 33.758 116.36 32.6532 116.36 31.2904C116.36 29.9275 115.256 28.8228 113.895 28.8228C112.534 28.8228 111.431 29.9275 111.431 31.2904C111.431 32.6532 112.534 33.758 113.895 33.758Z" fill="white"/>
<path d="M113.895 34.1694C113.326 34.1694 112.77 34.0006 112.297 33.6842C111.825 33.3679 111.456 32.9183 111.238 32.3922C111.021 31.8662 110.964 31.2873 111.075 30.7289C111.186 30.1704 111.46 29.6574 111.862 29.2548C112.264 28.8522 112.776 28.578 113.334 28.4669C113.892 28.3559 114.47 28.4129 114.995 28.6308C115.521 28.8487 115.97 29.2177 116.286 29.6911C116.602 30.1645 116.77 30.7211 116.77 31.2905C116.769 32.0537 116.466 32.7852 115.927 33.3248C115.388 33.8645 114.657 34.1682 113.895 34.1694ZM113.895 29.2342C113.489 29.2342 113.092 29.3548 112.754 29.5807C112.416 29.8067 112.153 30.1278 111.997 30.5036C111.842 30.8793 111.801 31.2928 111.881 31.6917C111.96 32.0906 112.155 32.457 112.443 32.7446C112.73 33.0322 113.096 33.228 113.494 33.3074C113.893 33.3867 114.306 33.346 114.681 33.1903C115.056 33.0347 115.377 32.7711 115.603 32.433C115.828 32.0948 115.949 31.6972 115.949 31.2905C115.949 30.7451 115.732 30.2221 115.347 29.8365C114.962 29.4508 114.44 29.2342 113.895 29.2342Z" fill="black"/>
<path d="M80.5564 43.572C81.9176 43.572 83.0211 42.4672 83.0211 41.1043C83.0211 39.7415 81.9176 38.6367 80.5564 38.6367C79.1953 38.6367 78.0918 39.7415 78.0918 41.1043C78.0918 42.4672 79.1953 43.572 80.5564 43.572Z" fill="white"/>
<path d="M80.5566 43.9834C79.9878 43.9834 79.4319 43.8145 78.9591 43.4982C78.4862 43.1819 78.1177 42.7322 77.9 42.2062C77.6824 41.6801 77.6255 41.1013 77.7364 40.5428C77.8474 39.9844 78.1212 39.4714 78.5233 39.0688C78.9255 38.6662 79.4378 38.392 79.9956 38.2809C80.5534 38.1698 81.1315 38.2268 81.6569 38.4447C82.1823 38.6626 82.6314 39.0316 82.9474 39.505C83.2633 39.9785 83.432 40.5351 83.432 41.1045C83.432 41.868 83.129 42.6003 82.5898 43.1402C82.0505 43.6801 81.3192 43.9834 80.5566 43.9834ZM80.5566 39.0481C80.1503 39.0481 79.7532 39.1687 79.4155 39.3947C79.0777 39.6206 78.8145 39.9418 78.659 40.3175C78.5036 40.6933 78.4629 41.1068 78.5422 41.5057C78.6214 41.9046 78.817 42.271 79.1042 42.5585C79.3915 42.8461 79.7575 43.042 80.1559 43.1213C80.5543 43.2007 80.9672 43.1599 81.3425 43.0043C81.7178 42.8487 82.0386 42.5851 82.2643 42.2469C82.49 41.9088 82.6104 41.5112 82.6104 41.1045C82.6104 40.8344 82.5573 40.567 82.4541 40.3175C82.3508 40.0681 82.1996 39.8414 82.0089 39.6504C81.8181 39.4595 81.5917 39.308 81.3425 39.2047C81.0933 39.1013 80.8263 39.0481 80.5566 39.0481Z" fill="black"/>
<g opacity="0.13">
<path opacity="0.13" d="M104.844 7.12924C103.881 7.18655 102.916 7.17549 101.954 7.09616C98.5974 7.0347 95.2451 6.95433 91.8881 6.95906C88.6114 6.85506 85.3394 7.13397 82.0579 7.06306C80.0041 7.06306 77.9502 7.14815 75.9199 7.15288C74.5979 7.21906 73.2806 7.3467 71.9586 7.32306C71.7337 7.33947 71.5234 7.44047 71.3699 7.60578C71.2164 7.77108 71.1311 7.98844 71.1311 8.21415C71.1311 8.43987 71.2164 8.65722 71.3699 8.82252C71.5234 8.98783 71.7337 9.08883 71.9586 9.10524C73.29 9.15724 74.6215 9.05324 75.953 9.01542C77.3978 9.01542 78.8473 9.01542 80.2968 8.98233C82.6009 8.98233 84.905 9.10996 87.2091 9.00596C91.2932 8.90196 95.3821 8.93033 99.4851 9.00596C101.123 9.06269 102.767 9.10524 104.41 9.20924H104.537C104.71 9.24188 104.888 9.24188 105.061 9.20924C105.308 9.22996 105.554 9.16453 105.758 9.02407C105.962 8.8836 106.111 8.67677 106.18 8.43869C106.22 8.25594 106.212 8.06616 106.158 7.8871C106.105 7.70803 106.007 7.54552 105.873 7.41474C105.74 7.28396 105.575 7.18918 105.395 7.13925C105.215 7.08933 105.026 7.08588 104.844 7.12924Z" fill="black"/>
</g>
<g opacity="0.13">
<path opacity="0.13" d="M83.1627 42.4281C83.0252 42.3213 82.8536 42.2682 82.6799 42.2786C82.5062 42.2891 82.3422 42.3623 82.2184 42.4848C82.1299 42.5821 82.0353 42.6737 81.9351 42.759C81.8737 42.8015 81.7746 42.8677 81.7085 42.9055C81.5909 42.9766 81.4695 43.0413 81.3449 43.0994L81.0475 43.1986C80.9483 43.2317 80.7736 43.2695 80.6839 43.2885C80.5942 43.3074 80.4573 43.2885 80.344 43.2885H80.259C80.0324 43.2365 79.6452 43.1041 79.4894 43.0474L79.4138 43.0095L79.3477 42.967C79.3171 42.941 79.2887 42.9126 79.2628 42.8819C79.1922 42.7337 79.0787 42.6101 78.937 42.5274C78.7966 42.4481 78.6361 42.4118 78.4753 42.4232C78.3146 42.4346 78.1607 42.493 78.0329 42.5913C77.9051 42.6895 77.809 42.8232 77.7565 42.9758C77.704 43.1283 77.6975 43.293 77.7377 43.4492C77.9889 44.0205 78.4557 44.4692 79.0361 44.6972C79.6363 44.9864 80.309 45.0901 80.9683 44.9949C81.6276 44.8998 82.2436 44.6102 82.7378 44.163C83.1958 43.7706 83.8238 42.9339 83.1627 42.4281Z" fill="black"/>
</g>
<g opacity="0.13">
<path opacity="0.13" d="M100.618 19.7041C100.542 19.6047 100.442 19.5255 100.328 19.4735C100.214 19.4215 100.088 19.3982 99.9632 19.4057C99.838 19.4131 99.7165 19.4511 99.6093 19.5163C99.5021 19.5815 99.4124 19.672 99.3481 19.7798C99.3217 19.8307 99.2917 19.8796 99.2584 19.9263L99.164 20.0161C98.8194 20.3717 98.3547 20.5857 97.8609 20.6165C97.4848 20.6756 97.0997 20.6196 96.756 20.4558C96.4009 20.292 96.0877 20.0495 95.84 19.7467C95.6782 19.6069 95.4695 19.5336 95.256 19.5417C95.0424 19.5497 94.8398 19.6385 94.689 19.7901C94.5382 19.9417 94.4503 20.1449 94.4431 20.3587C94.4359 20.5726 94.5099 20.7812 94.6502 20.9427C95.1818 21.5294 95.8647 21.958 96.6238 22.1812C97.1523 22.3192 97.7038 22.3451 98.2429 22.2572C98.782 22.1693 99.2967 21.9695 99.7542 21.6707C100.264 21.2972 101.142 20.3092 100.618 19.7041Z" fill="black"/>
</g>
</g>
<path d="M48.9939 90.9219C48.9939 90.6934 48.9587 90.4883 48.8884 90.3066C48.824 90.1191 48.7009 89.9492 48.5193 89.7969C48.3376 89.6387 48.0828 89.4834 47.7546 89.3311C47.4265 89.1787 47.0017 89.0205 46.4802 88.8564C45.9001 88.6689 45.3494 88.458 44.8279 88.2236C44.3123 87.9893 43.8552 87.7168 43.4568 87.4062C43.0642 87.0898 42.7537 86.7236 42.5251 86.3076C42.3025 85.8916 42.1912 85.4082 42.1912 84.8574C42.1912 84.3242 42.3083 83.8408 42.5427 83.4072C42.7771 82.9678 43.1052 82.5928 43.5271 82.2822C43.949 81.9658 44.447 81.7227 45.0212 81.5527C45.6013 81.3828 46.2371 81.2979 46.9285 81.2979C47.8718 81.2979 48.6951 81.4678 49.3982 81.8076C50.1013 82.1475 50.6462 82.6133 51.033 83.2051C51.4255 83.7969 51.6218 84.4736 51.6218 85.2354H49.0027C49.0027 84.8604 48.9236 84.5322 48.7654 84.251C48.613 83.9639 48.3787 83.7383 48.0623 83.5742C47.7517 83.4102 47.3591 83.3281 46.8845 83.3281C46.4275 83.3281 46.0466 83.3984 45.7419 83.5391C45.4373 83.6738 45.2087 83.8584 45.0564 84.0928C44.9041 84.3213 44.8279 84.5791 44.8279 84.8662C44.8279 85.083 44.8806 85.2793 44.9861 85.4551C45.0974 85.6309 45.2615 85.7949 45.4783 85.9473C45.6951 86.0996 45.9617 86.2432 46.2781 86.3779C46.5945 86.5127 46.9607 86.6445 47.3767 86.7734C48.074 86.9844 48.6863 87.2217 49.2136 87.4854C49.7468 87.749 50.1921 88.0449 50.5496 88.373C50.907 88.7012 51.1765 89.0732 51.3582 89.4893C51.5398 89.9053 51.6306 90.377 51.6306 90.9043C51.6306 91.4609 51.5222 91.959 51.3054 92.3984C51.0886 92.8379 50.7751 93.21 50.365 93.5146C49.9548 93.8193 49.4656 94.0508 48.8972 94.209C48.3289 94.3672 47.6931 94.4463 46.99 94.4463C46.3572 94.4463 45.7332 94.3643 45.1179 94.2002C44.5027 94.0303 43.9431 93.7754 43.4392 93.4355C42.9412 93.0957 42.5427 92.6621 42.2439 92.1348C41.9451 91.6074 41.7957 90.9834 41.7957 90.2627H44.4412C44.4412 90.6611 44.5027 90.998 44.6257 91.2734C44.7488 91.5488 44.9216 91.7715 45.1443 91.9414C45.3728 92.1113 45.6423 92.2344 45.9529 92.3105C46.2693 92.3867 46.615 92.4248 46.99 92.4248C47.447 92.4248 47.822 92.3604 48.115 92.2314C48.4138 92.1025 48.6335 91.9238 48.7742 91.6953C48.9207 91.4668 48.9939 91.209 48.9939 90.9219ZM59.1453 81.4736V94.2705H56.5173V81.4736H59.1453ZM63.0828 81.4736V83.5391H52.6414V81.4736H63.0828ZM73.1726 92.2139V94.2705H66.3611V92.2139H73.1726ZM67.2224 81.4736V94.2705H64.5857V81.4736H67.2224ZM72.2849 86.6855V88.6895H66.3611V86.6855H72.2849ZM73.1638 81.4736V83.5391H66.3611V81.4736H73.1638ZM79.6941 89.709H76.4333V87.6523H79.6941C80.198 87.6523 80.6082 87.5703 80.9246 87.4062C81.241 87.2363 81.4724 87.002 81.6189 86.7031C81.7654 86.4043 81.8386 86.0674 81.8386 85.6924C81.8386 85.3115 81.7654 84.957 81.6189 84.6289C81.4724 84.3008 81.241 84.0371 80.9246 83.8379C80.6082 83.6387 80.198 83.5391 79.6941 83.5391H77.3474V94.2705H74.7107V81.4736H79.6941C80.696 81.4736 81.5544 81.6553 82.2693 82.0186C82.99 82.376 83.5408 82.8711 83.9216 83.5039C84.3025 84.1367 84.4929 84.8604 84.4929 85.6748C84.4929 86.501 84.3025 87.2158 83.9216 87.8193C83.5408 88.4229 82.99 88.8887 82.2693 89.2168C81.5544 89.5449 80.696 89.709 79.6941 89.709ZM92.2185 81.4473V94.2705H89.6873V84.3652L86.6462 85.332V83.3369L91.946 81.4473H92.2185ZM96.613 93.0488C96.613 92.6738 96.7419 92.3604 96.9998 92.1084C97.2634 91.8564 97.6121 91.7305 98.0457 91.7305C98.4792 91.7305 98.825 91.8564 99.0828 92.1084C99.3464 92.3604 99.4783 92.6738 99.4783 93.0488C99.4783 93.4238 99.3464 93.7373 99.0828 93.9893C98.825 94.2412 98.4792 94.3672 98.0457 94.3672C97.6121 94.3672 97.2634 94.2412 96.9998 93.9893C96.7419 93.7373 96.613 93.4238 96.613 93.0488ZM102.526 79.4745V81.1125H107.602V79.4745H102.526ZM102.31 84.5865V86.2245H107.782V84.5865H102.31ZM102.31 87.0705V88.7085H107.782V87.0705H102.31ZM101.284 81.9405V83.6865H108.628V81.9405H101.284ZM108.88 82.3905V84.4065H117.88V82.3905H108.88ZM108.448 93.2445V95.2785H118.168V93.2445H108.448ZM109.258 87.6645V89.6625H117.592V87.6645H109.258ZM103.282 89.5725V91.1745H105.982V93.2445H103.282V94.8465H107.98V89.5725H103.282ZM102.166 89.5725V95.6565H104.11V89.5725H102.166ZM112.246 79.0065V83.2905H114.406V79.0065H112.246ZM112.246 83.1645V94.2705H114.406V83.1645H112.246ZM120.994 79.9965V95.9265H123.118V82.1205H133.594V79.9965H120.994ZM132.442 79.9965V93.4965C132.442 93.7125 132.388 93.8025 132.172 93.8025C131.992 93.8025 131.416 93.8025 130.894 93.7665C131.182 94.3245 131.47 95.2965 131.524 95.8725C132.568 95.8725 133.306 95.8185 133.864 95.4585C134.44 95.0805 134.584 94.4865 134.584 93.5325V79.9965H132.442ZM119.266 86.4945V88.6005H136.186V86.4945H119.266ZM124.81 80.6985V95.6205H126.808V80.6985H124.81ZM128.572 80.6985V95.6205H130.606V80.6985H128.572Z" fill="#1A374D"/>
<path d="M2.47266 110.387H4.20898L6.76562 117.695L9.32227 110.387H11.0586L7.46289 120.34H6.06836L2.47266 110.387ZM1.53613 110.387H3.26562L3.58008 117.51V120.34H1.53613V110.387ZM10.2656 110.387H12.002V120.34H9.95117V117.51L10.2656 110.387ZM17.6689 118.672V115.377C17.6689 115.14 17.6302 114.938 17.5527 114.769C17.4753 114.596 17.3545 114.461 17.1904 114.366C17.0309 114.27 16.8236 114.222 16.5684 114.222C16.3496 114.222 16.1605 114.261 16.001 114.338C15.8415 114.411 15.7184 114.518 15.6318 114.66C15.5452 114.796 15.502 114.958 15.502 115.145H13.5332C13.5332 114.831 13.6061 114.532 13.752 114.25C13.8978 113.967 14.1097 113.719 14.3877 113.504C14.6657 113.286 14.9961 113.115 15.3789 112.992C15.7663 112.869 16.1992 112.807 16.6777 112.807C17.252 112.807 17.7624 112.903 18.209 113.094C18.6556 113.286 19.0065 113.573 19.2617 113.956C19.5215 114.338 19.6514 114.817 19.6514 115.391V118.556C19.6514 118.962 19.6764 119.294 19.7266 119.554C19.7767 119.809 19.8496 120.033 19.9453 120.224V120.34H17.9561C17.8604 120.14 17.7874 119.889 17.7373 119.588C17.6917 119.283 17.6689 118.978 17.6689 118.672ZM17.9287 115.835L17.9424 116.95H16.8418C16.582 116.95 16.3564 116.979 16.165 117.039C15.9736 117.098 15.8164 117.182 15.6934 117.292C15.5703 117.396 15.4792 117.519 15.4199 117.661C15.3652 117.802 15.3379 117.957 15.3379 118.125C15.3379 118.294 15.3766 118.447 15.4541 118.583C15.5316 118.716 15.6432 118.82 15.7891 118.898C15.9349 118.971 16.1058 119.007 16.3018 119.007C16.598 119.007 16.8555 118.948 17.0742 118.83C17.293 118.711 17.4616 118.565 17.5801 118.392C17.7031 118.219 17.7669 118.055 17.7715 117.9L18.291 118.734C18.2181 118.921 18.1178 119.114 17.9902 119.315C17.8672 119.515 17.71 119.705 17.5186 119.882C17.3271 120.056 17.097 120.199 16.8281 120.313C16.5592 120.422 16.2402 120.477 15.8711 120.477C15.4017 120.477 14.9756 120.384 14.5928 120.197C14.2145 120.005 13.9137 119.743 13.6904 119.411C13.4717 119.073 13.3623 118.691 13.3623 118.262C13.3623 117.875 13.4352 117.531 13.5811 117.23C13.7269 116.929 13.9411 116.676 14.2236 116.471C14.5107 116.262 14.8685 116.104 15.2969 116C15.7253 115.89 16.222 115.835 16.7871 115.835H17.9287ZM25.168 118.296C25.168 118.155 25.127 118.028 25.0449 117.914C24.9629 117.8 24.8102 117.695 24.5869 117.599C24.3682 117.499 24.0514 117.408 23.6367 117.326C23.263 117.244 22.9144 117.141 22.5908 117.018C22.2718 116.89 21.9938 116.738 21.7568 116.56C21.5244 116.382 21.3421 116.173 21.21 115.931C21.0778 115.685 21.0117 115.405 21.0117 115.09C21.0117 114.78 21.0778 114.489 21.21 114.215C21.3467 113.942 21.5404 113.7 21.791 113.491C22.0462 113.277 22.3561 113.11 22.7207 112.992C23.0898 112.869 23.5046 112.807 23.9648 112.807C24.6074 112.807 25.1589 112.91 25.6191 113.115C26.084 113.32 26.4395 113.602 26.6855 113.962C26.9362 114.318 27.0615 114.723 27.0615 115.179H25.0928C25.0928 114.988 25.0518 114.817 24.9697 114.667C24.8923 114.512 24.7692 114.391 24.6006 114.304C24.4365 114.213 24.2223 114.167 23.958 114.167C23.7393 114.167 23.5501 114.206 23.3906 114.284C23.2311 114.357 23.1081 114.457 23.0215 114.584C22.9395 114.708 22.8984 114.844 22.8984 114.995C22.8984 115.109 22.9212 115.211 22.9668 115.302C23.0169 115.389 23.0967 115.469 23.2061 115.542C23.3154 115.614 23.4567 115.683 23.6299 115.747C23.8076 115.806 24.0264 115.861 24.2861 115.911C24.8193 116.02 25.2956 116.164 25.7148 116.341C26.1341 116.514 26.4668 116.751 26.7129 117.052C26.959 117.348 27.082 117.738 27.082 118.221C27.082 118.549 27.0091 118.85 26.8633 119.124C26.7174 119.397 26.5078 119.636 26.2344 119.841C25.9609 120.042 25.6328 120.199 25.25 120.313C24.8717 120.422 24.4456 120.477 23.9717 120.477C23.2835 120.477 22.7002 120.354 22.2217 120.108C21.7477 119.862 21.3877 119.55 21.1416 119.171C20.9001 118.789 20.7793 118.397 20.7793 117.996H22.6455C22.6546 118.264 22.723 118.481 22.8506 118.645C22.9827 118.809 23.1491 118.928 23.3496 119C23.5547 119.073 23.7757 119.11 24.0127 119.11C24.2679 119.11 24.4798 119.076 24.6484 119.007C24.8171 118.934 24.9447 118.839 25.0312 118.72C25.1224 118.597 25.168 118.456 25.168 118.296ZM31.9834 112.944V114.338H27.6768V112.944H31.9834ZM28.7432 111.119H30.7119V118.112C30.7119 118.326 30.7393 118.49 30.7939 118.604C30.8532 118.718 30.9398 118.798 31.0537 118.843C31.1676 118.884 31.3112 118.905 31.4844 118.905C31.6074 118.905 31.7168 118.9 31.8125 118.891C31.9128 118.877 31.9971 118.864 32.0654 118.85L32.0723 120.299C31.9036 120.354 31.7214 120.397 31.5254 120.429C31.3294 120.461 31.113 120.477 30.876 120.477C30.443 120.477 30.0648 120.406 29.7412 120.265C29.4222 120.119 29.1761 119.887 29.0029 119.568C28.8298 119.249 28.7432 118.83 28.7432 118.31V111.119ZM36.5088 120.477C35.9346 120.477 35.4196 120.386 34.9639 120.204C34.5081 120.017 34.1208 119.759 33.8018 119.431C33.4873 119.103 33.2458 118.722 33.0771 118.29C32.9085 117.852 32.8242 117.387 32.8242 116.895V116.622C32.8242 116.061 32.904 115.548 33.0635 115.083C33.223 114.619 33.4508 114.215 33.7471 113.874C34.0479 113.532 34.4124 113.27 34.8408 113.087C35.2692 112.901 35.7523 112.807 36.29 112.807C36.8141 112.807 37.279 112.894 37.6846 113.067C38.0902 113.24 38.4297 113.486 38.7031 113.805C38.9811 114.124 39.1908 114.507 39.332 114.954C39.4733 115.396 39.5439 115.888 39.5439 116.43V117.25H33.665V115.938H37.6094V115.788C37.6094 115.514 37.5592 115.27 37.459 115.056C37.3633 114.837 37.2174 114.664 37.0215 114.537C36.8255 114.409 36.5749 114.345 36.2695 114.345C36.0098 114.345 35.7865 114.402 35.5996 114.516C35.4128 114.63 35.2601 114.79 35.1416 114.995C35.0277 115.2 34.9411 115.441 34.8818 115.719C34.8271 115.993 34.7998 116.293 34.7998 116.622V116.895C34.7998 117.191 34.8408 117.465 34.9229 117.715C35.0094 117.966 35.1302 118.182 35.2852 118.365C35.4447 118.547 35.6361 118.688 35.8594 118.789C36.0872 118.889 36.3447 118.939 36.6318 118.939C36.9873 118.939 37.3177 118.871 37.623 118.734C37.9329 118.593 38.1995 118.381 38.4229 118.098L39.3799 119.137C39.2249 119.361 39.013 119.575 38.7441 119.78C38.4798 119.985 38.1608 120.153 37.7871 120.286C37.4134 120.413 36.9873 120.477 36.5088 120.477ZM42.6338 114.557V120.34H40.665V112.944H42.5176L42.6338 114.557ZM44.8623 112.896L44.8281 114.721C44.7324 114.708 44.6162 114.696 44.4795 114.687C44.3473 114.673 44.2266 114.667 44.1172 114.667C43.8392 114.667 43.5977 114.703 43.3926 114.776C43.1921 114.844 43.0234 114.947 42.8867 115.083C42.7546 115.22 42.6543 115.387 42.5859 115.583C42.5221 115.778 42.4857 116.002 42.4766 116.252L42.0801 116.129C42.0801 115.651 42.1279 115.211 42.2236 114.81C42.3193 114.404 42.4583 114.051 42.6406 113.75C42.8275 113.45 43.0553 113.217 43.3242 113.053C43.5931 112.889 43.9007 112.807 44.2471 112.807C44.3564 112.807 44.4681 112.816 44.582 112.834C44.696 112.848 44.7894 112.869 44.8623 112.896ZM49.9619 112.089L47.2549 120.34H45.0742L48.7725 110.387H50.1602L49.9619 112.089ZM52.2109 120.34L49.4971 112.089L49.2783 110.387H50.6797L54.3984 120.34H52.2109ZM52.0879 116.635V118.242H46.8311V116.635H52.0879ZM56.9482 114.366V123.184H54.9795V112.944H56.8047L56.9482 114.366ZM61.6309 116.56V116.704C61.6309 117.241 61.5671 117.74 61.4395 118.201C61.3164 118.661 61.1341 119.062 60.8926 119.404C60.651 119.741 60.3503 120.005 59.9902 120.197C59.6348 120.384 59.2246 120.477 58.7598 120.477C58.3086 120.477 57.9167 120.386 57.584 120.204C57.2513 120.021 56.971 119.766 56.7432 119.438C56.5199 119.105 56.3398 118.72 56.2031 118.283C56.0664 117.845 55.9616 117.376 55.8887 116.875V116.499C55.9616 115.961 56.0664 115.469 56.2031 115.022C56.3398 114.571 56.5199 114.181 56.7432 113.853C56.971 113.52 57.249 113.263 57.5771 113.081C57.9098 112.898 58.2995 112.807 58.7461 112.807C59.2155 112.807 59.6279 112.896 59.9834 113.074C60.3434 113.251 60.6442 113.507 60.8857 113.839C61.1318 114.172 61.3164 114.569 61.4395 115.029C61.5671 115.489 61.6309 116 61.6309 116.56ZM59.6553 116.704V116.56C59.6553 116.246 59.6279 115.956 59.5732 115.692C59.5231 115.423 59.4411 115.188 59.3271 114.988C59.2178 114.787 59.0719 114.632 58.8896 114.523C58.7119 114.409 58.4954 114.352 58.2402 114.352C57.9714 114.352 57.7412 114.395 57.5498 114.482C57.363 114.569 57.2103 114.694 57.0918 114.858C56.9733 115.022 56.8844 115.218 56.8252 115.446C56.766 115.674 56.7295 115.931 56.7158 116.218V117.168C56.7386 117.506 56.8024 117.809 56.9072 118.078C57.012 118.342 57.1738 118.552 57.3926 118.707C57.6113 118.861 57.8984 118.939 58.2539 118.939C58.5137 118.939 58.7324 118.882 58.9102 118.768C59.0879 118.65 59.2314 118.488 59.3408 118.283C59.4548 118.078 59.5345 117.841 59.5801 117.572C59.6302 117.303 59.6553 117.014 59.6553 116.704ZM64.8232 114.366V123.184H62.8545V112.944H64.6797L64.8232 114.366ZM69.5059 116.56V116.704C69.5059 117.241 69.4421 117.74 69.3145 118.201C69.1914 118.661 69.0091 119.062 68.7676 119.404C68.526 119.741 68.2253 120.005 67.8652 120.197C67.5098 120.384 67.0996 120.477 66.6348 120.477C66.1836 120.477 65.7917 120.386 65.459 120.204C65.1263 120.021 64.846 119.766 64.6182 119.438C64.3949 119.105 64.2148 118.72 64.0781 118.283C63.9414 117.845 63.8366 117.376 63.7637 116.875V116.499C63.8366 115.961 63.9414 115.469 64.0781 115.022C64.2148 114.571 64.3949 114.181 64.6182 113.853C64.846 113.52 65.124 113.263 65.4521 113.081C65.7848 112.898 66.1745 112.807 66.6211 112.807C67.0905 112.807 67.5029 112.896 67.8584 113.074C68.2184 113.251 68.5192 113.507 68.7607 113.839C69.0068 114.172 69.1914 114.569 69.3145 115.029C69.4421 115.489 69.5059 116 69.5059 116.56ZM67.5303 116.704V116.56C67.5303 116.246 67.5029 115.956 67.4482 115.692C67.3981 115.423 67.3161 115.188 67.2021 114.988C67.0928 114.787 66.9469 114.632 66.7646 114.523C66.5869 114.409 66.3704 114.352 66.1152 114.352C65.8464 114.352 65.6162 114.395 65.4248 114.482C65.238 114.569 65.0853 114.694 64.9668 114.858C64.8483 115.022 64.7594 115.218 64.7002 115.446C64.641 115.674 64.6045 115.931 64.5908 116.218V117.168C64.6136 117.506 64.6774 117.809 64.7822 118.078C64.887 118.342 65.0488 118.552 65.2676 118.707C65.4863 118.861 65.7734 118.939 66.1289 118.939C66.3887 118.939 66.6074 118.882 66.7852 118.768C66.9629 118.65 67.1064 118.488 67.2158 118.283C67.3298 118.078 67.4095 117.841 67.4551 117.572C67.5052 117.303 67.5303 117.014 67.5303 116.704ZM81.1082 114.264C80.3662 115.622 78.9802 116.826 77.5242 117.554C77.8602 117.848 78.3922 118.492 78.6162 118.814C80.1562 117.89 81.6962 116.406 82.6202 114.74L81.1082 114.264ZM81.2902 108.398C80.8282 109.196 79.9882 110.26 79.3302 110.932L80.4782 111.59C81.1502 110.974 82.0042 110.036 82.7462 109.154L81.2902 108.398ZM83.9082 109.434C82.7462 110.946 80.8142 112.85 79.2602 114.04L80.3662 114.768C81.9342 113.634 83.9082 111.842 85.4062 110.26L83.9082 109.434ZM78.0002 111.016C79.0502 111.702 80.3102 112.738 80.8842 113.452L81.9482 112.248C81.3462 111.52 80.0302 110.568 79.0082 109.924L78.0002 111.016ZM83.7542 112.57C84.5802 113.536 85.4482 114.88 85.7842 115.734L87.1982 114.936C86.8202 114.054 85.8822 112.78 85.0562 111.87L83.7542 112.57ZM77.7202 113.564L77.8462 115.048C79.9462 114.992 82.9562 114.894 85.7982 114.796L85.8542 113.452C82.9002 113.508 79.7502 113.55 77.7202 113.564ZM80.6322 116.574L79.2742 117.008C80.6742 119.458 82.9842 120.998 86.2042 121.642C86.4142 121.208 86.8482 120.564 87.1982 120.214C84.1322 119.738 81.7662 118.464 80.6322 116.574ZM80.9822 115.734L79.8622 116.994H84.7482V115.734H80.9822ZM84.2022 115.734V115.972C83.2782 118.296 80.6042 119.724 77.5242 120.256C77.8182 120.592 78.1822 121.25 78.3222 121.67C81.7242 120.9 84.5942 119.29 85.8402 116.14L84.7902 115.678L84.5242 115.734H84.2022ZM76.7962 111.464C76.0682 112.85 74.8502 114.208 73.6602 115.076C73.9402 115.44 74.3882 116.28 74.5422 116.644C75.9142 115.51 77.3702 113.718 78.2802 112.01L76.7962 111.464ZM76.5442 108.454C75.9702 109.378 74.7942 110.554 73.7862 111.254C74.0522 111.562 74.4582 112.15 74.6682 112.486C75.8442 111.618 77.1602 110.26 78.0282 109.042L76.5442 108.454ZM75.6482 114.488V121.628H77.2162V113.13L77.0762 113.06L75.6482 114.488ZM90.5162 119.402V121.026H98.2442V119.402H90.5162ZM89.7602 115.384V121.586H91.4822V116.994H97.3202V121.586H99.1262V115.384H89.7602ZM92.5042 108.342C91.9022 109.91 90.7962 111.926 89.8582 113.2L91.3702 113.802C92.3222 112.584 93.5122 110.708 94.4222 108.972L92.5042 108.342ZM95.8642 110.848C97.2642 112.052 98.8602 113.76 99.5182 114.936L100.988 113.816C100.26 112.612 98.5802 110.988 97.1942 109.868L95.8642 110.848ZM88.2762 112.416L88.3742 114.124C91.1322 114.012 95.3322 113.844 99.2102 113.634L99.2942 112.01C95.4442 112.178 91.1042 112.346 88.2762 112.416ZM104.152 122.272C105.888 121.754 106.924 120.466 106.924 118.884C106.924 117.708 106.392 116.952 105.412 116.952C104.656 116.952 104.026 117.428 104.026 118.212C104.026 119.024 104.67 119.472 105.37 119.472C105.678 119.472 105.972 119.374 106.196 119.164L105.426 117.904L105.524 119.29C105.524 120.088 104.88 120.774 103.704 121.152L104.152 122.272ZM118.782 112.43V113.942H126.048V112.43H118.782ZM116.178 114.95V116.532H128.722V114.95H116.178ZM119.566 116.21C119.356 118.128 118.978 119.43 115.772 120.144C116.15 120.494 116.584 121.194 116.752 121.642C120.448 120.662 121.12 118.814 121.386 116.21H119.566ZM123.178 115.944V119.388C123.178 120.9 123.57 121.39 125.208 121.39C125.53 121.39 126.678 121.39 127 121.39C128.33 121.39 128.778 120.858 128.946 118.814C128.512 118.702 127.784 118.436 127.448 118.17C127.392 119.64 127.308 119.878 126.846 119.878C126.58 119.878 125.67 119.878 125.446 119.878C124.956 119.878 124.872 119.808 124.872 119.36V115.944H123.178ZM121.512 108.468V111.002H123.304V108.468H121.512ZM116.43 109.812V113.144H118.138V111.394H126.65V113.144H128.456V109.812H116.43ZM131.984 113.718V115.258H135.218V113.718H131.984ZM134.574 113.718V113.97C134.546 116.686 134.49 117.666 134.322 117.89C134.21 118.03 134.084 118.058 133.888 118.058C133.664 118.058 133.188 118.058 132.684 118.002C132.936 118.422 133.118 119.08 133.146 119.57C133.804 119.584 134.406 119.584 134.784 119.528C135.19 119.458 135.47 119.332 135.75 118.982C136.072 118.548 136.142 117.302 136.198 114.334C136.198 114.138 136.212 113.718 136.212 113.718H134.574ZM138.788 109.336C139.572 109.784 140.566 110.47 141.028 110.96L142.106 109.826C141.602 109.364 140.566 108.72 139.796 108.314L138.788 109.336ZM140.44 112.934C139.474 116.182 137.598 118.716 134.91 120.158C135.26 120.494 135.876 121.194 136.128 121.544C138.9 119.836 140.958 116.994 142.134 113.34L140.44 112.934ZM132.082 110.554V112.206H142.876V110.554H132.082ZM130.962 110.554V114.656C130.962 116.49 130.864 118.94 129.786 120.62C130.178 120.816 130.934 121.432 131.214 121.768C132.488 119.878 132.726 116.77 132.726 114.67V110.554H130.962ZM136.646 108.468C136.688 114.852 137.822 121.502 140.874 121.502C142.19 121.502 142.75 120.872 143.016 118.268C142.568 118.1 141.966 117.708 141.588 117.316C141.504 119.08 141.336 119.794 141.014 119.794C139.6 119.794 138.312 114.18 138.41 108.468H136.646ZM144.556 109.798C145.522 110.092 146.852 110.596 147.496 110.946L148.252 109.672C147.552 109.336 146.222 108.888 145.284 108.664L144.556 109.798ZM143.94 112.178L144.57 113.634C145.62 113.34 146.908 112.962 148.126 112.598L147.972 111.282C146.488 111.618 144.976 111.982 143.94 112.178ZM150.142 109.392L149.204 110.568H155.518V109.392H150.142ZM155.126 109.392V109.574C154.888 110.176 154.468 110.904 154.09 111.352L155.392 111.744C155.854 111.226 156.358 110.386 156.722 109.616L155.616 109.336L155.364 109.392H155.126ZM151.57 109.882C151.36 111.296 150.814 112.108 148.112 112.528C148.392 112.822 148.742 113.382 148.882 113.718C152.018 113.088 152.802 111.884 153.082 109.882H151.57ZM152.984 110.246L151.64 110.372C152.004 111.856 152.69 113.382 156.19 113.942C156.344 113.522 156.708 112.892 157.016 112.556C153.838 112.192 153.222 111.282 152.984 110.246ZM150.1 108.454C149.722 109.266 149.036 110.204 148.014 110.904C148.406 111.058 148.98 111.408 149.274 111.702C150.338 110.834 151.024 109.812 151.57 108.692L150.1 108.454ZM147.468 116.07H153.558V116.672H147.468V116.07ZM147.468 117.624H153.558V118.24H147.468V117.624ZM147.468 114.53H153.558V115.118H147.468V114.53ZM145.844 113.522V119.234H155.252V113.522H145.844ZM151.234 119.962C152.648 120.494 154.09 121.166 154.874 121.642L156.834 120.886C155.84 120.396 154.104 119.696 152.634 119.164L151.234 119.962ZM148.126 119.122C147.174 119.654 145.508 120.144 144.024 120.424C144.402 120.704 144.976 121.32 145.27 121.656C146.698 121.25 148.518 120.55 149.666 119.808L148.126 119.122ZM160.096 108.524V121.572H161.65V108.524H160.096ZM157.982 113.116V114.684H163.722V113.116H157.982ZM159.802 113.956C159.41 115.342 158.556 117.288 157.716 118.324C157.968 118.8 158.332 119.542 158.486 120.06C159.41 118.716 160.278 116.28 160.726 114.404L159.802 113.956ZM161.622 114.768L160.852 115.426C161.356 116.112 162.294 117.666 162.658 118.464L163.694 117.148C163.386 116.756 162.028 115.132 161.622 114.768ZM157.954 109.602C158.29 110.624 158.556 111.982 158.584 112.864L159.844 112.528C159.774 111.646 159.494 110.316 159.13 109.294L157.954 109.602ZM162.574 109.224C162.42 110.218 162.084 111.632 161.804 112.528L162.854 112.822C163.204 111.996 163.624 110.666 163.988 109.532L162.574 109.224ZM167.866 108.44V121.586H169.448V108.44H167.866ZM163.68 117.204L163.946 118.772L171.128 117.47L170.876 115.916L163.68 117.204ZM164.478 110.358C165.262 110.862 166.242 111.632 166.662 112.178L167.544 110.904C167.082 110.386 166.088 109.686 165.304 109.21L164.478 110.358ZM163.848 113.886C164.66 114.362 165.682 115.118 166.158 115.636L166.998 114.306C166.494 113.788 165.444 113.116 164.632 112.682L163.848 113.886ZM176.322 109.434V110.792H184.82V109.434H176.322ZM175.888 117.61V119.01H185.03V117.61H175.888ZM179.724 108.454V112.094H181.362V108.454H179.724ZM178.87 113.956H182.244V114.502H178.87V113.956ZM178.87 115.468H182.244V116.014H178.87V115.468ZM178.87 112.458H182.244V112.99H178.87V112.458ZM177.344 111.436V117.05H183.84V111.436H177.344ZM181.054 119.724C181.992 120.298 183.028 121.082 183.588 121.6L185.142 120.83C184.456 120.284 183.252 119.5 182.216 118.912L181.054 119.724ZM178.45 118.982C177.792 119.57 176.602 120.116 175.454 120.452C175.818 120.718 176.42 121.306 176.7 121.628C177.848 121.152 179.206 120.368 180.032 119.514L178.45 118.982ZM172.066 111.8V113.382H176.308V111.8H172.066ZM173.48 108.664V117.96H175.048V108.664H173.48ZM171.758 117.82L172.388 119.514C173.662 118.954 175.258 118.254 176.714 117.554L176.322 116C174.656 116.7 172.906 117.414 171.758 117.82ZM191.596 108.468V110.372H193.276V108.468H191.596ZM186.374 109.42V112.318H187.886V110.862H196.93V112.318H198.526V109.42H186.374ZM191.274 110.988C190.63 111.324 189.538 111.66 188.586 111.87C188.74 112.15 188.922 112.612 188.978 112.878C190.042 112.71 191.302 112.416 192.268 112.01L191.274 110.988ZM188.068 111.604V115.65H189.552V111.884L188.068 111.604ZM188.068 114.95V116.098H196.818V111.604H192.758V112.738H195.292V114.95H188.068ZM188.516 113.284V114.39H191.89V113.284H188.516ZM192.982 113.284V114.39H195.992V113.284H192.982ZM189.916 115.426C189.146 116.7 187.578 117.708 185.926 118.282C186.22 118.59 186.696 119.262 186.892 119.598C188.698 118.814 190.434 117.512 191.4 115.86L189.916 115.426ZM189.692 116.728L188.362 118.044H197.014V116.728H189.692ZM196.496 116.728V116.938C196.398 118.996 196.286 119.808 196.076 120.032C195.95 120.158 195.824 120.172 195.6 120.158C195.362 120.172 194.802 120.158 194.214 120.102C194.466 120.494 194.634 121.11 194.662 121.558C195.376 121.572 196.034 121.586 196.426 121.53C196.846 121.474 197.182 121.376 197.49 121.04C197.84 120.634 197.994 119.626 198.12 117.316C198.134 117.12 198.148 116.728 198.148 116.728H196.496ZM188.25 118.296C188.082 119.206 187.718 120.144 187.116 120.718L188.362 121.404C189.048 120.76 189.384 119.71 189.58 118.702L188.25 118.296ZM190 118.66C190.238 119.472 190.378 120.522 190.336 121.166L191.68 120.998C191.694 120.34 191.512 119.318 191.26 118.52L190 118.66ZM191.904 118.688C192.226 119.346 192.492 120.2 192.562 120.76L193.794 120.424C193.724 119.878 193.416 119.038 193.066 118.394L191.904 118.688ZM193.724 118.618C194.088 119.024 194.48 119.626 194.62 120.018L195.754 119.514C195.586 119.108 195.194 118.548 194.802 118.156L193.724 118.618Z" fill="#666666"/>
<defs>
<clipPath id="clip0_398_146">
<rect width="55.374" height="62.2958" fill="white" transform="translate(70.8538 0.142578)"/>
</clipPath>
</defs>
</svg>
