
<svg width="56" height="43" viewBox="0 0 56 43" fill="none" xmlns="http://www.w3.org/2000/svg">
<path d="M38.5044 28.5291L46.185 36.0665C47.5043 37.4176 48.8997 38.692 50.3645 39.8837C51.1566 40.5072 52.0498 41.0928 53.0062 41.0928C53.5184 41.0902 54.0101 40.8913 54.3801 40.537C54.75 40.1827 54.97 39.7001 54.9948 39.1885C54.9948 38.3459 54.4008 37.6507 53.8488 37.0819C49.7733 32.7844 45.5208 28.7117 41.0913 24.8636C40.2824 26.0686 39.4692 27.2567 38.5044 28.5291Z" fill="white"/>
<path d="M53.0064 41.4762C51.932 41.4762 50.9924 40.8569 50.1372 40.187C48.6617 38.9863 47.2551 37.7035 45.924 36.3445L38.2433 28.7903C38.1799 28.7283 38.1414 28.6451 38.1352 28.5565C38.129 28.468 38.1555 28.3803 38.2096 28.31C39.166 27.046 39.9876 25.8411 40.7839 24.674C40.8135 24.6315 40.8516 24.5957 40.8959 24.5688C40.9401 24.542 40.9895 24.5247 41.0409 24.5181C41.0919 24.5118 41.1436 24.516 41.1929 24.5305C41.2421 24.545 41.2879 24.5695 41.3274 24.6024C45.7428 28.428 50.0445 32.5442 54.1102 36.8206C54.7085 37.4526 55.3489 38.211 55.3742 39.1884C55.3737 39.4767 55.3157 39.7619 55.2035 40.0274C55.0914 40.2929 54.9274 40.5334 54.7211 40.7347C54.2698 41.1985 53.6534 41.465 53.0064 41.4762ZM38.9806 28.4827L46.4296 35.8095C47.7398 37.1497 49.1238 38.4156 50.5753 39.6013C51.3253 40.1912 52.1384 40.7347 52.9937 40.7347C53.438 40.725 53.8605 40.5403 54.1692 40.2207C54.3071 40.0878 54.4172 39.9289 54.4931 39.7532C54.5691 39.5774 54.6093 39.3883 54.6116 39.1969C54.6116 38.4848 54.0933 37.8824 53.5667 37.3304C49.6105 33.1594 45.431 29.1526 41.1462 25.4197C40.489 26.4141 39.7854 27.4294 38.9806 28.4827Z" fill="black"/>
<path d="M28.5192 0.675659C25.3627 0.675659 22.277 1.61167 19.6525 3.36533C17.028 5.11899 14.9824 7.61153 13.7744 10.5278C12.5665 13.444 12.2504 16.6529 12.8662 19.7488C13.482 22.8446 15.002 25.6883 17.234 27.9203C19.466 30.1523 22.3098 31.6723 25.4056 32.2881C28.5015 32.9039 31.7104 32.5879 34.6266 31.3799C37.5428 30.172 40.0354 28.1264 41.789 25.5019C43.5427 22.8773 44.4787 19.7917 44.4787 16.6352C44.4787 12.4025 42.7973 8.3431 39.8043 5.35011C36.8113 2.35711 32.7519 0.675659 28.5192 0.675659V0.675659ZM28.5192 28.7566C26.1218 28.7566 23.7782 28.0457 21.7849 26.7137C19.7916 25.3818 18.2379 23.4887 17.3205 21.2739C16.403 19.059 16.163 16.6218 16.6307 14.2705C17.0984 11.9191 18.2529 9.75933 19.9481 8.06413C21.6433 6.36893 23.8031 5.21449 26.1544 4.74678C28.5057 4.27908 30.9429 4.51912 33.1578 5.43656C35.3727 6.35399 37.2658 7.90762 38.5977 9.90096C39.9296 11.8943 40.6405 14.2378 40.6405 16.6352C40.6416 18.2279 40.3289 19.8052 39.7203 21.2771C39.1117 22.7489 38.2191 24.0864 37.0935 25.2132C35.9678 26.34 34.6313 27.234 33.1601 27.8442C31.6888 28.4543 30.1119 28.7686 28.5192 28.7692V28.7566ZM28.5192 28.7566C26.1218 28.7566 23.7782 28.0457 21.7849 26.7137C19.7916 25.3818 18.2379 23.4887 17.3205 21.2739C16.403 19.059 16.163 16.6218 16.6307 14.2705C17.0984 11.9191 18.2529 9.75933 19.9481 8.06413C21.6433 6.36893 23.8031 5.21449 26.1544 4.74678C28.5057 4.27908 30.9429 4.51912 33.1578 5.43656C35.3727 6.35399 37.2658 7.90762 38.5977 9.90096C39.9296 11.8943 40.6405 14.2378 40.6405 16.6352C40.6416 18.2279 40.3289 19.8052 39.7203 21.2771C39.1117 22.7489 38.2191 24.0864 37.0935 25.2132C35.9678 26.34 34.6313 27.234 33.1601 27.8442C31.6888 28.4543 30.1119 28.7686 28.5192 28.7692V28.7566Z" fill="white"/>
<path d="M28.519 32.974C25.29 32.974 22.1335 32.0165 19.4487 30.2226C16.7639 28.4286 14.6713 25.8788 13.4356 22.8956C12.1999 19.9124 11.8766 16.6298 12.5066 13.4628C13.1365 10.2959 14.6915 7.38684 16.9747 5.10359C19.258 2.82034 22.167 1.26543 25.3339 0.635486C28.5009 0.00553987 31.7835 0.328851 34.7667 1.56454C37.75 2.80022 40.2997 4.89278 42.0936 7.57759C43.8876 10.2624 44.8451 13.4189 44.8451 16.6479C44.8396 20.9761 43.1177 25.1255 40.0571 28.186C36.9966 31.2466 32.8473 32.9684 28.519 32.974ZM28.519 1.05488C25.4358 1.05488 22.4219 1.96915 19.8583 3.68207C17.2948 5.39498 15.2967 7.82962 14.1168 10.6781C12.9369 13.5266 12.6282 16.661 13.2297 19.6849C13.8312 22.7088 15.3159 25.4865 17.4961 27.6666C19.6762 29.8468 22.4538 31.3314 25.4778 31.9329C28.5017 32.5344 31.6361 32.2257 34.4846 31.0459C37.3331 29.866 39.7677 27.8679 41.4806 25.3044C43.1935 22.7408 44.1078 19.7269 44.1078 16.6437C44.1011 12.5113 42.4566 8.55014 39.5346 5.62812C36.6125 2.7061 32.6514 1.06156 28.519 1.05488ZM28.519 29.1358C26.0491 29.1358 23.6347 28.4034 21.5811 27.0312C19.5275 25.659 17.9269 23.7087 16.9817 21.4268C16.0365 19.1449 15.7892 16.634 16.271 14.2116C16.7529 11.7892 17.9422 9.56408 19.6887 7.81762C21.4352 6.07116 23.6603 4.8818 26.0828 4.39995C28.5052 3.9181 31.016 4.1654 33.2979 5.11058C35.5798 6.05576 37.5301 7.65637 38.9023 9.70999C40.2745 11.7636 41.0069 14.178 41.0069 16.6479C41.0025 19.9585 39.6853 23.1323 37.3443 25.4732C35.0034 27.8142 31.8296 29.1313 28.519 29.1358V29.1358ZM16.76 16.6479C16.76 18.9736 17.4496 21.2471 18.7417 23.1808C20.0338 25.1146 21.8703 26.6218 24.019 27.5118C26.1677 28.4018 28.5321 28.6347 30.8131 28.181C33.0941 27.7272 35.1894 26.6073 36.8339 24.9628C38.4784 23.3182 39.5983 21.223 40.0521 18.942C40.5058 16.6609 40.2729 14.2966 39.3829 12.1479C38.4929 9.99924 36.9857 8.16273 35.052 6.87063C33.1182 5.57853 30.8447 4.88888 28.519 4.88888C25.401 4.89111 22.4114 6.13072 20.2066 8.33548C18.0018 10.5402 16.7622 13.5299 16.76 16.6479V16.6479Z" fill="black"/>
<path d="M22.2914 17.734C22.9822 17.734 23.5422 17.174 23.5422 16.4831C23.5422 15.7923 22.9822 15.2323 22.2914 15.2323C21.6006 15.2323 21.0405 15.7923 21.0405 16.4831C21.0405 17.174 21.6006 17.734 22.2914 17.734Z" fill="white"/>
<path d="M22.2917 18.1015C21.9717 18.1015 21.6589 18.0066 21.3929 17.8288C21.1268 17.651 20.9194 17.3983 20.797 17.1027C20.6745 16.8071 20.6425 16.4818 20.7049 16.168C20.7673 15.8541 20.9214 15.5658 21.1477 15.3396C21.3739 15.1133 21.6622 14.9592 21.9761 14.8968C22.2899 14.8344 22.6152 14.8664 22.9108 14.9889C23.2065 15.1113 23.4591 15.3187 23.6369 15.5848C23.8147 15.8508 23.9096 16.1636 23.9096 16.4836C23.9084 16.9123 23.7377 17.3232 23.4345 17.6264C23.1313 17.9295 22.7204 18.1003 22.2917 18.1015ZM22.2917 15.5988C22.1167 15.5988 21.9456 15.6507 21.8001 15.7479C21.6546 15.8451 21.5412 15.9833 21.4743 16.145C21.4073 16.3067 21.3898 16.4846 21.4239 16.6562C21.4581 16.8278 21.5423 16.9855 21.6661 17.1092C21.7898 17.233 21.9475 17.3172 22.1191 17.3514C22.2907 17.3855 22.4686 17.368 22.6303 17.301C22.7919 17.234 22.9301 17.1206 23.0274 16.9751C23.1246 16.8296 23.1765 16.6586 23.1765 16.4836C23.1754 16.2493 23.0818 16.0249 22.9161 15.8592C22.7504 15.6935 22.526 15.5999 22.2917 15.5988Z" fill="black"/>
<path d="M28.3544 17.734C29.0452 17.734 29.6052 17.174 29.6052 16.4831C29.6052 15.7923 29.0452 15.2323 28.3544 15.2323C27.6635 15.2323 27.1035 15.7923 27.1035 16.4831C27.1035 17.174 27.6635 17.734 28.3544 17.734Z" fill="white"/>
<path d="M28.3547 18.1015C28.0347 18.1015 27.7219 18.0066 27.4558 17.8288C27.1898 17.651 26.9824 17.3983 26.86 17.1027C26.7375 16.8071 26.7055 16.4818 26.7679 16.168C26.8303 15.8541 26.9844 15.5658 27.2107 15.3396C27.4369 15.1133 27.7252 14.9592 28.0391 14.8968C28.3529 14.8344 28.6782 14.8664 28.9738 14.9889C29.2694 15.1113 29.5221 15.3187 29.6999 15.5848C29.8777 15.8508 29.9725 16.1636 29.9725 16.4836C29.9725 16.9127 29.8021 17.3242 29.4987 17.6276C29.1953 17.931 28.7838 18.1015 28.3547 18.1015V18.1015ZM28.3547 15.5988C28.1797 15.5988 28.0086 15.6507 27.8631 15.7479C27.7176 15.8451 27.6042 15.9833 27.5373 16.145C27.4703 16.3067 27.4528 16.4846 27.4869 16.6562C27.521 16.8278 27.6053 16.9855 27.729 17.1092C27.8528 17.233 28.0105 17.3172 28.1821 17.3514C28.3537 17.3855 28.5316 17.368 28.6933 17.301C28.8549 17.234 28.9931 17.1206 29.0904 16.9751C29.1876 16.8296 29.2395 16.6586 29.2395 16.4836C29.2395 16.2489 29.1462 16.0239 28.9803 15.858C28.8144 15.692 28.5893 15.5988 28.3547 15.5988Z" fill="black"/>
<path d="M34.4213 17.734C35.1121 17.734 35.6721 17.174 35.6721 16.4831C35.6721 15.7923 35.1121 15.2323 34.4213 15.2323C33.7304 15.2323 33.1704 15.7923 33.1704 16.4831C33.1704 17.174 33.7304 17.734 34.4213 17.734Z" fill="white"/>
<path d="M34.4174 18.1014C34.0976 18.1006 33.7852 18.005 33.5197 17.8267C33.2542 17.6485 33.0474 17.3955 32.9256 17.0998C32.8038 16.8041 32.7724 16.4789 32.8353 16.1654C32.8982 15.8518 33.0526 15.5639 33.2791 15.3381C33.5055 15.1123 33.7938 14.9586 34.1075 14.8965C34.4212 14.8344 34.7463 14.8667 35.0417 14.9893C35.3371 15.1119 35.5895 15.3192 35.7671 15.5852C35.9447 15.8511 36.0394 16.1638 36.0394 16.4836C36.0383 16.9131 35.8669 17.3246 35.5628 17.6278C35.2588 17.9311 34.8468 18.1014 34.4174 18.1014V18.1014ZM34.4174 15.5988C34.2426 15.5996 34.0719 15.6522 33.9269 15.75C33.782 15.8477 33.6692 15.9862 33.6029 16.1479C33.5366 16.3096 33.5197 16.4874 33.5543 16.6588C33.5889 16.8301 33.6735 16.9874 33.7974 17.1107C33.9213 17.234 34.079 17.3179 34.2505 17.3516C34.422 17.3854 34.5997 17.3677 34.7611 17.3006C34.9226 17.2335 35.0605 17.1201 35.1575 16.9747C35.2545 16.8293 35.3064 16.6584 35.3064 16.4836C35.3052 16.2485 35.2111 16.0235 35.0445 15.8577C34.8779 15.6919 34.6524 15.5988 34.4174 15.5988V15.5988Z" fill="black"/>
<path d="M40.5647 28.9883H40.531C40.5155 28.984 40.5009 28.9766 40.4883 28.9666C40.4756 28.9565 40.4651 28.9441 40.4573 28.93C40.4494 28.9159 40.4445 28.9004 40.4427 28.8844C40.4409 28.8684 40.4422 28.8521 40.4467 28.8366L40.7248 27.855C40.7292 27.8394 40.7366 27.8249 40.7466 27.8123C40.7566 27.7996 40.769 27.7891 40.7831 27.7812C40.7972 27.7734 40.8127 27.7684 40.8288 27.7666C40.8448 27.7648 40.861 27.7662 40.8765 27.7707C40.8923 27.7745 40.9072 27.7816 40.9202 27.7915C40.9332 27.8014 40.944 27.8138 40.9519 27.8281C40.9598 27.8423 40.9646 27.8581 40.9662 27.8743C40.9677 27.8905 40.9658 27.9069 40.9607 27.9224L40.6658 28.9041C40.6583 28.926 40.6449 28.9455 40.6271 28.9604C40.6093 28.9753 40.5877 28.9849 40.5647 28.9883V28.9883Z" fill="black"/>
<path d="M41.9044 30.7072C41.8727 30.703 41.844 30.6866 41.8243 30.6613C41.8046 30.6361 41.7955 30.6042 41.7991 30.5724C41.9466 29.4222 42.1277 28.2636 42.3342 27.1218C42.3403 27.09 42.3589 27.0619 42.3858 27.0437C42.4126 27.0255 42.4456 27.0188 42.4775 27.0249C42.5093 27.0311 42.5374 27.0496 42.5556 27.0765C42.5738 27.1033 42.5805 27.1363 42.5744 27.1682C42.3679 28.3015 42.191 29.4601 42.0393 30.6019C42.0378 30.6178 42.033 30.6333 42.0253 30.6473C42.0176 30.6614 42.0071 30.6737 41.9945 30.6835C41.9819 30.6934 41.9674 30.7006 41.9519 30.7046C41.9364 30.7087 41.9203 30.7096 41.9044 30.7072Z" fill="black"/>
<path d="M43.6485 32.3799C43.6161 32.3799 43.5851 32.367 43.5622 32.3441C43.5392 32.3212 43.5264 32.2901 43.5264 32.2577C43.5264 31.6805 43.6148 30.7199 43.6949 29.8688C43.7412 29.3506 43.7834 28.8998 43.796 28.6049C43.7958 28.5884 43.7992 28.5721 43.8059 28.5571C43.8127 28.542 43.8226 28.5287 43.8351 28.5178C43.8475 28.507 43.8621 28.499 43.8779 28.4944C43.8937 28.4898 43.9103 28.4887 43.9266 28.4911C43.9583 28.4933 43.9879 28.5077 44.0091 28.5313C44.0303 28.5549 44.0415 28.5858 44.0404 28.6175C44.0404 28.904 43.9856 29.3548 43.935 29.8815C43.8592 30.7241 43.7707 31.6847 43.7707 32.2493C43.7719 32.266 43.7695 32.2828 43.7639 32.2986C43.7583 32.3144 43.7495 32.3289 43.7381 32.3412C43.7266 32.3534 43.7127 32.3632 43.6973 32.3699C43.6819 32.3765 43.6653 32.3799 43.6485 32.3799V32.3799Z" fill="black"/>
<path d="M45.4351 34.0231C45.4193 34.0236 45.4035 34.021 45.3887 34.0153C45.3739 34.0096 45.3604 34.001 45.349 33.99C45.3376 33.979 45.3285 33.9658 45.3223 33.9512C45.3161 33.9366 45.313 33.9209 45.313 33.9051L45.2203 29.8267C45.2197 29.8109 45.2223 29.7951 45.228 29.7803C45.2337 29.7655 45.2423 29.752 45.2533 29.7406C45.2643 29.7292 45.2775 29.7201 45.2921 29.7139C45.3067 29.7077 45.3224 29.7045 45.3382 29.7045C45.3543 29.704 45.3703 29.7066 45.3853 29.7122C45.4004 29.7178 45.4142 29.7264 45.4259 29.7373C45.4376 29.7483 45.4471 29.7614 45.4537 29.7761C45.4604 29.7907 45.4641 29.8065 45.4646 29.8225L45.5573 33.9009C45.5579 33.9167 45.5553 33.9325 45.5496 33.9473C45.5439 33.9621 45.5353 33.9756 45.5243 33.987C45.5133 33.9984 45.5001 34.0075 45.4855 34.0137C45.4709 34.0199 45.4552 34.0231 45.4393 34.0231H45.4351Z" fill="black"/>
<path d="M47.1328 35.8263C47.1011 35.8264 47.0707 35.8141 47.0479 35.7921C47.0251 35.7701 47.0118 35.74 47.0107 35.7084L46.8506 31.4404C46.8506 31.408 46.8634 31.3769 46.8863 31.354C46.9092 31.3311 46.9403 31.3182 46.9727 31.3182C47.0051 31.3182 47.0362 31.3311 47.0591 31.354C47.0821 31.3769 47.0949 31.408 47.0949 31.4404L47.255 35.7084C47.2562 35.7246 47.254 35.7408 47.2486 35.7561C47.2432 35.7714 47.2347 35.7854 47.2236 35.7973C47.2125 35.8092 47.1991 35.8186 47.1842 35.8251C47.1693 35.8315 47.1533 35.8348 47.1371 35.8348L47.1328 35.8263Z" fill="black"/>
<path d="M48.8603 37.3304C48.8293 37.3305 48.7994 37.3188 48.7768 37.2977C48.7541 37.2766 48.7403 37.2476 48.7381 37.2167L48.5233 33.2268C48.5221 33.2106 48.5243 33.1944 48.5297 33.1791C48.5351 33.1638 48.5436 33.1497 48.5547 33.1379C48.5657 33.126 48.5791 33.1166 48.594 33.1101C48.6089 33.1037 48.625 33.1004 48.6412 33.1004C48.6571 33.0993 48.673 33.1013 48.688 33.1065C48.703 33.1116 48.7168 33.1198 48.7286 33.1304C48.7404 33.141 48.7499 33.1539 48.7566 33.1683C48.7633 33.1827 48.7671 33.1983 48.7676 33.2142L48.9825 37.1998C48.9836 37.2159 48.9816 37.232 48.9765 37.2473C48.9714 37.2625 48.9633 37.2766 48.9527 37.2888C48.9422 37.3009 48.9293 37.3108 48.9149 37.318C48.9005 37.3251 48.8848 37.3294 48.8687 37.3304H48.8603Z" fill="black"/>
<path d="M50.5753 38.7503C50.5447 38.7514 50.5149 38.7407 50.4921 38.7202C50.4693 38.6998 50.4553 38.6713 50.4531 38.6407L50.154 34.7562C50.1523 34.7403 50.1538 34.7243 50.1584 34.7091C50.163 34.6938 50.1706 34.6797 50.1809 34.6675C50.1911 34.6553 50.2037 34.6453 50.218 34.6381C50.2322 34.6308 50.2477 34.6266 50.2636 34.6256C50.2796 34.6244 50.2957 34.6264 50.311 34.6315C50.3263 34.6366 50.3404 34.6447 50.3525 34.6553C50.3646 34.6659 50.3746 34.6787 50.3817 34.6931C50.3889 34.7076 50.3931 34.7233 50.3942 34.7393L50.6975 38.6197C50.6987 38.6357 50.6966 38.6518 50.6915 38.6671C50.6864 38.6824 50.6783 38.6965 50.6678 38.7086C50.6572 38.7207 50.6443 38.7307 50.6299 38.7378C50.6155 38.745 50.5998 38.7492 50.5838 38.7503H50.5753Z" fill="black"/>
<path d="M52.1927 40.0143C52.1627 40.0135 52.1339 40.0021 52.1115 39.982C52.0891 39.9619 52.0745 39.9345 52.0705 39.9047L51.7209 36.5005C51.7192 36.4844 51.7207 36.4682 51.7253 36.4527C51.7299 36.4373 51.7375 36.4229 51.7477 36.4104C51.7683 36.3851 51.798 36.369 51.8304 36.3656C51.8628 36.3623 51.8952 36.3719 51.9205 36.3925C51.9458 36.413 51.9619 36.4428 51.9652 36.4752L52.3149 39.8794C52.3167 39.8955 52.3152 39.9118 52.3107 39.9272C52.3061 39.9427 52.2985 39.9572 52.2883 39.9697C52.2781 39.9822 52.2656 39.9926 52.2513 40.0003C52.2371 40.0079 52.2215 40.0127 52.2054 40.0143H52.1927Z" fill="black"/>
<path d="M53.7811 39.8324C53.7522 39.832 53.7244 39.8218 53.7022 39.8034C53.6799 39.785 53.6647 39.7596 53.6589 39.7313L53.4147 38.2109C53.4107 38.1947 53.4101 38.1778 53.4129 38.1613C53.4157 38.1448 53.4219 38.1291 53.431 38.1151C53.4402 38.1011 53.4521 38.0891 53.466 38.0799C53.48 38.0707 53.4957 38.0644 53.5122 38.0615C53.5287 38.0586 53.5455 38.0592 53.5618 38.0631C53.5781 38.067 53.5934 38.0742 53.6067 38.0842C53.6201 38.0943 53.6312 38.107 53.6395 38.1215C53.6477 38.1361 53.6529 38.1522 53.6547 38.1688L53.899 39.6892C53.9021 39.705 53.902 39.7212 53.8987 39.7369C53.8955 39.7526 53.8892 39.7676 53.8802 39.7809C53.8712 39.7942 53.8597 39.8056 53.8463 39.8144C53.8329 39.8233 53.8179 39.8294 53.8021 39.8324H53.7811Z" fill="black"/>
<g opacity="0.13">
<path opacity="0.13" d="M39.8231 20.5072C39.4018 20.8485 39.2375 21.392 38.8962 21.7964C38.477 22.3134 38.0282 22.8058 37.5522 23.271C37.1519 23.6292 36.7643 23.9452 36.3767 24.2443C36.3033 24.2572 36.2331 24.2844 36.1702 24.3243C34.1732 25.7652 32.6733 26.2961 30.1496 26.7596C28.6782 27.0874 27.1507 27.0686 25.6878 26.7048C24.3649 26.3972 23.7287 26.0349 22.3468 25.1038C21.3291 24.3286 20.3982 23.4458 19.5703 22.4705V22.4705C18.9287 21.5693 18.4299 20.5746 18.0915 19.5213C17.8934 18.9862 17.746 18.4385 17.5901 17.8908C17.387 17.3625 17.2841 16.801 17.2867 16.235C17.1435 15.8137 17.0087 15.4177 16.8654 15.0006C16.748 14.9471 16.6191 14.9239 16.4904 14.9331C16.2861 16.5747 16.2946 18.2358 16.5157 19.8752C16.8739 21.2951 17.3162 22.8244 18.6771 24.3665C19.3759 25.1197 20.1542 25.795 20.9985 26.3804C22.6066 27.7592 24.6222 28.5732 26.7369 28.6976C27.5318 28.8337 28.3424 28.8522 29.1427 28.7524C29.767 28.6756 30.3832 28.5431 30.9838 28.3564C32.2538 28.0722 33.4846 27.6351 34.6493 27.0545C35.1127 26.7638 35.277 26.6542 35.4919 26.4899C36.8187 25.6664 38.0337 24.6751 39.1069 23.5407C39.3007 23.1418 39.486 22.7374 39.663 22.3273C39.8821 21.7206 40.0843 21.1097 40.3203 20.4988C40.2415 20.465 40.1565 20.4483 40.0708 20.4497C39.9851 20.4512 39.9007 20.4707 39.8231 20.5072V20.5072Z" fill="black"/>
</g>
<g opacity="0.13">
<path opacity="0.13" d="M42.414 25.7188C41.8031 25.5419 41.3986 25.9674 41.0995 26.4309L41.0574 26.4772C40.5265 27.0965 40.379 27.046 39.5027 27.8339C39.3132 27.9275 39.1476 28.0629 39.0181 28.2299C38.8655 28.4263 38.7861 28.6698 38.7934 28.9184C38.8008 29.1671 38.8946 29.4054 39.0587 29.5924C39.2227 29.7794 39.4468 29.9034 39.6924 29.9431C39.938 29.9828 40.1897 29.9357 40.4043 29.8098C41.0971 29.4203 41.7 28.8891 42.1738 28.251C42.4906 27.921 42.7729 27.5596 43.0165 27.1724C43.0894 27.04 43.1317 26.893 43.14 26.7421C43.1484 26.5912 43.1227 26.4403 43.0649 26.3007C43.007 26.1611 42.9184 26.0363 42.8057 25.9356C42.6931 25.8348 42.5592 25.7608 42.414 25.7188V25.7188Z" fill="black"/>
</g>
<g opacity="0.13">
<path opacity="0.13" d="M9.56753 9.54846C9.57185 9.42644 9.54274 9.30556 9.48332 9.1989C9.42182 9.09513 9.3324 9.0107 9.22529 8.95523C9.11817 8.89976 8.99768 8.87547 8.87744 8.88512C8.7572 8.89478 8.64206 8.93799 8.54517 9.00984C8.44828 9.08169 8.3735 9.17929 8.32935 9.29155L8.29146 9.37157C8.24513 9.46844 8.21142 9.56951 8.17352 9.67059C8.13561 9.77167 8.09771 9.85169 8.07245 9.91065C8.00925 10.0179 7.97581 10.14 7.97559 10.2644C7.9754 10.4304 8.03535 10.5909 8.14437 10.7161C8.25339 10.8412 8.40411 10.9227 8.56856 10.9453C8.73302 10.9679 8.90011 10.9302 9.03887 10.839C9.17764 10.7479 9.27865 10.6096 9.32328 10.4497C9.43342 10.201 9.51128 9.93913 9.55494 9.67059C9.5633 9.63042 9.56749 9.58949 9.56753 9.54846V9.54846Z" fill="black"/>
</g>
<g opacity="0.13">
<path opacity="0.13" d="M9.56753 9.54846C9.57185 9.42644 9.54274 9.30556 9.48332 9.1989C9.42182 9.09513 9.3324 9.0107 9.22529 8.95523C9.11817 8.89976 8.99768 8.87547 8.87744 8.88512C8.7572 8.89478 8.64206 8.93799 8.54517 9.00984C8.44828 9.08169 8.3735 9.17929 8.32935 9.29155L8.29146 9.37157C8.24513 9.46844 8.21142 9.56951 8.17352 9.67059C8.13561 9.77167 8.09771 9.85169 8.07245 9.91065C8.00925 10.0179 7.97581 10.14 7.97559 10.2644C7.9754 10.4304 8.03535 10.5909 8.14437 10.7161C8.25339 10.8412 8.40411 10.9227 8.56856 10.9453C8.73302 10.9679 8.90011 10.9302 9.03887 10.839C9.17764 10.7479 9.27865 10.6096 9.32328 10.4497C9.43342 10.201 9.51128 9.93913 9.55494 9.67059C9.5633 9.63042 9.56749 9.58949 9.56753 9.54846V9.54846Z" fill="black"/>
</g>
<g opacity="0.13">
<path opacity="0.13" d="M9.56753 9.54846C9.57185 9.42644 9.54274 9.30556 9.48332 9.1989C9.42182 9.09513 9.3324 9.0107 9.22529 8.95523C9.11817 8.89976 8.99768 8.87547 8.87744 8.88512C8.7572 8.89478 8.64206 8.93799 8.54517 9.00984C8.44828 9.08169 8.3735 9.17929 8.32935 9.29155L8.29146 9.37157C8.24513 9.46844 8.21142 9.56951 8.17352 9.67059C8.13561 9.77167 8.09771 9.85169 8.07245 9.91065C8.00925 10.0179 7.97581 10.14 7.97559 10.2644C7.9754 10.4304 8.03535 10.5909 8.14437 10.7161C8.25339 10.8412 8.40411 10.9227 8.56856 10.9453C8.73302 10.9679 8.90011 10.9302 9.03887 10.839C9.17764 10.7479 9.27865 10.6096 9.32328 10.4497C9.43342 10.201 9.51128 9.93913 9.55494 9.67059C9.5633 9.63042 9.56749 9.58949 9.56753 9.54846V9.54846Z" fill="black"/>
</g>
<g opacity="0.13">
<path opacity="0.13" d="M15.8377 26.5152C15.0628 25.6301 14.4212 24.6365 13.9334 23.566C13.3604 22.3357 13.0908 21.8807 12.8296 20.3724C12.7397 19.91 12.6932 19.4403 12.6905 18.9694C12.7467 18.7996 12.7584 18.6183 12.7244 18.4427C12.6905 18.2671 12.6121 18.1032 12.4967 17.9666C12.3787 17.8536 12.2296 17.7786 12.0685 17.7511C11.9075 17.7237 11.742 17.7451 11.5932 17.8127C11.4445 17.8803 11.3194 17.9908 11.2341 18.1302C11.1488 18.2695 11.1073 18.4312 11.1148 18.5944C11.1043 18.6614 11.1043 18.7296 11.1148 18.7966C11.1148 18.843 11.1148 18.8893 11.1148 18.9357C11.1148 18.9357 11.1148 18.9357 11.1148 19.0115C11.1311 19.5281 11.1803 20.0432 11.2622 20.5535C11.4232 21.7284 11.7807 22.8678 12.3197 23.9241C12.8976 25.2746 13.6822 26.5268 14.6454 27.6359C14.794 27.794 14.9994 27.8866 15.2162 27.8933C15.4331 27.9001 15.6438 27.8203 15.8019 27.6717C15.96 27.5231 16.0526 27.3178 16.0593 27.1009C16.0661 26.884 15.9863 26.6733 15.8377 26.5152Z" fill="black"/>
</g>
<g opacity="0.13">
<path opacity="0.13" d="M30.3222 32.3673C29.2057 32.6665 28.7633 32.6328 27.3729 32.5611C25.8309 32.4179 25.0388 32.4263 23.4884 31.7943L23.4294 31.7649C23.2891 31.6852 23.1274 31.6513 22.967 31.6679C22.8065 31.6845 22.6552 31.7508 22.5342 31.8574C22.4132 31.9641 22.3284 32.1058 22.2917 32.263C22.2551 32.4201 22.2684 32.5847 22.3298 32.7339C22.4941 33.1931 23.0629 33.2437 23.4505 33.4248C25.1905 34.0231 27.0738 34.0315 28.8939 34.1453C29.3412 34.1292 29.7864 34.0771 30.2253 33.9894C30.497 33.9685 30.7598 33.8833 30.9921 33.7408C31.1304 33.6295 31.2268 33.4744 31.2655 33.3011C31.3042 33.1278 31.2829 32.9465 31.205 32.7869C31.1272 32.6272 30.9974 32.4988 30.837 32.4226C30.6766 32.3464 30.4951 32.3269 30.3222 32.3673V32.3673Z" fill="black"/>
</g>
<path d="M29.2371 41.9537H13.7373L13.7301 41.9535C13.7219 41.9532 13.7075 41.9526 13.6878 41.9512C13.6483 41.9483 13.5885 41.9423 13.5155 41.93C13.367 41.9049 13.1766 41.8556 12.9921 41.762C12.8097 41.6695 12.6415 41.5382 12.5176 41.3496C12.3955 41.1638 12.2969 40.8931 12.2969 40.4875C12.2969 39.6221 12.7399 37.7704 14.1169 36.1406C15.4734 34.5351 17.755 33.1229 21.4872 33.1229C25.2194 33.1229 27.5011 34.5351 28.8575 36.1406C30.2345 37.7704 30.6775 39.6221 30.6775 40.4875C30.6775 40.8931 30.579 41.1638 30.4569 41.3496C30.333 41.5382 30.1647 41.6695 29.9823 41.762C29.7978 41.8556 29.6074 41.9049 29.4589 41.93C29.3859 41.9423 29.3261 41.9483 29.2866 41.9512C29.2669 41.9526 29.2526 41.9532 29.2443 41.9535L29.2378 41.9537L29.2386 41.9537L29.2371 41.9537Z" fill="#1A374D" stroke="black"/>
<path d="M9.71901 32.8429V32.8429L9.72505 32.8429C10.6446 32.8317 11.5614 32.9327 12.4567 33.1432C10.3579 35.1457 9.22023 37.8119 9.21901 40.4273C9.21055 40.9452 9.27939 41.4599 9.42202 41.9537H1.9463L1.9393 41.9535C1.9312 41.9532 1.91691 41.9526 1.89733 41.9511C1.858 41.9482 1.79841 41.9421 1.7255 41.9294C1.57741 41.9038 1.38716 41.8533 1.20263 41.7573C1.02046 41.6626 0.85057 41.5272 0.724695 41.3308C0.60022 41.1366 0.5 40.8535 0.5 40.4315C0.5 39.5347 0.946756 37.6253 2.32969 35.9469C3.69212 34.2933 5.98007 32.8429 9.71901 32.8429Z" fill="#1A374D" stroke="black"/>
<path d="M11.7097 28.8841C10.8948 29.699 9.78957 30.1568 8.63716 30.1568C7.48475 30.1568 6.37954 29.699 5.56466 28.8841C4.74979 28.0692 4.29199 26.964 4.29199 25.8116C4.29199 24.6592 4.74979 23.554 5.56466 22.7391C6.37954 21.9242 7.48475 21.4664 8.63716 21.4664C9.78957 21.4664 10.8948 21.9242 11.7097 22.7391C12.5245 23.554 12.9823 24.6592 12.9823 25.8116C12.9823 26.964 12.5245 28.0692 11.7097 28.8841Z" fill="#1A374D" stroke="black"/>
</svg>

