<svg width="225" height="164" viewBox="0 0 225 164" fill="none" xmlns="http://www.w3.org/2000/svg">
<path d="M13.7288 103.16V109.53C13.7288 109.768 13.6168 109.852 13.3088 109.852C12.9868 109.852 11.8388 109.852 10.8448 109.81C11.1108 110.272 11.4328 111.028 11.5308 111.518C12.8748 111.518 13.8828 111.49 14.5688 111.238C15.2688 110.986 15.5068 110.524 15.5068 109.572V103.16H13.7288ZM8.94081 99.3518V101.004H18.7268V99.3518H8.94081ZM18.0968 99.3518V99.7578C17.3968 100.822 15.7448 102.502 14.2888 103.426C14.6248 103.692 15.1708 104.252 15.4368 104.616C17.1588 103.538 19.0068 101.76 20.2668 100.22L18.9508 99.2398L18.5448 99.3518H18.0968ZM23.5288 101.97V103.202H27.4068V101.97H23.5288ZM23.5288 104.266V105.456H27.4068V104.266H23.5288ZM23.5288 106.604V107.85H27.4068V106.604H23.5288ZM29.5908 105.022V106.436H34.8688V105.022H29.5908ZM24.2148 99.6738V100.934H26.4268V99.6738H24.2148ZM28.5408 99.0858V100.458H33.7348V99.0858H28.5408ZM28.5408 107.696V109.152H35.1348V107.696H28.5408ZM31.1588 103.762V111.476H32.7548V103.762H31.1588ZM25.0408 102.614V107.066H26.1608V102.614H25.0408ZM33.2868 99.0858V99.2818C33.2308 101.312 33.1468 102.068 32.9928 102.25C32.8948 102.376 32.7828 102.404 32.6008 102.404C32.4188 102.404 32.0548 102.39 31.6068 102.348C31.8168 102.712 31.9568 103.272 31.9848 103.692C32.5448 103.72 33.0908 103.706 33.3988 103.664C33.7628 103.608 34.0288 103.496 34.2528 103.202C34.5608 102.838 34.6868 101.872 34.7568 99.6178C34.7708 99.4358 34.7848 99.0858 34.7848 99.0858H33.2868ZM29.3108 103.86C29.1148 104.98 28.7368 106.128 28.1908 106.87C28.5268 107.024 29.1428 107.332 29.4228 107.528C29.9688 106.702 30.4308 105.414 30.6828 104.126L29.3108 103.86ZM23.8788 98.3578C23.5008 100.024 22.7588 101.662 21.8068 102.698C22.1428 102.922 22.7448 103.426 22.9968 103.692C24.0048 102.502 24.8728 100.612 25.3768 98.6798L23.8788 98.3578ZM22.9128 101.97V105.68C22.9128 107.262 22.8288 109.348 21.8768 110.804C22.1988 110.944 22.8008 111.322 23.0528 111.546C24.0748 109.964 24.2568 107.472 24.2568 105.68V101.97H22.9128ZM26.9588 101.97V109.88C26.9588 110.048 26.8888 110.104 26.7208 110.104C26.5528 110.118 25.9928 110.118 25.4468 110.09C25.6428 110.468 25.8668 111.112 25.9228 111.504C26.7768 111.504 27.3508 111.476 27.7848 111.238C28.2048 110.986 28.3308 110.566 28.3308 109.908V101.97H26.9588ZM30.2208 99.5478C30.0808 101.06 29.7868 102.25 28.1068 102.936C28.4428 103.188 28.8208 103.734 28.9888 104.084C31.0748 103.16 31.5508 101.592 31.7188 99.5478H30.2208ZM26.0348 99.6738V99.9258C25.8668 100.584 25.5168 101.62 25.2088 102.264C25.5028 102.418 25.9648 102.698 26.2308 102.894C26.6648 102.194 27.2108 101.088 27.5188 100.206L26.5668 99.6038L26.3568 99.6738H26.0348ZM40.0628 100.528H44.9908V102.418H40.0628V100.528ZM38.4388 98.9318V104.014H46.7128V98.9318H38.4388ZM36.5208 105.19V111.518H38.1028V106.786H40.1888V111.434H41.8688V105.19H36.5208ZM43.0588 105.19V111.518H44.6688V106.786H46.9088V111.448H48.6028V105.19H43.0588ZM37.2208 109.208V110.818H40.8888V109.208H37.2208ZM43.8288 109.208V110.818H47.7488V109.208H43.8288ZM55.2108 107.346V108.76H63.0088V107.346H55.2108ZM59.5928 105.582V111.532H61.1748V105.582H59.5928ZM58.3328 98.3438C58.2068 98.9038 57.9268 99.6598 57.6748 100.22L59.0188 100.57C59.3408 100.094 59.7888 99.3798 60.1948 98.6658L58.3328 98.3438ZM58.4448 100.43V102.754C58.4448 104.014 58.0948 105.638 55.5888 106.632C55.8968 106.842 56.4148 107.29 56.6528 107.556C59.4108 106.422 59.8588 104.434 59.8588 102.796V100.43H58.4448ZM51.4448 102.054V103.482H55.4348V102.054H51.4448ZM53.0828 98.3858V102.908H54.5388V98.3858H53.0828ZM51.5288 105.092V106.506H53.3488V111.532H54.8328V105.092H51.5288ZM50.7448 98.7358V103.972C50.7448 105.932 50.6328 109.026 49.8488 111.056C50.2548 111.168 50.9268 111.392 51.2488 111.56C52.0328 109.376 52.1868 106.17 52.1868 103.972V98.7358H50.7448ZM57.1708 103.062H61.1188V104.028H57.1708V103.062ZM57.1708 100.934H61.1188V101.886H57.1708V100.934ZM55.6868 99.6738V105.274H62.6588V99.6738H55.6868ZM65.3188 98.8338V100.108H75.7068V98.8338H65.3188ZM64.3108 105.134V106.436H76.7848V105.134H64.3108ZM66.3408 102.194V103.188H69.2108V102.194H66.3408ZM66.0328 103.636V104.63H69.2108V103.636H66.0328ZM71.8008 103.636V104.644H75.0068V103.636H71.8008ZM71.8008 102.194V103.188H74.6988V102.194H71.8008ZM69.6868 99.3378V104.756H71.2968V99.3378H69.6868ZM68.3568 108.06V111.406H69.8828V108.06H68.3568ZM71.3668 108.06V111.406H72.8928V108.06H71.3668ZM64.3668 100.612V103.384H65.8508V101.746H75.1748V103.384H76.7288V100.612H64.3668ZM65.3468 107.108V111.476H66.9288V108.424H74.7828V107.108H65.3468ZM74.4188 107.108V109.964C74.4188 110.09 74.3768 110.132 74.2228 110.132C74.0968 110.146 73.6348 110.146 73.2288 110.132C73.4108 110.51 73.6348 111.07 73.7048 111.49C74.4608 111.49 75.0348 111.49 75.4828 111.252C75.9308 111.028 76.0428 110.664 76.0428 109.992V107.108H74.4188ZM69.7148 105.652C69.6308 106.296 69.4208 107.164 69.2248 107.794L70.6948 107.906C70.9468 107.346 71.2828 106.534 71.5488 105.666L69.7148 105.652ZM78.3388 100.486V102.124H90.7848V100.486H78.3388ZM85.2408 101.928L83.9108 102.306C85.0868 105.918 87.0188 108.998 89.9868 110.566C90.2668 110.076 90.8128 109.404 91.2188 109.054C88.3488 107.766 86.2628 104.994 85.2408 101.928ZM88.8668 102.376C88.1668 103.426 86.9628 104.728 86.0668 105.512L87.2848 106.436C88.2088 105.68 89.3988 104.49 90.3508 103.426L88.8668 102.376ZM86.2628 99.3658C87.1308 99.7998 88.2788 100.472 88.8108 100.948L89.8748 99.7578C89.2728 99.3098 88.0968 98.6938 87.2568 98.3018L86.2628 99.3658ZM78.8848 103.468C79.6688 104.224 80.6068 105.302 80.9848 106.016L82.3568 105.022C81.9368 104.294 80.9568 103.286 80.1728 102.586L78.8848 103.468ZM83.6308 98.3858V109.446C83.6308 109.712 83.5328 109.782 83.2668 109.796C82.9868 109.796 82.1048 109.796 81.2508 109.754C81.5028 110.258 81.7548 111.042 81.8388 111.532C83.0848 111.532 83.9948 111.49 84.5828 111.196C85.1568 110.916 85.3668 110.44 85.3668 109.46V98.3858H83.6308ZM77.8908 108.662L78.9408 110.202C80.1728 109.488 81.7268 108.536 83.1268 107.626L82.5668 106.1C80.8868 107.08 79.0668 108.088 77.8908 108.662ZM99.1988 104.182C98.4568 105.54 97.0708 106.744 95.6148 107.472C95.9508 107.766 96.4828 108.41 96.7068 108.732C98.2468 107.808 99.7868 106.324 100.711 104.658L99.1988 104.182ZM99.3808 98.3158C98.9188 99.1138 98.0788 100.178 97.4208 100.85L98.5688 101.508C99.2408 100.892 100.095 99.9538 100.837 99.0718L99.3808 98.3158ZM101.999 99.3518C100.837 100.864 98.9048 102.768 97.3508 103.958L98.4568 104.686C100.025 103.552 101.999 101.76 103.497 100.178L101.999 99.3518ZM96.0908 100.934C97.1408 101.62 98.4008 102.656 98.9748 103.37L100.039 102.166C99.4368 101.438 98.1208 100.486 97.0988 99.8418L96.0908 100.934ZM101.845 102.488C102.671 103.454 103.539 104.798 103.875 105.652L105.289 104.854C104.911 103.972 103.973 102.698 103.147 101.788L101.845 102.488ZM95.8108 103.482L95.9368 104.966C98.0368 104.91 101.047 104.812 103.889 104.714L103.945 103.37C100.991 103.426 97.8408 103.468 95.8108 103.482ZM98.7228 106.492L97.3648 106.926C98.7648 109.376 101.075 110.916 104.295 111.56C104.505 111.126 104.939 110.482 105.289 110.132C102.223 109.656 99.8568 108.382 98.7228 106.492ZM99.0728 105.652L97.9528 106.912H102.839V105.652H99.0728ZM102.293 105.652V105.89C101.369 108.214 98.6948 109.642 95.6148 110.174C95.9088 110.51 96.2728 111.168 96.4128 111.588C99.8148 110.818 102.685 109.208 103.931 106.058L102.881 105.596L102.615 105.652H102.293ZM94.8868 101.382C94.1588 102.768 92.9408 104.126 91.7508 104.994C92.0308 105.358 92.4788 106.198 92.6328 106.562C94.0048 105.428 95.4608 103.636 96.3708 101.928L94.8868 101.382ZM94.6348 98.3718C94.0608 99.2958 92.8848 100.472 91.8768 101.172C92.1428 101.48 92.5488 102.068 92.7588 102.404C93.9348 101.536 95.2508 100.178 96.1188 98.9598L94.6348 98.3718ZM93.7388 104.406V111.546H95.3068V103.048L95.1668 102.978L93.7388 104.406ZM108.243 112.19C109.979 111.672 111.015 110.384 111.015 108.802C111.015 107.626 110.483 106.87 109.503 106.87C108.747 106.87 108.117 107.346 108.117 108.13C108.117 108.942 108.761 109.39 109.461 109.39C109.769 109.39 110.063 109.292 110.287 109.082L109.517 107.822L109.615 109.208C109.615 110.006 108.971 110.692 107.795 111.07L108.243 112.19ZM125.029 105.512V106.982H133.009V105.512H125.029ZM128.109 99.4498L127.423 100.584H131.371L131.707 99.4498H128.109ZM129.859 103.874V109.698C129.859 109.88 129.789 109.922 129.593 109.922C129.369 109.936 128.669 109.936 127.997 109.908C128.207 110.37 128.417 111.056 128.473 111.532C129.523 111.532 130.265 111.504 130.783 111.238C131.329 110.986 131.455 110.524 131.455 109.726V103.874H129.859ZM128.445 98.3998C127.633 99.6178 126.121 100.892 124.455 101.606C124.777 101.844 125.267 102.334 125.505 102.628C127.227 101.774 128.949 100.346 130.069 98.8198L128.445 98.3998ZM125.701 107.822C126.275 108.438 126.891 109.306 127.129 109.88L128.515 109.054C128.235 108.48 127.563 107.668 126.989 107.08L125.701 107.822ZM127.311 101.144C128.025 101.578 128.851 102.236 129.215 102.712L130.097 101.858C129.705 101.382 128.851 100.766 128.137 100.374L127.311 101.144ZM125.729 102.18C126.401 102.67 127.171 103.398 127.521 103.902L128.515 103.118C128.151 102.6 127.353 101.914 126.667 101.452L125.729 102.18ZM119.961 105.316V106.758H123.671V105.316H119.961ZM123.055 98.3718V111.518H124.609V98.3718H123.055ZM120.661 105.918V106.716C120.661 107.724 120.563 109.53 119.807 110.748C120.171 110.902 120.773 111.294 121.039 111.546C121.977 110.118 122.117 107.934 122.117 106.772V105.918H120.661ZM131.119 99.4498V99.6878C130.195 102.11 127.661 103.72 124.917 104.378C125.197 104.672 125.575 105.218 125.743 105.582C128.809 104.7 131.525 102.992 132.715 99.8838L131.693 99.3938L131.413 99.4498H131.119ZM120.535 99.0298V103.706H123.923V102.208H121.977V99.0298H120.535ZM137.055 103.468H143.971V105.232H137.055V103.468ZM135.655 102.432V106.268H145.455V102.432H135.655ZM138.063 100.836V101.928H143.005V100.836H138.063ZM139.785 102.768V105.722H141.143V102.768H139.785ZM140.457 99.6738C141.815 100.934 144.293 102.236 146.239 102.894C146.491 102.46 146.855 101.886 147.219 101.508C145.049 100.962 142.781 99.8558 141.185 98.3718H139.589C138.441 99.6178 136.145 100.934 133.849 101.62C134.143 101.97 134.535 102.572 134.717 102.95C136.929 102.18 139.211 100.878 140.457 99.6738ZM137.545 103.776C137.783 104.266 137.979 104.91 138.035 105.33L139.267 104.966C139.183 104.546 138.959 103.93 138.707 103.454L137.545 103.776ZM142.179 103.398C142.067 103.86 141.801 104.546 141.605 105.008L142.753 105.316C142.977 104.924 143.257 104.336 143.565 103.734L142.179 103.398ZM136.425 106.716V111.518H138.077V107.808H142.991V111.476H144.713V106.716H136.425ZM137.377 108.368V109.474H143.705V108.368H137.377ZM137.377 110.048V111.14H143.705V110.048H137.377ZM150.257 103.51V105.148H157.831V103.51H150.257ZM157.285 103.51V103.818C157.159 107.71 157.005 109.278 156.669 109.642C156.515 109.796 156.361 109.838 156.109 109.838C155.759 109.838 155.031 109.824 154.247 109.754C154.555 110.23 154.779 110.958 154.807 111.448C155.633 111.476 156.445 111.49 156.935 111.42C157.467 111.336 157.859 111.21 158.209 110.734C158.699 110.16 158.867 108.494 159.021 104.238C159.035 104.028 159.049 103.51 159.049 103.51H157.285ZM151.839 98.5538C150.999 100.682 149.445 102.642 147.681 103.804C148.087 104.126 148.815 104.798 149.137 105.162C150.901 103.776 152.609 101.522 153.659 99.0858L151.839 98.5538ZM157.173 98.5258L155.521 99.1838C156.627 101.326 158.349 103.594 159.931 105.05C160.253 104.574 160.897 103.888 161.359 103.524C159.819 102.348 158.055 100.304 157.173 98.5258ZM152.763 103.986C152.539 106.478 152.203 108.844 148.451 110.076C148.843 110.44 149.333 111.154 149.543 111.616C153.715 110.062 154.317 107.136 154.583 103.986H152.763ZM169.059 103.104V104.686H175.149V103.104H169.059ZM168.205 99.3518V103.426C168.205 105.512 168.051 108.34 166.483 110.398C166.889 110.594 167.533 111.14 167.771 111.504C169.591 109.18 169.843 105.694 169.843 103.454V100.164C170.095 100.122 170.193 100.038 170.207 99.9118L168.205 99.3518ZM173.287 98.5118C172.139 99.0718 170.277 99.5898 168.555 99.9258C168.765 100.276 169.017 100.906 169.101 101.298C170.949 101.004 173.091 100.514 174.701 99.8278L173.287 98.5118ZM171.663 103.594V111.504H173.329V103.594H171.663ZM162.157 101.256V102.852H167.393V101.256H162.157ZM164.089 98.3718V111.518H165.699V98.3718H164.089ZM164.005 102.334C163.641 104.126 162.759 106.31 161.793 107.528C162.045 107.948 162.437 108.634 162.591 109.096C163.669 107.654 164.551 104.938 164.999 102.684L164.005 102.334ZM165.573 103.566L164.803 104.322C165.279 105.022 166.231 106.576 166.609 107.416L167.547 106.086C167.267 105.68 165.937 103.958 165.573 103.566ZM187.189 101.088C187.049 102.11 186.727 103.524 186.419 104.42L187.707 104.742C188.057 103.902 188.435 102.586 188.785 101.41L187.189 101.088ZM181.855 101.494C182.135 102.53 182.387 103.888 182.415 104.77L183.843 104.448C183.773 103.566 183.507 102.236 183.199 101.2L181.855 101.494ZM181.715 99.0718V100.626H188.855V99.0718H181.715ZM181.239 105.134V106.73H189.107V105.134H181.239ZM184.333 99.6178V111.504H185.985V99.6178H184.333ZM176.633 102.67V103.93H180.959V102.67H176.633ZM176.675 98.8058V100.08H180.931V98.8058H176.675ZM176.633 104.574V105.848H180.959V104.574H176.633ZM175.947 100.696V102.026H181.463V100.696H175.947ZM177.403 106.52V107.85H179.503V109.446H177.403V110.776H180.945V106.52H177.403ZM176.591 106.52V111.336H178.005V106.52H176.591ZM192.915 98.4278C192.201 100.43 190.997 102.418 189.723 103.692C190.003 104.098 190.465 105.022 190.619 105.428C192.145 103.832 193.601 101.312 194.511 98.9178L192.915 98.4278ZM191.501 102.292V111.504H193.111V100.71L193.097 100.696L191.501 102.292ZM194.777 105.288V111.518H196.443V106.884H200.601V111.462H202.337V105.288H194.777ZM197.633 98.3578V106.142H199.383V98.3578H197.633ZM194.133 101.228V102.852H203.107V101.228H194.133ZM195.589 109.334V110.93H201.567V109.334H195.589ZM207.531 101.48H213.481V102.068H207.531V101.48ZM207.531 99.8978H213.481V100.472H207.531V99.8978ZM205.921 98.8198V103.146H215.161V98.8198H205.921ZM204.269 103.65V104.994H216.785V103.65H204.269ZM210.681 105.512V106.8H215.259V105.512H210.681ZM206.411 105.554V106.716H209.603V105.554H206.411ZM206.411 107.304V108.466H209.603V107.304H206.411ZM212.403 106.674L211.059 107.052C212.011 109.236 213.677 110.804 216.099 111.504C216.309 111.112 216.743 110.496 217.093 110.202C214.839 109.67 213.187 108.382 212.403 106.674ZM214.769 105.512V105.75C214.153 107.906 212.347 109.516 210.177 110.202C210.485 110.51 210.905 111.112 211.087 111.504C213.579 110.566 215.553 108.774 216.379 105.848L215.343 105.456L215.063 105.512H214.769ZM204.143 109.348L204.255 110.79C205.725 110.664 207.685 110.482 209.561 110.3V108.942C207.601 109.11 205.543 109.264 204.143 109.348ZM208.735 104.084V111.518H210.345V104.084H208.735ZM205.361 104.126V109.838H206.901V104.126H205.361ZM4.59261 129.832H1.41461V131.386H2.98261V134.984H4.59261V129.832ZM4.59261 134.326H3.13661C2.52061 134.844 1.83461 135.348 1.24661 135.726L2.04461 137.392C2.74461 136.79 3.33261 136.258 3.89261 135.712C4.73261 136.79 5.86661 137.196 7.54661 137.266C9.25461 137.35 12.2366 137.322 13.9866 137.238C14.0566 136.748 14.3226 135.978 14.5046 135.6C12.5586 135.754 9.24061 135.796 7.56061 135.712C6.11861 135.656 5.12461 135.25 4.59261 134.326ZM1.45661 125.674C2.25461 126.36 3.19261 127.326 3.57061 128.012L4.95661 126.948C4.52261 126.29 3.54261 125.352 2.74461 124.736L1.45661 125.674ZM5.18061 125.338V126.64H14.1966V125.338H5.18061ZM7.42061 129.622V130.63H11.9286V129.622H7.42061ZM8.76461 124.372V126.108H10.3886V124.372H8.76461ZM9.05861 128.838V131.68H10.2626V128.838H9.05861ZM5.54461 127.62V135.138H7.05661V128.894H12.8806V127.62H5.54461ZM7.77061 131.414V134.508H8.90461V131.414H7.77061ZM8.41461 131.414V132.352H10.4166V133.136H8.41461V134.06H11.5786V131.414H8.41461ZM12.3486 127.62V133.626C12.3486 133.794 12.2926 133.836 12.1386 133.85C11.9706 133.85 11.4526 133.85 10.9766 133.822C11.1726 134.2 11.3686 134.788 11.4386 135.194C12.2646 135.194 12.8666 135.18 13.3286 134.956C13.7766 134.704 13.8886 134.34 13.8886 133.654V127.62H12.3486ZM11.0046 126.262C10.8926 126.668 10.6826 127.27 10.5146 127.69L11.8446 128.012C12.0546 127.648 12.2926 127.158 12.5726 126.612L11.0046 126.262ZM6.79061 126.682C7.00061 127.102 7.18261 127.662 7.23861 128.026L8.69461 127.676C8.63861 127.298 8.41461 126.752 8.17661 126.36L6.79061 126.682ZM18.3826 128.894V130.364H25.4106V128.894H18.3826ZM18.2146 135.544V137.014H25.4386V135.544H18.2146ZM17.4726 131.764V137.546H19.1246V133.248H24.6686V137.546H26.3906V131.764H17.4726ZM21.8266 126.038C23.0446 127.704 25.3966 129.608 27.5526 130.742C27.8466 130.224 28.2386 129.65 28.6586 129.23C26.4046 128.32 24.1506 126.542 22.6246 124.386H20.8746C19.8386 126.108 17.5846 128.222 15.1626 129.398C15.5266 129.748 15.9886 130.364 16.2126 130.756C18.5226 129.524 20.6786 127.676 21.8266 126.038ZM33.4046 126.528H38.3326V128.418H33.4046V126.528ZM31.7806 124.932V130.014H40.0546V124.932H31.7806ZM29.8626 131.19V137.518H31.4446V132.786H33.5306V137.434H35.2106V131.19H29.8626ZM36.4006 131.19V137.518H38.0106V132.786H40.2506V137.448H41.9446V131.19H36.4006ZM30.5626 135.208V136.818H34.2306V135.208H30.5626ZM37.1706 135.208V136.818H41.0906V135.208H37.1706ZM48.5526 133.346V134.76H56.3506V133.346H48.5526ZM52.9346 131.582V137.532H54.5166V131.582H52.9346ZM51.6746 124.344C51.5486 124.904 51.2686 125.66 51.0166 126.22L52.3606 126.57C52.6826 126.094 53.1306 125.38 53.5366 124.666L51.6746 124.344ZM51.7866 126.43V128.754C51.7866 130.014 51.4366 131.638 48.9306 132.632C49.2386 132.842 49.7566 133.29 49.9946 133.556C52.7526 132.422 53.2006 130.434 53.2006 128.796V126.43H51.7866ZM44.7866 128.054V129.482H48.7766V128.054H44.7866ZM46.4246 124.386V128.908H47.8806V124.386H46.4246ZM44.8706 131.092V132.506H46.6906V137.532H48.1746V131.092H44.8706ZM44.0866 124.736V129.972C44.0866 131.932 43.9746 135.026 43.1906 137.056C43.5966 137.168 44.2686 137.392 44.5906 137.56C45.3746 135.376 45.5286 132.17 45.5286 129.972V124.736H44.0866ZM50.5126 129.062H54.4606V130.028H50.5126V129.062ZM50.5126 126.934H54.4606V127.886H50.5126V126.934ZM49.0286 125.674V131.274H56.0006V125.674H49.0286ZM58.8846 126.64V128.11H61.6566V134.592H58.8846V136.076H63.1826V126.64H58.8846ZM57.9046 126.64V137.112H59.4306V126.64H57.9046ZM58.8146 130.378V131.834H62.3986V130.378H58.8146ZM59.8926 124.358C59.8226 125.128 59.6266 126.206 59.4306 126.934L60.7746 127.228C61.0546 126.57 61.4046 125.576 61.7266 124.624L59.8926 124.358ZM65.0306 126.542V128.068H69.1186V126.542H65.0306ZM68.5446 126.542V126.864C68.3906 132.702 68.2086 135.11 67.7606 135.586C67.5786 135.782 67.4246 135.838 67.1446 135.838C66.7946 135.838 65.9546 135.824 65.0446 135.754C65.3526 136.202 65.5766 136.916 65.6046 137.378C66.4166 137.42 67.2706 137.434 67.8026 137.35C68.3766 137.266 68.7686 137.112 69.1606 136.566C69.7346 135.824 69.9026 133.598 70.0846 127.298C70.0986 127.088 70.0986 126.542 70.0986 126.542H68.5446ZM65.0726 124.372C64.6246 126.234 63.8266 128.138 62.8886 129.314C63.2806 129.538 63.9666 130.014 64.2746 130.294C65.2266 128.95 66.1366 126.822 66.6826 124.75L65.0726 124.372ZM64.3866 130.574C65.0586 131.61 65.9406 132.982 66.3186 133.836L67.7466 132.968C67.3126 132.142 66.3886 130.798 65.7026 129.832L64.3866 130.574ZM71.4426 125.884V127.466H76.7206V125.884H71.4426ZM76.9306 127.354V128.964H83.2026V127.354H76.9306ZM73.2626 126.528V133.57H74.9146V126.528H73.2626ZM82.4186 127.354V127.69C82.2926 133.01 82.1386 135.082 81.7606 135.516C81.6066 135.698 81.4666 135.754 81.2006 135.754C80.8786 135.754 80.2066 135.754 79.4646 135.684C79.7586 136.146 79.9546 136.86 79.9826 137.336C80.7526 137.364 81.5226 137.378 81.9986 137.294C82.5306 137.21 82.8806 137.056 83.2446 136.552C83.7486 135.88 83.9026 133.808 84.0566 128.11C84.0706 127.9 84.0706 127.354 84.0706 127.354H82.4186ZM71.2466 133.388L71.6386 135.138C73.1926 134.718 75.2086 134.144 77.0846 133.598L76.8606 132.002C74.8446 132.534 72.6606 133.094 71.2466 133.388ZM78.9046 124.596C78.8766 130.014 79.0446 134.004 75.1806 136.174C75.6006 136.482 76.1326 137.112 76.3706 137.546C80.5566 135.04 80.5846 130.434 80.6126 124.596H78.9046ZM87.4166 124.302C87.1226 125.422 86.5486 126.906 86.0446 127.858L87.5006 128.236C88.0326 127.34 88.6626 125.968 89.1666 124.68L87.4166 124.302ZM85.3026 127.172L85.4286 128.768C87.0246 128.67 89.1806 128.544 91.2386 128.39L91.2526 126.934C89.0826 127.032 86.8146 127.13 85.3026 127.172ZM86.1286 129.426V137.504H87.6826V130.812H90.5806V129.426H86.1286ZM89.7826 129.426V135.782C89.7826 135.964 89.7266 136.006 89.5586 136.006C89.3766 136.02 88.8166 136.02 88.3266 135.992C88.5366 136.398 88.7746 137.042 88.8586 137.49C89.7126 137.49 90.3426 137.462 90.8326 137.21C91.3086 136.958 91.4486 136.538 91.4486 135.824V129.426H89.7826ZM86.8426 131.54V132.786H90.7206V131.54H86.8426ZM86.8426 133.598V134.844H90.7206V133.598H86.8426ZM92.5406 124.428V128.656C92.5406 130.21 92.9466 130.686 94.5986 130.686C94.9206 130.686 96.1806 130.686 96.5306 130.686C97.8326 130.686 98.2806 130.182 98.4626 128.362C98.0006 128.264 97.3146 128.012 96.9646 127.746C96.9086 128.978 96.8246 129.188 96.3626 129.188C96.0686 129.188 95.0606 129.188 94.8366 129.188C94.3046 129.188 94.2206 129.118 94.2206 128.628V124.428H92.5406ZM96.7406 125.254C95.8166 125.786 94.3746 126.416 93.0726 126.822C93.2546 127.144 93.4786 127.648 93.5486 127.984C94.9346 127.606 96.5586 127.074 97.8046 126.472L96.7406 125.254ZM92.5406 130.966V135.39C92.5406 136.944 92.9606 137.42 94.6126 137.42C94.9486 137.42 96.2506 137.42 96.6006 137.42C97.9446 137.42 98.3926 136.86 98.5746 134.886C98.1126 134.788 97.4406 134.522 97.0906 134.27C97.0206 135.698 96.9366 135.95 96.4466 135.95C96.1386 135.95 95.0886 135.95 94.8506 135.95C94.3046 135.95 94.2066 135.894 94.2066 135.376V130.966H92.5406ZM96.8526 131.554C95.9006 132.17 94.4026 132.856 93.0446 133.29C93.2126 133.612 93.4506 134.144 93.5346 134.466C94.9766 134.06 96.6706 133.472 97.9446 132.786L96.8526 131.554ZM89.3206 125.842C89.9926 126.892 90.6646 128.292 90.9026 129.188L92.4286 128.572C92.1626 127.648 91.4346 126.318 90.7486 125.31L89.3206 125.842ZM101.585 138.19C103.321 137.672 104.357 136.384 104.357 134.802C104.357 133.626 103.825 132.87 102.845 132.87C102.089 132.87 101.459 133.346 101.459 134.13C101.459 134.942 102.103 135.39 102.803 135.39C103.111 135.39 103.405 135.292 103.629 135.082L102.859 133.822L102.957 135.208C102.957 136.006 102.313 136.692 101.137 137.07L101.585 138.19ZM116.481 130.602V131.932H123.271V130.602H116.481ZM116.271 132.996V134.368H123.495V132.996H116.271ZM120.471 131.022V137.266H121.941V131.022H120.471ZM117.741 131.078V133.752C117.741 134.466 117.433 135.824 116.243 136.552C116.593 136.776 117.097 137.224 117.321 137.518C118.791 136.51 119.169 134.662 119.169 133.766V131.078H117.741ZM114.815 126.822V127.914H118.343V126.822H114.815ZM121.311 126.822V127.914H124.853V126.822H121.311ZM124.195 124.904V135.544C124.195 135.754 124.125 135.838 123.901 135.838C123.691 135.838 122.991 135.838 122.375 135.81C122.599 136.244 122.823 137.028 122.865 137.476C123.943 137.49 124.671 137.448 125.189 137.168C125.693 136.888 125.847 136.412 125.847 135.572V124.904H124.195ZM114.969 124.904V126.108H117.825V128.684H114.969V129.888H119.407V124.904H114.969ZM125.049 124.904H120.317V129.916H125.049V128.712H121.913V126.108H125.049V124.904ZM113.975 124.904V137.518H115.627V124.904H113.975ZM128.941 126.108V127.578H132.539V129.202H128.941V130.672H134.023V126.108H128.941ZM130.103 135.208V136.538H133.701V135.208H130.103ZM129.627 131.862V137.322H131.055V133.192H132.777V137.14H134.261V131.862H129.627ZM128.143 126.108V129.664C128.143 131.582 128.059 134.27 127.121 136.16C127.457 136.314 128.129 136.846 128.395 137.126C129.487 135.04 129.683 131.806 129.683 129.678V126.108H128.143ZM130.019 124.708C130.299 125.464 130.621 126.458 130.733 127.088L132.259 126.654C132.105 126.024 131.769 125.072 131.461 124.33L130.019 124.708ZM135.815 126.99V128.544H140.435V126.99H135.815ZM136.151 124.344C135.829 126.71 135.185 128.95 134.065 130.308C134.415 130.574 135.031 131.176 135.255 131.47C136.515 129.86 137.299 127.312 137.733 124.596L136.151 124.344ZM138.293 127.914C137.929 131.904 136.963 134.704 134.261 136.23C134.569 136.552 135.031 137.266 135.199 137.602C138.195 135.712 139.357 132.604 139.847 128.026L138.293 127.914ZM136.613 128.236L135.269 128.46C135.913 132.52 137.061 135.796 139.609 137.49C139.847 137.084 140.323 136.51 140.673 136.216C138.307 134.83 137.145 131.75 136.613 128.236ZM142.708 126.305H144.444L147.001 133.612L149.557 126.305H151.294L147.698 136.258H146.303L142.708 126.305ZM141.771 126.305H143.501L143.815 133.428V136.258H141.771V126.305ZM150.501 126.305H152.237V136.258H150.186V133.428L150.501 126.305ZM157.904 134.59V131.295C157.904 131.058 157.865 130.855 157.788 130.687C157.71 130.513 157.59 130.379 157.426 130.283C157.266 130.188 157.059 130.14 156.803 130.14C156.585 130.14 156.396 130.178 156.236 130.256C156.077 130.329 155.954 130.436 155.867 130.577C155.78 130.714 155.737 130.876 155.737 131.062H153.768C153.768 130.748 153.841 130.45 153.987 130.167C154.133 129.884 154.345 129.636 154.623 129.422C154.901 129.203 155.231 129.032 155.614 128.909C156.001 128.786 156.434 128.725 156.913 128.725C157.487 128.725 157.998 128.82 158.444 129.012C158.891 129.203 159.242 129.49 159.497 129.873C159.757 130.256 159.887 130.734 159.887 131.309V134.474C159.887 134.879 159.912 135.212 159.962 135.472C160.012 135.727 160.085 135.95 160.18 136.142V136.258H158.191C158.095 136.057 158.023 135.807 157.972 135.506C157.927 135.201 157.904 134.895 157.904 134.59ZM158.164 131.753L158.178 132.867H157.077C156.817 132.867 156.592 132.897 156.4 132.956C156.209 133.015 156.052 133.1 155.928 133.209C155.805 133.314 155.714 133.437 155.655 133.578C155.6 133.719 155.573 133.874 155.573 134.043C155.573 134.212 155.612 134.364 155.689 134.501C155.767 134.633 155.878 134.738 156.024 134.815C156.17 134.888 156.341 134.925 156.537 134.925C156.833 134.925 157.091 134.866 157.309 134.747C157.528 134.629 157.697 134.483 157.815 134.31C157.938 134.136 158.002 133.972 158.007 133.817L158.526 134.651C158.453 134.838 158.353 135.032 158.225 135.232C158.102 135.433 157.945 135.622 157.754 135.8C157.562 135.973 157.332 136.117 157.063 136.23C156.794 136.34 156.475 136.395 156.106 136.395C155.637 136.395 155.211 136.301 154.828 136.114C154.45 135.923 154.149 135.661 153.926 135.328C153.707 134.991 153.597 134.608 153.597 134.18C153.597 133.792 153.67 133.448 153.816 133.147C153.962 132.847 154.176 132.594 154.459 132.389C154.746 132.179 155.104 132.022 155.532 131.917C155.96 131.808 156.457 131.753 157.022 131.753H158.164ZM165.403 134.214C165.403 134.073 165.362 133.945 165.28 133.831C165.198 133.717 165.045 133.612 164.822 133.517C164.603 133.416 164.287 133.325 163.872 133.243C163.498 133.161 163.15 133.059 162.826 132.936C162.507 132.808 162.229 132.655 161.992 132.478C161.76 132.3 161.577 132.09 161.445 131.849C161.313 131.603 161.247 131.322 161.247 131.008C161.247 130.698 161.313 130.406 161.445 130.133C161.582 129.859 161.776 129.618 162.026 129.408C162.281 129.194 162.591 129.028 162.956 128.909C163.325 128.786 163.74 128.725 164.2 128.725C164.843 128.725 165.394 128.827 165.854 129.032C166.319 129.237 166.675 129.52 166.921 129.88C167.171 130.235 167.297 130.641 167.297 131.097H165.328C165.328 130.905 165.287 130.734 165.205 130.584C165.127 130.429 165.004 130.308 164.836 130.222C164.672 130.131 164.457 130.085 164.193 130.085C163.974 130.085 163.785 130.124 163.626 130.201C163.466 130.274 163.343 130.374 163.257 130.502C163.175 130.625 163.134 130.762 163.134 130.912C163.134 131.026 163.156 131.129 163.202 131.22C163.252 131.306 163.332 131.386 163.441 131.459C163.551 131.532 163.692 131.6 163.865 131.664C164.043 131.723 164.262 131.778 164.521 131.828C165.054 131.938 165.531 132.081 165.95 132.259C166.369 132.432 166.702 132.669 166.948 132.97C167.194 133.266 167.317 133.656 167.317 134.139C167.317 134.467 167.244 134.768 167.098 135.041C166.953 135.314 166.743 135.554 166.47 135.759C166.196 135.959 165.868 136.117 165.485 136.23C165.107 136.34 164.681 136.395 164.207 136.395C163.519 136.395 162.935 136.271 162.457 136.025C161.983 135.779 161.623 135.467 161.377 135.089C161.135 134.706 161.014 134.314 161.014 133.913H162.881C162.89 134.182 162.958 134.398 163.086 134.562C163.218 134.727 163.384 134.845 163.585 134.918C163.79 134.991 164.011 135.027 164.248 135.027C164.503 135.027 164.715 134.993 164.884 134.925C165.052 134.852 165.18 134.756 165.266 134.638C165.358 134.515 165.403 134.373 165.403 134.214ZM172.219 128.861V130.256H167.912V128.861H172.219ZM168.978 127.036H170.947V134.029C170.947 134.243 170.974 134.408 171.029 134.521C171.088 134.635 171.175 134.715 171.289 134.761C171.403 134.802 171.546 134.822 171.72 134.822C171.843 134.822 171.952 134.818 172.048 134.809C172.148 134.795 172.232 134.781 172.301 134.768L172.307 136.217C172.139 136.271 171.956 136.315 171.761 136.347C171.565 136.379 171.348 136.395 171.111 136.395C170.678 136.395 170.3 136.324 169.976 136.183C169.657 136.037 169.411 135.804 169.238 135.485C169.065 135.166 168.978 134.747 168.978 134.228V127.036ZM176.744 136.395C176.17 136.395 175.655 136.303 175.199 136.121C174.743 135.934 174.356 135.677 174.037 135.349C173.722 135.021 173.481 134.64 173.312 134.207C173.144 133.77 173.059 133.305 173.059 132.812V132.539C173.059 131.979 173.139 131.466 173.299 131.001C173.458 130.536 173.686 130.133 173.982 129.791C174.283 129.449 174.648 129.187 175.076 129.005C175.504 128.818 175.987 128.725 176.525 128.725C177.049 128.725 177.514 128.811 177.92 128.984C178.325 129.158 178.665 129.404 178.938 129.723C179.216 130.042 179.426 130.424 179.567 130.871C179.708 131.313 179.779 131.805 179.779 132.348V133.168H173.9V131.855H177.845V131.705C177.845 131.432 177.794 131.188 177.694 130.974C177.598 130.755 177.453 130.582 177.257 130.454C177.061 130.326 176.81 130.263 176.505 130.263C176.245 130.263 176.022 130.32 175.835 130.434C175.648 130.548 175.495 130.707 175.377 130.912C175.263 131.117 175.176 131.359 175.117 131.637C175.062 131.91 175.035 132.211 175.035 132.539V132.812C175.035 133.109 175.076 133.382 175.158 133.633C175.245 133.883 175.365 134.1 175.52 134.282C175.68 134.465 175.871 134.606 176.095 134.706C176.322 134.806 176.58 134.856 176.867 134.856C177.222 134.856 177.553 134.788 177.858 134.651C178.168 134.51 178.435 134.298 178.658 134.016L179.615 135.055C179.46 135.278 179.248 135.492 178.979 135.697C178.715 135.902 178.396 136.071 178.022 136.203C177.649 136.331 177.222 136.395 176.744 136.395ZM182.869 130.475V136.258H180.9V128.861H182.753L182.869 130.475ZM185.097 128.813L185.063 130.639C184.968 130.625 184.851 130.614 184.715 130.604C184.582 130.591 184.462 130.584 184.352 130.584C184.074 130.584 183.833 130.62 183.628 130.693C183.427 130.762 183.259 130.864 183.122 131.001C182.99 131.138 182.889 131.304 182.821 131.5C182.757 131.696 182.721 131.919 182.712 132.17L182.315 132.047C182.315 131.568 182.363 131.129 182.459 130.728C182.554 130.322 182.693 129.969 182.876 129.668C183.063 129.367 183.29 129.135 183.559 128.971C183.828 128.807 184.136 128.725 184.482 128.725C184.592 128.725 184.703 128.734 184.817 128.752C184.931 128.766 185.025 128.786 185.097 128.813ZM190.197 128.007L187.49 136.258H185.309L189.008 126.305H190.395L190.197 128.007ZM192.446 136.258L189.732 128.007L189.513 126.305H190.915L194.634 136.258H192.446ZM192.323 132.553V134.159H187.066V132.553H192.323ZM197.183 130.283V139.102H195.215V128.861H197.04L197.183 130.283ZM201.866 132.478V132.621C201.866 133.159 201.802 133.658 201.675 134.118C201.552 134.578 201.369 134.979 201.128 135.321C200.886 135.659 200.585 135.923 200.225 136.114C199.87 136.301 199.46 136.395 198.995 136.395C198.544 136.395 198.152 136.303 197.819 136.121C197.486 135.939 197.206 135.684 196.978 135.355C196.755 135.023 196.575 134.638 196.438 134.2C196.302 133.763 196.197 133.293 196.124 132.792V132.416C196.197 131.878 196.302 131.386 196.438 130.939C196.575 130.488 196.755 130.099 196.978 129.771C197.206 129.438 197.484 129.18 197.812 128.998C198.145 128.816 198.535 128.725 198.981 128.725C199.451 128.725 199.863 128.813 200.219 128.991C200.579 129.169 200.879 129.424 201.121 129.757C201.367 130.09 201.552 130.486 201.675 130.946C201.802 131.407 201.866 131.917 201.866 132.478ZM199.89 132.621V132.478C199.89 132.163 199.863 131.874 199.808 131.609C199.758 131.34 199.676 131.106 199.562 130.905C199.453 130.705 199.307 130.55 199.125 130.44C198.947 130.326 198.731 130.27 198.475 130.27C198.206 130.27 197.976 130.313 197.785 130.399C197.598 130.486 197.445 130.611 197.327 130.775C197.208 130.939 197.12 131.135 197.06 131.363C197.001 131.591 196.965 131.849 196.951 132.136V133.086C196.974 133.423 197.038 133.726 197.142 133.995C197.247 134.259 197.409 134.469 197.628 134.624C197.846 134.779 198.134 134.856 198.489 134.856C198.749 134.856 198.968 134.799 199.145 134.686C199.323 134.567 199.467 134.405 199.576 134.2C199.69 133.995 199.77 133.758 199.815 133.489C199.865 133.22 199.89 132.931 199.89 132.621ZM205.058 130.283V139.102H203.09V128.861H204.915L205.058 130.283ZM209.741 132.478V132.621C209.741 133.159 209.677 133.658 209.55 134.118C209.427 134.578 209.244 134.979 209.003 135.321C208.761 135.659 208.46 135.923 208.1 136.114C207.745 136.301 207.335 136.395 206.87 136.395C206.419 136.395 206.027 136.303 205.694 136.121C205.361 135.939 205.081 135.684 204.853 135.355C204.63 135.023 204.45 134.638 204.313 134.2C204.177 133.763 204.072 133.293 203.999 132.792V132.416C204.072 131.878 204.177 131.386 204.313 130.939C204.45 130.488 204.63 130.099 204.853 129.771C205.081 129.438 205.359 129.18 205.687 128.998C206.02 128.816 206.41 128.725 206.856 128.725C207.326 128.725 207.738 128.813 208.094 128.991C208.454 129.169 208.754 129.424 208.996 129.757C209.242 130.09 209.427 130.486 209.55 130.946C209.677 131.407 209.741 131.917 209.741 132.478ZM207.765 132.621V132.478C207.765 132.163 207.738 131.874 207.683 131.609C207.633 131.34 207.551 131.106 207.437 130.905C207.328 130.705 207.182 130.55 207 130.44C206.822 130.326 206.606 130.27 206.35 130.27C206.081 130.27 205.851 130.313 205.66 130.399C205.473 130.486 205.32 130.611 205.202 130.775C205.083 130.939 204.995 131.135 204.935 131.363C204.876 131.591 204.84 131.849 204.826 132.136V133.086C204.849 133.423 204.913 133.726 205.017 133.995C205.122 134.259 205.284 134.469 205.503 134.624C205.721 134.779 206.009 134.856 206.364 134.856C206.624 134.856 206.843 134.799 207.02 134.686C207.198 134.567 207.342 134.405 207.451 134.2C207.565 133.995 207.645 133.758 207.69 133.489C207.74 133.22 207.765 132.931 207.765 132.621ZM213.629 133.71C212.915 134.62 211.683 135.586 210.535 136.174C210.983 136.44 211.711 137 212.061 137.336C213.153 136.622 214.511 135.46 215.379 134.368L213.629 133.71ZM218.851 134.592C219.999 135.376 221.441 136.538 222.085 137.294L223.611 136.216C222.869 135.446 221.371 134.354 220.265 133.64L218.851 134.592ZM211.865 128.824C213.069 129.552 214.553 130.672 215.239 131.456L216.499 130.238C215.743 129.454 214.189 128.404 213.027 127.746L211.865 128.824ZM219.145 130.56C220.293 131.582 221.707 133.038 222.323 133.99L223.835 132.996C223.135 132.03 221.665 130.644 220.517 129.692L219.145 130.56ZM216.261 132.464V137.518H218.053V132.464H216.261ZM210.829 131.694L210.997 133.374C213.853 133.304 218.123 133.178 222.099 132.996L222.183 131.484C218.151 131.568 213.671 131.666 210.829 131.694ZM219.187 126.822C217.703 128.544 215.281 130.658 213.363 131.932L214.693 132.8C216.583 131.54 219.005 129.552 220.825 127.69L219.187 126.822ZM215.645 125.856C215.029 126.794 213.965 127.984 213.139 128.712L214.511 129.454C215.337 128.768 216.415 127.676 217.297 126.654L215.645 125.856ZM221.497 124.498C218.991 125.016 214.875 125.296 211.263 125.366C211.417 125.758 211.613 126.444 211.655 126.878C215.295 126.836 219.579 126.556 222.687 125.926L221.497 124.498ZM114.067 150.372V152.682H115.775V150.372H114.067ZM113.241 152.976C113.031 153.886 112.583 155.132 112.205 155.93L113.591 156.378C114.011 155.65 114.529 154.502 114.991 153.452L113.241 152.976ZM115.789 154.334C116.587 155.356 117.455 156.742 117.805 157.624L119.205 156.854C118.813 155.958 117.875 154.628 117.077 153.662L115.789 154.334ZM111.197 152.01V153.508H118.911V152.01H111.197ZM111.281 155.566L111.421 157.078C113.101 156.952 115.425 156.77 117.609 156.574V155.132C115.327 155.314 112.891 155.482 111.281 155.566ZM115.341 157.47V161.502C115.341 162.944 115.607 163.434 116.839 163.434C117.077 163.434 117.539 163.434 117.777 163.434C118.785 163.434 119.163 162.874 119.303 160.844C118.883 160.732 118.211 160.48 117.903 160.214C117.861 161.726 117.819 161.95 117.609 161.95C117.511 161.95 117.217 161.95 117.133 161.95C116.937 161.95 116.909 161.908 116.909 161.502V157.47H115.341ZM108.061 150.386C107.739 151.366 107.137 152.71 106.633 153.536L107.753 154.026C108.299 153.242 108.943 151.996 109.517 150.932L108.061 150.386ZM109.671 152.038C108.943 153.55 107.655 155.608 106.619 156.882L107.585 157.428C108.649 156.21 110.021 154.264 111.029 152.654L109.671 152.038ZM105.905 153.704C106.619 154.376 107.473 155.356 107.809 156.028L108.677 154.726C108.313 154.082 107.445 153.2 106.703 152.556L105.905 153.704ZM109.251 155.384C109.783 156.35 110.259 157.624 110.413 158.436L111.603 157.904C111.435 157.092 110.903 155.86 110.357 154.922L109.251 155.384ZM105.891 156.546L106.031 158.016C107.389 157.918 109.181 157.806 110.903 157.68L110.917 156.35C109.069 156.434 107.179 156.504 105.891 156.546ZM109.559 158.87C109.867 159.696 110.231 160.774 110.371 161.474L111.603 161.04C111.449 160.34 111.085 159.29 110.735 158.492L109.559 158.87ZM106.493 158.604C106.381 159.794 106.157 161.04 105.751 161.866C106.101 162.006 106.731 162.3 107.025 162.482C107.431 161.586 107.739 160.186 107.879 158.842L106.493 158.604ZM108.061 157.288V163.532H109.531V157.288H108.061ZM112.751 157.47C112.667 159.906 112.485 161.418 110.357 162.3C110.707 162.594 111.127 163.168 111.309 163.56C113.857 162.44 114.235 160.452 114.347 157.47H112.751Z" fill="#666666"/>
<path d="M72.1135 81.1885C72.1135 80.96 72.0784 80.7549 72.0081 80.5732C71.9436 80.3857 71.8206 80.2158 71.6389 80.0635C71.4573 79.9053 71.2024 79.75 70.8743 79.5977C70.5461 79.4453 70.1213 79.2871 69.5999 79.123C69.0198 78.9355 68.469 78.7246 67.9475 78.4902C67.4319 78.2559 66.9749 77.9834 66.5764 77.6729C66.1838 77.3564 65.8733 76.9902 65.6448 76.5742C65.4221 76.1582 65.3108 75.6748 65.3108 75.124C65.3108 74.5908 65.428 74.1074 65.6624 73.6738C65.8967 73.2344 66.2249 72.8594 66.6467 72.5488C67.0686 72.2324 67.5667 71.9893 68.1409 71.8193C68.7209 71.6494 69.3567 71.5645 70.0481 71.5645C70.9915 71.5645 71.8147 71.7344 72.5178 72.0742C73.2209 72.4141 73.7659 72.8799 74.1526 73.4717C74.5452 74.0635 74.7415 74.7402 74.7415 75.502H72.1223C72.1223 75.127 72.0432 74.7988 71.885 74.5176C71.7327 74.2305 71.4983 74.0049 71.1819 73.8408C70.8713 73.6768 70.4788 73.5947 70.0042 73.5947C69.5471 73.5947 69.1663 73.665 68.8616 73.8057C68.5569 73.9404 68.3284 74.125 68.176 74.3594C68.0237 74.5879 67.9475 74.8457 67.9475 75.1328C67.9475 75.3496 68.0002 75.5459 68.1057 75.7217C68.217 75.8975 68.3811 76.0615 68.5979 76.2139C68.8147 76.3662 69.0813 76.5098 69.3977 76.6445C69.7141 76.7793 70.0803 76.9111 70.4963 77.04C71.1936 77.251 71.8059 77.4883 72.3333 77.752C72.8665 78.0156 73.3118 78.3115 73.6692 78.6396C74.0266 78.9678 74.2961 79.3398 74.4778 79.7559C74.6594 80.1719 74.7502 80.6436 74.7502 81.1709C74.7502 81.7275 74.6418 82.2256 74.425 82.665C74.2083 83.1045 73.8948 83.4766 73.4846 83.7812C73.0745 84.0859 72.5852 84.3174 72.0168 84.4756C71.4485 84.6338 70.8127 84.7129 70.1096 84.7129C69.4768 84.7129 68.8528 84.6309 68.2375 84.4668C67.6223 84.2969 67.0627 84.042 66.5588 83.7021C66.0608 83.3623 65.6624 82.9287 65.3635 82.4014C65.0647 81.874 64.9153 81.25 64.9153 80.5293H67.5608C67.5608 80.9277 67.6223 81.2646 67.7454 81.54C67.8684 81.8154 68.0413 82.0381 68.2639 82.208C68.4924 82.3779 68.762 82.501 69.0725 82.5771C69.3889 82.6533 69.7346 82.6914 70.1096 82.6914C70.5667 82.6914 70.9417 82.627 71.2346 82.498C71.5334 82.3691 71.7532 82.1904 71.8938 81.9619C72.0403 81.7334 72.1135 81.4756 72.1135 81.1885ZM82.2649 71.7402V84.5371H79.637V71.7402H82.2649ZM86.2024 71.7402V73.8057H75.761V71.7402H86.2024ZM96.2922 82.4805V84.5371H89.4807V82.4805H96.2922ZM90.342 71.7402V84.5371H87.7053V71.7402H90.342ZM95.4045 76.9521V78.9561H89.4807V76.9521H95.4045ZM96.2834 71.7402V73.8057H89.4807V71.7402H96.2834ZM102.814 79.9756H99.553V77.9189H102.814C103.318 77.9189 103.728 77.8369 104.044 77.6729C104.361 77.5029 104.592 77.2686 104.739 76.9697C104.885 76.6709 104.958 76.334 104.958 75.959C104.958 75.5781 104.885 75.2236 104.739 74.8955C104.592 74.5674 104.361 74.3037 104.044 74.1045C103.728 73.9053 103.318 73.8057 102.814 73.8057H100.467V84.5371H97.8303V71.7402H102.814C103.816 71.7402 104.674 71.9219 105.389 72.2852C106.11 72.6426 106.66 73.1377 107.041 73.7705C107.422 74.4033 107.613 75.127 107.613 75.9414C107.613 76.7676 107.422 77.4824 107.041 78.0859C106.66 78.6895 106.11 79.1553 105.389 79.4834C104.674 79.8115 103.816 79.9756 102.814 79.9756ZM111.761 77.04H113.115C113.548 77.04 113.906 76.9668 114.187 76.8203C114.468 76.668 114.676 76.457 114.811 76.1875C114.951 75.9121 115.022 75.5928 115.022 75.2295C115.022 74.9014 114.957 74.6113 114.828 74.3594C114.705 74.1016 114.515 73.9023 114.257 73.7617C113.999 73.6152 113.674 73.542 113.281 73.542C112.971 73.542 112.684 73.6035 112.42 73.7266C112.156 73.8496 111.946 74.0225 111.787 74.2451C111.629 74.4678 111.55 74.7373 111.55 75.0537H109.01C109.01 74.3506 109.198 73.7383 109.573 73.2168C109.953 72.6953 110.463 72.2881 111.102 71.9951C111.74 71.7021 112.444 71.5557 113.211 71.5557C114.078 71.5557 114.837 71.6963 115.488 71.9775C116.138 72.2529 116.645 72.6602 117.008 73.1992C117.371 73.7383 117.553 74.4062 117.553 75.2031C117.553 75.6074 117.459 76 117.272 76.3809C117.084 76.7559 116.815 77.0957 116.463 77.4004C116.117 77.6992 115.696 77.9395 115.198 78.1211C114.699 78.2969 114.14 78.3848 113.519 78.3848H111.761V77.04ZM111.761 78.9648V77.6553H113.519C114.216 77.6553 114.828 77.7344 115.356 77.8926C115.883 78.0508 116.325 78.2793 116.683 78.5781C117.04 78.8711 117.31 79.2197 117.491 79.624C117.673 80.0225 117.764 80.4648 117.764 80.9512C117.764 81.5488 117.65 82.082 117.421 82.5508C117.193 83.0137 116.87 83.4062 116.454 83.7285C116.044 84.0508 115.564 84.2969 115.013 84.4668C114.462 84.6309 113.862 84.7129 113.211 84.7129C112.672 84.7129 112.142 84.6396 111.62 84.4932C111.105 84.3408 110.636 84.1152 110.214 83.8164C109.798 83.5117 109.464 83.1309 109.212 82.6738C108.966 82.2109 108.843 81.6631 108.843 81.0303H111.383C111.383 81.3584 111.465 81.6514 111.629 81.9092C111.793 82.167 112.019 82.3691 112.306 82.5156C112.599 82.6621 112.924 82.7354 113.281 82.7354C113.686 82.7354 114.031 82.6621 114.319 82.5156C114.612 82.3633 114.834 82.1523 114.987 81.8828C115.145 81.6074 115.224 81.2881 115.224 80.9248C115.224 80.4561 115.139 80.0811 114.969 79.7998C114.799 79.5127 114.556 79.3018 114.24 79.167C113.923 79.0322 113.548 78.9648 113.115 78.9648H111.761ZM119.733 83.3154C119.733 82.9404 119.862 82.627 120.119 82.375C120.383 82.123 120.732 81.9971 121.165 81.9971C121.599 81.9971 121.945 82.123 122.202 82.375C122.466 82.627 122.598 82.9404 122.598 83.3154C122.598 83.6904 122.466 84.0039 122.202 84.2559C121.945 84.5078 121.599 84.6338 121.165 84.6338C120.732 84.6338 120.383 84.5078 120.119 84.2559C119.862 84.0039 119.733 83.6904 119.733 83.3154ZM138.822 72.7471C138.642 74.0611 138.228 75.8791 137.832 77.0311L139.488 77.4451C139.938 76.3651 140.424 74.6731 140.874 73.1611L138.822 72.7471ZM131.964 73.2691C132.324 74.6011 132.648 76.3471 132.684 77.4811L134.52 77.0671C134.43 75.9331 134.088 74.2231 133.692 72.8911L131.964 73.2691ZM131.784 70.1551V72.1531H140.964V70.1551H131.784ZM131.172 77.9491V80.0011H141.288V77.9491H131.172ZM135.15 70.8571V86.1391H137.274V70.8571H135.15ZM125.25 74.7811V76.4011H130.812V74.7811H125.25ZM125.304 69.8131V71.4511H130.776V69.8131H125.304ZM125.25 77.2291V78.8671H130.812V77.2291H125.25ZM124.368 72.2431V73.9531H131.46V72.2431H124.368ZM126.24 79.7311V81.4411H128.94V83.4931H126.24V85.2031H130.794V79.7311H126.24ZM125.196 79.7311V85.9231H127.014V79.7311H125.196ZM146.184 69.3271C145.266 71.9011 143.718 74.4571 142.08 76.0951C142.44 76.6171 143.034 77.8051 143.232 78.3271C145.194 76.2751 147.066 73.0351 148.236 69.9571L146.184 69.3271ZM144.366 74.2951V86.1391H146.436V72.2611L146.418 72.2431L144.366 74.2951ZM148.578 78.1471V86.1571H150.72V80.1991H156.066V86.0851H158.298V78.1471H148.578ZM152.25 69.2371V79.2451H154.5V69.2371H152.25ZM147.75 72.9271V75.0151H159.288V72.9271H147.75ZM149.622 83.3491V85.4011H157.308V83.3491H149.622Z" fill="#1A374D"/>
<path d="M110.114 38.3931H103.861V46.5059H110.114V38.3931Z" fill="#1A374D"/>
<path d="M110.114 46.8116H103.861C103.78 46.8116 103.703 46.7798 103.646 46.7232C103.589 46.6665 103.557 46.5897 103.557 46.5096V38.3933C103.557 38.3132 103.589 38.2364 103.646 38.1798C103.703 38.1231 103.78 38.0913 103.861 38.0913H110.114C110.195 38.0913 110.272 38.1231 110.329 38.1798C110.386 38.2364 110.418 38.3132 110.418 38.3933V46.5096C110.418 46.5897 110.386 46.6665 110.329 46.7232C110.272 46.7798 110.195 46.8116 110.114 46.8116ZM104.165 46.2076H109.81V38.6884H104.165V46.2076Z" fill="black"/>
<path d="M116.231 46.8116H97.7061C97.6253 46.8116 97.5479 46.7797 97.4908 46.7231C97.4337 46.6665 97.4016 46.5896 97.4016 46.5095C97.4016 46.4294 97.4337 46.3526 97.4908 46.296C97.5479 46.2393 97.6253 46.2075 97.7061 46.2075H116.231C116.311 46.2075 116.389 46.2393 116.446 46.296C116.503 46.3526 116.535 46.4294 116.535 46.5095C116.535 46.5896 116.503 46.6665 116.446 46.7231C116.389 46.7797 116.311 46.8116 116.231 46.8116Z" fill="black"/>
<path d="M128.779 8.81982H85.1582V38.782H128.779V8.81982Z" fill="white"/>
<path d="M128.779 39.0841H85.1582C85.0774 39.0841 85 39.0523 84.9429 38.9956C84.8858 38.939 84.8538 38.8622 84.8538 38.7821V8.83375C84.8538 8.75365 84.8858 8.67683 84.9429 8.62019C85 8.56355 85.0774 8.53174 85.1582 8.53174H128.779C128.859 8.53174 128.937 8.56355 128.994 8.62019C129.051 8.67683 129.083 8.75365 129.083 8.83375V38.796C129.079 38.8736 129.046 38.9469 128.989 39.0006C128.932 39.0543 128.857 39.0842 128.779 39.0841ZM85.4626 38.4801H128.474V9.12189H85.4626V38.4801Z" fill="black"/>
<path d="M128.779 36.1055H85.1582V40.0595H128.779V36.1055Z" fill="#1A374D"/>
<path d="M128.779 40.3617H85.1582C85.0774 40.3617 85 40.3299 84.9429 40.2733C84.8858 40.2166 84.8538 40.1398 84.8538 40.0597V36.1057C84.8538 36.0256 84.8858 35.9488 84.9429 35.8922C85 35.8355 85.0774 35.8037 85.1582 35.8037H128.779C128.859 35.8037 128.937 35.8355 128.994 35.8922C129.051 35.9488 129.083 36.0256 129.083 36.1057V40.0771C129.079 40.1541 129.044 40.2266 128.988 40.2795C128.931 40.3324 128.856 40.3619 128.779 40.3617ZM85.4626 39.7577H128.474V36.4077H85.4626V39.7577Z" fill="black"/>
<path d="M106.846 30.6757C106.846 30.465 106.909 30.259 107.027 30.0838C107.145 29.9086 107.313 29.7721 107.509 29.6914C107.705 29.6108 107.921 29.5897 108.129 29.6308C108.338 29.6719 108.529 29.7734 108.679 29.9224C108.829 30.0714 108.932 30.2612 108.973 30.4679C109.014 30.6745 108.993 30.8887 108.912 31.0834C108.831 31.278 108.693 31.4444 108.516 31.5615C108.34 31.6786 108.132 31.741 107.92 31.741C107.779 31.7415 107.639 31.7142 107.508 31.6609C107.378 31.6075 107.259 31.529 107.159 31.43C107.06 31.331 106.981 31.2134 106.927 31.0839C106.873 30.9545 106.845 30.8157 106.846 30.6757Z" fill="white"/>
<path d="M107.92 32.0441C107.648 32.0441 107.381 31.9639 107.154 31.8136C106.928 31.6633 106.751 31.4497 106.646 31.1998C106.542 30.9498 106.515 30.6748 106.568 30.4095C106.621 30.1442 106.753 29.9005 106.945 29.7092C107.138 29.5179 107.384 29.3877 107.651 29.3349C107.919 29.2821 108.196 29.3092 108.448 29.4127C108.7 29.5162 108.915 29.6915 109.066 29.9165C109.218 30.1414 109.299 30.4058 109.299 30.6764C109.298 31.0388 109.152 31.3862 108.894 31.6425C108.636 31.8988 108.286 32.0432 107.92 32.0441ZM107.92 29.9126C107.768 29.9126 107.619 29.9574 107.492 30.0413C107.366 30.1253 107.267 30.2445 107.209 30.3841C107.151 30.5236 107.135 30.6772 107.165 30.8254C107.195 30.9735 107.268 31.1096 107.376 31.2164C107.483 31.3232 107.621 31.3959 107.77 31.4254C107.919 31.4549 108.074 31.4397 108.215 31.3819C108.355 31.3241 108.476 31.2262 108.56 31.1007C108.645 30.9751 108.69 30.8274 108.69 30.6764C108.689 30.4741 108.608 30.2804 108.463 30.1373C108.319 29.9943 108.124 29.9135 107.92 29.9126Z" fill="black"/>
<path d="M112.049 30.6758C112.049 30.4641 112.111 30.257 112.229 30.0807C112.348 29.9044 112.516 29.7669 112.713 29.6855C112.91 29.6042 113.127 29.5828 113.336 29.6239C113.545 29.665 113.738 29.7669 113.888 29.9166C114.039 30.0662 114.142 30.257 114.183 30.4647C114.225 30.6723 114.203 30.8875 114.121 31.0829C114.039 31.2784 113.901 31.4453 113.723 31.5625C113.545 31.6796 113.337 31.7418 113.123 31.7411C112.838 31.7411 112.565 31.6289 112.364 31.4291C112.162 31.2293 112.049 30.9583 112.049 30.6758Z" fill="white"/>
<path d="M113.123 32.0441C112.851 32.0441 112.584 31.9639 112.357 31.8136C112.131 31.6633 111.954 31.4497 111.85 31.1998C111.745 30.9498 111.718 30.6748 111.771 30.4095C111.824 30.1442 111.956 29.9005 112.148 29.7092C112.341 29.5179 112.587 29.3877 112.854 29.3349C113.122 29.2821 113.399 29.3092 113.651 29.4127C113.903 29.5162 114.118 29.6915 114.27 29.9165C114.421 30.1414 114.502 30.4058 114.502 30.6764C114.501 31.0388 114.355 31.3862 114.097 31.6425C113.839 31.8988 113.489 32.0432 113.123 32.0441ZM113.123 29.9126C112.971 29.9126 112.822 29.9574 112.696 30.0413C112.569 30.1253 112.47 30.2445 112.412 30.3841C112.354 30.5236 112.339 30.6772 112.368 30.8254C112.398 30.9735 112.471 31.1096 112.579 31.2164C112.687 31.3232 112.824 31.3959 112.973 31.4254C113.122 31.4549 113.277 31.4397 113.418 31.3819C113.559 31.3241 113.679 31.2262 113.763 31.1007C113.848 30.9751 113.893 30.8274 113.893 30.6764C113.892 30.4741 113.811 30.2804 113.667 30.1373C113.522 29.9943 113.327 29.9135 113.123 29.9126Z" fill="black"/>
<path d="M117.256 30.6757C117.256 30.465 117.319 30.259 117.437 30.0838C117.555 29.9086 117.723 29.7721 117.919 29.6914C118.115 29.6108 118.331 29.5897 118.539 29.6308C118.748 29.6719 118.939 29.7734 119.089 29.9224C119.239 30.0714 119.341 30.2612 119.383 30.4679C119.424 30.6745 119.403 30.8887 119.322 31.0834C119.241 31.278 119.103 31.4444 118.926 31.5615C118.75 31.6786 118.542 31.741 118.33 31.741C118.189 31.7415 118.049 31.7142 117.918 31.6609C117.788 31.6075 117.669 31.529 117.569 31.43C117.47 31.331 117.39 31.2134 117.337 31.0839C117.283 30.9545 117.255 30.8157 117.256 30.6757Z" fill="white"/>
<path d="M118.33 32.0441C118.057 32.0441 117.791 31.9639 117.564 31.8136C117.337 31.6633 117.16 31.4497 117.056 31.1998C116.952 30.9498 116.924 30.6748 116.978 30.4095C117.031 30.1442 117.162 29.9005 117.355 29.7092C117.548 29.5179 117.793 29.3877 118.061 29.3349C118.328 29.2821 118.606 29.3092 118.857 29.4127C119.109 29.5162 119.325 29.6915 119.476 29.9165C119.628 30.1414 119.709 30.4058 119.709 30.6764C119.709 30.856 119.673 31.0338 119.604 31.1998C119.534 31.3657 119.433 31.5165 119.305 31.6435C119.177 31.7705 119.025 31.8713 118.857 31.94C118.69 32.0087 118.511 32.0441 118.33 32.0441ZM118.33 29.9126C118.178 29.9126 118.029 29.9574 117.902 30.0413C117.776 30.1253 117.677 30.2445 117.619 30.3841C117.56 30.5236 117.545 30.6772 117.575 30.8254C117.605 30.9735 117.678 31.1096 117.786 31.2164C117.893 31.3232 118.03 31.3959 118.18 31.4254C118.329 31.4549 118.484 31.4397 118.624 31.3819C118.765 31.3241 118.885 31.2262 118.97 31.1007C119.055 30.9751 119.1 30.8274 119.1 30.6764C119.1 30.4738 119.019 30.2796 118.874 30.1363C118.73 29.9931 118.534 29.9126 118.33 29.9126Z" fill="black"/>
<path d="M126.213 23.5459L132.578 29.7702C133.675 30.8815 134.834 31.9304 136.049 32.9119C136.707 33.4257 137.449 33.9117 138.247 33.9117C138.672 33.9086 139.08 33.7438 139.387 33.4513C139.693 33.1587 139.875 32.7607 139.895 32.3391C139.895 31.6448 139.402 31.072 138.943 30.6034C135.558 27.0625 132.027 23.7067 128.348 20.5361C127.68 21.5151 127.015 22.494 126.213 23.5459Z" fill="white"/>
<path d="M138.261 34.2136C137.365 34.2136 136.585 33.7032 135.875 33.1513C134.649 32.162 133.481 31.105 132.375 29.9853L126 23.761C125.948 23.7089 125.916 23.6399 125.911 23.5665C125.906 23.4932 125.927 23.4205 125.972 23.3618C126.77 22.3203 127.452 21.324 128.11 20.3659C128.135 20.3309 128.166 20.3014 128.203 20.2792C128.24 20.2571 128.281 20.2429 128.323 20.2374C128.366 20.2318 128.409 20.2354 128.45 20.248C128.492 20.2606 128.529 20.2819 128.561 20.3103C132.228 23.4624 135.801 26.8541 139.178 30.3776C139.675 30.8983 140.207 31.5197 140.228 32.3286C140.227 32.566 140.179 32.801 140.086 33.0197C139.992 33.2385 139.856 33.4366 139.685 33.6026C139.309 33.9834 138.798 34.2028 138.261 34.2136ZM126.63 23.5145L132.816 29.5549C133.905 30.6582 135.055 31.7012 136.259 32.6792C136.886 33.1617 137.561 33.613 138.271 33.613C138.641 33.6026 138.992 33.4509 139.251 33.1895C139.476 32.9653 139.602 32.662 139.601 32.3459C139.601 31.7592 139.171 31.2628 138.733 30.8046C135.448 27.3678 131.98 24.0699 128.418 20.9907C127.862 21.7996 127.281 22.6362 126.63 23.5145Z" fill="black"/>
<path d="M117.921 0.603028C115.298 0.603028 112.735 1.37446 110.555 2.81977C108.374 4.26508 106.675 6.31936 105.672 8.72283C104.668 11.1263 104.406 13.771 104.917 16.3225C105.429 18.874 106.691 21.2177 108.546 23.0573C110.4 24.8968 112.762 26.1495 115.334 26.657C117.906 27.1646 120.572 26.9041 122.994 25.9085C125.417 24.913 127.488 23.2271 128.944 21.064C130.401 18.901 131.179 16.3579 131.179 13.7564C131.179 12.0289 130.837 10.3183 130.171 8.72229C129.505 7.12624 128.528 5.67604 127.297 4.45455C126.065 3.23305 124.604 2.2642 122.995 1.60334C121.386 0.942483 119.662 0.602572 117.921 0.603028ZM117.921 23.7438C115.929 23.7445 113.981 23.159 112.324 22.0615C110.668 20.9639 109.376 19.4036 108.614 17.5779C107.851 15.7522 107.651 13.743 108.04 11.8047C108.428 9.8663 109.388 8.08578 110.796 6.68832C112.205 5.29087 114 4.33926 115.953 3.95387C117.907 3.56848 119.932 3.76662 121.773 4.52324C123.613 5.27985 125.186 6.56094 126.292 8.20447C127.398 9.84799 127.988 11.7801 127.988 13.7564C127.99 15.0694 127.731 16.37 127.226 17.5838C126.721 18.7975 125.98 19.9005 125.045 20.8298C124.11 21.759 123 22.4963 121.777 22.9993C120.555 23.5023 119.244 23.7612 117.921 23.7612V23.7438ZM117.921 23.7438C115.929 23.7445 113.981 23.159 112.324 22.0615C110.668 20.9639 109.376 19.4036 108.614 17.5779C107.851 15.7522 107.651 13.743 108.04 11.8047C108.428 9.8663 109.388 8.08578 110.796 6.68832C112.205 5.29087 114 4.33926 115.953 3.95387C117.907 3.56848 119.932 3.76662 121.773 4.52324C123.613 5.27985 125.186 6.56094 126.292 8.20447C127.398 9.84799 127.988 11.7801 127.988 13.7564C127.99 15.0694 127.731 16.37 127.226 17.5838C126.721 18.7975 125.98 19.9005 125.045 20.8298C124.11 21.759 123 22.4963 121.777 22.9993C120.555 23.5023 119.244 23.7612 117.921 23.7612V23.7438Z" fill="white"/>
<path d="M117.921 27.2082C115.238 27.2088 112.615 26.4202 110.384 24.942C108.153 23.4637 106.415 21.3623 105.388 18.9035C104.361 16.4447 104.092 13.739 104.615 11.1286C105.138 8.51818 106.43 6.12034 108.327 4.23836C110.224 2.35638 112.641 1.07481 115.272 0.555742C117.903 0.0366729 120.631 0.303428 123.109 1.32226C125.587 2.3411 127.706 4.06625 129.196 6.27951C130.686 8.49277 131.481 11.0947 131.48 13.7562C131.475 17.3225 130.045 20.7414 127.503 23.2631C124.962 25.7848 121.515 27.2036 117.921 27.2082ZM117.921 0.904874C115.36 0.904874 112.857 1.65819 110.728 3.06955C108.599 4.48091 106.939 6.48694 105.959 8.83395C104.979 11.181 104.723 13.7635 105.223 16.2551C105.722 18.7467 106.955 21.0353 108.766 22.8317C110.577 24.628 112.883 25.8513 115.395 26.3469C117.906 26.8425 120.51 26.5881 122.875 25.616C125.241 24.6438 127.263 22.9975 128.686 20.8853C130.108 18.773 130.868 16.2897 130.868 13.7493C130.862 10.3444 129.496 7.0806 127.069 4.673C124.643 2.2654 121.353 0.910382 117.921 0.904874ZM117.921 24.0457C115.868 24.0463 113.862 23.4432 112.155 22.3124C110.449 21.1817 109.118 19.5742 108.333 17.6933C107.547 15.8124 107.341 13.7425 107.741 11.7456C108.142 9.74862 109.13 7.91428 110.581 6.47459C112.032 5.03489 113.881 4.05452 115.894 3.65748C117.907 3.26044 119.993 3.46456 121.889 4.24403C123.785 5.02351 125.405 6.34331 126.545 8.0365C127.685 9.72969 128.293 11.7202 128.292 13.7562C128.289 16.4843 127.196 19.0999 125.251 21.0289C123.307 22.958 120.671 24.0429 117.921 24.0457ZM108.158 13.7562C108.159 15.6717 108.732 17.5439 109.805 19.1362C110.878 20.7285 112.403 21.9694 114.187 22.7019C115.971 23.4344 117.934 23.6257 119.827 23.2516C121.721 22.8775 123.46 21.9548 124.825 20.6001C126.19 19.2455 127.12 17.5197 127.496 15.641C127.872 13.7623 127.679 11.8151 126.94 10.0455C126.201 8.27595 124.95 6.76351 123.344 5.69942C121.739 4.63533 119.851 4.06738 117.921 4.06738C115.332 4.07014 112.85 5.09192 111.019 6.90843C109.189 8.72495 108.16 11.1878 108.158 13.7562Z" fill="black"/>
<path d="M127.925 23.9208H127.897C127.884 23.9172 127.872 23.9111 127.861 23.9029C127.851 23.8946 127.842 23.8844 127.836 23.8728C127.829 23.8612 127.825 23.8484 127.823 23.8352C127.822 23.822 127.823 23.8086 127.827 23.7958L128.061 22.987C128.065 22.9742 128.071 22.9622 128.079 22.9518C128.088 22.9414 128.098 22.9327 128.11 22.9262C128.121 22.9198 128.134 22.9157 128.148 22.9142C128.161 22.9127 128.174 22.9139 128.187 22.9176C128.213 22.9256 128.234 22.9431 128.246 22.9665C128.259 22.9899 128.261 23.0172 128.254 23.0425L128.023 23.8514C128.016 23.8715 128.002 23.889 127.985 23.9014C127.967 23.9138 127.946 23.9206 127.925 23.9208Z" fill="black"/>
<path d="M129.041 25.3405C129.028 25.3388 129.015 25.3345 129.003 25.3278C128.992 25.3211 128.981 25.3121 128.973 25.3015C128.965 25.2908 128.959 25.2786 128.956 25.2657C128.952 25.2527 128.952 25.2392 128.954 25.226C129.076 24.2817 129.227 23.3236 129.402 22.3863C129.403 22.3726 129.407 22.3594 129.414 22.3474C129.421 22.3354 129.43 22.3249 129.441 22.3166C129.453 22.3083 129.465 22.3024 129.479 22.2992C129.492 22.296 129.506 22.2955 129.52 22.2979C129.534 22.3003 129.547 22.3054 129.558 22.313C129.57 22.3206 129.58 22.3305 129.587 22.342C129.595 22.3536 129.6 22.3666 129.603 22.3801C129.605 22.3937 129.604 22.4077 129.601 22.421C129.43 23.3583 129.279 24.3095 129.153 25.2538C129.15 25.2799 129.136 25.3036 129.115 25.3198C129.094 25.3361 129.068 25.3435 129.041 25.3405Z" fill="black"/>
<path d="M130.479 26.7152C130.466 26.7152 130.453 26.7126 130.441 26.7075C130.428 26.7025 130.417 26.6951 130.408 26.6857C130.398 26.6764 130.391 26.6653 130.386 26.6531C130.381 26.6408 130.378 26.6278 130.378 26.6145C130.378 26.1424 130.451 25.3474 130.518 24.6462C130.556 24.2192 130.591 23.8512 130.602 23.6048C130.602 23.5912 130.605 23.5779 130.611 23.5657C130.617 23.5534 130.625 23.5424 130.635 23.5333C130.645 23.5242 130.657 23.5173 130.67 23.5128C130.683 23.5084 130.697 23.5066 130.71 23.5076C130.724 23.5084 130.737 23.5119 130.749 23.5178C130.761 23.5237 130.771 23.5319 130.78 23.5419C130.789 23.5519 130.796 23.5635 130.8 23.5761C130.804 23.5887 130.806 23.602 130.805 23.6152C130.805 23.8512 130.759 24.2227 130.721 24.6566C130.654 25.3509 130.581 26.1459 130.581 26.6076C130.582 26.6214 130.58 26.6352 130.575 26.6483C130.571 26.6613 130.563 26.6732 130.554 26.6833C130.544 26.6934 130.533 26.7014 130.52 26.7069C130.507 26.7124 130.493 26.7152 130.479 26.7152Z" fill="black"/>
<path d="M131.97 28.0725C131.944 28.0725 131.918 28.0623 131.899 28.0442C131.88 28.0261 131.869 28.0014 131.868 27.9753L131.792 24.6149C131.792 24.5881 131.803 24.5626 131.822 24.5433C131.841 24.5241 131.866 24.5125 131.893 24.5107C131.92 24.5107 131.946 24.5213 131.965 24.5402C131.984 24.5591 131.994 24.5847 131.994 24.6114L132.071 27.9683C132.072 27.9815 132.07 27.9947 132.065 28.0071C132.06 28.0195 132.053 28.0309 132.044 28.0405C132.035 28.0502 132.024 28.058 132.012 28.0635C132 28.069 131.987 28.072 131.973 28.0725H131.97Z" fill="black"/>
<path d="M133.38 29.5585C133.354 29.5585 133.328 29.5484 133.309 29.5303C133.291 29.5121 133.279 29.4874 133.279 29.4613L133.146 25.9447C133.145 25.9315 133.147 25.9183 133.152 25.9059C133.157 25.8935 133.164 25.8822 133.173 25.8725C133.182 25.8628 133.193 25.855 133.205 25.8496C133.217 25.8441 133.23 25.841 133.244 25.8406C133.257 25.8396 133.27 25.8414 133.283 25.8459C133.296 25.8503 133.308 25.8573 133.317 25.8665C133.327 25.8756 133.335 25.8866 133.34 25.8989C133.346 25.9112 133.349 25.9244 133.349 25.9378L133.481 29.4544C133.482 29.4676 133.48 29.4808 133.475 29.4932C133.47 29.5056 133.463 29.5169 133.454 29.5266C133.445 29.5363 133.434 29.5441 133.422 29.5495C133.41 29.555 133.397 29.5581 133.384 29.5585H133.38Z" fill="black"/>
<path d="M134.818 30.8117C134.792 30.8117 134.766 30.8016 134.748 30.7834C134.729 30.7653 134.718 30.7406 134.717 30.7145L134.535 27.4305C134.535 27.4036 134.545 27.3777 134.563 27.3578C134.581 27.3379 134.606 27.3255 134.633 27.3229C134.646 27.3213 134.66 27.3227 134.673 27.327C134.686 27.3312 134.698 27.3382 134.708 27.3475C134.718 27.3567 134.726 27.368 134.731 27.3805C134.736 27.393 134.738 27.4065 134.738 27.4201L134.92 30.7041C134.92 30.7309 134.91 30.7568 134.892 30.7767C134.874 30.7966 134.849 30.8091 134.822 30.8117H134.818Z" fill="black"/>
<path d="M136.239 31.9675C136.213 31.9676 136.188 31.9579 136.169 31.9405C136.151 31.9231 136.139 31.8993 136.137 31.8738L135.889 28.6766C135.888 28.6633 135.89 28.65 135.894 28.6375C135.898 28.6249 135.905 28.6133 135.914 28.6033C135.922 28.5933 135.933 28.5851 135.945 28.5792C135.957 28.5733 135.97 28.5698 135.983 28.5689C135.997 28.5675 136.01 28.5687 136.023 28.5725C136.035 28.5763 136.047 28.5826 136.057 28.5911C136.067 28.5995 136.076 28.6099 136.082 28.6216C136.088 28.6333 136.091 28.6461 136.092 28.6592L136.34 31.8599C136.341 31.8731 136.34 31.8864 136.335 31.899C136.331 31.9116 136.324 31.9232 136.316 31.9332C136.307 31.9432 136.296 31.9514 136.284 31.9572C136.272 31.9631 136.259 31.9666 136.246 31.9675H136.239Z" fill="black"/>
<path d="M137.582 33.0088C137.558 33.0081 137.534 32.9986 137.516 32.982C137.498 32.9653 137.487 32.9428 137.484 32.9186L137.194 30.1101C137.193 30.0974 137.194 30.0844 137.197 30.0721C137.201 30.0597 137.207 30.0482 137.215 30.0382C137.223 30.0282 137.233 30.0199 137.245 30.0138C137.256 30.0076 137.269 30.0038 137.281 30.0025C137.295 30.0006 137.308 30.0013 137.321 30.0047C137.334 30.008 137.346 30.0139 137.356 30.0221C137.367 30.0302 137.375 30.0403 137.382 30.0519C137.388 30.0635 137.392 30.0762 137.393 30.0893L137.684 32.8977C137.685 32.9108 137.684 32.924 137.68 32.9365C137.676 32.9491 137.67 32.9608 137.662 32.9708C137.653 32.9809 137.643 32.9891 137.631 32.995C137.619 33.001 137.606 33.0045 137.593 33.0053L137.582 33.0088Z" fill="black"/>
<path d="M138.902 32.859C138.878 32.8584 138.855 32.8494 138.837 32.8335C138.819 32.8176 138.807 32.7959 138.804 32.7723L138.597 31.5195C138.593 31.4933 138.6 31.4666 138.616 31.4452C138.631 31.4237 138.655 31.4093 138.681 31.405C138.694 31.4025 138.708 31.4028 138.721 31.4057C138.734 31.4086 138.746 31.4141 138.757 31.4219C138.768 31.4297 138.777 31.4396 138.784 31.451C138.791 31.4625 138.795 31.4752 138.797 31.4883L139.003 32.741C139.007 32.7672 139.001 32.794 138.985 32.8154C138.969 32.8369 138.946 32.8513 138.919 32.8556L138.902 32.859Z" fill="black"/>
<g opacity="0.13">
<path opacity="0.13" d="M127.299 16.9361C126.949 17.2138 126.812 17.6651 126.529 17.9949C126.182 18.4231 125.809 18.83 125.413 19.2134C125.063 19.5085 124.762 19.7654 124.436 20.0118C124.376 20.024 124.318 20.0463 124.265 20.0778C122.61 21.2685 121.364 21.7024 119.268 22.0843C118.045 22.356 116.775 22.3405 115.559 22.0392C114.464 21.7857 113.932 21.4872 112.788 20.7235C111.94 20.0855 111.165 19.3567 110.478 18.5503C109.94 17.8045 109.526 16.9784 109.25 16.103C109.085 15.6656 108.96 15.2108 108.83 14.763C108.662 14.3276 108.576 13.865 108.578 13.3987C108.459 13.0515 108.347 12.7252 108.246 12.3816C108.149 12.3361 108.041 12.3158 107.934 12.3225C107.765 13.6763 107.772 15.0461 107.955 16.398C108.253 17.5679 108.62 18.8281 109.75 20.0951C110.331 20.7165 110.977 21.274 111.678 21.758C113.013 22.8971 114.69 23.5671 116.448 23.6638C117.109 23.7754 117.783 23.7917 118.449 23.7124C118.967 23.6492 119.478 23.5389 119.975 23.3826C121.03 23.1501 122.052 22.7898 123.019 22.3099C123.261 22.1678 123.495 22.0125 123.719 21.8448C124.822 21.1682 125.832 20.3513 126.721 19.4147C126.882 19.0676 127.04 18.7517 127.183 18.415C127.37 17.9104 127.552 17.4071 127.729 16.9049C127.66 16.8774 127.585 16.8659 127.51 16.8713C127.436 16.8767 127.363 16.8989 127.299 16.9361Z" fill="black"/>
</g>
<g opacity="0.13">
<path opacity="0.13" d="M129.461 21.2269C128.957 21.0846 128.618 21.4318 128.369 21.8136L128.334 21.8553C127.893 22.3621 127.771 22.3204 127.043 22.9731C126.884 23.0499 126.746 23.1615 126.637 23.2994C126.536 23.4158 126.471 23.5582 126.449 23.71C126.426 23.8618 126.448 24.0168 126.511 24.1569C126.42 24.1583 126.329 24.1792 126.247 24.2181C126.164 24.257 126.091 24.3131 126.032 24.3825C125.894 24.5288 125.739 24.6582 125.57 24.7678C124.81 25.2618 124.01 25.6903 123.176 26.0488C121.161 26.816 119.754 27.2013 117.816 27.0902C114.712 27.0104 112.112 25.837 109.817 24.2332C109.4 23.9355 109.023 23.5854 108.697 23.1918L108.791 23.3133C108.466 22.9279 108.214 22.4246 107.742 22.1816C107.612 22.1272 107.467 22.1193 107.332 22.1592C107.196 22.1991 107.079 22.2843 107 22.4003C106.922 22.5162 106.886 22.6558 106.899 22.7951C106.912 22.9344 106.974 23.0648 107.073 23.164C107.486 23.5112 107.773 24.1083 108.427 24.688C109.066 25.2527 109.771 25.7388 110.527 26.1356C111.139 26.5338 111.783 26.8821 112.451 27.177C113.239 27.5394 114.059 27.8277 114.901 28.0379C116.415 28.3803 117.971 28.4973 119.52 28.3851C121.316 28.1413 123.052 27.5705 124.639 26.7014C125.437 26.2467 126.28 25.837 126.934 25.1809C126.999 25.1183 127.047 25.042 127.077 24.9577C127.107 24.8735 127.117 24.7836 127.106 24.6949C127.222 24.7329 127.344 24.7451 127.465 24.7307C127.586 24.7163 127.702 24.6756 127.806 24.6116C128.382 24.2908 128.884 23.8531 129.279 23.3272C129.541 23.0533 129.776 22.7545 129.979 22.435C130.042 22.3245 130.078 22.2011 130.086 22.0744C130.093 21.9476 130.071 21.8208 130.021 21.704C129.971 21.5871 129.894 21.4833 129.797 21.4006C129.7 21.3178 129.585 21.2584 129.461 21.2269Z" fill="black"/>
</g>
<path d="M89.7841 30.1762C89.7271 30.1769 89.6712 30.1613 89.6231 30.1311C89.589 30.1101 89.5595 30.0827 89.5361 30.0505C89.5128 30.0182 89.4961 29.9816 89.487 29.9429C89.4779 29.9042 89.4766 29.8642 89.4831 29.8249C89.4896 29.7857 89.5039 29.7482 89.5251 29.7145L94.312 22.1189C94.3329 22.0845 94.3608 22.0547 94.3938 22.0313C94.4269 22.0079 94.4643 21.9915 94.504 21.9831C94.5437 21.9746 94.5847 21.9743 94.6244 21.9821C94.6642 21.99 94.702 22.0058 94.7353 22.0287L99.6866 25.2814L103.613 20.4804C103.638 20.4495 103.669 20.4238 103.705 20.405C103.74 20.3861 103.779 20.3744 103.819 20.3706C103.859 20.3667 103.9 20.3707 103.938 20.3824C103.976 20.3941 104.012 20.4133 104.043 20.4387C104.074 20.4636 104.1 20.4944 104.119 20.5292C104.138 20.5641 104.15 20.6023 104.153 20.6418C104.157 20.6812 104.153 20.721 104.142 20.7588C104.13 20.7967 104.111 20.8318 104.085 20.8622L99.9841 25.8716C99.9371 25.9301 99.8697 25.9691 99.7951 25.9806C99.7206 25.9922 99.6444 25.9756 99.5817 25.9341L94.6619 22.7195L90.043 30.0512C90.0136 30.0916 89.9745 30.1242 89.9294 30.146C89.8842 30.1678 89.8343 30.1782 89.7841 30.1762Z" fill="black"/>
<path d="M125.346 17.5608C125.304 17.5603 125.263 17.5514 125.226 17.5347C125.188 17.518 125.154 17.4938 125.125 17.4635L117.368 9.27436L110.642 17.0643C110.589 17.1204 110.515 17.1538 110.437 17.1578C110.36 17.1618 110.283 17.1359 110.224 17.0856C110.165 17.0353 110.127 16.9643 110.119 16.8874C110.111 16.8105 110.133 16.7334 110.181 16.672L117.126 8.62519C117.154 8.59278 117.188 8.56648 117.227 8.54795C117.265 8.52942 117.307 8.51907 117.35 8.51758C117.436 8.52139 117.516 8.55596 117.578 8.61478L125.566 17.0504C125.623 17.1071 125.655 17.1839 125.655 17.2639C125.655 17.344 125.623 17.4208 125.566 17.4774C125.537 17.5057 125.503 17.5276 125.465 17.542C125.427 17.5563 125.386 17.5627 125.346 17.5608Z" fill="black"/>
<g opacity="0.13">
<path opacity="0.13" d="M109.46 32.0229C109.444 31.9235 109.401 31.8303 109.336 31.753C109.271 31.6757 109.186 31.6173 109.091 31.5839C108.995 31.5504 108.892 31.5433 108.792 31.5631C108.693 31.583 108.601 31.6291 108.526 31.6966C108.471 31.7146 108.415 31.7285 108.358 31.7383H108.33C107.927 31.7209 108.26 31.7764 107.854 31.6654C107.796 31.6385 107.742 31.6047 107.693 31.5647L107.665 31.5439C107.615 31.5023 107.568 31.4571 107.525 31.4085C107.461 31.2953 107.369 31.1999 107.259 31.1308C107.131 31.0596 106.982 31.0364 106.839 31.0654C106.695 31.0945 106.567 31.1739 106.478 31.289C106.389 31.4041 106.344 31.5473 106.353 31.6923C106.361 31.8373 106.422 31.9744 106.524 32.0785C106.768 32.3969 107.102 32.6363 107.483 32.7661C107.864 32.8959 108.276 32.9103 108.665 32.8075C109.005 32.6964 109.547 32.4916 109.46 32.0229Z" fill="black"/>
</g>
<g opacity="0.13">
<path opacity="0.13" d="M114.383 31.9362C114.365 31.7991 114.297 31.6733 114.192 31.582C114.087 31.4908 113.952 31.4403 113.813 31.4398C113.638 31.4568 113.472 31.5258 113.337 31.6377H113.288H113.26H113.085C113.006 31.6243 112.929 31.6033 112.854 31.5752C112.819 31.56 112.785 31.5414 112.753 31.5197L112.711 31.4919C112.667 31.4565 112.626 31.4182 112.588 31.3773C112.476 31.2732 112.385 31.1343 112.238 31.0892C112.115 31.0385 111.978 31.0316 111.851 31.0696C111.723 31.1076 111.613 31.1881 111.538 31.2976C111.464 31.4071 111.43 31.5388 111.442 31.6704C111.454 31.8019 111.512 31.9253 111.605 32.0196C111.82 32.2965 112.108 32.5096 112.437 32.6357C112.765 32.7618 113.123 32.796 113.47 32.7347C113.872 32.6826 114.471 32.4396 114.383 31.9362Z" fill="black"/>
</g>
<g opacity="0.13">
<path opacity="0.13" d="M119.817 31.9501C119.802 31.8535 119.763 31.7622 119.704 31.6843C119.644 31.6064 119.566 31.5445 119.477 31.5042C119.387 31.4638 119.289 31.4463 119.19 31.4533C119.092 31.4602 118.997 31.4914 118.914 31.5439C118.847 31.5654 118.778 31.5817 118.708 31.5925C118.62 31.5976 118.533 31.5976 118.445 31.5925H118.319C118.241 31.5794 118.164 31.5597 118.088 31.5335C118.042 31.5085 117.998 31.4807 117.955 31.4502C117.843 31.3359 117.707 31.2471 117.557 31.1899C117.413 31.1496 117.259 31.1628 117.125 31.227C116.99 31.2912 116.884 31.4019 116.826 31.5384C116.768 31.6748 116.762 31.8276 116.81 31.968C116.857 32.1084 116.955 32.2267 117.084 32.3007C117.451 32.6108 117.918 32.7786 118.4 32.7728C118.932 32.7624 119.894 32.6583 119.817 31.9501Z" fill="black"/>
</g>
</svg>
