<svg width="225" height="156" viewBox="0 0 225 156" fill="none" xmlns="http://www.w3.org/2000/svg">
<path d="M101.43 36.8799H93.886V55.4461H101.43V36.8799Z" fill="white"/>
<path d="M101.43 55.8277H93.8861C93.7902 55.8277 93.6983 55.7875 93.6305 55.716C93.5627 55.6444 93.5247 55.5474 93.5247 55.4462V36.88C93.5247 36.7789 93.5627 36.6818 93.6305 36.6103C93.6983 36.5387 93.7902 36.4985 93.8861 36.4985H101.43C101.526 36.4985 101.617 36.5387 101.685 36.6103C101.753 36.6818 101.791 36.7789 101.791 36.88V55.4462C101.791 55.4963 101.782 55.5459 101.764 55.5922C101.745 55.6385 101.719 55.6805 101.685 55.716C101.652 55.7514 101.612 55.7795 101.568 55.7987C101.524 55.8178 101.477 55.8277 101.43 55.8277ZM94.2474 55.0647H101.068V37.2615H94.2474V55.0647Z" fill="black"/>
<path d="M113.945 23.146H106.402V55.446H113.945V23.146Z" fill="white"/>
<path d="M113.946 55.8277H106.402C106.306 55.8277 106.214 55.7875 106.146 55.716C106.079 55.6444 106.041 55.5474 106.041 55.4462V23.1461C106.041 23.045 106.079 22.9479 106.146 22.8764C106.214 22.8048 106.306 22.7646 106.402 22.7646H113.946C114.041 22.7646 114.133 22.8048 114.201 22.8764C114.269 22.9479 114.307 23.045 114.307 23.1461V55.4462C114.307 55.4963 114.298 55.5459 114.279 55.5922C114.261 55.6385 114.235 55.6805 114.201 55.716C114.168 55.7514 114.128 55.7795 114.084 55.7987C114.04 55.8178 113.993 55.8277 113.946 55.8277ZM106.763 55.0647H113.584V23.5276H106.763V55.0647Z" fill="black"/>
<path d="M126.835 31.1226H119.292V55.4463H126.835V31.1226Z" fill="#1A374D"/>
<path d="M126.835 55.8274H119.292C119.196 55.8274 119.104 55.7873 119.036 55.7157C118.968 55.6442 118.93 55.5471 118.93 55.446V31.1266C118.93 31.0764 118.939 31.0265 118.957 30.98C118.975 30.9334 119.001 30.8911 119.035 30.8556C119.068 30.82 119.109 30.7919 119.153 30.773C119.197 30.754 119.244 30.7446 119.292 30.7451H126.835C126.883 30.7446 126.93 30.754 126.974 30.773C127.018 30.7919 127.058 30.82 127.092 30.8556C127.126 30.8911 127.152 30.9334 127.17 30.98C127.188 31.0265 127.197 31.0764 127.197 31.1266V55.446C127.197 55.5471 127.159 55.6442 127.091 55.7157C127.023 55.7873 126.931 55.8274 126.835 55.8274ZM119.653 55.0645H126.474V31.5257H119.653V55.0645Z" fill="black"/>
<path d="M139.845 17.8052H132.302V55.4462H139.845V17.8052Z" fill="white"/>
<path d="M139.846 55.8278H132.323C132.275 55.8278 132.228 55.818 132.185 55.7988C132.141 55.7796 132.101 55.7515 132.067 55.7161C132.034 55.6807 132.007 55.6386 131.989 55.5923C131.971 55.546 131.961 55.4964 131.961 55.4463V17.8053C131.961 17.7552 131.971 17.7056 131.989 17.6593C132.007 17.613 132.034 17.571 132.067 17.5356C132.101 17.5001 132.141 17.472 132.185 17.4529C132.228 17.4337 132.275 17.4238 132.323 17.4238H139.866C139.962 17.4238 140.054 17.464 140.122 17.5356C140.19 17.6071 140.228 17.7041 140.228 17.8053V55.4463C140.228 55.4983 140.218 55.5498 140.198 55.5976C140.179 55.6453 140.151 55.6884 140.115 55.7241C140.079 55.7599 140.037 55.7875 139.99 55.8053C139.944 55.8232 139.895 55.8308 139.846 55.8278ZM132.663 55.0648H139.484V18.1868H132.663V55.0648Z" fill="black"/>
<path d="M85.2168 35.5864C85.1354 35.5848 85.0568 35.5556 84.9924 35.5031C84.917 35.4408 84.8681 35.3495 84.8565 35.2492C84.8448 35.1489 84.8713 35.0478 84.9301 34.9681L91.1611 26.5927C91.2187 26.5143 91.3029 26.4627 91.396 26.4488C91.4891 26.4348 91.5836 26.4597 91.6596 26.5182L95.6889 29.671L108.89 12.9597C108.948 12.8881 109.028 12.841 109.116 12.8273C109.204 12.8136 109.293 12.8342 109.368 12.8852L120.97 20.8484L138.138 0.580794C138.17 0.543364 138.208 0.512879 138.251 0.49108C138.294 0.46928 138.34 0.456592 138.388 0.453742C138.435 0.450892 138.483 0.457935 138.528 0.474468C138.573 0.491 138.614 0.5167 138.649 0.550099C138.685 0.583499 138.714 0.623943 138.734 0.669124C138.755 0.714305 138.767 0.763337 138.77 0.813421C138.772 0.863505 138.766 0.91366 138.75 0.961023C138.734 1.00838 138.71 1.05203 138.678 1.08946L121.306 21.6026C121.248 21.6698 121.169 21.7132 121.083 21.7252C120.997 21.7372 120.91 21.7171 120.837 21.6683L109.243 13.7095L96.0254 30.4384C95.9656 30.5126 95.8814 30.5602 95.7897 30.5716C95.698 30.583 95.6056 30.5573 95.5311 30.4998L91.5142 27.3557L85.4992 35.4373C85.4661 35.4833 85.4234 35.5207 85.3744 35.5466C85.3255 35.5724 85.2715 35.5861 85.2168 35.5864Z" fill="black"/>
<path d="M96.5188 54.634C96.4898 54.6345 96.4617 54.6236 96.4399 54.6033C95.8254 54.0423 95.215 53.4505 94.6295 52.85C94.6069 52.8261 94.5942 52.7938 94.5942 52.7601C94.5942 52.7264 94.6069 52.6941 94.6295 52.6703C94.6526 52.6475 94.683 52.6348 94.7146 52.6348C94.7462 52.6348 94.7767 52.6475 94.7997 52.6703C95.3852 53.2708 95.9915 53.8625 96.6019 54.4236C96.6245 54.4474 96.6371 54.4798 96.6371 54.5135C96.6371 54.5472 96.6245 54.5795 96.6019 54.6033C96.5791 54.6246 96.5493 54.6357 96.5188 54.634Z" fill="black"/>
<path d="M99.1117 54.657C99.082 54.6568 99.0536 54.6442 99.0328 54.6219L94.7417 50.5526C94.73 50.5414 94.7205 50.5278 94.7137 50.5127C94.7069 50.4976 94.7031 50.4812 94.7023 50.4645C94.7015 50.4478 94.7039 50.4311 94.7092 50.4154C94.7146 50.3997 94.7228 50.3852 94.7334 50.3728C94.7441 50.3604 94.7569 50.3504 94.7712 50.3433C94.7855 50.3361 94.801 50.332 94.8168 50.3312C94.8327 50.3304 94.8485 50.3329 94.8634 50.3385C94.8783 50.3441 94.892 50.3528 94.9037 50.3641L99.1906 54.4334C99.2122 54.4577 99.2243 54.4899 99.2243 54.5232C99.2243 54.5566 99.2122 54.5888 99.1906 54.6131C99.1699 54.6369 99.142 54.6524 99.1117 54.657Z" fill="black"/>
<path d="M100.549 53.4203C100.52 53.4201 100.492 53.4092 100.47 53.3896C98.5799 51.6356 96.6359 49.8816 94.7001 48.1627C94.6856 48.153 94.6733 48.1401 94.6639 48.1249C94.6545 48.1098 94.6483 48.0926 94.6457 48.0747C94.6431 48.0568 94.6441 48.0385 94.6488 48.0211C94.6534 48.0036 94.6615 47.9874 94.6726 47.9735C94.6836 47.9597 94.6973 47.9485 94.7128 47.9406C94.7283 47.9328 94.7452 47.9286 94.7624 47.9282C94.7795 47.9279 94.7966 47.9314 94.8123 47.9386C94.8281 47.9457 94.8422 47.9564 94.8538 47.9698C96.7937 49.6755 98.7378 51.4339 100.632 53.1967C100.655 53.2205 100.667 53.2529 100.667 53.2866C100.667 53.3203 100.655 53.3526 100.632 53.3765C100.622 53.3894 100.609 53.4 100.595 53.4075C100.58 53.4151 100.565 53.4194 100.549 53.4203Z" fill="black"/>
<path d="M100.628 50.921C100.601 50.921 100.575 50.9118 100.553 50.8947C98.5676 49.2898 96.6028 47.6015 94.7086 45.8782C94.6966 45.8673 94.6867 45.854 94.6796 45.839C94.6725 45.8241 94.6682 45.8078 94.6671 45.7911C94.6659 45.7744 94.6679 45.7576 94.6729 45.7417C94.6778 45.7258 94.6857 45.7111 94.6961 45.6984C94.7065 45.6858 94.7191 45.6754 94.7333 45.6679C94.7474 45.6604 94.7629 45.6559 94.7787 45.6546C94.7945 45.6534 94.8104 45.6555 94.8254 45.6608C94.8405 45.666 94.8544 45.6743 94.8664 45.6853C96.7565 47.4086 98.7171 49.0925 100.682 50.693C100.695 50.703 100.706 50.7155 100.714 50.73C100.722 50.7445 100.728 50.7606 100.73 50.7773C100.733 50.7941 100.732 50.8112 100.728 50.8275C100.724 50.8439 100.717 50.8593 100.707 50.8728C100.687 50.8988 100.659 50.916 100.628 50.921Z" fill="black"/>
<path d="M100.628 48.3992C100.599 48.3983 100.572 48.3875 100.549 48.3686C98.5884 46.6145 96.6194 44.8079 94.692 43.0057C94.6677 42.9836 94.6528 42.9522 94.6505 42.9185C94.6481 42.8848 94.6586 42.8515 94.6795 42.8259C94.7004 42.8003 94.7301 42.7845 94.7621 42.7821C94.794 42.7796 94.8256 42.7906 94.8498 42.8127C96.7773 44.615 98.7463 46.4172 100.703 48.1712C100.725 48.1951 100.738 48.2274 100.738 48.2611C100.738 48.2948 100.725 48.3272 100.703 48.351C100.684 48.3764 100.658 48.3936 100.628 48.3992Z" fill="black"/>
<path d="M100.503 45.7243C100.476 45.725 100.45 45.7157 100.429 45.698C98.4844 44.1107 96.5736 42.4312 94.7417 40.7079C94.718 40.6852 94.7038 40.6535 94.7023 40.6198C94.7007 40.5861 94.7119 40.5531 94.7334 40.5281C94.7549 40.5031 94.7849 40.4881 94.8168 40.4865C94.8488 40.4848 94.88 40.4967 94.9037 40.5193C96.7273 42.2383 98.6423 43.9133 100.574 45.4963C100.599 45.5164 100.615 45.5459 100.62 45.5787C100.625 45.6114 100.617 45.6448 100.599 45.6717C100.588 45.6877 100.574 45.7008 100.557 45.7099C100.54 45.7191 100.522 45.724 100.503 45.7243Z" fill="black"/>
<path d="M100.395 43.1987C100.37 43.1987 100.345 43.1894 100.325 43.1723C98.418 41.6376 96.503 40.0502 94.6379 38.4541C94.6263 38.443 94.617 38.4294 94.6107 38.4143C94.6044 38.3992 94.6011 38.3829 94.6011 38.3664C94.6011 38.3498 94.6044 38.3335 94.6107 38.3184C94.617 38.3033 94.6263 38.2898 94.6379 38.2787C94.6473 38.2655 94.6591 38.2544 94.6726 38.2461C94.6861 38.2378 94.7011 38.2325 94.7166 38.2304C94.7321 38.2284 94.7478 38.2297 94.7628 38.2342C94.7779 38.2387 94.7919 38.2464 94.804 38.2567C96.6692 39.8529 98.58 41.4359 100.487 42.9706C100.499 42.9809 100.51 42.9938 100.518 43.0084C100.526 43.0231 100.531 43.0392 100.533 43.0559C100.535 43.0727 100.533 43.0896 100.529 43.1059C100.525 43.1221 100.517 43.1372 100.507 43.1504C100.495 43.1686 100.478 43.1827 100.458 43.1912C100.438 43.1997 100.416 43.2023 100.395 43.1987Z" fill="black"/>
<path d="M100.399 41.0017C100.373 41.0011 100.346 40.9919 100.325 40.9754L96.7688 38.0199C96.7475 37.9962 96.7356 37.9648 96.7356 37.9322C96.7356 37.8995 96.7475 37.8681 96.7688 37.8445C96.7797 37.8328 96.7926 37.8235 96.8069 37.8172C96.8211 37.8109 96.8364 37.8076 96.8519 37.8076C96.8674 37.8076 96.8827 37.8109 96.897 37.8172C96.9112 37.8235 96.9242 37.8328 96.935 37.8445L100.491 40.7956C100.503 40.8059 100.514 40.8187 100.522 40.8334C100.53 40.848 100.535 40.8642 100.537 40.8809C100.539 40.8976 100.538 40.9146 100.533 40.9308C100.529 40.947 100.521 40.9622 100.512 40.9754C100.496 40.9889 100.478 40.9984 100.459 41.003C100.439 41.0076 100.419 41.0071 100.399 41.0017Z" fill="black"/>
<path d="M100.499 39.1245C100.472 39.1245 100.445 39.1153 100.424 39.0982C100.266 38.9579 100.067 38.7914 99.8549 38.616C99.6431 38.4407 99.3691 38.2128 99.1532 38.0199C99.1306 37.9961 99.1179 37.9637 99.1179 37.93C99.1179 37.8963 99.1306 37.864 99.1532 37.8402C99.1762 37.8174 99.2067 37.8047 99.2383 37.8047C99.2699 37.8047 99.3003 37.8174 99.3234 37.8402C99.5393 38.033 99.7885 38.2391 100.021 38.4363C100.254 38.6336 100.436 38.7782 100.594 38.9185C100.616 38.9429 100.628 38.975 100.628 39.0083C100.628 39.0417 100.616 39.0738 100.594 39.0982C100.581 39.1095 100.565 39.1176 100.549 39.1222C100.533 39.1267 100.515 39.1275 100.499 39.1245Z" fill="black"/>
<path d="M10.9643 109.248V110.76H18.2303V109.248H10.9643ZM8.3603 111.768V113.35H20.9043V111.768H8.3603ZM11.7483 113.028C11.5383 114.946 11.1603 116.248 7.9543 116.962C8.3323 117.312 8.7663 118.012 8.9343 118.46C12.6303 117.48 13.3023 115.632 13.5683 113.028H11.7483ZM15.3603 112.762V116.206C15.3603 117.718 15.7523 118.208 17.3903 118.208C17.7123 118.208 18.8603 118.208 19.1823 118.208C20.5123 118.208 20.9603 117.676 21.1283 115.632C20.6943 115.52 19.9663 115.254 19.6303 114.988C19.5743 116.458 19.4903 116.696 19.0283 116.696C18.7623 116.696 17.8523 116.696 17.6283 116.696C17.1383 116.696 17.0543 116.626 17.0543 116.178V112.762H15.3603ZM13.6943 105.286V107.82H15.4863V105.286H13.6943ZM8.6123 106.63V109.962H10.3203V108.212H18.8323V109.962H20.6383V106.63H8.6123ZM24.1663 110.536V112.076H27.4003V110.536H24.1663ZM26.7563 110.536V110.788C26.7283 113.504 26.6723 114.484 26.5043 114.708C26.3923 114.848 26.2663 114.876 26.0703 114.876C25.8463 114.876 25.3703 114.876 24.8663 114.82C25.1183 115.24 25.3003 115.898 25.3283 116.388C25.9863 116.402 26.5883 116.402 26.9663 116.346C27.3723 116.276 27.6523 116.15 27.9323 115.8C28.2543 115.366 28.3243 114.12 28.3803 111.152C28.3803 110.956 28.3943 110.536 28.3943 110.536H26.7563ZM30.9703 106.154C31.7543 106.602 32.7483 107.288 33.2103 107.778L34.2883 106.644C33.7843 106.182 32.7483 105.538 31.9783 105.132L30.9703 106.154ZM32.6223 109.752C31.6563 113 29.7803 115.534 27.0923 116.976C27.4423 117.312 28.0583 118.012 28.3103 118.362C31.0823 116.654 33.1403 113.812 34.3163 110.158L32.6223 109.752ZM24.2643 107.372V109.024H35.0583V107.372H24.2643ZM23.1443 107.372V111.474C23.1443 113.308 23.0463 115.758 21.9683 117.438C22.3603 117.634 23.1163 118.25 23.3963 118.586C24.6703 116.696 24.9083 113.588 24.9083 111.488V107.372H23.1443ZM28.8283 105.286C28.8703 111.67 30.0043 118.32 33.0563 118.32C34.3723 118.32 34.9323 117.69 35.1983 115.086C34.7503 114.918 34.1483 114.526 33.7703 114.134C33.6863 115.898 33.5183 116.612 33.1963 116.612C31.7823 116.612 30.4943 110.998 30.5923 105.286H28.8283ZM39.2303 111.502V112.832H46.0203V111.502H39.2303ZM39.0203 113.896V115.268H46.2443V113.896H39.0203ZM43.2203 111.922V118.166H44.6903V111.922H43.2203ZM40.4903 111.978V114.652C40.4903 115.366 40.1823 116.724 38.9923 117.452C39.3423 117.676 39.8463 118.124 40.0703 118.418C41.5403 117.41 41.9183 115.562 41.9183 114.666V111.978H40.4903ZM37.5643 107.722V108.814H41.0923V107.722H37.5643ZM44.0603 107.722V108.814H47.6023V107.722H44.0603ZM46.9443 105.804V116.444C46.9443 116.654 46.8743 116.738 46.6503 116.738C46.4403 116.738 45.7403 116.738 45.1243 116.71C45.3483 117.144 45.5723 117.928 45.6143 118.376C46.6923 118.39 47.4203 118.348 47.9383 118.068C48.4423 117.788 48.5963 117.312 48.5963 116.472V105.804H46.9443ZM37.7183 105.804V107.008H40.5743V109.584H37.7183V110.788H42.1563V105.804H37.7183ZM47.7983 105.804H43.0663V110.816H47.7983V109.612H44.6623V107.008H47.7983V105.804ZM36.7243 105.804V118.418H38.3763V105.804H36.7243ZM53.4683 110.732H50.0803V112.286H51.8723V115.884H53.4683V110.732ZM53.4683 115.226H52.0123C51.3403 115.744 50.5563 116.248 49.8983 116.626L50.6683 118.292C51.4663 117.704 52.1243 117.158 52.7683 116.612C53.6083 117.69 54.7283 118.096 56.4083 118.166C58.1303 118.25 61.1123 118.222 62.8483 118.138C62.9323 117.648 63.1843 116.878 63.3663 116.5C61.4343 116.654 58.1023 116.696 56.4363 116.612C54.9943 116.556 54.0283 116.164 53.4683 115.226ZM50.2763 106.644C51.1443 107.288 52.1943 108.268 52.6423 108.94L53.9023 107.736C53.3983 107.064 52.3063 106.154 51.4383 105.566L50.2763 106.644ZM55.9463 107.988C57.2343 108.492 58.9703 109.29 59.8243 109.822L60.9723 108.828C60.0203 108.282 58.2563 107.526 57.0103 107.092L55.9463 107.988ZM54.6723 108.786V116.038H56.2543V110.004H61.7983V108.786H54.6723ZM61.0143 108.786V114.568C61.0143 114.722 60.9723 114.778 60.8043 114.778C60.6643 114.778 60.1743 114.778 59.7263 114.764C59.9083 115.128 60.0903 115.674 60.1463 116.08C60.9863 116.08 61.6023 116.08 62.0363 115.842C62.4983 115.618 62.6103 115.268 62.6103 114.582V108.786H61.0143ZM54.7983 105.734V107.008H61.4763V105.734H54.7983ZM55.5543 110.76V111.922H61.5603V110.76H55.5543ZM55.5543 112.72V113.938H61.5603V112.72H55.5543ZM57.8643 109.36V115.982H59.3623V109.36H57.8643ZM60.8743 105.734V106.028C60.3423 106.672 59.1243 107.554 58.0743 108.058C58.3123 108.282 58.7183 108.716 58.9143 108.996C60.2023 108.38 61.5883 107.386 62.5823 106.462L61.5883 105.65L61.2523 105.734H60.8743ZM66.3343 119.09C68.0703 118.572 69.1063 117.284 69.1063 115.702C69.1063 114.526 68.5743 113.77 67.5943 113.77C66.8383 113.77 66.2083 114.246 66.2083 115.03C66.2083 115.842 66.8523 116.29 67.5523 116.29C67.8603 116.29 68.1543 116.192 68.3783 115.982L67.6083 114.722L67.7063 116.108C67.7063 116.906 67.0623 117.592 65.8863 117.97L66.3343 119.09ZM79.7603 108.674V110.158H83.4563V108.674H79.7603ZM79.0043 105.958V116.64L80.6003 116.36V105.958H79.0043ZM78.0383 116.024L78.5283 117.76C79.9703 117.368 81.8603 116.85 83.5963 116.346L83.4003 114.764C81.4543 115.254 79.3823 115.758 78.0383 116.024ZM81.4963 113.784C82.3363 115.016 83.2183 116.668 83.5263 117.746L84.9963 116.99C84.6603 115.912 83.7223 114.33 82.8543 113.126L81.4963 113.784ZM79.7463 105.958V107.512H82.9103V111.292H79.7463V112.846H84.4643V105.958H79.7463ZM88.9443 105.93V114.386C88.9443 114.568 88.8883 114.624 88.7063 114.624C88.5103 114.624 87.9223 114.638 87.3763 114.596C87.6423 115.086 87.9083 115.926 87.9503 116.444C88.8743 116.444 89.5323 116.402 90.0363 116.08C90.5543 115.772 90.6803 115.24 90.6803 114.428V105.93H88.9443ZM85.2343 105.93V118.404H86.9563V107.624H89.8403V105.93H85.2343ZM101.6 106.672V116.262C101.6 116.556 101.488 116.654 101.152 116.668C100.816 116.668 99.5983 116.682 98.5903 116.612C98.8563 117.074 99.1923 117.9 99.2903 118.404C100.732 118.404 101.754 118.376 102.454 118.082C103.126 117.816 103.364 117.312 103.364 116.304V106.672H101.6ZM93.5923 109.472V115.996H95.2303V109.472H93.5923ZM94.2923 109.472V111.068H97.9043V113.322H94.2923V114.918H99.5703V109.472H94.2923ZM92.3043 106.21V107.904H104.988V106.21H92.3043ZM106.724 107.722V109.374H118.596V107.722H106.724ZM106.262 116.192V117.872H119.016V116.192H106.262ZM111.722 105.272V108.646H113.486V105.272H111.722ZM114.886 109.864C114.564 111.936 113.878 114.652 113.22 116.36L114.858 116.724C115.516 115.072 116.272 112.51 116.818 110.2L114.886 109.864ZM108.53 110.326C109.132 112.034 109.636 114.302 109.734 115.758L111.456 115.296C111.316 113.812 110.798 111.642 110.126 109.906L108.53 110.326ZM121.76 108.674V110.158H125.456V108.674H121.76ZM121.004 105.958V116.64L122.6 116.36V105.958H121.004ZM120.038 116.024L120.528 117.76C121.97 117.368 123.86 116.85 125.596 116.346L125.4 114.764C123.454 115.254 121.382 115.758 120.038 116.024ZM123.496 113.784C124.336 115.016 125.218 116.668 125.526 117.746L126.996 116.99C126.66 115.912 125.722 114.33 124.854 113.126L123.496 113.784ZM121.746 105.958V107.512H124.91V111.292H121.746V112.846H126.464V105.958H121.746ZM130.944 105.93V114.386C130.944 114.568 130.888 114.624 130.706 114.624C130.51 114.624 129.922 114.638 129.376 114.596C129.642 115.086 129.908 115.926 129.95 116.444C130.874 116.444 131.532 116.402 132.036 116.08C132.554 115.772 132.68 115.24 132.68 114.428V105.93H130.944ZM127.234 105.93V118.404H128.956V107.624H131.84V105.93H127.234ZM138.266 106.644V108.17H147.198V106.644H138.266ZM140.1 110.522H145.21V111.908H140.1V110.522ZM138.574 109.15V113.28H146.82V109.15H138.574ZM139.89 113.42L138.518 113.84C140.044 116.472 142.634 117.886 146.428 118.404C146.638 117.942 147.058 117.27 147.408 116.906C143.782 116.57 141.136 115.436 139.89 113.42ZM141.808 105.356V111.74C141.808 114.036 141.444 116.178 137.678 117.018C138.042 117.368 138.532 118.04 138.728 118.418C142.746 117.214 143.46 114.61 143.46 111.754V105.356H141.808ZM137.202 105.23C136.446 107.232 135.144 109.22 133.814 110.48C134.094 110.886 134.542 111.81 134.682 112.202C136.278 110.62 137.818 108.114 138.77 105.734L137.202 105.23ZM135.844 109.136V118.446H137.44V107.554L137.426 107.54L135.844 109.136ZM150.572 106.21V107.806H159.168V106.21H150.572ZM150.572 109.43V110.998H159.196V109.43H150.572ZM150.544 112.734V114.316H159.252V112.734H150.544ZM149.606 106.21V111.236C149.606 113.21 149.48 115.716 147.954 117.41C148.318 117.62 149.004 118.18 149.27 118.502C150.992 116.626 151.272 113.476 151.272 111.25V106.21H149.606ZM158.58 106.21V116.43C158.58 116.668 158.482 116.752 158.216 116.766C157.964 116.766 157.04 116.78 156.242 116.724C156.466 117.158 156.718 117.886 156.788 118.334C158.062 118.348 158.902 118.32 159.49 118.054C160.05 117.788 160.246 117.34 160.246 116.444V106.21H158.58ZM153.918 106.84V118.25H155.626V106.84H153.918ZM164.334 119.09C166.07 118.572 167.106 117.284 167.106 115.702C167.106 114.526 166.574 113.77 165.594 113.77C164.838 113.77 164.208 114.246 164.208 115.03C164.208 115.842 164.852 116.29 165.552 116.29C165.86 116.29 166.154 116.192 166.378 115.982L165.608 114.722L165.706 116.108C165.706 116.906 165.062 117.592 163.886 117.97L164.334 119.09ZM179.23 111.502V112.832H186.02V111.502H179.23ZM179.02 113.896V115.268H186.244V113.896H179.02ZM183.22 111.922V118.166H184.69V111.922H183.22ZM180.49 111.978V114.652C180.49 115.366 180.182 116.724 178.992 117.452C179.342 117.676 179.846 118.124 180.07 118.418C181.54 117.41 181.918 115.562 181.918 114.666V111.978H180.49ZM177.564 107.722V108.814H181.092V107.722H177.564ZM184.06 107.722V108.814H187.602V107.722H184.06ZM186.944 105.804V116.444C186.944 116.654 186.874 116.738 186.65 116.738C186.44 116.738 185.74 116.738 185.124 116.71C185.348 117.144 185.572 117.928 185.614 118.376C186.692 118.39 187.42 118.348 187.938 118.068C188.442 117.788 188.596 117.312 188.596 116.472V105.804H186.944ZM177.718 105.804V107.008H180.574V109.584H177.718V110.788H182.156V105.804H177.718ZM187.798 105.804H183.066V110.816H187.798V109.612H184.662V107.008H187.798V105.804ZM176.724 105.804V118.418H178.376V105.804H176.724ZM197.304 116.36V117.872H201.77V116.36H197.304ZM196.464 112.552V118.418H198.06V114.064H201V118.362H202.666V112.552H196.464ZM195.568 109.892L195.736 111.516C197.472 111.39 199.88 111.208 202.134 111.026L202.148 109.528C199.768 109.682 197.234 109.822 195.568 109.892ZM199.978 108.128C200.832 109.36 201.7 110.984 201.994 112.034L203.45 111.264C203.114 110.2 202.19 108.632 201.308 107.456L199.978 108.128ZM198.004 105.258C197.696 106.854 197.066 109.01 196.492 110.396L197.906 110.76C198.536 109.444 199.292 107.4 199.866 105.608L198.004 105.258ZM190.164 108.058V109.612H194.7V108.058H190.164ZM192.054 105.258C191.578 108.044 190.766 111.754 190.122 113.952L191.494 114.694C192.18 112.174 193.048 108.408 193.636 105.44L192.054 105.258ZM190.962 113.742C192.432 114.708 194.21 116.178 194.994 117.228L196.002 115.884C195.19 114.834 193.342 113.476 191.872 112.566L190.962 113.742ZM194.084 108.058V108.366C193.818 112.79 192.572 115.884 190.192 117.13C190.528 117.452 190.976 118.068 191.2 118.474C193.986 116.752 195.33 113.658 195.652 108.198L194.658 108.016L194.364 108.058H194.084ZM209.96 105.286C209.554 106.504 208.812 107.68 207.93 108.436C208.28 108.674 208.882 109.206 209.148 109.5C210.1 108.576 210.982 107.148 211.5 105.664L209.96 105.286ZM209.848 108.87C209.498 109.78 208.896 110.732 208.224 111.362C208.588 111.558 209.246 111.964 209.554 112.216C210.226 111.502 210.954 110.368 211.388 109.276L209.848 108.87ZM210.268 106.462L209.708 107.876H215.84V106.462H210.268ZM211.864 107.54V111.866C211.864 112.02 211.808 112.062 211.64 112.076C211.472 112.076 210.884 112.076 210.352 112.048C210.576 112.454 210.8 113.084 210.87 113.518C211.738 113.518 212.368 113.504 212.844 113.266C213.362 113.028 213.474 112.622 213.474 111.894V107.54H211.864ZM213.782 109.346C214.384 110.284 215.042 111.586 215.308 112.412L216.75 111.726C216.456 110.886 215.812 109.682 215.154 108.758L213.782 109.346ZM215.42 106.462V106.658C215.224 107.47 214.888 108.464 214.622 109.08L216.05 109.36C216.386 108.688 216.792 107.624 217.1 106.672L215.91 106.42L215.658 106.462H215.42ZM207.65 114.05V116.22C207.65 117.69 208.084 118.166 209.876 118.166C210.254 118.166 211.752 118.166 212.13 118.166C213.516 118.166 213.992 117.704 214.174 115.884C213.726 115.786 213.026 115.534 212.69 115.282C212.62 116.5 212.522 116.668 211.99 116.668C211.612 116.668 210.38 116.668 210.086 116.668C209.428 116.668 209.316 116.626 209.316 116.206V114.05H207.65ZM208.84 113.658C209.694 114.162 210.702 114.96 211.15 115.534L212.354 114.47C211.864 113.896 210.814 113.168 209.96 112.706L208.84 113.658ZM213.362 114.582C214.356 115.548 215.35 116.906 215.714 117.858L217.212 117.018C216.792 116.038 215.742 114.75 214.748 113.826L213.362 114.582ZM205.914 114.092C205.606 115.268 204.99 116.36 204.038 117.032L205.438 117.998C206.502 117.186 207.048 115.898 207.426 114.596L205.914 114.092ZM207.188 105.272C206.446 106.728 205.172 108.184 203.898 109.094C204.206 109.402 204.724 110.116 204.906 110.452C206.306 109.332 207.762 107.54 208.672 105.776L207.188 105.272ZM205.984 108.198V113.49H207.594V106.63L207.552 106.616L205.984 108.198ZM77.0025 133.54V135.01H79.7745V141.492H77.0025V142.976H81.3005V133.54H77.0025ZM76.0225 133.54V144.012H77.5485V133.54H76.0225ZM76.9325 137.278V138.734H80.5165V137.278H76.9325ZM78.0105 131.258C77.9405 132.028 77.7445 133.106 77.5485 133.834L78.8925 134.128C79.1725 133.47 79.5225 132.476 79.8445 131.524L78.0105 131.258ZM83.1485 133.442V134.968H87.2365V133.442H83.1485ZM86.6625 133.442V133.764C86.5085 139.602 86.3265 142.01 85.8785 142.486C85.6965 142.682 85.5425 142.738 85.2625 142.738C84.9125 142.738 84.0725 142.724 83.1625 142.654C83.4705 143.102 83.6945 143.816 83.7225 144.278C84.5345 144.32 85.3885 144.334 85.9205 144.25C86.4945 144.166 86.8865 144.012 87.2785 143.466C87.8525 142.724 88.0205 140.498 88.2025 134.198C88.2165 133.988 88.2165 133.442 88.2165 133.442H86.6625ZM83.1905 131.272C82.7425 133.134 81.9445 135.038 81.0065 136.214C81.3985 136.438 82.0845 136.914 82.3925 137.194C83.3445 135.85 84.2545 133.722 84.8005 131.65L83.1905 131.272ZM82.5045 137.474C83.1765 138.51 84.0585 139.882 84.4365 140.736L85.8645 139.868C85.4305 139.042 84.5065 137.698 83.8205 136.732L82.5045 137.474ZM93.7856 138.79H91.229L91.2153 137.381H93.3618C93.74 137.381 94.0499 137.333 94.2915 137.238C94.533 137.138 94.713 136.994 94.8315 136.807C94.9546 136.616 95.0161 136.383 95.0161 136.11C95.0161 135.8 94.9568 135.549 94.8384 135.358C94.7244 135.167 94.5444 135.028 94.2983 134.941C94.0568 134.854 93.7446 134.811 93.3618 134.811H91.9399V143.158H89.8891V133.205H93.3618C93.9406 133.205 94.4578 133.259 94.9136 133.369C95.3738 133.478 95.7635 133.644 96.0825 133.868C96.4015 134.091 96.6453 134.374 96.8139 134.715C96.9826 135.053 97.0669 135.454 97.0669 135.918C97.0669 136.329 96.9734 136.707 96.7866 137.053C96.6043 137.4 96.3149 137.682 95.9184 137.901C95.5265 138.12 95.0138 138.24 94.3803 138.263L93.7856 138.79ZM93.6968 143.158H90.6684L91.4682 141.558H93.6968C94.0568 141.558 94.3507 141.501 94.5786 141.387C94.8065 141.269 94.9751 141.109 95.0844 140.909C95.1938 140.708 95.2485 140.478 95.2485 140.218C95.2485 139.927 95.1984 139.674 95.0981 139.459C95.0024 139.245 94.8475 139.081 94.6333 138.967C94.4191 138.849 94.1365 138.79 93.7856 138.79H91.81L91.8237 137.381H94.2846L94.7563 137.935C95.3624 137.926 95.8501 138.033 96.2192 138.256C96.5929 138.475 96.8641 138.76 97.0327 139.111C97.2059 139.462 97.2925 139.838 97.2925 140.239C97.2925 140.877 97.1535 141.415 96.8755 141.852C96.5975 142.285 96.1896 142.611 95.6518 142.83C95.1186 143.048 94.4669 143.158 93.6968 143.158ZM103.082 141.387V135.761H105.051V143.158H103.199L103.082 141.387ZM103.301 139.87L103.882 139.856C103.882 140.348 103.825 140.806 103.711 141.23C103.597 141.649 103.427 142.014 103.199 142.324C102.971 142.629 102.684 142.868 102.337 143.042C101.991 143.21 101.583 143.294 101.114 143.294C100.754 143.294 100.421 143.244 100.116 143.144C99.8149 143.039 99.5552 142.877 99.3364 142.659C99.1222 142.435 98.9536 142.151 98.8305 141.804C98.7121 141.453 98.6528 141.032 98.6528 140.54V135.761H100.622V140.553C100.622 140.772 100.647 140.957 100.697 141.107C100.751 141.257 100.827 141.38 100.922 141.476C101.018 141.572 101.13 141.64 101.257 141.681C101.389 141.722 101.535 141.743 101.695 141.743C102.1 141.743 102.419 141.661 102.652 141.497C102.889 141.333 103.055 141.109 103.151 140.827C103.251 140.54 103.301 140.221 103.301 139.87ZM110.554 141.114C110.554 140.972 110.513 140.845 110.431 140.731C110.349 140.617 110.196 140.512 109.973 140.417C109.754 140.316 109.438 140.225 109.023 140.143C108.649 140.061 108.301 139.958 107.977 139.835C107.658 139.708 107.38 139.555 107.143 139.377C106.911 139.2 106.728 138.99 106.596 138.749C106.464 138.502 106.398 138.222 106.398 137.908C106.398 137.598 106.464 137.306 106.596 137.033C106.733 136.759 106.927 136.518 107.177 136.308C107.432 136.094 107.742 135.928 108.107 135.809C108.476 135.686 108.891 135.625 109.351 135.625C109.994 135.625 110.545 135.727 111.005 135.932C111.47 136.137 111.826 136.42 112.072 136.78C112.322 137.135 112.448 137.541 112.448 137.997H110.479C110.479 137.805 110.438 137.634 110.356 137.484C110.278 137.329 110.155 137.208 109.987 137.122C109.823 137.03 109.609 136.985 109.344 136.985C109.125 136.985 108.936 137.024 108.777 137.101C108.617 137.174 108.494 137.274 108.408 137.402C108.326 137.525 108.285 137.662 108.285 137.812C108.285 137.926 108.307 138.028 108.353 138.12C108.403 138.206 108.483 138.286 108.592 138.359C108.702 138.432 108.843 138.5 109.016 138.564C109.194 138.623 109.413 138.678 109.672 138.728C110.206 138.837 110.682 138.981 111.101 139.159C111.52 139.332 111.853 139.569 112.099 139.87C112.345 140.166 112.468 140.556 112.468 141.039C112.468 141.367 112.395 141.667 112.249 141.941C112.104 142.214 111.894 142.454 111.621 142.659C111.347 142.859 111.019 143.016 110.636 143.13C110.258 143.24 109.832 143.294 109.358 143.294C108.67 143.294 108.086 143.171 107.608 142.925C107.134 142.679 106.774 142.367 106.528 141.989C106.286 141.606 106.166 141.214 106.166 140.813H108.032C108.041 141.082 108.109 141.298 108.237 141.462C108.369 141.626 108.535 141.745 108.736 141.818C108.941 141.891 109.162 141.927 109.399 141.927C109.654 141.927 109.866 141.893 110.035 141.825C110.203 141.752 110.331 141.656 110.417 141.538C110.509 141.415 110.554 141.273 110.554 141.114ZM115.825 135.761V143.158H113.849V135.761H115.825ZM113.726 133.833C113.726 133.546 113.826 133.309 114.027 133.123C114.227 132.936 114.496 132.842 114.833 132.842C115.166 132.842 115.433 132.936 115.633 133.123C115.838 133.309 115.941 133.546 115.941 133.833C115.941 134.121 115.838 134.358 115.633 134.544C115.433 134.731 115.166 134.825 114.833 134.825C114.496 134.825 114.227 134.731 114.027 134.544C113.826 134.358 113.726 134.121 113.726 133.833ZM119.379 137.34V143.158H117.411V135.761H119.256L119.379 137.34ZM119.092 139.2H118.559C118.559 138.653 118.63 138.161 118.771 137.723C118.912 137.281 119.11 136.905 119.366 136.595C119.621 136.281 119.924 136.042 120.275 135.877C120.63 135.709 121.027 135.625 121.464 135.625C121.811 135.625 122.127 135.675 122.415 135.775C122.702 135.875 122.948 136.035 123.153 136.253C123.362 136.472 123.522 136.762 123.631 137.122C123.745 137.482 123.802 137.921 123.802 138.441V143.158H121.82V138.434C121.82 138.106 121.774 137.851 121.683 137.668C121.592 137.486 121.457 137.359 121.28 137.286C121.107 137.208 120.892 137.169 120.637 137.169C120.373 137.169 120.143 137.222 119.947 137.327C119.755 137.431 119.596 137.577 119.468 137.764C119.345 137.946 119.252 138.161 119.188 138.407C119.124 138.653 119.092 138.917 119.092 139.2ZM128.704 143.294C128.129 143.294 127.614 143.203 127.159 143.021C126.703 142.834 126.316 142.577 125.997 142.249C125.682 141.92 125.441 141.54 125.272 141.107C125.103 140.669 125.019 140.205 125.019 139.712V139.439C125.019 138.878 125.099 138.366 125.258 137.901C125.418 137.436 125.646 137.033 125.942 136.691C126.243 136.349 126.607 136.087 127.036 135.905C127.464 135.718 127.947 135.625 128.485 135.625C129.009 135.625 129.474 135.711 129.879 135.884C130.285 136.057 130.624 136.304 130.898 136.623C131.176 136.942 131.386 137.324 131.527 137.771C131.668 138.213 131.739 138.705 131.739 139.248V140.068H125.86V138.755H129.804V138.605C129.804 138.332 129.754 138.088 129.654 137.874C129.558 137.655 129.412 137.482 129.216 137.354C129.02 137.226 128.77 137.163 128.464 137.163C128.205 137.163 127.981 137.22 127.794 137.333C127.608 137.447 127.455 137.607 127.336 137.812C127.222 138.017 127.136 138.259 127.077 138.537C127.022 138.81 126.995 139.111 126.995 139.439V139.712C126.995 140.009 127.036 140.282 127.118 140.533C127.204 140.783 127.325 141 127.48 141.182C127.639 141.364 127.831 141.506 128.054 141.606C128.282 141.706 128.54 141.756 128.827 141.756C129.182 141.756 129.513 141.688 129.818 141.551C130.128 141.41 130.394 141.198 130.618 140.916L131.575 141.955C131.42 142.178 131.208 142.392 130.939 142.597C130.675 142.802 130.356 142.971 129.982 143.103C129.608 143.231 129.182 143.294 128.704 143.294ZM136.859 141.114C136.859 140.972 136.818 140.845 136.736 140.731C136.654 140.617 136.501 140.512 136.278 140.417C136.059 140.316 135.742 140.225 135.328 140.143C134.954 140.061 134.605 139.958 134.282 139.835C133.963 139.708 133.685 139.555 133.448 139.377C133.215 139.2 133.033 138.99 132.901 138.749C132.769 138.502 132.703 138.222 132.703 137.908C132.703 137.598 132.769 137.306 132.901 137.033C133.038 136.759 133.231 136.518 133.482 136.308C133.737 136.094 134.047 135.928 134.412 135.809C134.781 135.686 135.195 135.625 135.656 135.625C136.298 135.625 136.85 135.727 137.31 135.932C137.775 136.137 138.13 136.42 138.376 136.78C138.627 137.135 138.752 137.541 138.752 137.997H136.784C136.784 137.805 136.743 137.634 136.661 137.484C136.583 137.329 136.46 137.208 136.291 137.122C136.127 137.03 135.913 136.985 135.649 136.985C135.43 136.985 135.241 137.024 135.082 137.101C134.922 137.174 134.799 137.274 134.712 137.402C134.63 137.525 134.589 137.662 134.589 137.812C134.589 137.926 134.612 138.028 134.658 138.12C134.708 138.206 134.788 138.286 134.897 138.359C135.006 138.432 135.148 138.5 135.321 138.564C135.499 138.623 135.717 138.678 135.977 138.728C136.51 138.837 136.986 138.981 137.406 139.159C137.825 139.332 138.158 139.569 138.404 139.87C138.65 140.166 138.773 140.556 138.773 141.039C138.773 141.367 138.7 141.667 138.554 141.941C138.408 142.214 138.199 142.454 137.925 142.659C137.652 142.859 137.324 143.016 136.941 143.13C136.563 143.24 136.137 143.294 135.663 143.294C134.974 143.294 134.391 143.171 133.913 142.925C133.439 142.679 133.079 142.367 132.832 141.989C132.591 141.606 132.47 141.214 132.47 140.813H134.336C134.346 141.082 134.414 141.298 134.541 141.462C134.674 141.626 134.84 141.745 135.04 141.818C135.246 141.891 135.467 141.927 135.704 141.927C135.959 141.927 136.171 141.893 136.339 141.825C136.508 141.752 136.636 141.656 136.722 141.538C136.813 141.415 136.859 141.273 136.859 141.114ZM144.05 141.114C144.05 140.972 144.009 140.845 143.927 140.731C143.845 140.617 143.693 140.512 143.469 140.417C143.25 140.316 142.934 140.225 142.519 140.143C142.145 140.061 141.797 139.958 141.473 139.835C141.154 139.708 140.876 139.555 140.639 139.377C140.407 139.2 140.224 138.99 140.092 138.749C139.96 138.502 139.894 138.222 139.894 137.908C139.894 137.598 139.96 137.306 140.092 137.033C140.229 136.759 140.423 136.518 140.673 136.308C140.929 136.094 141.238 135.928 141.603 135.809C141.972 135.686 142.387 135.625 142.847 135.625C143.49 135.625 144.041 135.727 144.501 135.932C144.966 136.137 145.322 136.42 145.568 136.78C145.818 137.135 145.944 137.541 145.944 137.997H143.975C143.975 137.805 143.934 137.634 143.852 137.484C143.775 137.329 143.651 137.208 143.483 137.122C143.319 137.03 143.105 136.985 142.84 136.985C142.622 136.985 142.432 137.024 142.273 137.101C142.113 137.174 141.99 137.274 141.904 137.402C141.822 137.525 141.781 137.662 141.781 137.812C141.781 137.926 141.804 138.028 141.849 138.12C141.899 138.206 141.979 138.286 142.088 138.359C142.198 138.432 142.339 138.5 142.512 138.564C142.69 138.623 142.909 138.678 143.168 138.728C143.702 138.837 144.178 138.981 144.597 139.159C145.016 139.332 145.349 139.569 145.595 139.87C145.841 140.166 145.964 140.556 145.964 141.039C145.964 141.367 145.891 141.667 145.746 141.941C145.6 142.214 145.39 142.454 145.117 142.659C144.843 142.859 144.515 143.016 144.132 143.13C143.754 143.24 143.328 143.294 142.854 143.294C142.166 143.294 141.582 143.171 141.104 142.925C140.63 142.679 140.27 142.367 140.024 141.989C139.782 141.606 139.662 141.214 139.662 140.813H141.528C141.537 141.082 141.605 141.298 141.733 141.462C141.865 141.626 142.031 141.745 142.232 141.818C142.437 141.891 142.658 141.927 142.895 141.927C143.15 141.927 143.362 141.893 143.531 141.825C143.699 141.752 143.827 141.656 143.914 141.538C144.005 141.415 144.05 141.273 144.05 141.114ZM149.464 133.205L149.239 140.116H147.598L147.366 133.205H149.464ZM147.311 142.255C147.311 141.964 147.411 141.722 147.612 141.531C147.817 141.335 148.086 141.237 148.418 141.237C148.756 141.237 149.025 141.335 149.225 141.531C149.426 141.722 149.526 141.964 149.526 142.255C149.526 142.538 149.426 142.777 149.225 142.973C149.025 143.169 148.756 143.267 148.418 143.267C148.086 143.267 147.817 143.169 147.612 142.973C147.411 142.777 147.311 142.538 147.311 142.255Z" fill="#666666"/>
<path d="M75.2034 88.4385C75.2034 88.2354 75.1721 88.0531 75.1096 87.8916C75.0523 87.7249 74.943 87.5739 74.7815 87.4385C74.62 87.2979 74.3935 87.1598 74.1018 87.0244C73.8101 86.889 73.4325 86.7484 72.969 86.6025C72.4534 86.4359 71.9638 86.2484 71.5002 86.04C71.0419 85.8317 70.6357 85.5895 70.2815 85.3135C69.9325 85.0322 69.6565 84.7067 69.4534 84.3369C69.2555 83.9671 69.1565 83.5374 69.1565 83.0479C69.1565 82.5739 69.2607 82.1442 69.469 81.7588C69.6773 81.3682 69.969 81.0348 70.344 80.7588C70.719 80.4775 71.1617 80.2614 71.6721 80.1104C72.1877 79.9593 72.7528 79.8838 73.3674 79.8838C74.206 79.8838 74.9377 80.0348 75.5627 80.3369C76.1877 80.639 76.6721 81.0531 77.0159 81.5791C77.3648 82.1051 77.5393 82.7067 77.5393 83.3838H75.2112C75.2112 83.0505 75.1409 82.7588 75.0002 82.5088C74.8648 82.2536 74.6565 82.0531 74.3752 81.9072C74.0992 81.7614 73.7502 81.6885 73.3284 81.6885C72.9221 81.6885 72.5836 81.751 72.3127 81.876C72.0419 81.9958 71.8388 82.1598 71.7034 82.3682C71.568 82.5713 71.5002 82.8005 71.5002 83.0557C71.5002 83.2484 71.5471 83.4229 71.6409 83.5791C71.7398 83.7354 71.8857 83.8812 72.0784 84.0166C72.2711 84.152 72.5081 84.2796 72.7893 84.3994C73.0706 84.5192 73.3961 84.6364 73.7659 84.751C74.3857 84.9385 74.9299 85.1494 75.3987 85.3838C75.8726 85.6182 76.2685 85.8812 76.5862 86.1729C76.9039 86.4645 77.1435 86.7952 77.3049 87.165C77.4664 87.5348 77.5471 87.9541 77.5471 88.4229C77.5471 88.9176 77.4508 89.3604 77.2581 89.751C77.0653 90.1416 76.7867 90.4723 76.4221 90.7432C76.0575 91.014 75.6226 91.2197 75.1174 91.3604C74.6122 91.501 74.0471 91.5713 73.4221 91.5713C72.8596 91.5713 72.3049 91.4984 71.7581 91.3525C71.2112 91.2015 70.7138 90.9749 70.2659 90.6729C69.8232 90.3708 69.469 89.9854 69.2034 89.5166C68.9377 89.0479 68.8049 88.4932 68.8049 87.8525H71.1565C71.1565 88.2067 71.2112 88.5062 71.3206 88.751C71.4299 88.9958 71.5836 89.1937 71.7815 89.3447C71.9846 89.4958 72.2242 89.6051 72.5002 89.6729C72.7815 89.7406 73.0888 89.7744 73.4221 89.7744C73.8284 89.7744 74.1617 89.7171 74.4221 89.6025C74.6877 89.488 74.8831 89.3291 75.0081 89.126C75.1383 88.9229 75.2034 88.6937 75.2034 88.4385ZM84.2268 80.04V91.415H81.8909V80.04H84.2268ZM87.7268 80.04V81.876H78.4456V80.04H87.7268ZM96.6956 89.5869V91.415H90.6409V89.5869H96.6956ZM91.4065 80.04V91.415H89.0627V80.04H91.4065ZM95.9065 84.6729V86.4541H90.6409V84.6729H95.9065ZM96.6877 80.04V81.876H90.6409V80.04H96.6877ZM102.492 87.3604H99.594V85.5322H102.492C102.94 85.5322 103.305 85.4593 103.586 85.3135C103.867 85.1624 104.073 84.9541 104.203 84.6885C104.334 84.4229 104.399 84.1234 104.399 83.79C104.399 83.4515 104.334 83.1364 104.203 82.8447C104.073 82.5531 103.867 82.3187 103.586 82.1416C103.305 81.9645 102.94 81.876 102.492 81.876H100.406V91.415H98.0627V80.04H102.492C103.383 80.04 104.146 80.2015 104.781 80.5244C105.422 80.8421 105.912 81.2822 106.25 81.8447C106.589 82.4072 106.758 83.0505 106.758 83.7744C106.758 84.5088 106.589 85.1442 106.25 85.6807C105.912 86.2171 105.422 86.6312 104.781 86.9229C104.146 87.2145 103.383 87.3604 102.492 87.3604ZM116.11 87.165V88.9307H107.914L107.805 87.5635L112.547 80.04H114.336L112.399 83.2822L110.039 87.165H116.11ZM114.821 80.04V91.415H112.571V80.04H114.821ZM117.531 90.3291C117.531 89.9958 117.646 89.7171 117.875 89.4932C118.11 89.2692 118.42 89.1572 118.805 89.1572C119.19 89.1572 119.498 89.2692 119.727 89.4932C119.961 89.7171 120.078 89.9958 120.078 90.3291C120.078 90.6624 119.961 90.9411 119.727 91.165C119.498 91.389 119.19 91.501 118.805 91.501C118.42 91.501 118.11 91.389 117.875 91.165C117.646 90.9411 117.531 90.6624 117.531 90.3291ZM125.3 84.951V86.471H133.06V84.951H125.3ZM125.06 87.687V89.255H133.316V87.687H125.06ZM129.86 85.431V92.567H131.54V85.431H129.86ZM126.74 85.495V88.551C126.74 89.367 126.388 90.919 125.028 91.751C125.428 92.007 126.004 92.519 126.26 92.855C127.94 91.703 128.372 89.591 128.372 88.567V85.495H126.74ZM123.396 80.631V81.879H127.428V80.631H123.396ZM130.82 80.631V81.879H134.868V80.631H130.82ZM134.116 78.439V90.599C134.116 90.839 134.036 90.935 133.78 90.935C133.54 90.935 132.74 90.935 132.036 90.903C132.292 91.399 132.548 92.295 132.596 92.807C133.828 92.823 134.66 92.775 135.252 92.455C135.828 92.135 136.004 91.591 136.004 90.631V78.439H134.116ZM123.572 78.439V79.815H126.836V82.759H123.572V84.135H128.644V78.439H123.572ZM135.092 78.439H129.684V84.167H135.092V82.791H131.508V79.815H135.092V78.439ZM122.436 78.439V92.855H124.324V78.439H122.436ZM141.572 84.071H137.7V85.847H139.748V89.959H141.572V84.071ZM141.572 89.207H139.908C139.14 89.799 138.244 90.375 137.492 90.807L138.372 92.711C139.284 92.039 140.036 91.415 140.772 90.791C141.732 92.023 143.012 92.487 144.932 92.567C146.9 92.663 150.308 92.631 152.292 92.535C152.388 91.975 152.676 91.095 152.884 90.663C150.676 90.839 146.868 90.887 144.964 90.791C143.316 90.727 142.212 90.279 141.572 89.207ZM137.924 79.399C138.916 80.135 140.116 81.255 140.628 82.023L142.068 80.647C141.492 79.879 140.244 78.839 139.252 78.167L137.924 79.399ZM144.404 80.935C145.876 81.511 147.86 82.423 148.836 83.031L150.148 81.895C149.06 81.271 147.044 80.407 145.62 79.911L144.404 80.935ZM142.948 81.847V90.135H144.756V83.239H151.092V81.847H142.948ZM150.196 81.847V88.455C150.196 88.631 150.148 88.695 149.956 88.695C149.796 88.695 149.236 88.695 148.724 88.679C148.932 89.095 149.14 89.719 149.204 90.183C150.164 90.183 150.868 90.183 151.364 89.911C151.892 89.655 152.02 89.255 152.02 88.471V81.847H150.196ZM143.092 78.359V79.815H150.724V78.359H143.092ZM143.956 84.103V85.431H150.82V84.103H143.956ZM143.956 86.343V87.735H150.82V86.343H143.956ZM146.596 82.503V90.071H148.308V82.503H146.596ZM150.036 78.359V78.695C149.428 79.431 148.036 80.439 146.836 81.015C147.108 81.271 147.572 81.767 147.796 82.087C149.268 81.383 150.852 80.247 151.988 79.191L150.852 78.263L150.468 78.359H150.036Z" fill="#1A374D"/>
</svg>
