<svg width="198" height="173" viewBox="0 0 198 173" fill="none" xmlns="http://www.w3.org/2000/svg">
<path d="M58.1135 84.3237C58.1135 84.0952 58.0784 83.8901 58.0081 83.7085C57.9436 83.521 57.8206 83.3511 57.6389 83.1987C57.4573 83.0405 57.2024 82.8853 56.8743 82.7329C56.5461 82.5806 56.1213 82.4224 55.5999 82.2583C55.0198 82.0708 54.469 81.8599 53.9475 81.6255C53.4319 81.3911 52.9749 81.1187 52.5764 80.8081C52.1838 80.4917 51.8733 80.1255 51.6448 79.7095C51.4221 79.2935 51.3108 78.8101 51.3108 78.2593C51.3108 77.7261 51.428 77.2427 51.6624 76.8091C51.8967 76.3696 52.2249 75.9946 52.6467 75.6841C53.0686 75.3677 53.5667 75.1245 54.1409 74.9546C54.7209 74.7847 55.3567 74.6997 56.0481 74.6997C56.9915 74.6997 57.8147 74.8696 58.5178 75.2095C59.2209 75.5493 59.7659 76.0151 60.1526 76.6069C60.5452 77.1987 60.7415 77.8755 60.7415 78.6372H58.1223C58.1223 78.2622 58.0432 77.9341 57.885 77.6528C57.7327 77.3657 57.4983 77.1401 57.1819 76.9761C56.8713 76.812 56.4788 76.73 56.0042 76.73C55.5471 76.73 55.1663 76.8003 54.8616 76.9409C54.5569 77.0757 54.3284 77.2603 54.176 77.4946C54.0237 77.7231 53.9475 77.981 53.9475 78.2681C53.9475 78.4849 54.0002 78.6812 54.1057 78.8569C54.217 79.0327 54.3811 79.1968 54.5979 79.3491C54.8147 79.5015 55.0813 79.645 55.3977 79.7798C55.7141 79.9146 56.0803 80.0464 56.4963 80.1753C57.1936 80.3862 57.8059 80.6235 58.3333 80.8872C58.8665 81.1509 59.3118 81.4468 59.6692 81.7749C60.0266 82.103 60.2961 82.4751 60.4778 82.8911C60.6594 83.3071 60.7502 83.7788 60.7502 84.3062C60.7502 84.8628 60.6418 85.3608 60.425 85.8003C60.2083 86.2397 59.8948 86.6118 59.4846 86.9165C59.0745 87.2212 58.5852 87.4526 58.0168 87.6108C57.4485 87.769 56.8127 87.8481 56.1096 87.8481C55.4768 87.8481 54.8528 87.7661 54.2375 87.6021C53.6223 87.4321 53.0627 87.1772 52.5588 86.8374C52.0608 86.4976 51.6624 86.064 51.3635 85.5366C51.0647 85.0093 50.9153 84.3853 50.9153 83.6646H53.5608C53.5608 84.063 53.6223 84.3999 53.7454 84.6753C53.8684 84.9507 54.0413 85.1733 54.2639 85.3433C54.4924 85.5132 54.762 85.6362 55.0725 85.7124C55.3889 85.7886 55.7346 85.8267 56.1096 85.8267C56.5667 85.8267 56.9417 85.7622 57.2346 85.6333C57.5334 85.5044 57.7532 85.3257 57.8938 85.0972C58.0403 84.8687 58.1135 84.6108 58.1135 84.3237ZM68.2649 74.8755V87.6724H65.637V74.8755H68.2649ZM72.2024 74.8755V76.9409H61.761V74.8755H72.2024ZM82.2922 85.6157V87.6724H75.4807V85.6157H82.2922ZM76.342 74.8755V87.6724H73.7053V74.8755H76.342ZM81.4045 80.0874V82.0913H75.4807V80.0874H81.4045ZM82.2834 74.8755V76.9409H75.4807V74.8755H82.2834ZM88.8137 83.1108H85.553V81.0542H88.8137C89.3176 81.0542 89.7278 80.9722 90.0442 80.8081C90.3606 80.6382 90.592 80.4038 90.7385 80.105C90.885 79.8062 90.9583 79.4692 90.9583 79.0942C90.9583 78.7134 90.885 78.3589 90.7385 78.0308C90.592 77.7026 90.3606 77.439 90.0442 77.2397C89.7278 77.0405 89.3176 76.9409 88.8137 76.9409H86.467V87.6724H83.8303V74.8755H88.8137C89.8157 74.8755 90.6741 75.0571 91.3889 75.4204C92.1096 75.7778 92.6604 76.2729 93.0413 76.9058C93.4221 77.5386 93.6125 78.2622 93.6125 79.0767C93.6125 79.9028 93.4221 80.6177 93.0413 81.2212C92.6604 81.8247 92.1096 82.2905 91.3889 82.6187C90.6741 82.9468 89.8157 83.1108 88.8137 83.1108ZM103.922 85.6948V87.6724H95.1682V85.9849L99.3079 81.5464C99.7239 81.0835 100.052 80.6763 100.292 80.3247C100.532 79.9673 100.705 79.6479 100.811 79.3667C100.922 79.0796 100.978 78.8071 100.978 78.5493C100.978 78.1626 100.913 77.8315 100.784 77.5562C100.656 77.2749 100.465 77.0581 100.213 76.9058C99.967 76.7534 99.6624 76.6772 99.2991 76.6772C98.9124 76.6772 98.5784 76.771 98.2971 76.9585C98.0217 77.146 97.8108 77.4067 97.6643 77.7407C97.5237 78.0747 97.4534 78.4526 97.4534 78.8745H94.9133C94.9133 78.1128 95.095 77.4155 95.4583 76.7827C95.8215 76.144 96.3342 75.6372 96.9963 75.2622C97.6584 74.8813 98.4436 74.6909 99.3518 74.6909C100.248 74.6909 101.004 74.8374 101.619 75.1304C102.24 75.4175 102.709 75.8335 103.026 76.3784C103.348 76.9175 103.509 77.562 103.509 78.312C103.509 78.7339 103.442 79.147 103.307 79.5513C103.172 79.9497 102.979 80.3481 102.727 80.7466C102.481 81.1392 102.182 81.5376 101.83 81.9419C101.479 82.3462 101.089 82.7651 100.661 83.1987L98.4377 85.6948H103.922ZM105.733 86.4507C105.733 86.0757 105.862 85.7622 106.119 85.5103C106.383 85.2583 106.732 85.1323 107.165 85.1323C107.599 85.1323 107.945 85.2583 108.202 85.5103C108.466 85.7622 108.598 86.0757 108.598 86.4507C108.598 86.8257 108.466 87.1392 108.202 87.3911C107.945 87.6431 107.599 87.769 107.165 87.769C106.732 87.769 106.383 87.6431 106.119 87.3911C105.862 87.1392 105.733 86.8257 105.733 86.4507ZM116.362 78.8164L117.19 80.4364C118.126 79.9504 119.206 79.3744 120.196 78.7984L119.746 77.2684C118.468 77.8804 117.244 78.4744 116.362 78.8164ZM116.704 73.8664C117.424 74.5144 118.234 75.4324 118.594 76.0804L119.998 74.9464C119.62 74.2984 118.774 73.4344 118.018 72.8404L116.704 73.8664ZM120.97 74.1364V75.8464H126.136V74.1364H120.97ZM118.9 86.6284V88.5364H124.84V86.6284H118.9ZM117.91 82.3084V89.3104H119.926V84.1984H123.868V89.2564H125.992V82.3084H117.91ZM121.06 72.3724C120.682 74.0644 119.98 75.7564 119.008 76.8184C119.458 77.0704 120.232 77.6104 120.592 77.9164C121.6 76.6924 122.446 74.7484 122.932 72.7684L121.06 72.3724ZM125.578 74.1364V74.3704C125.416 75.3784 125.128 76.6564 124.912 77.4304L126.46 77.7364C126.766 76.8724 127.126 75.5224 127.396 74.3344L126.118 74.1004L125.83 74.1364H125.578ZM123.256 74.8024H122.194V76.7824C122.194 77.6284 121.654 79.4824 118.702 80.5084C119.062 80.8864 119.53 81.5884 119.746 82.0204C121.78 81.3364 122.95 79.8064 123.238 78.8704C123.526 79.8064 124.552 81.4084 126.406 82.0384C126.676 81.5704 127.18 80.8684 127.522 80.4364C124.732 79.4464 124.264 77.6464 124.264 76.7644V74.8024H123.256ZM111.178 77.9164V79.5364H116.2V77.9164H111.178ZM111.286 72.9484V74.5864H116.146V72.9484H111.286ZM111.178 80.3644V82.0024H116.2V80.3644H111.178ZM110.368 75.3784V77.0884H116.794V75.3784H110.368ZM112.168 82.8664V84.5584H114.472V86.6104H112.168V88.3024H116.236V82.8664H112.168ZM111.124 82.8664V89.0584H112.888V82.8664H111.124ZM136.864 81.1384V82.6864H140.446V81.1384H136.864ZM137.08 75.0364V77.0164H143.578V75.0364H137.08ZM137.08 78.4204V80.0584H139.636V83.8384H137.08V85.4764H141.454V78.4204H137.08ZM135.892 78.4204V86.2864H137.71V78.4204H135.892ZM142.894 75.0364V75.4864C142.786 83.2804 142.66 86.3944 142.156 86.9884C141.958 87.2404 141.76 87.2944 141.436 87.2944C140.968 87.2944 140.014 87.2944 138.934 87.2224C139.294 87.7804 139.564 88.6804 139.6 89.2384C140.626 89.2924 141.688 89.3104 142.354 89.2024C143.074 89.0944 143.542 88.8784 144.01 88.1944C144.676 87.2584 144.802 84.3964 144.946 76.0444C144.946 75.7744 144.946 75.0364 144.946 75.0364H142.894ZM137.206 72.3724C136.594 74.6764 135.46 76.9624 134.038 78.3484C134.542 78.6904 135.442 79.4284 135.82 79.8244C137.296 78.1684 138.61 75.5584 139.384 72.8764L137.206 72.3724ZM129.196 77.9164V79.5364H134.47V77.9164H129.196ZM129.25 72.9484V74.5864H134.416V72.9484H129.25ZM129.196 80.3644V82.0024H134.47V80.3644H129.196ZM128.368 75.3784V77.0884H134.938V75.3784H128.368ZM130.132 82.8664V84.5764H132.688V86.6284H130.132V88.3384H134.488V82.8664H130.132ZM129.16 82.8664V89.0584H130.924V82.8664H129.16Z" fill="#1A374D"/>
<path d="M4.70901 105.483V106.995H11.975V105.483H4.70901ZM2.10501 108.003V109.585H14.649V108.003H2.10501ZM5.49301 109.263C5.28301 111.181 4.90501 112.483 1.69901 113.197C2.07701 113.547 2.51101 114.247 2.67901 114.695C6.37501 113.715 7.04701 111.867 7.31301 109.263H5.49301ZM9.10501 108.997V112.441C9.10501 113.953 9.49701 114.443 11.135 114.443C11.457 114.443 12.605 114.443 12.927 114.443C14.257 114.443 14.705 113.911 14.873 111.867C14.439 111.755 13.711 111.489 13.375 111.223C13.319 112.693 13.235 112.931 12.773 112.931C12.507 112.931 11.597 112.931 11.373 112.931C10.883 112.931 10.799 112.861 10.799 112.413V108.997H9.10501ZM7.43901 101.521V104.055H9.23101V101.521H7.43901ZM2.35701 102.865V106.197H4.06501V104.447H12.577V106.197H14.383V102.865H2.35701ZM17.911 106.771V108.311H21.145V106.771H17.911ZM20.501 106.771V107.023C20.473 109.739 20.417 110.719 20.249 110.943C20.137 111.083 20.011 111.111 19.815 111.111C19.591 111.111 19.115 111.111 18.611 111.055C18.863 111.475 19.045 112.133 19.073 112.623C19.731 112.637 20.333 112.637 20.711 112.581C21.117 112.511 21.397 112.385 21.677 112.035C21.999 111.601 22.069 110.355 22.125 107.387C22.125 107.191 22.139 106.771 22.139 106.771H20.501ZM24.715 102.389C25.499 102.837 26.493 103.523 26.955 104.013L28.033 102.879C27.529 102.417 26.493 101.773 25.723 101.367L24.715 102.389ZM26.367 105.987C25.401 109.235 23.525 111.769 20.837 113.211C21.187 113.547 21.803 114.247 22.055 114.597C24.827 112.889 26.885 110.047 28.061 106.393L26.367 105.987ZM18.009 103.607V105.259H28.803V103.607H18.009ZM16.889 103.607V107.709C16.889 109.543 16.791 111.993 15.713 113.673C16.105 113.869 16.861 114.485 17.141 114.821C18.415 112.931 18.653 109.823 18.653 107.723V103.607H16.889ZM22.573 101.521C22.615 107.905 23.749 114.555 26.801 114.555C28.117 114.555 28.677 113.925 28.943 111.321C28.495 111.153 27.893 110.761 27.515 110.369C27.431 112.133 27.263 112.847 26.941 112.847C25.527 112.847 24.239 107.233 24.337 101.521H22.573ZM30.777 101.885V103.159H34.725V101.885H30.777ZM30.609 105.861V107.135H34.865V105.861H30.609ZM30.609 107.793V109.067H34.865V107.793H30.609ZM29.811 103.803V105.161H35.523V103.803H29.811ZM35.719 104.153V105.721H42.719V104.153H35.719ZM35.383 112.595V114.177H42.943V112.595H35.383ZM36.013 108.255V109.809H42.495V108.255H36.013ZM31.365 109.739V110.985H33.465V112.595H31.365V113.841H35.019V109.739H31.365ZM30.497 109.739V114.471H32.009V109.739H30.497ZM38.337 101.521V104.853H40.017V101.521H38.337ZM38.337 104.755V113.393H40.017V104.755H38.337ZM45.141 102.291V114.681H46.793V103.943H54.941V102.291H45.141ZM54.045 102.291V112.791C54.045 112.959 54.003 113.029 53.835 113.029C53.695 113.029 53.247 113.029 52.841 113.001C53.065 113.435 53.289 114.191 53.331 114.639C54.143 114.639 54.717 114.597 55.151 114.317C55.599 114.023 55.711 113.561 55.711 112.819V102.291H54.045ZM43.797 107.345V108.983H56.957V107.345H43.797ZM48.109 102.837V114.443H49.663V102.837H48.109ZM51.035 102.837V114.443H52.617V102.837H51.035ZM60.079 115.325C61.815 114.807 62.851 113.519 62.851 111.937C62.851 110.761 62.319 110.005 61.339 110.005C60.583 110.005 59.953 110.481 59.953 111.265C59.953 112.077 60.597 112.525 61.297 112.525C61.605 112.525 61.899 112.427 62.123 112.217L61.353 110.957L61.451 112.343C61.451 113.141 60.807 113.827 59.631 114.205L60.079 115.325ZM73.2022 103.44H74.9385L77.4952 110.748L80.0518 103.44H81.7881L78.1924 113.393H76.7979L73.2022 103.44ZM72.2657 103.44H73.9952L74.3096 110.563V113.393H72.2657V103.44ZM80.9952 103.44H82.7315V113.393H80.6807V110.563L80.9952 103.44ZM88.3985 111.725V108.43C88.3985 108.193 88.3598 107.99 88.2823 107.822C88.2048 107.649 88.084 107.514 87.92 107.418C87.7605 107.323 87.5531 107.275 87.2979 107.275C87.0792 107.275 86.89 107.314 86.7305 107.391C86.571 107.464 86.448 107.571 86.3614 107.712C86.2748 107.849 86.2315 108.011 86.2315 108.198H84.2628C84.2628 107.883 84.3357 107.585 84.4815 107.302C84.6273 107.02 84.8393 106.771 85.1172 106.557C85.3952 106.338 85.7256 106.167 86.1085 106.044C86.4958 105.921 86.9288 105.86 87.4073 105.86C87.9815 105.86 88.4919 105.956 88.9385 106.147C89.3852 106.338 89.7361 106.625 89.9913 107.008C90.251 107.391 90.3809 107.87 90.3809 108.444V111.609C90.3809 112.014 90.406 112.347 90.4561 112.607C90.5062 112.862 90.5792 113.085 90.6749 113.277V113.393H88.6856C88.5899 113.193 88.517 112.942 88.4669 112.641C88.4213 112.336 88.3985 112.03 88.3985 111.725ZM88.6583 108.888L88.6719 110.002H87.5714C87.3116 110.002 87.086 110.032 86.8946 110.091C86.7032 110.151 86.546 110.235 86.4229 110.344C86.2999 110.449 86.2087 110.572 86.1495 110.713C86.0948 110.855 86.0674 111.01 86.0674 111.178C86.0674 111.347 86.1062 111.5 86.1837 111.636C86.2611 111.768 86.3728 111.873 86.5186 111.951C86.6644 112.024 86.8353 112.06 87.0313 112.06C87.3275 112.06 87.585 112.001 87.8038 111.882C88.0225 111.764 88.1911 111.618 88.3096 111.445C88.4327 111.272 88.4965 111.108 88.501 110.953L89.0206 111.787C88.9477 111.973 88.8474 112.167 88.7198 112.368C88.5967 112.568 88.4395 112.757 88.2481 112.935C88.0567 113.108 87.8266 113.252 87.5577 113.366C87.2888 113.475 86.9698 113.53 86.6006 113.53C86.1312 113.53 85.7051 113.436 85.3223 113.25C84.9441 113.058 84.6433 112.796 84.42 112.463C84.2012 112.126 84.0919 111.743 84.0919 111.315C84.0919 110.928 84.1648 110.583 84.3106 110.283C84.4564 109.982 84.6706 109.729 84.9532 109.524C85.2403 109.314 85.598 109.157 86.0264 109.052C86.4548 108.943 86.9516 108.888 87.5167 108.888H88.6583ZM95.8975 111.349C95.8975 111.208 95.8565 111.08 95.7745 110.966C95.6924 110.852 95.5398 110.748 95.3165 110.652C95.0977 110.552 94.781 110.46 94.3663 110.378C93.9926 110.296 93.6439 110.194 93.3204 110.071C93.0014 109.943 92.7234 109.791 92.4864 109.613C92.254 109.435 92.0717 109.225 91.9395 108.984C91.8074 108.738 91.7413 108.458 91.7413 108.143C91.7413 107.833 91.8074 107.542 91.9395 107.268C92.0762 106.995 92.2699 106.753 92.5206 106.543C92.7758 106.329 93.0857 106.163 93.4503 106.044C93.8194 105.921 94.2341 105.86 94.6944 105.86C95.337 105.86 95.8884 105.962 96.3487 106.167C96.8135 106.373 97.169 106.655 97.4151 107.015C97.6658 107.371 97.7911 107.776 97.7911 108.232H95.8223C95.8223 108.041 95.7813 107.87 95.6993 107.719C95.6218 107.564 95.4988 107.444 95.3301 107.357C95.1661 107.266 94.9519 107.22 94.6876 107.22C94.4688 107.22 94.2797 107.259 94.1202 107.336C93.9607 107.409 93.8376 107.51 93.751 107.637C93.669 107.76 93.628 107.897 93.628 108.047C93.628 108.161 93.6508 108.264 93.6964 108.355C93.7465 108.442 93.8262 108.521 93.9356 108.594C94.045 108.667 94.1863 108.736 94.3594 108.799C94.5372 108.859 94.7559 108.913 95.0157 108.963C95.5489 109.073 96.0251 109.216 96.4444 109.394C96.8637 109.567 97.1964 109.804 97.4424 110.105C97.6885 110.401 97.8116 110.791 97.8116 111.274C97.8116 111.602 97.7387 111.903 97.5928 112.176C97.447 112.45 97.2374 112.689 96.9639 112.894C96.6905 113.095 96.3624 113.252 95.9796 113.366C95.6013 113.475 95.1752 113.53 94.7012 113.53C94.0131 113.53 93.4297 113.407 92.9512 113.161C92.4773 112.915 92.1172 112.602 91.8712 112.224C91.6296 111.841 91.5089 111.449 91.5089 111.048H93.3751C93.3842 111.317 93.4525 111.534 93.5801 111.698C93.7123 111.862 93.8786 111.98 94.0792 112.053C94.2842 112.126 94.5053 112.163 94.7422 112.163C94.9975 112.163 95.2094 112.128 95.378 112.06C95.5466 111.987 95.6742 111.891 95.7608 111.773C95.8519 111.65 95.8975 111.509 95.8975 111.349ZM102.713 105.997V107.391H98.4063V105.997H102.713ZM99.4727 104.171H101.441V111.165C101.441 111.379 101.469 111.543 101.523 111.657C101.583 111.771 101.669 111.85 101.783 111.896C101.897 111.937 102.041 111.958 102.214 111.958C102.337 111.958 102.446 111.953 102.542 111.944C102.642 111.93 102.727 111.917 102.795 111.903L102.802 113.352C102.633 113.407 102.451 113.45 102.255 113.482C102.059 113.514 101.843 113.53 101.606 113.53C101.173 113.53 100.794 113.459 100.471 113.318C100.152 113.172 99.9057 112.94 99.7325 112.621C99.5593 112.302 99.4727 111.882 99.4727 111.363V104.171ZM107.238 113.53C106.664 113.53 106.149 113.439 105.693 113.256C105.238 113.069 104.85 112.812 104.531 112.484C104.217 112.156 103.975 111.775 103.807 111.342C103.638 110.905 103.554 110.44 103.554 109.948V109.674C103.554 109.114 103.634 108.601 103.793 108.136C103.953 107.671 104.18 107.268 104.477 106.926C104.777 106.584 105.142 106.322 105.57 106.14C105.999 105.953 106.482 105.86 107.02 105.86C107.544 105.86 108.009 105.946 108.414 106.12C108.82 106.293 109.159 106.539 109.433 106.858C109.711 107.177 109.92 107.56 110.062 108.006C110.203 108.448 110.273 108.941 110.273 109.483V110.303H104.395V108.991H108.339V108.84C108.339 108.567 108.289 108.323 108.189 108.109C108.093 107.89 107.947 107.717 107.751 107.589C107.555 107.462 107.304 107.398 106.999 107.398C106.739 107.398 106.516 107.455 106.329 107.569C106.142 107.683 105.99 107.842 105.871 108.047C105.757 108.252 105.671 108.494 105.611 108.772C105.557 109.045 105.529 109.346 105.529 109.674V109.948C105.529 110.244 105.57 110.517 105.652 110.768C105.739 111.019 105.86 111.235 106.015 111.417C106.174 111.6 106.366 111.741 106.589 111.841C106.817 111.942 107.074 111.992 107.361 111.992C107.717 111.992 108.047 111.923 108.353 111.787C108.662 111.645 108.929 111.433 109.152 111.151L110.109 112.19C109.954 112.413 109.743 112.627 109.474 112.833C109.209 113.038 108.89 113.206 108.517 113.338C108.143 113.466 107.717 113.53 107.238 113.53ZM113.363 107.61V113.393H111.395V105.997H113.247L113.363 107.61ZM115.592 105.949L115.558 107.774C115.462 107.76 115.346 107.749 115.209 107.74C115.077 107.726 114.956 107.719 114.847 107.719C114.569 107.719 114.327 107.756 114.122 107.829C113.922 107.897 113.753 108 113.616 108.136C113.484 108.273 113.384 108.439 113.315 108.635C113.252 108.831 113.215 109.055 113.206 109.305L112.81 109.182C112.81 108.704 112.857 108.264 112.953 107.863C113.049 107.457 113.188 107.104 113.37 106.803C113.557 106.502 113.785 106.27 114.054 106.106C114.323 105.942 114.63 105.86 114.977 105.86C115.086 105.86 115.198 105.869 115.312 105.887C115.426 105.901 115.519 105.921 115.592 105.949ZM120.691 105.142L117.984 113.393H115.804L119.502 103.44H120.89L120.691 105.142ZM122.94 113.393L120.227 105.142L120.008 103.44H121.409L125.128 113.393H122.94ZM122.817 109.688V111.294H117.561V109.688H122.817ZM127.678 107.418V116.237H125.709V105.997H127.534L127.678 107.418ZM132.36 109.613V109.756C132.36 110.294 132.297 110.793 132.169 111.253C132.046 111.714 131.864 112.115 131.622 112.457C131.381 112.794 131.08 113.058 130.72 113.25C130.364 113.436 129.954 113.53 129.489 113.53C129.038 113.53 128.646 113.439 128.314 113.256C127.981 113.074 127.701 112.819 127.473 112.491C127.249 112.158 127.069 111.773 126.933 111.335C126.796 110.898 126.691 110.429 126.618 109.927V109.551C126.691 109.014 126.796 108.521 126.933 108.075C127.069 107.624 127.249 107.234 127.473 106.906C127.701 106.573 127.979 106.316 128.307 106.133C128.639 105.951 129.029 105.86 129.476 105.86C129.945 105.86 130.357 105.949 130.713 106.126C131.073 106.304 131.374 106.559 131.615 106.892C131.861 107.225 132.046 107.621 132.169 108.082C132.297 108.542 132.36 109.052 132.36 109.613ZM130.385 109.756V109.613C130.385 109.298 130.357 109.009 130.303 108.745C130.253 108.476 130.171 108.241 130.057 108.041C129.947 107.84 129.801 107.685 129.619 107.576C129.441 107.462 129.225 107.405 128.97 107.405C128.701 107.405 128.471 107.448 128.279 107.535C128.093 107.621 127.94 107.747 127.821 107.911C127.703 108.075 127.614 108.271 127.555 108.499C127.496 108.726 127.459 108.984 127.445 109.271V110.221C127.468 110.558 127.532 110.861 127.637 111.13C127.742 111.395 127.903 111.604 128.122 111.759C128.341 111.914 128.628 111.992 128.983 111.992C129.243 111.992 129.462 111.935 129.64 111.821C129.817 111.702 129.961 111.541 130.07 111.335C130.184 111.13 130.264 110.893 130.31 110.625C130.36 110.356 130.385 110.066 130.385 109.756ZM135.553 107.418V116.237H133.584V105.997H135.409L135.553 107.418ZM140.235 109.613V109.756C140.235 110.294 140.172 110.793 140.044 111.253C139.921 111.714 139.739 112.115 139.497 112.457C139.256 112.794 138.955 113.058 138.595 113.25C138.239 113.436 137.829 113.53 137.364 113.53C136.913 113.53 136.521 113.439 136.189 113.256C135.856 113.074 135.576 112.819 135.348 112.491C135.124 112.158 134.944 111.773 134.808 111.335C134.671 110.898 134.566 110.429 134.493 109.927V109.551C134.566 109.014 134.671 108.521 134.808 108.075C134.944 107.624 135.124 107.234 135.348 106.906C135.576 106.573 135.854 106.316 136.182 106.133C136.514 105.951 136.904 105.86 137.351 105.86C137.82 105.86 138.232 105.949 138.588 106.126C138.948 106.304 139.249 106.559 139.49 106.892C139.736 107.225 139.921 107.621 140.044 108.082C140.172 108.542 140.235 109.052 140.235 109.613ZM138.26 109.756V109.613C138.26 109.298 138.232 109.009 138.178 108.745C138.128 108.476 138.046 108.241 137.932 108.041C137.822 107.84 137.676 107.685 137.494 107.576C137.316 107.462 137.1 107.405 136.845 107.405C136.576 107.405 136.346 107.448 136.154 107.535C135.968 107.621 135.815 107.747 135.696 107.911C135.578 108.075 135.489 108.271 135.43 108.499C135.371 108.726 135.334 108.984 135.32 109.271V110.221C135.343 110.558 135.407 110.861 135.512 111.13C135.617 111.395 135.778 111.604 135.997 111.759C136.216 111.914 136.503 111.992 136.858 111.992C137.118 111.992 137.337 111.935 137.515 111.821C137.692 111.702 137.836 111.541 137.945 111.335C138.059 111.13 138.139 110.893 138.185 110.625C138.235 110.356 138.26 110.066 138.26 109.756ZM141.281 110.355V111.685H154.105V110.355H141.281ZM141.673 102.403V103.677H153.601V102.403H141.673ZM149.331 109.543V112.987C149.331 113.155 149.261 113.211 149.037 113.225C148.813 113.225 148.001 113.225 147.329 113.197C147.539 113.603 147.749 114.219 147.805 114.653C148.883 114.653 149.667 114.639 150.241 114.429C150.801 114.205 150.955 113.799 150.955 113.043V109.543H149.331ZM146.839 101.507V109.053H148.491V101.507H146.839ZM143.521 112.161C144.291 112.693 145.215 113.491 145.635 114.037L146.867 112.973C146.419 112.427 145.439 111.685 144.669 111.195L143.521 112.161ZM144.361 106.673H151.081V107.205H144.361V106.673ZM144.361 105.189H151.081V105.721H144.361V105.189ZM142.779 104.181V108.227H152.733V104.181H142.779ZM149.667 108.451C150.689 108.885 151.921 109.655 152.579 110.215L153.587 109.361C152.915 108.843 151.683 108.115 150.647 107.695L149.667 108.451ZM141.883 108.745L141.939 109.949C144.627 109.921 148.631 109.851 152.383 109.739L152.453 108.703C148.589 108.745 144.459 108.759 141.883 108.745ZM160.517 101.843C160.419 103.677 160.615 110.075 154.987 113.197C155.561 113.589 156.107 114.107 156.401 114.541C162.127 111.027 162.309 104.195 162.435 101.843H160.517ZM162.379 102.207L160.755 102.375C160.867 103.817 161.133 111.531 167.167 114.527C167.419 114.065 167.923 113.505 168.455 113.099C162.715 110.411 162.421 103.425 162.379 102.207ZM174.181 108.647V110.117H182.161V108.647H174.181ZM177.261 102.585L176.575 103.719H180.523L180.859 102.585H177.261ZM179.011 107.009V112.833C179.011 113.015 178.941 113.057 178.745 113.057C178.521 113.071 177.821 113.071 177.149 113.043C177.359 113.505 177.569 114.191 177.625 114.667C178.675 114.667 179.417 114.639 179.935 114.373C180.481 114.121 180.607 113.659 180.607 112.861V107.009H179.011ZM177.597 101.535C176.785 102.753 175.273 104.027 173.607 104.741C173.929 104.979 174.419 105.469 174.657 105.763C176.379 104.909 178.101 103.481 179.221 101.955L177.597 101.535ZM174.853 110.957C175.427 111.573 176.043 112.441 176.281 113.015L177.667 112.189C177.387 111.615 176.715 110.803 176.141 110.215L174.853 110.957ZM176.463 104.279C177.177 104.713 178.003 105.371 178.367 105.847L179.249 104.993C178.857 104.517 178.003 103.901 177.289 103.509L176.463 104.279ZM174.881 105.315C175.553 105.805 176.323 106.533 176.673 107.037L177.667 106.253C177.303 105.735 176.505 105.049 175.819 104.587L174.881 105.315ZM169.113 108.451V109.893H172.823V108.451H169.113ZM172.207 101.507V114.653H173.761V101.507H172.207ZM169.813 109.053V109.851C169.813 110.859 169.715 112.665 168.959 113.883C169.323 114.037 169.925 114.429 170.191 114.681C171.129 113.253 171.269 111.069 171.269 109.907V109.053H169.813ZM180.271 102.585V102.823C179.347 105.245 176.813 106.855 174.069 107.513C174.349 107.807 174.727 108.353 174.895 108.717C177.961 107.835 180.677 106.127 181.867 103.019L180.845 102.529L180.565 102.585H180.271ZM169.687 102.165V106.841H173.075V105.343H171.129V102.165H169.687ZM186.207 106.603H193.123V108.367H186.207V106.603ZM184.807 105.567V109.403H194.607V105.567H184.807ZM187.215 103.971V105.063H192.157V103.971H187.215ZM188.937 105.903V108.857H190.295V105.903H188.937ZM189.609 102.809C190.967 104.069 193.445 105.371 195.391 106.029C195.643 105.595 196.007 105.021 196.371 104.643C194.201 104.097 191.933 102.991 190.337 101.507H188.741C187.593 102.753 185.297 104.069 183.001 104.755C183.295 105.105 183.687 105.707 183.869 106.085C186.081 105.315 188.363 104.013 189.609 102.809ZM186.697 106.911C186.935 107.401 187.131 108.045 187.187 108.465L188.419 108.101C188.335 107.681 188.111 107.065 187.859 106.589L186.697 106.911ZM191.331 106.533C191.219 106.995 190.953 107.681 190.757 108.143L191.905 108.451C192.129 108.059 192.409 107.471 192.717 106.869L191.331 106.533ZM185.577 109.851V114.653H187.229V110.943H192.143V114.611H193.865V109.851H185.577ZM186.529 111.503V112.609H192.857V111.503H186.529ZM186.529 113.183V114.275H192.857V113.183H186.529ZM1.80522 129.453V131.063H14.2932V129.453H1.80522ZM6.36922 133.989V135.543H13.7052V133.989H6.36922ZM5.82322 138.749V140.303H14.2372V138.749H5.82322ZM9.22522 131.665V139.575H10.9192V131.665H9.22522ZM6.21522 127.493C5.48722 130.321 3.89122 133.457 1.35722 135.109C1.60922 135.515 2.00122 136.257 2.16922 136.733C5.16522 134.689 6.92922 131.287 7.96522 127.913L6.21522 127.493ZM3.41522 133.359V140.625H5.10922V133.359H3.41522ZM18.5212 133.387V134.479H19.7252V133.387H18.5212ZM21.1532 129.061V140.611H22.7632V129.061H21.1532ZM16.3652 131.147V140.611H17.9752V132.715H26.9352V131.147H16.3652ZM26.1092 131.147V138.931C26.1092 139.141 26.0392 139.197 25.8292 139.211C25.6192 139.211 24.9052 139.211 24.3032 139.183C24.5132 139.561 24.7512 140.191 24.8352 140.611C25.8292 140.611 26.5712 140.583 27.0752 140.345C27.5932 140.107 27.7612 139.715 27.7612 138.959V131.147H26.1092ZM19.4032 133.387C19.4032 135.179 19.5292 137.181 20.6212 138.609C20.8032 138.399 21.2372 138.063 21.4752 137.923C20.4392 136.635 20.3412 135.011 20.3412 133.387H19.4032ZM19.2632 134.311C19.0952 135.837 18.6892 137.153 17.8632 138.007C18.1012 138.147 18.5352 138.469 18.7172 138.637C19.5852 137.671 20.0892 136.201 20.3132 134.451L19.2632 134.311ZM24.0792 134.241C23.8972 135.711 23.4912 137.027 22.7212 137.895C22.9872 138.035 23.4072 138.357 23.5892 138.525C24.4012 137.559 24.8912 136.075 25.1152 134.409L24.0792 134.241ZM23.3232 133.387V134.479H24.7372V133.387H23.3232ZM24.1912 133.387C24.1912 135.179 24.3172 137.139 25.3532 138.525C25.5492 138.343 26.0112 138.021 26.2772 137.909C25.2552 136.621 25.1712 135.025 25.1712 133.387H24.1912ZM15.9032 128.291V129.943H28.1812V128.291H15.9032ZM33.7812 128.221V140.639H35.3072V129.677H40.5992V140.527H42.1952V128.221H33.7812ZM35.6712 131.399V132.617H40.2772V131.399H35.6712ZM34.5652 138.357V139.827H41.3692V138.357H34.5652ZM37.2812 129.971V134.465H38.5832V129.971H37.2812ZM37.2392 134.997H38.6672V136.453H37.2392V134.997ZM36.0352 133.835V137.615H39.9412V133.835H36.0352ZM32.0452 127.549C31.4152 129.551 30.3372 131.567 29.1612 132.855C29.4272 133.289 29.8472 134.269 29.9732 134.675C31.4292 133.023 32.7732 130.433 33.5852 128.011L32.0452 127.549ZM30.8972 131.385V140.667H32.4932V129.817L32.4792 129.803L30.8972 131.385ZM44.4352 128.963V130.713H55.6632V128.963H44.4352ZM43.6512 137.993V139.687H56.4612V137.993H43.6512ZM49.0132 129.915V138.665H50.9312V129.915H49.0132ZM63.9232 129.789L63.1392 131.385H70.6432V129.789H63.9232ZM65.7712 132.869V134.395H70.2792V132.869H65.7712ZM65.7572 135.963V137.531H70.4612V135.963H65.7572ZM64.9172 130.321V140.653H66.6392V130.321H64.9172ZM64.2452 127.633C63.6012 129.663 62.4952 131.679 61.2632 132.939C61.6272 133.205 62.2712 133.807 62.5372 134.115C63.8252 132.659 65.0852 130.335 65.8692 128.067L64.2452 127.633ZM60.5492 127.563C59.8352 129.565 58.6172 131.553 57.3292 132.827C57.6232 133.247 58.0992 134.199 58.2532 134.619C59.7932 133.023 61.2632 130.461 62.1732 128.081L60.5492 127.563ZM59.1352 131.427V140.639H60.8292V129.747L60.8152 129.733L59.1352 131.427ZM73.1772 128.347V140.485H74.9132V130.041H81.1432V140.471H82.9492V128.347H73.1772ZM74.3672 133.051V134.717H81.8992V133.051H74.3672ZM74.3532 137.881V139.575H81.8992V137.881H74.3532ZM86.3932 130.629V140.667H88.1012V132.281H96.9072V130.629H86.3932ZM96.0392 130.629V138.679C96.0392 138.889 95.9552 138.973 95.7032 138.973C95.4372 138.987 94.4852 138.987 93.7152 138.945C93.9532 139.407 94.2192 140.163 94.2752 140.653C95.4932 140.653 96.3752 140.625 96.9772 140.359C97.5792 140.093 97.7472 139.603 97.7472 138.707V130.629H96.0392ZM88.9132 128.081V129.551H92.0492V128.081H88.9132ZM90.9572 128.081V128.837H91.2232C91.4052 132.533 92.3292 135.739 95.0872 137.377C95.3532 136.929 95.9272 136.243 96.2912 135.907C93.6732 134.633 92.8752 131.679 92.7492 128.081H90.9572ZM91.0832 131.021C90.7332 133.429 89.6832 135.207 87.7652 136.117C88.1012 136.397 88.6472 137.083 88.8712 137.475C91.0692 136.299 92.1472 134.227 92.6232 131.287L91.0832 131.021ZM108.191 128.319V129.775H110.781V128.319H108.191ZM105.027 128.921V130.293H107.911V128.921H105.027ZM108.359 130.895V132.267H110.725V130.895H108.359ZM108.345 133.471V134.843H110.697V133.471H108.345ZM101.471 130.895V132.267H103.823V130.895H101.471ZM101.485 133.457V134.829H103.823V133.457H101.485ZM100.659 128.431L100.911 136.677H102.409L102.185 129.145C102.409 129.103 102.507 129.047 102.535 128.935L100.659 128.431ZM109.815 128.319C109.843 131.007 109.731 134.493 109.563 136.621H111.131C111.285 134.535 111.355 131.063 111.355 128.319H109.815ZM103.263 127.647C102.717 128.053 101.835 128.585 101.051 128.963C101.233 129.285 101.471 129.817 101.555 130.125C102.465 129.789 103.571 129.327 104.523 128.851L103.263 127.647ZM104.313 133.023V136.509H105.643V133.023H104.313ZM104.341 127.675V132.561H107.253V131.259H105.769V127.675H104.341ZM106.427 131.259V136.551H107.855V131.259H106.427ZM99.5812 135.991V137.545H112.531V135.991H99.5812ZM106.973 138.469C108.387 139.141 109.955 140.065 110.823 140.681L112.503 139.533C111.495 138.931 109.745 138.035 108.233 137.349L106.973 138.469ZM103.543 137.377C102.647 138.077 100.967 139.001 99.6232 139.505C100.043 139.813 100.617 140.331 100.925 140.667C102.213 140.121 103.893 139.225 105.027 138.441L103.543 137.377ZM119.363 127.521C118.957 128.739 118.215 129.915 117.333 130.671C117.683 130.909 118.285 131.441 118.551 131.735C119.503 130.811 120.385 129.383 120.903 127.899L119.363 127.521ZM119.251 131.105C118.901 132.015 118.299 132.967 117.627 133.597C117.991 133.793 118.649 134.199 118.957 134.451C119.629 133.737 120.357 132.603 120.791 131.511L119.251 131.105ZM119.671 128.697L119.111 130.111H125.243V128.697H119.671ZM121.267 129.775V134.101C121.267 134.255 121.211 134.297 121.043 134.311C120.875 134.311 120.287 134.311 119.755 134.283C119.979 134.689 120.203 135.319 120.273 135.753C121.141 135.753 121.771 135.739 122.247 135.501C122.765 135.263 122.877 134.857 122.877 134.129V129.775H121.267ZM123.185 131.581C123.787 132.519 124.445 133.821 124.711 134.647L126.153 133.961C125.859 133.121 125.215 131.917 124.557 130.993L123.185 131.581ZM124.823 128.697V128.893C124.627 129.705 124.291 130.699 124.025 131.315L125.453 131.595C125.789 130.923 126.195 129.859 126.503 128.907L125.313 128.655L125.061 128.697H124.823ZM117.053 136.285V138.455C117.053 139.925 117.487 140.401 119.279 140.401C119.657 140.401 121.155 140.401 121.533 140.401C122.919 140.401 123.395 139.939 123.577 138.119C123.129 138.021 122.429 137.769 122.093 137.517C122.023 138.735 121.925 138.903 121.393 138.903C121.015 138.903 119.783 138.903 119.489 138.903C118.831 138.903 118.719 138.861 118.719 138.441V136.285H117.053ZM118.243 135.893C119.097 136.397 120.105 137.195 120.553 137.769L121.757 136.705C121.267 136.131 120.217 135.403 119.363 134.941L118.243 135.893ZM122.765 136.817C123.759 137.783 124.753 139.141 125.117 140.093L126.615 139.253C126.195 138.273 125.145 136.985 124.151 136.061L122.765 136.817ZM115.317 136.327C115.009 137.503 114.393 138.595 113.441 139.267L114.841 140.233C115.905 139.421 116.451 138.133 116.829 136.831L115.317 136.327ZM116.591 127.507C115.849 128.963 114.575 130.419 113.301 131.329C113.609 131.637 114.127 132.351 114.309 132.687C115.709 131.567 117.165 129.775 118.075 128.011L116.591 127.507ZM115.387 130.433V135.725H116.997V128.865L116.955 128.851L115.387 130.433ZM127.623 128.039V129.537H132.789V128.039H127.623ZM129.135 131.021V132.379H131.599V131.021H129.135ZM133.195 136.929V138.049H135.295V136.929H133.195ZM137.577 136.929V138.049H139.705V136.929H137.577ZM129.135 133.863V135.235H131.599V133.863H129.135ZM128.253 128.837V137.615H129.639V128.837H128.253ZM130.717 128.823V140.653H132.117V128.823H130.717ZM136.751 134.423V140.653H138.109V134.423H136.751ZM132.747 134.857V138.567H133.965V134.857H132.747ZM138.907 134.857V138.539H140.167V134.857H138.907ZM127.371 137.265L127.651 138.819C128.799 138.609 130.185 138.329 131.515 138.063L131.389 136.621C129.919 136.873 128.421 137.125 127.371 137.265ZM134.735 134.437V136.901C134.735 137.993 134.525 138.973 132.985 139.631C133.265 139.855 133.657 140.401 133.811 140.723C135.785 139.883 136.079 138.497 136.079 136.929V134.437H134.735ZM132.383 133.107L132.537 134.255C133.531 134.171 134.721 134.045 135.925 133.933L135.911 132.855C134.581 132.953 133.307 133.051 132.383 133.107ZM132.551 130.265C133.195 130.797 133.923 131.581 134.231 132.127L134.945 131.049C134.637 130.517 133.881 129.803 133.251 129.285L132.551 130.265ZM135.057 132.197C135.379 132.869 135.631 133.751 135.659 134.311L136.695 133.975C136.653 133.415 136.373 132.561 136.037 131.917L135.057 132.197ZM134.231 127.507C134.007 128.277 133.573 129.397 133.209 130.111L134.091 130.461C134.525 129.831 135.085 128.795 135.589 127.913L134.231 127.507ZM135.267 129.313C134.735 130.545 133.811 132.253 133.013 133.317L133.867 133.681C134.679 132.701 135.701 131.077 136.485 129.747L135.267 129.313ZM136.443 133.065L136.653 134.227C137.633 134.129 138.809 134.003 139.999 133.863L139.971 132.813C138.655 132.911 137.381 133.009 136.443 133.065ZM136.317 130.237C136.989 130.755 137.731 131.539 138.039 132.099L138.753 130.979C138.431 130.433 137.661 129.719 136.975 129.215L136.317 130.237ZM138.949 132.211C139.313 132.967 139.607 133.933 139.663 134.549L140.727 134.185C140.671 133.569 140.335 132.617 139.943 131.889L138.949 132.211ZM138.039 127.507C137.801 128.291 137.353 129.397 136.961 130.111L137.913 130.489C138.361 129.845 138.921 128.823 139.425 127.927L138.039 127.507ZM139.103 129.271C138.585 130.489 137.675 132.211 136.891 133.261L137.773 133.667C138.599 132.673 139.607 131.049 140.405 129.733L139.103 129.271ZM147.139 137.769V140.667H148.805V137.769H147.139ZM144.185 127.493V134.297H145.585V127.493H144.185ZM142.169 133.247V135.011H143.401V133.247H142.169ZM146.747 133.919C146.257 134.395 145.403 135.025 144.731 135.431L145.739 135.991C146.425 135.627 147.293 135.109 148.063 134.535L146.747 133.919ZM149.659 134.535C148.343 135.459 146.173 136.607 144.479 137.265L145.417 137.965C147.097 137.321 149.295 136.285 150.961 135.291L149.659 134.535ZM143.275 135.669C144.269 136.145 145.515 136.901 146.103 137.433L147.265 136.509C146.593 135.963 145.319 135.263 144.353 134.829L143.275 135.669ZM149.911 136.607C151.031 137.181 152.389 138.077 153.033 138.707L154.153 137.825C153.453 137.181 152.053 136.341 150.961 135.809L149.911 136.607ZM149.701 139.015C150.793 139.435 152.249 140.107 152.949 140.569L154.181 139.659C153.397 139.183 151.927 138.567 150.863 138.203L149.701 139.015ZM141.875 137.083L141.917 138.357C144.647 138.315 148.735 138.217 152.557 138.091L152.613 137.041C148.637 137.083 144.437 137.097 141.875 137.083ZM144.843 138.329C144.087 138.791 142.771 139.225 141.581 139.491C141.945 139.743 142.505 140.303 142.771 140.597C143.947 140.233 145.389 139.575 146.299 138.917L144.843 138.329ZM141.875 128.123V128.935H147.951V128.123H141.875ZM149.701 127.899V129.019H152.221V127.899H149.701ZM148.455 130.853V131.945H152.823V130.853H148.455ZM141.749 132.281V133.107H148.007V132.281H141.749ZM143.331 130.909H146.467V131.301H143.331V130.909ZM143.331 129.915H146.467V130.293H143.331V129.915ZM142.155 129.271V131.945H147.699V129.271H142.155ZM148.889 127.899V128.697C148.889 129.201 148.777 129.649 147.853 130.069C148.119 130.265 148.665 130.881 148.833 131.189C150.037 130.559 150.303 129.635 150.303 128.739V127.899H148.889ZM151.507 127.899V128.991C151.507 129.747 151.591 130.013 151.801 130.237C152.011 130.461 152.375 130.559 152.697 130.559C152.893 130.559 153.145 130.559 153.341 130.559C153.551 130.559 153.831 130.517 153.999 130.447C154.195 130.349 154.349 130.209 154.447 130.027C154.545 129.859 154.601 129.439 154.643 129.033C154.307 128.935 153.859 128.711 153.635 128.501C153.621 128.809 153.607 129.047 153.579 129.173C153.551 129.271 153.509 129.327 153.467 129.355C153.425 129.369 153.369 129.369 153.299 129.369C153.229 129.369 153.145 129.369 153.089 129.369C153.019 129.369 152.977 129.355 152.949 129.313C152.921 129.271 152.921 129.159 152.921 128.963V127.899H151.507ZM149.995 131.861L148.721 132.141C149.645 133.891 151.283 134.899 153.789 135.277C153.957 134.899 154.335 134.339 154.643 134.059C152.375 133.821 150.737 133.107 149.995 131.861ZM152.347 130.853V131.021C151.731 132.631 150.023 133.457 147.853 133.751C148.091 134.031 148.385 134.563 148.511 134.899C151.045 134.423 152.963 133.401 153.747 131.105L152.879 130.825L152.627 130.853H152.347ZM146.453 133.247V133.779H142.883V134.605H147.685V133.247H146.453ZM157.737 141.325C159.473 140.807 160.509 139.519 160.509 137.937C160.509 136.761 159.977 136.005 158.997 136.005C158.241 136.005 157.611 136.481 157.611 137.265C157.611 138.077 158.255 138.525 158.955 138.525C159.263 138.525 159.557 138.427 159.781 138.217L159.011 136.957L159.109 138.343C159.109 139.141 158.465 139.827 157.289 140.205L157.737 141.325ZM175.223 132.295V138.665C175.223 138.903 175.111 138.987 174.803 138.987C174.481 138.987 173.333 138.987 172.339 138.945C172.605 139.407 172.927 140.163 173.025 140.653C174.369 140.653 175.377 140.625 176.063 140.373C176.763 140.121 177.001 139.659 177.001 138.707V132.295H175.223ZM170.435 128.487V130.139H180.221V128.487H170.435ZM179.591 128.487V128.893C178.891 129.957 177.239 131.637 175.783 132.561C176.119 132.827 176.665 133.387 176.931 133.751C178.653 132.673 180.501 130.895 181.761 129.355L180.445 128.375L180.039 128.487H179.591ZM185.023 131.105V132.337H188.901V131.105H185.023ZM185.023 133.401V134.591H188.901V133.401H185.023ZM185.023 135.739V136.985H188.901V135.739H185.023ZM191.085 134.157V135.571H196.363V134.157H191.085ZM185.709 128.809V130.069H187.921V128.809H185.709ZM190.035 128.221V129.593H195.229V128.221H190.035ZM190.035 136.831V138.287H196.629V136.831H190.035ZM192.653 132.897V140.611H194.249V132.897H192.653ZM186.535 131.749V136.201H187.655V131.749H186.535ZM194.781 128.221V128.417C194.725 130.447 194.641 131.203 194.487 131.385C194.389 131.511 194.277 131.539 194.095 131.539C193.913 131.539 193.549 131.525 193.101 131.483C193.311 131.847 193.451 132.407 193.479 132.827C194.039 132.855 194.585 132.841 194.893 132.799C195.257 132.743 195.523 132.631 195.747 132.337C196.055 131.973 196.181 131.007 196.251 128.753C196.265 128.571 196.279 128.221 196.279 128.221H194.781ZM190.805 132.995C190.609 134.115 190.231 135.263 189.685 136.005C190.021 136.159 190.637 136.467 190.917 136.663C191.463 135.837 191.925 134.549 192.177 133.261L190.805 132.995ZM185.373 127.493C184.995 129.159 184.253 130.797 183.301 131.833C183.637 132.057 184.239 132.561 184.491 132.827C185.499 131.637 186.367 129.747 186.871 127.815L185.373 127.493ZM184.407 131.105V134.815C184.407 136.397 184.323 138.483 183.371 139.939C183.693 140.079 184.295 140.457 184.547 140.681C185.569 139.099 185.751 136.607 185.751 134.815V131.105H184.407ZM188.453 131.105V139.015C188.453 139.183 188.383 139.239 188.215 139.239C188.047 139.253 187.487 139.253 186.941 139.225C187.137 139.603 187.361 140.247 187.417 140.639C188.271 140.639 188.845 140.611 189.279 140.373C189.699 140.121 189.825 139.701 189.825 139.043V131.105H188.453ZM191.715 128.683C191.575 130.195 191.281 131.385 189.601 132.071C189.937 132.323 190.315 132.869 190.483 133.219C192.569 132.295 193.045 130.727 193.213 128.683H191.715ZM187.529 128.809V129.061C187.361 129.719 187.011 130.755 186.703 131.399C186.997 131.553 187.459 131.833 187.725 132.029C188.159 131.329 188.705 130.223 189.013 129.341L188.061 128.739L187.851 128.809H187.529ZM54.5572 155.663H59.4852V157.553H54.5572V155.663ZM52.9332 154.067V159.149H61.2072V154.067H52.9332ZM51.0152 160.325V166.653H52.5972V161.921H54.6832V166.569H56.3632V160.325H51.0152ZM57.5532 160.325V166.653H59.1632V161.921H61.4032V166.583H63.0972V160.325H57.5532ZM51.7152 164.343V165.953H55.3832V164.343H51.7152ZM58.3232 164.343V165.953H62.2432V164.343H58.3232ZM69.7052 162.481V163.895H77.5032V162.481H69.7052ZM74.0872 160.717V166.667H75.6692V160.717H74.0872ZM72.8272 153.479C72.7012 154.039 72.4212 154.795 72.1692 155.355L73.5132 155.705C73.8352 155.229 74.2832 154.515 74.6892 153.801L72.8272 153.479ZM72.9392 155.565V157.889C72.9392 159.149 72.5892 160.773 70.0832 161.767C70.3912 161.977 70.9092 162.425 71.1472 162.691C73.9052 161.557 74.3532 159.569 74.3532 157.931V155.565H72.9392ZM65.9392 157.189V158.617H69.9292V157.189H65.9392ZM67.5772 153.521V158.043H69.0332V153.521H67.5772ZM66.0232 160.227V161.641H67.8432V166.667H69.3272V160.227H66.0232ZM65.2392 153.871V159.107C65.2392 161.067 65.1272 164.161 64.3432 166.191C64.7492 166.303 65.4212 166.527 65.7432 166.695C66.5272 164.511 66.6812 161.305 66.6812 159.107V153.871H65.2392ZM71.6652 158.197H75.6132V159.163H71.6652V158.197ZM71.6652 156.069H75.6132V157.021H71.6652V156.069ZM70.1812 154.809V160.409H77.1532V154.809H70.1812ZM79.8132 153.969V155.243H90.2012V153.969H79.8132ZM78.8052 160.269V161.571H91.2792V160.269H78.8052ZM80.8352 157.329V158.323H83.7052V157.329H80.8352ZM80.5272 158.771V159.765H83.7052V158.771H80.5272ZM86.2952 158.771V159.779H89.5012V158.771H86.2952ZM86.2952 157.329V158.323H89.1932V157.329H86.2952ZM84.1812 154.473V159.891H85.7912V154.473H84.1812ZM82.8512 163.195V166.541H84.3772V163.195H82.8512ZM85.8612 163.195V166.541H87.3872V163.195H85.8612ZM78.8612 155.747V158.519H80.3452V156.881H89.6692V158.519H91.2232V155.747H78.8612ZM79.8412 162.243V166.611H81.4232V163.559H89.2772V162.243H79.8412ZM88.9132 162.243V165.099C88.9132 165.225 88.8712 165.267 88.7172 165.267C88.5912 165.281 88.1292 165.281 87.7232 165.267C87.9052 165.645 88.1292 166.205 88.1992 166.625C88.9552 166.625 89.5292 166.625 89.9772 166.387C90.4252 166.163 90.5372 165.799 90.5372 165.127V162.243H88.9132ZM84.2092 160.787C84.1252 161.431 83.9152 162.299 83.7192 162.929L85.1892 163.041C85.4412 162.481 85.7772 161.669 86.0432 160.801L84.2092 160.787ZM92.8332 155.621V157.259H105.279V155.621H92.8332ZM99.7352 157.063L98.4052 157.441C99.5812 161.053 101.513 164.133 104.481 165.701C104.761 165.211 105.307 164.539 105.713 164.189C102.843 162.901 100.757 160.129 99.7352 157.063ZM103.361 157.511C102.661 158.561 101.457 159.863 100.561 160.647L101.779 161.571C102.703 160.815 103.893 159.625 104.845 158.561L103.361 157.511ZM100.757 154.501C101.625 154.935 102.773 155.607 103.305 156.083L104.369 154.893C103.767 154.445 102.591 153.829 101.751 153.437L100.757 154.501ZM93.3792 158.603C94.1632 159.359 95.1012 160.437 95.4792 161.151L96.8512 160.157C96.4312 159.429 95.4512 158.421 94.6672 157.721L93.3792 158.603ZM98.1252 153.521V164.581C98.1252 164.847 98.0272 164.917 97.7612 164.931C97.4812 164.931 96.5992 164.931 95.7452 164.889C95.9972 165.393 96.2492 166.177 96.3332 166.667C97.5792 166.667 98.4892 166.625 99.0772 166.331C99.6512 166.051 99.8612 165.575 99.8612 164.595V153.521H98.1252ZM92.3852 163.797L93.4352 165.337C94.6672 164.623 96.2212 163.671 97.6212 162.761L97.0612 161.235C95.3812 162.215 93.5612 163.223 92.3852 163.797ZM115.191 154.319V155.775H117.781V154.319H115.191ZM112.027 154.921V156.293H114.911V154.921H112.027ZM115.359 156.895V158.267H117.725V156.895H115.359ZM115.345 159.471V160.843H117.697V159.471H115.345ZM108.471 156.895V158.267H110.823V156.895H108.471ZM108.485 159.457V160.829H110.823V159.457H108.485ZM107.659 154.431L107.911 162.677H109.409L109.185 155.145C109.409 155.103 109.507 155.047 109.535 154.935L107.659 154.431ZM116.815 154.319C116.843 157.007 116.731 160.493 116.563 162.621H118.131C118.285 160.535 118.355 157.063 118.355 154.319H116.815ZM110.263 153.647C109.717 154.053 108.835 154.585 108.051 154.963C108.233 155.285 108.471 155.817 108.555 156.125C109.465 155.789 110.571 155.327 111.523 154.851L110.263 153.647ZM111.313 159.023V162.509H112.643V159.023H111.313ZM111.341 153.675V158.561H114.253V157.259H112.769V153.675H111.341ZM113.427 157.259V162.551H114.855V157.259H113.427ZM106.581 161.991V163.545H119.531V161.991H106.581ZM113.973 164.469C115.387 165.141 116.955 166.065 117.823 166.681L119.503 165.533C118.495 164.931 116.745 164.035 115.233 163.349L113.973 164.469ZM110.543 163.377C109.647 164.077 107.967 165.001 106.623 165.505C107.043 165.813 107.617 166.331 107.925 166.667C109.213 166.121 110.893 165.225 112.027 164.441L110.543 163.377ZM127.035 161.109V162.621H132.327V161.109H127.035ZM123.927 161.641L122.597 162.159C123.997 165.743 126.559 166.471 130.003 166.471H133.055C133.153 165.995 133.419 165.225 133.643 164.847C132.845 164.875 130.731 164.889 130.101 164.875C127.343 164.875 124.977 164.385 123.927 161.641ZM122.037 154.935V156.475H132.173V154.935H122.037ZM120.791 157.847V159.401H133.265V157.847H120.791ZM126.111 153.507V158.715H127.847V153.507H126.111ZM126.111 158.869V164.875L127.847 165.505V158.869H126.111ZM122.751 159.989C122.541 161.963 121.897 164.343 120.329 165.575C120.693 165.827 121.295 166.345 121.589 166.653C123.311 165.225 124.109 162.551 124.487 160.199L122.751 159.989ZM135.239 155.859V166.639H136.905V157.497H145.781V155.859H135.239ZM145.179 155.859V164.679C145.179 164.931 145.095 165.001 144.829 165.001C144.549 165.015 143.597 165.015 142.771 164.959C143.009 165.407 143.261 166.191 143.331 166.667C144.591 166.667 145.487 166.625 146.089 166.359C146.677 166.093 146.873 165.617 146.873 164.707V155.859H145.179ZM139.845 153.507C139.649 154.417 139.229 155.635 138.837 156.489L140.461 156.853C140.909 156.083 141.511 154.935 142.001 153.815L139.845 153.507ZM138.277 158.855V164.637H139.803V158.855H138.277ZM138.935 158.855V160.325H142.225V162.187H138.935V163.657H143.779V158.855H138.935Z" fill="#666666"/>
<path d="M109.358 35.5292L117.039 43.0666C118.358 44.4177 119.753 45.6922 121.218 46.8838C122.01 47.5073 122.903 48.093 123.86 48.093C124.372 48.0903 124.864 47.8914 125.234 47.5371C125.604 47.1829 125.824 46.7002 125.848 46.1886C125.848 45.346 125.254 44.6508 124.702 44.082C120.627 39.7846 116.374 35.7118 111.945 31.8638C111.136 33.0687 110.323 34.2569 109.358 35.5292Z" fill="white"/>
<path d="M123.86 48.4761C122.786 48.4761 121.846 47.8567 120.991 47.1868C119.515 45.9862 118.109 44.7034 116.777 43.3444L109.097 35.7902C109.033 35.7281 108.995 35.645 108.989 35.5564C108.982 35.4679 109.009 35.3802 109.063 35.3099C110.02 34.0459 110.841 32.8409 111.637 31.6739C111.667 31.6314 111.705 31.5956 111.749 31.5687C111.794 31.5419 111.843 31.5246 111.894 31.518C111.945 31.5117 111.997 31.5159 112.046 31.5304C112.096 31.5449 112.141 31.5693 112.181 31.6023C116.596 35.4278 120.898 39.5441 124.964 43.8205C125.562 44.4525 126.202 45.2109 126.228 46.1883C126.227 46.4765 126.169 46.7618 126.057 47.0273C125.945 47.2928 125.781 47.5333 125.575 47.7346C125.123 48.1983 124.507 48.4649 123.86 48.4761ZM109.834 35.4826L117.283 42.8093C118.593 44.1495 119.977 45.4155 121.429 46.6012C122.179 47.1911 122.992 47.7346 123.847 47.7346C124.291 47.7249 124.714 47.5402 125.023 47.2206C125.161 47.0877 125.271 46.9288 125.347 46.753C125.423 46.5773 125.463 46.3882 125.465 46.1967C125.465 45.4847 124.947 44.8822 124.42 44.3303C120.464 40.1592 116.285 36.1525 112 32.4196C111.342 33.4139 110.639 34.4293 109.834 35.4826Z" fill="black"/>
<path d="M99.3729 7.67578C96.2164 7.67578 93.1308 8.61179 90.5062 10.3655C87.8817 12.1191 85.8361 14.6117 84.6282 17.5279C83.4203 20.4441 83.1042 23.653 83.72 26.7489C84.3358 29.8447 85.8558 32.6885 88.0878 34.9205C90.3198 37.1524 93.1635 38.6724 96.2594 39.2882C99.3552 39.904 102.564 39.588 105.48 38.38C108.397 37.1721 110.889 35.1265 112.643 32.502C114.396 29.8775 115.332 26.7918 115.332 23.6353C115.332 19.4026 113.651 15.3432 110.658 12.3502C107.665 9.35723 103.606 7.67578 99.3729 7.67578ZM99.3729 35.7567C96.9756 35.7567 94.632 35.0458 92.6387 33.7139C90.6453 32.382 89.0917 30.4889 88.1742 28.274C87.2568 26.0591 87.0167 23.6219 87.4844 21.2706C87.9522 18.9193 89.1066 16.7595 90.8018 15.0643C92.497 13.3691 94.6568 12.2146 97.0082 11.7469C99.3595 11.2792 101.797 11.5192 104.012 12.4367C106.226 13.3541 108.12 14.9077 109.451 16.9011C110.783 18.8944 111.494 21.238 111.494 23.6353C111.495 25.228 111.183 26.8054 110.574 28.2772C109.965 29.749 109.073 31.0866 107.947 32.2134C106.822 33.3402 105.485 34.2342 104.014 34.8443C102.543 35.4544 100.966 35.7688 99.3729 35.7693V35.7567ZM99.3729 35.7567C96.9756 35.7567 94.632 35.0458 92.6387 33.7139C90.6453 32.382 89.0917 30.4889 88.1742 28.274C87.2568 26.0591 87.0167 23.6219 87.4844 21.2706C87.9522 18.9193 89.1066 16.7595 90.8018 15.0643C92.497 13.3691 94.6568 12.2146 97.0082 11.7469C99.3595 11.2792 101.797 11.5192 104.012 12.4367C106.226 13.3541 108.12 14.9077 109.451 16.9011C110.783 18.8944 111.494 21.238 111.494 23.6353C111.495 25.228 111.183 26.8054 110.574 28.2772C109.965 29.749 109.073 31.0866 107.947 32.2134C106.822 33.3402 105.485 34.2342 104.014 34.8443C102.543 35.4544 100.966 35.7688 99.3729 35.7693V35.7567Z" fill="white"/>
<path d="M99.3728 39.974C96.1438 39.974 92.9873 39.0165 90.3024 37.2226C87.6176 35.4286 85.5251 32.8788 84.2894 29.8956C83.0537 26.9124 82.7304 23.6298 83.3603 20.4628C83.9903 17.2959 85.5452 14.3868 87.8285 12.1036C90.1117 9.82034 93.0207 8.26543 96.1877 7.63549C99.3546 7.00554 102.637 7.32885 105.621 8.56454C108.604 9.80022 111.153 11.8928 112.947 14.5776C114.741 17.2624 115.699 20.4189 115.699 23.6479C115.693 27.9761 113.971 32.1255 110.911 35.186C107.85 38.2466 103.701 39.9684 99.3728 39.974ZM99.3728 8.05488C96.2896 8.05488 93.2756 8.96915 90.7121 10.6821C88.1485 12.395 86.1505 14.8296 84.9706 17.6781C83.7907 20.5266 83.482 23.661 84.0835 26.6849C84.685 29.7088 86.1697 32.4865 88.3498 34.6666C90.53 36.8468 93.3076 38.3314 96.3315 38.9329C99.3555 39.5344 102.49 39.2257 105.338 38.0459C108.187 36.866 110.621 34.8679 112.334 32.3044C114.047 29.7408 114.962 26.7269 114.962 23.6437C114.955 19.5113 113.31 15.5501 110.388 12.6281C107.466 9.7061 103.505 8.06156 99.3728 8.05488ZM99.3728 36.1358C96.9029 36.1358 94.4885 35.4034 92.4348 34.0312C90.3812 32.659 88.7806 30.7087 87.8355 28.4268C86.8903 26.1449 86.643 23.634 87.1248 21.2116C87.6066 18.7892 88.796 16.5641 90.5425 14.8176C92.2889 13.0712 94.5141 11.8818 96.9365 11.4C99.3589 10.9181 101.87 11.1654 104.152 12.1106C106.434 13.0558 108.384 14.6564 109.756 16.71C111.128 18.7636 111.861 21.178 111.861 23.6479C111.856 26.9585 110.539 30.1323 108.198 32.4732C105.857 34.8142 102.683 36.1313 99.3728 36.1358ZM87.6138 23.6479C87.6138 25.9736 88.3034 28.2471 89.5955 30.1808C90.8876 32.1146 92.7241 33.6218 94.8728 34.5118C97.0214 35.4018 99.3858 35.6347 101.667 35.181C103.948 34.7272 106.043 33.6073 107.688 31.9628C109.332 30.3182 110.452 28.223 110.906 25.942C111.36 23.6609 111.127 21.2966 110.237 19.1479C109.347 16.9992 107.84 15.1627 105.906 13.8706C103.972 12.5785 101.698 11.8889 99.3728 11.8889C96.2548 11.8911 93.2651 13.1307 91.0604 15.3355C88.8556 17.5402 87.616 20.5299 87.6138 23.6479Z" fill="black"/>
<path d="M93.1454 24.7341C93.8362 24.7341 94.3962 24.1741 94.3962 23.4833C94.3962 22.7924 93.8362 22.2324 93.1454 22.2324C92.4546 22.2324 91.8945 22.7924 91.8945 23.4833C91.8945 24.1741 92.4546 24.7341 93.1454 24.7341Z" fill="white"/>
<path d="M93.1457 25.1015C92.8257 25.1015 92.5129 25.0066 92.2469 24.8288C91.9808 24.651 91.7734 24.3983 91.651 24.1027C91.5285 23.8071 91.4965 23.4818 91.5589 23.168C91.6213 22.8541 91.7754 22.5658 92.0017 22.3396C92.2279 22.1133 92.5162 21.9592 92.8301 21.8968C93.1439 21.8344 93.4692 21.8664 93.7648 21.9889C94.0605 22.1113 94.3132 22.3187 94.4909 22.5848C94.6687 22.8508 94.7636 23.1636 94.7636 23.4836C94.7624 23.9123 94.5917 24.3232 94.2885 24.6264C93.9853 24.9295 93.5744 25.1003 93.1457 25.1015ZM93.1457 22.5988C92.9707 22.5988 92.7996 22.6507 92.6541 22.7479C92.5086 22.8451 92.3952 22.9833 92.3283 23.145C92.2613 23.3067 92.2438 23.4846 92.2779 23.6562C92.3121 23.8278 92.3963 23.9855 92.5201 24.1092C92.6438 24.233 92.8015 24.3172 92.9731 24.3514C93.1447 24.3855 93.3226 24.368 93.4843 24.301C93.6459 24.234 93.7842 24.1206 93.8814 23.9751C93.9786 23.8296 94.0305 23.6586 94.0305 23.4836C94.0294 23.2493 93.9358 23.0249 93.7701 22.8592C93.6044 22.6935 93.38 22.5999 93.1457 22.5988Z" fill="black"/>
<path d="M99.2081 24.7341C99.8989 24.7341 100.459 24.1741 100.459 23.4833C100.459 22.7924 99.8989 22.2324 99.2081 22.2324C98.5173 22.2324 97.9573 22.7924 97.9573 23.4833C97.9573 24.1741 98.5173 24.7341 99.2081 24.7341Z" fill="white"/>
<path d="M99.2085 25.1015C98.8885 25.1015 98.5757 25.0066 98.3096 24.8288C98.0435 24.651 97.8362 24.3983 97.7137 24.1027C97.5913 23.8071 97.5592 23.4818 97.6217 23.168C97.6841 22.8541 97.8382 22.5658 98.0644 22.3396C98.2907 22.1133 98.579 21.9592 98.8928 21.8968C99.2067 21.8344 99.5319 21.8664 99.8276 21.9889C100.123 22.1113 100.376 22.3187 100.554 22.5848C100.731 22.8508 100.826 23.1636 100.826 23.4836C100.826 23.9127 100.656 24.3242 100.352 24.6276C100.049 24.931 99.6375 25.1015 99.2085 25.1015ZM99.2085 22.5988C99.0335 22.5988 98.8624 22.6507 98.7169 22.7479C98.5714 22.8451 98.458 22.9833 98.391 23.145C98.324 23.3067 98.3065 23.4846 98.3407 23.6562C98.3748 23.8278 98.4591 23.9855 98.5828 24.1092C98.7065 24.233 98.8642 24.3172 99.0359 24.3514C99.2075 24.3855 99.3853 24.368 99.547 24.301C99.7087 24.234 99.8469 24.1206 99.9441 23.9751C100.041 23.8296 100.093 23.6586 100.093 23.4836C100.093 23.2489 100 23.0239 99.8341 22.858C99.6681 22.692 99.4431 22.5988 99.2085 22.5988Z" fill="black"/>
<path d="M105.275 24.7341C105.966 24.7341 106.526 24.1741 106.526 23.4833C106.526 22.7924 105.966 22.2324 105.275 22.2324C104.584 22.2324 104.024 22.7924 104.024 23.4833C104.024 24.1741 104.584 24.7341 105.275 24.7341Z" fill="white"/>
<path d="M105.271 25.1014C104.952 25.1006 104.639 25.005 104.374 24.8267C104.108 24.6485 103.901 24.3955 103.78 24.0998C103.658 23.8041 103.626 23.4789 103.689 23.1654C103.752 22.8518 103.907 22.5639 104.133 22.3381C104.359 22.1123 104.648 21.9586 104.962 21.8965C105.275 21.8344 105.6 21.8667 105.896 21.9893C106.191 22.1119 106.443 22.3192 106.621 22.5852C106.799 22.8511 106.893 23.1638 106.893 23.4836C106.892 23.9131 106.721 24.3246 106.417 24.6278C106.113 24.9311 105.701 25.1014 105.271 25.1014ZM105.271 22.5988C105.097 22.5996 104.926 22.6522 104.781 22.75C104.636 22.8477 104.523 22.9862 104.457 23.1479C104.391 23.3096 104.374 23.4874 104.408 23.6588C104.443 23.8301 104.528 23.9874 104.651 24.1107C104.775 24.234 104.933 24.3179 105.104 24.3516C105.276 24.3854 105.454 24.3677 105.615 24.3006C105.777 24.2335 105.914 24.1201 106.012 23.9747C106.109 23.8293 106.16 23.6584 106.16 23.4836C106.159 23.2485 106.065 23.0235 105.898 22.8577C105.732 22.6919 105.506 22.5988 105.271 22.5988Z" fill="black"/>
<path d="M111.418 35.9886H111.385C111.369 35.9842 111.354 35.9768 111.342 35.9668C111.329 35.9568 111.319 35.9444 111.311 35.9303C111.303 35.9162 111.298 35.9007 111.296 35.8846C111.294 35.8686 111.296 35.8524 111.3 35.8369L111.578 34.8552C111.583 34.8397 111.59 34.8252 111.6 34.8125C111.61 34.7999 111.622 34.7893 111.637 34.7815C111.651 34.7737 111.666 34.7687 111.682 34.7669C111.698 34.7651 111.715 34.7665 111.73 34.771C111.746 34.7748 111.761 34.7819 111.774 34.7917C111.787 34.8016 111.797 34.8141 111.805 34.8283C111.813 34.8426 111.818 34.8583 111.82 34.8745C111.821 34.8908 111.819 34.9071 111.814 34.9226L111.519 35.9043C111.512 35.9263 111.498 35.9458 111.481 35.9606C111.463 35.9755 111.441 35.9852 111.418 35.9886Z" fill="black"/>
<path d="M112.758 37.7075C112.726 37.7033 112.697 37.6868 112.678 37.6616C112.658 37.6364 112.649 37.6045 112.653 37.5727C112.8 36.4225 112.981 35.2638 113.188 34.1221C113.194 34.0902 113.212 34.0621 113.239 34.044C113.266 34.0258 113.299 34.019 113.331 34.0252C113.363 34.0313 113.391 34.0499 113.409 34.0767C113.427 34.1036 113.434 34.1366 113.428 34.1684C113.221 35.3018 113.044 36.4604 112.893 37.6022C112.891 37.6181 112.887 37.6335 112.879 37.6476C112.871 37.6616 112.861 37.6739 112.848 37.6838C112.835 37.6936 112.821 37.7008 112.805 37.7049C112.79 37.709 112.774 37.7099 112.758 37.7075Z" fill="black"/>
<path d="M114.503 39.3798C114.47 39.3798 114.439 39.3669 114.416 39.344C114.393 39.3211 114.38 39.29 114.38 39.2576C114.38 38.6804 114.469 37.7198 114.549 36.8687C114.595 36.3505 114.637 35.8997 114.65 35.6048C114.65 35.5883 114.653 35.572 114.66 35.557C114.667 35.5419 114.677 35.5285 114.689 35.5177C114.701 35.5069 114.716 35.4989 114.732 35.4943C114.748 35.4897 114.764 35.4886 114.781 35.491C114.812 35.4932 114.842 35.5076 114.863 35.5312C114.884 35.5548 114.896 35.5857 114.894 35.6174C114.894 35.9039 114.84 36.3547 114.789 36.8814C114.713 37.724 114.625 38.6846 114.625 39.2492C114.626 39.2659 114.624 39.2827 114.618 39.2985C114.612 39.3143 114.604 39.3288 114.592 39.3411C114.581 39.3533 114.567 39.3631 114.551 39.3697C114.536 39.3764 114.519 39.3798 114.503 39.3798Z" fill="black"/>
<path d="M116.289 41.0232C116.273 41.0237 116.257 41.0211 116.242 41.0154C116.227 41.0098 116.214 41.0012 116.202 40.9902C116.191 40.9791 116.182 40.9659 116.176 40.9514C116.17 40.9368 116.166 40.9211 116.166 40.9052L116.074 36.8268C116.073 36.811 116.076 36.7952 116.082 36.7804C116.087 36.7656 116.096 36.7521 116.107 36.7407C116.118 36.7293 116.131 36.7202 116.146 36.714C116.16 36.7078 116.176 36.7047 116.192 36.7047C116.208 36.7041 116.224 36.7067 116.239 36.7123C116.254 36.718 116.268 36.7265 116.279 36.7374C116.291 36.7484 116.301 36.7616 116.307 36.7762C116.314 36.7908 116.318 36.8066 116.318 36.8226L116.411 40.901C116.411 40.9168 116.409 40.9326 116.403 40.9474C116.397 40.9622 116.389 40.9757 116.378 40.9872C116.367 40.9986 116.354 41.0076 116.339 41.0138C116.324 41.02 116.309 41.0232 116.293 41.0232H116.289Z" fill="black"/>
<path d="M117.987 42.8265C117.955 42.8265 117.925 42.8142 117.902 42.7922C117.879 42.7702 117.866 42.7402 117.865 42.7085L117.705 38.4405C117.705 38.4081 117.717 38.3771 117.74 38.3541C117.763 38.3312 117.794 38.3184 117.827 38.3184C117.859 38.3184 117.89 38.3312 117.913 38.3541C117.936 38.3771 117.949 38.4081 117.949 38.4405L118.109 42.7085C118.11 42.7247 118.108 42.7409 118.103 42.7562C118.097 42.7715 118.089 42.7856 118.078 42.7974C118.067 42.8093 118.053 42.8187 118.038 42.8252C118.023 42.8316 118.007 42.8349 117.991 42.8349L117.987 42.8265Z" fill="black"/>
<path d="M119.714 44.3304C119.683 44.3305 119.653 44.3188 119.63 44.2977C119.608 44.2766 119.594 44.2476 119.592 44.2167L119.377 40.2268C119.376 40.2106 119.378 40.1944 119.383 40.1791C119.389 40.1638 119.397 40.1497 119.408 40.1379C119.419 40.126 119.433 40.1166 119.448 40.1101C119.462 40.1037 119.479 40.1004 119.495 40.1004C119.511 40.0993 119.526 40.1013 119.541 40.1065C119.557 40.1116 119.57 40.1198 119.582 40.1304C119.594 40.141 119.603 40.1539 119.61 40.1683C119.617 40.1827 119.621 40.1983 119.621 40.2142L119.836 44.1998C119.837 44.2159 119.835 44.232 119.83 44.2473C119.825 44.2625 119.817 44.2766 119.806 44.2888C119.796 44.3009 119.783 44.3108 119.768 44.318C119.754 44.3251 119.738 44.3294 119.722 44.3304H119.714Z" fill="black"/>
<path d="M121.429 45.7505C121.398 45.7517 121.368 45.7409 121.346 45.7205C121.323 45.7 121.309 45.6715 121.307 45.641L121.008 41.7564C121.006 41.7406 121.007 41.7246 121.012 41.7093C121.017 41.6941 121.024 41.6799 121.034 41.6677C121.045 41.6555 121.057 41.6455 121.071 41.6383C121.086 41.6311 121.101 41.6268 121.117 41.6258C121.133 41.6247 121.149 41.6267 121.165 41.6318C121.18 41.6369 121.194 41.645 121.206 41.6555C121.218 41.6661 121.228 41.679 121.235 41.6934C121.242 41.7078 121.247 41.7235 121.248 41.7396L121.551 45.6199C121.552 45.636 121.55 45.6521 121.545 45.6673C121.54 45.6826 121.532 45.6967 121.521 45.7088C121.511 45.721 121.498 45.7309 121.483 45.7381C121.469 45.7452 121.453 45.7494 121.437 45.7505H121.429Z" fill="black"/>
<path d="M123.047 47.014C123.017 47.0133 122.988 47.0018 122.965 46.9818C122.943 46.9617 122.929 46.9343 122.925 46.9045L122.575 43.5002C122.573 43.4842 122.575 43.468 122.579 43.4525C122.584 43.437 122.592 43.4226 122.602 43.4101C122.622 43.3848 122.652 43.3688 122.684 43.3654C122.717 43.362 122.749 43.3717 122.775 43.3922C122.8 43.4128 122.816 43.4425 122.819 43.4749L123.169 46.8792C123.171 46.8953 123.169 46.9115 123.165 46.927C123.16 46.9425 123.152 46.9569 123.142 46.9695C123.132 46.982 123.12 46.9924 123.105 47C123.091 47.0077 123.075 47.0124 123.059 47.014H123.047Z" fill="black"/>
<path d="M124.635 46.8323C124.606 46.8319 124.578 46.8216 124.556 46.8033C124.534 46.7849 124.519 46.7594 124.513 46.7312L124.269 45.2108C124.265 45.1946 124.264 45.1777 124.267 45.1612C124.27 45.1447 124.276 45.129 124.285 45.1149C124.294 45.1009 124.306 45.089 124.32 45.0797C124.334 45.0705 124.35 45.0643 124.366 45.0614C124.383 45.0585 124.4 45.059 124.416 45.0629C124.432 45.0669 124.447 45.0741 124.461 45.0841C124.474 45.0942 124.485 45.1069 124.493 45.1214C124.502 45.136 124.507 45.1521 124.509 45.1687L124.753 46.6891C124.756 46.7048 124.756 46.721 124.753 46.7368C124.75 46.7525 124.743 46.7674 124.734 46.7808C124.725 46.7941 124.714 46.8055 124.7 46.8143C124.687 46.8231 124.672 46.8292 124.656 46.8323H124.635Z" fill="black"/>
<g opacity="0.13">
<path opacity="0.13" d="M110.677 27.5072C110.256 27.8485 110.091 28.392 109.75 28.7964C109.331 29.3134 108.882 29.8058 108.406 30.271C108.006 30.6292 107.618 30.9452 107.23 31.2443C107.157 31.2572 107.087 31.2844 107.024 31.3243C105.027 32.7652 103.527 33.2961 101.003 33.7596C99.532 34.0874 98.0045 34.0686 96.5416 33.7048C95.2186 33.3972 94.5825 33.0349 93.2005 32.1038C92.1829 31.3286 91.252 30.4458 90.4241 29.4705C89.7824 28.5693 89.2836 27.5746 88.9452 26.5213C88.7472 25.9862 88.5997 25.4385 88.4438 24.8908C88.2407 24.3625 88.1379 23.801 88.1405 23.235C87.9972 22.8137 87.8624 22.4177 87.7192 22.0006C87.6018 21.9471 87.4729 21.9239 87.3442 21.9331C87.1398 23.5747 87.1483 25.2358 87.3695 26.8752C87.7276 28.2951 88.17 29.8244 89.5309 31.3665C90.2296 32.1197 91.0079 32.795 91.8523 33.3804C93.4604 34.7592 95.476 35.5732 97.5906 35.6976C98.3855 35.8337 99.1962 35.8522 99.9964 35.7524C100.621 35.6756 101.237 35.5431 101.838 35.3564C103.108 35.0722 104.338 34.6351 105.503 34.0545C105.966 33.7638 106.131 33.6542 106.346 33.4899C107.672 32.6664 108.888 31.6751 109.961 30.5407C110.154 30.1418 110.34 29.7374 110.517 29.3273C110.736 28.7206 110.938 28.1097 111.174 27.4988C111.095 27.465 111.01 27.4483 110.925 27.4497C110.839 27.4512 110.754 27.4707 110.677 27.5072Z" fill="black"/>
</g>
<g opacity="0.13">
<path opacity="0.13" d="M113.268 32.7187C112.657 32.5418 112.253 32.9673 111.953 33.4307L111.911 33.4771C111.381 34.0964 111.233 34.0459 110.357 34.8337C110.167 34.9273 110.002 35.0628 109.872 35.2298C109.719 35.4262 109.64 35.6697 109.647 35.9183C109.655 36.167 109.749 36.4053 109.913 36.5923C110.077 36.7793 110.301 36.9033 110.546 36.943C110.792 36.9826 111.044 36.9355 111.258 36.8097C111.951 36.4201 112.554 35.889 113.028 35.2508C113.345 34.9208 113.627 34.5594 113.87 34.1723C113.943 34.0399 113.986 33.8928 113.994 33.7419C114.002 33.591 113.977 33.4402 113.919 33.3006C113.861 33.161 113.772 33.0362 113.66 32.9354C113.547 32.8347 113.413 32.7606 113.268 32.7187Z" fill="black"/>
</g>
<g opacity="0.13">
<path opacity="0.13" d="M80.4213 16.5482C80.4256 16.4262 80.3965 16.3053 80.3371 16.1987C80.2756 16.0949 80.1862 16.0105 80.079 15.955C79.9719 15.8995 79.8514 15.8752 79.7312 15.8849C79.611 15.8945 79.4958 15.9377 79.3989 16.0096C79.302 16.0814 79.2273 16.1791 79.1831 16.2913L79.1452 16.3713C79.0989 16.4682 79.0652 16.5693 79.0273 16.6703C78.9894 16.7714 78.9515 16.8514 78.9262 16.9104C78.863 17.0176 78.8296 17.1397 78.8293 17.2642C78.8292 17.4302 78.8891 17.5906 78.9981 17.7158C79.1072 17.841 79.2579 17.9224 79.4223 17.945C79.5868 17.9677 79.7539 17.9299 79.8926 17.8388C80.0314 17.7477 80.1324 17.6094 80.177 17.4495C80.2872 17.2007 80.365 16.9389 80.4087 16.6703C80.4171 16.6302 80.4213 16.5892 80.4213 16.5482Z" fill="black"/>
</g>
<g opacity="0.13">
<path opacity="0.13" d="M80.4213 16.5482C80.4256 16.4262 80.3965 16.3053 80.3371 16.1987C80.2756 16.0949 80.1862 16.0105 80.079 15.955C79.9719 15.8995 79.8514 15.8752 79.7312 15.8849C79.611 15.8945 79.4958 15.9377 79.3989 16.0096C79.302 16.0814 79.2273 16.1791 79.1831 16.2913L79.1452 16.3713C79.0989 16.4682 79.0652 16.5693 79.0273 16.6703C78.9894 16.7714 78.9515 16.8514 78.9262 16.9104C78.863 17.0176 78.8296 17.1397 78.8293 17.2642C78.8292 17.4302 78.8891 17.5906 78.9981 17.7158C79.1072 17.841 79.2579 17.9224 79.4223 17.945C79.5868 17.9677 79.7539 17.9299 79.8926 17.8388C80.0314 17.7477 80.1324 17.6094 80.177 17.4495C80.2872 17.2007 80.365 16.9389 80.4087 16.6703C80.4171 16.6302 80.4213 16.5892 80.4213 16.5482Z" fill="black"/>
</g>
<g opacity="0.13">
<path opacity="0.13" d="M80.4213 16.5482C80.4256 16.4262 80.3965 16.3053 80.3371 16.1987C80.2756 16.0949 80.1862 16.0105 80.079 15.955C79.9719 15.8995 79.8514 15.8752 79.7312 15.8849C79.611 15.8945 79.4958 15.9377 79.3989 16.0096C79.302 16.0814 79.2273 16.1791 79.1831 16.2913L79.1452 16.3713C79.0989 16.4682 79.0652 16.5693 79.0273 16.6703C78.9894 16.7714 78.9515 16.8514 78.9262 16.9104C78.863 17.0176 78.8296 17.1397 78.8293 17.2642C78.8292 17.4302 78.8891 17.5906 78.9981 17.7158C79.1072 17.841 79.2579 17.9224 79.4223 17.945C79.5868 17.9677 79.7539 17.9299 79.8926 17.8388C80.0314 17.7477 80.1324 17.6094 80.177 17.4495C80.2872 17.2007 80.365 16.9389 80.4087 16.6703C80.4171 16.6302 80.4213 16.5892 80.4213 16.5482Z" fill="black"/>
</g>
<g opacity="0.13">
<path opacity="0.13" d="M86.6912 33.515C85.9163 32.6298 85.2748 31.6363 84.7869 30.5657C84.2139 29.3355 83.9443 28.8804 83.6831 27.3721C83.5933 26.9098 83.5467 26.4401 83.544 25.9691C83.6002 25.7994 83.6119 25.618 83.5779 25.4425C83.544 25.2669 83.4656 25.103 83.3502 24.9664C83.2322 24.8534 83.0831 24.7783 82.9221 24.7509C82.761 24.7234 82.5955 24.7449 82.4467 24.8124C82.298 24.88 82.1729 24.9906 82.0876 25.1299C82.0024 25.2693 81.9608 25.431 81.9683 25.5942C81.9578 25.6612 81.9578 25.7294 81.9683 25.7964C81.9683 25.8427 81.9683 25.8891 81.9683 25.9354C81.9683 25.9354 81.9683 25.9354 81.9683 26.0113C81.9846 26.5279 82.0339 27.0429 82.1157 27.5533C82.2767 28.7282 82.6342 29.8676 83.1732 30.9238C83.7511 32.2743 84.5358 33.5266 85.4989 34.6357C85.6475 34.7938 85.8529 34.8864 86.0698 34.8931C86.2866 34.8998 86.4973 34.8201 86.6554 34.6715C86.8136 34.5229 86.9061 34.3175 86.9129 34.1006C86.9196 33.8837 86.8399 33.6731 86.6912 33.515Z" fill="black"/>
</g>
<g opacity="0.13">
<path opacity="0.13" d="M101.176 39.3671C100.059 39.6662 99.617 39.6325 98.2267 39.5609C96.6847 39.4177 95.8926 39.4261 94.3421 38.7941L94.2831 38.7646C94.1428 38.685 93.9812 38.6511 93.8207 38.6677C93.6603 38.6843 93.509 38.7505 93.3879 38.8572C93.2669 38.9638 93.1821 39.1056 93.1455 39.2627C93.1089 39.4198 93.1222 39.5844 93.1835 39.7336C93.3478 40.1929 93.9166 40.2434 94.3042 40.4246C96.0443 41.0229 97.9276 41.0313 99.7477 41.1451C100.195 41.129 100.64 41.0769 101.079 40.9892C101.351 40.9683 101.614 40.8831 101.846 40.7406C101.984 40.6292 102.081 40.4742 102.119 40.3009C102.158 40.1276 102.137 39.9462 102.059 39.7866C101.981 39.627 101.851 39.4986 101.691 39.4223C101.53 39.3461 101.349 39.3266 101.176 39.3671Z" fill="black"/>
</g>
<path d="M100.091 48.9538H84.5911L84.5838 48.9536C84.5756 48.9534 84.5612 48.9527 84.5416 48.9513C84.5021 48.9484 84.4423 48.9425 84.3692 48.9301C84.2208 48.905 84.0304 48.8557 83.8459 48.7621C83.6635 48.6696 83.4952 48.5383 83.3713 48.3498C83.2492 48.164 83.1506 47.8932 83.1506 47.4877C83.1506 46.6222 83.5937 44.7705 84.9706 43.1407C86.3271 41.5352 88.6088 40.123 92.341 40.123C96.0731 40.123 98.3548 41.5352 99.7113 43.1407C101.088 44.7705 101.531 46.6222 101.531 47.4877C101.531 47.8932 101.433 48.164 101.311 48.3498C101.187 48.5383 101.018 48.6696 100.836 48.7621C100.652 48.8557 100.461 48.905 100.313 48.9301C100.24 48.9425 100.18 48.9484 100.14 48.9513C100.121 48.9527 100.106 48.9534 100.098 48.9536L100.092 48.9538L100.092 48.9538L100.091 48.9538Z" fill="#1A374D" stroke="black"/>
<path d="M80.5788 39.8426C81.4984 39.8315 82.4151 39.9325 83.3105 40.1429C81.2117 42.1455 80.074 44.8116 80.0728 47.427C80.0643 47.9449 80.1331 48.4597 80.2758 48.9534H72.8001L72.7931 48.9533C72.785 48.953 72.7707 48.9523 72.7511 48.9509C72.7118 48.948 72.6522 48.9418 72.5793 48.9292C72.4312 48.9035 72.2409 48.8531 72.0564 48.7571C71.8742 48.6623 71.7043 48.527 71.5785 48.3306C71.454 48.1363 71.3538 47.8533 71.3538 47.4313C71.3538 46.5344 71.8005 44.6251 73.1835 42.9466C74.5459 41.293 76.8338 39.8427 80.5728 39.8427V39.8427L80.5788 39.8426Z" fill="#1A374D" stroke="black"/>
<path d="M82.5632 35.884C81.7483 36.6988 80.6431 37.1566 79.4907 37.1566C78.3383 37.1566 77.2331 36.6988 76.4182 35.884C75.6033 35.0691 75.1455 33.9639 75.1455 32.8115C75.1455 31.6591 75.6033 30.5539 76.4182 29.739C77.2331 28.9241 78.3383 28.4663 79.4907 28.4663C80.6431 28.4663 81.7483 28.9241 82.5632 29.739C83.378 30.5539 83.8358 31.6591 83.8358 32.8115C83.8358 33.9639 83.378 35.0691 82.5632 35.884Z" fill="#1A374D" stroke="black"/>
</svg>
