
        <svg width="100" height="100" viewBox="0 0 56 63" fill="none" xmlns="http://www.w3.org/2000/svg">
<g clip-path="url(#clip0_409_10779)">
<path d="M29.0703 0.553833H7.04911C3.38278 0.553833 0.410645 3.52958 0.410645 7.20035V55.3805C0.410645 59.0513 3.38278 62.0271 7.04911 62.0271H29.0703C32.7366 62.0271 35.7087 59.0513 35.7087 55.3805V7.20035C35.7087 3.52958 32.7366 0.553833 29.0703 0.553833Z" fill="#1A374D"/>
<path d="M29.0043 62.4385H7.11534C5.22818 62.436 3.4191 61.684 2.08512 60.3475C0.75114 59.011 0.00124894 57.1992 0 55.3098V7.26668C0.00249846 5.37805 0.752947 3.56749 2.08679 2.23203C3.42063 0.896568 5.229 0.145202 7.11534 0.1427H29.0043C30.8906 0.145202 32.699 0.896568 34.0329 2.23203C35.3667 3.56749 36.1171 5.37805 36.1196 7.26668V55.3098C36.1184 57.1992 35.3685 59.011 34.0345 60.3475C32.7006 61.684 30.8915 62.436 29.0043 62.4385ZM7.11534 0.984151C5.45015 0.986632 3.85359 1.64873 2.67436 2.82586C1.49512 4.00298 0.829022 5.59948 0.82154 7.26668V55.3098C0.822789 56.9811 1.48612 58.5836 2.66603 59.7658C3.84594 60.9481 5.44607 61.6134 7.11534 61.6159H29.0043C30.6719 61.6109 32.2696 60.9445 33.4475 59.7625C34.6254 58.5806 35.2874 56.9794 35.2887 55.3098V7.26668C35.2862 5.5962 34.6223 3.99486 33.4425 2.81365C32.2627 1.63245 30.6633 0.967746 28.9949 0.965245L7.11534 0.984151Z" fill="black"/>
<path d="M35.7087 7.0918H0.410645V53.4473H35.7087V7.0918Z" fill="white"/>
<path d="M35.7089 53.8586H0.41077C0.301827 53.8586 0.197349 53.8152 0.120315 53.7381C0.0432799 53.661 0 53.5564 0 53.4473V7.09182C0 6.98274 0.0432799 6.87813 0.120315 6.801C0.197349 6.72387 0.301827 6.68054 0.41077 6.68054H35.7089C35.8178 6.68054 35.9223 6.72387 35.9993 6.801C36.0764 6.87813 36.1196 6.98274 36.1196 7.09182V53.4473C36.1196 53.5564 36.0764 53.661 35.9993 53.7381C35.9223 53.8152 35.8178 53.8586 35.7089 53.8586ZM0.82154 53.036H35.2887V7.50309H0.82154V53.036Z" fill="black"/>
<path d="M21.596 57.1912H15.2408C15.1319 57.1912 15.0274 57.1479 14.9504 57.0707C14.8734 56.9936 14.8301 56.889 14.8301 56.7799C14.8301 56.6708 14.8734 56.5662 14.9504 56.4891C15.0274 56.412 15.1319 56.3687 15.2408 56.3687H21.596C21.705 56.3687 21.8094 56.412 21.8865 56.4891C21.9635 56.5662 22.0068 56.6708 22.0068 56.7799C22.0068 56.889 21.9635 56.9936 21.8865 57.0707C21.8094 57.1479 21.705 57.1912 21.596 57.1912V57.1912Z" fill="white"/>
<path d="M18.2438 17.1892H6.15198C6.04304 17.1892 5.93856 17.1459 5.86153 17.0688C5.78449 16.9917 5.74121 16.887 5.74121 16.778C5.74121 16.6689 5.78449 16.5643 5.86153 16.4872C5.93856 16.41 6.04304 16.3667 6.15198 16.3667H18.2438C18.3528 16.3667 18.4572 16.41 18.5343 16.4872C18.6113 16.5643 18.6546 16.6689 18.6546 16.778C18.6546 16.887 18.6113 16.9917 18.5343 17.0688C18.4572 17.1459 18.3528 17.1892 18.2438 17.1892Z" fill="black"/>
<path d="M12.153 26.7949H6.15198C6.04304 26.7949 5.93856 26.7516 5.86153 26.6745C5.78449 26.5974 5.74121 26.4928 5.74121 26.3837C5.74121 26.2746 5.78449 26.17 5.86153 26.0929C5.93856 26.0157 6.04304 25.9724 6.15198 25.9724H12.153C12.262 25.9724 12.3665 26.0157 12.4435 26.0929C12.5205 26.17 12.5638 26.2746 12.5638 26.3837C12.5638 26.4928 12.5205 26.5974 12.4435 26.6745C12.3665 26.7516 12.262 26.7949 12.153 26.7949V26.7949Z" fill="black"/>
<path d="M30.3358 36.7222H20.0949C19.9859 36.7222 19.8814 36.6789 19.8044 36.6017C19.7274 36.5246 19.6841 36.42 19.6841 36.3109C19.6841 36.2019 19.7274 36.0972 19.8044 36.0201C19.8814 35.943 19.9859 35.8997 20.0949 35.8997H30.3358C30.4448 35.8997 30.5493 35.943 30.6263 36.0201C30.7033 36.0972 30.7466 36.2019 30.7466 36.3109C30.7466 36.42 30.7033 36.5246 30.6263 36.6017C30.5493 36.6789 30.4448 36.7222 30.3358 36.7222V36.7222Z" fill="black"/>
<path d="M30.3358 45.4912H15.548C15.439 45.4912 15.3346 45.4479 15.2575 45.3708C15.1805 45.2937 15.1372 45.189 15.1372 45.08C15.1372 44.9709 15.1805 44.8663 15.2575 44.7892C15.3346 44.712 15.439 44.6687 15.548 44.6687H30.3358C30.4447 44.6687 30.5492 44.712 30.6262 44.7892C30.7033 44.8663 30.7466 44.9709 30.7466 45.08C30.7466 45.189 30.7033 45.2937 30.6262 45.3708C30.5492 45.4479 30.4447 45.4912 30.3358 45.4912V45.4912Z" fill="black"/>
<path d="M9.67889 41.5157C9.58851 41.515 9.50074 41.4852 9.42864 41.4306C9.38585 41.3977 9.34997 41.3567 9.32302 41.3099C9.29607 41.2631 9.27857 41.2115 9.27155 41.1579C9.26454 41.1043 9.26814 41.0499 9.28213 40.9978C9.29612 40.9456 9.32024 40.8967 9.35311 40.8539L26.7661 18.163C26.8361 18.0779 26.9355 18.0222 27.0446 18.007C27.0989 18.0003 27.1539 18.0044 27.2066 18.019C27.2592 18.0336 27.3085 18.0584 27.3515 18.0921L42.9326 30.6903L52.1443 17.2696C52.2069 17.18 52.3025 17.1189 52.4101 17.0998C52.5177 17.0808 52.6284 17.1053 52.7179 17.168C52.8074 17.2306 52.8684 17.3264 52.8875 17.4341C52.9065 17.5418 52.882 17.6527 52.8194 17.7423L43.3764 31.5317C43.3432 31.5783 43.301 31.6177 43.2524 31.6477C43.2037 31.6778 43.1496 31.6978 43.0931 31.7066C43.037 31.7146 42.9799 31.7107 42.9255 31.6952C42.871 31.6797 42.8203 31.653 42.7768 31.6168L27.158 19.0092L10.0047 41.355C9.96607 41.4047 9.91668 41.445 9.86024 41.4728C9.80381 41.5007 9.74181 41.5153 9.67889 41.5157V41.5157Z" fill="black"/>
<path d="M52.5032 19.9688C53.8644 19.9688 54.9678 18.864 54.9678 17.5012C54.9678 16.1384 53.8644 15.0336 52.5032 15.0336C51.142 15.0336 50.0386 16.1384 50.0386 17.5012C50.0386 18.864 51.142 19.9688 52.5032 19.9688Z" fill="white"/>
<path d="M52.5032 20.3801C51.9343 20.381 51.3779 20.213 50.9044 19.8972C50.4309 19.5815 50.0616 19.1322 49.8433 18.6062C49.6249 18.0802 49.5673 17.5012 49.6777 16.9425C49.7881 16.3837 50.0616 15.8703 50.4636 15.4672C50.8655 15.0641 51.3778 14.7894 51.9357 14.678C52.4937 14.5665 53.072 14.6232 53.5977 14.841C54.1234 15.0588 54.5728 15.4278 54.8889 15.9013C55.2051 16.3748 55.3738 16.9316 55.3738 17.5012C55.3738 18.2639 55.0716 18.9955 54.5333 19.5352C53.9951 20.075 53.265 20.3789 52.5032 20.3801V20.3801ZM52.5032 15.4449C52.0968 15.4439 51.6992 15.5637 51.3608 15.7891C51.0224 16.0145 50.7585 16.3353 50.6023 16.711C50.4461 17.0867 50.4048 17.5003 50.4835 17.8995C50.5622 18.2987 50.7574 18.6655 51.0445 18.9536C51.3315 19.2417 51.6975 19.438 52.096 19.5177C52.4945 19.5974 52.9078 19.557 53.2833 19.4015C53.6589 19.246 53.9799 18.9824 54.2058 18.6442C54.4317 18.3059 54.5523 17.9081 54.5523 17.5012C54.5511 16.9575 54.3348 16.4364 53.9508 16.0519C53.5667 15.6674 53.0463 15.4508 52.5032 15.4496V15.4449Z" fill="black"/>
<path d="M26.8465 20.8812C28.2077 20.8812 29.3111 19.7764 29.3111 18.4136C29.3111 17.0507 28.2077 15.9459 26.8465 15.9459C25.4853 15.9459 24.3818 17.0507 24.3818 18.4136C24.3818 19.7764 25.4853 20.8812 26.8465 20.8812Z" fill="white"/>
<path d="M26.8466 21.2925C26.2779 21.2925 25.722 21.1236 25.2491 20.8073C24.7762 20.4909 24.4077 20.0413 24.1901 19.5153C23.9724 18.9892 23.9155 18.4104 24.0264 17.8519C24.1374 17.2935 24.4112 16.7805 24.8134 16.3779C25.2155 15.9753 25.7278 15.7011 26.2856 15.59C26.8434 15.4789 27.4216 15.5359 27.947 15.7538C28.4724 15.9717 28.9215 16.3407 29.2374 16.8141C29.5534 17.2876 29.722 17.8442 29.722 18.4136C29.722 19.1771 29.4191 19.9094 28.8798 20.4493C28.3406 20.9892 27.6092 21.2925 26.8466 21.2925V21.2925ZM26.8466 16.3572C26.4404 16.3572 26.0433 16.4778 25.7055 16.7038C25.3678 16.9297 25.1045 17.2509 24.9491 17.6266C24.7936 18.0024 24.7529 18.4158 24.8322 18.8147C24.9114 19.2136 25.107 19.58 25.3943 19.8676C25.6815 20.1552 26.0475 20.3511 26.4459 20.4304C26.8443 20.5098 27.2573 20.469 27.6326 20.3134C28.0079 20.1578 28.3286 19.8942 28.5543 19.556C28.78 19.2179 28.9004 18.8203 28.9004 18.4136C28.9004 18.1435 28.8473 17.8761 28.7441 17.6266C28.6409 17.3772 28.4896 17.1505 28.2989 16.9595C28.1082 16.7686 27.8818 16.6171 27.6326 16.5137C27.3834 16.4104 27.1163 16.3572 26.8466 16.3572Z" fill="black"/>
<path d="M43.0413 33.7583C44.4025 33.7583 45.5059 32.6535 45.5059 31.2906C45.5059 29.9278 44.4025 28.823 43.0413 28.823C41.6801 28.823 40.5767 29.9278 40.5767 31.2906C40.5767 32.6535 41.6801 33.7583 43.0413 33.7583Z" fill="white"/>
<path d="M43.0414 34.1694C42.4727 34.1694 41.9168 34.0006 41.4439 33.6842C40.9711 33.3679 40.6025 32.9183 40.3849 32.3922C40.1673 31.8662 40.1103 31.2873 40.2213 30.7289C40.3322 30.1704 40.6061 29.6574 41.0082 29.2548C41.4103 28.8522 41.9227 28.578 42.4804 28.4669C43.0382 28.3559 43.6164 28.4129 44.1418 28.6308C44.6672 28.8487 45.1163 29.2177 45.4322 29.6911C45.7482 30.1645 45.9168 30.7211 45.9168 31.2905C45.9156 32.0537 45.6122 32.7852 45.0733 33.3248C44.5343 33.8645 43.8036 34.1682 43.0414 34.1694V34.1694ZM43.0414 29.2342C42.6352 29.2342 42.2381 29.3548 41.9004 29.5807C41.5626 29.8067 41.2994 30.1278 41.1439 30.5036C40.9884 30.8793 40.9478 31.2928 41.027 31.6917C41.1063 32.0906 41.3019 32.457 41.5891 32.7446C41.8763 33.0322 42.2423 33.228 42.6407 33.3074C43.0391 33.3867 43.4521 33.346 43.8274 33.1903C44.2027 33.0347 44.5235 32.7711 44.7491 32.433C44.9748 32.0948 45.0953 31.6972 45.0953 31.2905C45.0953 30.7451 44.8789 30.2221 44.4937 29.8365C44.1085 29.4508 43.5861 29.2342 43.0414 29.2342V29.2342Z" fill="black"/>
<path d="M9.70292 43.572C11.0641 43.572 12.1676 42.4672 12.1676 41.1043C12.1676 39.7415 11.0641 38.6367 9.70292 38.6367C8.34174 38.6367 7.23828 39.7415 7.23828 41.1043C7.23828 42.4672 8.34174 43.572 9.70292 43.572Z" fill="white"/>
<path d="M9.70255 43.9833C9.13385 43.9833 8.57791 43.8144 8.10506 43.4981C7.6322 43.1817 7.26366 42.7321 7.04603 42.2061C6.82839 41.68 6.77145 41.1012 6.8824 40.5427C6.99335 39.9843 7.2672 39.4713 7.66933 39.0687C8.07146 38.666 8.5838 38.3919 9.14158 38.2808C9.69935 38.1697 10.2775 38.2267 10.8029 38.4446C11.3283 38.6625 11.7774 39.0315 12.0934 39.5049C12.4093 39.9784 12.578 40.535 12.578 41.1044C12.578 41.8679 12.275 42.6002 11.7358 43.1401C11.1965 43.68 10.4652 43.9833 9.70255 43.9833V43.9833ZM9.70255 39.048C9.29633 39.048 8.89923 39.1686 8.56147 39.3946C8.22372 39.6205 7.96049 39.9417 7.80503 40.3174C7.64958 40.6932 7.6089 41.1066 7.68815 41.5055C7.7674 41.9044 7.963 42.2708 8.25024 42.5584C8.53748 42.846 8.90345 43.0419 9.30186 43.1212C9.70027 43.2005 10.1132 43.1598 10.4885 43.0042C10.8638 42.8485 11.1846 42.585 11.4103 42.2468C11.6359 41.9086 11.7564 41.5111 11.7564 41.1044C11.7564 40.8343 11.7033 40.5669 11.6001 40.3174C11.4968 40.0679 11.3456 39.8412 11.1549 39.6503C10.9641 39.4593 10.7377 39.3079 10.4885 39.2045C10.2393 39.1012 9.97226 39.048 9.70255 39.048Z" fill="black"/>
<g opacity="0.13">
<path opacity="0.13" d="M33.9902 7.12961C33.0275 7.18691 32.0619 7.17586 31.1007 7.09652C27.7437 7.03507 24.3914 6.9547 21.0344 6.95943C17.7576 6.85543 14.4856 7.13434 11.2042 7.06343C9.1503 7.06343 7.09644 7.14852 5.06618 7.15325C3.74416 7.21943 2.42685 7.34706 1.10482 7.32343C0.879975 7.33984 0.669666 7.44084 0.516158 7.60614C0.362649 7.77145 0.277344 7.9888 0.277344 8.21452C0.277344 8.44024 0.362649 8.65759 0.516158 8.82289C0.669666 8.98819 0.879975 9.0892 1.10482 9.1056C2.43629 9.1576 3.76777 9.0536 5.09924 9.01579C6.54402 9.01579 7.99354 9.01579 9.44305 8.9827C11.7471 8.9827 14.0513 9.11033 16.3554 9.00633C20.4395 8.90233 24.5283 8.93069 28.6313 9.00633C30.2697 9.06306 31.9128 9.10561 33.5559 9.20961H33.6833C33.8565 9.24224 34.0343 9.24224 34.2074 9.20961C34.4541 9.23033 34.7004 9.1649 34.9044 9.02443C35.1084 8.88397 35.2575 8.67713 35.3264 8.43906C35.3658 8.25631 35.3583 8.06653 35.3046 7.88747C35.2509 7.7084 35.1527 7.54589 35.0193 7.41511C34.8858 7.28433 34.7215 7.18955 34.5415 7.13962C34.3615 7.08969 34.1719 7.08625 33.9902 7.12961Z" fill="black"/>
</g>
<g opacity="0.13">
<path opacity="0.13" d="M12.309 42.428C12.1715 42.3212 11.9999 42.2681 11.8262 42.2785C11.6525 42.2889 11.4885 42.3622 11.3647 42.4847C11.2762 42.582 11.1815 42.6736 11.0814 42.7589C11.02 42.8014 10.9208 42.8676 10.8547 42.9054C10.7371 42.9765 10.6157 43.0412 10.4912 43.0992L10.1937 43.1985C10.0946 43.2316 9.91989 43.2694 9.83018 43.2883C9.74047 43.3072 9.60353 43.2883 9.49022 43.2883H9.40523C9.1786 43.2363 8.79143 43.104 8.63562 43.0472L8.56009 43.0094L8.49398 42.9669C8.46334 42.9409 8.43492 42.9125 8.409 42.8818C8.33842 42.7335 8.2249 42.61 8.08321 42.5272C7.94287 42.4479 7.78232 42.4117 7.62158 42.4231C7.46083 42.4344 7.30699 42.4929 7.17917 42.5911C7.05134 42.6894 6.95521 42.8231 6.90272 42.9757C6.85022 43.1282 6.8437 43.2928 6.88396 43.4491C7.13517 44.0204 7.60194 44.469 8.18237 44.697C8.78257 44.9863 9.45523 45.09 10.1145 44.9948C10.7738 44.8997 11.3898 44.61 11.884 44.1629C12.342 43.7705 12.97 42.9338 12.309 42.428Z" fill="black"/>
</g>
<g opacity="0.13">
<path opacity="0.13" d="M29.7644 19.7041C29.6878 19.6047 29.5881 19.5255 29.4739 19.4735C29.3598 19.4215 29.2346 19.3982 29.1094 19.4057C28.9842 19.4131 28.8627 19.4511 28.7555 19.5163C28.6483 19.5815 28.5587 19.672 28.4944 19.7798C28.4679 19.8307 28.4379 19.8796 28.4046 19.9263L28.3102 20.0161C27.9656 20.3717 27.501 20.5857 27.0071 20.6165C26.631 20.6756 26.2459 20.6196 25.9022 20.4558C25.5472 20.292 25.2339 20.0495 24.9863 19.7467C24.8245 19.6069 24.6158 19.5336 24.4022 19.5417C24.1886 19.5497 23.9861 19.6385 23.8353 19.7901C23.6844 19.9417 23.5965 20.1449 23.5893 20.3587C23.5821 20.5726 23.6561 20.7812 23.7964 20.9427C24.328 21.5294 25.0109 21.958 25.7701 22.1812C26.2986 22.3192 26.85 22.3451 27.3891 22.2572C27.9282 22.1693 28.443 21.9695 28.9004 21.6707C29.4103 21.2972 30.2885 20.3092 29.7644 19.7041Z" fill="black"/>
</g>
</g>
<defs>
<clipPath id="clip0_409_10779">
<rect width="55.374" height="62.2958" fill="white" transform="translate(0 0.1427)"/>
</clipPath>
</defs>
</svg>
