
<svg width="56" height="56" viewBox="0 0 56 56" fill="none" xmlns="http://www.w3.org/2000/svg">
<path d="M16.5758 36.8798H9.03223V55.4459H16.5758V36.8798Z" fill="white"/>
<path d="M16.5759 55.8275H9.03229C8.93644 55.8275 8.84453 55.7873 8.77675 55.7157C8.70898 55.6442 8.6709 55.5471 8.6709 55.446V36.8798C8.6709 36.7786 8.70898 36.6816 8.77675 36.61C8.84453 36.5385 8.93644 36.4983 9.03229 36.4983H16.5759C16.6718 36.4983 16.7637 36.5385 16.8315 36.61C16.8992 36.6816 16.9373 36.7786 16.9373 36.8798V55.446C16.9373 55.4961 16.928 55.5457 16.9098 55.592C16.8916 55.6382 16.865 55.6803 16.8315 55.7157C16.7979 55.7511 16.758 55.7792 16.7142 55.7984C16.6704 55.8176 16.6234 55.8275 16.5759 55.8275V55.8275ZM9.39369 55.0645H16.2145V37.2613H9.39369V55.0645Z" fill="black"/>
<path d="M29.092 23.1459H21.5483V55.4459H29.092V23.1459Z" fill="white"/>
<path d="M29.092 55.8275H21.5484C21.4526 55.8275 21.3606 55.7873 21.2929 55.7157C21.2251 55.6442 21.187 55.5471 21.187 55.446V23.1459C21.187 23.0447 21.2251 22.9477 21.2929 22.8761C21.3606 22.8046 21.4526 22.7644 21.5484 22.7644H29.092C29.1879 22.7644 29.2798 22.8046 29.3476 22.8761C29.4153 22.9477 29.4534 23.0447 29.4534 23.1459V55.446C29.4534 55.4961 29.4441 55.5457 29.4259 55.5919C29.4077 55.6382 29.3811 55.6803 29.3476 55.7157C29.314 55.7511 29.2742 55.7792 29.2303 55.7984C29.1865 55.8176 29.1395 55.8275 29.092 55.8275ZM21.9098 55.0645H28.7306V23.5274H21.9098V55.0645Z" fill="black"/>
<path d="M41.9816 31.1223H34.438V55.446H41.9816V31.1223Z" fill="#1A374D"/>
<path d="M41.9817 55.8274H34.4381C34.3422 55.8274 34.2503 55.7873 34.1825 55.7157C34.1148 55.6442 34.0767 55.5471 34.0767 55.446V31.1266C34.0761 31.0764 34.0851 31.0265 34.1031 30.98C34.121 30.9334 34.1476 30.8911 34.1813 30.8556C34.215 30.82 34.255 30.7919 34.2991 30.773C34.3432 30.754 34.3905 30.7446 34.4381 30.7451H41.9817C42.0293 30.7446 42.0765 30.754 42.1206 30.773C42.1647 30.7919 42.2048 30.82 42.2385 30.8556C42.2721 30.8911 42.2987 30.9334 42.3167 30.98C42.3347 31.0265 42.3436 31.0764 42.3431 31.1266V55.446C42.3431 55.5471 42.305 55.6442 42.2372 55.7157C42.1695 55.7873 42.0775 55.8274 41.9817 55.8274ZM34.7995 55.0645H41.6203V31.5257H34.7995V55.0645Z" fill="black"/>
<path d="M54.9919 17.8049H47.4482V55.4459H54.9919V17.8049Z" fill="white"/>
<path d="M54.9917 55.8275H47.4688C47.4214 55.8275 47.3744 55.8176 47.3305 55.7984C47.2867 55.7792 47.2468 55.7511 47.2133 55.7157C47.1797 55.6803 47.1531 55.6382 47.1349 55.592C47.1168 55.5457 47.1074 55.4961 47.1074 55.446V17.805C47.1074 17.7549 47.1168 17.7053 47.1349 17.659C47.1531 17.6127 47.1797 17.5706 47.2133 17.5352C47.2468 17.4998 47.2867 17.4717 47.3305 17.4525C47.3744 17.4333 47.4214 17.4235 47.4688 17.4235H55.0124C55.1083 17.4235 55.2002 17.4637 55.268 17.5352C55.3357 17.6067 55.3738 17.7038 55.3738 17.805V55.446C55.3739 55.498 55.3639 55.5494 55.3445 55.5972C55.325 55.645 55.2965 55.688 55.2607 55.7238C55.225 55.7595 55.1826 55.7871 55.1363 55.805C55.0901 55.8228 55.0408 55.8304 54.9917 55.8275V55.8275ZM47.8094 55.0645H54.6303V18.1865H47.8094V55.0645Z" fill="black"/>
<path d="M0.362993 35.5862C0.281678 35.5846 0.203009 35.5554 0.138675 35.5029C0.0632868 35.4406 0.014384 35.3493 0.00270209 35.249C-0.0089798 35.1487 0.0175162 35.0476 0.0763677 34.9679L6.30733 26.5925C6.36492 26.5141 6.44918 26.4625 6.54224 26.4486C6.63531 26.4347 6.72984 26.4596 6.8058 26.518L10.8352 29.6708L24.0365 12.9595C24.0939 12.8879 24.1741 12.8408 24.262 12.8271C24.3499 12.8134 24.4396 12.834 24.5142 12.885L36.1162 20.8482L53.2846 0.580611C53.3162 0.543181 53.3546 0.512696 53.3974 0.490897C53.4402 0.469097 53.4866 0.456409 53.5341 0.453559C53.5815 0.450709 53.629 0.457751 53.6739 0.474284C53.7187 0.490817 53.7601 0.516517 53.7955 0.549916C53.831 0.583315 53.8599 0.62376 53.8805 0.668941C53.9012 0.714122 53.9132 0.763154 53.9159 0.813237C53.9186 0.863321 53.9119 0.913477 53.8963 0.960839C53.8806 1.0082 53.8563 1.05184 53.8246 1.08927L36.4527 21.6024C36.3941 21.6696 36.3151 21.713 36.2293 21.725C36.1435 21.737 36.0565 21.7169 35.9833 21.6682L24.3896 13.7094L11.1716 30.4382C11.1118 30.5124 11.0276 30.56 10.9359 30.5714C10.8442 30.5828 10.7518 30.5572 10.6773 30.4996L6.66042 27.3555L0.64546 35.4371C0.612351 35.4832 0.569659 35.5206 0.520681 35.5464C0.471703 35.5723 0.417751 35.5859 0.362993 35.5862V35.5862Z" fill="black"/>
<path d="M11.6653 54.6339C11.6363 54.6345 11.6082 54.6235 11.5864 54.6033C10.9719 54.0422 10.3615 53.4504 9.77598 52.8499C9.75341 52.8261 9.74072 52.7938 9.74072 52.7601C9.74072 52.7264 9.75341 52.694 9.77598 52.6702C9.79906 52.6474 9.82948 52.6347 9.8611 52.6347C9.89271 52.6347 9.92315 52.6474 9.94623 52.6702C10.5317 53.2707 11.138 53.8625 11.7484 54.4235C11.7709 54.4474 11.7836 54.4797 11.7836 54.5134C11.7836 54.5471 11.7709 54.5794 11.7484 54.6033C11.7256 54.6246 11.6957 54.6356 11.6653 54.6339V54.6339Z" fill="black"/>
<path d="M14.2582 54.6566C14.2285 54.6564 14.2001 54.6438 14.1792 54.6215L9.8882 50.5522C9.87647 50.541 9.86695 50.5275 9.86019 50.5123C9.85342 50.4972 9.84955 50.4809 9.84878 50.4642C9.848 50.4475 9.85036 50.4308 9.8557 50.415C9.86104 50.3993 9.86926 50.3848 9.8799 50.3725C9.89054 50.3601 9.90337 50.35 9.91769 50.3429C9.932 50.3357 9.94751 50.3317 9.96332 50.3308C9.97914 50.33 9.99496 50.3325 10.0099 50.3381C10.0248 50.3438 10.0385 50.3525 10.0502 50.3637L14.3371 54.433C14.3587 54.4574 14.3707 54.4895 14.3707 54.5229C14.3707 54.5563 14.3587 54.5884 14.3371 54.6128C14.3164 54.6365 14.2885 54.652 14.2582 54.6566V54.6566Z" fill="black"/>
<path d="M15.6952 53.4201C15.6663 53.4198 15.6384 53.409 15.6162 53.3894C13.7262 51.6354 11.7821 49.8814 9.84635 48.1625C9.83186 48.1527 9.81952 48.1399 9.81013 48.1247C9.80075 48.1095 9.79454 48.0924 9.79193 48.0745C9.78932 48.0566 9.79036 48.0383 9.795 48.0208C9.79963 48.0034 9.80774 47.9872 9.81879 47.9733C9.82984 47.9594 9.84358 47.9482 9.85907 47.9404C9.87456 47.9326 9.89144 47.9284 9.90861 47.928C9.92577 47.9276 9.94281 47.9312 9.95858 47.9383C9.97435 47.9455 9.98849 47.9561 10 47.9695C11.94 49.6753 13.884 51.4337 15.7782 53.1965C15.8008 53.2203 15.8135 53.2526 15.8135 53.2863C15.8135 53.3201 15.8008 53.3524 15.7782 53.3762C15.768 53.3892 15.7553 53.3998 15.741 53.4073C15.7267 53.4148 15.7111 53.4192 15.6952 53.4201V53.4201Z" fill="black"/>
<path d="M15.7742 50.9206C15.7473 50.9206 15.721 50.9113 15.6994 50.8943C13.7138 49.2893 11.749 47.6011 9.85481 45.8778C9.84281 45.8669 9.83297 45.8535 9.82585 45.8386C9.81873 45.8236 9.81447 45.8073 9.81331 45.7906C9.81215 45.7739 9.81412 45.7572 9.8191 45.7413C9.82409 45.7254 9.83199 45.7107 9.84235 45.698C9.85272 45.6854 9.86534 45.675 9.87951 45.6674C9.89368 45.6599 9.9091 45.6554 9.92492 45.6542C9.94073 45.653 9.95663 45.6551 9.97168 45.6603C9.98674 45.6656 10.0007 45.6739 10.0127 45.6849C11.9027 47.4082 13.8634 49.092 15.8282 50.6926C15.8412 50.7025 15.8521 50.7151 15.8604 50.7296C15.8687 50.7441 15.8742 50.7602 15.8765 50.7769C15.8788 50.7937 15.8779 50.8107 15.8739 50.8271C15.8699 50.8435 15.8629 50.8589 15.8532 50.8723C15.8336 50.8984 15.8054 50.9156 15.7742 50.9206V50.9206Z" fill="black"/>
<path d="M15.7742 48.3992C15.7455 48.3982 15.7178 48.3875 15.6953 48.3685C13.7346 46.6145 11.7657 44.8079 9.83821 43.0056C9.81398 42.9835 9.79905 42.9522 9.79671 42.9184C9.79437 42.8847 9.80482 42.8514 9.82575 42.8258C9.84668 42.8002 9.87639 42.7845 9.90833 42.782C9.94027 42.7796 9.97183 42.7906 9.99607 42.8127C11.9235 44.6149 13.8925 46.4172 15.849 48.1712C15.8716 48.195 15.8843 48.2273 15.8843 48.2611C15.8843 48.2948 15.8716 48.3271 15.849 48.3509C15.8307 48.3764 15.804 48.3936 15.7742 48.3992V48.3992Z" fill="black"/>
<path d="M15.6498 45.7243C15.6227 45.725 15.5963 45.7157 15.575 45.698C13.6309 44.1107 11.7201 42.4312 9.8882 40.7079C9.86451 40.6852 9.85033 40.6535 9.84878 40.6198C9.84722 40.5861 9.85841 40.5531 9.8799 40.5281C9.90138 40.5031 9.93138 40.4881 9.96332 40.4865C9.99526 40.4848 10.0265 40.4967 10.0502 40.5193C11.8738 42.2383 13.7888 43.9133 15.7204 45.4963C15.7454 45.5164 15.7619 45.5459 15.7666 45.5787C15.7712 45.6114 15.7636 45.6448 15.7453 45.6717C15.7343 45.6877 15.72 45.7008 15.7034 45.7099C15.6868 45.7191 15.6685 45.724 15.6498 45.7243Z" fill="black"/>
<path d="M15.5418 43.1986C15.5161 43.1986 15.4912 43.1893 15.4712 43.1723C13.5645 41.6375 11.6495 40.0502 9.78437 38.454C9.77278 38.4429 9.76352 38.4294 9.75718 38.4143C9.75084 38.3992 9.74756 38.3828 9.74756 38.3663C9.74756 38.3498 9.75084 38.3334 9.75718 38.3183C9.76352 38.3032 9.77278 38.2897 9.78437 38.2786C9.79374 38.2654 9.80554 38.2543 9.81906 38.246C9.83257 38.2378 9.84754 38.2324 9.86305 38.2304C9.87855 38.2283 9.8943 38.2296 9.90933 38.2341C9.92436 38.2386 9.93837 38.2463 9.95053 38.2567C11.8157 39.8528 13.7265 41.4358 15.6332 42.9706C15.6458 42.9809 15.6564 42.9937 15.6643 43.0084C15.6722 43.023 15.6772 43.0392 15.6792 43.0559C15.6811 43.0726 15.6799 43.0896 15.6755 43.1058C15.6712 43.122 15.6639 43.1372 15.6539 43.1504C15.6412 43.1685 15.6241 43.1826 15.6043 43.1911C15.5845 43.1996 15.5629 43.2022 15.5418 43.1986Z" fill="black"/>
<path d="M15.5456 41.0017C15.5188 41.0011 15.4927 40.9919 15.4709 40.9754L11.9151 38.0199C11.8937 37.9962 11.8818 37.9648 11.8818 37.9322C11.8818 37.8995 11.8937 37.8681 11.9151 37.8445C11.9259 37.8328 11.9388 37.8235 11.9531 37.8172C11.9674 37.8109 11.9827 37.8076 11.9981 37.8076C12.0136 37.8076 12.0289 37.8109 12.0432 37.8172C12.0575 37.8235 12.0704 37.8328 12.0812 37.8445L15.637 40.7956C15.6497 40.8059 15.6603 40.8187 15.6682 40.8334C15.6761 40.848 15.6811 40.8642 15.683 40.8809C15.685 40.8976 15.6837 40.9146 15.6794 40.9308C15.6751 40.947 15.6677 40.9622 15.6578 40.9754C15.6425 40.9889 15.6243 40.9984 15.6048 41.003C15.5852 41.0076 15.565 41.0071 15.5456 41.0017V41.0017Z" fill="black"/>
<path d="M15.6448 39.1244C15.6178 39.1244 15.5916 39.1152 15.57 39.0981C15.4122 38.9578 15.2129 38.7912 15.0012 38.6159C14.7894 38.4406 14.5153 38.2126 14.2994 38.0198C14.2768 37.9959 14.2642 37.9636 14.2642 37.9299C14.2642 37.8962 14.2768 37.8639 14.2994 37.8401C14.3225 37.8173 14.3529 37.8046 14.3845 37.8046C14.4161 37.8046 14.4466 37.8173 14.4697 37.8401C14.6856 38.0329 14.9347 38.2389 15.1673 38.4362C15.3998 38.6334 15.5825 38.7781 15.7403 38.9184C15.7619 38.9427 15.7739 38.9749 15.7739 39.0082C15.7739 39.0416 15.7619 39.0737 15.7403 39.0981C15.727 39.1093 15.7117 39.1175 15.6952 39.122C15.6788 39.1266 15.6616 39.1274 15.6448 39.1244V39.1244Z" fill="black"/>
</svg>


