
<svg width="56" height="47" viewBox="0 0 56 47" fill="none" xmlns="http://www.w3.org/2000/svg">
<path d="M25.2603 38.3932H19.0073V46.506H25.2603V38.3932Z" fill="#1A374D"/>
<path d="M25.2605 46.8115H19.0075C18.9268 46.8115 18.8494 46.7797 18.7923 46.723C18.7352 46.6664 18.7031 46.5896 18.7031 46.5095V38.3932C18.7031 38.3131 18.7352 38.2363 18.7923 38.1796C18.8494 38.123 18.9268 38.0912 19.0075 38.0912H25.2605C25.3413 38.0912 25.4187 38.123 25.4758 38.1796C25.5329 38.2363 25.5649 38.3131 25.5649 38.3932V46.5095C25.5649 46.5896 25.5329 46.6664 25.4758 46.723C25.4187 46.7797 25.3413 46.8115 25.2605 46.8115V46.8115ZM19.312 46.2075H24.9561V38.6883H19.312V46.2075Z" fill="black"/>
<path d="M43.9246 8.81982H0.304199V38.782H43.9246V8.81982Z" fill="white"/>
<path d="M43.9248 39.084H0.304424C0.223685 39.084 0.146257 39.0521 0.0891659 38.9955C0.032075 38.9389 0 38.862 0 38.7819V8.83363C0 8.75353 0.032075 8.67671 0.0891659 8.62007C0.146257 8.56343 0.223685 8.53162 0.304424 8.53162H43.9248C44.0056 8.53162 44.083 8.56343 44.1401 8.62007C44.1971 8.67671 44.2292 8.75353 44.2292 8.83363V38.7958C44.2256 38.8735 44.192 38.9468 44.1353 39.0005C44.0786 39.0541 44.0032 39.0841 43.9248 39.084V39.084ZM0.608848 38.4799H43.6204V9.12176H0.608848V38.4799Z" fill="black"/>
<path d="M43.9246 36.1055H0.304199V40.0595H43.9246V36.1055Z" fill="#1A374D"/>
<path d="M43.9248 40.3615H0.304424C0.223685 40.3615 0.146257 40.3297 0.0891659 40.273C0.032075 40.2164 0 40.1396 0 40.0595V36.1055C0 36.0254 0.032075 35.9486 0.0891659 35.8919C0.146257 35.8353 0.223685 35.8035 0.304424 35.8035H43.9248C44.0056 35.8035 44.083 35.8353 44.1401 35.8919C44.1971 35.9486 44.2292 36.0254 44.2292 36.1055V40.0768C44.2248 40.1539 44.1907 40.2263 44.1341 40.2793C44.0775 40.3322 44.0026 40.3616 43.9248 40.3615V40.3615ZM0.608848 39.7575H43.6204V36.4075H0.608848V39.7575Z" fill="black"/>
<path d="M21.9922 30.6757C21.9922 30.465 22.0552 30.259 22.1732 30.0838C22.2912 29.9086 22.4589 29.7721 22.6551 29.6914C22.8513 29.6108 23.0672 29.5897 23.2755 29.6308C23.4838 29.6719 23.6752 29.7734 23.8253 29.9224C23.9755 30.0714 24.0778 30.2612 24.1192 30.4679C24.1607 30.6745 24.1394 30.8887 24.0581 31.0834C23.9768 31.278 23.8392 31.4444 23.6626 31.5615C23.486 31.6786 23.2784 31.741 23.066 31.741C22.9249 31.7415 22.785 31.7142 22.6545 31.6609C22.524 31.6075 22.4055 31.529 22.3057 31.43C22.2059 31.331 22.1268 31.2134 22.073 31.0839C22.0192 30.9545 21.9917 30.8157 21.9922 30.6757V30.6757Z" fill="white"/>
<path d="M23.0667 32.0439C22.794 32.0439 22.5274 31.9636 22.3007 31.8134C22.074 31.6631 21.8973 31.4495 21.7929 31.1995C21.6886 30.9496 21.6613 30.6746 21.7145 30.4093C21.7677 30.144 21.899 29.9002 22.0918 29.709C22.2846 29.5177 22.5303 29.3874 22.7977 29.3346C23.0651 29.2819 23.3423 29.3089 23.5942 29.4125C23.8462 29.516 24.0615 29.6913 24.213 29.9162C24.3645 30.1412 24.4453 30.4056 24.4453 30.6761C24.4444 31.0386 24.2989 31.3859 24.0405 31.6423C23.7822 31.8986 23.432 32.0429 23.0667 32.0439V32.0439ZM23.0667 29.9124C22.9144 29.9124 22.7656 29.9572 22.639 30.0411C22.5124 30.125 22.4137 30.2443 22.3554 30.3838C22.2972 30.5234 22.2819 30.677 22.3116 30.8251C22.3413 30.9733 22.4147 31.1093 22.5223 31.2161C22.63 31.323 22.7672 31.3957 22.9165 31.4252C23.0658 31.4546 23.2206 31.4395 23.3612 31.3817C23.5019 31.3239 23.6221 31.226 23.7067 31.1004C23.7913 30.9748 23.8365 30.8272 23.8365 30.6761C23.8355 30.4738 23.7541 30.2801 23.61 30.1371C23.4658 29.9941 23.2705 29.9133 23.0667 29.9124V29.9124Z" fill="black"/>
<path d="M27.1953 30.6758C27.1946 30.4641 27.2573 30.257 27.3754 30.0807C27.4935 29.9044 27.6617 29.7669 27.8587 29.6855C28.0557 29.6042 28.2727 29.5828 28.482 29.6239C28.6913 29.665 28.8836 29.7669 29.0344 29.9166C29.1853 30.0662 29.288 30.257 29.3294 30.4647C29.3709 30.6723 29.3493 30.8875 29.2673 31.0829C29.1853 31.2784 29.0467 31.4453 28.869 31.5625C28.6913 31.6796 28.4825 31.7418 28.2692 31.7411C27.9844 31.7411 27.7112 31.6289 27.5098 31.4291C27.3084 31.2293 27.1953 30.9583 27.1953 30.6758Z" fill="white"/>
<path d="M28.2693 32.0439C27.9966 32.0439 27.7301 31.9636 27.5033 31.8134C27.2766 31.6631 27.0999 31.4495 26.9956 31.1995C26.8912 30.9496 26.8639 30.6746 26.9171 30.4093C26.9703 30.144 27.1016 29.9002 27.2944 29.709C27.4872 29.5177 27.7329 29.3874 28.0003 29.3346C28.2678 29.2819 28.545 29.3089 28.7969 29.4125C29.0488 29.516 29.2641 29.6913 29.4156 29.9162C29.5671 30.1412 29.648 30.4056 29.648 30.6761C29.647 31.0386 29.5015 31.3859 29.2431 31.6423C28.9848 31.8986 28.6347 32.0429 28.2693 32.0439V32.0439ZM28.2693 29.9124C28.117 29.9124 27.9682 29.9572 27.8416 30.0411C27.715 30.125 27.6164 30.2443 27.5581 30.3838C27.4998 30.5234 27.4846 30.677 27.5143 30.8251C27.544 30.9733 27.6173 31.1093 27.725 31.2161C27.8326 31.323 27.9698 31.3957 28.1191 31.4252C28.2684 31.4546 28.4232 31.4395 28.5639 31.3817C28.7045 31.3239 28.8248 31.226 28.9094 31.1004C28.994 30.9748 29.0391 30.8272 29.0391 30.6761C29.0382 30.4738 28.9568 30.2801 28.8126 30.1371C28.6685 29.9941 28.4732 29.9133 28.2693 29.9124V29.9124Z" fill="black"/>
<path d="M32.4019 30.6757C32.4019 30.465 32.4649 30.259 32.5829 30.0838C32.7009 29.9086 32.8685 29.7721 33.0647 29.6914C33.261 29.6108 33.4769 29.5897 33.6852 29.6308C33.8935 29.6719 34.0848 29.7734 34.235 29.9224C34.3852 30.0714 34.4875 30.2612 34.5289 30.4679C34.5703 30.6745 34.5491 30.8887 34.4678 31.0834C34.3865 31.278 34.2489 31.4444 34.0723 31.5615C33.8957 31.6786 33.6881 31.741 33.4757 31.741C33.3346 31.7415 33.1947 31.7142 33.0642 31.6609C32.9337 31.6075 32.8152 31.529 32.7154 31.43C32.6155 31.331 32.5365 31.2134 32.4827 31.0839C32.4289 30.9545 32.4014 30.8157 32.4019 30.6757V30.6757Z" fill="white"/>
<path d="M33.4763 32.0439C33.2037 32.0439 32.9371 31.9636 32.7104 31.8134C32.4837 31.6631 32.307 31.4495 32.2026 31.1995C32.0983 30.9496 32.0709 30.6746 32.1241 30.4093C32.1773 30.144 32.3087 29.9002 32.5015 29.709C32.6943 29.5177 32.9399 29.3874 33.2074 29.3346C33.4748 29.2819 33.752 29.3089 34.0039 29.4125C34.2558 29.516 34.4712 29.6913 34.6227 29.9162C34.7742 30.1412 34.855 30.4056 34.855 30.6761C34.855 30.8557 34.8193 31.0336 34.75 31.1995C34.6808 31.3655 34.5792 31.5163 34.4512 31.6433C34.3232 31.7703 34.1712 31.871 34.0039 31.9398C33.8366 32.0085 33.6574 32.0439 33.4763 32.0439V32.0439ZM33.4763 29.9124C33.3241 29.9124 33.1752 29.9572 33.0487 30.0411C32.9221 30.125 32.8234 30.2443 32.7651 30.3838C32.7068 30.5234 32.6916 30.677 32.7213 30.8251C32.751 30.9733 32.8243 31.1093 32.932 31.2161C33.0397 31.323 33.1768 31.3957 33.3262 31.4252C33.4755 31.4546 33.6303 31.4395 33.7709 31.3817C33.9116 31.3239 34.0318 31.226 34.1164 31.1004C34.201 30.9748 34.2461 30.8272 34.2461 30.6761C34.2461 30.4736 34.1651 30.2793 34.0207 30.1361C33.8763 29.9929 33.6805 29.9124 33.4763 29.9124V29.9124Z" fill="black"/>
<path d="M41.3599 23.5458L47.7248 29.7701C48.8213 30.8813 49.9802 31.9302 51.196 32.9118C51.8538 33.4256 52.5956 33.9116 53.3934 33.9116C53.8188 33.9085 54.2268 33.7437 54.5333 33.4511C54.8399 33.1586 55.0218 32.7606 55.0415 32.339C55.0415 31.6447 54.5481 31.0719 54.0897 30.6033C50.7049 27.0624 47.1731 23.7066 43.4943 20.536C42.826 21.515 42.1612 22.4939 41.3599 23.5458Z" fill="white"/>
<path d="M53.4075 34.2136C52.5117 34.2136 51.7314 33.7032 51.0211 33.1513C49.7957 32.162 48.6274 31.105 47.5219 29.9853L41.1464 23.761C41.0941 23.7089 41.0625 23.6399 41.0574 23.5665C41.0522 23.4932 41.0739 23.4205 41.1185 23.3618C41.9163 22.3203 42.5986 21.324 43.2564 20.3659C43.281 20.3309 43.3127 20.3014 43.3495 20.2792C43.3862 20.2571 43.4272 20.2429 43.4699 20.2374C43.5125 20.2318 43.5558 20.2354 43.5969 20.248C43.638 20.2606 43.6758 20.2819 43.7078 20.3103C47.3749 23.4624 50.9476 26.8541 54.3242 30.3776C54.8211 30.8983 55.353 31.5197 55.374 32.3286C55.3734 32.566 55.3251 32.801 55.232 33.0197C55.1389 33.2385 55.0028 33.4366 54.8316 33.6026C54.4559 33.9834 53.9445 34.2028 53.4075 34.2136V34.2136ZM41.7763 23.5145L47.9628 29.5549C49.0519 30.6582 50.2013 31.7012 51.406 32.6792C52.0323 33.1617 52.7076 33.613 53.418 33.613C53.7874 33.6026 54.1385 33.4509 54.3977 33.1895C54.6223 32.9653 54.7481 32.662 54.7476 32.3459C54.7476 31.7592 54.3172 31.2628 53.8798 30.8046C50.5941 27.3678 47.1265 24.0699 43.5644 20.9907C43.008 21.7996 42.4271 22.6362 41.7763 23.5145Z" fill="black"/>
<path d="M33.0669 0.602906C30.4446 0.602906 27.8813 1.37434 25.701 2.81965C23.5207 4.26496 21.8213 6.31924 20.8178 8.72271C19.8143 11.1262 19.5518 13.7709 20.0634 16.3224C20.5749 18.8739 21.8377 21.2176 23.6919 23.0571C25.5461 24.8967 27.9085 26.1494 30.4803 26.6569C33.0522 27.1644 35.718 26.904 38.1406 25.9084C40.5632 24.9129 42.6339 23.227 44.0907 21.0639C45.5476 18.9008 46.3251 16.3578 46.3251 13.7563C46.3256 12.0288 45.983 10.3182 45.3169 8.72217C44.6507 7.12612 43.6741 5.67592 42.4429 4.45443C41.2117 3.23293 39.7499 2.26408 38.1411 1.60322C36.5324 0.942361 34.8081 0.60245 33.0669 0.602906V0.602906ZM33.0669 23.7437C31.0748 23.7444 29.1273 23.1589 27.4707 22.0614C25.814 20.9638 24.5227 19.4035 23.7601 17.5778C22.9974 15.752 22.7977 13.7429 23.1861 11.8045C23.5746 9.86618 24.5338 8.08566 25.9424 6.6882C27.351 5.29074 29.1458 4.33913 31.0996 3.95375C33.0534 3.56836 35.0785 3.7665 36.9188 4.52311C38.7591 5.27973 40.3319 6.56082 41.4382 8.20435C42.5445 9.84787 43.1346 11.78 43.1339 13.7563C43.1362 15.0693 42.8775 16.3699 42.3726 17.5836C41.8677 18.7974 41.1266 19.9004 40.1915 20.8297C39.2565 21.7589 38.1459 22.4961 36.9234 22.9991C35.7009 23.5021 34.3904 23.761 33.0669 23.761V23.7437ZM33.0669 23.7437C31.0748 23.7444 29.1273 23.1589 27.4707 22.0614C25.814 20.9638 24.5227 19.4035 23.7601 17.5778C22.9974 15.752 22.7977 13.7429 23.1861 11.8045C23.5746 9.86618 24.5338 8.08566 25.9424 6.6882C27.351 5.29074 29.1458 4.33913 31.0996 3.95375C33.0534 3.56836 35.0785 3.7665 36.9188 4.52311C38.7591 5.27973 40.3319 6.56082 41.4382 8.20435C42.5445 9.84787 43.1346 11.78 43.1339 13.7563C43.1362 15.0693 42.8775 16.3699 42.3726 17.5836C41.8677 18.7974 41.1266 19.9004 40.1915 20.8297C39.2565 21.7589 38.1459 22.4961 36.9234 22.9991C35.7009 23.5021 34.3904 23.761 33.0669 23.761V23.7437Z" fill="white"/>
<path d="M33.0672 27.2082C30.3844 27.2088 27.7617 26.4202 25.5308 24.942C23.2999 23.4637 21.561 21.3623 20.5341 18.9035C19.5071 16.4447 19.2382 13.739 19.7614 11.1286C20.2846 8.51818 21.5764 6.12034 23.4734 4.23836C25.3704 2.35638 27.7874 1.07481 30.4186 0.555742C33.0498 0.0366729 35.7771 0.303428 38.2555 1.32226C40.7339 2.3411 42.8521 4.06625 44.3421 6.27951C45.8321 8.49277 46.6271 11.0947 46.6264 13.7562C46.6217 17.3225 45.1917 20.7414 42.6498 23.2631C40.108 25.7848 36.6619 27.2036 33.0672 27.2082ZM33.0672 0.904874C30.5065 0.904874 28.0034 1.65819 25.8743 3.06955C23.7452 4.48091 22.0858 6.48694 21.1058 8.83395C20.1259 11.181 19.8695 13.7635 20.3691 16.2551C20.8686 18.7467 22.1017 21.0353 23.9124 22.8317C25.723 24.628 28.0299 25.8513 30.5414 26.3469C33.0528 26.8425 35.656 26.5881 38.0217 25.616C40.3874 24.6438 42.4095 22.9975 43.8321 20.8853C45.2547 18.773 46.014 16.2897 46.014 13.7493C46.0085 10.3444 44.6426 7.0806 42.2158 4.673C39.789 2.2654 36.4992 0.910382 33.0672 0.904874V0.904874ZM33.0672 24.0457C31.0149 24.0463 29.0085 23.4432 27.3018 22.3124C25.5951 21.1817 24.2648 19.5742 23.4791 17.6933C22.6934 15.8124 22.4877 13.7425 22.8879 11.7456C23.2881 9.74862 24.2763 7.91428 25.7275 6.47459C27.1786 5.03489 29.0276 4.05452 31.0405 3.65748C33.0533 3.26044 35.1397 3.46456 37.0356 4.24403C38.9315 5.02351 40.5518 6.34331 41.6916 8.0365C42.8313 9.72969 43.4393 11.7202 43.4386 13.7562C43.4359 16.4843 42.3422 19.0999 40.3978 21.0289C38.4534 22.958 35.817 24.0429 33.0672 24.0457V24.0457ZM23.3046 13.7562C23.3053 15.6717 23.8784 17.5439 24.9516 19.1362C26.0247 20.7285 27.5497 21.9694 29.3336 22.7019C31.1176 23.4344 33.0804 23.6257 34.9739 23.2516C36.8675 22.8775 38.6066 21.9548 39.9716 20.6001C41.3366 19.2455 42.266 17.5197 42.6425 15.641C43.0189 13.7623 42.8253 11.8151 42.0863 10.0455C41.3473 8.27595 40.096 6.76351 38.4906 5.69942C36.8853 4.63533 34.9979 4.06738 33.0672 4.06738C30.4782 4.07014 27.9961 5.09192 26.1658 6.90843C24.3354 8.72495 23.3064 11.1878 23.3046 13.7562V13.7562Z" fill="black"/>
<path d="M43.0707 23.9207H43.0428C43.0299 23.9171 43.0178 23.911 43.0073 23.9028C42.9968 23.8945 42.988 23.8843 42.9815 23.8727C42.975 23.8611 42.9709 23.8483 42.9694 23.8351C42.9679 23.8219 42.9691 23.8085 42.9728 23.7957L43.2072 22.9869C43.2108 22.9741 43.217 22.9621 43.2253 22.9517C43.2336 22.9413 43.2439 22.9326 43.2557 22.9261C43.2674 22.9197 43.2802 22.9156 43.2935 22.9141C43.3069 22.9126 43.3203 22.9137 43.3332 22.9174C43.3586 22.9254 43.3798 22.943 43.3923 22.9664C43.4047 22.9898 43.4074 23.0171 43.3997 23.0424L43.1687 23.8513C43.1616 23.8714 43.1483 23.8889 43.1308 23.9013C43.1133 23.9137 43.0923 23.9205 43.0707 23.9207V23.9207Z" fill="black"/>
<path d="M44.1872 25.3405C44.1738 25.3388 44.1609 25.3345 44.1492 25.3278C44.1376 25.3211 44.1273 25.3121 44.1192 25.3015C44.1111 25.2908 44.1052 25.2786 44.1018 25.2657C44.0985 25.2527 44.0977 25.2392 44.0997 25.226C44.2222 24.2817 44.3727 23.3236 44.5476 22.3863C44.5491 22.3726 44.5534 22.3594 44.5603 22.3474C44.5671 22.3354 44.5764 22.3249 44.5875 22.3166C44.5986 22.3083 44.6113 22.3024 44.6248 22.2992C44.6383 22.296 44.6523 22.2955 44.666 22.2979C44.6797 22.3003 44.6928 22.3054 44.7044 22.313C44.716 22.3206 44.7259 22.3305 44.7335 22.342C44.7411 22.3536 44.7462 22.3666 44.7485 22.3801C44.7509 22.3937 44.7504 22.4077 44.7471 22.421C44.5756 23.3583 44.4251 24.3095 44.2992 25.2538C44.2957 25.2799 44.282 25.3036 44.2611 25.3198C44.2401 25.3361 44.2136 25.3435 44.1872 25.3405V25.3405Z" fill="black"/>
<path d="M45.6254 26.7152C45.6121 26.7152 45.5989 26.7126 45.5866 26.7075C45.5743 26.7025 45.5631 26.6951 45.5537 26.6857C45.5442 26.6764 45.5368 26.6653 45.5317 26.6531C45.5266 26.6408 45.5239 26.6278 45.5239 26.6145C45.5239 26.1424 45.5974 25.3474 45.6639 24.6462C45.7024 24.2192 45.7374 23.8512 45.7479 23.6048C45.7483 23.5912 45.7515 23.5779 45.7572 23.5657C45.763 23.5534 45.7712 23.5424 45.7813 23.5333C45.7914 23.5242 45.8033 23.5173 45.8162 23.5128C45.8291 23.5084 45.8428 23.5066 45.8564 23.5076C45.8697 23.5084 45.8827 23.5119 45.8947 23.5178C45.9067 23.5237 45.9173 23.5319 45.9261 23.5419C45.9349 23.5519 45.9416 23.5635 45.9459 23.5761C45.9501 23.5887 45.9518 23.602 45.9509 23.6152C45.9509 23.8512 45.9053 24.2227 45.8668 24.6566C45.8004 25.3509 45.7269 26.1459 45.7269 26.6076C45.7279 26.6214 45.7259 26.6352 45.7213 26.6483C45.7166 26.6613 45.7093 26.6732 45.6998 26.6833C45.6903 26.6934 45.6787 26.7014 45.666 26.7069C45.6532 26.7124 45.6394 26.7152 45.6254 26.7152V26.7152Z" fill="black"/>
<path d="M47.116 28.0726C47.0896 28.0726 47.0643 28.0625 47.0454 28.0443C47.0265 28.0262 47.0154 28.0015 47.0145 27.9754L46.9375 24.615C46.9383 24.5882 46.9491 24.5627 46.9679 24.5435C46.9867 24.5242 47.012 24.5126 47.039 24.5109C47.0659 24.5109 47.0917 24.5215 47.1107 24.5403C47.1298 24.5592 47.1404 24.5848 47.1404 24.6115L47.2174 27.9684C47.2179 27.9817 47.2157 27.9948 47.211 28.0072C47.2064 28.0196 47.1993 28.031 47.1902 28.0407C47.1811 28.0503 47.1702 28.0581 47.158 28.0636C47.1459 28.0691 47.1328 28.0721 47.1195 28.0726H47.116Z" fill="black"/>
<path d="M48.526 29.5584C48.4997 29.5584 48.4744 29.5483 48.4555 29.5301C48.4365 29.512 48.4254 29.4873 48.4245 29.4612L48.2916 25.9446C48.2911 25.9314 48.2933 25.9182 48.2979 25.9058C48.3026 25.8934 48.3097 25.8821 48.3188 25.8724C48.3279 25.8627 48.3388 25.8549 48.351 25.8494C48.3631 25.844 48.3762 25.8409 48.3896 25.8405C48.403 25.8395 48.4165 25.8413 48.4292 25.8458C48.4419 25.8502 48.4536 25.8572 48.4634 25.8664C48.4733 25.8755 48.4811 25.8865 48.4865 25.8988C48.4918 25.9111 48.4945 25.9243 48.4945 25.9377L48.6275 29.4543C48.6279 29.4675 48.6258 29.4807 48.6211 29.4931C48.6164 29.5055 48.6094 29.5168 48.6003 29.5265C48.5912 29.5361 48.5802 29.5439 48.5681 29.5494C48.556 29.5549 48.5429 29.558 48.5295 29.5584H48.526Z" fill="black"/>
<path d="M49.9646 30.8116C49.9383 30.8116 49.913 30.8014 49.894 30.7833C49.8751 30.7652 49.864 30.7404 49.8631 30.7144L49.6812 27.4303C49.681 27.4035 49.691 27.3776 49.7091 27.3577C49.7273 27.3378 49.7522 27.3253 49.7791 27.3227C49.7927 27.3212 49.8064 27.3226 49.8194 27.3269C49.8323 27.3311 49.8442 27.3381 49.8542 27.3473C49.8642 27.3566 49.872 27.3679 49.8772 27.3804C49.8823 27.3929 49.8847 27.4064 49.8841 27.4199L50.0661 30.7039C50.0662 30.7308 50.0562 30.7567 50.0381 30.7766C50.02 30.7965 49.995 30.809 49.9681 30.8116H49.9646Z" fill="black"/>
<path d="M51.3848 31.9675C51.3591 31.9676 51.3343 31.9579 51.3155 31.9405C51.2966 31.9231 51.2852 31.8993 51.2834 31.8738L51.0349 28.6766C51.034 28.6633 51.0357 28.65 51.0399 28.6375C51.0442 28.6249 51.0509 28.6133 51.0597 28.6033C51.0684 28.5933 51.0791 28.5851 51.0911 28.5792C51.1031 28.5733 51.1161 28.5698 51.1294 28.5689C51.1426 28.5675 51.1559 28.5687 51.1685 28.5725C51.1812 28.5763 51.193 28.5826 51.2031 28.5911C51.2132 28.5995 51.2215 28.6099 51.2275 28.6216C51.2335 28.6333 51.237 28.6461 51.2379 28.6592L51.4863 31.8599C51.4873 31.8731 51.4856 31.8864 51.4813 31.899C51.4771 31.9116 51.4704 31.9232 51.4616 31.9332C51.4529 31.9432 51.4422 31.9514 51.4302 31.9572C51.4182 31.9631 51.4052 31.9666 51.3918 31.9675H51.3848Z" fill="black"/>
<path d="M52.7289 33.0089C52.7043 33.0082 52.6808 32.9987 52.6628 32.9821C52.6448 32.9655 52.6335 32.9429 52.6309 32.9187L52.3405 30.1103C52.339 30.0975 52.3401 30.0845 52.3438 30.0722C52.3474 30.0599 52.3534 30.0483 52.3616 30.0383C52.3697 30.0283 52.3798 30.02 52.3912 30.0139C52.4026 30.0078 52.415 30.0039 52.4279 30.0027C52.4411 30.0007 52.4545 30.0014 52.4674 30.0048C52.4802 30.0082 52.4923 30.0141 52.5027 30.0222C52.5132 30.0303 52.5219 30.0405 52.5283 30.052C52.5347 30.0636 52.5387 30.0763 52.5399 30.0894L52.8304 32.8979C52.8318 32.9109 52.8306 32.9241 52.8267 32.9367C52.8229 32.9492 52.8166 32.9609 52.8081 32.9709C52.7996 32.981 52.7891 32.9892 52.7773 32.9952C52.7655 33.0011 52.7526 33.0046 52.7394 33.0055L52.7289 33.0089Z" fill="black"/>
<path d="M54.0477 32.8591C54.0236 32.8585 54.0006 32.8495 53.9827 32.8336C53.9647 32.8177 53.9531 32.796 53.9497 32.7724L53.7433 31.5197C53.7393 31.4935 53.7459 31.4667 53.7616 31.4453C53.7773 31.4238 53.8009 31.4094 53.8273 31.4051C53.8404 31.4027 53.854 31.4029 53.867 31.4058C53.88 31.4087 53.8924 31.4142 53.9032 31.422C53.914 31.4298 53.9231 31.4397 53.9299 31.4512C53.9367 31.4626 53.9411 31.4753 53.9427 31.4884L54.1491 32.7412C54.1531 32.7674 54.1466 32.7941 54.1309 32.8155C54.1152 32.837 54.0915 32.8514 54.0652 32.8557L54.0477 32.8591Z" fill="black"/>
<g opacity="0.13">
<path opacity="0.13" d="M42.4446 16.9361C42.0946 17.2138 41.9582 17.6651 41.6747 17.9949C41.3279 18.4231 40.9551 18.83 40.5585 19.2134C40.2086 19.5085 39.9077 19.7654 39.5822 20.0118C39.5217 20.024 39.4638 20.0463 39.4108 20.0778C37.7557 21.2685 36.51 21.7024 34.414 22.0843C33.191 22.356 31.9209 22.3405 30.7049 22.0392C29.6097 21.7857 29.0778 21.4872 27.9336 20.7235C27.0856 20.0855 26.3111 19.3567 25.6242 18.5503V18.5503C25.0862 17.8045 24.6716 16.9784 24.396 16.103C24.2315 15.6656 24.1055 15.2108 23.9761 14.763C23.8077 14.3276 23.7222 13.865 23.7241 13.3987C23.6051 13.0515 23.4932 12.7252 23.3917 12.3816C23.2946 12.3361 23.1874 12.3158 23.0803 12.3225C22.9105 13.6763 22.9176 15.0461 23.1013 16.398C23.3987 17.5679 23.7661 18.8281 24.8963 20.0951C25.477 20.7165 26.1234 21.274 26.8244 21.758C28.1591 22.8971 29.8357 23.5671 31.5937 23.6638C32.2551 23.7754 32.9291 23.7917 33.5952 23.7124C34.1129 23.6492 34.6236 23.5389 35.1208 23.3826C36.176 23.1501 37.1985 22.7898 38.1651 22.3099C38.4069 22.1678 38.6405 22.0125 38.8649 21.8448C39.9683 21.1682 40.9777 20.3513 41.8672 19.4147C42.0282 19.0676 42.1856 18.7517 42.3291 18.415C42.5157 17.9104 42.6977 17.4071 42.875 16.9049C42.8055 16.8774 42.7307 16.8659 42.6561 16.8713C42.5816 16.8767 42.5092 16.8989 42.4446 16.9361V16.9361Z" fill="black"/>
</g>
<g opacity="0.13">
<path opacity="0.13" d="M44.607 21.2268C44.1032 21.0845 43.7637 21.4316 43.5153 21.8135L43.4803 21.8551C43.0394 22.362 42.917 22.3203 42.1892 22.973C42.0306 23.0497 41.8918 23.1613 41.7832 23.2993C41.6824 23.4156 41.6171 23.558 41.5948 23.7099C41.5724 23.8617 41.5941 24.0167 41.6573 24.1567C41.5658 24.1582 41.4756 24.1791 41.3929 24.218C41.3102 24.2569 41.2369 24.313 41.1779 24.3824C41.04 24.5287 40.8849 24.6581 40.716 24.7677C39.9565 25.2616 39.1558 25.6902 38.3226 26.0487C36.3071 26.8159 34.9004 27.2012 32.9619 27.0901C29.8582 27.0103 27.2583 25.8369 24.9628 24.2331C24.5458 23.9354 24.1695 23.5853 23.8431 23.1917L23.9376 23.3132C23.6122 22.9278 23.3602 22.4245 22.8879 22.1815C22.7579 22.1271 22.613 22.1192 22.4778 22.1591C22.3426 22.199 22.2256 22.2842 22.1467 22.4002C22.0678 22.5161 22.0319 22.6557 22.0452 22.795C22.0585 22.9343 22.1201 23.0647 22.2195 23.1639C22.6324 23.511 22.9193 24.1081 23.5737 24.6879C24.2121 25.2526 24.9171 25.7387 25.6732 26.1355C26.2852 26.5337 26.9288 26.882 27.5977 27.1769C28.3852 27.5393 29.2053 27.8275 30.0471 28.0378C31.5608 28.3802 33.1175 28.4972 34.666 28.385C36.4623 28.1411 38.1978 27.5704 39.7853 26.7013C40.5831 26.2465 41.4263 25.8369 42.0807 25.1808C42.1448 25.1182 42.1937 25.0419 42.2234 24.9576C42.2531 24.8733 42.2629 24.7834 42.2521 24.6948C42.3678 24.7328 42.4904 24.745 42.6114 24.7306C42.7323 24.7162 42.8486 24.6755 42.952 24.6115C43.5284 24.2906 44.0303 23.853 44.4251 23.327C44.6873 23.0532 44.9217 22.7544 45.1249 22.4349C45.1881 22.3244 45.2247 22.201 45.232 22.0742C45.2393 21.9475 45.217 21.8207 45.1669 21.7039C45.1168 21.587 45.0403 21.4832 44.9432 21.4005C44.8461 21.3177 44.731 21.2583 44.607 21.2268V21.2268Z" fill="black"/>
</g>
<path d="M4.93055 30.1763C4.87362 30.1771 4.8177 30.1614 4.76958 30.1312C4.73553 30.1103 4.70598 30.0829 4.68261 30.0506C4.65925 30.0183 4.64255 29.9818 4.63345 29.9431C4.62435 29.9044 4.62304 29.8643 4.62958 29.8251C4.63613 29.7859 4.65042 29.7483 4.67162 29.7146L9.45845 22.119C9.47943 22.0846 9.50728 22.0548 9.54031 22.0314C9.57334 22.0081 9.61083 21.9917 9.65049 21.9832C9.69015 21.9747 9.73114 21.9744 9.77092 21.9823C9.81071 21.9901 9.84844 22.0059 9.88183 22.0288L14.8331 25.2815L18.7592 20.4805C18.7846 20.4496 18.8159 20.424 18.8513 20.4051C18.8868 20.3863 18.9256 20.3746 18.9656 20.3707C19.0056 20.3668 19.046 20.3708 19.0845 20.3825C19.1229 20.3942 19.1586 20.4134 19.1896 20.4389C19.2206 20.4637 19.2464 20.4945 19.2654 20.5294C19.2843 20.5642 19.2961 20.6025 19.3 20.6419C19.3039 20.6813 19.2998 20.7211 19.2881 20.759C19.2763 20.7968 19.2571 20.832 19.2316 20.8624L15.1306 25.8717C15.0836 25.9302 15.0162 25.9692 14.9416 25.9807C14.8671 25.9923 14.7909 25.9757 14.7282 25.9342L9.80836 22.7196L5.18948 30.0513C5.16007 30.0917 5.12102 30.1243 5.07584 30.1461C5.03066 30.1679 4.98075 30.1783 4.93055 30.1763V30.1763Z" fill="black"/>
<path d="M40.4921 17.561C40.4506 17.5605 40.4097 17.5517 40.3718 17.535C40.3338 17.5183 40.2998 17.494 40.2716 17.4638L32.5141 9.2746L25.7887 17.0646C25.7349 17.1206 25.6616 17.1541 25.5837 17.158C25.5058 17.162 25.4294 17.1362 25.3701 17.0858C25.3109 17.0355 25.2734 16.9646 25.2653 16.8876C25.2572 16.8107 25.2793 16.7336 25.3268 16.6723L32.2726 8.62544C32.3003 8.59303 32.3346 8.56672 32.3731 8.54819C32.4117 8.52966 32.4537 8.51932 32.4965 8.51782C32.5818 8.52163 32.6627 8.5562 32.724 8.61502L40.7125 17.0507C40.7696 17.1073 40.8016 17.1841 40.8016 17.2642C40.8016 17.3442 40.7696 17.421 40.7125 17.4777C40.6836 17.5059 40.6491 17.5279 40.6111 17.5422C40.5732 17.5566 40.5326 17.563 40.4921 17.561Z" fill="black"/>
<g opacity="0.13">
<path opacity="0.13" d="M24.6063 32.023C24.5903 31.9237 24.5475 31.8304 24.4825 31.7531C24.4175 31.6758 24.3327 31.6174 24.2371 31.584C24.1414 31.5506 24.0383 31.5434 23.9389 31.5632C23.8394 31.5831 23.7472 31.6292 23.672 31.6967C23.6171 31.7147 23.561 31.7286 23.5041 31.7384H23.4761C23.0737 31.721 23.4061 31.7766 23.0002 31.6655C22.9426 31.6386 22.8885 31.6048 22.8392 31.5648V31.5648L22.8112 31.544C22.7612 31.5024 22.7144 31.4572 22.6713 31.4086V31.4086C22.6073 31.2955 22.5159 31.2 22.4053 31.1309C22.2777 31.0597 22.1285 31.0365 21.9851 31.0656C21.8416 31.0946 21.7136 31.174 21.6243 31.2891C21.535 31.4042 21.4906 31.5474 21.4991 31.6924C21.5076 31.8374 21.5684 31.9745 21.6705 32.0786C21.9144 32.397 22.2482 32.6364 22.6295 32.7662C23.0108 32.896 23.4224 32.9104 23.812 32.8076C24.1514 32.6965 24.6938 32.4917 24.6063 32.023Z" fill="black"/>
</g>
<g opacity="0.13">
<path opacity="0.13" d="M29.5292 31.9362C29.5106 31.7991 29.4426 31.6733 29.3378 31.582C29.2329 31.4908 29.0983 31.4403 28.9589 31.4398C28.7838 31.4568 28.6179 31.5258 28.483 31.6377H28.434H28.406H28.231C28.1522 31.6243 28.0749 31.6033 28.0001 31.5752C27.9645 31.56 27.9306 31.5414 27.8986 31.5197L27.8566 31.4919C27.8133 31.4565 27.7724 31.4182 27.7341 31.3773C27.6222 31.2732 27.5312 31.1343 27.3842 31.0892C27.2612 31.0385 27.1244 31.0316 26.9968 31.0696C26.8693 31.1076 26.7589 31.1881 26.6843 31.2976C26.6098 31.4071 26.5757 31.5388 26.5878 31.6704C26.6 31.8019 26.6576 31.9253 26.7509 32.0196C26.9662 32.2965 27.2538 32.5096 27.5827 32.6357C27.9115 32.7618 28.2689 32.796 28.6159 32.7347C29.0183 32.6826 29.6167 32.4396 29.5292 31.9362Z" fill="black"/>
</g>
<g opacity="0.13">
<path opacity="0.13" d="M34.9635 31.9501C34.9487 31.8535 34.9098 31.7622 34.8503 31.6843C34.7909 31.6064 34.7128 31.5445 34.6231 31.5042C34.5335 31.4638 34.4351 31.4463 34.3369 31.4533C34.2386 31.4602 34.1437 31.4914 34.0607 31.5439C33.9933 31.5654 33.9243 31.5817 33.8543 31.5925C33.7669 31.5976 33.6792 31.5976 33.5918 31.5925H33.4659C33.3873 31.5794 33.3101 31.5597 33.2349 31.5335C33.1889 31.5085 33.1445 31.4807 33.1019 31.4502C32.9895 31.3359 32.8534 31.2471 32.703 31.1899C32.5594 31.1496 32.4059 31.1628 32.2713 31.227C32.1368 31.2912 32.0305 31.4019 31.9725 31.5384C31.9144 31.6748 31.9087 31.8276 31.9562 31.968C32.0038 32.1084 32.1013 32.2267 32.2307 32.3007C32.5972 32.6108 33.0647 32.7786 33.5463 32.7728C34.0782 32.7624 35.0405 32.6583 34.9635 31.9501Z" fill="black"/>
</g>
</svg>

