<svg width="28" height="23" viewBox="0 0 28 23" fill="none" xmlns="http://www.w3.org/2000/svg">
<path d="M10.3478 0C4.6413 0 0 3.82912 0 8.53675C0 11.0504 1.25306 13.3111 3.54042 14.9485L1.93546 19.6078L6.95482 16.602C8.34817 17.0252 10.0482 17.1747 11.6889 16.9999C13.0204 19.4929 16.0282 21.1947 19.4783 21.1947C20.5268 21.1947 21.4969 21.0038 22.3981 20.7439L26.5662 23L25.4035 19.1433C26.9728 17.883 28 16.1283 28 14.1298C28 10.4732 24.7116 7.55704 20.5435 7.12699C19.7255 3.0334 15.4409 0 10.3478 0ZM6.69565 4.70993C7.36617 4.70993 7.91304 5.23888 7.91304 5.88741C7.91304 6.53595 7.36617 7.06489 6.69565 7.06489C6.02514 7.06489 5.47826 6.53595 5.47826 5.88741C5.47826 5.23888 6.02514 4.70993 6.69565 4.70993ZM14 4.70993C14.6705 4.70993 15.2174 5.23888 15.2174 5.88741C15.2174 6.53595 14.6705 7.06489 14 7.06489C13.3295 7.06489 12.7826 6.53595 12.7826 5.88741C12.7826 5.23888 13.3295 4.70993 14 4.70993ZM19.4783 8.24238C23.5846 8.24238 26.7826 10.9124 26.7826 14.1298C26.7826 15.8707 25.8648 17.3978 24.3502 18.4833L24.0102 18.7293L24.5642 20.5668L22.5859 19.4929L22.3291 19.5756C21.4779 19.8516 20.5054 20.0172 19.4783 20.0172C15.3719 20.0172 12.1739 17.3472 12.1739 14.1298C12.1739 10.9124 15.3719 8.24238 19.4783 8.24238ZM16.7391 11.7748C16.2517 11.7748 15.8261 12.1865 15.8261 12.6579C15.8261 13.1294 16.2517 13.541 16.7391 13.541C17.2266 13.541 17.6522 13.1294 17.6522 12.6579C17.6522 12.1865 17.2266 11.7748 16.7391 11.7748ZM22.2174 11.7748C21.73 11.7748 21.3043 12.1865 21.3043 12.6579C21.3043 13.1294 21.73 13.541 22.2174 13.541C22.7048 13.541 23.1304 13.1294 23.1304 12.6579C23.1304 12.1865 22.7048 11.7748 22.2174 11.7748Z" fill="#49C97F"/>
</svg>
