<svg width="26" height="26" viewBox="0 0 26 26" fill="none" xmlns="http://www.w3.org/2000/svg">
<path d="M25.1331 6.05679C25.1076 5.95431 25.0552 5.86049 24.9814 5.78498C24.9076 5.70947 24.815 5.655 24.7131 5.62719C24.6112 5.59938 24.5038 5.59923 24.4019 5.62676C24.2999 5.65428 24.2071 5.70849 24.1331 5.78379L20.4561 9.46579L17.0961 8.90579L16.5361 5.54579L20.2171 1.86479C20.2905 1.78948 20.3429 1.69619 20.3689 1.59427C20.3949 1.49235 20.3937 1.38538 20.3653 1.28408C20.337 1.18278 20.2825 1.09073 20.2073 1.01713C20.1322 0.943543 20.039 0.891005 19.9371 0.864789C18.6999 0.553509 17.4016 0.581638 16.179 0.946213C14.9564 1.31079 13.8548 1.99832 12.9901 2.93638C12.1254 3.87445 11.5297 5.02834 11.2658 6.27652C11.0018 7.52469 11.0793 8.82096 11.4901 10.0288L0.927101 20.5938C0.342897 21.1899 0.0175535 21.9925 0.021769 22.8272C0.0259845 23.6618 0.359419 24.4611 0.949614 25.0513C1.53981 25.6415 2.33908 25.9749 3.17373 25.9791C4.00838 25.9833 4.81097 25.658 5.4071 25.0738L15.9611 14.5198C17.1708 14.9318 18.4693 15.0097 19.7196 14.7452C20.9699 14.4807 22.1256 13.8836 23.0649 13.017C24.0041 12.1504 24.692 11.0463 25.056 9.82128C25.42 8.59625 25.4467 7.29569 25.1331 6.05679ZM3.1671 24.0218C2.93214 24.0218 2.70245 23.9521 2.50708 23.8216C2.31172 23.691 2.15945 23.5055 2.06953 23.2884C1.97962 23.0713 1.95609 22.8325 2.00193 22.602C2.04777 22.3716 2.16091 22.1599 2.32706 21.9937C2.4932 21.8276 2.70488 21.7145 2.93533 21.6686C3.16578 21.6228 3.40465 21.6463 3.62173 21.7362C3.83881 21.8261 4.02435 21.9784 4.15489 22.1738C4.28543 22.3691 4.3551 22.5988 4.3551 22.8338C4.3551 23.1489 4.22994 23.451 4.00714 23.6738C3.78435 23.8966 3.48218 24.0218 3.1671 24.0218Z" fill="#203C62"/>
</svg>
