<svg width="155" height="88" viewBox="0 0 155 88" fill="none" xmlns="http://www.w3.org/2000/svg">
<path d="M155 60.6529C155.002 56.7315 154.162 52.8556 152.538 49.2883C150.913 45.721 148.542 42.5458 145.586 39.9783C142.629 37.4107 139.156 35.511 135.402 34.408C131.648 33.305 127.701 33.0245 123.83 33.5857C123.541 26.8642 121.33 20.3678 117.462 14.8698C113.594 9.37189 108.232 5.10419 102.013 2.57489C95.7942 0.0455974 88.9813 -0.638709 82.3855 0.603463C75.7897 1.84563 69.689 4.96194 64.8099 9.5813C60.357 6.89788 55.2799 5.43201 50.0854 5.32997C44.8908 5.22792 39.7603 6.49326 35.206 8.99972C30.6516 11.5062 26.8325 15.1661 24.1299 19.6144C21.4272 24.0626 19.9355 29.1435 19.8035 34.3502C13.4743 36.1586 8.01063 40.1996 4.41951 45.7283C0.828398 51.2569 -0.648042 57.9006 0.262355 64.4346C1.17275 70.9686 4.40861 76.9524 9.37346 81.2831C14.3383 85.6138 20.6974 87.9993 27.2786 88H132.012L131.976 87.6656C138.393 86.6479 144.238 83.3682 148.458 78.4165C152.679 73.4648 154.998 67.166 155 60.6529Z" fill="url(#paint0_linear_3_3238)"/>
<defs>
<linearGradient id="paint0_linear_3_3238" x1="0" y1="44" x2="27.6182" y2="124.179" gradientUnits="userSpaceOnUse">
<stop stop-color="#FCFCFF"/>
<stop offset="0.421" stop-color="#BBBBFF"/>
<stop offset="1" stop-color="#A7A7FF"/>
</linearGradient>
</defs>
</svg>
