<svg width="72" height="72" viewBox="0 0 72 72" fill="none" xmlns="http://www.w3.org/2000/svg">
<path d="M35.917 71.834C55.7534 71.834 71.834 55.7534 71.834 35.917C71.834 16.0806 55.7534 0 35.917 0C16.0806 0 0 16.0806 0 35.917C0 55.7534 16.0806 71.834 35.917 71.834Z" fill="#F7CD00"/>
<path d="M36.2083 45.8537C38.5396 45.7447 40.1482 44.8926 41.0344 43.2976C41.4979 42.4796 41.7296 41.5321 41.7296 40.4552C41.7296 38.7511 41.1025 37.4559 39.8483 36.5698C39.1258 36.0518 37.9124 35.561 36.2083 35.0975V45.8537ZM29.2761 26.1203C29.2761 27.4699 29.7191 28.5264 30.6053 29.2899C31.505 30.0533 32.7115 30.585 34.2248 30.8849V21.2738C32.4389 21.342 31.1642 21.8873 30.4008 22.9097C29.651 23.9322 29.2761 25.0024 29.2761 26.1203ZM25.5952 26.3656C25.5952 24.2935 26.3518 22.4258 27.8651 20.7626C29.3919 19.0994 31.5255 18.2541 34.2657 18.2269V15.5071H36.2083V18.186C38.9213 18.3768 41.0003 19.1812 42.4454 20.599C43.9041 22.0031 44.6675 23.864 44.7357 26.1816H41.1571C41.0616 25.1455 40.7821 24.2526 40.3186 23.5028C39.4598 22.1258 38.0897 21.4033 36.2083 21.3351V31.2735C39.3712 32.1596 41.5183 32.9912 42.6498 33.7683C44.4903 35.0497 45.4105 36.9447 45.4105 39.4531C45.4105 43.0795 44.2313 45.6561 41.8728 47.1829C40.564 48.0282 38.6759 48.5871 36.2083 48.8598V52.8269H34.2657V48.8598C30.2985 48.6008 27.606 47.1966 26.1882 44.6472C25.4112 43.2703 25.0226 41.4095 25.0226 39.0646H28.6421C28.7512 40.9323 29.0443 42.2956 29.5214 43.1545C30.3667 44.695 31.9345 45.5606 34.2248 45.7515V34.6067C31.2801 34.0477 29.1056 33.1139 27.7015 31.8051C26.2973 30.4964 25.5952 28.6832 25.5952 26.3656Z" fill="white"/>
</svg>
