<svg width="50" height="50" viewBox="0 0 50 50" fill="none" xmlns="http://www.w3.org/2000/svg">
<path d="M25.0159 49.2808C38.5181 49.2808 49.4639 38.335 49.4639 24.8328C49.4639 11.3305 38.5181 0.384766 25.0159 0.384766C11.5136 0.384766 0.567871 11.3305 0.567871 24.8328C0.567871 38.335 11.5136 49.2808 25.0159 49.2808Z" fill="white"/>
<path d="M25.2157 31.7311C26.8025 31.6569 27.8975 31.0769 28.5007 29.9912C28.8162 29.4344 28.974 28.7894 28.974 28.0564C28.974 26.8964 28.5471 26.0148 27.6934 25.4117C27.2016 25.059 26.3757 24.725 25.2157 24.4095V31.7311ZM20.497 18.2988C20.497 19.2175 20.7986 19.9367 21.4018 20.4563C22.0142 20.976 22.8355 21.3379 23.8655 21.5421V14.9999C22.6499 15.0463 21.7823 15.4175 21.2626 16.1135C20.7522 16.8095 20.497 17.5379 20.497 18.2988ZM17.9915 18.4659C17.9915 17.0554 18.5065 15.7841 19.5366 14.6519C20.5759 13.5198 22.0282 12.9445 23.8934 12.9259V11.0747H25.2157V12.8981C27.0624 13.028 28.4775 13.5755 29.4611 14.5406C30.4541 15.4964 30.9737 16.7631 31.0201 18.3406H28.5842C28.5193 17.6353 28.329 17.0275 28.0135 16.5171C27.4289 15.5799 26.4963 15.0881 25.2157 15.0417V21.8065C27.3686 22.4097 28.8301 22.9758 29.6003 23.5047C30.8531 24.377 31.4795 25.6669 31.4795 27.3743C31.4795 29.8427 30.6768 31.5965 29.0714 32.6359C28.1806 33.2112 26.8953 33.5917 25.2157 33.7772V36.4776H23.8934V33.7772C21.193 33.6009 19.3603 32.6451 18.3952 30.9098C17.8663 29.9726 17.6018 28.7059 17.6018 27.1098H20.0655C20.1398 28.3811 20.3393 29.3091 20.6641 29.8937C21.2394 30.9423 22.3065 31.5316 23.8655 31.6615V24.0754C21.8611 23.6949 20.381 23.0593 19.4252 22.1684C18.4694 21.2776 17.9915 20.0434 17.9915 18.4659Z" fill="#F7CD00"/>
</svg>
